<svg width="100" height="107" viewBox="0 0 100 107" fill="none" xmlns="http://www.w3.org/2000/svg">
<path d="M1.5 12C1.5 6.20102 6.20101 1.5 12 1.5H88C93.799 1.5 98.5 6.20101 98.5 12V82.046C98.5 86.6239 95.5341 90.6741 91.1699 92.0561L55.585 103.325C51.9506 104.476 48.0494 104.476 44.415 103.325L8.83015 92.0561C4.46589 90.6741 1.5 86.6239 1.5 82.046V12Z" fill="black" stroke="url(#paint0_linear_15218_14100)" stroke-width="3"/>
<path d="M55.5486 66.6665H44.4505C42.022 66.6665 40.0498 68.6501 40.0498 71.0902V82.2428C40.0498 84.6829 42.0248 86.6665 44.4505 86.6665H55.5486C57.9772 86.6665 59.9493 84.6829 59.9493 82.2428V71.0902C59.9493 68.6501 57.9772 66.6665 55.5486 66.6665ZM58.4422 82.2428C58.4422 83.8418 57.1475 85.1479 55.5486 85.1479H44.4505C42.8631 85.1479 41.5569 83.8532 41.5569 82.2428V71.0902C41.5569 69.4912 42.8516 68.1851 44.4505 68.1851H55.5486C57.1361 68.1851 58.4422 69.4798 58.4422 71.0902V82.2428Z" fill="#FCB201"/>
<path d="M47.1606 72.1411L43.9541 81.1292H45.8258L46.4114 79.4183H49.9624L50.548 81.1292H52.4398L49.2333 72.1411H47.1606ZM46.908 77.9801L48.1941 74.2252L49.4773 77.9801H46.908Z" fill="#EFF4FB"/>
<path d="M55.0003 72.1494H53.2119V81.126H55.0003V72.1494Z" fill="#EFF4FB"/>
<path d="M11.8184 37H16.79L19.0067 52.865H19.07L21.2867 37H26.2584V59.1667H22.965V42.3833H22.9017L20.3684 59.1667H17.455L14.9217 42.3833H14.8584V59.1667H11.8184V37Z" fill="white"/>
<path d="M31.5494 37H36.2677L39.8778 59.1667H36.3944L35.7611 54.765V54.8283H31.8027L31.1694 59.1667H27.9394L31.5494 37ZM35.3494 51.82L33.7977 40.8633H33.7344L32.2144 51.82H35.3494Z" fill="white"/>
<path d="M42.8376 40.1667H39.1959V37H49.9626V40.1667H46.3209V59.1667H42.8376V40.1667Z" fill="white"/>
<path d="M56.7158 59.4833C55.0269 59.4833 53.7391 59.0083 52.8524 58.0583C51.9658 57.0872 51.5224 55.7044 51.5224 53.91V37H55.0058V54.1633C55.0058 54.9233 55.1535 55.4722 55.4491 55.81C55.7658 56.1478 56.2091 56.3167 56.7791 56.3167C57.3491 56.3167 57.7819 56.1478 58.0774 55.81C58.3941 55.4722 58.5524 54.9233 58.5524 54.1633V37H61.9091V53.91C61.9091 55.7044 61.4658 57.0872 60.5791 58.0583C59.6924 59.0083 58.4046 59.4833 56.7158 59.4833Z" fill="white"/>
<path d="M64.39 37H69.5516C71.3461 37 72.655 37.4222 73.4783 38.2667C74.3016 39.09 74.7133 40.3672 74.7133 42.0983V43.46C74.7133 45.7611 73.9533 47.2178 72.4333 47.83V47.8933C73.2778 48.1467 73.8689 48.6639 74.2066 49.445C74.5655 50.2261 74.745 51.2711 74.745 52.58V56.475C74.745 57.1083 74.7661 57.6256 74.8083 58.0267C74.8505 58.4067 74.9561 58.7867 75.125 59.1667H71.5783C71.4516 58.8078 71.3672 58.47 71.325 58.1533C71.2828 57.8367 71.2616 57.2667 71.2616 56.4433V52.39C71.2616 51.3767 71.0928 50.6694 70.755 50.2683C70.4383 49.8672 69.8789 49.6667 69.0766 49.6667H67.8733V59.1667H64.39V37ZM69.14 46.5C69.8366 46.5 70.3539 46.3206 70.6916 45.9617C71.0505 45.6028 71.23 45.0011 71.23 44.1567V42.4467C71.23 41.6444 71.0822 41.0639 70.7866 40.705C70.5122 40.3461 70.0689 40.1667 69.4566 40.1667H67.8733V46.5H69.14Z" fill="white"/>
<path d="M79.8535 37H84.5718L88.1818 59.1667H84.6985L84.0651 54.765V54.8283H80.1068L79.4735 59.1667H76.2435L79.8535 37ZM83.6535 51.82L82.1018 40.8633H82.0385L80.5185 51.82H83.6535Z" fill="white"/>
<path d="M47.1157 16.0369C46.8725 15.7219 46.5542 15.4585 46.1505 15.2468C45.7468 15.0351 45.276 14.9292 44.7351 14.9292C44.1374 14.9292 43.5888 15.0764 43.0946 15.3733C42.6004 15.6703 42.2096 16.0808 41.9224 16.6101C41.6352 17.1394 41.4902 17.7539 41.4902 18.4381C41.4902 19.1224 41.6352 19.742 41.9224 20.2842C42.2096 20.8265 42.5952 21.2524 43.0894 21.5519C43.5784 21.8566 44.1218 22.0038 44.7118 22.0038C45.2422 22.0038 45.7184 21.8954 46.135 21.681C46.5516 21.4667 46.8803 21.1957 47.1183 20.8703V21.8928H48.5519V15.0325H47.1183L47.1131 16.0317L47.1157 16.0369ZM46.8233 19.7032C46.6266 20.057 46.3731 20.323 46.0548 20.5062C45.7391 20.6896 45.4001 20.78 45.0301 20.78C44.66 20.78 44.334 20.687 44.0158 20.5011C43.6975 20.3127 43.4361 20.0441 43.242 19.6852C43.0454 19.3263 42.9496 18.9132 42.9496 18.4381C42.9496 17.963 43.048 17.555 43.242 17.2091C43.4361 16.8631 43.6923 16.605 44.0106 16.4242C44.3263 16.2461 44.6652 16.1557 45.0352 16.1557C45.4053 16.1557 45.7417 16.2461 46.06 16.4293C46.3757 16.6127 46.6292 16.8786 46.8285 17.2272C47.0225 17.5758 47.1209 17.9837 47.1209 18.4614C47.1157 18.9364 47.0174 19.3496 46.8233 19.7032Z" fill="white"/>
<path d="M53.6851 18.3194C53.3668 18.18 52.9579 18.0458 52.4533 17.9167C52.0807 17.8082 51.7987 17.7204 51.6046 17.6481C51.4105 17.5758 51.2501 17.4829 51.1207 17.3564C50.9861 17.2299 50.9241 17.0776 50.9241 16.8942C50.9241 16.6618 51.0224 16.4785 51.2242 16.334C51.4209 16.1945 51.7081 16.1222 52.0859 16.1222C52.4636 16.1222 52.7742 16.2126 52.9967 16.3959C53.2218 16.5792 53.346 16.8219 53.3694 17.1317H54.7925C54.7615 16.4501 54.5053 15.9131 54.024 15.5181C53.5479 15.123 52.9139 14.9268 52.1325 14.9268C51.6072 14.9268 51.144 15.012 50.7403 15.1875C50.3367 15.3631 50.0262 15.6007 49.8114 15.9053C49.5966 16.21 49.4879 16.543 49.4879 16.9097C49.4879 17.3589 49.6044 17.7178 49.8424 17.9941C50.0804 18.2679 50.3599 18.4692 50.6834 18.6035C51.0069 18.7377 51.4286 18.872 51.941 19.0166C52.4714 19.1638 52.8622 19.3032 53.108 19.4297C53.3538 19.5562 53.4755 19.7447 53.4755 20.0029C53.4755 20.2456 53.3642 20.4418 53.1442 20.5942C52.9243 20.7465 52.6138 20.8239 52.2153 20.8239C51.8168 20.8239 51.514 20.7259 51.263 20.5322C51.0121 20.3386 50.8723 20.0932 50.8464 19.8067H49.374C49.3921 20.2224 49.5216 20.5967 49.7751 20.9324C50.0262 21.268 50.3625 21.534 50.7895 21.7302C51.2165 21.9239 51.7004 22.022 52.2411 22.022C52.782 22.022 53.2374 21.9368 53.6333 21.7612C54.0292 21.5856 54.3345 21.3429 54.5493 21.0383C54.7641 20.7336 54.8728 20.3824 54.8728 19.9926C54.865 19.5536 54.7434 19.1999 54.5079 18.934C54.2828 18.6603 54.0059 18.4589 53.6851 18.3194Z" fill="white"/>
<path d="M57.5674 13.3335H56.1338V15.0376H55.3213V16.1944H56.1338V19.9924C56.1338 20.6637 56.3046 21.1491 56.6461 21.4486C56.9877 21.7482 57.4768 21.8979 58.1185 21.8979H59.2415V20.7154H58.3695C58.0771 20.7154 57.8701 20.6611 57.7536 20.5501C57.632 20.4391 57.5751 20.2531 57.5751 19.995V16.1969H59.2467V15.0402H57.5751V13.3361H57.5674V13.3335Z" fill="white"/>
<path d="M61.472 16.0369V15.0428H60.0488V21.9031H61.472V18.2935C61.472 17.5938 61.6169 17.1058 61.9041 16.8218C62.1914 16.5404 62.6131 16.401 63.1721 16.401H63.537V14.9292C63.0608 14.9292 62.652 15.0273 62.3052 15.221C61.9585 15.4146 61.6842 15.6883 61.4746 16.0369H61.472Z" fill="white"/>
<path d="M69.4263 15.0404V16.0345C69.183 15.7194 68.8648 15.4561 68.4611 15.2444C68.0574 15.0326 67.5865 14.9268 67.0457 14.9268C66.448 14.9268 65.8994 15.074 65.4051 15.3709C64.9109 15.6678 64.5201 16.0783 64.2329 16.6076C63.9457 17.1369 63.8008 17.7515 63.8008 18.4357C63.8008 19.1198 63.9457 19.7396 64.2329 20.2818C64.5201 20.8239 64.9057 21.25 65.4 21.5495C65.889 21.8542 66.4324 22.0013 67.0223 22.0013C67.5529 22.0013 68.029 21.8929 68.4456 21.6786C68.8622 21.4643 69.1908 21.1932 69.4289 20.8679V21.8904H70.8624V15.03L69.4263 15.0352V15.0404ZM69.1339 19.7034C68.9372 20.0571 68.6836 20.323 68.3654 20.5064C68.0523 20.6897 67.7107 20.7801 67.3407 20.7801C66.9706 20.7801 66.6446 20.6871 66.3263 20.5012C66.008 20.3127 65.7467 20.0442 65.5527 19.6853C65.356 19.3264 65.2603 18.9133 65.2603 18.4382C65.2603 17.9632 65.3586 17.5552 65.5527 17.2092C65.7467 16.8633 66.0029 16.605 66.3211 16.4243C66.6342 16.2461 66.9758 16.1558 67.3459 16.1558C67.7158 16.1558 68.0523 16.2461 68.3705 16.4295C68.6836 16.6128 68.9398 16.8787 69.1391 17.2273C69.3331 17.5758 69.4315 17.9838 69.4315 18.4614C69.4263 18.9366 69.3332 19.3496 69.1339 19.7034Z" fill="white"/>
<path d="M39.2062 19.6772C38.9914 19.2744 38.699 18.8872 38.3446 18.5334C38.3005 18.4895 38.2514 18.4431 38.1996 18.3991C38.1764 18.6986 38.1324 18.9904 38.0729 19.2822C38.0289 19.5016 37.9745 19.7082 37.9072 19.9148C37.9875 20.0258 38.0599 20.1394 38.1194 20.2504C38.2773 20.5473 38.5024 21.1102 38.2463 21.5543C37.9176 22.1249 36.7868 22.3082 35.5189 21.8047C35.4646 21.7815 35.0298 21.5801 34.859 21.4872C34.6831 21.389 34.5226 21.2755 34.3648 21.1592C34.2044 21.0379 34.0465 20.9037 33.9068 20.7694C33.6247 20.4957 33.3945 20.1962 33.234 19.8941C33.1486 19.7417 33.0684 19.5765 33.0011 19.388C32.9106 19.4319 32.8226 19.4784 32.7372 19.5274C32.5612 19.6256 32.4008 19.7392 32.2559 19.8554C32.1575 19.9354 32.0592 20.0155 31.9686 20.1058L31.9635 20.111C32.0178 20.2375 32.0799 20.3562 32.142 20.4699C32.3982 20.9449 32.763 21.402 33.2107 21.8022C31.9428 22.3031 30.812 22.1197 30.4833 21.5518C30.2272 21.1077 30.4523 20.5422 30.6102 20.2478C30.768 19.9509 30.9957 19.6566 31.2752 19.388C31.3864 19.2796 31.5081 19.1737 31.6349 19.073C31.8238 18.9258 32.0256 18.7864 32.2404 18.66C32.4163 18.5618 32.5897 18.4714 32.7708 18.3966C33.3013 18.1668 33.8447 18.048 34.3286 18.048H34.401C34.7296 18.048 35.079 18.1022 35.4335 18.2106C35.6094 18.2649 35.788 18.3268 35.964 18.4043C35.9458 18.5695 35.9199 18.727 35.8837 18.8794C35.8035 19.2434 35.6767 19.5688 35.5292 19.8399C35.5292 19.8451 35.524 19.8477 35.524 19.8477C35.4257 20.049 35.286 20.2607 35.11 20.4673C35.1903 20.5215 35.2757 20.5757 35.3611 20.6248C35.4956 20.7022 35.8967 20.8856 35.8967 20.8856C36.0183 20.9346 36.2512 21.0017 36.2564 21.0069C36.3831 20.8365 36.4892 20.661 36.585 20.4879C36.8152 20.08 36.9886 19.6049 37.1025 19.0833C37.1879 18.6832 37.2319 18.2545 37.2319 17.8053V17.6762C37.1879 15.386 35.9484 13.6147 34.37 13.6147C33.0865 13.6147 32.0256 14.7947 31.653 16.4653C31.9221 16.3361 32.2016 16.2277 32.4784 16.1347C32.6906 16.0625 32.9002 16.0083 33.1124 15.9592C33.4307 15.2595 33.9171 14.8386 34.37 14.8386C35.0298 14.8386 35.7544 15.732 35.951 17.0797C35.4154 16.9042 34.8772 16.8164 34.37 16.819C33.8939 16.8267 33.2884 16.9171 32.789 17.0797C32.3982 17.2089 32.0023 17.3844 31.6245 17.5987C31.5831 17.622 31.5443 17.6426 31.5081 17.671C30.6361 18.2003 29.9322 18.9078 29.5234 19.6798C29.0473 20.5757 29.011 21.4639 29.4199 22.1714C29.8649 22.9382 30.7447 23.3333 31.7875 23.3333C32.5923 23.3333 33.4954 23.0957 34.37 22.6155C35.2445 23.0957 36.1451 23.3333 36.9525 23.3333C37.9952 23.3333 38.875 22.9382 39.3201 22.1714C39.7238 21.4665 39.6875 20.5809 39.2088 19.6823L39.2062 19.6772Z" fill="#FCB201"/>
<defs>
<linearGradient id="paint0_linear_15218_14100" x1="50" y1="106.689" x2="50" y2="0.0223418" gradientUnits="userSpaceOnUse">
<stop stop-color="#3C50DF"/>
<stop offset="0.505" stop-color="#B478FF"/>
<stop offset="1" stop-color="#F1AC0C"/>
</linearGradient>
</defs>
</svg>
