<svg width="358" height="607" viewBox="0 0 358 607" fill="none" xmlns="http://www.w3.org/2000/svg">
<g clip-path="url(#clip0_13353_22325)">
<rect y="0.705566" width="358" height="606" fill="#FDB300"/>
<path d="M35.744 53.0896C29.248 53.0896 26.112 49.4416 26.112 44.1936V31.3616H30.72V44.0336C30.72 47.0096 32.448 49.0576 35.744 49.0576C39.04 49.0576 40.736 47.0096 40.736 44.0336V31.3616H45.376V44.1616C45.376 49.4736 42.24 53.0896 35.744 53.0896ZM63.4808 52.7056H59.4168V43.3616C59.4168 41.2176 58.2968 40.4816 56.5688 40.4816C54.9688 40.4816 53.7208 41.3776 53.0488 42.3056V52.7056H48.9848V37.2496H53.0488V39.2656C54.0408 38.0816 55.9288 36.8656 58.4568 36.8656C61.8488 36.8656 63.4808 38.7856 63.4808 41.7936V52.7056ZM71.08 52.7056H67.016V31.3616H71.08V52.7056ZM76.6258 35.5856C75.3138 35.5856 74.1938 34.4976 74.1938 33.1536C74.1938 31.8096 75.3138 30.7536 76.6258 30.7536C77.9698 30.7536 79.0578 31.8096 79.0578 33.1536C79.0578 34.4976 77.9698 35.5856 76.6258 35.5856ZM78.6738 52.7056H74.6098V37.2496H78.6738V52.7056ZM105.468 52.7056H101.372V42.9456C101.372 41.5056 100.732 40.4816 99.0675 40.4816C97.6275 40.4816 96.4435 41.4416 95.8675 42.2736V52.7056H91.7715V42.9456C91.7715 41.5056 91.1315 40.4816 89.4675 40.4816C88.0595 40.4816 86.8755 41.4416 86.2675 42.3056V52.7056H82.2035V37.2496H86.2675V39.2656C86.9075 38.3376 88.9555 36.8656 91.3235 36.8656C93.5955 36.8656 95.0355 37.9216 95.6115 39.6816C96.5075 38.2736 98.5555 36.8656 100.924 36.8656C103.772 36.8656 105.468 38.3696 105.468 41.5376V52.7056ZM110.97 35.5856C109.658 35.5856 108.538 34.4976 108.538 33.1536C108.538 31.8096 109.658 30.7536 110.97 30.7536C112.314 30.7536 113.402 31.8096 113.402 33.1536C113.402 34.4976 112.314 35.5856 110.97 35.5856ZM113.018 52.7056H108.954V37.2496H113.018V52.7056ZM121.731 53.0896C118.883 53.0896 117.347 51.6176 117.347 48.8656V40.8016H114.787V37.2496H117.347V33.0256H121.443V37.2496H124.579V40.8016H121.443V47.7776C121.443 48.7376 121.955 49.4736 122.851 49.4736C123.459 49.4736 124.035 49.2496 124.259 49.0256L125.123 52.0976C124.515 52.6416 123.427 53.0896 121.731 53.0896ZM134.124 53.0896C129.42 53.0896 125.868 49.9216 125.868 44.9616C125.868 40.4816 129.164 36.8656 133.868 36.8656C138.476 36.8656 141.612 40.3216 141.612 45.3776V46.2736H130.124C130.38 48.2256 131.948 49.8576 134.572 49.8576C135.884 49.8576 137.708 49.2816 138.7 48.3216L140.492 50.9456C138.956 52.3536 136.524 53.0896 134.124 53.0896ZM137.676 43.5216C137.58 42.0496 136.556 40.0976 133.868 40.0976C131.34 40.0976 130.252 41.9856 130.06 43.5216H137.676ZM158.767 52.7056H154.671V50.7216C153.455 52.2576 151.759 53.0896 149.903 53.0896C145.999 53.0896 143.055 50.1456 143.055 44.9936C143.055 39.9376 145.967 36.8656 149.903 36.8656C151.727 36.8656 153.455 37.6656 154.671 39.2336V31.3616H158.767V52.7056ZM151.151 49.4736C152.527 49.4736 153.999 48.7376 154.671 47.7136V42.2416C153.999 41.2176 152.527 40.4816 151.151 40.4816C148.847 40.4816 147.247 42.3056 147.247 44.9936C147.247 47.6496 148.847 49.4736 151.151 49.4736ZM189.985 52.7056H184.801L183.489 49.0896H174.337L172.993 52.7056H167.809L176.065 31.3616H181.761L189.985 52.7056ZM182.241 45.0896L178.913 35.9056L175.585 45.0896H182.241ZM196 52.7056H191.456V31.3616H196V52.7056ZM212.513 53.0896C209.665 53.0896 208.129 51.6176 208.129 48.8656V40.8016H205.569V37.2496H208.129V33.0256H212.225V37.2496H215.361V40.8016H212.225V47.7776C212.225 48.7376 212.737 49.4736 213.633 49.4736C214.241 49.4736 214.817 49.2496 215.041 49.0256L215.905 52.0976C215.297 52.6416 214.209 53.0896 212.513 53.0896ZM232.137 52.7056H228.073V50.7536C227.017 51.9376 225.161 53.0896 222.633 53.0896C219.241 53.0896 217.641 51.2336 217.641 48.2256V37.2496H221.705V46.6256C221.705 48.7696 222.825 49.4736 224.553 49.4736C226.121 49.4736 227.369 48.6096 228.073 47.7136V37.2496H232.137V52.7056ZM240.856 53.0896C238.008 53.0896 236.472 51.6176 236.472 48.8656V40.8016H233.912V37.2496H236.472V33.0256H240.568V37.2496H243.704V40.8016H240.568V47.7776C240.568 48.7376 241.08 49.4736 241.976 49.4736C242.584 49.4736 243.16 49.2496 243.384 49.0256L244.248 52.0976C243.64 52.6416 242.552 53.0896 240.856 53.0896ZM253.153 53.0896C248.065 53.0896 244.993 49.3776 244.993 44.9616C244.993 40.5776 248.065 36.8656 253.153 36.8656C258.273 36.8656 261.345 40.5776 261.345 44.9616C261.345 49.3776 258.273 53.0896 253.153 53.0896ZM253.153 49.4736C255.681 49.4736 257.121 47.3936 257.121 44.9616C257.121 42.5616 255.681 40.4816 253.153 40.4816C250.625 40.4816 249.217 42.5616 249.217 44.9616C249.217 47.3936 250.625 49.4736 253.153 49.4736ZM267.924 52.7056H263.86V37.2496H267.924V39.3616C269.012 37.9856 270.932 36.8656 272.852 36.8656V40.8336C272.564 40.7696 272.18 40.7376 271.732 40.7376C270.388 40.7376 268.596 41.5056 267.924 42.4976V52.7056ZM276.907 35.5856C275.595 35.5856 274.475 34.4976 274.475 33.1536C274.475 31.8096 275.595 30.7536 276.907 30.7536C278.251 30.7536 279.339 31.8096 279.339 33.1536C279.339 34.4976 278.251 35.5856 276.907 35.5856ZM278.955 52.7056H274.891V37.2496H278.955V52.7056ZM296.981 52.7056H292.917V43.3616C292.917 41.2176 291.797 40.4816 290.069 40.4816C288.469 40.4816 287.221 41.3776 286.549 42.3056V52.7056H282.485V37.2496H286.549V39.2656C287.541 38.0816 289.429 36.8656 291.957 36.8656C295.349 36.8656 296.981 38.7856 296.981 41.7936V52.7056ZM306.852 58.9776C304.196 58.9776 302.148 58.3696 300.196 56.6736L302.02 53.7296C303.268 55.1056 304.9 55.6496 306.852 55.6496C308.804 55.6496 311.108 54.7856 311.108 51.7456V50.1776C309.892 51.7136 308.228 52.6096 306.34 52.6096C302.468 52.6096 299.524 49.8896 299.524 44.7376C299.524 39.6816 302.436 36.8656 306.34 36.8656C308.196 36.8656 309.86 37.6656 311.108 39.2336V37.2496H315.204V51.6496C315.204 57.5376 310.66 58.9776 306.852 58.9776ZM307.62 48.9936C308.964 48.9936 310.436 48.2256 311.108 47.2336V42.2416C310.436 41.2176 308.964 40.4816 307.62 40.4816C305.316 40.4816 303.716 42.0816 303.716 44.7376C303.716 47.3936 305.316 48.9936 307.62 48.9936ZM34.4 89.7056H30.016L23.808 74.2496H28.16L32.192 85.0016L36.224 74.2496H40.608L34.4 89.7056ZM47.4903 90.0896C44.8023 90.0896 42.2103 89.1936 40.5783 87.6896L42.3383 84.8416C43.4583 85.8976 45.7623 86.9536 47.6823 86.9536C49.4423 86.9536 50.2743 86.2496 50.2743 85.2896C50.2743 82.7296 41.0903 84.8096 41.0903 78.7296C41.0903 76.1376 43.3623 73.8656 47.4263 73.8656C50.0503 73.8656 52.1303 74.7616 53.6663 75.9776L52.0343 78.7616C51.1063 77.7696 49.3463 76.9696 47.4583 76.9696C45.9863 76.9696 45.0263 77.6416 45.0263 78.5056C45.0263 80.8096 54.1783 78.8896 54.1783 85.1296C54.1783 87.9456 51.7783 90.0896 47.4903 90.0896ZM58.7523 90.0576C57.3443 90.0576 56.1603 88.8736 56.1603 87.4656C56.1603 86.0576 57.3443 84.8736 58.7523 84.8736C60.1603 84.8736 61.3443 86.0576 61.3443 87.4656C61.3443 88.8736 60.1603 90.0576 58.7523 90.0576ZM81.6473 89.7056H77.0713V72.3616H70.8313V68.3616H87.8553V72.3616H81.6473V89.7056ZM92.0488 89.7056H87.9848V74.2496H92.0488V76.3616C93.1368 74.9856 95.0568 73.8656 96.9768 73.8656V77.8336C96.6888 77.7696 96.3048 77.7376 95.8568 77.7376C94.5128 77.7376 92.7208 78.5056 92.0488 79.4976V89.7056ZM112.36 89.7056H108.296V88.1056C107.24 89.3536 105.416 90.0896 103.4 90.0896C100.936 90.0896 98.024 88.4256 98.024 84.9696C98.024 81.3536 100.936 79.9776 103.4 79.9776C105.448 79.9776 107.272 80.6496 108.296 81.8656V79.7856C108.296 78.2176 106.952 77.1936 104.904 77.1936C103.24 77.1936 101.704 77.8016 100.392 79.0176L98.856 76.2976C100.744 74.6336 103.176 73.8656 105.608 73.8656C109.128 73.8656 112.36 75.2736 112.36 79.7216V89.7056ZM105.032 87.3376C106.344 87.3376 107.624 86.8896 108.296 85.9936V84.0736C107.624 83.1776 106.344 82.7296 105.032 82.7296C103.432 82.7296 102.12 83.5616 102.12 85.0656C102.12 86.5056 103.432 87.3376 105.032 87.3376ZM130.611 89.7056H126.515V87.7216C125.299 89.2576 123.603 90.0896 121.747 90.0896C117.843 90.0896 114.899 87.1456 114.899 81.9936C114.899 76.9376 117.811 73.8656 121.747 73.8656C123.571 73.8656 125.299 74.6656 126.515 76.2336V68.3616H130.611V89.7056ZM122.995 86.4736C124.371 86.4736 125.843 85.7376 126.515 84.7136V79.2416C125.843 78.2176 124.371 77.4816 122.995 77.4816C120.691 77.4816 119.091 79.3056 119.091 81.9936C119.091 84.6496 120.691 86.4736 122.995 86.4736ZM136.157 72.5856C134.845 72.5856 133.725 71.4976 133.725 70.1536C133.725 68.8096 134.845 67.7536 136.157 67.7536C137.501 67.7536 138.589 68.8096 138.589 70.1536C138.589 71.4976 137.501 72.5856 136.157 72.5856ZM138.205 89.7056H134.141V74.2496H138.205V89.7056ZM146.919 90.0896C144.071 90.0896 142.535 88.6176 142.535 85.8656V77.8016H139.975V74.2496H142.535V70.0256H146.631V74.2496H149.767V77.8016H146.631V84.7776C146.631 85.7376 147.143 86.4736 148.039 86.4736C148.647 86.4736 149.223 86.2496 149.447 86.0256L150.311 89.0976C149.703 89.6416 148.615 90.0896 146.919 90.0896ZM154.063 72.5856C152.751 72.5856 151.631 71.4976 151.631 70.1536C151.631 68.8096 152.751 67.7536 154.063 67.7536C155.407 67.7536 156.495 68.8096 156.495 70.1536C156.495 71.4976 155.407 72.5856 154.063 72.5856ZM156.111 89.7056H152.047V74.2496H156.111V89.7056ZM166.809 90.0896C161.721 90.0896 158.649 86.3776 158.649 81.9616C158.649 77.5776 161.721 73.8656 166.809 73.8656C171.929 73.8656 175.001 77.5776 175.001 81.9616C175.001 86.3776 171.929 90.0896 166.809 90.0896ZM166.809 86.4736C169.337 86.4736 170.777 84.3936 170.777 81.9616C170.777 79.5616 169.337 77.4816 166.809 77.4816C164.281 77.4816 162.873 79.5616 162.873 81.9616C162.873 84.3936 164.281 86.4736 166.809 86.4736ZM192.012 89.7056H187.948V80.3616C187.948 78.2176 186.828 77.4816 185.1 77.4816C183.5 77.4816 182.252 78.3776 181.58 79.3056V89.7056H177.516V74.2496H181.58V76.2656C182.572 75.0816 184.46 73.8656 186.988 73.8656C190.38 73.8656 192.012 75.7856 192.012 78.7936V89.7056ZM208.891 89.7056H204.827V88.1056C203.771 89.3536 201.947 90.0896 199.931 90.0896C197.467 90.0896 194.555 88.4256 194.555 84.9696C194.555 81.3536 197.467 79.9776 199.931 79.9776C201.979 79.9776 203.803 80.6496 204.827 81.8656V79.7856C204.827 78.2176 203.483 77.1936 201.435 77.1936C199.771 77.1936 198.235 77.8016 196.923 79.0176L195.387 76.2976C197.275 74.6336 199.707 73.8656 202.139 73.8656C205.659 73.8656 208.891 75.2736 208.891 79.7216V89.7056ZM201.563 87.3376C202.875 87.3376 204.155 86.8896 204.827 85.9936V84.0736C204.155 83.1776 202.875 82.7296 201.563 82.7296C199.963 82.7296 198.651 83.5616 198.651 85.0656C198.651 86.5056 199.963 87.3376 201.563 87.3376ZM216.486 89.7056H212.422V68.3616H216.486V89.7056ZM35.616 126.706H31.04V109.362H24.8V105.362H41.824V109.362H35.616V126.706ZM56.4495 126.706H52.3855V124.754C51.3295 125.938 49.4735 127.09 46.9455 127.09C43.5535 127.09 41.9535 125.234 41.9535 122.226V111.25H46.0175V120.626C46.0175 122.77 47.1375 123.474 48.8655 123.474C50.4335 123.474 51.6815 122.61 52.3855 121.714V111.25H56.4495V126.706ZM65.1688 127.09C62.3208 127.09 60.7848 125.618 60.7848 122.866V114.802H58.2248V111.25H60.7848V107.026H64.8808V111.25H68.0168V114.802H64.8808V121.778C64.8808 122.738 65.3928 123.474 66.2888 123.474C66.8968 123.474 67.4728 123.25 67.6968 123.026L68.5608 126.098C67.9528 126.642 66.8648 127.09 65.1688 127.09ZM77.4653 127.09C72.3773 127.09 69.3053 123.378 69.3053 118.962C69.3053 114.578 72.3773 110.866 77.4653 110.866C82.5853 110.866 85.6573 114.578 85.6573 118.962C85.6573 123.378 82.5853 127.09 77.4653 127.09ZM77.4653 123.474C79.9933 123.474 81.4333 121.394 81.4333 118.962C81.4333 116.562 79.9933 114.482 77.4653 114.482C74.9373 114.482 73.5293 116.562 73.5293 118.962C73.5293 121.394 74.9373 123.474 77.4653 123.474ZM92.2363 126.706H88.1723V111.25H92.2363V113.362C93.3243 111.986 95.2443 110.866 97.1643 110.866V114.834C96.8763 114.77 96.4923 114.738 96.0443 114.738C94.7003 114.738 92.9083 115.506 92.2363 116.498V126.706ZM101.22 109.586C99.9075 109.586 98.7875 108.498 98.7875 107.154C98.7875 105.81 99.9075 104.754 101.22 104.754C102.564 104.754 103.652 105.81 103.652 107.154C103.652 108.498 102.564 109.586 101.22 109.586ZM103.268 126.706H99.2035V111.25H103.268V126.706ZM121.293 126.706H117.229V117.362C117.229 115.218 116.109 114.482 114.381 114.482C112.781 114.482 111.533 115.378 110.861 116.306V126.706H106.797V111.25H110.861V113.266C111.853 112.082 113.741 110.866 116.269 110.866C119.661 110.866 121.293 112.786 121.293 115.794V126.706ZM131.165 132.978C128.509 132.978 126.461 132.37 124.509 130.674L126.333 127.73C127.581 129.106 129.213 129.65 131.165 129.65C133.117 129.65 135.421 128.786 135.421 125.746V124.178C134.205 125.714 132.541 126.61 130.653 126.61C126.781 126.61 123.837 123.89 123.837 118.738C123.837 113.682 126.749 110.866 130.653 110.866C132.509 110.866 134.173 111.666 135.421 113.234V111.25H139.517V125.65C139.517 131.538 134.973 132.978 131.165 132.978ZM131.933 122.994C133.277 122.994 134.749 122.226 135.421 121.234V116.242C134.749 115.218 133.277 114.482 131.933 114.482C129.629 114.482 128.029 116.082 128.029 118.738C128.029 121.394 129.629 122.994 131.933 122.994Z" fill="#15385B"/>
<mask id="path-4-inside-1_13353_22325" fill="white">
<path d="M21 174.706H169V606.706H21V174.706Z"/>
</mask>
<path d="M21 174.706H169V606.706H21V174.706Z" fill="#3C50E0"/>
<path d="M21 174.706V173.706H20V174.706H21ZM169 174.706H170V173.706H169V174.706ZM21 175.706H169V173.706H21V175.706ZM168 174.706V606.706H170V174.706H168ZM22 606.706V174.706H20V606.706H22Z" fill="white" fill-opacity="0.05" mask="url(#path-4-inside-1_13353_22325)"/>
<path d="M61.6408 209.706H59.3528V201.034H56.2328V199.034H64.7448V201.034H61.6408V209.706ZM67.2516 209.706H65.2196V201.978H67.2516V203.034C67.7956 202.346 68.7556 201.786 69.7156 201.786V203.77C69.5716 203.738 69.3796 203.722 69.1556 203.722C68.4836 203.722 67.5876 204.106 67.2516 204.602V209.706ZM77.8172 209.706H75.7852V208.906C75.2572 209.53 74.3452 209.898 73.3372 209.898C72.1052 209.898 70.6492 209.066 70.6492 207.338C70.6492 205.53 72.1052 204.842 73.3372 204.842C74.3612 204.842 75.2732 205.178 75.7852 205.786V204.746C75.7852 203.962 75.1132 203.45 74.0892 203.45C73.2572 203.45 72.4892 203.754 71.8332 204.362L71.0652 203.002C72.0092 202.17 73.2252 201.786 74.4412 201.786C76.2012 201.786 77.8172 202.49 77.8172 204.714V209.706ZM74.1532 208.522C74.8092 208.522 75.4492 208.298 75.7852 207.85V206.89C75.4492 206.442 74.8092 206.218 74.1532 206.218C73.3532 206.218 72.6972 206.634 72.6972 207.386C72.6972 208.106 73.3532 208.522 74.1532 208.522ZM87.3527 209.706H85.3047V208.714C84.6967 209.482 83.8487 209.898 82.9207 209.898C80.9687 209.898 79.4967 208.426 79.4967 205.85C79.4967 203.322 80.9527 201.786 82.9207 201.786C83.8327 201.786 84.6967 202.186 85.3047 202.97V199.034H87.3527V209.706ZM83.5447 208.09C84.2327 208.09 84.9687 207.722 85.3047 207.21V204.474C84.9687 203.962 84.2327 203.594 83.5447 203.594C82.3927 203.594 81.5927 204.506 81.5927 205.85C81.5927 207.178 82.3927 208.09 83.5447 208.09ZM90.5357 201.146C89.8797 201.146 89.3197 200.602 89.3197 199.93C89.3197 199.258 89.8797 198.73 90.5357 198.73C91.2077 198.73 91.7517 199.258 91.7517 199.93C91.7517 200.602 91.2077 201.146 90.5357 201.146ZM91.5597 209.706H89.5277V201.978H91.5597V209.706ZM96.3266 209.898C94.9026 209.898 94.1346 209.162 94.1346 207.786V203.754H92.8546V201.978H94.1346V199.866H96.1826V201.978H97.7506V203.754H96.1826V207.242C96.1826 207.722 96.4386 208.09 96.8866 208.09C97.1906 208.09 97.4786 207.978 97.5906 207.866L98.0226 209.402C97.7186 209.674 97.1746 209.898 96.3266 209.898ZM100.309 201.146C99.6528 201.146 99.0928 200.602 99.0928 199.93C99.0928 199.258 99.6528 198.73 100.309 198.73C100.981 198.73 101.525 199.258 101.525 199.93C101.525 200.602 100.981 201.146 100.309 201.146ZM101.333 209.706H99.3008V201.978H101.333V209.706ZM107.092 209.898C104.548 209.898 103.012 208.042 103.012 205.834C103.012 203.642 104.548 201.786 107.092 201.786C109.652 201.786 111.188 203.642 111.188 205.834C111.188 208.042 109.652 209.898 107.092 209.898ZM107.092 208.09C108.356 208.09 109.076 207.05 109.076 205.834C109.076 204.634 108.356 203.594 107.092 203.594C105.828 203.594 105.124 204.634 105.124 205.834C105.124 207.05 105.828 208.09 107.092 208.09ZM120.103 209.706H118.071V205.034C118.071 203.962 117.511 203.594 116.647 203.594C115.847 203.594 115.223 204.042 114.887 204.506V209.706H112.855V201.978H114.887V202.986C115.383 202.394 116.327 201.786 117.591 201.786C119.287 201.786 120.103 202.746 120.103 204.25V209.706ZM128.953 209.706H126.921V208.906C126.393 209.53 125.481 209.898 124.473 209.898C123.241 209.898 121.785 209.066 121.785 207.338C121.785 205.53 123.241 204.842 124.473 204.842C125.497 204.842 126.409 205.178 126.921 205.786V204.746C126.921 203.962 126.249 203.45 125.225 203.45C124.393 203.45 123.625 203.754 122.969 204.362L122.201 203.002C123.145 202.17 124.361 201.786 125.577 201.786C127.337 201.786 128.953 202.49 128.953 204.714V209.706ZM125.289 208.522C125.945 208.522 126.585 208.298 126.921 207.85V206.89C126.585 206.442 125.945 206.218 125.289 206.218C124.489 206.218 123.833 206.634 123.833 207.386C123.833 208.106 124.489 208.522 125.289 208.522ZM133.16 209.706H131.128V199.034H133.16V209.706ZM47.0492 227.706H44.7612V219.034H41.6412V217.034H50.1532V219.034H47.0492V227.706ZM57.876 227.706H55.844V226.73C55.316 227.322 54.388 227.898 53.124 227.898C51.428 227.898 50.628 226.97 50.628 225.466V219.978H52.66V224.666C52.66 225.738 53.22 226.09 54.084 226.09C54.868 226.09 55.492 225.658 55.844 225.21V219.978H57.876V227.706ZM62.6456 227.898C61.2216 227.898 60.4536 227.162 60.4536 225.786V221.754H59.1736V219.978H60.4536V217.866H62.5016V219.978H64.0696V221.754H62.5016V225.242C62.5016 225.722 62.7576 226.09 63.2056 226.09C63.5096 226.09 63.7976 225.978 63.9096 225.866L64.3416 227.402C64.0376 227.674 63.4936 227.898 62.6456 227.898ZM69.2039 227.898C66.6599 227.898 65.1239 226.042 65.1239 223.834C65.1239 221.642 66.6599 219.786 69.2039 219.786C71.7639 219.786 73.2999 221.642 73.2999 223.834C73.2999 226.042 71.7639 227.898 69.2039 227.898ZM69.2039 226.09C70.4679 226.09 71.1879 225.05 71.1879 223.834C71.1879 222.634 70.4679 221.594 69.2039 221.594C67.9399 221.594 67.2359 222.634 67.2359 223.834C67.2359 225.05 67.9399 226.09 69.2039 226.09ZM76.9994 227.706H74.9674V219.978H76.9994V221.034C77.5434 220.346 78.5034 219.786 79.4634 219.786V221.77C79.3194 221.738 79.1274 221.722 78.9034 221.722C78.2314 221.722 77.3354 222.106 76.9994 222.602V227.706ZM81.901 219.146C81.245 219.146 80.685 218.602 80.685 217.93C80.685 217.258 81.245 216.73 81.901 216.73C82.573 216.73 83.117 217.258 83.117 217.93C83.117 218.602 82.573 219.146 81.901 219.146ZM82.925 227.706H80.893V219.978H82.925V227.706ZM92.3479 227.706H90.3159V223.034C90.3159 221.962 89.7559 221.594 88.8919 221.594C88.0919 221.594 87.4679 222.042 87.1319 222.506V227.706H85.0999V219.978H87.1319V220.986C87.6279 220.394 88.5719 219.786 89.8359 219.786C91.5319 219.786 92.3479 220.746 92.3479 222.25V227.706ZM97.6935 230.842C96.3655 230.842 95.3415 230.538 94.3655 229.69L95.2775 228.218C95.9015 228.906 96.7175 229.178 97.6935 229.178C98.6695 229.178 99.8215 228.746 99.8215 227.226V226.442C99.2135 227.21 98.3815 227.658 97.4375 227.658C95.5015 227.658 94.0295 226.298 94.0295 223.722C94.0295 221.194 95.4855 219.786 97.4375 219.786C98.3655 219.786 99.1975 220.186 99.8215 220.97V219.978H101.869V227.178C101.869 230.122 99.5975 230.842 97.6935 230.842ZM98.0775 225.85C98.7495 225.85 99.4855 225.466 99.8215 224.97V222.474C99.4855 221.962 98.7495 221.594 98.0775 221.594C96.9255 221.594 96.1255 222.394 96.1255 223.722C96.1255 225.05 96.9255 225.85 98.0775 225.85ZM113.515 227.898C110.315 227.898 107.835 225.658 107.835 222.378C107.835 219.098 110.315 216.858 113.515 216.858C115.867 216.858 117.227 218.138 117.979 219.466L116.027 220.426C115.579 219.562 114.619 218.874 113.515 218.874C111.579 218.874 110.171 220.362 110.171 222.378C110.171 224.394 111.579 225.882 113.515 225.882C114.619 225.882 115.579 225.21 116.027 224.33L117.979 225.274C117.211 226.602 115.867 227.898 113.515 227.898ZM123.027 227.898C120.483 227.898 118.947 226.042 118.947 223.834C118.947 221.642 120.483 219.786 123.027 219.786C125.587 219.786 127.123 221.642 127.123 223.834C127.123 226.042 125.587 227.898 123.027 227.898ZM123.027 226.09C124.291 226.09 125.011 225.05 125.011 223.834C125.011 222.634 124.291 221.594 123.027 221.594C121.763 221.594 121.059 222.634 121.059 223.834C121.059 225.05 121.763 226.09 123.027 226.09ZM131.575 227.898C130.231 227.898 128.935 227.45 128.119 226.698L128.999 225.274C129.559 225.802 130.711 226.33 131.671 226.33C132.551 226.33 132.967 225.978 132.967 225.498C132.967 224.218 128.375 225.258 128.375 222.218C128.375 220.922 129.511 219.786 131.543 219.786C132.855 219.786 133.895 220.234 134.663 220.842L133.847 222.234C133.383 221.738 132.503 221.338 131.559 221.338C130.823 221.338 130.343 221.674 130.343 222.106C130.343 223.258 134.919 222.298 134.919 225.418C134.919 226.826 133.719 227.898 131.575 227.898ZM139.167 227.898C137.743 227.898 136.975 227.162 136.975 225.786V221.754H135.695V219.978H136.975V217.866H139.023V219.978H140.591V221.754H139.023V225.242C139.023 225.722 139.279 226.09 139.727 226.09C140.031 226.09 140.319 225.978 140.431 225.866L140.863 227.402C140.559 227.674 140.015 227.898 139.167 227.898ZM144.926 227.898C143.582 227.898 142.286 227.45 141.47 226.698L142.35 225.274C142.91 225.802 144.062 226.33 145.022 226.33C145.902 226.33 146.318 225.978 146.318 225.498C146.318 224.218 141.726 225.258 141.726 222.218C141.726 220.922 142.862 219.786 144.894 219.786C146.206 219.786 147.246 220.234 148.014 220.842L147.198 222.234C146.734 221.738 145.854 221.338 144.91 221.338C144.174 221.338 143.694 221.674 143.694 222.106C143.694 223.258 148.27 222.298 148.27 225.418C148.27 226.826 147.07 227.898 144.926 227.898Z" fill="white"/>
<mask id="path-7-inside-2_13353_22325" fill="white">
<path d="M189 541.706H337V606.706H189V541.706Z"/>
</mask>
<path d="M189 541.706H337V606.706H189V541.706Z" fill="white"/>
<path d="M189 541.706V540.706H188V541.706H189ZM337 541.706H338V540.706H337V541.706ZM189 542.706H337V540.706H189V542.706ZM336 541.706V606.706H338V541.706H336ZM190 606.706V541.706H188V606.706H190Z" fill="black" fill-opacity="0.05" mask="url(#path-7-inside-2_13353_22325)"/>
<path d="M261.322 578.004C260.647 576.738 259.732 575.528 258.621 574.417C258.48 574.276 258.326 574.135 258.171 573.995C258.1 574.937 257.96 575.852 257.777 576.766C257.636 577.456 257.467 578.103 257.256 578.75C257.51 579.102 257.735 579.453 257.918 579.805C258.41 580.734 259.113 582.506 258.312 583.899C257.284 585.686 253.739 586.263 249.772 584.687C249.603 584.617 248.238 583.984 247.703 583.688C247.155 583.379 246.648 583.027 246.156 582.661C245.649 582.281 245.157 581.859 244.721 581.437C243.834 580.579 243.117 579.636 242.61 578.694C242.343 578.215 242.09 577.695 241.879 577.104C241.597 577.245 241.316 577.385 241.049 577.54C240.5 577.85 239.994 578.201 239.543 578.567C239.234 578.82 238.924 579.074 238.643 579.355L238.629 579.369C238.798 579.763 238.995 580.143 239.192 580.495C239.994 581.986 241.133 583.421 242.54 584.673C238.573 586.249 235.027 585.672 234 583.885C233.198 582.492 233.902 580.72 234.394 579.791C234.886 578.862 235.604 577.934 236.476 577.09C236.828 576.752 237.208 576.414 237.602 576.105C238.193 575.641 238.826 575.205 239.501 574.811C240.05 574.501 240.599 574.22 241.161 573.981C242.821 573.263 244.524 572.883 246.043 572.883H246.268C247.295 572.883 248.393 573.052 249.504 573.39C250.053 573.558 250.616 573.755 251.164 573.995C251.108 574.515 251.024 575.008 250.911 575.486C250.658 576.626 250.264 577.653 249.8 578.497C249.8 578.511 249.786 578.525 249.786 578.525C249.476 579.158 249.04 579.819 248.491 580.466C248.745 580.635 249.012 580.804 249.279 580.959C249.701 581.198 250.953 581.775 250.953 581.775C251.333 581.93 252.065 582.141 252.079 582.155C252.473 581.62 252.811 581.071 253.106 580.523C253.823 579.242 254.372 577.751 254.724 576.119C254.991 574.867 255.132 573.516 255.132 572.109V571.701C254.991 564.512 251.108 558.955 246.17 558.955C242.146 558.955 238.826 562.655 237.658 567.903C238.502 567.495 239.375 567.157 240.247 566.862C240.908 566.636 241.569 566.468 242.231 566.313C243.229 564.118 244.749 562.796 246.17 562.796C248.238 562.796 250.503 565.595 251.122 569.83C249.448 569.281 247.76 569 246.17 569.014C244.679 569.042 242.779 569.324 241.218 569.83C239.994 570.238 238.755 570.787 237.574 571.462C237.447 571.532 237.32 571.603 237.208 571.687C234.478 573.347 232.27 575.57 230.989 577.99C229.498 580.804 229.385 583.59 230.666 585.813C232.059 588.218 234.816 589.457 238.08 589.457C240.599 589.457 243.426 588.711 246.17 587.205C248.913 588.711 251.727 589.457 254.26 589.457C257.524 589.457 260.281 588.218 261.674 585.813C262.94 583.604 262.828 580.818 261.322 578.004Z" fill="#15385B"/>
<path d="M290.098 560.305H274.664C271.288 560.305 268.544 563.063 268.544 566.453V581.958C268.544 585.348 271.288 588.106 274.664 588.106H290.098C293.475 588.106 296.218 585.348 296.218 581.958V566.453C296.218 563.063 293.475 560.305 290.098 560.305ZM294.122 581.958C294.122 584.181 292.321 585.995 290.098 585.995H274.664C272.456 585.995 270.641 584.195 270.641 581.958V566.453C270.641 564.231 272.442 562.416 274.664 562.416H290.098C292.307 562.416 294.122 564.217 294.122 566.453V581.958Z" fill="#15385B"/>
<path d="M278.435 567.917L273.975 580.41H276.578L277.394 578.032H282.332L283.148 580.41H285.779L281.319 567.917H278.435ZM278.083 576.034L279.87 570.815L281.657 576.034H278.083Z" fill="#15385B"/>
<path d="M289.339 567.931H286.849V580.41H289.339V567.931Z" fill="#15385B"/>
<path d="M254.246 461.461C252.232 471.038 251.473 486.198 252.371 499.077C252.599 502.756 252.749 505.745 252.628 505.698C252.538 505.662 251.64 504.138 250.618 502.31L248.771 498.949L247.742 499.534C247.164 499.857 246.564 500.501 246.364 501.009C245.357 503.581 248.836 512.27 255.012 522.419C257.713 526.884 257.995 527.141 259.634 526.684C260.884 526.332 263.421 524.029 263.881 522.854C264.13 522.219 266.783 509.413 267.669 504.668C267.908 503.26 268.138 501.519 268.128 500.746C268.165 499.588 268.016 499.346 267.315 499.182C266.851 499.036 266.283 498.887 266.06 498.836C265.879 498.766 265.599 498.949 265.499 499.203C265.4 499.457 265.192 499.632 265.011 499.561C264.861 499.502 264.342 499.848 263.835 500.345C263.119 501.017 262.643 501.966 261.825 504.32C260.915 506.82 260.643 507.337 260.362 507.08C260.14 506.846 260.03 506.95 260.001 507.378C259.955 507.763 259.872 507.62 259.714 507.046C259.368 505.445 259.072 503.095 259.223 503.154C259.313 503.189 259.486 503.989 259.627 504.96C260.052 508.314 260.179 506.569 259.723 502.764C258.35 490.651 258.36 474.831 259.696 464.146C259.967 461.944 260.191 459.688 260.124 459.149C260.1 458.59 260.183 458.11 260.324 458.018C260.481 457.97 260.428 457.839 260.248 457.769C260.037 457.686 260.097 457.087 260.421 456.261C260.707 455.531 261.226 453.94 261.579 452.686C262.187 450.69 262.171 450.464 261.538 450.216C260.543 449.826 258.494 450.708 257.61 451.9C256.474 453.469 255.113 457.295 254.246 461.461ZM247.357 503.266C247.418 503.29 247.559 503.638 247.658 504.007C247.851 504.669 247.809 504.688 247.488 504.087C247.168 503.485 247.116 503.172 247.357 503.266ZM247.734 504.879C247.794 504.903 247.971 505.338 248.153 505.849L248.44 506.804L247.983 505.929C247.574 505.109 247.493 504.785 247.734 504.879ZM254.229 500.904C254.471 501.438 255.423 509.833 255.283 509.925C255.028 510.045 254.715 508.091 254.367 504.365C254.076 501.027 254.034 500.425 254.229 500.904Z" fill="#15385B"/>
<path d="M227.229 417.352C224.637 417.352 222.461 416.488 220.957 415.144L222.973 411.656C224.125 412.744 225.341 413.32 227.229 413.32C230.749 413.32 232.573 410.376 232.573 407.304C232.573 407.144 232.573 406.984 232.573 406.824C231.549 408.264 229.405 409.576 227.069 409.576C223.229 409.576 219.773 407.176 219.773 402.632C219.773 398.472 223.101 395.304 227.965 395.304C234.429 395.304 237.149 400.296 237.149 406.344C237.149 412.776 233.533 417.352 227.229 417.352ZM228.349 405.672C229.949 405.672 231.517 404.936 232.541 403.688C232.349 401.64 231.197 399.336 228.189 399.336C225.757 399.336 224.413 401 224.413 402.472C224.413 404.712 226.365 405.672 228.349 405.672ZM247.477 417.384C242.997 417.384 238.901 415.464 238.901 411.464C238.901 408.872 240.917 406.888 243.477 405.992C241.109 405.16 239.253 403.624 239.253 400.968C239.253 396.968 243.509 395.336 247.477 395.336C251.413 395.336 255.701 396.968 255.701 400.968C255.701 403.624 253.813 405.16 251.445 405.992C254.005 406.888 256.053 408.872 256.053 411.464C256.053 415.432 251.957 417.384 247.477 417.384ZM247.477 404.2C248.789 404.008 251.061 403.272 251.061 401.672C251.061 400.136 249.557 399.24 247.477 399.24C245.365 399.24 243.861 400.136 243.861 401.672C243.861 403.272 246.165 404.008 247.477 404.2ZM247.477 413.48C249.653 413.48 251.445 412.456 251.445 410.888C251.445 409.096 248.789 408.232 247.477 408.04C246.133 408.232 243.509 409.096 243.509 410.888C243.509 412.456 245.237 413.48 247.477 413.48ZM263.568 415.432C263.568 417.832 262.224 419.976 260.272 421.384L258.512 419.944C259.536 419.4 260.72 418.056 260.976 416.936C260.88 416.968 260.592 417.032 260.368 417.032C259.152 417.032 258.192 416.104 258.192 414.728C258.192 413.32 259.344 412.168 260.688 412.168C262.192 412.168 263.568 413.352 263.568 415.432ZM270.895 417H265.903L273.551 399.656H262.799V395.656H278.831V398.824L270.895 417ZM285.209 405.96C281.945 405.96 279.801 403.688 279.801 400.712C279.801 397.704 281.945 395.336 285.209 395.336C288.505 395.336 290.649 397.704 290.649 400.712C290.649 403.688 288.505 405.96 285.209 405.96ZM285.529 417H283.129L296.761 395.656H299.193L285.529 417ZM296.953 417.384C293.689 417.384 291.545 415.08 291.545 412.104C291.545 409.096 293.689 406.728 296.953 406.728C300.217 406.728 302.393 409.096 302.393 412.104C302.393 415.08 300.217 417.384 296.953 417.384ZM285.209 403.464C286.681 403.464 287.737 402.376 287.737 400.712C287.737 398.92 286.681 397.864 285.209 397.864C283.769 397.864 282.681 398.92 282.681 400.712C282.681 402.376 283.769 403.464 285.209 403.464ZM296.953 414.888C298.425 414.888 299.513 413.832 299.513 412.104C299.513 410.344 298.425 409.256 296.953 409.256C295.481 409.256 294.425 410.344 294.425 412.104C294.425 413.832 295.481 414.888 296.953 414.888ZM237.741 434.192C235.357 434.192 233.645 432.512 233.645 430.128C233.645 427.76 235.357 426.08 237.741 426.08C239.325 426.08 240.285 426.768 240.797 427.472L239.469 428.72C239.101 428.176 238.541 427.888 237.837 427.888C236.605 427.888 235.741 428.784 235.741 430.128C235.741 431.472 236.605 432.384 237.837 432.384C238.541 432.384 239.101 432.064 239.469 431.552L240.797 432.784C240.285 433.504 239.325 434.192 237.741 434.192ZM248.889 434H246.857V429.296C246.857 428.224 246.297 427.888 245.417 427.888C244.633 427.888 244.009 428.336 243.657 428.8V434H241.625V423.328H243.657V427.28C244.153 426.688 245.113 426.08 246.377 426.08C248.073 426.08 248.889 427.008 248.889 428.512V434ZM254.038 434.192C251.686 434.192 249.91 432.608 249.91 430.128C249.91 427.888 251.558 426.08 253.91 426.08C256.214 426.08 257.782 427.808 257.782 430.336V430.784H252.038C252.166 431.76 252.95 432.576 254.262 432.576C254.918 432.576 255.83 432.288 256.326 431.808L257.222 433.12C256.454 433.824 255.238 434.192 254.038 434.192ZM255.814 429.408C255.766 428.672 255.254 427.696 253.91 427.696C252.646 427.696 252.102 428.64 252.006 429.408H255.814ZM265.422 434H263.39V433.2C262.862 433.824 261.95 434.192 260.942 434.192C259.71 434.192 258.254 433.36 258.254 431.632C258.254 429.824 259.71 429.136 260.942 429.136C261.966 429.136 262.878 429.472 263.39 430.08V429.04C263.39 428.256 262.718 427.744 261.694 427.744C260.862 427.744 260.094 428.048 259.438 428.656L258.67 427.296C259.614 426.464 260.83 426.08 262.046 426.08C263.806 426.08 265.422 426.784 265.422 429.008V434ZM261.758 432.816C262.414 432.816 263.054 432.592 263.39 432.144V431.184C263.054 430.736 262.414 430.512 261.758 430.512C260.958 430.512 260.302 430.928 260.302 431.68C260.302 432.4 260.958 432.816 261.758 432.816ZM271.354 434.192C270.442 434.192 269.594 433.808 268.97 433.008V436.944H266.938V426.272H268.97V427.248C269.562 426.496 270.41 426.08 271.354 426.08C273.338 426.08 274.778 427.552 274.778 430.128C274.778 432.704 273.338 434.192 271.354 434.192ZM270.714 432.384C271.882 432.384 272.666 431.472 272.666 430.128C272.666 428.8 271.882 427.888 270.714 427.888C270.058 427.888 269.306 428.272 268.97 428.768V431.504C269.306 431.984 270.058 432.384 270.714 432.384ZM279.398 434.192C277.046 434.192 275.27 432.608 275.27 430.128C275.27 427.888 276.918 426.08 279.27 426.08C281.574 426.08 283.142 427.808 283.142 430.336V430.784H277.398C277.526 431.76 278.31 432.576 279.622 432.576C280.278 432.576 281.19 432.288 281.686 431.808L282.582 433.12C281.814 433.824 280.598 434.192 279.398 434.192ZM281.174 429.408C281.126 428.672 280.614 427.696 279.27 427.696C278.006 427.696 277.462 428.64 277.366 429.408H281.174ZM286.142 434H284.11V426.272H286.142V427.328C286.686 426.64 287.646 426.08 288.606 426.08V428.064C288.462 428.032 288.27 428.016 288.046 428.016C287.374 428.016 286.478 428.4 286.142 428.896V434Z" fill="#15385B"/>
</g>
<rect x="0.5" y="1.20557" width="357" height="605" stroke="white" stroke-opacity="0.1"/>
<defs>
<clipPath id="clip0_13353_22325">
<rect y="0.705566" width="358" height="606" fill="white"/>
</clipPath>
</defs>
</svg>
