<svg width="606" height="606" viewBox="0 0 606 606" fill="none" xmlns="http://www.w3.org/2000/svg">
<g clip-path="url(#clip0_13653_88785)">
<rect width="606" height="606" fill="#3C50E0"/>
<path d="M38.656 60H34.112V38.656H38.656V60ZM65.5613 60H61.4653V50.24C61.4653 48.8 60.8253 47.776 59.1613 47.776C57.7213 47.776 56.5373 48.736 55.9613 49.568V60H51.8653V50.24C51.8653 48.8 51.2253 47.776 49.5613 47.776C48.1533 47.776 46.9693 48.736 46.3613 49.568V60H42.2973V44.544H46.3613V46.528C47.0333 45.632 49.0493 44.16 51.4173 44.16C53.6893 44.16 55.1613 45.216 55.7053 46.944C56.6013 45.568 58.6493 44.16 61.0173 44.16C63.8653 44.16 65.5613 45.664 65.5613 48.832V60ZM77.9105 60.384C76.0865 60.384 74.4225 59.616 73.1425 58.016V65.888H69.0785V44.544H73.1425V46.496C74.3265 44.992 76.0225 44.16 77.9105 44.16C81.8785 44.16 84.7585 47.104 84.7585 52.256C84.7585 57.408 81.8785 60.384 77.9105 60.384ZM76.6305 56.768C78.9665 56.768 80.5665 54.944 80.5665 52.256C80.5665 49.6 78.9665 47.776 76.6305 47.776C75.3185 47.776 73.8465 48.512 73.1425 49.536V54.976C73.8145 55.968 75.3185 56.768 76.6305 56.768ZM91.2988 60H87.2348V44.544H91.2988V46.624C92.4188 45.28 94.3068 44.16 96.2268 44.16V48.128C95.9388 48.064 95.5868 48.032 95.1068 48.032C93.7628 48.032 91.9708 48.8 91.2988 49.792V60ZM105.434 60.384C100.346 60.384 97.274 56.64 97.274 52.256C97.274 47.872 100.346 44.16 105.434 44.16C110.554 44.16 113.626 47.872 113.626 52.256C113.626 56.64 110.554 60.384 105.434 60.384ZM105.434 56.768C107.994 56.768 109.402 54.688 109.402 52.256C109.402 49.856 107.994 47.776 105.434 47.776C102.906 47.776 101.498 49.856 101.498 52.256C101.498 54.688 102.906 56.768 105.434 56.768ZM124.556 60H120.172L113.964 44.544H118.316L122.348 55.296L126.412 44.544H130.764L124.556 60ZM139.343 60.384C134.639 60.384 131.087 57.216 131.087 52.256C131.087 47.776 134.415 44.16 139.087 44.16C143.727 44.16 146.831 47.616 146.831 52.64V53.6H135.343C135.631 55.488 137.167 57.056 139.791 57.056C141.103 57.056 142.895 56.512 143.887 55.552L145.711 58.24C144.175 59.648 141.743 60.384 139.343 60.384ZM142.927 50.784C142.799 49.312 141.775 47.488 139.087 47.488C136.559 47.488 135.471 49.248 135.311 50.784H142.927ZM156.473 66.016L157.049 62.4C157.401 62.56 157.945 62.656 158.329 62.656C159.385 62.656 160.089 62.368 160.473 61.536L161.049 60.192L154.777 44.544H159.129L163.161 55.296L167.225 44.544H171.577L164.313 62.528C163.161 65.44 161.113 66.208 158.457 66.272C158.009 66.272 156.953 66.176 156.473 66.016ZM180.059 60.384C174.971 60.384 171.899 56.64 171.899 52.256C171.899 47.872 174.971 44.16 180.059 44.16C185.179 44.16 188.251 47.872 188.251 52.256C188.251 56.64 185.179 60.384 180.059 60.384ZM180.059 56.768C182.619 56.768 184.027 54.688 184.027 52.256C184.027 49.856 182.619 47.776 180.059 47.776C177.531 47.776 176.123 49.856 176.123 52.256C176.123 54.688 177.531 56.768 180.059 56.768ZM205.293 60H201.229V58.048C200.173 59.2 198.317 60.384 195.789 60.384C192.397 60.384 190.797 58.528 190.797 55.52V44.544H194.861V53.92C194.861 56.064 195.981 56.768 197.709 56.768C199.277 56.768 200.525 55.904 201.229 55.008V44.544H205.293V60ZM212.893 60H208.829V44.544H212.893V46.624C214.013 45.28 215.901 44.16 217.821 44.16V48.128C217.533 48.064 217.181 48.032 216.701 48.032C215.357 48.032 213.565 48.8 212.893 49.792V60ZM233.915 66.272C231.291 66.272 229.211 65.664 227.259 63.968L229.083 61.056C230.331 62.4 231.995 62.944 233.915 62.944C235.867 62.944 238.203 62.112 238.203 58.976V57.472C236.987 59.008 235.323 59.872 233.403 59.872C229.562 59.872 226.587 57.184 226.587 52.032C226.587 46.976 229.499 44.16 233.403 44.16C235.259 44.16 236.955 44.928 238.203 46.528V44.544H242.267V58.976C242.267 64.832 237.723 66.272 233.915 66.272ZM234.715 56.288C236.027 56.288 237.499 55.52 238.203 54.528V49.504C237.499 48.512 236.027 47.776 234.715 47.776C232.379 47.776 230.779 49.376 230.779 52.032C230.779 54.688 232.379 56.288 234.715 56.288ZM249.861 60H245.797V44.544H249.861V46.624C250.981 45.28 252.869 44.16 254.789 44.16V48.128C254.501 48.064 254.149 48.032 253.669 48.032C252.325 48.032 250.533 48.8 249.861 49.792V60ZM270.205 60H266.109V58.368C265.053 59.648 263.229 60.384 261.213 60.384C258.749 60.384 255.868 58.72 255.868 55.264C255.868 51.616 258.749 50.272 261.213 50.272C263.293 50.272 265.085 50.944 266.109 52.16V50.208C266.109 48.64 264.765 47.616 262.717 47.616C261.085 47.616 259.549 48.256 258.269 49.44L256.669 46.592C258.557 44.896 260.989 44.16 263.421 44.16C266.973 44.16 270.205 45.568 270.205 50.016V60ZM262.845 57.632C264.157 57.632 265.437 57.184 266.109 56.288V54.368C265.437 53.472 264.157 52.992 262.845 52.992C261.245 52.992 259.933 53.856 259.933 55.328C259.933 56.8 261.245 57.632 262.845 57.632ZM288.424 60H284.328V58.016C283.112 59.552 281.448 60.384 279.56 60.384C275.688 60.384 272.712 57.44 272.712 52.256C272.712 47.232 275.624 44.16 279.56 44.16C281.384 44.16 283.112 44.928 284.328 46.528V38.656H288.424V60ZM280.84 56.768C282.184 56.768 283.656 56.032 284.328 55.008V49.536C283.656 48.512 282.184 47.776 280.84 47.776C278.504 47.776 276.904 49.6 276.904 52.256C276.904 54.944 278.504 56.768 280.84 56.768ZM299.218 60.384C294.514 60.384 290.962 57.216 290.962 52.256C290.962 47.776 294.29 44.16 298.962 44.16C303.602 44.16 306.706 47.616 306.706 52.64V53.6H295.218C295.506 55.488 297.042 57.056 299.666 57.056C300.978 57.056 302.77 56.512 303.762 55.552L305.586 58.24C304.05 59.648 301.618 60.384 299.218 60.384ZM302.802 50.784C302.674 49.312 301.65 47.488 298.962 47.488C296.434 47.488 295.346 49.248 295.186 50.784H302.802ZM324.028 60.384C318.94 60.384 315.868 56.64 315.868 52.256C315.868 47.872 318.94 44.16 324.028 44.16C329.148 44.16 332.22 47.872 332.22 52.256C332.22 56.64 329.148 60.384 324.028 60.384ZM324.028 56.768C326.588 56.768 327.996 54.688 327.996 52.256C327.996 49.856 326.588 47.776 324.028 47.776C321.5 47.776 320.092 49.856 320.092 52.256C320.092 54.688 321.5 56.768 324.028 56.768ZM338.83 60H334.766V44.544H338.83V46.624C339.95 45.28 341.838 44.16 343.758 44.16V48.128C343.47 48.064 343.118 48.032 342.638 48.032C341.294 48.032 339.502 48.8 338.83 49.792V60ZM40.352 103.272C37.728 103.272 35.648 102.664 33.696 100.968L35.52 98.056C36.768 99.4 38.432 99.944 40.352 99.944C42.304 99.944 44.64 99.112 44.64 95.976V94.472C43.424 96.008 41.76 96.872 39.84 96.872C36 96.872 33.024 94.184 33.024 89.032C33.024 83.976 35.936 81.16 39.84 81.16C41.696 81.16 43.392 81.928 44.64 83.528V81.544H48.704V95.976C48.704 101.832 44.16 103.272 40.352 103.272ZM41.152 93.288C42.464 93.288 43.936 92.52 44.64 91.528V86.504C43.936 85.512 42.464 84.776 41.152 84.776C38.816 84.776 37.216 86.376 37.216 89.032C37.216 91.688 38.816 93.288 41.152 93.288ZM59.4988 97.384C54.7948 97.384 51.2428 94.216 51.2428 89.256C51.2428 84.776 54.5708 81.16 59.2428 81.16C63.8828 81.16 66.9868 84.616 66.9868 89.64V90.6H55.4988C55.7868 92.488 57.3228 94.056 59.9468 94.056C61.2588 94.056 63.0508 93.512 64.0428 92.552L65.8668 95.24C64.3308 96.648 61.8988 97.384 59.4988 97.384ZM63.0828 87.784C62.9548 86.312 61.9308 84.488 59.2428 84.488C56.7148 84.488 55.6268 86.248 55.4668 87.784H63.0828ZM74.6063 97.384C71.7583 97.384 70.2543 95.912 70.2543 93.128V85.096H67.6943V81.544H70.2543V77.32H74.3183V81.544H77.4543V85.096H74.3183V92.04C74.3183 93.032 74.8303 93.768 75.7263 93.768C76.3343 93.768 76.9103 93.544 77.1343 93.288L77.9983 96.392C77.3903 96.936 76.3023 97.384 74.6063 97.384ZM86.9415 103.016L87.5175 99.4C87.8695 99.56 88.4135 99.656 88.7975 99.656C89.8535 99.656 90.5575 99.368 90.9415 98.536L91.5175 97.192L85.2455 81.544H89.5975L93.6295 92.296L97.6935 81.544H102.046L94.7815 99.528C93.6295 102.44 91.5815 103.208 88.9255 103.272C88.4775 103.272 87.4215 103.176 86.9415 103.016ZM110.528 97.384C105.44 97.384 102.368 93.64 102.368 89.256C102.368 84.872 105.44 81.16 110.528 81.16C115.648 81.16 118.72 84.872 118.72 89.256C118.72 93.64 115.648 97.384 110.528 97.384ZM110.528 93.768C113.088 93.768 114.496 91.688 114.496 89.256C114.496 86.856 113.088 84.776 110.528 84.776C108 84.776 106.592 86.856 106.592 89.256C106.592 91.688 108 93.768 110.528 93.768ZM135.762 97H131.698V95.048C130.642 96.2 128.786 97.384 126.258 97.384C122.866 97.384 121.266 95.528 121.266 92.52V81.544H125.33V90.92C125.33 93.064 126.45 93.768 128.178 93.768C129.746 93.768 130.994 92.904 131.698 92.008V81.544H135.762V97ZM143.361 97H139.297V81.544H143.361V83.624C144.481 82.28 146.369 81.16 148.289 81.16V85.128C148.001 85.064 147.649 85.032 147.169 85.032C145.825 85.032 144.033 85.8 143.361 86.792V97ZM181.311 97H177.215V87.24C177.215 85.8 176.575 84.776 174.911 84.776C173.471 84.776 172.287 85.736 171.711 86.568V97H167.615V87.24C167.615 85.8 166.975 84.776 165.311 84.776C163.903 84.776 162.719 85.736 162.111 86.568V97H158.047V81.544H162.111V83.528C162.783 82.632 164.799 81.16 167.167 81.16C169.439 81.16 170.911 82.216 171.455 83.944C172.351 82.568 174.399 81.16 176.767 81.16C179.615 81.16 181.311 82.664 181.311 85.832V97ZM191.997 97.384C186.909 97.384 183.837 93.64 183.837 89.256C183.837 84.872 186.909 81.16 191.997 81.16C197.117 81.16 200.189 84.872 200.189 89.256C200.189 93.64 197.117 97.384 191.997 97.384ZM191.997 93.768C194.557 93.768 195.965 91.688 195.965 89.256C195.965 86.856 194.557 84.776 191.997 84.776C189.469 84.776 188.061 86.856 188.061 89.256C188.061 91.688 189.469 93.768 191.997 93.768ZM217.263 97H213.167V87.656C213.167 85.512 212.047 84.776 210.319 84.776C208.719 84.776 207.503 85.672 206.799 86.568V97H202.735V81.544H206.799V83.528C207.791 82.376 209.711 81.16 212.207 81.16C215.631 81.16 217.263 83.08 217.263 86.088V97ZM228.03 97.384C223.326 97.384 219.774 94.216 219.774 89.256C219.774 84.776 223.102 81.16 227.774 81.16C232.414 81.16 235.518 84.616 235.518 89.64V90.6H224.03C224.318 92.488 225.854 94.056 228.478 94.056C229.79 94.056 231.582 93.512 232.574 92.552L234.398 95.24C232.862 96.648 230.43 97.384 228.03 97.384ZM231.614 87.784C231.486 86.312 230.462 84.488 227.774 84.488C225.246 84.488 224.158 86.248 223.998 87.784H231.614ZM237.442 103.016L238.018 99.4C238.37 99.56 238.914 99.656 239.298 99.656C240.354 99.656 241.058 99.368 241.442 98.536L242.018 97.192L235.745 81.544H240.098L244.13 92.296L248.194 81.544H252.546L245.282 99.528C244.13 102.44 242.082 103.208 239.426 103.272C238.978 103.272 237.922 103.176 237.442 103.016ZM265.643 92.04C266.347 93.032 267.819 93.768 269.163 93.768C271.499 93.768 273.067 91.944 273.067 89.256C273.067 86.6 271.499 84.776 269.163 84.776C267.819 84.776 266.347 85.544 265.643 86.568V92.04ZM265.643 97H261.579V75.656H265.643V83.528C266.859 81.928 268.587 81.16 270.411 81.16C274.347 81.16 277.259 84.232 277.259 89.256C277.259 94.44 274.315 97.384 270.411 97.384C268.555 97.384 266.859 96.552 265.643 95.016V97ZM293.205 97H289.109V95.368C288.053 96.648 286.229 97.384 284.213 97.384C281.749 97.384 278.868 95.72 278.868 92.264C278.868 88.616 281.749 87.272 284.213 87.272C286.293 87.272 288.085 87.944 289.109 89.16V87.208C289.109 85.64 287.765 84.616 285.717 84.616C284.085 84.616 282.549 85.256 281.269 86.44L279.669 83.592C281.557 81.896 283.989 81.16 286.421 81.16C289.973 81.16 293.205 82.568 293.205 87.016V97ZM285.845 94.632C287.157 94.632 288.437 94.184 289.109 93.288V91.368C288.437 90.472 287.157 89.992 285.845 89.992C284.245 89.992 282.933 90.856 282.933 92.328C282.933 93.8 284.245 94.632 285.845 94.632ZM303.904 97.384C299.168 97.384 295.712 94.024 295.712 89.256C295.712 84.52 299.168 81.16 303.904 81.16C307.072 81.16 308.992 82.536 310.016 83.944L307.36 86.44C306.624 85.352 305.504 84.776 304.095 84.776C301.632 84.776 299.904 86.568 299.904 89.256C299.904 91.944 301.632 93.768 304.095 93.768C305.504 93.768 306.624 93.128 307.36 92.072L310.016 94.568C308.992 95.976 307.072 97.384 303.904 97.384ZM327.276 97H322.188L318.092 91.048L316.236 93.032V97H312.172V75.656H316.236V88.424L322.092 81.544H327.084L320.972 88.552L327.276 97Z" fill="white"/>
<line x1="-7" y1="436.5" x2="599" y2="436.5" stroke="url(#paint0_linear_13653_88785)" stroke-opacity="0.15" stroke-dasharray="2 2"/>
<line x1="-7" y1="184.5" x2="599" y2="184.5" stroke="url(#paint1_linear_13653_88785)" stroke-opacity="0.15" stroke-dasharray="2 2"/>
<line y1="352.5" x2="606" y2="352.5" stroke="url(#paint2_linear_13653_88785)" stroke-opacity="0.15" stroke-dasharray="2 2"/>
<line y1="268.5" x2="606" y2="268.5" stroke="url(#paint3_linear_13653_88785)" stroke-opacity="0.15" stroke-dasharray="2 2"/>
<line x1="-7" y1="521.5" x2="599" y2="521.5" stroke="url(#paint4_linear_13653_88785)" stroke-opacity="0.15" stroke-dasharray="2 2"/>
<path d="M65 352C128.878 352 209.791 352 209.791 352L387.433 352L545 352" stroke="white" stroke-width="4"/>
<circle cx="59" cy="351" r="8" fill="#3C50E0" stroke="white" stroke-width="4"/>
<circle cx="181" cy="351" r="8" fill="#3C50E0" stroke="white" stroke-width="4"/>
<circle cx="303" cy="351" r="8" fill="#3C50E0" stroke="white" stroke-width="4"/>
<circle cx="425" cy="351" r="8" fill="#3C50E0" stroke="white" stroke-width="4"/>
<circle cx="547" cy="351" r="8" fill="#3C50E0" stroke="white" stroke-width="4"/>
<path d="M413.176 207H410.904V202.632L406.808 196.328H409.4L412.04 200.6L414.68 196.328H417.256L413.176 202.632V207ZM419.952 207.192C417.408 207.192 415.872 205.32 415.872 203.128C415.872 200.936 417.408 199.08 419.952 199.08C422.512 199.08 424.048 200.936 424.048 203.128C424.048 205.32 422.512 207.192 419.952 207.192ZM419.952 205.384C421.232 205.384 421.936 204.344 421.936 203.128C421.936 201.928 421.232 200.888 419.952 200.888C418.688 200.888 417.984 201.928 417.984 203.128C417.984 204.344 418.688 205.384 419.952 205.384ZM432.979 207H430.947V206.024C430.419 206.6 429.491 207.192 428.227 207.192C426.531 207.192 425.731 206.264 425.731 204.76V199.272H427.763V203.96C427.763 205.032 428.323 205.384 429.187 205.384C429.971 205.384 430.595 204.952 430.947 204.504V199.272H432.979V207ZM437.189 207H435.157V199.272H437.189V200.312C437.749 199.64 438.693 199.08 439.653 199.08V201.064C439.509 201.032 439.333 201.016 439.093 201.016C438.421 201.016 437.525 201.4 437.189 201.896V207ZM450.584 207.192C447.448 207.192 444.888 205.032 444.888 201.672C444.888 198.296 447.448 196.152 450.584 196.152C452.792 196.152 454.184 197.272 454.984 198.536L453.112 199.56C452.616 198.808 451.704 198.168 450.584 198.168C448.632 198.168 447.224 199.656 447.224 201.672C447.224 203.688 448.632 205.176 450.584 205.176C451.528 205.176 452.408 204.76 452.84 204.36V203.08H450.024V201.096H455.112V205.192C454.024 206.408 452.504 207.192 450.584 207.192ZM459.06 207H457.028V199.272H459.06V200.312C459.62 199.64 460.564 199.08 461.524 199.08V201.064C461.38 201.032 461.204 201.016 460.964 201.016C460.292 201.016 459.396 201.4 459.06 201.896V207ZM469.641 207H467.593V206.184C467.065 206.824 466.153 207.192 465.145 207.192C463.913 207.192 462.473 206.36 462.473 204.632C462.473 202.808 463.913 202.136 465.145 202.136C466.185 202.136 467.081 202.472 467.593 203.08V202.104C467.593 201.32 466.921 200.808 465.897 200.808C465.081 200.808 464.313 201.128 463.673 201.72L462.873 200.296C463.817 199.448 465.033 199.08 466.249 199.08C468.025 199.08 469.641 199.784 469.641 202.008V207ZM465.961 205.816C466.617 205.816 467.257 205.592 467.593 205.144V204.184C467.257 203.736 466.617 203.496 465.961 203.496C465.161 203.496 464.505 203.928 464.505 204.664C464.505 205.4 465.161 205.816 465.961 205.816ZM479.161 207H477.113V206.008C476.505 206.776 475.673 207.192 474.729 207.192C472.793 207.192 471.305 205.72 471.305 203.128C471.305 200.616 472.761 199.08 474.729 199.08C475.641 199.08 476.505 199.464 477.113 200.264V196.328H479.161V207ZM475.369 205.384C476.041 205.384 476.777 205.016 477.113 204.504V201.768C476.777 201.256 476.041 200.888 475.369 200.888C474.201 200.888 473.401 201.8 473.401 203.128C473.401 204.472 474.201 205.384 475.369 205.384ZM484.968 207.192C482.616 207.192 480.84 205.608 480.84 203.128C480.84 200.888 482.504 199.08 484.84 199.08C487.16 199.08 488.712 200.808 488.712 203.32V203.8H482.968C483.112 204.744 483.88 205.528 485.192 205.528C485.848 205.528 486.744 205.256 487.24 204.776L488.152 206.12C487.384 206.824 486.168 207.192 484.968 207.192ZM486.76 202.392C486.696 201.656 486.184 200.744 484.84 200.744C483.576 200.744 483.032 201.624 482.952 202.392H486.76ZM503.569 207H501.393L499.761 201.736L498.129 207H495.953L493.601 199.272H495.713L497.153 204.472L498.849 199.272H500.657L502.353 204.472L503.793 199.272H505.921L503.569 207ZM508.089 198.44C507.433 198.44 506.889 197.896 506.889 197.224C506.889 196.552 507.433 196.024 508.089 196.024C508.761 196.024 509.305 196.552 509.305 197.224C509.305 197.896 508.761 198.44 508.089 198.44ZM509.113 207H507.081V199.272H509.113V207ZM513.88 207.192C512.456 207.192 511.704 206.456 511.704 205.064V201.048H510.424V199.272H511.704V197.16H513.736V199.272H515.304V201.048H513.736V204.52C513.736 205.016 513.992 205.384 514.44 205.384C514.744 205.384 515.032 205.272 515.144 205.144L515.576 206.696C515.272 206.968 514.728 207.192 513.88 207.192ZM524.119 207H522.087V202.296C522.087 201.224 521.527 200.888 520.663 200.888C519.863 200.888 519.239 201.336 518.903 201.784V207H516.855V196.328H518.903V200.264C519.399 199.688 520.343 199.08 521.607 199.08C523.303 199.08 524.119 200.008 524.119 201.512V207Z" fill="#F0F5FC"/>
<path d="M448.148 224.905C447.619 224.219 446.924 223.642 446.042 223.181C445.161 222.721 444.133 222.486 442.958 222.486C441.655 222.486 440.461 222.809 439.383 223.456C438.306 224.102 437.454 225.003 436.828 226.158C436.201 227.314 435.887 228.655 435.887 230.154C435.887 231.662 436.201 233.003 436.828 234.188C437.454 235.373 438.296 236.303 439.374 236.959C440.441 237.625 441.626 237.948 442.909 237.948C444.064 237.948 445.102 237.713 446.013 237.243C446.924 236.773 447.638 236.186 448.157 235.471V237.704H451.281V222.721H448.157L448.148 224.905ZM447.511 232.915C447.08 233.689 446.532 234.266 445.837 234.668C445.151 235.069 444.407 235.265 443.604 235.265C442.82 235.265 442.086 235.06 441.391 234.658C440.696 234.247 440.128 233.659 439.706 232.876C439.276 232.092 439.07 231.192 439.07 230.154C439.07 229.116 439.285 228.224 439.706 227.47C440.128 226.716 440.686 226.148 441.381 225.757C442.066 225.365 442.811 225.169 443.614 225.169C444.407 225.169 445.151 225.365 445.846 225.767C446.532 226.168 447.09 226.746 447.521 227.51C447.942 228.273 448.157 229.165 448.157 230.203C448.148 231.241 447.932 232.141 447.511 232.915Z" fill="#F0F5FC"/>
<path d="M462.464 229.889C461.769 229.586 460.878 229.292 459.781 229.008C458.968 228.773 458.351 228.577 457.93 228.42C457.509 228.264 457.157 228.058 456.873 227.784C456.579 227.51 456.442 227.177 456.442 226.775C456.442 226.266 456.657 225.864 457.098 225.551C457.529 225.248 458.156 225.091 458.978 225.091C459.81 225.091 460.476 225.287 460.966 225.688C461.456 226.09 461.73 226.619 461.779 227.294H464.883C464.814 225.806 464.256 224.631 463.208 223.769C462.17 222.907 460.79 222.476 459.086 222.476C457.94 222.476 456.931 222.662 456.05 223.044C455.169 223.426 454.493 223.945 454.023 224.611C453.553 225.277 453.318 226.002 453.318 226.805C453.318 227.784 453.573 228.567 454.092 229.174C454.611 229.772 455.218 230.212 455.923 230.506C456.628 230.8 457.548 231.094 458.665 231.407C459.82 231.73 460.672 232.034 461.211 232.308C461.749 232.582 462.014 232.993 462.014 233.561C462.014 234.09 461.769 234.521 461.289 234.854C460.809 235.187 460.134 235.353 459.262 235.353C458.43 235.353 457.734 235.138 457.186 234.717C456.638 234.296 456.334 233.757 456.275 233.13H453.063C453.103 234.041 453.387 234.854 453.935 235.588C454.483 236.323 455.218 236.901 456.148 237.331C457.078 237.753 458.136 237.968 459.311 237.968C460.467 237.968 461.485 237.782 462.347 237.4C463.208 237.018 463.874 236.489 464.344 235.823C464.814 235.158 465.049 234.394 465.049 233.542C465.03 232.582 464.765 231.809 464.256 231.231C463.767 230.633 463.159 230.193 462.464 229.889Z" fill="#F0F5FC"/>
<path d="M470.935 219H467.811V222.721H466.038V225.248H467.811V233.542C467.811 235.011 468.183 236.068 468.927 236.724C469.671 237.38 470.739 237.704 472.139 237.704H474.587V235.118H472.687C472.051 235.118 471.6 235.001 471.346 234.756C471.081 234.511 470.954 234.11 470.954 233.542V225.248H474.597V222.721H470.954V219H470.935Z" fill="#F0F5FC"/>
<path d="M479.444 224.905V222.731H476.34V237.713H479.444V229.83C479.444 228.303 479.758 227.235 480.384 226.619C481.011 226.002 481.932 225.698 483.146 225.698H483.939V222.486C482.901 222.486 482.01 222.702 481.256 223.123C480.502 223.544 479.905 224.141 479.444 224.905Z" fill="#F0F5FC"/>
<path d="M496.787 222.731V224.905C496.258 224.219 495.563 223.642 494.681 223.181C493.8 222.721 492.772 222.486 491.597 222.486C490.294 222.486 489.1 222.809 488.023 223.456C486.945 224.102 486.093 225.003 485.467 226.158C484.84 227.314 484.527 228.655 484.527 230.154C484.527 231.662 484.84 233.003 485.467 234.188C486.093 235.373 486.936 236.303 488.013 236.959C489.08 237.625 490.265 237.948 491.548 237.948C492.703 237.948 493.741 237.713 494.652 237.243C495.563 236.773 496.278 236.186 496.797 235.471V237.704H499.92V222.721L496.787 222.731ZM496.15 232.915C495.719 233.689 495.171 234.266 494.476 234.668C493.79 235.069 493.046 235.265 492.243 235.265C491.46 235.265 490.725 235.06 490.03 234.658C489.335 234.247 488.767 233.659 488.346 232.876C487.915 232.092 487.709 231.192 487.709 230.154C487.709 229.116 487.925 228.224 488.346 227.47C488.767 226.716 489.325 226.148 490.02 225.757C490.706 225.365 491.45 225.169 492.253 225.169C493.046 225.169 493.79 225.365 494.486 225.767C495.171 226.168 495.729 226.746 496.16 227.51C496.581 228.273 496.797 229.165 496.797 230.203C496.787 231.241 496.581 232.141 496.15 232.915Z" fill="#F0F5FC"/>
<path d="M430.903 232.856C430.433 231.975 429.797 231.133 429.023 230.359C428.925 230.261 428.817 230.163 428.71 230.065C428.661 230.722 428.563 231.358 428.435 231.995C428.338 232.474 428.22 232.925 428.073 233.375C428.249 233.62 428.406 233.865 428.533 234.11C428.876 234.756 429.366 235.99 428.808 236.959C428.093 238.203 425.625 238.604 422.864 237.508C422.746 237.459 421.796 237.018 421.424 236.812C421.042 236.597 420.69 236.352 420.347 236.098C419.994 235.833 419.652 235.539 419.348 235.246C418.731 234.648 418.232 233.992 417.879 233.336C417.693 233.003 417.517 232.641 417.37 232.23C417.174 232.328 416.978 232.425 416.792 232.533C416.41 232.749 416.058 232.993 415.744 233.248C415.529 233.424 415.314 233.601 415.118 233.796L415.108 233.806C415.225 234.08 415.363 234.345 415.5 234.59C416.058 235.628 416.851 236.626 417.83 237.498C415.069 238.595 412.601 238.193 411.886 236.95C411.328 235.98 411.818 234.746 412.16 234.1C412.503 233.454 413.003 232.807 413.61 232.22C413.855 231.985 414.119 231.75 414.393 231.534C414.804 231.211 415.245 230.908 415.715 230.633C416.097 230.418 416.479 230.222 416.871 230.056C418.026 229.556 419.211 229.292 420.269 229.292H420.425C421.14 229.292 421.904 229.409 422.678 229.644C423.059 229.762 423.451 229.899 423.833 230.065C423.794 230.428 423.735 230.771 423.657 231.103C423.481 231.897 423.206 232.611 422.883 233.199C422.883 233.209 422.873 233.219 422.873 233.219C422.658 233.659 422.354 234.12 421.972 234.57C422.149 234.687 422.335 234.805 422.521 234.913C422.815 235.079 423.686 235.481 423.686 235.481C423.951 235.588 424.46 235.735 424.47 235.745C424.744 235.373 424.979 234.991 425.184 234.609C425.684 233.718 426.066 232.68 426.311 231.544C426.497 230.673 426.595 229.733 426.595 228.753V228.469C426.497 223.465 423.794 219.597 420.357 219.597C417.556 219.597 415.245 222.173 414.432 225.825C415.02 225.541 415.627 225.306 416.234 225.101C416.694 224.944 417.155 224.827 417.615 224.719C418.31 223.191 419.368 222.271 420.357 222.271C421.796 222.271 423.373 224.219 423.804 227.167C422.638 226.785 421.463 226.589 420.357 226.599C419.319 226.619 417.997 226.814 416.91 227.167C416.058 227.451 415.196 227.833 414.374 228.303C414.285 228.352 414.197 228.401 414.119 228.459C412.219 229.615 410.682 231.162 409.791 232.847C408.753 234.805 408.674 236.744 409.565 238.291C410.535 239.966 412.454 240.827 414.726 240.827C416.479 240.827 418.447 240.308 420.357 239.261C422.266 240.308 424.225 240.827 425.987 240.827C428.259 240.827 430.179 239.966 431.148 238.291C432.029 236.754 431.951 234.815 430.903 232.856Z" fill="#F0F5FC"/>
<path d="M518.79 220.547H508.048C505.698 220.547 503.788 222.467 503.788 224.827V235.618C503.788 237.978 505.698 239.897 508.048 239.897H518.79C521.14 239.897 523.05 237.978 523.05 235.618V224.827C523.05 222.467 521.14 220.547 518.79 220.547ZM521.591 235.618C521.591 237.165 520.337 238.428 518.79 238.428H508.048C506.51 238.428 505.247 237.175 505.247 235.618V224.827C505.247 223.279 506.501 222.016 508.048 222.016H518.79C520.327 222.016 521.591 223.27 521.591 224.827V235.618Z" fill="#F0F5FC"/>
<path d="M510.672 225.845L507.568 234.541H509.38L509.948 232.886H513.385L513.953 234.541H515.784L512.68 225.845H510.672ZM510.427 231.495L511.671 227.862L512.915 231.495H510.427Z" fill="#F0F5FC"/>
<path d="M518.261 225.855H516.528V234.541H518.261V225.855Z" fill="#F0F5FC"/>
<path d="M140.36 213H138.088V208.632L133.992 202.328H136.584L139.224 206.6L141.864 202.328H144.44L140.36 208.632V213ZM147.136 213.192C144.592 213.192 143.056 211.32 143.056 209.128C143.056 206.936 144.592 205.08 147.136 205.08C149.696 205.08 151.232 206.936 151.232 209.128C151.232 211.32 149.696 213.192 147.136 213.192ZM147.136 211.384C148.416 211.384 149.12 210.344 149.12 209.128C149.12 207.928 148.416 206.888 147.136 206.888C145.872 206.888 145.168 207.928 145.168 209.128C145.168 210.344 145.872 211.384 147.136 211.384ZM160.163 213H158.131V212.024C157.603 212.6 156.675 213.192 155.411 213.192C153.715 213.192 152.915 212.264 152.915 210.76V205.272H154.947V209.96C154.947 211.032 155.507 211.384 156.371 211.384C157.155 211.384 157.779 210.952 158.131 210.504V205.272H160.163V213ZM164.373 213H162.341V205.272H164.373V206.312C164.933 205.64 165.877 205.08 166.837 205.08V207.064C166.693 207.032 166.517 207.016 166.277 207.016C165.605 207.016 164.709 207.4 164.373 207.896V213ZM177.768 213.192C174.552 213.192 172.072 210.952 172.072 207.672C172.072 204.376 174.552 202.152 177.768 202.152C180.104 202.152 181.464 203.416 182.216 204.76L180.264 205.72C179.816 204.856 178.856 204.168 177.768 204.168C175.816 204.168 174.408 205.656 174.408 207.672C174.408 209.688 175.816 211.176 177.768 211.176C178.856 211.176 179.816 210.488 180.264 209.624L182.216 210.568C181.464 211.896 180.104 213.192 177.768 213.192ZM190.928 213H188.896V212.024C188.368 212.6 187.44 213.192 186.176 213.192C184.48 213.192 183.68 212.264 183.68 210.76V205.272H185.712V209.96C185.712 211.032 186.272 211.384 187.136 211.384C187.92 211.384 188.544 210.952 188.896 210.504V205.272H190.928V213ZM195.138 213H193.105V205.272H195.138V206.312C195.697 205.64 196.641 205.08 197.602 205.08V207.064C197.457 207.032 197.281 207.016 197.042 207.016C196.37 207.016 195.474 207.4 195.138 207.896V213ZM201.063 213H199.031V205.272H201.063V206.312C201.623 205.64 202.567 205.08 203.527 205.08V207.064C203.383 207.032 203.207 207.016 202.967 207.016C202.295 207.016 201.399 207.4 201.063 207.896V213ZM208.589 213.192C206.237 213.192 204.461 211.608 204.461 209.128C204.461 206.888 206.125 205.08 208.461 205.08C210.781 205.08 212.333 206.808 212.333 209.32V209.8H206.589C206.733 210.744 207.501 211.528 208.813 211.528C209.469 211.528 210.365 211.256 210.861 210.776L211.773 212.12C211.005 212.824 209.789 213.192 208.589 213.192ZM210.381 208.392C210.317 207.656 209.805 206.744 208.461 206.744C207.197 206.744 206.653 207.624 206.573 208.392H210.381ZM221.224 213H219.176V208.328C219.176 207.256 218.616 206.888 217.752 206.888C216.952 206.888 216.344 207.336 215.992 207.784V213H213.96V205.272H215.992V206.264C216.488 205.688 217.448 205.08 218.696 205.08C220.408 205.08 221.224 206.04 221.224 207.544V213ZM225.978 213.192C224.554 213.192 223.802 212.456 223.802 211.064V207.048H222.522V205.272H223.802V203.16H225.834V205.272H227.402V207.048H225.834V210.52C225.834 211.016 226.09 211.384 226.538 211.384C226.842 211.384 227.13 211.272 227.242 211.144L227.674 212.696C227.37 212.968 226.826 213.192 225.978 213.192ZM150.224 231H147.936V223.304L144.928 231H143.936L140.928 223.304V231H138.656V220.328H141.84L144.432 227L147.024 220.328H150.224V231ZM159.144 231H157.096V230.184C156.568 230.824 155.656 231.192 154.648 231.192C153.416 231.192 151.976 230.36 151.976 228.632C151.976 226.808 153.416 226.136 154.648 226.136C155.688 226.136 156.584 226.472 157.096 227.08V226.104C157.096 225.32 156.424 224.808 155.4 224.808C154.584 224.808 153.816 225.128 153.176 225.72L152.376 224.296C153.32 223.448 154.536 223.08 155.752 223.08C157.528 223.08 159.144 223.784 159.144 226.008V231ZM155.464 229.816C156.12 229.816 156.76 229.592 157.096 229.144V228.184C156.76 227.736 156.12 227.496 155.464 227.496C154.664 227.496 154.008 227.928 154.008 228.664C154.008 229.4 154.664 229.816 155.464 229.816ZM163.895 231.192C162.471 231.192 161.719 230.456 161.719 229.064V225.048H160.439V223.272H161.719V221.16H163.751V223.272H165.319V225.048H163.751V228.52C163.751 229.016 164.007 229.384 164.455 229.384C164.759 229.384 165.047 229.272 165.159 229.144L165.591 230.696C165.287 230.968 164.743 231.192 163.895 231.192ZM174.134 231H172.102V226.296C172.102 225.224 171.542 224.888 170.678 224.888C169.878 224.888 169.254 225.336 168.918 225.784V231H166.87V220.328H168.918V224.264C169.414 223.688 170.358 223.08 171.622 223.08C173.318 223.08 174.134 224.008 174.134 225.512V231ZM185.812 231.192C182.676 231.192 180.116 229.032 180.116 225.672C180.116 222.296 182.676 220.152 185.812 220.152C188.02 220.152 189.412 221.272 190.212 222.536L188.34 223.56C187.844 222.808 186.932 222.168 185.812 222.168C183.86 222.168 182.452 223.656 182.452 225.672C182.452 227.688 183.86 229.176 185.812 229.176C186.756 229.176 187.636 228.76 188.068 228.36V227.08H185.252V225.096H190.34V229.192C189.252 230.408 187.732 231.192 185.812 231.192ZM194.288 231H192.256V223.272H194.288V224.312C194.848 223.64 195.792 223.08 196.752 223.08V225.064C196.608 225.032 196.432 225.016 196.192 225.016C195.52 225.016 194.624 225.4 194.288 225.896V231ZM204.869 231H202.821V230.184C202.293 230.824 201.381 231.192 200.373 231.192C199.141 231.192 197.701 230.36 197.701 228.632C197.701 226.808 199.141 226.136 200.373 226.136C201.413 226.136 202.309 226.472 202.821 227.08V226.104C202.821 225.32 202.149 224.808 201.125 224.808C200.309 224.808 199.541 225.128 198.901 225.72L198.101 224.296C199.045 223.448 200.261 223.08 201.477 223.08C203.253 223.08 204.869 223.784 204.869 226.008V231ZM201.189 229.816C201.845 229.816 202.485 229.592 202.821 229.144V228.184C202.485 227.736 201.845 227.496 201.189 227.496C200.389 227.496 199.733 227.928 199.733 228.664C199.733 229.4 200.389 229.816 201.189 229.816ZM214.389 231H212.341V230.008C211.733 230.776 210.901 231.192 209.957 231.192C208.021 231.192 206.533 229.72 206.533 227.128C206.533 224.616 207.989 223.08 209.957 223.08C210.869 223.08 211.733 223.464 212.341 224.264V220.328H214.389V231ZM210.597 229.384C211.269 229.384 212.005 229.016 212.341 228.504V225.768C212.005 225.256 211.269 224.888 210.597 224.888C209.429 224.888 208.629 225.8 208.629 227.128C208.629 228.472 209.429 229.384 210.597 229.384ZM220.196 231.192C217.844 231.192 216.068 229.608 216.068 227.128C216.068 224.888 217.732 223.08 220.068 223.08C222.388 223.08 223.94 224.808 223.94 227.32V227.8H218.196C218.34 228.744 219.108 229.528 220.42 229.528C221.076 229.528 221.972 229.256 222.468 228.776L223.38 230.12C222.612 230.824 221.396 231.192 220.196 231.192ZM221.988 226.392C221.924 225.656 221.412 224.744 220.068 224.744C218.804 224.744 218.26 225.624 218.18 226.392H221.988Z" fill="#F0F5FC"/>
<path d="M60.2309 381H57.9589V373.256L56.1829 375.064L54.8869 373.704L58.2469 370.328H60.2309V381Z" fill="#F0F5FC"/>
<path d="M184.987 381H176.955V379.224C181.323 375.992 182.603 374.888 182.603 373.576C182.603 372.648 181.755 372.184 180.875 372.184C179.659 372.184 178.731 372.664 178.011 373.416L176.715 371.912C177.755 370.712 179.339 370.168 180.827 370.168C183.099 370.168 184.907 371.448 184.907 373.576C184.907 375.4 183.403 376.984 180.635 379H184.987V381Z" fill="#F0F5FC"/>
<path d="M302.833 381.192C300.865 381.192 299.409 380.44 298.625 379.48L299.809 377.96C300.545 378.728 301.713 379.176 302.753 379.176C304.049 379.176 304.769 378.616 304.769 377.816C304.769 376.968 304.113 376.584 302.625 376.584C302.177 376.584 301.457 376.6 301.297 376.616V374.568C301.489 374.584 302.225 374.584 302.625 374.584C303.809 374.584 304.593 374.232 304.593 373.448C304.593 372.6 303.729 372.184 302.609 372.184C301.585 372.184 300.657 372.568 299.905 373.288L298.769 371.864C299.633 370.888 300.977 370.168 302.849 370.168C305.345 370.168 306.881 371.288 306.881 373.064C306.881 374.408 305.729 375.288 304.545 375.496C305.633 375.608 307.041 376.456 307.041 378.056C307.041 379.896 305.393 381.192 302.833 381.192Z" fill="#F0F5FC"/>
<path d="M428.003 381H425.731V378.792H420.627V377L424.867 370.328H428.003V376.792H429.379V378.792H428.003V381ZM425.731 376.792V372.344L422.851 376.792H425.731Z" fill="#F0F5FC"/>
<path d="M547.029 381.192C545.173 381.192 543.829 380.584 542.917 379.592L544.181 378.008C544.901 378.76 545.893 379.176 547.013 379.176C548.277 379.176 548.997 378.456 548.997 377.592C548.997 376.648 548.293 376.008 547.077 376.008C546.197 376.008 545.477 376.264 544.837 376.872L543.253 376.456V370.328H550.581V372.328H545.525V374.936C546.037 374.424 546.901 374.04 547.877 374.04C549.685 374.04 551.301 375.336 551.301 377.496C551.301 379.768 549.605 381.192 547.029 381.192Z" fill="#F0F5FC"/>
<path d="M221.983 480H209.935V477.336C216.487 472.488 218.407 470.832 218.407 468.864C218.407 467.472 217.135 466.776 215.815 466.776C213.991 466.776 212.599 467.496 211.519 468.624L209.575 466.368C211.135 464.568 213.511 463.752 215.743 463.752C219.151 463.752 221.863 465.672 221.863 468.864C221.863 471.6 219.607 473.976 215.455 477H221.983V480ZM239.154 480.312C234.474 480.312 230.634 477.048 230.634 472.008C230.634 466.944 234.474 463.728 239.154 463.728C242.49 463.728 244.578 465.408 245.778 467.304L242.946 468.84C242.226 467.712 240.858 466.752 239.154 466.752C236.25 466.752 234.138 468.984 234.138 472.008C234.138 475.032 236.25 477.264 239.154 477.264C240.57 477.264 241.914 476.64 242.562 476.04V474.12H238.338V471.144H245.97V477.288C244.338 479.112 242.058 480.312 239.154 480.312ZM251.891 480H248.843V468.408H251.891V469.992C252.707 468.96 254.147 468.12 255.587 468.12V471.096C255.371 471.048 255.083 471.024 254.747 471.024C253.739 471.024 252.395 471.6 251.891 472.344V480ZM267.74 480H264.692V478.8C263.9 479.736 262.532 480.288 261.02 480.288C259.172 480.288 256.988 479.04 256.988 476.448C256.988 473.736 259.172 472.704 261.02 472.704C262.556 472.704 263.924 473.208 264.692 474.12V472.56C264.692 471.384 263.684 470.616 262.148 470.616C260.9 470.616 259.748 471.072 258.764 471.984L257.612 469.944C259.028 468.696 260.852 468.12 262.676 468.12C265.316 468.12 267.74 469.176 267.74 472.512V480ZM262.244 478.224C263.228 478.224 264.188 477.888 264.692 477.216V475.776C264.188 475.104 263.228 474.768 262.244 474.768C261.044 474.768 260.06 475.392 260.06 476.52C260.06 477.6 261.044 478.224 262.244 478.224ZM282.043 480H278.971V478.512C278.059 479.664 276.787 480.288 275.395 480.288C272.467 480.288 270.259 478.08 270.259 474.216C270.259 470.424 272.443 468.12 275.395 468.12C276.763 468.12 278.059 468.72 278.971 469.896V463.992H282.043V480ZM276.331 477.576C277.363 477.576 278.467 477.024 278.971 476.256V472.152C278.467 471.384 277.363 470.832 276.331 470.832C274.603 470.832 273.403 472.2 273.403 474.216C273.403 476.208 274.603 477.576 276.331 477.576ZM290.753 480.288C287.225 480.288 284.561 477.912 284.561 474.192C284.561 470.832 287.033 468.12 290.561 468.12C294.017 468.12 296.369 470.712 296.369 474.504V475.176H287.753C287.945 476.64 289.121 477.864 291.089 477.864C292.073 477.864 293.441 477.432 294.185 476.712L295.529 478.68C294.377 479.736 292.553 480.288 290.753 480.288ZM293.417 473.112C293.345 472.008 292.577 470.544 290.561 470.544C288.665 470.544 287.849 471.96 287.705 473.112H293.417ZM306.704 467.16C305.72 467.16 304.88 466.344 304.88 465.336C304.88 464.328 305.72 463.536 306.704 463.536C307.712 463.536 308.528 464.328 308.528 465.336C308.528 466.344 307.712 467.16 306.704 467.16ZM308.24 480H305.192V468.408H308.24V480ZM322.374 480H319.326V472.992C319.326 471.384 318.486 470.832 317.19 470.832C315.99 470.832 315.054 471.504 314.55 472.2V480H311.502V468.408H314.55V469.92C315.294 469.032 316.71 468.12 318.606 468.12C321.15 468.12 322.374 469.56 322.374 471.816V480ZM331.04 480.288C327.464 480.288 324.896 477.768 324.896 474.192C324.896 470.64 327.464 468.12 331.04 468.12C333.416 468.12 334.856 469.152 335.624 470.208L333.632 472.08C333.08 471.264 332.24 470.832 331.184 470.832C329.336 470.832 328.04 472.176 328.04 474.192C328.04 476.208 329.336 477.576 331.184 477.576C332.24 477.576 333.08 477.096 333.632 476.328L335.624 478.176C334.856 479.256 333.416 480.288 331.04 480.288ZM340.905 480H337.857V468.408H340.905V469.992C341.721 468.96 343.161 468.12 344.601 468.12V471.096C344.385 471.048 344.097 471.024 343.761 471.024C342.753 471.024 341.409 471.6 340.905 472.344V480ZM352.193 480.288C348.665 480.288 346.001 477.912 346.001 474.192C346.001 470.832 348.473 468.12 352.001 468.12C355.457 468.12 357.809 470.712 357.809 474.504V475.176H349.193C349.385 476.64 350.561 477.864 352.529 477.864C353.513 477.864 354.881 477.432 355.625 476.712L356.969 478.68C355.817 479.736 353.993 480.288 352.193 480.288ZM354.857 473.112C354.785 472.008 354.017 470.544 352.001 470.544C350.105 470.544 349.289 471.96 349.145 473.112H354.857ZM370.259 480H367.211V478.8C366.419 479.736 365.051 480.288 363.539 480.288C361.691 480.288 359.507 479.04 359.507 476.448C359.507 473.736 361.691 472.704 363.539 472.704C365.075 472.704 366.443 473.208 367.211 474.12V472.56C367.211 471.384 366.203 470.616 364.667 470.616C363.419 470.616 362.267 471.072 361.283 471.984L360.131 469.944C361.547 468.696 363.371 468.12 365.195 468.12C367.835 468.12 370.259 469.176 370.259 472.512V480ZM364.763 478.224C365.747 478.224 366.707 477.888 367.211 477.216V475.776C366.707 475.104 365.747 474.768 364.763 474.768C363.563 474.768 362.579 475.392 362.579 476.52C362.579 477.6 363.563 478.224 364.763 478.224ZM377.698 480.288C375.682 480.288 373.738 479.616 372.514 478.488L373.834 476.352C374.674 477.144 376.402 477.936 377.842 477.936C379.162 477.936 379.786 477.408 379.786 476.688C379.786 474.768 372.898 476.328 372.898 471.768C372.898 469.824 374.602 468.12 377.65 468.12C379.618 468.12 381.178 468.792 382.33 469.704L381.106 471.792C380.41 471.048 379.09 470.448 377.674 470.448C376.57 470.448 375.85 470.952 375.85 471.6C375.85 473.328 382.714 471.888 382.714 476.568C382.714 478.68 380.914 480.288 377.698 480.288ZM390.648 480.288C387.12 480.288 384.456 477.912 384.456 474.192C384.456 470.832 386.928 468.12 390.456 468.12C393.912 468.12 396.264 470.712 396.264 474.504V475.176H387.648C387.84 476.64 389.016 477.864 390.984 477.864C391.968 477.864 393.336 477.432 394.08 476.712L395.424 478.68C394.272 479.736 392.448 480.288 390.648 480.288ZM393.312 473.112C393.24 472.008 392.472 470.544 390.456 470.544C388.56 470.544 387.744 471.96 387.6 473.112H393.312Z" fill="#F0F5FC"/>
<path d="M245.439 508.704C243.447 508.704 241.911 508.248 240.447 506.976L241.815 504.768C242.751 505.8 243.975 506.208 245.439 506.208C246.903 506.208 248.631 505.56 248.631 503.28V502.104C247.719 503.256 246.471 503.928 245.055 503.928C242.151 503.928 239.943 501.888 239.943 498.024C239.943 494.232 242.127 492.12 245.055 492.12C246.447 492.12 247.695 492.72 248.631 493.896V492.408H251.703V503.208C251.703 507.624 248.295 508.704 245.439 508.704ZM246.015 501.216C247.023 501.216 248.127 500.64 248.631 499.896V496.152C248.127 495.384 247.023 494.832 246.015 494.832C244.287 494.832 243.087 496.032 243.087 498.024C243.087 500.016 244.287 501.216 246.015 501.216ZM265.838 504H262.79V502.536C261.998 503.424 260.606 504.288 258.71 504.288C256.166 504.288 254.966 502.896 254.966 500.64V492.408H258.014V499.44C258.014 501.048 258.854 501.576 260.15 501.576C261.326 501.576 262.262 500.928 262.79 500.256V492.408H265.838V504ZM279.112 504H276.064V502.8C275.272 503.736 273.904 504.288 272.392 504.288C270.544 504.288 268.36 503.04 268.36 500.448C268.36 497.736 270.544 496.704 272.392 496.704C273.928 496.704 275.296 497.208 276.064 498.12V496.56C276.064 495.384 275.056 494.616 273.52 494.616C272.272 494.616 271.12 495.072 270.136 495.984L268.984 493.944C270.4 492.696 272.224 492.12 274.048 492.12C276.688 492.12 279.112 493.176 279.112 496.512V504ZM273.616 502.224C274.6 502.224 275.56 501.888 276.064 501.216V499.776C275.56 499.104 274.6 498.768 273.616 498.768C272.416 498.768 271.432 499.392 271.432 500.52C271.432 501.6 272.416 502.224 273.616 502.224ZM285.424 504H282.376V492.408H285.424V493.992C286.24 492.96 287.68 492.12 289.12 492.12V495.096C288.904 495.048 288.616 495.024 288.28 495.024C287.272 495.024 285.928 495.6 285.424 496.344V504ZM301.272 504H298.224V502.8C297.432 503.736 296.064 504.288 294.552 504.288C292.704 504.288 290.52 503.04 290.52 500.448C290.52 497.736 292.704 496.704 294.552 496.704C296.088 496.704 297.456 497.208 298.224 498.12V496.56C298.224 495.384 297.216 494.616 295.68 494.616C294.432 494.616 293.28 495.072 292.296 495.984L291.144 493.944C292.56 492.696 294.384 492.12 296.208 492.12C298.848 492.12 301.272 493.176 301.272 496.512V504ZM295.776 502.224C296.76 502.224 297.72 501.888 298.224 501.216V499.776C297.72 499.104 296.76 498.768 295.776 498.768C294.576 498.768 293.592 499.392 293.592 500.52C293.592 501.6 294.576 502.224 295.776 502.224ZM315.407 504H312.359V496.992C312.359 495.384 311.519 494.832 310.223 494.832C309.023 494.832 308.087 495.504 307.583 496.2V504H304.535V492.408H307.583V493.92C308.327 493.032 309.743 492.12 311.639 492.12C314.183 492.12 315.407 493.56 315.407 495.816V504ZM322.562 504.288C320.426 504.288 319.274 503.184 319.274 501.12V495.072H317.354V492.408H319.274V489.24H322.346V492.408H324.698V495.072H322.346V500.304C322.346 501.024 322.73 501.576 323.402 501.576C323.858 501.576 324.29 501.408 324.458 501.24L325.106 503.544C324.65 503.952 323.834 504.288 322.562 504.288ZM332.471 504.288C328.943 504.288 326.279 501.912 326.279 498.192C326.279 494.832 328.751 492.12 332.279 492.12C335.735 492.12 338.087 494.712 338.087 498.504V499.176H329.471C329.663 500.64 330.839 501.864 332.807 501.864C333.791 501.864 335.159 501.432 335.903 500.712L337.247 502.68C336.095 503.736 334.271 504.288 332.471 504.288ZM335.135 497.112C335.063 496.008 334.295 494.544 332.279 494.544C330.383 494.544 329.567 495.96 329.423 497.112H335.135ZM345.977 504.288C342.449 504.288 339.785 501.912 339.785 498.192C339.785 494.832 342.257 492.12 345.785 492.12C349.241 492.12 351.593 494.712 351.593 498.504V499.176H342.977C343.169 500.64 344.345 501.864 346.313 501.864C347.297 501.864 348.665 501.432 349.409 500.712L350.753 502.68C349.601 503.736 347.777 504.288 345.977 504.288ZM348.641 497.112C348.569 496.008 347.801 494.544 345.785 494.544C343.889 494.544 343.073 495.96 342.929 497.112H348.641ZM365.075 504H362.003V502.512C361.091 503.664 359.819 504.288 358.427 504.288C355.499 504.288 353.291 502.08 353.291 498.216C353.291 494.424 355.475 492.12 358.427 492.12C359.795 492.12 361.091 492.72 362.003 493.896V487.992H365.075V504ZM359.363 501.576C360.395 501.576 361.499 501.024 362.003 500.256V496.152C361.499 495.384 360.395 494.832 359.363 494.832C357.635 494.832 356.435 496.2 356.435 498.216C356.435 500.208 357.635 501.576 359.363 501.576Z" fill="#FDB300"/>
<path d="M287.281 512.124C294.312 512.214 301.343 512.303 308.375 512.359C310.941 512.359 313.49 512.29 316.056 512.324L343.179 512.662C347.187 512.731 351.229 512.745 355.22 512.759C360.446 512.661 365.684 512.818 370.811 513.228C371.198 513.265 371.551 513.344 371.831 513.455C372.008 513.521 372.051 513.626 371.936 513.71C371.507 513.916 370.997 514.093 370.425 514.234C368.465 514.796 366.171 515.152 363.763 515.269C358.665 515.448 353.497 515.669 348.312 515.814L344.392 515.917H340.489C337.87 515.917 335.216 515.848 332.632 515.779C326.357 515.621 319.853 515.897 313.437 515.959C306.406 516.021 299.375 516.048 292.238 516.083L279.195 516.145C272.604 516.186 265.977 516.145 259.455 516.283C256.906 516.338 254.393 516.455 251.897 516.579L248.135 516.779C246.869 516.834 245.621 516.869 244.356 516.903C243.09 516.938 242.176 516.993 241.051 517C236.885 517 235.549 516.717 234.653 515.738C234.415 515.513 234.215 515.283 234.055 515.048C233.668 514.303 235.338 513.669 238.327 513.366C242.788 512.873 247.353 512.538 251.967 512.366C256.608 512.207 261.336 512.131 266.029 512.069C269.545 512.028 273.061 512.014 276.576 512H287.123L287.281 512.124Z" fill="#FDB300"/>
<path d="M283.779 441.736C283.971 442.522 286.906 442.877 286.92 442.285C286.929 441.891 287.35 441.886 287.761 442.274C288.383 442.66 290.272 442.832 294.694 442.576C302.696 442.076 304.809 441.654 305.252 440.663C305.477 440.07 305.477 440.07 305.458 440.858C305.44 441.646 305.856 441.837 309.441 441.396C315.765 440.721 322.734 439.447 323.173 438.653C323.603 438.253 323.603 438.253 323.594 438.647C323.585 439.041 324.001 439.233 324.852 438.828C325.487 438.622 327.179 438.206 328.656 437.989C330.554 437.767 331.405 437.362 331.633 436.571C331.858 435.977 332.287 435.578 332.498 435.575C332.919 435.569 332.699 435.966 332.479 436.363C331.615 437.359 332.456 437.348 333.741 436.346C334.382 435.944 334.807 435.741 334.798 436.135C334.77 437.317 352.578 431.172 364.052 426.096C373.829 421.633 386.401 414.573 385.998 413.791C385.797 413.399 386.017 413.003 386.442 412.8C386.867 412.597 386.867 412.597 386.648 412.994C385.994 413.988 387.055 413.58 390.041 411.767C394.093 409.35 396.238 407.549 395.827 407.161C395.63 406.572 395.845 406.373 396.476 406.364C397.107 406.356 398.168 405.948 398.598 405.548C400.528 403.947 401.15 404.333 399.846 406.123C398.753 407.91 398.753 407.91 399.571 408.884C400.394 409.66 400.39 409.857 399.534 410.46C398.889 411.059 398.469 411.065 398.478 410.671C398.08 409.691 397.024 409.902 397.006 410.69C396.996 411.084 396.562 411.681 395.926 411.886C395.291 412.092 395.071 412.488 395.482 412.877C395.688 413.071 396.109 413.066 396.328 412.669C396.553 412.075 396.763 412.072 397.38 412.655C397.997 413.237 398.208 413.235 397.801 412.649C397.6 412.258 397.819 411.861 398.455 411.656C399.091 411.45 399.731 411.048 399.95 410.651C400.385 410.055 401.409 411.223 401.377 412.602C401.368 412.996 401.774 413.581 402.19 413.773C403.027 413.959 403.032 413.761 402.854 412.385C402.667 411.403 402.676 411.009 402.877 411.4C403.073 411.988 403.284 411.986 403.929 411.386C404.999 410.584 404.802 409.996 403.536 410.21C402.69 410.418 402.484 410.224 402.502 409.436C402.53 408.253 403.376 408.045 403.774 409.025C403.975 409.416 404.185 409.413 404.199 408.822C404.208 408.428 404.647 407.634 405.073 407.432C405.717 406.832 405.923 407.027 405.909 407.618C405.9 408.012 405.681 408.409 405.26 408.414C404.839 408.42 404.835 408.617 405.04 408.811C405.246 409.005 405.671 408.803 406.097 408.6C406.527 408.2 406.952 407.998 407.368 408.189C407.578 408.186 408.008 407.787 408.232 407.193C408.457 406.599 408.475 405.811 408.9 405.608C409.33 405.209 409.335 405.012 408.708 404.823C408.292 404.632 408.507 404.432 409.358 404.027C409.998 403.624 410.643 403.025 410.652 402.631C410.913 400.461 411.133 400.064 411.764 400.056C412.816 400.042 414.852 393.909 414.047 392.344C413.846 391.953 413.243 390.779 412.429 389.608L411.213 387.655L406.997 388.105C402.15 388.563 400.883 388.777 391.595 390.279C377.246 392.439 364.332 396.155 365.776 397.318C365.982 397.512 367.464 397.099 368.95 396.488C373.404 394.853 385.029 392.336 396.42 390.806C406.333 389.492 409.498 389.056 408.853 389.656C408.638 389.856 403.786 390.511 398.088 391.374C383.112 393.346 368.104 396.696 366.384 398.295C365.739 398.894 365.945 399.088 366.974 400.059C368.213 401.028 368.419 401.222 370.957 400.597C372.438 400.184 373.71 399.773 373.714 399.576C373.719 399.379 373.934 399.179 374.139 399.374C374.345 399.568 377.299 399.135 380.679 398.499C383.848 397.866 388.7 397.211 391.233 396.783C393.977 396.353 397.136 396.114 398.193 395.903C401.147 395.47 400.932 395.67 388.552 403.515C368.274 416.389 356.151 422.262 337.296 428.224C332.636 429.664 328.187 431.102 327.761 431.305C327.336 431.507 326.705 431.516 326.495 431.519C326.284 431.521 323.541 431.952 320.582 432.582C312.977 434.061 312.131 434.27 305.176 434.953C291.476 436.316 275.924 435.932 259.572 433.786C254.753 433.062 250.555 432.724 250.13 432.926C249.704 433.129 249.494 433.132 249.503 432.738C249.512 432.343 239.064 429.528 236.961 429.556C236.54 429.561 235.914 429.373 235.918 429.176C235.507 428.787 228.621 426.515 228.195 426.718C227.985 426.721 227.775 426.723 227.784 426.329C227.789 426.132 227.587 425.741 227.167 425.747C226.746 425.752 224.25 424.604 221.547 423.261C218.845 421.918 216.353 420.573 215.932 420.578C215.512 420.584 214.684 420.004 214.067 419.421C213.45 418.839 210.967 417.099 208.484 415.359C202.692 411.3 197.754 406.639 195.322 402.732C193.087 399.413 192.053 398.639 191.395 399.83C190.951 400.82 193.163 405.124 194.014 404.719C194.229 404.519 194.636 405.105 194.823 406.087C195.006 407.266 196.437 409.02 200.35 412.513C205.082 416.98 213.554 423.367 215.433 423.933C215.849 424.124 217.72 425.084 219.58 426.438C221.446 427.595 223.316 428.555 223.531 428.355C223.746 428.156 223.952 428.35 223.947 428.547C223.938 428.941 227.056 430.475 227.897 430.464C228.108 430.461 228.524 430.653 228.73 430.847C228.931 431.238 231.432 432.19 234.559 433.33C235.186 433.518 236.233 433.701 236.658 433.499C237.289 433.491 237.5 433.488 237.285 433.688C236.425 434.487 249.795 438.248 252.744 438.012C253.586 438.001 254.422 438.187 254.834 438.575C255.245 438.964 256.292 439.147 257.349 438.936C258.405 438.725 259.242 438.911 259.443 439.302C259.845 440.084 264.875 440.806 264.894 440.017C264.903 439.623 265.113 439.621 265.525 440.009C265.936 440.398 266.988 440.384 267.829 440.372C269.096 440.159 269.306 440.156 268.666 440.558C268.026 440.961 268.232 441.155 269.704 441.135C270.756 441.121 271.602 440.913 271.611 440.519C271.62 440.125 272.036 440.317 272.443 440.902C272.85 441.487 273.266 441.679 273.275 441.285C273.284 440.891 273.71 440.688 274.13 440.683C274.551 440.677 274.757 440.871 274.537 441.268C274.322 441.468 274.523 441.859 274.734 441.856C274.944 441.854 275.369 441.651 275.379 441.257C275.383 441.06 275.603 440.663 276.024 440.658C276.444 440.652 276.44 440.849 276.225 441.049C275.786 441.842 277.043 442.023 278.319 441.415C278.959 441.012 279.17 441.01 278.95 441.406C278.73 441.803 279.357 441.992 281.25 441.967C283.564 441.936 283.774 441.933 282.311 441.559L280.637 441.187L282.32 441.165C282.951 441.156 283.788 441.342 283.779 441.736ZM399.742 401.594C399.948 401.788 400.153 401.982 400.149 402.18C400.144 402.377 399.934 402.379 399.728 402.185C399.522 401.991 399.097 402.193 398.672 402.396C398.242 402.796 397.821 402.801 397.83 402.407C397.844 401.816 399.33 401.206 399.742 401.594ZM390.642 404.078C390.651 403.684 394.922 400.87 396.409 400.26C396.829 400.254 397.47 399.852 397.904 399.255C398.544 398.853 399.825 398.048 400.68 397.446L402.386 396.438L401.727 397.629C401.503 398.222 400.652 398.628 400.232 398.633C399.601 398.642 399.175 398.844 398.96 399.044C398.741 399.441 397.245 400.445 395.325 401.653C393.404 402.86 391.698 403.867 391.273 404.07C391.058 404.27 390.637 404.275 390.642 404.078ZM395.699 403.617C395.708 403.223 396.138 402.824 396.769 402.815C397.4 402.807 397.396 403.004 396.97 403.206C396.545 403.409 396.33 403.609 396.531 404C396.737 404.194 396.522 404.394 396.312 404.397C395.891 404.403 395.69 404.011 395.699 403.617ZM386.805 406.296L388.716 405.483L387.426 406.681C386.782 407.281 385.931 407.686 385.51 407.692C385.309 407.3 385.739 406.901 386.805 406.296ZM337.789 434.126C338.205 434.317 337.13 435.316 336.289 435.328C336.078 435.33 336.088 434.936 336.517 434.537C336.943 434.334 337.368 434.132 337.789 434.126ZM343.084 432.48C343.916 432.863 343.697 433.26 342.645 433.274C342.224 433.279 342.019 433.085 342.238 432.688C342.453 432.488 342.668 432.289 343.084 432.48ZM383.31 411.857C383.1 411.86 382.67 412.259 382.025 412.859C380.955 413.661 380.955 413.661 381.609 412.667C382.043 412.071 382.684 411.668 382.894 411.665C383.315 411.66 383.52 411.854 383.31 411.857ZM384.019 408.499C383.603 408.308 383.603 408.308 384.449 408.1C385.08 408.091 385.291 408.088 385.076 408.288C384.856 408.685 384.225 408.693 384.019 408.499ZM304.087 436.543C304.302 436.343 305.99 436.124 307.677 435.904C311.893 435.454 320.97 433.955 321.821 433.55C322.036 433.35 323.092 433.139 324.359 432.926C326.677 432.698 337.474 429.6 344.046 427.346C354.646 423.661 368.457 417.569 376.135 412.937C381.042 409.917 381.893 409.512 381.888 409.709C381.884 409.906 380.178 410.914 378.042 412.321C362.47 421.784 341.242 430.338 324.34 433.714C316.091 435.793 303.438 437.339 304.087 436.543ZM401.317 415.163C401.948 415.155 402.364 415.346 402.144 415.743C401.929 415.943 401.5 416.342 401.079 416.348C400.658 416.353 400.242 416.162 400.251 415.768C400.26 415.374 400.686 415.171 401.317 415.163ZM400.924 413.986C400.915 414.38 400.7 414.58 400.279 414.586C399.858 414.591 399.648 414.594 399.653 414.397C399.657 414.2 399.872 414 400.297 413.798C400.512 413.598 400.928 413.789 400.924 413.986ZM400.115 412.618C399.895 413.015 399.47 413.218 399.259 413.221C398.839 413.226 398.843 413.029 399.063 412.632C399.283 412.236 399.708 412.033 399.918 412.03C400.129 412.027 400.334 412.222 400.115 412.618ZM398.125 416.781C398.34 416.581 398.76 416.576 399.172 416.964C399.583 417.352 399.583 417.352 399.158 417.555C398.312 417.763 397.69 417.378 398.125 416.781ZM397.041 418.174C396.602 418.968 395.984 418.385 396.222 417.2C396.488 414.833 396.488 414.833 397.101 415.613C397.508 416.198 397.718 416.195 397.741 415.21C397.755 414.619 397.979 414.026 398.404 413.823C398.83 413.62 398.199 413.629 397.357 413.64C395.885 413.659 395.455 414.059 395.221 415.047C394.768 416.432 394.119 417.228 392.843 417.836C392.418 418.038 391.334 419.431 390.455 421.019C389.577 422.606 388.704 423.996 388.493 423.999C388.283 424.002 387.853 424.402 387.633 424.798C387.414 425.195 387.62 425.389 387.834 425.19C388.26 424.987 388.47 424.984 388.461 425.378C388.456 425.575 388.237 425.972 387.811 426.175C387.176 426.38 387.171 426.577 387.779 427.554C388.186 428.139 388.387 428.53 388.396 428.136C388.406 427.742 389.032 427.931 389.86 428.511C390.893 429.285 391.094 429.676 390.454 430.079C390.024 430.478 390.024 430.478 390.87 430.27C391.505 430.065 392.141 429.859 392.351 429.857C393.403 429.843 392.804 428.472 391.762 428.092C390.925 427.906 390.724 427.515 390.953 426.724C391.401 425.536 390.569 425.153 389.91 426.344C389.691 426.741 389.691 426.741 389.494 426.152C389.503 425.758 389.732 424.967 390.158 424.765C391.228 423.963 391.836 424.94 391.584 426.715C391.57 427.306 391.767 427.895 391.977 427.892C392.398 427.886 392.613 427.687 392.622 427.293C392.631 426.898 392.841 426.896 393.042 427.287C393.244 427.678 393.669 427.476 394.108 426.682C394.547 425.888 394.561 425.297 394.355 425.103C394.149 424.909 393.72 425.308 393.5 425.705C393.276 426.299 393.061 426.499 392.654 425.913C392.453 425.522 392.467 424.931 392.897 424.532C393.327 424.132 393.121 423.938 392.275 424.146C391.429 424.354 391.223 424.16 391.242 423.372C391.255 422.781 391.063 421.995 390.867 421.407C390.469 420.428 390.469 420.428 391.297 421.008C391.708 421.396 392.335 421.585 392.55 421.385C392.765 421.185 392.559 420.991 392.349 420.994C391.928 420.999 391.722 420.805 391.731 420.411C391.736 420.214 392.372 420.009 393.003 420C393.839 420.186 394.256 420.377 394.031 420.971C394.018 421.562 394.008 421.956 394.429 421.951C394.85 421.945 394.84 422.339 394.827 422.93C394.602 423.524 394.794 424.309 395.421 424.498C396.038 425.081 396.248 425.078 396.052 424.49C395.851 424.098 396.5 423.302 397.15 422.506C397.795 421.906 398.449 420.913 398.462 420.322C398.476 419.731 398.691 419.531 399.112 419.525C399.528 419.717 399.738 419.714 399.743 419.517C399.748 419.32 399.332 419.128 398.915 418.937C398.499 418.745 398.088 418.357 398.102 417.766C397.475 417.577 397.475 417.577 397.041 418.174ZM389.764 423.588C390.167 424.371 389.732 424.967 388.891 424.979C388.26 424.987 388.264 424.79 388.704 423.996C389.143 423.203 389.563 423.197 389.764 423.588ZM396.757 421.329C396.322 421.926 396.112 421.928 396.126 421.337C396.139 420.746 395.929 420.749 395.499 421.149C394.635 422.145 394.008 421.956 394.662 420.963C394.887 420.369 395.737 419.964 396.368 419.956C397.635 419.742 397.626 420.136 396.757 421.329ZM393.643 419.598C392.381 419.615 392.381 419.615 393.643 419.598C394.068 419.395 394.713 418.796 394.933 418.399C395.157 417.805 395.157 417.805 395.138 418.593C394.914 419.187 394.484 419.587 393.643 419.598Z" fill="#FDB300"/>
<path d="M466.711 268.001C464.563 278.031 458.715 292.891 452.191 304.868C450.357 308.301 448.902 311.105 449.044 311.11C449.151 311.114 450.72 310.029 452.548 308.703L455.876 306.254L456.657 307.247C457.1 307.799 457.423 308.668 457.402 309.239C457.296 312.129 449.999 319.004 439.347 326.15C434.678 329.3 434.282 329.428 432.829 328.303C431.722 327.441 430.17 324.169 430.219 322.849C430.245 322.136 433.157 308.74 434.334 303.818C434.708 302.367 435.235 300.6 435.583 299.863C436.051 298.737 436.306 298.568 437.084 298.704C437.616 298.759 438.253 298.854 438.5 298.899C438.713 298.906 438.916 299.2 438.905 299.485C438.895 299.77 439.028 300.025 439.241 300.033C439.419 300.04 439.79 300.589 440.085 301.279C440.512 302.223 440.578 303.333 440.376 305.933C440.202 308.713 440.251 309.322 440.647 309.194C440.972 309.063 441.038 309.208 440.88 309.631C440.759 310.02 440.905 309.918 441.314 309.433C442.362 308.043 443.685 305.912 443.508 305.906C443.401 305.902 442.877 306.597 442.312 307.469C440.421 310.507 441.054 308.78 443.173 305.322C449.841 294.279 456.732 279.101 460.048 268.292C460.734 266.067 461.493 263.808 461.796 263.319C462.064 262.793 462.189 262.298 462.088 262.151C461.95 262.039 462.06 261.936 462.273 261.944C462.522 261.953 462.722 261.353 462.756 260.425C462.786 259.605 462.957 257.861 463.149 256.51C463.407 254.341 463.521 254.131 464.268 254.158C465.44 254.201 467.121 255.906 467.492 257.42C467.953 259.402 467.654 263.642 466.711 268.001ZM455.417 310.988C455.346 310.985 455.051 311.26 454.791 311.572C454.308 312.126 454.342 312.163 454.927 311.72C455.513 311.277 455.701 310.998 455.417 310.988ZM454.334 312.377C454.263 312.374 453.895 312.718 453.488 313.131L452.783 313.927L453.625 313.279C454.395 312.665 454.618 312.387 454.334 312.377ZM449.523 305.841C449.045 306.252 444.423 313.905 444.524 314.052C444.73 314.274 445.897 312.531 447.873 309.103C449.623 306.023 449.928 305.463 449.523 305.841Z" fill="white"/>
<path d="M186.958 256.605C189.894 266.434 191.905 282.276 191.938 295.914C191.979 299.806 192.05 302.965 192.177 302.901C192.273 302.853 193.128 301.147 194.094 299.106L195.835 295.359L196.998 295.855C197.651 296.126 198.353 296.733 198.608 297.244C199.904 299.829 196.808 309.366 190.9 320.75C188.318 325.757 188.032 326.059 186.217 325.771C184.832 325.546 181.899 323.422 181.308 322.241C180.988 321.603 177.105 308.456 175.773 303.573C175.403 302.121 175.017 300.319 174.967 299.505C174.837 298.293 174.98 298.022 175.727 297.767C176.22 297.56 176.824 297.337 177.062 297.258C177.253 297.162 177.572 297.322 177.7 297.577C177.828 297.833 178.067 297.992 178.257 297.897C178.416 297.817 179.006 298.121 179.596 298.584C180.425 299.207 181.016 300.148 182.088 302.526C183.271 305.047 183.607 305.558 183.892 305.255C184.115 304.984 184.242 305.08 184.307 305.527C184.387 305.926 184.467 305.766 184.592 305.144C184.843 303.421 184.98 300.917 184.821 300.997C184.726 301.045 184.6 301.906 184.523 302.943C184.325 306.516 184.05 304.697 184.247 300.645C184.789 287.757 183.54 271.134 181.253 260.062C180.787 257.781 180.367 255.435 180.398 254.861C180.38 254.271 180.252 253.776 180.092 253.697C179.917 253.664 179.965 253.521 180.155 253.425C180.378 253.314 180.265 252.692 179.849 251.862C179.482 251.128 178.793 249.516 178.313 248.24C177.497 246.213 177.496 245.974 178.163 245.639C179.212 245.114 181.506 245.802 182.559 246.951C183.915 248.468 185.69 252.329 186.958 256.605ZM197.707 299.732C197.644 299.763 197.517 300.146 197.439 300.545C197.281 301.263 197.329 301.279 197.63 300.609C197.931 299.939 197.962 299.604 197.707 299.732ZM197.425 301.47C197.362 301.502 197.204 301.98 197.046 302.538L196.81 303.575L197.237 302.602C197.617 301.693 197.679 301.343 197.425 301.47ZM190.065 298.05C189.844 298.64 189.467 307.573 189.627 307.653C189.913 307.749 190.099 305.659 190.185 301.703C190.24 298.162 190.239 297.524 190.065 298.05Z" fill="white"/>
</g>
<rect x="0.5" y="0.5" width="605" height="605" stroke="white" stroke-opacity="0.1"/>
<defs>
<linearGradient id="paint0_linear_13653_88785" x1="-7" y1="437.5" x2="599" y2="437.5" gradientUnits="userSpaceOnUse">
<stop offset="0.015" stop-color="white" stop-opacity="0"/>
<stop offset="0.5" stop-color="white"/>
<stop offset="1" stop-color="white" stop-opacity="0"/>
</linearGradient>
<linearGradient id="paint1_linear_13653_88785" x1="-7" y1="185.5" x2="599" y2="185.5" gradientUnits="userSpaceOnUse">
<stop offset="0.015" stop-color="white" stop-opacity="0"/>
<stop offset="0.5" stop-color="white"/>
<stop offset="1" stop-color="white" stop-opacity="0"/>
</linearGradient>
<linearGradient id="paint2_linear_13653_88785" x1="0" y1="353.5" x2="606" y2="353.5" gradientUnits="userSpaceOnUse">
<stop offset="0.015" stop-color="white" stop-opacity="0"/>
<stop offset="0.5" stop-color="white"/>
<stop offset="1" stop-color="white" stop-opacity="0"/>
</linearGradient>
<linearGradient id="paint3_linear_13653_88785" x1="0" y1="269.5" x2="606" y2="269.5" gradientUnits="userSpaceOnUse">
<stop offset="0.015" stop-color="white" stop-opacity="0"/>
<stop offset="0.5" stop-color="white"/>
<stop offset="1" stop-color="white" stop-opacity="0"/>
</linearGradient>
<linearGradient id="paint4_linear_13653_88785" x1="-7" y1="522.5" x2="599" y2="522.5" gradientUnits="userSpaceOnUse">
<stop offset="0.015" stop-color="white" stop-opacity="0"/>
<stop offset="0.5" stop-color="white"/>
<stop offset="1" stop-color="white" stop-opacity="0"/>
</linearGradient>
<clipPath id="clip0_13653_88785">
<rect width="606" height="606" fill="white"/>
</clipPath>
</defs>
</svg>
