<svg width="358" height="607" viewBox="0 0 358 607" fill="none" xmlns="http://www.w3.org/2000/svg">
<g clip-path="url(#clip0_13653_105519)">
<rect y="0.705566" width="358" height="606" fill="#3C50E0"/>
<path d="M38.656 60.7056H34.112V39.3616H38.656V60.7056ZM65.5613 60.7056H61.4653V50.9456C61.4653 49.5056 60.8253 48.4816 59.1613 48.4816C57.7213 48.4816 56.5373 49.4416 55.9613 50.2736V60.7056H51.8653V50.9456C51.8653 49.5056 51.2253 48.4816 49.5613 48.4816C48.1533 48.4816 46.9693 49.4416 46.3613 50.3056V60.7056H42.2973V45.2496H46.3613V47.2656C47.0013 46.3376 49.0493 44.8656 51.4173 44.8656C53.6893 44.8656 55.1293 45.9216 55.7053 47.6816C56.6013 46.2736 58.6493 44.8656 61.0173 44.8656C63.8653 44.8656 65.5613 46.3696 65.5613 49.5376V60.7056ZM77.8793 61.0896C76.0553 61.0896 74.3593 60.3216 73.1113 58.7216V66.5936H69.0473V45.2496H73.1113V47.2016C74.2953 45.6976 75.9913 44.8656 77.8793 44.8656C81.8473 44.8656 84.7273 47.8096 84.7273 52.9616C84.7273 58.1136 81.8473 61.0896 77.8793 61.0896ZM76.5993 57.4736C78.9353 57.4736 80.5033 55.6496 80.5033 52.9616C80.5033 50.3056 78.9353 48.4816 76.5993 48.4816C75.2873 48.4816 73.7833 49.2496 73.1113 50.2416V55.7136C73.7833 56.6736 75.2873 57.4736 76.5993 57.4736ZM91.2675 60.7056H87.2035V45.2496H91.2675V47.3616C92.3555 45.9856 94.2755 44.8656 96.1955 44.8656V48.8336C95.9075 48.7696 95.5235 48.7376 95.0755 48.7376C93.7315 48.7376 91.9395 49.5056 91.2675 50.4976V60.7056ZM105.403 61.0896C100.315 61.0896 97.2428 57.3776 97.2428 52.9616C97.2428 48.5776 100.315 44.8656 105.403 44.8656C110.523 44.8656 113.595 48.5776 113.595 52.9616C113.595 57.3776 110.523 61.0896 105.403 61.0896ZM105.403 57.4736C107.931 57.4736 109.371 55.3936 109.371 52.9616C109.371 50.5616 107.931 48.4816 105.403 48.4816C102.875 48.4816 101.467 50.5616 101.467 52.9616C101.467 55.3936 102.875 57.4736 105.403 57.4736ZM124.494 60.7056H120.11L113.902 45.2496H118.254L122.286 56.0016L126.318 45.2496H130.702L124.494 60.7056ZM139.28 61.0896C134.576 61.0896 131.024 57.9216 131.024 52.9616C131.024 48.4816 134.32 44.8656 139.024 44.8656C143.632 44.8656 146.768 48.3216 146.768 53.3776V54.2736H135.28C135.536 56.2256 137.104 57.8576 139.728 57.8576C141.04 57.8576 142.864 57.2816 143.856 56.3216L145.648 58.9456C144.112 60.3536 141.68 61.0896 139.28 61.0896ZM142.832 51.5216C142.736 50.0496 141.712 48.0976 139.024 48.0976C136.496 48.0976 135.408 49.9856 135.216 51.5216H142.832ZM156.347 66.7536L156.955 63.1056C157.307 63.2656 157.851 63.3616 158.235 63.3616C159.291 63.3616 159.995 63.0736 160.379 62.2416L160.955 60.9296L154.683 45.2496H159.035L163.067 56.0016L167.099 45.2496H171.483L164.219 63.2336C163.067 66.1456 161.019 66.9136 158.363 66.9776C157.883 66.9776 156.859 66.8816 156.347 66.7536ZM179.965 61.0896C174.877 61.0896 171.805 57.3776 171.805 52.9616C171.805 48.5776 174.877 44.8656 179.965 44.8656C185.085 44.8656 188.157 48.5776 188.157 52.9616C188.157 57.3776 185.085 61.0896 179.965 61.0896ZM179.965 57.4736C182.493 57.4736 183.933 55.3936 183.933 52.9616C183.933 50.5616 182.493 48.4816 179.965 48.4816C177.437 48.4816 176.029 50.5616 176.029 52.9616C176.029 55.3936 177.437 57.4736 179.965 57.4736ZM205.168 60.7056H201.104V58.7536C200.048 59.9376 198.192 61.0896 195.664 61.0896C192.272 61.0896 190.672 59.2336 190.672 56.2256V45.2496H194.736V54.6256C194.736 56.7696 195.856 57.4736 197.584 57.4736C199.152 57.4736 200.4 56.6096 201.104 55.7136V45.2496H205.168V60.7056ZM212.768 60.7056H208.704V45.2496H212.768V47.3616C213.856 45.9856 215.776 44.8656 217.696 44.8656V48.8336C217.408 48.7696 217.024 48.7376 216.576 48.7376C215.232 48.7376 213.44 49.5056 212.768 50.4976V60.7056ZM233.758 66.9776C231.102 66.9776 229.054 66.3696 227.102 64.6736L228.926 61.7296C230.174 63.1056 231.806 63.6496 233.758 63.6496C235.71 63.6496 238.014 62.7856 238.014 59.7456V58.1776C236.798 59.7136 235.134 60.6096 233.246 60.6096C229.374 60.6096 226.43 57.8896 226.43 52.7376C226.43 47.6816 229.342 44.8656 233.246 44.8656C235.102 44.8656 236.766 45.6656 238.014 47.2336V45.2496H242.11V59.6496C242.11 65.5376 237.566 66.9776 233.758 66.9776ZM234.526 56.9936C235.87 56.9936 237.342 56.2256 238.014 55.2336V50.2416C237.342 49.2176 235.87 48.4816 234.526 48.4816C232.222 48.4816 230.622 50.0816 230.622 52.7376C230.622 55.3936 232.222 56.9936 234.526 56.9936ZM249.705 60.7056H245.641V45.2496H249.705V47.3616C250.793 45.9856 252.713 44.8656 254.633 44.8656V48.8336C254.345 48.7696 253.961 48.7376 253.513 48.7376C252.169 48.7376 250.377 49.5056 249.705 50.4976V60.7056ZM270.016 60.7056H265.952V59.1056C264.896 60.3536 263.072 61.0896 261.056 61.0896C258.592 61.0896 255.68 59.4256 255.68 55.9696C255.68 52.3536 258.592 50.9776 261.056 50.9776C263.104 50.9776 264.928 51.6496 265.952 52.8656V50.7856C265.952 49.2176 264.608 48.1936 262.56 48.1936C260.896 48.1936 259.36 48.8016 258.048 50.0176L256.512 47.2976C258.4 45.6336 260.832 44.8656 263.264 44.8656C266.784 44.8656 270.016 46.2736 270.016 50.7216V60.7056ZM262.688 58.3376C264 58.3376 265.28 57.8896 265.952 56.9936V55.0736C265.28 54.1776 264 53.7296 262.688 53.7296C261.088 53.7296 259.776 54.5616 259.776 56.0656C259.776 57.5056 261.088 58.3376 262.688 58.3376ZM288.267 60.7056H284.171V58.7216C282.955 60.2576 281.259 61.0896 279.403 61.0896C275.499 61.0896 272.555 58.1456 272.555 52.9936C272.555 47.9376 275.467 44.8656 279.403 44.8656C281.227 44.8656 282.955 45.6656 284.171 47.2336V39.3616H288.267V60.7056ZM280.651 57.4736C282.027 57.4736 283.499 56.7376 284.171 55.7136V50.2416C283.499 49.2176 282.027 48.4816 280.651 48.4816C278.347 48.4816 276.747 50.3056 276.747 52.9936C276.747 55.6496 278.347 57.4736 280.651 57.4736ZM299.061 61.0896C294.357 61.0896 290.805 57.9216 290.805 52.9616C290.805 48.4816 294.101 44.8656 298.805 44.8656C303.413 44.8656 306.549 48.3216 306.549 53.3776V54.2736H295.061C295.317 56.2256 296.885 57.8576 299.509 57.8576C300.821 57.8576 302.645 57.2816 303.637 56.3216L305.429 58.9456C303.893 60.3536 301.461 61.0896 299.061 61.0896ZM302.613 51.5216C302.517 50.0496 301.493 48.0976 298.805 48.0976C296.277 48.0976 295.189 49.9856 294.997 51.5216H302.613ZM41.184 98.0896C36.096 98.0896 33.024 94.3776 33.024 89.9616C33.024 85.5776 36.096 81.8656 41.184 81.8656C46.304 81.8656 49.376 85.5776 49.376 89.9616C49.376 94.3776 46.304 98.0896 41.184 98.0896ZM41.184 94.4736C43.712 94.4736 45.152 92.3936 45.152 89.9616C45.152 87.5616 43.712 85.4816 41.184 85.4816C38.656 85.4816 37.248 87.5616 37.248 89.9616C37.248 92.3936 38.656 94.4736 41.184 94.4736ZM55.955 97.7056H51.891V82.2496H55.955V84.3616C57.043 82.9856 58.963 81.8656 60.883 81.8656V85.8336C60.595 85.7696 60.211 85.7376 59.763 85.7376C58.419 85.7376 56.627 86.5056 55.955 87.4976V97.7056ZM76.9458 103.978C74.2898 103.978 72.2418 103.37 70.2898 101.674L72.1138 98.7296C73.3618 100.106 74.9938 100.65 76.9458 100.65C78.8978 100.65 81.2018 99.7856 81.2018 96.7456V95.1776C79.9858 96.7136 78.3218 97.6096 76.4338 97.6096C72.5618 97.6096 69.6178 94.8896 69.6178 89.7376C69.6178 84.6816 72.5298 81.8656 76.4338 81.8656C78.2898 81.8656 79.9538 82.6656 81.2018 84.2336V82.2496H85.2978V96.6496C85.2978 102.538 80.7538 103.978 76.9458 103.978ZM77.7138 93.9936C79.0578 93.9936 80.5298 93.2256 81.2018 92.2336V87.2416C80.5298 86.2176 79.0578 85.4816 77.7138 85.4816C75.4098 85.4816 73.8098 87.0816 73.8098 89.7376C73.8098 92.3936 75.4098 93.9936 77.7138 93.9936ZM96.0925 98.0896C91.3885 98.0896 87.8365 94.9216 87.8365 89.9616C87.8365 85.4816 91.1325 81.8656 95.8365 81.8656C100.445 81.8656 103.581 85.3216 103.581 90.3776V91.2736H92.0925C92.3485 93.2256 93.9165 94.8576 96.5405 94.8576C97.8525 94.8576 99.6765 94.2816 100.669 93.3216L102.461 95.9456C100.925 97.3536 98.4925 98.0896 96.0925 98.0896ZM99.6445 88.5216C99.5485 87.0496 98.5245 85.0976 95.8365 85.0976C93.3085 85.0976 92.2205 86.9856 92.0285 88.5216H99.6445ZM111.2 98.0896C108.352 98.0896 106.816 96.6176 106.816 93.8656V85.8016H104.256V82.2496H106.816V78.0256H110.912V82.2496H114.048V85.8016H110.912V92.7776C110.912 93.7376 111.424 94.4736 112.32 94.4736C112.928 94.4736 113.504 94.2496 113.728 94.0256L114.592 97.0976C113.984 97.6416 112.896 98.0896 111.2 98.0896ZM123.472 103.754L124.08 100.106C124.432 100.266 124.976 100.362 125.36 100.362C126.416 100.362 127.12 100.074 127.504 99.2416L128.08 97.9296L121.808 82.2496H126.16L130.192 93.0016L134.224 82.2496H138.608L131.344 100.234C130.192 103.146 128.144 103.914 125.488 103.978C125.008 103.978 123.984 103.882 123.472 103.754ZM147.09 98.0896C142.002 98.0896 138.93 94.3776 138.93 89.9616C138.93 85.5776 142.002 81.8656 147.09 81.8656C152.21 81.8656 155.282 85.5776 155.282 89.9616C155.282 94.3776 152.21 98.0896 147.09 98.0896ZM147.09 94.4736C149.618 94.4736 151.058 92.3936 151.058 89.9616C151.058 87.5616 149.618 85.4816 147.09 85.4816C144.562 85.4816 143.154 87.5616 143.154 89.9616C143.154 92.3936 144.562 94.4736 147.09 94.4736ZM172.293 97.7056H168.229V95.7536C167.173 96.9376 165.317 98.0896 162.789 98.0896C159.397 98.0896 157.797 96.2336 157.797 93.2256V82.2496H161.861V91.6256C161.861 93.7696 162.981 94.4736 164.709 94.4736C166.277 94.4736 167.525 93.6096 168.229 92.7136V82.2496H172.293V97.7056ZM179.893 97.7056H175.829V82.2496H179.893V84.3616C180.981 82.9856 182.901 81.8656 184.821 81.8656V85.8336C184.533 85.7696 184.149 85.7376 183.701 85.7376C182.357 85.7376 180.565 86.5056 179.893 87.4976V97.7056ZM217.811 97.7056H213.715V87.9456C213.715 86.5056 213.075 85.4816 211.411 85.4816C209.971 85.4816 208.787 86.4416 208.211 87.2736V97.7056H204.115V87.9456C204.115 86.5056 203.475 85.4816 201.811 85.4816C200.403 85.4816 199.219 86.4416 198.611 87.3056V97.7056H194.547V82.2496H198.611V84.2656C199.251 83.3376 201.299 81.8656 203.667 81.8656C205.939 81.8656 207.379 82.9216 207.955 84.6816C208.851 83.2736 210.899 81.8656 213.267 81.8656C216.115 81.8656 217.811 83.3696 217.811 86.5376V97.7056ZM228.465 98.0896C223.377 98.0896 220.305 94.3776 220.305 89.9616C220.305 85.5776 223.377 81.8656 228.465 81.8656C233.585 81.8656 236.657 85.5776 236.657 89.9616C236.657 94.3776 233.585 98.0896 228.465 98.0896ZM228.465 94.4736C230.993 94.4736 232.433 92.3936 232.433 89.9616C232.433 87.5616 230.993 85.4816 228.465 85.4816C225.937 85.4816 224.529 87.5616 224.529 89.9616C224.529 92.3936 225.937 94.4736 228.465 94.4736ZM253.668 97.7056H249.604V88.3616C249.604 86.2176 248.484 85.4816 246.756 85.4816C245.156 85.4816 243.908 86.3776 243.236 87.3056V97.7056H239.172V82.2496H243.236V84.2656C244.228 83.0816 246.116 81.8656 248.644 81.8656C252.036 81.8656 253.668 83.7856 253.668 86.7936V97.7056ZM264.468 98.0896C259.764 98.0896 256.212 94.9216 256.212 89.9616C256.212 85.4816 259.508 81.8656 264.212 81.8656C268.82 81.8656 271.956 85.3216 271.956 90.3776V91.2736H260.468C260.724 93.2256 262.292 94.8576 264.916 94.8576C266.228 94.8576 268.052 94.2816 269.044 93.3216L270.836 95.9456C269.3 97.3536 266.868 98.0896 264.468 98.0896ZM268.02 88.5216C267.924 87.0496 266.9 85.0976 264.212 85.0976C261.684 85.0976 260.596 86.9856 260.404 88.5216H268.02ZM273.847 103.754L274.455 100.106C274.807 100.266 275.351 100.362 275.735 100.362C276.791 100.362 277.495 100.074 277.879 99.2416L278.455 97.9296L272.183 82.2496H276.535L280.567 93.0016L284.599 82.2496H288.983L281.719 100.234C280.567 103.146 278.519 103.914 275.863 103.978C275.383 103.978 274.359 103.882 273.847 103.754ZM38.08 129.746C38.752 130.738 40.256 131.474 41.568 131.474C43.936 131.474 45.504 129.682 45.504 126.994C45.504 124.306 43.936 122.482 41.568 122.482C40.256 122.482 38.752 123.25 38.08 124.274V129.746ZM38.08 134.706H34.016V113.362H38.08V121.234C39.296 119.666 41.024 118.866 42.848 118.866C46.784 118.866 49.696 121.938 49.696 126.994C49.696 132.146 46.752 135.09 42.848 135.09C40.992 135.09 39.296 134.258 38.08 132.722V134.706ZM65.61 134.706H61.546V133.106C60.49 134.354 58.666 135.09 56.65 135.09C54.186 135.09 51.274 133.426 51.274 129.97C51.274 126.354 54.186 124.978 56.65 124.978C58.698 124.978 60.522 125.65 61.546 126.866V124.786C61.546 123.218 60.202 122.194 58.154 122.194C56.49 122.194 54.954 122.802 53.642 124.018L52.106 121.298C53.994 119.634 56.426 118.866 58.858 118.866C62.378 118.866 65.61 120.274 65.61 124.722V134.706ZM58.282 132.338C59.594 132.338 60.874 131.89 61.546 130.994V129.074C60.874 128.178 59.594 127.73 58.282 127.73C56.682 127.73 55.37 128.562 55.37 130.066C55.37 131.506 56.682 132.338 58.282 132.338ZM76.341 135.09C71.573 135.09 68.149 131.73 68.149 126.962C68.149 122.226 71.573 118.866 76.341 118.866C79.509 118.866 81.429 120.242 82.453 121.65L79.797 124.146C79.061 123.058 77.941 122.482 76.533 122.482C74.069 122.482 72.341 124.274 72.341 126.962C72.341 129.65 74.069 131.474 76.533 131.474C77.941 131.474 79.061 130.834 79.797 129.81L82.453 132.274C81.429 133.714 79.509 135.09 76.341 135.09ZM99.7138 134.706H94.6258L90.5298 128.754L88.6738 130.738V134.706H84.6098V113.362H88.6738V126.13L94.5298 119.25H99.5218L93.4098 126.258L99.7138 134.706ZM103.315 135.058C101.907 135.058 100.723 133.874 100.723 132.466C100.723 131.058 101.907 129.874 103.315 129.874C104.723 129.874 105.907 131.058 105.907 132.466C105.907 133.874 104.723 135.058 103.315 135.058Z" fill="white"/>
<line x1="-7" y1="437.206" x2="599" y2="437.206" stroke="url(#paint0_linear_13653_105519)" stroke-opacity="0.15" stroke-dasharray="2 2"/>
<line x1="-7" y1="185.206" x2="599" y2="185.206" stroke="url(#paint1_linear_13653_105519)" stroke-opacity="0.15" stroke-dasharray="2 2"/>
<line y1="353.206" x2="606" y2="353.206" stroke="url(#paint2_linear_13653_105519)" stroke-opacity="0.15" stroke-dasharray="2 2"/>
<line y1="269.206" x2="606" y2="269.206" stroke="url(#paint3_linear_13653_105519)" stroke-opacity="0.15" stroke-dasharray="2 2"/>
<line x1="-7" y1="522.206" x2="599" y2="522.206" stroke="url(#paint4_linear_13653_105519)" stroke-opacity="0.15" stroke-dasharray="2 2"/>
<path d="M258.376 275.716C254.561 283.483 250.676 296.382 248.745 307.723C248.168 310.956 247.667 313.573 247.57 313.503C247.498 313.45 247.025 311.911 246.506 310.078L245.58 306.718L244.544 306.967C243.963 307.102 243.294 307.509 243.01 307.898C241.572 309.868 242.816 318.234 246.142 328.53C247.591 333.056 247.786 333.348 249.336 333.361C250.52 333.367 253.256 332.01 253.913 331.11C254.269 330.623 259.334 320.228 261.124 316.352C261.634 315.196 262.207 313.75 262.362 313.08C262.64 312.089 262.559 311.844 261.973 311.528C261.592 311.287 261.12 311.017 260.933 310.918C260.788 310.811 260.5 310.9 260.358 311.095C260.216 311.289 259.995 311.389 259.85 311.282C259.728 311.194 259.196 311.364 258.64 311.667C257.864 312.07 257.24 312.77 256.017 314.599C254.68 316.531 254.33 316.909 254.134 316.618C253.987 316.361 253.868 316.423 253.752 316.786C253.629 317.106 253.585 316.962 253.568 316.427C253.6 314.959 253.835 312.857 253.956 312.945C254.029 312.998 254.013 313.732 253.932 314.606C253.598 317.606 254.081 316.131 254.483 312.733C255.831 301.935 259.191 288.281 262.639 279.388C263.346 277.555 264.022 275.663 264.077 275.181C264.174 274.692 264.35 274.299 264.493 274.254C264.643 274.252 264.624 274.126 264.479 274.02C264.309 273.896 264.49 273.394 264.952 272.762C265.36 272.203 266.158 270.958 266.736 269.963C267.698 268.391 267.732 268.192 267.223 267.821C266.424 267.237 264.42 267.489 263.383 268.298C262.043 269.371 260.027 272.336 258.376 275.716ZM243.412 310.094C243.461 310.129 243.513 310.465 243.522 310.808C243.553 311.427 243.511 311.434 243.354 310.834C243.198 310.235 243.219 309.952 243.412 310.094ZM243.404 311.579C243.453 311.615 243.518 312.035 243.571 312.521L243.623 313.417L243.403 312.548C243.214 311.739 243.211 311.438 243.404 311.579ZM250.005 309.762C250.107 310.284 249.173 317.767 249.029 317.812C248.777 317.851 248.914 316.087 249.395 312.784C249.843 309.83 249.934 309.3 250.005 309.762Z" fill="white"/>
<path d="M166.856 426.272C166.982 426.79 168.92 427.024 168.929 426.634C168.935 426.374 169.212 426.371 169.484 426.627C169.894 426.881 171.141 426.995 174.059 426.826C179.34 426.496 180.734 426.218 181.027 425.564C181.175 425.172 181.175 425.172 181.162 425.692C181.15 426.212 181.425 426.338 183.791 426.047C187.964 425.602 192.563 424.761 192.853 424.237C193.137 423.973 193.137 423.973 193.131 424.233C193.125 424.493 193.399 424.62 193.961 424.352C194.38 424.217 195.497 423.942 196.472 423.799C197.724 423.653 198.285 423.385 198.436 422.863C198.584 422.471 198.868 422.208 199.007 422.206C199.284 422.202 199.139 422.464 198.994 422.726C198.424 423.383 198.979 423.376 199.827 422.715C200.25 422.449 200.531 422.316 200.524 422.576C200.506 423.356 212.258 419.3 219.83 415.951C226.282 413.005 234.579 408.346 234.313 407.83C234.18 407.572 234.325 407.31 234.606 407.176C234.887 407.042 234.887 407.042 234.742 407.304C234.31 407.96 235.01 407.691 236.981 406.495C239.655 404.899 241.071 403.711 240.799 403.455C240.669 403.066 240.811 402.934 241.228 402.929C241.644 402.923 242.344 402.654 242.628 402.39C243.902 401.334 244.312 401.588 243.452 402.769C242.73 403.949 242.73 403.949 243.27 404.591C243.813 405.104 243.81 405.234 243.246 405.632C242.82 406.027 242.543 406.031 242.549 405.771C242.286 405.124 241.589 405.264 241.577 405.784C241.571 406.044 241.284 406.438 240.865 406.573C240.445 406.709 240.3 406.97 240.572 407.227C240.708 407.355 240.985 407.351 241.13 407.089C241.278 406.698 241.417 406.696 241.824 407.08C242.232 407.465 242.37 407.463 242.102 407.077C241.969 406.818 242.114 406.556 242.534 406.421C242.953 406.285 243.376 406.02 243.52 405.758C243.807 405.364 244.483 406.135 244.462 407.045C244.456 407.305 244.724 407.692 244.999 407.818C245.551 407.941 245.554 407.811 245.437 406.902C245.313 406.254 245.319 405.994 245.452 406.252C245.581 406.64 245.72 406.639 246.146 406.243C246.852 405.714 246.722 405.326 245.886 405.467C245.328 405.604 245.192 405.476 245.205 404.956C245.223 404.176 245.781 404.038 246.043 404.685C246.176 404.943 246.315 404.941 246.324 404.551C246.33 404.291 246.62 403.767 246.901 403.633C247.326 403.238 247.462 403.366 247.453 403.756C247.447 404.016 247.302 404.278 247.024 404.282C246.747 404.285 246.744 404.415 246.879 404.544C247.015 404.672 247.296 404.538 247.577 404.404C247.86 404.141 248.141 404.007 248.415 404.133C248.554 404.131 248.838 403.868 248.986 403.476C249.134 403.084 249.146 402.564 249.427 402.43C249.71 402.166 249.713 402.036 249.3 401.912C249.025 401.786 249.167 401.654 249.729 401.386C250.151 401.121 250.577 400.725 250.583 400.465C250.755 399.033 250.9 398.771 251.316 398.766C252.011 398.757 253.354 394.709 252.823 393.677C252.691 393.419 252.292 392.644 251.755 391.871L250.953 390.582L248.171 390.879C244.972 391.181 244.136 391.323 238.007 392.314C228.537 393.739 220.015 396.192 220.968 396.959C221.104 397.087 222.082 396.814 223.062 396.411C226.002 395.333 233.673 393.671 241.19 392.661C247.733 391.795 249.821 391.507 249.396 391.903C249.254 392.034 246.052 392.467 242.292 393.037C232.409 394.338 222.504 396.549 221.369 397.604C220.944 397.999 221.08 398.127 221.758 398.768C222.576 399.407 222.712 399.535 224.387 399.123C225.364 398.85 226.203 398.579 226.206 398.449C226.21 398.319 226.351 398.187 226.487 398.316C226.623 398.444 228.572 398.158 230.803 397.738C232.894 397.321 236.096 396.888 237.768 396.606C239.578 396.322 241.663 396.164 242.361 396.025C244.31 395.739 244.168 395.871 235.998 401.049C222.616 409.545 214.616 413.42 202.173 417.355C199.098 418.305 196.162 419.254 195.881 419.388C195.6 419.522 195.184 419.527 195.045 419.529C194.906 419.531 193.095 419.815 191.143 420.231C186.124 421.207 185.566 421.344 180.976 421.795C171.935 422.695 161.672 422.441 150.881 421.025C147.7 420.547 144.93 420.324 144.65 420.458C144.369 420.592 144.23 420.593 144.236 420.333C144.242 420.073 137.347 418.215 135.959 418.234C135.681 418.237 135.268 418.113 135.271 417.983C135 417.726 130.455 416.227 130.175 416.361C130.036 416.363 129.897 416.365 129.903 416.104C129.906 415.974 129.773 415.716 129.496 415.72C129.218 415.724 127.571 414.966 125.787 414.08C124.004 413.193 122.36 412.305 122.082 412.309C121.804 412.313 121.258 411.93 120.851 411.546C120.444 411.161 118.805 410.013 117.167 408.865C113.344 406.186 110.085 403.11 108.481 400.532C107.005 398.342 106.323 397.831 105.889 398.617C105.596 399.27 107.056 402.11 107.617 401.843C107.759 401.711 108.028 402.098 108.151 402.746C108.272 403.524 109.216 404.681 111.799 406.987C114.921 409.935 120.512 414.15 121.753 414.523C122.027 414.649 123.261 415.283 124.489 416.176C125.72 416.94 126.955 417.573 127.096 417.441C127.238 417.31 127.374 417.438 127.371 417.568C127.365 417.828 129.423 418.84 129.978 418.833C130.117 418.831 130.391 418.957 130.527 419.086C130.66 419.344 132.31 419.972 134.374 420.724C134.788 420.849 135.479 420.97 135.759 420.836C136.176 420.83 136.315 420.828 136.173 420.96C135.605 421.488 144.429 423.97 146.375 423.814C146.93 423.807 147.483 423.93 147.754 424.186C148.026 424.442 148.717 424.563 149.414 424.424C150.111 424.285 150.663 424.407 150.796 424.665C151.061 425.182 154.381 425.658 154.393 425.138C154.399 424.878 154.538 424.876 154.809 425.132C155.081 425.388 155.775 425.379 156.33 425.372C157.166 425.231 157.305 425.229 156.882 425.494C156.46 425.76 156.596 425.888 157.567 425.875C158.261 425.866 158.82 425.729 158.826 425.469C158.832 425.209 159.106 425.335 159.375 425.721C159.643 426.108 159.918 426.234 159.924 425.974C159.93 425.714 160.211 425.58 160.488 425.577C160.766 425.573 160.902 425.701 160.757 425.963C160.615 426.095 160.748 426.353 160.887 426.351C161.025 426.349 161.306 426.216 161.312 425.956C161.315 425.826 161.46 425.564 161.738 425.56C162.015 425.556 162.012 425.686 161.87 425.818C161.581 426.342 162.41 426.461 163.253 426.06C163.675 425.794 163.814 425.792 163.669 426.054C163.524 426.316 163.937 426.441 165.187 426.424C166.714 426.404 166.853 426.402 165.887 426.155L164.782 425.909L165.893 425.895C166.309 425.889 166.862 426.012 166.856 426.272ZM243.383 399.781C243.519 399.909 243.654 400.037 243.651 400.167C243.648 400.297 243.509 400.299 243.374 400.171C243.238 400.043 242.957 400.176 242.677 400.31C242.393 400.574 242.115 400.578 242.121 400.318C242.13 399.928 243.111 399.525 243.383 399.781ZM237.377 401.42C237.383 401.16 240.202 399.303 241.183 398.9C241.461 398.897 241.883 398.631 242.17 398.237C242.593 397.972 243.438 397.441 244.002 397.043L245.128 396.378L244.693 397.164C244.545 397.556 243.984 397.823 243.706 397.827C243.29 397.833 243.009 397.966 242.867 398.098C242.722 398.36 241.735 399.023 240.468 399.82C239.2 400.616 238.074 401.281 237.794 401.415C237.652 401.547 237.374 401.55 237.377 401.42ZM240.715 401.116C240.721 400.856 241.005 400.592 241.421 400.587C241.838 400.581 241.835 400.711 241.554 400.845C241.273 400.979 241.131 401.111 241.264 401.369C241.4 401.497 241.258 401.629 241.119 401.631C240.842 401.634 240.709 401.376 240.715 401.116ZM234.845 402.884L236.107 402.347L235.256 403.138C234.83 403.534 234.269 403.801 233.991 403.805C233.858 403.547 234.142 403.283 234.845 402.884ZM202.498 421.25C202.773 421.376 202.064 422.035 201.508 422.043C201.37 422.044 201.376 421.784 201.659 421.521C201.94 421.387 202.221 421.253 202.498 421.25ZM205.993 420.163C206.542 420.416 206.397 420.678 205.703 420.687C205.426 420.691 205.29 420.563 205.435 420.301C205.577 420.169 205.718 420.037 205.993 420.163ZM232.539 406.554C232.4 406.555 232.117 406.819 231.691 407.215C230.985 407.744 230.985 407.744 231.416 407.088C231.703 406.695 232.126 406.429 232.264 406.427C232.542 406.424 232.678 406.552 232.539 406.554ZM233.007 404.338C232.733 404.211 232.733 404.211 233.291 404.074C233.707 404.069 233.846 404.067 233.704 404.199C233.559 404.46 233.143 404.466 233.007 404.338ZM180.258 422.845C180.4 422.713 181.513 422.568 182.627 422.423C185.409 422.126 191.399 421.137 191.961 420.87C192.102 420.738 192.8 420.599 193.636 420.457C195.166 420.307 202.291 418.263 206.627 416.776C213.623 414.343 222.737 410.323 227.804 407.266C231.043 405.274 231.604 405.006 231.601 405.136C231.598 405.266 230.472 405.931 229.063 406.86C218.786 413.105 204.777 418.75 193.623 420.978C188.179 422.35 179.829 423.37 180.258 422.845ZM244.422 408.735C244.839 408.73 245.113 408.856 244.968 409.118C244.826 409.25 244.543 409.514 244.265 409.517C243.988 409.521 243.713 409.395 243.719 409.135C243.725 408.875 244.006 408.741 244.422 408.735ZM244.163 407.959C244.157 408.219 244.015 408.351 243.737 408.355C243.46 408.358 243.321 408.36 243.324 408.23C243.327 408.1 243.469 407.968 243.749 407.835C243.891 407.703 244.166 407.829 244.163 407.959ZM243.629 407.056C243.484 407.318 243.203 407.452 243.065 407.454C242.787 407.457 242.79 407.327 242.935 407.065C243.08 406.804 243.36 406.67 243.499 406.668C243.638 406.666 243.774 406.794 243.629 407.056ZM242.316 409.803C242.458 409.671 242.735 409.668 243.007 409.924C243.278 410.18 243.278 410.18 242.998 410.314C242.439 410.451 242.029 410.197 242.316 409.803ZM241.6 410.722C241.311 411.246 240.903 410.862 241.06 410.08C241.236 408.518 241.236 408.518 241.64 409.032C241.908 409.419 242.047 409.417 242.062 408.767C242.072 408.377 242.219 407.985 242.5 407.851C242.781 407.717 242.364 407.723 241.809 407.73C240.837 407.743 240.554 408.007 240.4 408.659C240.101 409.573 239.672 410.098 238.83 410.499C238.549 410.633 237.834 411.552 237.255 412.6C236.675 413.647 236.098 414.565 235.96 414.567C235.821 414.568 235.537 414.832 235.392 415.094C235.247 415.356 235.383 415.484 235.525 415.352C235.806 415.219 235.944 415.217 235.938 415.477C235.935 415.607 235.79 415.869 235.51 416.002C235.09 416.138 235.087 416.268 235.488 416.912C235.757 417.299 235.89 417.557 235.896 417.297C235.902 417.037 236.315 417.161 236.861 417.544C237.543 418.055 237.676 418.313 237.253 418.579C236.97 418.842 236.97 418.842 237.528 418.705C237.947 418.569 238.367 418.434 238.506 418.432C239.2 418.423 238.805 417.518 238.117 417.267C237.564 417.145 237.432 416.887 237.583 416.365C237.879 415.581 237.329 415.328 236.895 416.114C236.75 416.376 236.75 416.376 236.62 415.988C236.626 415.728 236.777 415.206 237.058 415.072C237.764 414.543 238.165 415.187 237.999 416.359C237.99 416.749 238.12 417.137 238.259 417.136C238.536 417.132 238.678 417 238.684 416.74C238.69 416.48 238.829 416.478 238.962 416.736C239.094 416.995 239.375 416.861 239.665 416.337C239.955 415.813 239.964 415.423 239.828 415.295C239.692 415.167 239.409 415.431 239.264 415.693C239.116 416.084 238.974 416.216 238.705 415.83C238.573 415.572 238.582 415.182 238.865 414.918C239.149 414.654 239.013 414.526 238.455 414.663C237.897 414.801 237.761 414.673 237.773 414.153C237.782 413.763 237.656 413.244 237.526 412.856C237.264 412.21 237.264 412.21 237.81 412.592C238.081 412.849 238.495 412.973 238.637 412.841C238.778 412.71 238.643 412.581 238.504 412.583C238.226 412.587 238.09 412.459 238.097 412.199C238.1 412.069 238.519 411.933 238.935 411.928C239.488 412.05 239.762 412.177 239.614 412.568C239.605 412.959 239.599 413.219 239.877 413.215C240.154 413.211 240.148 413.471 240.139 413.861C239.991 414.253 240.118 414.771 240.531 414.896C240.939 415.28 241.077 415.279 240.948 414.89C240.815 414.632 241.244 414.107 241.672 413.581C242.098 413.185 242.529 412.53 242.539 412.14C242.548 411.75 242.69 411.618 242.967 411.614C243.242 411.74 243.381 411.739 243.384 411.609C243.387 411.479 243.112 411.352 242.837 411.226C242.563 411.1 242.291 410.843 242.3 410.453C241.887 410.329 241.887 410.329 241.6 410.722ZM236.799 414.296C237.064 414.812 236.777 415.206 236.222 415.213C235.806 415.219 235.809 415.089 236.098 414.565C236.388 414.041 236.666 414.037 236.799 414.296ZM241.413 412.805C241.126 413.198 240.987 413.2 240.996 412.81C241.006 412.42 240.867 412.422 240.583 412.686C240.013 413.343 239.599 413.219 240.031 412.563C240.179 412.171 240.74 411.904 241.156 411.898C241.992 411.757 241.986 412.017 241.413 412.805ZM239.358 411.662C238.525 411.673 238.525 411.673 239.358 411.662C239.639 411.528 240.064 411.133 240.209 410.871C240.357 410.479 240.357 410.479 240.345 410.999C240.197 411.391 239.913 411.655 239.358 411.662Z" fill="white"/>
<path d="M212.176 230H209.904V225.632L205.808 219.328H208.4L211.04 223.6L213.68 219.328H216.256L212.176 225.632V230ZM218.952 230.192C216.408 230.192 214.872 228.32 214.872 226.128C214.872 223.936 216.408 222.08 218.952 222.08C221.512 222.08 223.048 223.936 223.048 226.128C223.048 228.32 221.512 230.192 218.952 230.192ZM218.952 228.384C220.232 228.384 220.936 227.344 220.936 226.128C220.936 224.928 220.232 223.888 218.952 223.888C217.688 223.888 216.984 224.928 216.984 226.128C216.984 227.344 217.688 228.384 218.952 228.384ZM231.979 230H229.947V229.024C229.419 229.6 228.491 230.192 227.227 230.192C225.531 230.192 224.731 229.264 224.731 227.76V222.272H226.763V226.96C226.763 228.032 227.323 228.384 228.187 228.384C228.971 228.384 229.595 227.952 229.947 227.504V222.272H231.979V230ZM236.189 230H234.157V222.272H236.189V223.312C236.749 222.64 237.693 222.08 238.653 222.08V224.064C238.509 224.032 238.333 224.016 238.093 224.016C237.421 224.016 236.525 224.4 236.189 224.896V230ZM249.584 230.192C246.448 230.192 243.888 228.032 243.888 224.672C243.888 221.296 246.448 219.152 249.584 219.152C251.792 219.152 253.184 220.272 253.984 221.536L252.112 222.56C251.616 221.808 250.704 221.168 249.584 221.168C247.632 221.168 246.224 222.656 246.224 224.672C246.224 226.688 247.632 228.176 249.584 228.176C250.528 228.176 251.408 227.76 251.84 227.36V226.08H249.024V224.096H254.112V228.192C253.024 229.408 251.504 230.192 249.584 230.192ZM258.06 230H256.028V222.272H258.06V223.312C258.62 222.64 259.564 222.08 260.524 222.08V224.064C260.38 224.032 260.204 224.016 259.964 224.016C259.292 224.016 258.396 224.4 258.06 224.896V230ZM268.641 230H266.593V229.184C266.065 229.824 265.153 230.192 264.145 230.192C262.913 230.192 261.473 229.36 261.473 227.632C261.473 225.808 262.913 225.136 264.145 225.136C265.185 225.136 266.081 225.472 266.593 226.08V225.104C266.593 224.32 265.921 223.808 264.897 223.808C264.081 223.808 263.313 224.128 262.673 224.72L261.873 223.296C262.817 222.448 264.033 222.08 265.249 222.08C267.025 222.08 268.641 222.784 268.641 225.008V230ZM264.961 228.816C265.617 228.816 266.257 228.592 266.593 228.144V227.184C266.257 226.736 265.617 226.496 264.961 226.496C264.161 226.496 263.505 226.928 263.505 227.664C263.505 228.4 264.161 228.816 264.961 228.816ZM278.161 230H276.113V229.008C275.505 229.776 274.673 230.192 273.729 230.192C271.793 230.192 270.305 228.72 270.305 226.128C270.305 223.616 271.761 222.08 273.729 222.08C274.641 222.08 275.505 222.464 276.113 223.264V219.328H278.161V230ZM274.369 228.384C275.041 228.384 275.777 228.016 276.113 227.504V224.768C275.777 224.256 275.041 223.888 274.369 223.888C273.201 223.888 272.401 224.8 272.401 226.128C272.401 227.472 273.201 228.384 274.369 228.384ZM283.968 230.192C281.616 230.192 279.84 228.608 279.84 226.128C279.84 223.888 281.504 222.08 283.84 222.08C286.16 222.08 287.712 223.808 287.712 226.32V226.8H281.968C282.112 227.744 282.88 228.528 284.192 228.528C284.848 228.528 285.744 228.256 286.24 227.776L287.152 229.12C286.384 229.824 285.168 230.192 283.968 230.192ZM285.76 225.392C285.696 224.656 285.184 223.744 283.84 223.744C282.576 223.744 282.032 224.624 281.952 225.392H285.76ZM302.569 230H300.393L298.761 224.736L297.129 230H294.953L292.601 222.272H294.713L296.153 227.472L297.849 222.272H299.657L301.353 227.472L302.793 222.272H304.921L302.569 230ZM307.089 221.44C306.433 221.44 305.889 220.896 305.889 220.224C305.889 219.552 306.433 219.024 307.089 219.024C307.761 219.024 308.305 219.552 308.305 220.224C308.305 220.896 307.761 221.44 307.089 221.44ZM308.113 230H306.081V222.272H308.113V230ZM312.88 230.192C311.456 230.192 310.704 229.456 310.704 228.064V224.048H309.424V222.272H310.704V220.16H312.736V222.272H314.304V224.048H312.736V227.52C312.736 228.016 312.992 228.384 313.44 228.384C313.744 228.384 314.032 228.272 314.144 228.144L314.576 229.696C314.272 229.968 313.728 230.192 312.88 230.192ZM323.119 230H321.087V225.296C321.087 224.224 320.527 223.888 319.663 223.888C318.863 223.888 318.239 224.336 317.903 224.784V230H315.855V219.328H317.903V223.264C318.399 222.688 319.343 222.08 320.607 222.08C322.303 222.08 323.119 223.008 323.119 224.512V230Z" fill="#F0F5FC"/>
<path d="M247.148 247.905C246.619 247.219 245.924 246.642 245.042 246.181C244.161 245.721 243.133 245.486 241.958 245.486C240.655 245.486 239.461 245.809 238.384 246.456C237.306 247.102 236.454 248.003 235.828 249.158C235.201 250.314 234.888 251.655 234.888 253.154C234.888 254.662 235.201 256.003 235.828 257.188C236.454 258.373 237.297 259.303 238.374 259.959C239.441 260.625 240.626 260.948 241.909 260.948C243.064 260.948 244.102 260.713 245.013 260.243C245.924 259.773 246.639 259.186 247.158 258.471V260.704H250.281V245.721H247.158L247.148 247.905ZM246.511 255.915C246.08 256.689 245.532 257.266 244.837 257.668C244.151 258.069 243.407 258.265 242.604 258.265C241.821 258.265 241.086 258.06 240.391 257.658C239.696 257.247 239.128 256.659 238.707 255.876C238.276 255.092 238.07 254.192 238.07 253.154C238.07 252.116 238.286 251.224 238.707 250.47C239.128 249.716 239.686 249.148 240.381 248.757C241.067 248.365 241.811 248.169 242.614 248.169C243.407 248.169 244.151 248.365 244.847 248.767C245.532 249.168 246.09 249.746 246.521 250.51C246.942 251.273 247.158 252.165 247.158 253.203C247.148 254.241 246.932 255.141 246.511 255.915Z" fill="#F0F5FC"/>
<path d="M261.464 252.889C260.769 252.586 259.878 252.292 258.781 252.008C257.968 251.773 257.351 251.577 256.93 251.42C256.509 251.264 256.157 251.058 255.873 250.784C255.579 250.51 255.442 250.177 255.442 249.775C255.442 249.266 255.657 248.864 256.098 248.551C256.529 248.248 257.156 248.091 257.978 248.091C258.81 248.091 259.476 248.287 259.966 248.688C260.456 249.09 260.73 249.619 260.779 250.294H263.883C263.814 248.806 263.256 247.631 262.208 246.769C261.17 245.907 259.79 245.476 258.086 245.476C256.94 245.476 255.931 245.662 255.05 246.044C254.169 246.426 253.493 246.945 253.023 247.611C252.553 248.277 252.318 249.002 252.318 249.805C252.318 250.784 252.573 251.567 253.092 252.174C253.611 252.772 254.218 253.212 254.923 253.506C255.628 253.8 256.548 254.094 257.665 254.407C258.82 254.73 259.672 255.034 260.211 255.308C260.749 255.582 261.014 255.993 261.014 256.561C261.014 257.09 260.769 257.521 260.289 257.854C259.809 258.187 259.134 258.353 258.262 258.353C257.43 258.353 256.734 258.138 256.186 257.717C255.638 257.296 255.334 256.757 255.275 256.13H252.063C252.103 257.041 252.387 257.854 252.935 258.588C253.483 259.323 254.218 259.901 255.148 260.331C256.078 260.753 257.136 260.968 258.311 260.968C259.467 260.968 260.485 260.782 261.347 260.4C262.208 260.018 262.874 259.489 263.344 258.823C263.814 258.158 264.049 257.394 264.049 256.542C264.03 255.582 263.765 254.809 263.256 254.231C262.767 253.633 262.159 253.193 261.464 252.889Z" fill="#F0F5FC"/>
<path d="M269.935 242H266.811V245.721H265.039V248.248H266.811V256.542C266.811 258.011 267.183 259.068 267.927 259.724C268.672 260.38 269.739 260.704 271.139 260.704H273.587V258.118H271.688C271.051 258.118 270.601 258.001 270.346 257.756C270.082 257.511 269.954 257.11 269.954 256.542V248.248H273.597V245.721H269.954V242H269.935Z" fill="#F0F5FC"/>
<path d="M278.444 247.905V245.731H275.34V260.713H278.444V252.83C278.444 251.303 278.757 250.235 279.384 249.619C280.011 249.002 280.931 248.698 282.146 248.698H282.939V245.486C281.901 245.486 281.01 245.702 280.256 246.123C279.502 246.544 278.904 247.141 278.444 247.905Z" fill="#F0F5FC"/>
<path d="M295.786 245.731V247.905C295.258 247.219 294.562 246.642 293.681 246.181C292.8 245.721 291.772 245.486 290.597 245.486C289.294 245.486 288.099 245.809 287.022 246.456C285.945 247.102 285.093 248.003 284.466 249.158C283.84 250.314 283.526 251.655 283.526 253.154C283.526 254.662 283.84 256.003 284.466 257.188C285.093 258.373 285.935 259.303 287.012 259.959C288.08 260.625 289.265 260.948 290.548 260.948C291.703 260.948 292.741 260.713 293.652 260.243C294.562 259.773 295.277 259.186 295.796 258.471V260.704H298.92V245.721L295.786 245.731ZM295.15 255.915C294.719 256.689 294.171 257.266 293.475 257.668C292.79 258.069 292.046 258.265 291.243 258.265C290.459 258.265 289.725 258.06 289.03 257.658C288.334 257.247 287.766 256.659 287.345 255.876C286.915 255.092 286.709 254.192 286.709 253.154C286.709 252.116 286.924 251.224 287.345 250.47C287.766 249.716 288.325 249.148 289.02 248.757C289.705 248.365 290.45 248.169 291.253 248.169C292.046 248.169 292.79 248.365 293.485 248.767C294.171 249.168 294.729 249.746 295.16 250.51C295.581 251.273 295.796 252.165 295.796 253.203C295.786 254.241 295.581 255.141 295.15 255.915Z" fill="#F0F5FC"/>
<path d="M229.903 255.856C229.433 254.975 228.797 254.133 228.023 253.359C227.925 253.261 227.817 253.163 227.71 253.065C227.661 253.722 227.563 254.358 227.435 254.995C227.338 255.474 227.22 255.925 227.073 256.375C227.249 256.62 227.406 256.865 227.533 257.11C227.876 257.756 228.366 258.99 227.808 259.959C227.093 261.203 224.625 261.604 221.864 260.508C221.746 260.459 220.796 260.018 220.424 259.812C220.042 259.597 219.69 259.352 219.347 259.098C218.994 258.833 218.652 258.539 218.348 258.246C217.731 257.648 217.232 256.992 216.879 256.336C216.693 256.003 216.517 255.641 216.37 255.23C216.174 255.328 215.978 255.425 215.792 255.533C215.41 255.749 215.058 255.993 214.744 256.248C214.529 256.424 214.314 256.601 214.118 256.796L214.108 256.806C214.225 257.08 214.363 257.345 214.5 257.59C215.058 258.628 215.851 259.626 216.83 260.498C214.069 261.595 211.601 261.193 210.886 259.95C210.328 258.98 210.818 257.746 211.16 257.1C211.503 256.454 212.003 255.807 212.61 255.22C212.855 254.985 213.119 254.75 213.393 254.534C213.804 254.211 214.245 253.908 214.715 253.633C215.097 253.418 215.479 253.222 215.871 253.056C217.026 252.556 218.211 252.292 219.269 252.292H219.425C220.14 252.292 220.904 252.409 221.678 252.644C222.059 252.762 222.451 252.899 222.833 253.065C222.794 253.428 222.735 253.771 222.657 254.103C222.481 254.897 222.206 255.611 221.883 256.199C221.883 256.209 221.873 256.219 221.873 256.219C221.658 256.659 221.354 257.12 220.972 257.57C221.149 257.687 221.335 257.805 221.521 257.913C221.815 258.079 222.686 258.481 222.686 258.481C222.951 258.588 223.46 258.735 223.47 258.745C223.744 258.373 223.979 257.991 224.184 257.609C224.684 256.718 225.066 255.68 225.311 254.544C225.497 253.673 225.595 252.733 225.595 251.753V251.469C225.497 246.465 222.794 242.597 219.357 242.597C216.556 242.597 214.245 245.173 213.432 248.825C214.02 248.541 214.627 248.306 215.234 248.101C215.694 247.944 216.155 247.827 216.615 247.719C217.31 246.191 218.368 245.271 219.357 245.271C220.796 245.271 222.373 247.219 222.804 250.167C221.638 249.785 220.463 249.589 219.357 249.599C218.319 249.619 216.997 249.814 215.91 250.167C215.058 250.451 214.196 250.833 213.374 251.303C213.285 251.352 213.197 251.401 213.119 251.459C211.219 252.615 209.682 254.162 208.791 255.847C207.753 257.805 207.674 259.744 208.565 261.291C209.535 262.966 211.454 263.827 213.726 263.827C215.479 263.827 217.447 263.308 219.357 262.261C221.266 263.308 223.225 263.827 224.987 263.827C227.259 263.827 229.179 262.966 230.148 261.291C231.029 259.754 230.951 257.815 229.903 255.856Z" fill="#F0F5FC"/>
<path d="M317.79 243.547H307.048C304.698 243.547 302.788 245.467 302.788 247.827V258.618C302.788 260.978 304.698 262.897 307.048 262.897H317.79C320.14 262.897 322.05 260.978 322.05 258.618V247.827C322.05 245.467 320.14 243.547 317.79 243.547ZM320.591 258.618C320.591 260.165 319.337 261.428 317.79 261.428H307.048C305.51 261.428 304.247 260.175 304.247 258.618V247.827C304.247 246.279 305.501 245.016 307.048 245.016H317.79C319.327 245.016 320.591 246.27 320.591 247.827V258.618Z" fill="#F0F5FC"/>
<path d="M309.672 248.845L306.568 257.541H308.379L308.947 255.886H312.385L312.953 257.541H314.784L311.68 248.845H309.672ZM309.427 254.495L310.671 250.862L311.915 254.495H309.427Z" fill="#F0F5FC"/>
<path d="M317.262 248.855H315.528V257.541H317.262V248.855Z" fill="#F0F5FC"/>
<path d="M37.3596 240H35.0876V235.632L30.9916 229.328H33.5836L36.2236 233.6L38.8636 229.328H41.4396L37.3596 235.632V240ZM44.1358 240.192C41.5918 240.192 40.0558 238.32 40.0558 236.128C40.0558 233.936 41.5918 232.08 44.1358 232.08C46.6958 232.08 48.2318 233.936 48.2318 236.128C48.2318 238.32 46.6958 240.192 44.1358 240.192ZM44.1358 238.384C45.4158 238.384 46.1198 237.344 46.1198 236.128C46.1198 234.928 45.4158 233.888 44.1358 233.888C42.8718 233.888 42.1678 234.928 42.1678 236.128C42.1678 237.344 42.8718 238.384 44.1358 238.384ZM57.1629 240H55.1309V239.024C54.6029 239.6 53.6749 240.192 52.4109 240.192C50.7149 240.192 49.9149 239.264 49.9149 237.76V232.272H51.9469V236.96C51.9469 238.032 52.5069 238.384 53.3709 238.384C54.1549 238.384 54.7789 237.952 55.1309 237.504V232.272H57.1629V240ZM61.3725 240H59.3405V232.272H61.3725V233.312C61.9325 232.64 62.8765 232.08 63.8365 232.08V234.064C63.6925 234.032 63.5165 234.016 63.2765 234.016C62.6045 234.016 61.7085 234.4 61.3725 234.896V240ZM74.7675 240.192C71.5515 240.192 69.0715 237.952 69.0715 234.672C69.0715 231.376 71.5515 229.152 74.7675 229.152C77.1035 229.152 78.4635 230.416 79.2155 231.76L77.2635 232.72C76.8155 231.856 75.8555 231.168 74.7675 231.168C72.8155 231.168 71.4075 232.656 71.4075 234.672C71.4075 236.688 72.8155 238.176 74.7675 238.176C75.8555 238.176 76.8155 237.488 77.2635 236.624L79.2155 237.568C78.4635 238.896 77.1035 240.192 74.7675 240.192ZM87.9279 240H85.8959V239.024C85.3679 239.6 84.4399 240.192 83.1759 240.192C81.4799 240.192 80.6799 239.264 80.6799 237.76V232.272H82.7119V236.96C82.7119 238.032 83.2719 238.384 84.1359 238.384C84.9199 238.384 85.5439 237.952 85.8959 237.504V232.272H87.9279V240ZM92.1375 240H90.1055V232.272H92.1375V233.312C92.6975 232.64 93.6415 232.08 94.6015 232.08V234.064C94.4575 234.032 94.2815 234.016 94.0415 234.016C93.3695 234.016 92.4735 234.4 92.1375 234.896V240ZM98.0631 240H96.0311V232.272H98.0631V233.312C98.6231 232.64 99.5671 232.08 100.527 232.08V234.064C100.383 234.032 100.207 234.016 99.9671 234.016C99.2951 234.016 98.3991 234.4 98.0631 234.896V240ZM105.589 240.192C103.237 240.192 101.461 238.608 101.461 236.128C101.461 233.888 103.125 232.08 105.461 232.08C107.781 232.08 109.333 233.808 109.333 236.32V236.8H103.589C103.733 237.744 104.501 238.528 105.813 238.528C106.469 238.528 107.365 238.256 107.861 237.776L108.773 239.12C108.005 239.824 106.789 240.192 105.589 240.192ZM107.381 235.392C107.317 234.656 106.805 233.744 105.461 233.744C104.197 233.744 103.653 234.624 103.573 235.392H107.381ZM118.224 240H116.176V235.328C116.176 234.256 115.616 233.888 114.752 233.888C113.952 233.888 113.344 234.336 112.992 234.784V240H110.96V232.272H112.992V233.264C113.488 232.688 114.448 232.08 115.696 232.08C117.408 232.08 118.224 233.04 118.224 234.544V240ZM122.978 240.192C121.554 240.192 120.802 239.456 120.802 238.064V234.048H119.522V232.272H120.802V230.16H122.834V232.272H124.402V234.048H122.834V237.52C122.834 238.016 123.09 238.384 123.538 238.384C123.842 238.384 124.13 238.272 124.242 238.144L124.674 239.696C124.37 239.968 123.826 240.192 122.978 240.192ZM47.2243 258H44.9363V250.304L41.9283 258H40.9363L37.9283 250.304V258H35.6563V247.328H38.8403L41.4323 254L44.0243 247.328H47.2243V258ZM56.1438 258H54.0958V257.184C53.5678 257.824 52.6558 258.192 51.6478 258.192C50.4158 258.192 48.9758 257.36 48.9758 255.632C48.9758 253.808 50.4158 253.136 51.6478 253.136C52.6878 253.136 53.5838 253.472 54.0958 254.08V253.104C54.0958 252.32 53.4238 251.808 52.3998 251.808C51.5838 251.808 50.8158 252.128 50.1758 252.72L49.3758 251.296C50.3198 250.448 51.5358 250.08 52.7518 250.08C54.5278 250.08 56.1438 250.784 56.1438 253.008V258ZM52.4638 256.816C53.1198 256.816 53.7598 256.592 54.0958 256.144V255.184C53.7598 254.736 53.1198 254.496 52.4638 254.496C51.6638 254.496 51.0078 254.928 51.0078 255.664C51.0078 256.4 51.6638 256.816 52.4638 256.816ZM60.8953 258.192C59.4713 258.192 58.7193 257.456 58.7193 256.064V252.048H57.4393V250.272H58.7193V248.16H60.7513V250.272H62.3193V252.048H60.7513V255.52C60.7513 256.016 61.0073 256.384 61.4553 256.384C61.7593 256.384 62.0473 256.272 62.1593 256.144L62.5913 257.696C62.2873 257.968 61.7433 258.192 60.8953 258.192ZM71.1336 258H69.1016V253.296C69.1016 252.224 68.5416 251.888 67.6776 251.888C66.8776 251.888 66.2536 252.336 65.9176 252.784V258H63.8696V247.328H65.9176V251.264C66.4136 250.688 67.3576 250.08 68.6216 250.08C70.3176 250.08 71.1336 251.008 71.1336 252.512V258ZM82.8122 258.192C79.6762 258.192 77.1162 256.032 77.1162 252.672C77.1162 249.296 79.6762 247.152 82.8122 247.152C85.0202 247.152 86.4122 248.272 87.2122 249.536L85.3402 250.56C84.8442 249.808 83.9322 249.168 82.8122 249.168C80.8602 249.168 79.4522 250.656 79.4522 252.672C79.4522 254.688 80.8602 256.176 82.8122 256.176C83.7562 256.176 84.6362 255.76 85.0682 255.36V254.08H82.2522V252.096H87.3402V256.192C86.2522 257.408 84.7322 258.192 82.8122 258.192ZM91.2878 258H89.2558V250.272H91.2878V251.312C91.8478 250.64 92.7918 250.08 93.7518 250.08V252.064C93.6078 252.032 93.4318 252.016 93.1918 252.016C92.5198 252.016 91.6238 252.4 91.2878 252.896V258ZM101.869 258H99.8214V257.184C99.2934 257.824 98.3814 258.192 97.3734 258.192C96.1414 258.192 94.7014 257.36 94.7014 255.632C94.7014 253.808 96.1414 253.136 97.3734 253.136C98.4134 253.136 99.3094 253.472 99.8214 254.08V253.104C99.8214 252.32 99.1494 251.808 98.1254 251.808C97.3094 251.808 96.5414 252.128 95.9014 252.72L95.1014 251.296C96.0454 250.448 97.2614 250.08 98.4774 250.08C100.253 250.08 101.869 250.784 101.869 253.008V258ZM98.1894 256.816C98.8454 256.816 99.4854 256.592 99.8214 256.144V255.184C99.4854 254.736 98.8454 254.496 98.1894 254.496C97.3894 254.496 96.7334 254.928 96.7334 255.664C96.7334 256.4 97.3894 256.816 98.1894 256.816ZM111.389 258H109.341V257.008C108.733 257.776 107.901 258.192 106.957 258.192C105.021 258.192 103.533 256.72 103.533 254.128C103.533 251.616 104.989 250.08 106.957 250.08C107.869 250.08 108.733 250.464 109.341 251.264V247.328H111.389V258ZM107.597 256.384C108.269 256.384 109.005 256.016 109.341 255.504V252.768C109.005 252.256 108.269 251.888 107.597 251.888C106.429 251.888 105.629 252.8 105.629 254.128C105.629 255.472 106.429 256.384 107.597 256.384ZM117.196 258.192C114.844 258.192 113.068 256.608 113.068 254.128C113.068 251.888 114.732 250.08 117.068 250.08C119.388 250.08 120.94 251.808 120.94 254.32V254.8H115.196C115.34 255.744 116.108 256.528 117.42 256.528C118.076 256.528 118.972 256.256 119.468 255.776L120.38 257.12C119.612 257.824 118.396 258.192 117.196 258.192ZM118.988 253.392C118.924 252.656 118.412 251.744 117.068 251.744C115.804 251.744 115.26 252.624 115.18 253.392H118.988Z" fill="#F0F5FC"/>
<path d="M38 351C75.9278 351 123.97 351 123.97 351L229.445 351L323 351" stroke="white" stroke-width="4"/>
<circle cx="35" cy="350" r="8" fill="#3C50E0" stroke="white" stroke-width="4"/>
<circle cx="108" cy="350" r="8" fill="#3C50E0" stroke="white" stroke-width="4"/>
<circle cx="180" cy="350" r="8" fill="#3C50E0" stroke="white" stroke-width="4"/>
<circle cx="253" cy="350" r="8" fill="#3C50E0" stroke="white" stroke-width="4"/>
<circle cx="326" cy="350" r="8" fill="#3C50E0" stroke="white" stroke-width="4"/>
<path d="M36.7309 380H34.4589V372.256L32.6829 374.064L31.3869 372.704L34.7469 369.328H36.7309V380Z" fill="#F0F5FC"/>
<path d="M111.487 380H103.455V378.224C107.823 374.992 109.103 373.888 109.103 372.576C109.103 371.648 108.255 371.184 107.375 371.184C106.159 371.184 105.231 371.664 104.511 372.416L103.215 370.912C104.255 369.712 105.839 369.168 107.327 369.168C109.599 369.168 111.407 370.448 111.407 372.576C111.407 374.4 109.903 375.984 107.135 378H111.487V380Z" fill="#F0F5FC"/>
<path d="M179.333 380.192C177.365 380.192 175.909 379.44 175.125 378.48L176.309 376.96C177.045 377.728 178.213 378.176 179.253 378.176C180.549 378.176 181.269 377.616 181.269 376.816C181.269 375.968 180.613 375.584 179.125 375.584C178.677 375.584 177.957 375.6 177.797 375.616V373.568C177.989 373.584 178.725 373.584 179.125 373.584C180.309 373.584 181.093 373.232 181.093 372.448C181.093 371.6 180.229 371.184 179.109 371.184C178.085 371.184 177.157 371.568 176.405 372.288L175.269 370.864C176.133 369.888 177.477 369.168 179.349 369.168C181.845 369.168 183.381 370.288 183.381 372.064C183.381 373.408 182.229 374.288 181.045 374.496C182.133 374.608 183.541 375.456 183.541 377.056C183.541 378.896 181.893 380.192 179.333 380.192Z" fill="#F0F5FC"/>
<path d="M255.503 380H253.231V377.792H248.127V376L252.367 369.328H255.503V375.792H256.879V377.792H255.503V380ZM253.231 375.792V371.344L250.351 375.792H253.231Z" fill="#F0F5FC"/>
<path d="M324.529 380.192C322.673 380.192 321.329 379.584 320.417 378.592L321.681 377.008C322.401 377.76 323.393 378.176 324.513 378.176C325.777 378.176 326.497 377.456 326.497 376.592C326.497 375.648 325.793 375.008 324.577 375.008C323.697 375.008 322.977 375.264 322.337 375.872L320.753 375.456V369.328H328.081V371.328H323.025V373.936C323.537 373.424 324.401 373.04 325.377 373.04C327.185 373.04 328.801 374.336 328.801 376.496C328.801 378.768 327.105 380.192 324.529 380.192Z" fill="#F0F5FC"/>
<path d="M98.9826 470H86.9346V467.336C93.4866 462.488 95.4066 460.832 95.4066 458.864C95.4066 457.472 94.1346 456.776 92.8146 456.776C90.9906 456.776 89.5986 457.496 88.5186 458.624L86.5746 456.368C88.1346 454.568 90.5106 453.752 92.7426 453.752C96.1506 453.752 98.8626 455.672 98.8626 458.864C98.8626 461.6 96.6066 463.976 92.4546 467H98.9826V470ZM116.154 470.312C111.474 470.312 107.634 467.048 107.634 462.008C107.634 456.944 111.474 453.728 116.154 453.728C119.49 453.728 121.578 455.408 122.778 457.304L119.946 458.84C119.226 457.712 117.858 456.752 116.154 456.752C113.25 456.752 111.138 458.984 111.138 462.008C111.138 465.032 113.25 467.264 116.154 467.264C117.57 467.264 118.914 466.64 119.562 466.04V464.12H115.338V461.144H122.97V467.288C121.338 469.112 119.058 470.312 116.154 470.312ZM128.891 470H125.843V458.408H128.891V459.992C129.707 458.96 131.147 458.12 132.587 458.12V461.096C132.371 461.048 132.083 461.024 131.747 461.024C130.739 461.024 129.395 461.6 128.891 462.344V470ZM144.74 470H141.692V468.8C140.9 469.736 139.532 470.288 138.02 470.288C136.172 470.288 133.988 469.04 133.988 466.448C133.988 463.736 136.172 462.704 138.02 462.704C139.556 462.704 140.924 463.208 141.692 464.12V462.56C141.692 461.384 140.684 460.616 139.148 460.616C137.9 460.616 136.748 461.072 135.764 461.984L134.612 459.944C136.028 458.696 137.852 458.12 139.676 458.12C142.316 458.12 144.74 459.176 144.74 462.512V470ZM139.244 468.224C140.228 468.224 141.188 467.888 141.692 467.216V465.776C141.188 465.104 140.228 464.768 139.244 464.768C138.044 464.768 137.06 465.392 137.06 466.52C137.06 467.6 138.044 468.224 139.244 468.224ZM159.043 470H155.971V468.512C155.059 469.664 153.787 470.288 152.395 470.288C149.467 470.288 147.259 468.08 147.259 464.216C147.259 460.424 149.443 458.12 152.395 458.12C153.763 458.12 155.059 458.72 155.971 459.896V453.992H159.043V470ZM153.331 467.576C154.363 467.576 155.467 467.024 155.971 466.256V462.152C155.467 461.384 154.363 460.832 153.331 460.832C151.603 460.832 150.403 462.2 150.403 464.216C150.403 466.208 151.603 467.576 153.331 467.576ZM167.753 470.288C164.225 470.288 161.561 467.912 161.561 464.192C161.561 460.832 164.033 458.12 167.561 458.12C171.017 458.12 173.369 460.712 173.369 464.504V465.176H164.753C164.945 466.64 166.121 467.864 168.089 467.864C169.073 467.864 170.441 467.432 171.185 466.712L172.529 468.68C171.377 469.736 169.553 470.288 167.753 470.288ZM170.417 463.112C170.345 462.008 169.577 460.544 167.561 460.544C165.665 460.544 164.849 461.96 164.705 463.112H170.417ZM183.704 457.16C182.72 457.16 181.88 456.344 181.88 455.336C181.88 454.328 182.72 453.536 183.704 453.536C184.712 453.536 185.528 454.328 185.528 455.336C185.528 456.344 184.712 457.16 183.704 457.16ZM185.24 470H182.192V458.408H185.24V470ZM199.374 470H196.326V462.992C196.326 461.384 195.486 460.832 194.19 460.832C192.99 460.832 192.054 461.504 191.55 462.2V470H188.502V458.408H191.55V459.92C192.294 459.032 193.71 458.12 195.606 458.12C198.15 458.12 199.374 459.56 199.374 461.816V470ZM208.04 470.288C204.464 470.288 201.896 467.768 201.896 464.192C201.896 460.64 204.464 458.12 208.04 458.12C210.416 458.12 211.856 459.152 212.624 460.208L210.632 462.08C210.08 461.264 209.24 460.832 208.184 460.832C206.336 460.832 205.04 462.176 205.04 464.192C205.04 466.208 206.336 467.576 208.184 467.576C209.24 467.576 210.08 467.096 210.632 466.328L212.624 468.176C211.856 469.256 210.416 470.288 208.04 470.288ZM217.905 470H214.857V458.408H217.905V459.992C218.721 458.96 220.161 458.12 221.601 458.12V461.096C221.385 461.048 221.097 461.024 220.761 461.024C219.753 461.024 218.409 461.6 217.905 462.344V470ZM229.193 470.288C225.665 470.288 223.001 467.912 223.001 464.192C223.001 460.832 225.473 458.12 229.001 458.12C232.457 458.12 234.809 460.712 234.809 464.504V465.176H226.193C226.385 466.64 227.561 467.864 229.529 467.864C230.513 467.864 231.881 467.432 232.625 466.712L233.969 468.68C232.817 469.736 230.993 470.288 229.193 470.288ZM231.857 463.112C231.785 462.008 231.017 460.544 229.001 460.544C227.105 460.544 226.289 461.96 226.145 463.112H231.857ZM247.259 470H244.211V468.8C243.419 469.736 242.051 470.288 240.539 470.288C238.691 470.288 236.507 469.04 236.507 466.448C236.507 463.736 238.691 462.704 240.539 462.704C242.075 462.704 243.443 463.208 244.211 464.12V462.56C244.211 461.384 243.203 460.616 241.667 460.616C240.419 460.616 239.267 461.072 238.283 461.984L237.131 459.944C238.547 458.696 240.371 458.12 242.195 458.12C244.835 458.12 247.259 459.176 247.259 462.512V470ZM241.763 468.224C242.747 468.224 243.707 467.888 244.211 467.216V465.776C243.707 465.104 242.747 464.768 241.763 464.768C240.563 464.768 239.579 465.392 239.579 466.52C239.579 467.6 240.563 468.224 241.763 468.224ZM254.698 470.288C252.682 470.288 250.738 469.616 249.514 468.488L250.834 466.352C251.674 467.144 253.402 467.936 254.842 467.936C256.162 467.936 256.786 467.408 256.786 466.688C256.786 464.768 249.898 466.328 249.898 461.768C249.898 459.824 251.602 458.12 254.65 458.12C256.618 458.12 258.178 458.792 259.33 459.704L258.106 461.792C257.41 461.048 256.09 460.448 254.674 460.448C253.57 460.448 252.85 460.952 252.85 461.6C252.85 463.328 259.714 461.888 259.714 466.568C259.714 468.68 257.914 470.288 254.698 470.288ZM267.648 470.288C264.12 470.288 261.456 467.912 261.456 464.192C261.456 460.832 263.928 458.12 267.456 458.12C270.912 458.12 273.264 460.712 273.264 464.504V465.176H264.648C264.84 466.64 266.016 467.864 267.984 467.864C268.968 467.864 270.336 467.432 271.08 466.712L272.424 468.68C271.272 469.736 269.448 470.288 267.648 470.288ZM270.312 463.112C270.24 462.008 269.472 460.544 267.456 460.544C265.56 460.544 264.744 461.96 264.6 463.112H270.312ZM122.439 498.704C120.447 498.704 118.911 498.248 117.447 496.976L118.815 494.768C119.751 495.8 120.975 496.208 122.439 496.208C123.903 496.208 125.631 495.56 125.631 493.28V492.104C124.719 493.256 123.471 493.928 122.055 493.928C119.151 493.928 116.943 491.888 116.943 488.024C116.943 484.232 119.127 482.12 122.055 482.12C123.447 482.12 124.695 482.72 125.631 483.896V482.408H128.703V493.208C128.703 497.624 125.295 498.704 122.439 498.704ZM123.015 491.216C124.023 491.216 125.127 490.64 125.631 489.896V486.152C125.127 485.384 124.023 484.832 123.015 484.832C121.287 484.832 120.087 486.032 120.087 488.024C120.087 490.016 121.287 491.216 123.015 491.216ZM142.838 494H139.79V492.536C138.998 493.424 137.606 494.288 135.71 494.288C133.166 494.288 131.966 492.896 131.966 490.64V482.408H135.014V489.44C135.014 491.048 135.854 491.576 137.15 491.576C138.326 491.576 139.262 490.928 139.79 490.256V482.408H142.838V494ZM156.112 494H153.064V492.8C152.272 493.736 150.904 494.288 149.392 494.288C147.544 494.288 145.36 493.04 145.36 490.448C145.36 487.736 147.544 486.704 149.392 486.704C150.928 486.704 152.296 487.208 153.064 488.12V486.56C153.064 485.384 152.056 484.616 150.52 484.616C149.272 484.616 148.12 485.072 147.136 485.984L145.984 483.944C147.4 482.696 149.224 482.12 151.048 482.12C153.688 482.12 156.112 483.176 156.112 486.512V494ZM150.616 492.224C151.6 492.224 152.56 491.888 153.064 491.216V489.776C152.56 489.104 151.6 488.768 150.616 488.768C149.416 488.768 148.432 489.392 148.432 490.52C148.432 491.6 149.416 492.224 150.616 492.224ZM162.424 494H159.376V482.408H162.424V483.992C163.24 482.96 164.68 482.12 166.12 482.12V485.096C165.904 485.048 165.616 485.024 165.28 485.024C164.272 485.024 162.928 485.6 162.424 486.344V494ZM178.272 494H175.224V492.8C174.432 493.736 173.064 494.288 171.552 494.288C169.704 494.288 167.52 493.04 167.52 490.448C167.52 487.736 169.704 486.704 171.552 486.704C173.088 486.704 174.456 487.208 175.224 488.12V486.56C175.224 485.384 174.216 484.616 172.68 484.616C171.432 484.616 170.28 485.072 169.296 485.984L168.144 483.944C169.56 482.696 171.384 482.12 173.208 482.12C175.848 482.12 178.272 483.176 178.272 486.512V494ZM172.776 492.224C173.76 492.224 174.72 491.888 175.224 491.216V489.776C174.72 489.104 173.76 488.768 172.776 488.768C171.576 488.768 170.592 489.392 170.592 490.52C170.592 491.6 171.576 492.224 172.776 492.224ZM192.407 494H189.359V486.992C189.359 485.384 188.519 484.832 187.223 484.832C186.023 484.832 185.087 485.504 184.583 486.2V494H181.535V482.408H184.583V483.92C185.327 483.032 186.743 482.12 188.639 482.12C191.183 482.12 192.407 483.56 192.407 485.816V494ZM199.562 494.288C197.426 494.288 196.274 493.184 196.274 491.12V485.072H194.354V482.408H196.274V479.24H199.346V482.408H201.698V485.072H199.346V490.304C199.346 491.024 199.73 491.576 200.402 491.576C200.858 491.576 201.29 491.408 201.458 491.24L202.106 493.544C201.65 493.952 200.834 494.288 199.562 494.288ZM209.471 494.288C205.943 494.288 203.279 491.912 203.279 488.192C203.279 484.832 205.751 482.12 209.279 482.12C212.735 482.12 215.087 484.712 215.087 488.504V489.176H206.471C206.663 490.64 207.839 491.864 209.807 491.864C210.791 491.864 212.159 491.432 212.903 490.712L214.247 492.68C213.095 493.736 211.271 494.288 209.471 494.288ZM212.135 487.112C212.063 486.008 211.295 484.544 209.279 484.544C207.383 484.544 206.567 485.96 206.423 487.112H212.135ZM222.977 494.288C219.449 494.288 216.785 491.912 216.785 488.192C216.785 484.832 219.257 482.12 222.785 482.12C226.241 482.12 228.593 484.712 228.593 488.504V489.176H219.977C220.169 490.64 221.345 491.864 223.313 491.864C224.297 491.864 225.665 491.432 226.409 490.712L227.753 492.68C226.601 493.736 224.777 494.288 222.977 494.288ZM225.641 487.112C225.569 486.008 224.801 484.544 222.785 484.544C220.889 484.544 220.073 485.96 219.929 487.112H225.641ZM242.075 494H239.003V492.512C238.091 493.664 236.819 494.288 235.427 494.288C232.499 494.288 230.291 492.08 230.291 488.216C230.291 484.424 232.475 482.12 235.427 482.12C236.795 482.12 238.091 482.72 239.003 483.896V477.992H242.075V494ZM236.363 491.576C237.395 491.576 238.499 491.024 239.003 490.256V486.152C238.499 485.384 237.395 484.832 236.363 484.832C234.635 484.832 233.435 486.2 233.435 488.216C233.435 490.208 234.635 491.576 236.363 491.576Z" fill="#F0F5FC"/>
<path d="M164.281 506.124C171.312 506.214 178.343 506.303 185.375 506.359C187.941 506.359 190.49 506.29 193.056 506.324L220.179 506.662C224.187 506.731 228.229 506.745 232.22 506.759C237.446 506.661 242.684 506.818 247.811 507.228C248.198 507.265 248.551 507.344 248.831 507.455C249.008 507.521 249.051 507.626 248.936 507.71C248.507 507.916 247.997 508.093 247.425 508.234C245.465 508.796 243.171 509.152 240.763 509.269C235.665 509.448 230.497 509.669 225.312 509.814L221.392 509.917H217.489C214.87 509.917 212.216 509.848 209.632 509.779C203.357 509.621 196.853 509.897 190.437 509.959C183.406 510.021 176.375 510.048 169.238 510.083L156.195 510.145C149.604 510.186 142.977 510.145 136.455 510.283C133.906 510.338 131.393 510.455 128.897 510.579L125.135 510.779C123.869 510.834 122.621 510.869 121.356 510.903C120.09 510.938 119.176 510.993 118.051 511C113.885 511 112.549 510.717 111.653 509.738C111.415 509.513 111.215 509.283 111.055 509.048C110.668 508.303 112.338 507.669 115.327 507.366C119.788 506.873 124.353 506.538 128.967 506.366C133.608 506.207 138.336 506.131 143.029 506.069C146.545 506.028 150.061 506.014 153.576 506H164.123L164.281 506.124Z" fill="white"/>
<path d="M100.308 275.716C104.122 283.483 108.007 296.382 109.938 307.723C110.516 310.956 111.016 313.573 111.113 313.503C111.186 313.45 111.659 311.911 112.178 310.078L113.103 306.718L114.14 306.967C114.721 307.102 115.389 307.509 115.674 307.898C117.112 309.868 115.868 318.234 112.542 328.53C111.093 333.056 110.897 333.348 109.347 333.361C108.164 333.367 105.427 332.01 104.77 331.11C104.415 330.623 99.3496 320.228 97.5594 316.352C97.0493 315.196 96.4763 313.75 96.3214 313.08C96.0438 312.089 96.1246 311.844 96.7107 311.528C97.0918 311.287 97.5633 311.017 97.7507 310.918C97.896 310.811 98.1834 310.9 98.3254 311.095C98.4675 311.289 98.6887 311.389 98.834 311.282C98.9551 311.194 99.488 311.364 100.043 311.667C100.82 312.07 101.443 312.77 102.667 314.599C104.003 316.531 104.354 316.909 104.549 316.618C104.696 316.361 104.816 316.423 104.932 316.786C105.054 317.106 105.098 316.962 105.116 316.427C105.084 314.959 104.848 312.857 104.727 312.945C104.655 312.998 104.671 313.732 104.751 314.606C105.085 317.606 104.603 316.131 104.201 312.733C102.852 301.935 99.4926 288.281 96.0448 279.388C95.3379 277.555 94.6616 275.663 94.6067 275.181C94.5099 274.692 94.334 274.299 94.1903 274.254C94.0401 274.252 94.0595 274.126 94.2048 274.02C94.3744 273.896 94.1936 273.394 93.7319 272.762C93.3235 272.203 92.526 270.958 91.9481 269.963C90.986 268.391 90.9521 268.192 91.4607 267.821C92.2601 267.237 94.2638 267.489 95.3003 268.298C96.6403 269.371 98.6566 272.336 100.308 275.716ZM115.271 310.094C115.223 310.129 115.171 310.465 115.161 310.808C115.131 311.427 115.173 311.434 115.329 310.834C115.486 310.235 115.465 309.952 115.271 310.094ZM115.279 311.579C115.231 311.615 115.166 312.035 115.113 312.521L115.061 313.417L115.281 312.548C115.47 311.739 115.473 311.438 115.279 311.579ZM108.679 309.762C108.577 310.284 109.511 317.767 109.655 317.812C109.906 317.851 109.769 316.087 109.289 312.784C108.84 309.83 108.75 309.3 108.679 309.762Z" fill="white"/>
</g>
<rect x="0.5" y="1.20557" width="357" height="605" stroke="white" stroke-opacity="0.1"/>
<defs>
<linearGradient id="paint0_linear_13653_105519" x1="-7" y1="438.206" x2="599" y2="438.206" gradientUnits="userSpaceOnUse">
<stop offset="0.015" stop-color="white" stop-opacity="0"/>
<stop offset="0.5" stop-color="white"/>
<stop offset="1" stop-color="white" stop-opacity="0"/>
</linearGradient>
<linearGradient id="paint1_linear_13653_105519" x1="-7" y1="186.206" x2="599" y2="186.206" gradientUnits="userSpaceOnUse">
<stop offset="0.015" stop-color="white" stop-opacity="0"/>
<stop offset="0.5" stop-color="white"/>
<stop offset="1" stop-color="white" stop-opacity="0"/>
</linearGradient>
<linearGradient id="paint2_linear_13653_105519" x1="0" y1="354.206" x2="606" y2="354.206" gradientUnits="userSpaceOnUse">
<stop offset="0.015" stop-color="white" stop-opacity="0"/>
<stop offset="0.5" stop-color="white"/>
<stop offset="1" stop-color="white" stop-opacity="0"/>
</linearGradient>
<linearGradient id="paint3_linear_13653_105519" x1="0" y1="270.206" x2="606" y2="270.206" gradientUnits="userSpaceOnUse">
<stop offset="0.015" stop-color="white" stop-opacity="0"/>
<stop offset="0.5" stop-color="white"/>
<stop offset="1" stop-color="white" stop-opacity="0"/>
</linearGradient>
<linearGradient id="paint4_linear_13653_105519" x1="-7" y1="523.206" x2="599" y2="523.206" gradientUnits="userSpaceOnUse">
<stop offset="0.015" stop-color="white" stop-opacity="0"/>
<stop offset="0.5" stop-color="white"/>
<stop offset="1" stop-color="white" stop-opacity="0"/>
</linearGradient>
<clipPath id="clip0_13653_105519">
<rect y="0.705566" width="358" height="606" fill="white"/>
</clipPath>
</defs>
</svg>
