<svg width="606" height="606" viewBox="0 0 606 606" fill="none" xmlns="http://www.w3.org/2000/svg">
<rect width="606" height="606" fill="#FDB300"/>
<rect x="0.5" y="0.5" width="605" height="605" stroke="white" stroke-opacity="0.1"/>
<path d="M43.744 60.384C37.248 60.384 34.112 56.736 34.112 51.488V38.656H38.72V51.328C38.72 54.304 40.448 56.352 43.744 56.352C47.04 56.352 48.736 54.304 48.736 51.328V38.656H53.376V51.456C53.376 56.768 50.24 60.384 43.744 60.384ZM71.4808 60H67.4168V50.656C67.4168 48.512 66.2968 47.776 64.5688 47.776C62.9688 47.776 61.7208 48.672 61.0488 49.6V60H56.9848V44.544H61.0488V46.56C62.0408 45.376 63.9288 44.16 66.4568 44.16C69.8488 44.16 71.4808 46.08 71.4808 49.088V60ZM79.08 60H75.016V38.656H79.08V60ZM84.6258 42.88C83.3138 42.88 82.1938 41.792 82.1938 40.448C82.1938 39.104 83.3138 38.048 84.6258 38.048C85.9698 38.048 87.0578 39.104 87.0578 40.448C87.0578 41.792 85.9698 42.88 84.6258 42.88ZM86.6738 60H82.6098V44.544H86.6738V60ZM113.468 60H109.372V50.24C109.372 48.8 108.732 47.776 107.068 47.776C105.628 47.776 104.444 48.736 103.868 49.568V60H99.7715V50.24C99.7715 48.8 99.1315 47.776 97.4675 47.776C96.0595 47.776 94.8755 48.736 94.2675 49.6V60H90.2035V44.544H94.2675V46.56C94.9075 45.632 96.9555 44.16 99.3235 44.16C101.596 44.16 103.036 45.216 103.612 46.976C104.508 45.568 106.556 44.16 108.924 44.16C111.772 44.16 113.468 45.664 113.468 48.832V60ZM118.97 42.88C117.658 42.88 116.538 41.792 116.538 40.448C116.538 39.104 117.658 38.048 118.97 38.048C120.314 38.048 121.402 39.104 121.402 40.448C121.402 41.792 120.314 42.88 118.97 42.88ZM121.018 60H116.954V44.544H121.018V60ZM129.731 60.384C126.883 60.384 125.347 58.912 125.347 56.16V48.096H122.787V44.544H125.347V40.32H129.443V44.544H132.579V48.096H129.443V55.072C129.443 56.032 129.955 56.768 130.851 56.768C131.459 56.768 132.035 56.544 132.259 56.32L133.123 59.392C132.515 59.936 131.427 60.384 129.731 60.384ZM142.124 60.384C137.42 60.384 133.868 57.216 133.868 52.256C133.868 47.776 137.164 44.16 141.868 44.16C146.476 44.16 149.612 47.616 149.612 52.672V53.568H138.124C138.38 55.52 139.948 57.152 142.572 57.152C143.884 57.152 145.708 56.576 146.7 55.616L148.492 58.24C146.956 59.648 144.524 60.384 142.124 60.384ZM145.676 50.816C145.58 49.344 144.556 47.392 141.868 47.392C139.34 47.392 138.252 49.28 138.06 50.816H145.676ZM166.767 60H162.671V58.016C161.455 59.552 159.759 60.384 157.903 60.384C153.999 60.384 151.055 57.44 151.055 52.288C151.055 47.232 153.967 44.16 157.903 44.16C159.727 44.16 161.455 44.96 162.671 46.528V38.656H166.767V60ZM159.151 56.768C160.527 56.768 161.999 56.032 162.671 55.008V49.536C161.999 48.512 160.527 47.776 159.151 47.776C156.847 47.776 155.247 49.6 155.247 52.288C155.247 54.944 156.847 56.768 159.151 56.768ZM197.985 60H192.801L191.489 56.384H182.337L180.993 60H175.809L184.065 38.656H189.761L197.985 60ZM190.241 52.384L186.913 43.2L183.585 52.384H190.241ZM204 60H199.456V38.656H204V60ZM220.513 60.384C217.665 60.384 216.129 58.912 216.129 56.16V48.096H213.569V44.544H216.129V40.32H220.225V44.544H223.361V48.096H220.225V55.072C220.225 56.032 220.737 56.768 221.633 56.768C222.241 56.768 222.817 56.544 223.041 56.32L223.905 59.392C223.297 59.936 222.209 60.384 220.513 60.384ZM240.137 60H236.073V58.048C235.017 59.232 233.161 60.384 230.633 60.384C227.241 60.384 225.641 58.528 225.641 55.52V44.544H229.705V53.92C229.705 56.064 230.825 56.768 232.553 56.768C234.121 56.768 235.369 55.904 236.073 55.008V44.544H240.137V60ZM248.856 60.384C246.008 60.384 244.472 58.912 244.472 56.16V48.096H241.912V44.544H244.472V40.32H248.568V44.544H251.704V48.096H248.568V55.072C248.568 56.032 249.08 56.768 249.976 56.768C250.584 56.768 251.16 56.544 251.384 56.32L252.248 59.392C251.64 59.936 250.552 60.384 248.856 60.384ZM261.153 60.384C256.065 60.384 252.993 56.672 252.993 52.256C252.993 47.872 256.065 44.16 261.153 44.16C266.273 44.16 269.345 47.872 269.345 52.256C269.345 56.672 266.273 60.384 261.153 60.384ZM261.153 56.768C263.681 56.768 265.121 54.688 265.121 52.256C265.121 49.856 263.681 47.776 261.153 47.776C258.625 47.776 257.217 49.856 257.217 52.256C257.217 54.688 258.625 56.768 261.153 56.768ZM275.924 60H271.86V44.544H275.924V46.656C277.012 45.28 278.932 44.16 280.852 44.16V48.128C280.564 48.064 280.18 48.032 279.732 48.032C278.388 48.032 276.596 48.8 275.924 49.792V60ZM284.907 42.88C283.595 42.88 282.475 41.792 282.475 40.448C282.475 39.104 283.595 38.048 284.907 38.048C286.251 38.048 287.339 39.104 287.339 40.448C287.339 41.792 286.251 42.88 284.907 42.88ZM286.955 60H282.891V44.544H286.955V60ZM304.981 60H300.917V50.656C300.917 48.512 299.797 47.776 298.069 47.776C296.469 47.776 295.221 48.672 294.549 49.6V60H290.485V44.544H294.549V46.56C295.541 45.376 297.429 44.16 299.957 44.16C303.349 44.16 304.981 46.08 304.981 49.088V60ZM314.852 66.272C312.196 66.272 310.148 65.664 308.196 63.968L310.02 61.024C311.268 62.4 312.9 62.944 314.852 62.944C316.804 62.944 319.108 62.08 319.108 59.04V57.472C317.892 59.008 316.228 59.904 314.34 59.904C310.468 59.904 307.524 57.184 307.524 52.032C307.524 46.976 310.436 44.16 314.34 44.16C316.196 44.16 317.86 44.96 319.108 46.528V44.544H323.204V58.944C323.204 64.832 318.66 66.272 314.852 66.272ZM315.62 56.288C316.964 56.288 318.436 55.52 319.108 54.528V49.536C318.436 48.512 316.964 47.776 315.62 47.776C313.316 47.776 311.716 49.376 311.716 52.032C311.716 54.688 313.316 56.288 315.62 56.288ZM342.806 60H338.422L332.214 44.544H336.566L340.598 55.296L344.63 44.544H349.014L342.806 60ZM355.897 60.384C353.209 60.384 350.617 59.488 348.985 57.984L350.745 55.136C351.865 56.192 354.169 57.248 356.089 57.248C357.849 57.248 358.681 56.544 358.681 55.584C358.681 53.024 349.497 55.104 349.497 49.024C349.497 46.432 351.769 44.16 355.833 44.16C358.457 44.16 360.537 45.056 362.073 46.272L360.441 49.056C359.513 48.064 357.753 47.264 355.865 47.264C354.393 47.264 353.433 47.936 353.433 48.8C353.433 51.104 362.585 49.184 362.585 55.424C362.585 58.24 360.185 60.384 355.897 60.384ZM367.159 60.352C365.751 60.352 364.567 59.168 364.567 57.76C364.567 56.352 365.751 55.168 367.159 55.168C368.567 55.168 369.751 56.352 369.751 57.76C369.751 59.168 368.567 60.352 367.159 60.352ZM43.616 97H39.04V79.656H32.8V75.656H49.824V79.656H43.616V97ZM54.0175 97H49.9535V81.544H54.0175V83.656C55.1055 82.28 57.0255 81.16 58.9455 81.16V85.128C58.6575 85.064 58.2735 85.032 57.8255 85.032C56.4815 85.032 54.6895 85.8 54.0175 86.792V97ZM74.3288 97H70.2648V95.4C69.2088 96.648 67.3848 97.384 65.3688 97.384C62.9048 97.384 59.9928 95.72 59.9928 92.264C59.9928 88.648 62.9048 87.272 65.3688 87.272C67.4167 87.272 69.2408 87.944 70.2648 89.16V87.08C70.2648 85.512 68.9208 84.488 66.8728 84.488C65.2088 84.488 63.6727 85.096 62.3608 86.312L60.8248 83.592C62.7128 81.928 65.1448 81.16 67.5768 81.16C71.0968 81.16 74.3288 82.568 74.3288 87.016V97ZM67.0008 94.632C68.3128 94.632 69.5928 94.184 70.2648 93.288V91.368C69.5928 90.472 68.3128 90.024 67.0008 90.024C65.4008 90.024 64.0888 90.856 64.0888 92.36C64.0888 93.8 65.4008 94.632 67.0008 94.632ZM92.5798 97H88.4838V95.016C87.2678 96.552 85.5718 97.384 83.7158 97.384C79.8118 97.384 76.8678 94.44 76.8678 89.288C76.8678 84.232 79.7798 81.16 83.7158 81.16C85.5398 81.16 87.2678 81.96 88.4838 83.528V75.656H92.5798V97ZM84.9638 93.768C86.3398 93.768 87.8118 93.032 88.4838 92.008V86.536C87.8118 85.512 86.3398 84.776 84.9638 84.776C82.6598 84.776 81.0598 86.6 81.0598 89.288C81.0598 91.944 82.6598 93.768 84.9638 93.768ZM98.1258 79.88C96.8138 79.88 95.6938 78.792 95.6938 77.448C95.6938 76.104 96.8138 75.048 98.1258 75.048C99.4698 75.048 100.558 76.104 100.558 77.448C100.558 78.792 99.4698 79.88 98.1258 79.88ZM100.174 97H96.1098V81.544H100.174V97ZM108.888 97.384C106.04 97.384 104.504 95.912 104.504 93.16V85.096H101.944V81.544H104.504V77.32H108.6V81.544H111.736V85.096H108.6V92.072C108.6 93.032 109.112 93.768 110.008 93.768C110.616 93.768 111.192 93.544 111.416 93.32L112.28 96.392C111.672 96.936 110.584 97.384 108.888 97.384ZM116.032 79.88C114.72 79.88 113.6 78.792 113.6 77.448C113.6 76.104 114.72 75.048 116.032 75.048C117.376 75.048 118.464 76.104 118.464 77.448C118.464 78.792 117.376 79.88 116.032 79.88ZM118.08 97H114.016V81.544H118.08V97ZM128.778 97.384C123.69 97.384 120.618 93.672 120.618 89.256C120.618 84.872 123.69 81.16 128.778 81.16C133.898 81.16 136.97 84.872 136.97 89.256C136.97 93.672 133.898 97.384 128.778 97.384ZM128.778 93.768C131.306 93.768 132.746 91.688 132.746 89.256C132.746 86.856 131.306 84.776 128.778 84.776C126.25 84.776 124.842 86.856 124.842 89.256C124.842 91.688 126.25 93.768 128.778 93.768ZM153.981 97H149.917V87.656C149.917 85.512 148.797 84.776 147.069 84.776C145.469 84.776 144.221 85.672 143.549 86.6V97H139.485V81.544H143.549V83.56C144.541 82.376 146.429 81.16 148.957 81.16C152.349 81.16 153.981 83.08 153.981 86.088V97ZM170.86 97H166.796V95.4C165.74 96.648 163.916 97.384 161.9 97.384C159.436 97.384 156.524 95.72 156.524 92.264C156.524 88.648 159.436 87.272 161.9 87.272C163.948 87.272 165.772 87.944 166.796 89.16V87.08C166.796 85.512 165.452 84.488 163.404 84.488C161.74 84.488 160.204 85.096 158.892 86.312L157.356 83.592C159.244 81.928 161.676 81.16 164.108 81.16C167.628 81.16 170.86 82.568 170.86 87.016V97ZM163.532 94.632C164.844 94.632 166.124 94.184 166.796 93.288V91.368C166.124 90.472 164.844 90.024 163.532 90.024C161.932 90.024 160.62 90.856 160.62 92.36C160.62 93.8 161.932 94.632 163.532 94.632ZM178.455 97H174.391V75.656H178.455V97ZM199.272 97H194.696V79.656H188.456V75.656H205.48V79.656H199.272V97ZM220.106 97H216.042V95.048C214.986 96.232 213.13 97.384 210.602 97.384C207.21 97.384 205.61 95.528 205.61 92.52V81.544H209.674V90.92C209.674 93.064 210.794 93.768 212.522 93.768C214.09 93.768 215.338 92.904 216.042 92.008V81.544H220.106V97ZM228.825 97.384C225.977 97.384 224.441 95.912 224.441 93.16V85.096H221.881V81.544H224.441V77.32H228.537V81.544H231.673V85.096H228.537V92.072C228.537 93.032 229.049 93.768 229.945 93.768C230.553 93.768 231.129 93.544 231.353 93.32L232.217 96.392C231.609 96.936 230.521 97.384 228.825 97.384ZM241.122 97.384C236.034 97.384 232.962 93.672 232.962 89.256C232.962 84.872 236.034 81.16 241.122 81.16C246.242 81.16 249.314 84.872 249.314 89.256C249.314 93.672 246.242 97.384 241.122 97.384ZM241.122 93.768C243.65 93.768 245.09 91.688 245.09 89.256C245.09 86.856 243.65 84.776 241.122 84.776C238.594 84.776 237.186 86.856 237.186 89.256C237.186 91.688 238.594 93.768 241.122 93.768ZM255.893 97H251.829V81.544H255.893V83.656C256.981 82.28 258.901 81.16 260.821 81.16V85.128C260.533 85.064 260.149 85.032 259.701 85.032C258.357 85.032 256.565 85.8 255.893 86.792V97ZM264.876 79.88C263.564 79.88 262.444 78.792 262.444 77.448C262.444 76.104 263.564 75.048 264.876 75.048C266.22 75.048 267.308 76.104 267.308 77.448C267.308 78.792 266.22 79.88 264.876 79.88ZM266.924 97H262.86V81.544H266.924V97ZM284.95 97H280.886V87.656C280.886 85.512 279.766 84.776 278.038 84.776C276.438 84.776 275.19 85.672 274.518 86.6V97H270.454V81.544H274.518V83.56C275.51 82.376 277.398 81.16 279.926 81.16C283.318 81.16 284.95 83.08 284.95 86.088V97ZM294.821 103.272C292.165 103.272 290.117 102.664 288.165 100.968L289.989 98.024C291.237 99.4 292.869 99.944 294.821 99.944C296.773 99.944 299.077 99.08 299.077 96.04V94.472C297.861 96.008 296.197 96.904 294.309 96.904C290.437 96.904 287.493 94.184 287.493 89.032C287.493 83.976 290.405 81.16 294.309 81.16C296.165 81.16 297.829 81.96 299.077 83.528V81.544H303.173V95.944C303.173 101.832 298.629 103.272 294.821 103.272ZM295.589 93.288C296.933 93.288 298.405 92.52 299.077 91.528V86.536C298.405 85.512 296.933 84.776 295.589 84.776C293.285 84.776 291.685 86.376 291.685 89.032C291.685 91.688 293.285 93.288 295.589 93.288Z" fill="#15385B"/>
<mask id="path-4-inside-1_13273_101385" fill="white">
<path d="M145 149H293V606H145V149Z"/>
</mask>
<path d="M145 149H293V606H145V149Z" fill="#3C50E0"/>
<path d="M145 149V148H144V149H145ZM293 149H294V148H293V149ZM145 150H293V148H145V150ZM292 149V606H294V149H292ZM146 606V149H144V606H146Z" fill="white" fill-opacity="0.05" mask="url(#path-4-inside-1_13273_101385)"/>
<path d="M185.641 184H183.353V175.328H180.233V173.328H188.745V175.328H185.641V184ZM191.252 184H189.22V176.272H191.252V177.328C191.796 176.64 192.756 176.08 193.716 176.08V178.064C193.572 178.032 193.38 178.016 193.156 178.016C192.484 178.016 191.588 178.4 191.252 178.896V184ZM201.817 184H199.785V183.2C199.257 183.824 198.345 184.192 197.337 184.192C196.105 184.192 194.649 183.36 194.649 181.632C194.649 179.824 196.105 179.136 197.337 179.136C198.361 179.136 199.273 179.472 199.785 180.08V179.04C199.785 178.256 199.113 177.744 198.089 177.744C197.257 177.744 196.489 178.048 195.833 178.656L195.065 177.296C196.009 176.464 197.225 176.08 198.441 176.08C200.201 176.08 201.817 176.784 201.817 179.008V184ZM198.153 182.816C198.809 182.816 199.449 182.592 199.785 182.144V181.184C199.449 180.736 198.809 180.512 198.153 180.512C197.353 180.512 196.697 180.928 196.697 181.68C196.697 182.4 197.353 182.816 198.153 182.816ZM211.353 184H209.305V183.008C208.697 183.776 207.849 184.192 206.921 184.192C204.969 184.192 203.497 182.72 203.497 180.144C203.497 177.616 204.953 176.08 206.921 176.08C207.833 176.08 208.697 176.48 209.305 177.264V173.328H211.353V184ZM207.545 182.384C208.233 182.384 208.969 182.016 209.305 181.504V178.768C208.969 178.256 208.233 177.888 207.545 177.888C206.393 177.888 205.593 178.8 205.593 180.144C205.593 181.472 206.393 182.384 207.545 182.384ZM214.536 175.44C213.88 175.44 213.32 174.896 213.32 174.224C213.32 173.552 213.88 173.024 214.536 173.024C215.208 173.024 215.752 173.552 215.752 174.224C215.752 174.896 215.208 175.44 214.536 175.44ZM215.56 184H213.528V176.272H215.56V184ZM220.327 184.192C218.903 184.192 218.135 183.456 218.135 182.08V178.048H216.855V176.272H218.135V174.16H220.183V176.272H221.751V178.048H220.183V181.536C220.183 182.016 220.439 182.384 220.887 182.384C221.191 182.384 221.479 182.272 221.591 182.16L222.023 183.696C221.719 183.968 221.175 184.192 220.327 184.192ZM224.309 175.44C223.653 175.44 223.093 174.896 223.093 174.224C223.093 173.552 223.653 173.024 224.309 173.024C224.981 173.024 225.525 173.552 225.525 174.224C225.525 174.896 224.981 175.44 224.309 175.44ZM225.333 184H223.301V176.272H225.333V184ZM231.092 184.192C228.548 184.192 227.012 182.336 227.012 180.128C227.012 177.936 228.548 176.08 231.092 176.08C233.652 176.08 235.188 177.936 235.188 180.128C235.188 182.336 233.652 184.192 231.092 184.192ZM231.092 182.384C232.356 182.384 233.076 181.344 233.076 180.128C233.076 178.928 232.356 177.888 231.092 177.888C229.828 177.888 229.124 178.928 229.124 180.128C229.124 181.344 229.828 182.384 231.092 182.384ZM244.103 184H242.071V179.328C242.071 178.256 241.511 177.888 240.647 177.888C239.847 177.888 239.223 178.336 238.887 178.8V184H236.855V176.272H238.887V177.28C239.383 176.688 240.327 176.08 241.591 176.08C243.287 176.08 244.103 177.04 244.103 178.544V184ZM252.953 184H250.921V183.2C250.393 183.824 249.481 184.192 248.473 184.192C247.241 184.192 245.785 183.36 245.785 181.632C245.785 179.824 247.241 179.136 248.473 179.136C249.497 179.136 250.409 179.472 250.921 180.08V179.04C250.921 178.256 250.249 177.744 249.225 177.744C248.393 177.744 247.625 178.048 246.969 178.656L246.201 177.296C247.145 176.464 248.361 176.08 249.577 176.08C251.337 176.08 252.953 176.784 252.953 179.008V184ZM249.289 182.816C249.945 182.816 250.585 182.592 250.921 182.144V181.184C250.585 180.736 249.945 180.512 249.289 180.512C248.489 180.512 247.833 180.928 247.833 181.68C247.833 182.4 248.489 182.816 249.289 182.816ZM257.16 184H255.128V173.328H257.16V184ZM171.049 202H168.761V193.328H165.641V191.328H174.153V193.328H171.049V202ZM181.876 202H179.844V201.024C179.316 201.616 178.388 202.192 177.124 202.192C175.428 202.192 174.628 201.264 174.628 199.76V194.272H176.66V198.96C176.66 200.032 177.22 200.384 178.084 200.384C178.868 200.384 179.492 199.952 179.844 199.504V194.272H181.876V202ZM186.646 202.192C185.222 202.192 184.454 201.456 184.454 200.08V196.048H183.174V194.272H184.454V192.16H186.502V194.272H188.07V196.048H186.502V199.536C186.502 200.016 186.758 200.384 187.206 200.384C187.51 200.384 187.798 200.272 187.91 200.16L188.342 201.696C188.038 201.968 187.494 202.192 186.646 202.192ZM193.204 202.192C190.66 202.192 189.124 200.336 189.124 198.128C189.124 195.936 190.66 194.08 193.204 194.08C195.764 194.08 197.3 195.936 197.3 198.128C197.3 200.336 195.764 202.192 193.204 202.192ZM193.204 200.384C194.468 200.384 195.188 199.344 195.188 198.128C195.188 196.928 194.468 195.888 193.204 195.888C191.94 195.888 191.236 196.928 191.236 198.128C191.236 199.344 191.94 200.384 193.204 200.384ZM200.999 202H198.967V194.272H200.999V195.328C201.543 194.64 202.503 194.08 203.463 194.08V196.064C203.319 196.032 203.127 196.016 202.903 196.016C202.231 196.016 201.335 196.4 200.999 196.896V202ZM205.901 193.44C205.245 193.44 204.685 192.896 204.685 192.224C204.685 191.552 205.245 191.024 205.901 191.024C206.573 191.024 207.117 191.552 207.117 192.224C207.117 192.896 206.573 193.44 205.901 193.44ZM206.925 202H204.893V194.272H206.925V202ZM216.348 202H214.316V197.328C214.316 196.256 213.756 195.888 212.892 195.888C212.092 195.888 211.468 196.336 211.132 196.8V202H209.1V194.272H211.132V195.28C211.628 194.688 212.572 194.08 213.836 194.08C215.532 194.08 216.348 195.04 216.348 196.544V202ZM221.693 205.136C220.365 205.136 219.341 204.832 218.365 203.984L219.277 202.512C219.901 203.2 220.717 203.472 221.693 203.472C222.669 203.472 223.821 203.04 223.821 201.52V200.736C223.213 201.504 222.381 201.952 221.437 201.952C219.501 201.952 218.029 200.592 218.029 198.016C218.029 195.488 219.485 194.08 221.437 194.08C222.365 194.08 223.197 194.48 223.821 195.264V194.272H225.869V201.472C225.869 204.416 223.597 205.136 221.693 205.136ZM222.077 200.144C222.749 200.144 223.485 199.76 223.821 199.264V196.768C223.485 196.256 222.749 195.888 222.077 195.888C220.925 195.888 220.125 196.688 220.125 198.016C220.125 199.344 220.925 200.144 222.077 200.144ZM237.515 202.192C234.315 202.192 231.835 199.952 231.835 196.672C231.835 193.392 234.315 191.152 237.515 191.152C239.867 191.152 241.227 192.432 241.979 193.76L240.027 194.72C239.579 193.856 238.619 193.168 237.515 193.168C235.579 193.168 234.171 194.656 234.171 196.672C234.171 198.688 235.579 200.176 237.515 200.176C238.619 200.176 239.579 199.504 240.027 198.624L241.979 199.568C241.211 200.896 239.867 202.192 237.515 202.192ZM247.027 202.192C244.483 202.192 242.947 200.336 242.947 198.128C242.947 195.936 244.483 194.08 247.027 194.08C249.587 194.08 251.123 195.936 251.123 198.128C251.123 200.336 249.587 202.192 247.027 202.192ZM247.027 200.384C248.291 200.384 249.011 199.344 249.011 198.128C249.011 196.928 248.291 195.888 247.027 195.888C245.763 195.888 245.059 196.928 245.059 198.128C245.059 199.344 245.763 200.384 247.027 200.384ZM255.575 202.192C254.231 202.192 252.935 201.744 252.119 200.992L252.999 199.568C253.559 200.096 254.711 200.624 255.671 200.624C256.551 200.624 256.967 200.272 256.967 199.792C256.967 198.512 252.375 199.552 252.375 196.512C252.375 195.216 253.511 194.08 255.543 194.08C256.855 194.08 257.895 194.528 258.663 195.136L257.847 196.528C257.383 196.032 256.503 195.632 255.559 195.632C254.823 195.632 254.343 195.968 254.343 196.4C254.343 197.552 258.919 196.592 258.919 199.712C258.919 201.12 257.719 202.192 255.575 202.192ZM263.167 202.192C261.743 202.192 260.975 201.456 260.975 200.08V196.048H259.695V194.272H260.975V192.16H263.023V194.272H264.591V196.048H263.023V199.536C263.023 200.016 263.279 200.384 263.727 200.384C264.031 200.384 264.319 200.272 264.431 200.16L264.863 201.696C264.559 201.968 264.015 202.192 263.167 202.192ZM268.926 202.192C267.582 202.192 266.286 201.744 265.47 200.992L266.35 199.568C266.91 200.096 268.062 200.624 269.022 200.624C269.902 200.624 270.318 200.272 270.318 199.792C270.318 198.512 265.726 199.552 265.726 196.512C265.726 195.216 266.862 194.08 268.894 194.08C270.206 194.08 271.246 194.528 272.014 195.136L271.198 196.528C270.734 196.032 269.854 195.632 268.91 195.632C268.174 195.632 267.694 195.968 267.694 196.4C267.694 197.552 272.27 196.592 272.27 199.712C272.27 201.12 271.07 202.192 268.926 202.192Z" fill="white"/>
<path d="M382.246 469.461C380.232 479.038 379.472 494.198 380.371 507.077C380.599 510.756 380.749 513.745 380.628 513.698C380.538 513.662 379.64 512.139 378.618 510.31L376.771 506.949L375.742 507.534C375.163 507.857 374.563 508.501 374.364 509.009C373.356 511.581 376.836 520.27 383.012 530.419C385.712 534.884 385.994 535.141 387.633 534.684C388.884 534.332 391.42 532.029 391.881 530.854C392.13 530.219 394.783 517.413 395.669 512.668C395.908 511.26 396.138 509.519 396.128 508.746C396.164 507.588 396.016 507.346 395.315 507.182C394.851 507.036 394.283 506.887 394.06 506.836C393.879 506.766 393.599 506.949 393.499 507.203C393.399 507.457 393.192 507.632 393.011 507.561C392.86 507.502 392.342 507.848 391.834 508.345C391.119 509.018 390.643 509.966 389.825 512.32C388.915 514.82 388.643 515.337 388.361 515.08C388.14 514.846 388.03 514.95 388.001 515.378C387.955 515.763 387.871 515.62 387.714 515.046C387.368 513.445 387.072 511.095 387.223 511.154C387.313 511.189 387.486 511.99 387.627 512.961C388.052 516.314 388.179 514.569 387.723 510.764C386.35 498.651 386.36 482.831 387.696 472.146C387.967 469.944 388.191 467.688 388.124 467.149C388.099 466.59 388.183 466.11 388.323 466.018C388.481 465.97 388.428 465.839 388.247 465.769C388.036 465.686 388.097 465.087 388.421 464.261C388.707 463.531 389.226 461.94 389.578 460.686C390.187 458.69 390.171 458.464 389.538 458.216C388.543 457.826 386.494 458.708 385.61 459.9C384.473 461.469 383.113 465.295 382.246 469.461ZM375.357 511.266C375.418 511.29 375.559 511.639 375.658 512.007C375.851 512.669 375.808 512.689 375.488 512.087C375.167 511.485 375.116 511.172 375.357 511.266ZM375.734 512.879C375.794 512.903 375.971 513.338 376.153 513.849L376.44 514.804L375.983 513.929C375.574 513.109 375.493 512.785 375.734 512.879ZM382.228 508.904C382.471 509.438 383.423 517.833 383.283 517.925C383.027 518.045 382.715 516.091 382.367 512.365C382.076 509.027 382.034 508.425 382.228 508.904Z" fill="#15385B"/>
<path d="M355.229 425.352C352.637 425.352 350.461 424.488 348.957 423.144L350.973 419.656C352.125 420.744 353.341 421.32 355.229 421.32C358.749 421.32 360.573 418.376 360.573 415.304C360.573 415.144 360.573 414.984 360.573 414.824C359.549 416.264 357.405 417.576 355.069 417.576C351.229 417.576 347.773 415.176 347.773 410.632C347.773 406.472 351.101 403.304 355.965 403.304C362.429 403.304 365.149 408.296 365.149 414.344C365.149 420.776 361.533 425.352 355.229 425.352ZM356.349 413.672C357.949 413.672 359.517 412.936 360.541 411.688C360.349 409.64 359.197 407.336 356.189 407.336C353.757 407.336 352.413 409 352.413 410.472C352.413 412.712 354.365 413.672 356.349 413.672ZM375.477 425.384C370.997 425.384 366.901 423.464 366.901 419.464C366.901 416.872 368.917 414.888 371.477 413.992C369.109 413.16 367.253 411.624 367.253 408.968C367.253 404.968 371.509 403.336 375.477 403.336C379.413 403.336 383.701 404.968 383.701 408.968C383.701 411.624 381.813 413.16 379.445 413.992C382.005 414.888 384.053 416.872 384.053 419.464C384.053 423.432 379.957 425.384 375.477 425.384ZM375.477 412.2C376.789 412.008 379.061 411.272 379.061 409.672C379.061 408.136 377.557 407.24 375.477 407.24C373.365 407.24 371.861 408.136 371.861 409.672C371.861 411.272 374.165 412.008 375.477 412.2ZM375.477 421.48C377.653 421.48 379.445 420.456 379.445 418.888C379.445 417.096 376.789 416.232 375.477 416.04C374.133 416.232 371.509 417.096 371.509 418.888C371.509 420.456 373.237 421.48 375.477 421.48ZM391.568 423.432C391.568 425.832 390.224 427.976 388.272 429.384L386.512 427.944C387.536 427.4 388.72 426.056 388.976 424.936C388.88 424.968 388.592 425.032 388.368 425.032C387.152 425.032 386.192 424.104 386.192 422.728C386.192 421.32 387.344 420.168 388.688 420.168C390.192 420.168 391.568 421.352 391.568 423.432ZM398.895 425H393.903L401.551 407.656H390.799V403.656H406.831V406.824L398.895 425ZM413.209 413.96C409.945 413.96 407.801 411.688 407.801 408.712C407.801 405.704 409.945 403.336 413.209 403.336C416.505 403.336 418.649 405.704 418.649 408.712C418.649 411.688 416.505 413.96 413.209 413.96ZM413.529 425H411.129L424.761 403.656H427.193L413.529 425ZM424.953 425.384C421.689 425.384 419.545 423.08 419.545 420.104C419.545 417.096 421.689 414.728 424.953 414.728C428.217 414.728 430.393 417.096 430.393 420.104C430.393 423.08 428.217 425.384 424.953 425.384ZM413.209 411.464C414.681 411.464 415.737 410.376 415.737 408.712C415.737 406.92 414.681 405.864 413.209 405.864C411.769 405.864 410.681 406.92 410.681 408.712C410.681 410.376 411.769 411.464 413.209 411.464ZM424.953 422.888C426.425 422.888 427.513 421.832 427.513 420.104C427.513 418.344 426.425 417.256 424.953 417.256C423.481 417.256 422.425 418.344 422.425 420.104C422.425 421.832 423.481 422.888 424.953 422.888ZM365.741 442.192C363.357 442.192 361.645 440.512 361.645 438.128C361.645 435.76 363.357 434.08 365.741 434.08C367.325 434.08 368.285 434.768 368.797 435.472L367.469 436.72C367.101 436.176 366.541 435.888 365.837 435.888C364.605 435.888 363.741 436.784 363.741 438.128C363.741 439.472 364.605 440.384 365.837 440.384C366.541 440.384 367.101 440.064 367.469 439.552L368.797 440.784C368.285 441.504 367.325 442.192 365.741 442.192ZM376.889 442H374.857V437.296C374.857 436.224 374.297 435.888 373.417 435.888C372.633 435.888 372.009 436.336 371.657 436.8V442H369.625V431.328H371.657V435.28C372.153 434.688 373.113 434.08 374.377 434.08C376.073 434.08 376.889 435.008 376.889 436.512V442ZM382.038 442.192C379.686 442.192 377.91 440.608 377.91 438.128C377.91 435.888 379.558 434.08 381.91 434.08C384.214 434.08 385.782 435.808 385.782 438.336V438.784H380.038C380.166 439.76 380.95 440.576 382.262 440.576C382.918 440.576 383.83 440.288 384.326 439.808L385.222 441.12C384.454 441.824 383.238 442.192 382.038 442.192ZM383.814 437.408C383.766 436.672 383.254 435.696 381.91 435.696C380.646 435.696 380.102 436.64 380.006 437.408H383.814ZM393.422 442H391.39V441.2C390.862 441.824 389.95 442.192 388.942 442.192C387.71 442.192 386.254 441.36 386.254 439.632C386.254 437.824 387.71 437.136 388.942 437.136C389.966 437.136 390.878 437.472 391.39 438.08V437.04C391.39 436.256 390.718 435.744 389.694 435.744C388.862 435.744 388.094 436.048 387.438 436.656L386.67 435.296C387.614 434.464 388.83 434.08 390.046 434.08C391.806 434.08 393.422 434.784 393.422 437.008V442ZM389.758 440.816C390.414 440.816 391.054 440.592 391.39 440.144V439.184C391.054 438.736 390.414 438.512 389.758 438.512C388.958 438.512 388.302 438.928 388.302 439.68C388.302 440.4 388.958 440.816 389.758 440.816ZM399.354 442.192C398.442 442.192 397.594 441.808 396.97 441.008V444.944H394.938V434.272H396.97V435.248C397.562 434.496 398.41 434.08 399.354 434.08C401.338 434.08 402.778 435.552 402.778 438.128C402.778 440.704 401.338 442.192 399.354 442.192ZM398.714 440.384C399.882 440.384 400.666 439.472 400.666 438.128C400.666 436.8 399.882 435.888 398.714 435.888C398.058 435.888 397.306 436.272 396.97 436.768V439.504C397.306 439.984 398.058 440.384 398.714 440.384ZM407.398 442.192C405.046 442.192 403.27 440.608 403.27 438.128C403.27 435.888 404.918 434.08 407.27 434.08C409.574 434.08 411.142 435.808 411.142 438.336V438.784H405.398C405.526 439.76 406.31 440.576 407.622 440.576C408.278 440.576 409.19 440.288 409.686 439.808L410.582 441.12C409.814 441.824 408.598 442.192 407.398 442.192ZM409.174 437.408C409.126 436.672 408.614 435.696 407.27 435.696C406.006 435.696 405.462 436.64 405.366 437.408H409.174ZM414.142 442H412.11V434.272H414.142V435.328C414.686 434.64 415.646 434.08 416.606 434.08V436.064C416.462 436.032 416.27 436.016 416.046 436.016C415.374 436.016 414.478 436.4 414.142 436.896V442Z" fill="#15385B"/>
<mask id="path-9-inside-2_13273_101385" fill="white">
<path d="M313 550H461V606H313V550Z"/>
</mask>
<path d="M313 550H461V606H313V550Z" fill="white"/>
<path d="M313 550V549H312V550H313ZM461 550H462V549H461V550ZM313 551H461V549H313V551ZM460 550V606H462V550H460ZM314 606V550H312V606H314Z" fill="black" fill-opacity="0.05" mask="url(#path-9-inside-2_13273_101385)"/>
<path d="M385.322 581.799C384.647 580.532 383.732 579.322 382.621 578.211C382.48 578.07 382.325 577.93 382.171 577.789C382.1 578.732 381.96 579.646 381.777 580.561C381.636 581.25 381.467 581.897 381.256 582.544C381.509 582.896 381.734 583.248 381.917 583.6C382.41 584.528 383.113 586.301 382.311 587.694C381.284 589.48 377.739 590.057 373.771 588.481C373.603 588.411 372.238 587.778 371.703 587.483C371.154 587.173 370.648 586.821 370.156 586.456C369.649 586.076 369.157 585.654 368.721 585.232C367.834 584.373 367.117 583.431 366.61 582.488C366.343 582.01 366.09 581.489 365.879 580.898C365.597 581.039 365.316 581.18 365.048 581.334C364.5 581.644 363.993 581.996 363.543 582.361C363.234 582.615 362.924 582.868 362.643 583.149L362.629 583.163C362.797 583.557 362.994 583.937 363.191 584.289C363.993 585.78 365.133 587.215 366.54 588.467C362.572 590.043 359.027 589.466 358 587.68C357.198 586.287 357.901 584.514 358.394 583.585C358.886 582.657 359.604 581.728 360.476 580.884C360.828 580.547 361.208 580.209 361.602 579.899C362.192 579.435 362.826 578.999 363.501 578.605C364.05 578.295 364.598 578.014 365.161 577.775C366.821 577.057 368.524 576.678 370.043 576.678H370.268C371.295 576.678 372.393 576.846 373.504 577.184C374.053 577.353 374.615 577.55 375.164 577.789C375.108 578.31 375.023 578.802 374.911 579.28C374.658 580.42 374.264 581.447 373.799 582.291C373.799 582.305 373.785 582.319 373.785 582.319C373.476 582.952 373.04 583.614 372.491 584.261C372.744 584.43 373.012 584.598 373.279 584.753C373.701 584.992 374.953 585.569 374.953 585.569C375.333 585.724 376.065 585.935 376.079 585.949C376.473 585.414 376.81 584.866 377.106 584.317C377.823 583.037 378.372 581.545 378.724 579.913C378.991 578.661 379.132 577.311 379.132 575.904V575.496C378.991 568.306 375.108 562.749 370.17 562.749C366.146 562.749 362.826 566.449 361.658 571.697C362.502 571.289 363.374 570.951 364.247 570.656C364.908 570.431 365.569 570.262 366.23 570.107C367.229 567.912 368.749 566.59 370.17 566.59C372.238 566.59 374.503 569.39 375.122 573.625C373.448 573.076 371.759 572.794 370.17 572.809C368.678 572.837 366.779 573.118 365.217 573.625C363.993 574.033 362.755 574.581 361.573 575.257C361.447 575.327 361.32 575.397 361.208 575.482C358.478 577.142 356.269 579.365 354.989 581.785C353.498 584.598 353.385 587.384 354.665 589.607C356.058 592.013 358.816 593.251 362.08 593.251C364.598 593.251 367.426 592.505 370.17 591C372.913 592.505 375.727 593.251 378.259 593.251C381.523 593.251 384.281 592.013 385.674 589.607C386.94 587.398 386.827 584.612 385.322 581.799Z" fill="#15385B"/>
<path d="M414.098 564.1H398.664C395.288 564.1 392.544 566.857 392.544 570.248V585.752C392.544 589.143 395.288 591.9 398.664 591.9H414.098C417.475 591.9 420.218 589.143 420.218 585.752V570.248C420.218 566.857 417.475 564.1 414.098 564.1ZM418.122 585.752C418.122 587.975 416.321 589.79 414.098 589.79H398.664C396.456 589.79 394.641 587.989 394.641 585.752V570.248C394.641 568.025 396.442 566.21 398.664 566.21H414.098C416.307 566.21 418.122 568.011 418.122 570.248V585.752Z" fill="#15385B"/>
<path d="M402.435 571.711L397.975 584.204H400.578L401.394 581.827H406.332L407.148 584.204H409.779L405.319 571.711H402.435ZM402.083 579.829L403.87 574.609L405.657 579.829H402.083Z" fill="#15385B"/>
<path d="M413.339 571.725H410.848V584.205H413.339V571.725Z" fill="#15385B"/>
</svg>
