<svg width="158" height="38" viewBox="0 0 158 38" fill="none" xmlns="http://www.w3.org/2000/svg">
<path d="M57.8252 0H0.826172V38H57.8252V0Z" fill="#003399"/>
<path d="M1.32617 37.5V0.5H57.3252V37.5H1.32617Z" stroke="white" stroke-opacity="0.15"/>
<path d="M28.1116 8.28066L29.3135 7.40237L30.5174 8.28066L30.0592 6.85971L31.2812 5.98342H29.7758L29.3135 4.54639L28.8533 5.98342H27.3479L28.5699 6.85971L28.1116 8.28066Z" fill="#FFCC00"/>
<path d="M21.8873 9.9526L23.0892 9.0743L24.291 9.9526L23.8348 8.53164L25.0568 7.65535H23.5494L23.0892 6.21631L22.6289 7.65535H21.1235L22.3435 8.53164L21.8873 9.9526Z" fill="#FFCC00"/>
<path d="M18.535 10.7808L18.0747 12.2198H16.5693L17.7913 13.0961L17.3331 14.5171L18.535 13.6388L19.7388 14.5171L19.2806 13.0961L20.5006 12.2198H18.9972L18.535 10.7808Z" fill="#FFCC00"/>
<path d="M16.8648 19.8551L18.0667 20.7334L17.6104 19.3124L18.8304 18.4361H17.325L16.8648 16.9971L16.4045 18.4381L14.8992 18.4361L16.1191 19.3124L15.6629 20.7334L16.8648 19.8551Z" fill="#FFCC00"/>
<path d="M18.9972 24.6707L18.535 23.2317L18.0747 24.6727L16.5693 24.6707L17.7913 25.549L17.3331 26.968L18.535 26.0877L19.7388 26.968L19.2806 25.549L20.5006 24.6707H18.9972Z" fill="#FFCC00"/>
<path d="M23.5594 29.2332L23.0992 27.7961L22.6389 29.2352L21.1335 29.2332L22.3535 30.1115L21.8973 31.5304L23.0992 30.6541L24.301 31.5304L23.8448 30.1115L25.0648 29.2332H23.5594Z" fill="#FFCC00"/>
<path d="M29.776 30.8873L29.3157 29.4482L28.8555 30.8893L27.3501 30.8873L28.5701 31.7656L28.1138 33.1845L29.3157 32.3062L30.5176 33.1845L30.0594 31.7656L31.2813 30.8873H29.776Z" fill="#FFCC00"/>
<path d="M35.9923 29.2332L35.532 27.7961L35.0698 29.2352L33.5664 29.2332L34.7864 30.1115L34.3301 31.5304L35.532 30.6541L36.7339 31.5304L36.2757 30.1115L37.4977 29.2332H35.9923Z" fill="#FFCC00"/>
<path d="M40.5565 24.6707L40.0943 23.2317L39.634 24.6727L38.1287 24.6707L39.3506 25.549L38.8924 26.968L40.0943 26.0877L41.2982 26.968L40.8399 25.549L42.0599 24.6707H40.5565Z" fill="#FFCC00"/>
<path d="M43.714 18.418H42.2086L41.7464 16.979L41.2861 18.4201L39.7808 18.418L41.0027 19.2963L40.5465 20.7153L41.7464 19.837L42.9503 20.7153L42.492 19.2963L43.714 18.418Z" fill="#FFCC00"/>
<path d="M38.8924 14.497L40.0943 13.6207L41.2982 14.497L40.8399 13.078L42.0599 12.2017H40.5565L40.0943 10.7627L39.634 12.2037L38.1287 12.2017L39.3506 13.078L38.8924 14.497Z" fill="#FFCC00"/>
<path d="M35.5501 6.21826L35.0898 7.65731L33.5845 7.6553L34.8044 8.53359L34.3462 9.95254L35.5501 9.07424L36.752 9.95254L36.2957 8.53359L37.5177 7.6553H36.0103L35.5501 6.21826Z" fill="#FFCC00"/>
<path d="M65.5791 11.5004L67.4161 11.3215C67.5266 11.9385 67.7517 12.3907 68.0894 12.6801C68.427 12.9696 68.8833 13.1143 69.4581 13.1143C70.0671 13.1143 70.5253 12.9856 70.8328 12.7284C71.1403 12.4711 71.2951 12.1696 71.2951 11.826C71.2951 11.6049 71.2308 11.416 71.1001 11.2612C70.9695 11.1064 70.7444 10.9698 70.4208 10.8552C70.1997 10.7788 69.6953 10.6422 68.9094 10.4472C67.8964 10.196 67.187 9.88848 66.779 9.52269C66.2042 9.00817 65.9188 8.3811 65.9188 7.64148C65.9188 7.16515 66.0534 6.71897 66.3227 6.30494C66.5921 5.89092 66.982 5.57537 67.4905 5.35831C67.9989 5.14125 68.6119 5.03271 69.3315 5.03271C70.5052 5.03271 71.3895 5.28997 71.9824 5.80449C72.5753 6.31901 72.8869 7.00638 72.917 7.86458L71.0298 7.94698C70.9494 7.46663 70.7765 7.12094 70.5092 6.9099C70.2419 6.69887 69.844 6.59436 69.3134 6.59436C68.7828 6.59436 68.3346 6.70691 68.0251 6.93201C67.8261 7.07672 67.7256 7.26966 67.7256 7.51285C67.7256 7.73394 67.8181 7.92286 68.007 8.07963C68.2441 8.2786 68.823 8.48763 69.7415 8.70469C70.66 8.92175 71.3393 9.14685 71.7795 9.37798C72.2196 9.60911 72.5633 9.92667 72.8125 10.3286C73.0617 10.7306 73.1863 11.227 73.1863 11.8179C73.1863 12.3546 73.0376 12.855 72.7402 13.3233C72.4427 13.7916 72.0206 14.1393 71.478 14.3664C70.9333 14.5935 70.256 14.7081 69.444 14.7081C68.2622 14.7081 67.3538 14.4347 66.7207 13.8881C66.0876 13.3414 65.7077 12.5455 65.5851 11.4984L65.5791 11.5004Z" fill="white"/>
<path d="M74.344 11.0601C74.344 10.4652 74.4907 9.88836 74.7841 9.33164C75.0776 8.77491 75.4936 8.34883 76.0302 8.05539C76.5689 7.76195 77.1698 7.61523 77.8331 7.61523C78.8581 7.61523 79.6982 7.94887 80.3534 8.61412C81.0086 9.27938 81.3362 10.1215 81.3362 11.1365C81.3362 12.1514 81.0046 13.0116 80.3434 13.6849C79.6821 14.3582 78.85 14.6959 77.8471 14.6959C77.2261 14.6959 76.6332 14.5552 76.0704 14.2758C75.5077 13.9965 75.0776 13.5845 74.7862 13.0418C74.4927 12.4991 74.346 11.8399 74.346 11.0621L74.344 11.0601ZM76.181 11.1546C76.181 11.8258 76.3398 12.3404 76.6593 12.6981C76.9789 13.0559 77.3708 13.2347 77.8391 13.2347C78.3074 13.2347 78.6993 13.0559 79.0169 12.6981C79.3344 12.3404 79.4912 11.8218 79.4912 11.1425C79.4912 10.4632 79.3324 9.96875 79.0169 9.611C78.7013 9.25325 78.3074 9.07438 77.8391 9.07438C77.3708 9.07438 76.9789 9.25325 76.6593 9.611C76.3398 9.96875 76.181 10.4833 76.181 11.1546Z" fill="white"/>
<path d="M81.9551 7.76816H82.95V7.25766C82.95 6.68687 83.0103 6.26279 83.1309 5.98141C83.2515 5.70004 83.4746 5.47293 83.8002 5.29606C84.1258 5.11919 84.5378 5.03076 85.0342 5.03076C85.5306 5.03076 86.0431 5.10714 86.5335 5.25988L86.2904 6.51C86.005 6.44167 85.7316 6.4075 85.4683 6.4075C85.205 6.4075 85.0221 6.4678 84.9096 6.5904C84.797 6.71099 84.7408 6.94413 84.7408 7.28781V7.76615H86.0813V9.17505H84.7408V14.5393H82.948V9.17505H81.9531V7.76615L81.9551 7.76816Z" fill="white"/>
<path d="M87.0903 6.84952V5.19141H88.8831V6.84952H87.0903ZM87.0903 14.5432V7.76802H88.8831V14.5432H87.0903Z" fill="white"/>
<path d="M96.8803 14.5431H95.0875V11.0862C95.0875 10.3546 95.0493 9.88227 94.9729 9.66722C94.8966 9.45217 94.772 9.28535 94.5991 9.16677C94.4263 9.04819 94.2193 8.9879 93.9781 8.9879C93.6686 8.9879 93.3892 9.07231 93.142 9.24315C92.8948 9.41398 92.7259 9.63908 92.6355 9.92046C92.543 10.2018 92.4988 10.7204 92.4988 11.4761V14.5451H90.7061V7.76993H92.3702V8.7648C92.9611 7.99906 93.7047 7.61719 94.6031 7.61719C94.9991 7.61719 95.3608 7.68753 95.6884 7.83023C96.016 7.97293 96.2633 8.15381 96.4321 8.3749C96.6009 8.59598 96.7175 8.84721 96.7838 9.12858C96.8501 9.40996 96.8823 9.81193 96.8823 10.3345V14.5451L96.8803 14.5431Z" fill="white"/>
<path d="M100.04 9.83415L98.4138 9.54072C98.5967 8.88551 98.9123 8.40114 99.3585 8.08559C99.8047 7.77206 100.468 7.61328 101.348 7.61328C102.148 7.61328 102.743 7.70774 103.135 7.89667C103.527 8.08559 103.802 8.32677 103.961 8.6182C104.12 8.90963 104.2 9.44424 104.2 10.2221L104.182 12.3143C104.182 12.9092 104.21 13.3494 104.269 13.6307C104.327 13.9141 104.433 14.2156 104.59 14.5392H102.817C102.771 14.4206 102.713 14.2437 102.645 14.0106C102.614 13.9041 102.594 13.8337 102.58 13.7996C102.275 14.097 101.947 14.3201 101.597 14.4688C101.25 14.6176 100.876 14.6919 100.482 14.6919C99.7846 14.6919 99.2339 14.503 98.8339 14.1252C98.4319 13.7473 98.231 13.269 98.231 12.6901C98.231 12.3083 98.3234 11.9666 98.5063 11.6671C98.6892 11.3677 98.9444 11.1385 99.2741 10.9777C99.6037 10.819 100.078 10.6783 100.699 10.5597C101.537 10.4029 102.118 10.2562 102.44 10.1195V9.94067C102.44 9.59699 102.355 9.34978 102.184 9.20306C102.013 9.05634 101.694 8.98198 101.222 8.98198C100.902 8.98198 100.653 9.04429 100.476 9.17091C100.299 9.29753 100.152 9.5166 100.042 9.83214L100.04 9.83415ZM102.438 11.2893C102.208 11.3656 101.845 11.4581 101.346 11.5626C100.848 11.6691 100.524 11.7736 100.369 11.8761C100.136 12.041 100.018 12.252 100.018 12.5072C100.018 12.7625 100.11 12.9755 100.299 13.1584C100.486 13.3413 100.725 13.4338 101.013 13.4338C101.336 13.4338 101.644 13.3272 101.937 13.1142C102.154 12.9534 102.297 12.7544 102.365 12.5213C102.411 12.3686 102.436 12.0771 102.436 11.647V11.2893H102.438Z" fill="white"/>
<path d="M112.127 14.5431H110.334V11.0862C110.334 10.3546 110.296 9.88227 110.22 9.66722C110.143 9.45217 110.019 9.28535 109.846 9.16677C109.673 9.04819 109.466 8.9879 109.225 8.9879C108.915 8.9879 108.636 9.07231 108.389 9.24315C108.141 9.41398 107.973 9.63908 107.882 9.92046C107.79 10.2018 107.745 10.7204 107.745 11.4761V14.5451H105.953V7.76993H107.617V8.7648C108.208 7.99906 108.951 7.61719 109.85 7.61719C110.246 7.61719 110.607 7.68753 110.935 7.83023C111.263 7.97293 111.51 8.15381 111.679 8.3749C111.847 8.59598 111.964 8.84721 112.03 9.12858C112.097 9.40996 112.129 9.81193 112.129 10.3345V14.5451L112.127 14.5431Z" fill="white"/>
<path d="M119.851 9.77179L118.084 10.0914C118.024 9.73762 117.889 9.47232 117.678 9.29345C117.467 9.11457 117.194 9.02614 116.858 9.02614C116.412 9.02614 116.056 9.1809 115.789 9.4884C115.524 9.79792 115.391 10.3124 115.391 11.036C115.391 11.8399 115.526 12.4067 115.797 12.7383C116.066 13.0699 116.43 13.2368 116.884 13.2368C117.224 13.2368 117.503 13.1403 117.72 12.9473C117.937 12.7544 118.09 12.4208 118.181 11.9484L119.941 12.2479C119.758 13.0559 119.407 13.6669 118.888 14.0789C118.369 14.4909 117.674 14.6979 116.802 14.6979C115.811 14.6979 115.021 14.3864 114.432 13.7593C113.843 13.1342 113.548 12.27 113.548 11.1626C113.548 10.0552 113.843 9.17286 114.434 8.54981C115.025 7.92676 115.825 7.61523 116.832 7.61523C117.656 7.61523 118.313 7.7921 118.8 8.14784C119.286 8.50358 119.636 9.04423 119.849 9.77179H119.851Z" fill="white"/>
<path d="M121.209 6.84952V5.19141H123.002V6.84952H121.209ZM121.209 14.5432V7.76802H123.002V14.5432H121.209Z" fill="white"/>
<path d="M126.555 14.5431H124.763V7.76798H126.427V8.73069C126.712 8.27647 126.967 7.97701 127.195 7.8323C127.422 7.68759 127.681 7.61523 127.97 7.61523C128.378 7.61523 128.772 7.72779 129.15 7.95289L128.595 9.51654C128.294 9.32159 128.013 9.2231 127.753 9.2231C127.494 9.2231 127.289 9.29144 127.116 9.43012C126.941 9.5688 126.805 9.81802 126.704 10.1798C126.604 10.5416 126.553 11.2993 126.553 12.4509V14.5431H126.555Z" fill="white"/>
<path d="M131.263 9.83415L129.637 9.54072C129.82 8.88551 130.135 8.40114 130.581 8.08559C131.028 7.77206 131.691 7.61328 132.571 7.61328C133.371 7.61328 133.966 7.70774 134.358 7.89667C134.75 8.08559 135.025 8.32677 135.184 8.6182C135.343 8.90963 135.423 9.44424 135.423 10.2221L135.405 12.3143C135.405 12.9092 135.433 13.3494 135.491 13.6307C135.55 13.9141 135.656 14.2156 135.813 14.5392H134.04C133.994 14.4206 133.936 14.2437 133.867 14.0106C133.837 13.9041 133.817 13.8337 133.803 13.7996C133.498 14.097 133.17 14.3201 132.82 14.4688C132.473 14.6176 132.099 14.6919 131.705 14.6919C131.007 14.6919 130.457 14.503 130.057 14.1252C129.655 13.7473 129.454 13.269 129.454 12.6901C129.454 12.3083 129.546 11.9666 129.729 11.6671C129.912 11.3677 130.167 11.1385 130.497 10.9777C130.827 10.819 131.301 10.6783 131.922 10.5597C132.76 10.4029 133.341 10.2562 133.662 10.1195V9.94067C133.662 9.59699 133.578 9.34978 133.407 9.20306C133.236 9.05634 132.917 8.98198 132.444 8.98198C132.125 8.98198 131.876 9.04429 131.699 9.17091C131.522 9.29753 131.375 9.5166 131.265 9.83214L131.263 9.83415ZM133.662 11.2893C133.433 11.3656 133.07 11.4581 132.571 11.5626C132.073 11.6691 131.749 11.7736 131.594 11.8761C131.361 12.041 131.243 12.252 131.243 12.5072C131.243 12.7625 131.335 12.9755 131.524 13.1584C131.711 13.3413 131.95 13.4338 132.237 13.4338C132.561 13.4338 132.869 13.3272 133.162 13.1142C133.379 12.9534 133.522 12.7544 133.59 12.5213C133.636 12.3686 133.66 12.0771 133.66 11.647V11.2893H133.662Z" fill="white"/>
<path d="M66.0574 30.2199V20.8682H72.9914V22.4499H67.9447V24.522H72.6396V26.0978H67.9447V28.6422H73.1682V30.2179H66.0554L66.0574 30.2199Z" fill="white"/>
<path d="M76.6212 30.2198L73.8918 23.4446H75.7731L77.0493 26.9016L77.4191 28.0552C77.5176 27.7618 77.5779 27.5688 77.604 27.4744C77.6643 27.2834 77.7266 27.0925 77.7949 26.8995L79.0833 23.4426H80.9263L78.2351 30.2178H76.6212V30.2198Z" fill="white"/>
<path d="M83.74 30.2199H81.9473V23.4447H83.6114V24.4075C83.8968 23.9532 84.1521 23.6538 84.3792 23.5091C84.6063 23.3643 84.8655 23.292 85.155 23.292C85.563 23.292 85.9569 23.4045 86.3347 23.6296L85.78 25.1933C85.4786 24.9983 85.1972 24.8999 84.9379 24.8999C84.6786 24.8999 84.4736 24.9682 84.3008 25.1069C84.1259 25.2456 83.9893 25.4948 83.8888 25.8565C83.7883 26.2183 83.738 26.976 83.738 28.1277V30.2199H83.74Z" fill="white"/>
<path d="M86.6946 26.7369C86.6946 26.1419 86.8413 25.5651 87.1347 25.0084C87.4282 24.4517 87.8442 24.0256 88.3808 23.7321C88.9195 23.4387 89.5204 23.292 90.1837 23.292C91.2087 23.292 92.0488 23.6256 92.704 24.2909C93.3592 24.9561 93.6868 25.7983 93.6868 26.8132C93.6868 27.8282 93.3552 28.6884 92.6939 29.3617C92.0327 30.035 91.2006 30.3726 90.1977 30.3726C89.5767 30.3726 88.9838 30.232 88.421 29.9526C87.8583 29.6732 87.4282 29.2612 87.1367 28.7186C86.8433 28.1759 86.6966 27.5167 86.6966 26.7389L86.6946 26.7369ZM88.5316 26.8313C88.5316 27.5026 88.6904 28.0171 89.0099 28.3749C89.3295 28.7326 89.7214 28.9115 90.1897 28.9115C90.658 28.9115 91.0499 28.7326 91.3675 28.3749C91.685 28.0171 91.8418 27.4986 91.8418 26.8193C91.8418 26.1399 91.683 25.6455 91.3675 25.2878C91.0519 24.93 90.658 24.7511 90.1897 24.7511C89.7214 24.7511 89.3295 24.93 89.0099 25.2878C88.6904 25.6455 88.5316 26.16 88.5316 26.8313Z" fill="white"/>
<path d="M95.0372 23.4448H96.7074V24.4397C96.9245 24.1 97.2179 23.8226 97.5877 23.6096C97.9575 23.3966 98.3675 23.29 98.8177 23.29C99.6036 23.29 100.273 23.5975 100.822 24.2146C101.37 24.8316 101.644 25.6898 101.644 26.7912C101.644 27.8926 101.366 28.801 100.813 29.4281C100.261 30.0552 99.5915 30.3687 98.8037 30.3687C98.4298 30.3687 98.0902 30.2943 97.7867 30.1456C97.4832 29.9969 97.1616 29.7416 96.826 29.3798V32.7926H95.0332V23.4408L95.0372 23.4448ZM96.8099 26.7168C96.8099 27.4785 96.9606 28.0413 97.2621 28.4031C97.5636 28.7668 97.9314 28.9477 98.3655 28.9477C98.7996 28.9477 99.1293 28.7809 99.4046 28.4473C99.682 28.1136 99.8186 27.567 99.8186 26.8052C99.8186 26.0958 99.6759 25.5672 99.3905 25.2235C99.1051 24.8798 98.7534 24.707 98.3313 24.707C97.9093 24.707 97.5294 24.8758 97.24 25.2135C96.9506 25.5511 96.8059 26.0516 96.8059 26.7148L96.8099 26.7168Z" fill="white"/>
<path d="M102.438 28.2864L104.236 28.013C104.313 28.3607 104.467 28.626 104.703 28.8069C104.936 28.9878 105.263 29.0783 105.685 29.0783C106.15 29.0783 106.497 28.9938 106.733 28.823C106.889 28.7044 106.968 28.5457 106.968 28.3447C106.968 28.208 106.925 28.0954 106.841 28.007C106.753 27.9226 106.552 27.8442 106.242 27.7719C104.797 27.4523 103.881 27.1609 103.493 26.8976C102.956 26.5318 102.689 26.0233 102.689 25.3721C102.689 24.7852 102.92 24.2928 103.384 23.8929C103.848 23.4929 104.566 23.2939 105.541 23.2939C106.515 23.2939 107.157 23.4447 107.607 23.7462C108.057 24.0476 108.369 24.4938 108.537 25.0867L106.847 25.3982C106.775 25.135 106.638 24.932 106.435 24.7913C106.234 24.6506 105.945 24.5802 105.571 24.5802C105.099 24.5802 104.761 24.6466 104.556 24.7772C104.419 24.8697 104.351 24.9923 104.351 25.141C104.351 25.2676 104.411 25.3761 104.53 25.4666C104.691 25.5852 105.249 25.754 106.204 25.971C107.159 26.1881 107.826 26.4534 108.204 26.769C108.578 27.0885 108.764 27.5327 108.764 28.1015C108.764 28.7225 108.505 29.2551 107.987 29.7033C107.468 30.1495 106.7 30.3726 105.683 30.3726C104.761 30.3726 104.029 30.1857 103.493 29.8118C102.954 29.438 102.602 28.9295 102.438 28.2864Z" fill="white"/>
<path d="M110.27 30.2199V20.8682H112.063V25.8305L114.161 23.4448H116.368L114.052 25.9189L116.534 30.2179H114.601L112.899 27.175L112.063 28.0493V30.2179H110.27V30.2199Z" fill="white"/>
<path d="M118.94 25.5109L117.314 25.2175C117.497 24.5623 117.813 24.0779 118.259 23.7624C118.705 23.4488 119.368 23.29 120.249 23.29C121.049 23.29 121.643 23.3845 122.035 23.5734C122.427 23.7624 122.703 24.0035 122.861 24.295C123.02 24.5864 123.101 25.121 123.101 25.8988L123.082 27.9911C123.082 28.586 123.111 29.0261 123.169 29.3075C123.227 29.5909 123.334 29.8924 123.49 30.2159H121.718C121.672 30.0974 121.613 29.9205 121.545 29.6874C121.515 29.5808 121.495 29.5105 121.481 29.4763C121.175 29.7738 120.848 29.9969 120.498 30.1456C120.15 30.2943 119.776 30.3687 119.382 30.3687C118.685 30.3687 118.134 30.1798 117.734 29.8019C117.332 29.4241 117.131 28.9457 117.131 28.3669C117.131 27.985 117.224 27.6433 117.407 27.3439C117.59 27.0444 117.845 26.8153 118.174 26.6545C118.504 26.4957 118.978 26.355 119.599 26.2365C120.438 26.0797 121.018 25.933 121.34 25.7963V25.6174C121.34 25.2737 121.256 25.0265 121.085 24.8798C120.914 24.7331 120.594 24.6587 120.122 24.6587C119.802 24.6587 119.553 24.721 119.376 24.8477C119.199 24.9743 119.053 25.1934 118.942 25.5089L118.94 25.5109ZM121.338 26.966C121.109 27.0424 120.745 27.1349 120.247 27.2394C119.748 27.3459 119.425 27.4504 119.27 27.5529C119.037 27.7177 118.918 27.9287 118.918 28.184C118.918 28.4392 119.011 28.6523 119.199 28.8352C119.386 29.0181 119.626 29.1105 119.913 29.1105C120.237 29.1105 120.544 29.004 120.837 28.791C121.055 28.6302 121.197 28.4312 121.266 28.1981C121.312 28.0453 121.336 27.7539 121.336 27.3238V26.966H121.338Z" fill="white"/>
<path d="M132.953 30.2198V29.2048C132.706 29.5666 132.382 29.852 131.98 30.059C131.578 30.268 131.154 30.3705 130.708 30.3705C130.262 30.3705 129.844 30.27 129.484 30.0711C129.122 29.8721 128.861 29.5907 128.7 29.2289C128.539 28.8672 128.457 28.3687 128.457 27.7296V23.4426H130.25V26.5559C130.25 27.5085 130.282 28.0914 130.348 28.3064C130.414 28.5215 130.533 28.6923 130.708 28.8169C130.883 28.9415 131.104 29.0059 131.371 29.0059C131.677 29.0059 131.952 28.9214 132.193 28.7546C132.436 28.5858 132.601 28.3788 132.69 28.1296C132.78 27.8804 132.824 27.2714 132.824 26.3026V23.4446H134.617V30.2198H132.953Z" fill="white"/>
<path d="M142.636 30.2198H140.843V26.7629C140.843 26.0313 140.805 25.559 140.729 25.344C140.652 25.1289 140.528 24.9621 140.355 24.8435C140.182 24.7249 139.975 24.6647 139.734 24.6647C139.424 24.6647 139.145 24.7491 138.898 24.9199C138.651 25.0907 138.482 25.3158 138.391 25.5972C138.299 25.8786 138.255 26.3971 138.255 27.1528V30.2219H136.462V23.4467H138.126V24.4416C138.717 23.6758 139.461 23.2939 140.359 23.2939C140.755 23.2939 141.117 23.3643 141.444 23.507C141.772 23.6497 142.019 23.8306 142.188 24.0517C142.357 24.2727 142.473 24.524 142.54 24.8053C142.606 25.0867 142.638 25.4887 142.638 26.0112V30.2219L142.636 30.2198Z" fill="white"/>
<path d="M144.455 22.5263V20.8682H146.248V22.5263H144.455ZM144.455 30.2199V23.4448H146.248V30.2199H144.455Z" fill="white"/>
<path d="M149.839 23.4448V30.0089C149.839 30.8711 149.783 31.4821 149.671 31.8358C149.558 32.1916 149.341 32.4689 149.019 32.6679C148.698 32.8669 148.29 32.9674 147.791 32.9674C147.613 32.9674 147.42 32.9513 147.215 32.9191C147.008 32.887 146.787 32.8388 146.547 32.7765L146.861 31.245C146.945 31.263 147.026 31.2751 147.1 31.2872C147.174 31.2992 147.243 31.3032 147.307 31.3032C147.49 31.3032 147.641 31.263 147.757 31.1847C147.874 31.1063 147.952 31.0118 147.99 30.9013C148.029 30.7907 148.049 30.4591 148.049 29.9064V23.4448H149.841H149.839ZM148.047 22.5263V20.8682H149.839V22.5263H148.047Z" fill="white"/>
<path d="M153.053 25.5109L151.427 25.2175C151.61 24.5623 151.926 24.0779 152.372 23.7624C152.818 23.4488 153.481 23.29 154.362 23.29C155.162 23.29 155.756 23.3845 156.148 23.5734C156.54 23.7624 156.816 24.0035 156.974 24.295C157.133 24.5864 157.214 25.121 157.214 25.8988L157.196 27.9911C157.196 28.586 157.224 29.0261 157.282 29.3075C157.34 29.5909 157.447 29.8924 157.604 30.2159H155.831C155.785 30.0974 155.726 29.9205 155.658 29.6874C155.628 29.5808 155.608 29.5105 155.594 29.4763C155.288 29.7738 154.961 29.9969 154.611 30.1456C154.263 30.2943 153.889 30.3687 153.495 30.3687C152.798 30.3687 152.247 30.1798 151.847 29.8019C151.445 29.4241 151.244 28.9457 151.244 28.3669C151.244 27.985 151.337 27.6433 151.52 27.3439C151.703 27.0444 151.958 26.8153 152.287 26.6545C152.617 26.4957 153.091 26.355 153.712 26.2365C154.551 26.0797 155.131 25.933 155.453 25.7963V25.6174C155.453 25.2737 155.369 25.0265 155.198 24.8798C155.027 24.7331 154.707 24.6587 154.235 24.6587C153.915 24.6587 153.666 24.721 153.489 24.8477C153.313 24.9743 153.166 25.1934 153.055 25.5089L153.053 25.5109ZM155.451 26.966C155.222 27.0424 154.858 27.1349 154.36 27.2394C153.861 27.3459 153.538 27.4504 153.383 27.5529C153.15 27.7177 153.031 27.9287 153.031 28.184C153.031 28.4392 153.124 28.6523 153.313 28.8352C153.499 29.0181 153.739 29.1105 154.026 29.1105C154.35 29.1105 154.657 29.004 154.951 28.791C155.168 28.6302 155.31 28.4312 155.379 28.1981C155.425 28.0453 155.449 27.7539 155.449 27.3238V26.966H155.451Z" fill="white"/>
</svg>
