<svg width="85" height="42" viewBox="0 0 85 42" fill="none" xmlns="http://www.w3.org/2000/svg">
<path d="M0.603516 0.0102812V31.3781L84.174 41.7056L73.7797 0L0.603516 0.0102812Z" fill="#78A22F"/>
<path d="M4.28394 13.6639H8.68942V12.2811L7.4454 12.1269V5.21279L8.68942 5.06885V3.68604H4.28394V5.06885L5.52796 5.21279V12.1269L4.28394 12.2811V13.6639ZM15.3619 5.43897H19.6234V3.69118H13.4393V13.669H15.3568V9.46405H18.9809V7.74196H15.3568V5.44411L15.3619 5.43897ZM20.7749 13.6639H27.3086V11.8853H22.6975V9.45891H26.5375V7.73682H22.6975V5.43897H27.3086V3.69118H20.7749V13.669V13.6639ZM28.7634 13.6639H35.2971V11.8853H30.6808V9.45891H34.5209V7.73682H30.6808V5.43897H35.2971V3.69118H28.7634V13.669V13.6639ZM36.7673 13.6639H42.9617V11.8853H38.6693V3.68604H36.7673V13.6639Z" fill="white"/>
<path d="M11.5532 24.1554C11.5532 20.048 5.99104 22.1917 5.99104 19.4157C5.99104 18.1614 6.95233 17.8787 8.07812 17.8787C8.93659 17.8787 9.75909 18.3002 10.561 19.1638L11.3115 18.4442C10.4633 17.4726 9.33756 16.8506 8.07812 16.8506C6.45369 16.8506 4.81899 17.4418 4.81899 19.3181C4.81899 23.5488 10.3657 21.1121 10.3657 24.1862C10.3657 25.5125 9.30672 26.0779 8.10896 26.0779C7.01916 26.0779 6.12984 25.569 5.34333 24.8391L4.58252 25.5587C5.52839 26.5612 6.70044 27.0546 8.09868 27.0546C9.87218 27.0546 11.5532 26.1499 11.5532 24.1656" fill="#B4C98B"/>
<path d="M13.2598 26.8955H19.4542V25.1168H15.1669V16.9176H13.2598V26.8955ZM28.553 21.5596C28.553 18.6963 27.6637 16.7737 24.4457 16.7737C21.2277 16.7737 20.3383 18.6963 20.3383 21.5596C20.3383 24.4229 20.9141 27.0343 24.4457 27.0343C27.9773 27.0343 28.553 24.4383 28.553 21.5596ZM26.5482 21.3488V21.9143C26.5482 23.8471 26.5173 25.3019 24.4457 25.3019C22.374 25.3019 22.3432 23.8625 22.3432 22.0274V21.3488C22.3432 19.7809 22.4563 18.4958 24.4457 18.4958C26.4351 18.4958 26.5482 19.7244 26.5482 21.3488ZM34.4544 26.8955L38.1813 16.9176H36.1097L33.5137 24.3406H33.4828L30.8714 16.9176H28.7998L32.5421 26.8955H34.4595H34.4544ZM38.9935 26.8955H45.5272V25.1168H40.9161V22.6905H44.7561V20.9684H40.9161V18.6654H45.5272V16.9125H38.9935V26.8904V26.8955Z" fill="white"/>
<path d="M52.5594 26.8957H54.225V16.959H53.1506V25.7083H53.1249L48.8479 16.959H47.1824V26.8957H48.267V18.1465H48.2927L52.5543 26.8957M55.8597 26.8957H59.5815V26.1452L58.2706 25.991V17.8791L59.5815 17.7095V16.9744H55.8597V17.7095L57.1705 17.8791V25.991L55.8597 26.1452V26.8957ZM67.6727 26.8957H68.8859L65.2721 16.959H63.8893L60.2909 26.8957H61.5195L62.5476 23.9193H66.6241L67.6676 26.8957H67.6727ZM64.5935 17.8894L66.2848 22.9426H62.8817L64.5627 17.8894H64.5884H64.5935Z" fill="#B4C98B"/>
</svg>
