<svg width="61" height="4" viewBox="0 0 61 4" fill="none" xmlns="http://www.w3.org/2000/svg">
<path d="M23.5518 0.0993103C26.6598 0.171034 29.7677 0.242759 32.8757 0.286897C34.0101 0.286897 35.1368 0.231724 36.2712 0.25931L48.2602 0.529655C50.0317 0.584828 51.8188 0.595862 53.5826 0.606897C55.8929 0.528689 58.208 0.654713 60.4745 0.982069C60.6455 1.01211 60.8015 1.07512 60.9252 1.16414C61.0035 1.21705 61.0225 1.30051 60.9718 1.36828C60.7823 1.53265 60.5567 1.67424 60.3036 1.78759C59.4372 2.23696 58.4236 2.52182 57.3588 2.61517C55.1055 2.75862 52.8212 2.93517 50.529 3.05103L48.7963 3.13379H47.0714C45.9137 3.13379 44.7404 3.07862 43.5982 3.02345C40.8244 2.89655 37.9495 3.11724 35.1135 3.1669C32.0055 3.21655 28.8975 3.23862 25.7429 3.26621L19.9776 3.31586C17.0639 3.34897 14.1346 3.31586 11.252 3.42621C10.1253 3.47034 9.01421 3.56414 7.91088 3.66345L6.24811 3.82345C5.68867 3.86759 5.13701 3.89517 4.57757 3.92276C4.01814 3.95034 3.6141 3.99448 3.11682 4C1.27535 4 0.68483 3.77379 0.288563 2.99034C0.183484 2.81077 0.0952322 2.62646 0.0243851 2.43862C-0.146554 1.84276 0.591591 1.33517 1.91248 1.09241C3.88455 0.698176 5.90247 0.430435 7.94196 0.292414C9.99322 0.165517 12.0833 0.104828 14.1579 0.0551724C15.7119 0.022069 17.2659 0.0110345 18.8199 0H23.4818L23.5518 0.0993103Z" fill="#3C50E0"/>
</svg>
