<svg version="1.2" xmlns="http://www.w3.org/2000/svg" viewBox="0 0 11 23" width="11" height="23">
	<title>Floater 1-svg</title>
	<style>
		.s-floater { fill: #fdb300 } 
	</style>
	<path id="right2" class="s-floater" d="m3.2 11.4c-0.2-0.1-0.2 0.2-0.2 0.6q0 0.3 0.2 0.6 0.1 0.1 0.2 0.2c0.1 0 0.8 0.1 1 0.2q0.4 0 0.7 0 0.7-0.1 1.4-0.2 0.1 0 0.3-0.1 0.5-0.2 1-0.2 0.1 0 0.2 0 0.6 0.1 1.2-0.1c0.3-0.2 0.6-0.4 0.9-0.6 0 0 0.1 0 0.1-0.1 0-0.2 0.1-0.2 0.2-0.2q0.3-0.1 0.4-0.3 0.1-0.2 0.1-0.3c0.1-0.1 0-0.3-0.1-0.3 0-0.1 0-0.2 0-0.3q0-0.1-0.1-0.1c0 0-0.2-0.2-0.4-0.3q-0.3-0.2-0.5-0.3h-0.2-0.4-0.7c-0.1-0.1-0.1 0-0.2 0.1-0.1 0-0.9 0-1 0-0.1 0.1-0.3 0-0.5 0.3 0 0-0.1 0-0.1 0q-0.4 0.1-0.9 0.3c-0.1 0.1-0.3 0.1-0.4 0.1 0 0-0.1 0.1-0.1 0.1q-0.1 0-0.1 0-0.6 0.2-1.2 0.3c-0.1 0-0.5 0.3-0.6 0.3-0.1 0-0.2 0.3-0.2 0.3z"/>
	<path id="right1" class="s-floater" d="m1.1 6c-0.1 0.1 0 0.3 0.3 0.5q0.3 0.2 0.5 0.3 0.2 0 0.4 0c0.1 0 0.5-0.4 0.7-0.5q0.3-0.2 0.5-0.4 0.4-0.5 0.8-0.9 0.1-0.1 0.1-0.3 0.2-0.5 0.6-0.8c0 0 0-0.1 0.1-0.1q0.5-0.3 0.8-0.8c0-0.3 0.1-0.6 0.2-1q0 0 0-0.1c-0.1-0.1-0.1-0.3-0.1-0.4q0.1-0.2 0.1-0.4-0.1-0.1-0.1-0.3-0.2-0.1-0.3-0.1c-0.1 0-0.2-0.1-0.3-0.2h-0.1c0 0-0.2 0.1-0.5 0.1q-0.2 0-0.5 0.1 0 0-0.1 0.2l-0.3 0.2c-0.2 0.1-0.4 0.3-0.4 0.3-0.1 0.1-0.1 0.2-0.1 0.2 0 0.1-0.6 0.6-0.6 0.6-0.1 0.2-0.3 0.3-0.2 0.5q0 0.1-0.1 0.1-0.2 0.3-0.4 0.8-0.1 0.2-0.3 0.3 0 0.1 0 0.1 0 0.1-0.1 0.1-0.2 0.5-0.6 0.9c0 0.1-0.1 0.6-0.1 0.6-0.1 0.1 0.2 0.4 0.1 0.4z"/>
	<path id="right3" class="s-floater" d="m1.8 17c-0.1-0.1-0.3 0.1-0.5 0.4q-0.1 0.3-0.1 0.6 0.1 0.2 0.1 0.3 0.4 0.4 0.8 0.8 0.2 0.2 0.5 0.4 0.6 0.4 1.1 0.9 0.2 0.1 0.3 0.1 0.6 0.2 1 0.6c0.1 0 0.1 0 0.1 0.2q0.4 0.5 1.1 0.8c0.4 0 0.7 0.1 1.1 0.2 0 0 0.1 0.1 0.2 0 0.2-0.1 0.2 0 0.4 0q0.2 0.1 0.5 0.1 0.1-0.1 0.3-0.2c0.1 0 0.2-0.2 0.2-0.3 0 0 0-0.2 0.1-0.3 0-0.1 0 0 0-0.1q0-0.2-0.1-0.5-0.1-0.3-0.3-0.6l-0.1-0.1-0.3-0.3-0.5-0.5c0-0.1-0.1-0.1-0.2-0.1-0.1 0-0.7-0.7-0.8-0.7-0.2-0.1-0.3-0.3-0.6-0.3 0 0-0.1 0-0.1 0q-0.5-0.4-1-0.5-0.3-0.2-0.5-0.3 0 0-0.1 0-0.1 0-0.1 0c-0.4-0.3-0.9-0.4-1.3-0.6-0.1 0-0.7 0-0.8-0.1-0.1-0.1-0.3 0.2-0.4 0.1z"/>
</svg>