<svg version="1.2" xmlns="http://www.w3.org/2000/svg" viewBox="0 0 11 22" width="11" height="22">
	<title>Floater 2-svg</title>
	<style>
		.s-floater { fill: #fdb300 } 
	</style>
	<path id="left3" class="s-floater" d="m8.2 10.7c0.2 0.1 0.2-0.1 0.2-0.6q-0.1-0.3-0.3-0.5-0.1-0.1-0.3-0.2c0 0-0.7-0.1-1-0.1q-0.3 0-0.6 0.1-0.7 0.1-1.4 0.2-0.2 0-0.3 0.1-0.5 0.3-1 0.4-0.1 0-0.2-0.1-0.6 0-1.2 0.2c-0.3 0.3-0.5 0.5-0.8 0.7 0 0-0.1 0-0.1 0.1 0 0.2-0.1 0.2-0.2 0.3q-0.2 0.1-0.3 0.3-0.1 0.2-0.2 0.3c0 0.1 0.1 0.3 0.1 0.3 0.1 0.1 0.1 0.2 0.1 0.3q0.1 0.1 0.1 0.1c0 0 0.2 0.1 0.5 0.3q0.2 0.1 0.5 0.2l0.2-0.1h0.4 0.7c0 0 0.1 0 0.2-0.1 0 0 0.9-0.1 0.9-0.1 0.2-0.1 0.4-0.1 0.5-0.3 0-0.1 0.1-0.1 0.1-0.1q0.5-0.1 0.9-0.3c0.1-0.1 0.3-0.1 0.4-0.2 0 0 0.1 0 0.1 0q0-0.1 0.1-0.1 0.6-0.2 1.1-0.4c0.1 0 0.5-0.3 0.6-0.3 0.1 0 0.1-0.4 0.2-0.4z"/>
	<path id="left2" class="s-floater" d="m10.7 15.9c0.2 0 0-0.2-0.3-0.4q-0.3-0.2-0.6-0.3-0.2 0.1-0.3 0.1c-0.1 0-0.5 0.4-0.7 0.5q-0.3 0.2-0.4 0.5-0.4 0.5-0.8 1-0.1 0.1-0.1 0.2-0.1 0.5-0.5 0.9c0 0 0 0.1-0.1 0.1q-0.5 0.3-0.7 0.8c0 0.4-0.1 0.7-0.1 1q0 0.1 0 0.2c0.1 0.1 0.1 0.2 0.1 0.3q-0.1 0.2 0 0.5 0 0.1 0.1 0.2 0.1 0.1 0.3 0.2c0.1 0 0.2 0 0.3 0.1h0.1c0 0 0.2-0.1 0.5-0.1q0.2-0.1 0.4-0.2 0 0 0.2-0.1l0.2-0.3c0.2-0.2 0.4-0.3 0.5-0.4 0 0 0-0.1 0-0.2 0 0 0.6-0.6 0.6-0.6 0-0.2 0.2-0.3 0.1-0.5q0-0.1 0.1-0.1 0.2-0.4 0.3-0.8 0.1-0.2 0.3-0.4 0 0 0-0.1 0-0.1 0-0.1 0.3-0.5 0.6-1c0 0 0-0.5 0.1-0.6 0.1-0.1-0.3-0.3-0.2-0.4z"/>
	<path id="left1" class="s-floater" d="m9.1 5c0.1 0.2 0.3 0 0.5-0.4q0.1-0.3 0-0.6 0-0.2-0.1-0.3-0.4-0.3-0.8-0.7-0.3-0.2-0.6-0.4-0.6-0.3-1.2-0.8-0.1-0.1-0.3-0.1-0.6-0.1-1-0.4c-0.1-0.1-0.1-0.1-0.1-0.2q-0.5-0.5-1.1-0.7c-0.4-0.1-0.8-0.1-1.2-0.2 0 0-0.1 0-0.2 0-0.2 0.2-0.2 0.1-0.3 0.1q-0.3-0.1-0.6 0-0.1 0-0.3 0.1c-0.1 0-0.1 0.3-0.1 0.3 0 0.1-0.1 0.2-0.1 0.3-0.1 0.1 0 0.1-0.1 0.1q0.1 0.3 0.3 0.6 0.1 0.3 0.2 0.5l0.2 0.1 0.3 0.3 0.5 0.5c0.1 0 0.2 0 0.3 0 0 0.1 0.7 0.7 0.8 0.7 0.2 0.1 0.3 0.3 0.6 0.2 0.1 0 0.1 0 0.1 0q0.5 0.3 1.1 0.5 0.2 0.1 0.5 0.2 0 0 0.1 0 0.1 0 0.1 0c0.5 0.2 0.9 0.3 1.3 0.5 0.1 0 0.7 0 0.8 0 0.1 0 0.3-0.2 0.4-0.2z"/>
</svg>