<svg width="1224" height="606" viewBox="0 0 1224 606" fill="none" xmlns="http://www.w3.org/2000/svg">
<path d="M48.086 68.504C39.602 68.504 33.428 62.456 33.428 54.014C33.428 45.572 39.602 39.524 48.086 39.524C56.528 39.524 62.702 45.572 62.702 54.014C62.702 62.456 56.528 68.504 48.086 68.504ZM48.086 63.212C53.252 63.212 56.57 59.222 56.57 54.014C56.57 48.764 53.252 44.816 48.086 44.816C42.878 44.816 39.56 48.764 39.56 54.014C39.56 59.222 42.878 63.212 48.086 63.212ZM85.2872 68H79.9532V65.438C78.5672 66.95 76.1312 68.504 72.8132 68.504C68.3612 68.504 66.2612 66.068 66.2612 62.12V47.714H71.5952V60.02C71.5952 62.834 73.0652 63.758 75.3332 63.758C77.3912 63.758 79.0292 62.624 79.9532 61.448V47.714H85.2872V68ZM96.8875 68.504C93.1495 68.504 91.1755 66.572 91.1755 62.918V52.376H87.8155V47.714H91.1755V42.17H96.5095V47.714H100.626V52.376H96.5095V61.49C96.5095 62.792 97.1815 63.758 98.3575 63.758C99.1555 63.758 99.9115 63.464 100.206 63.128L101.34 67.202C100.542 67.916 99.1135 68.504 96.8875 68.504ZM115.367 68.504C112.973 68.504 110.789 67.496 109.109 65.396V75.728H103.775V47.714H109.109V50.276C110.663 48.302 112.889 47.21 115.367 47.21C120.575 47.21 124.355 51.074 124.355 57.836C124.355 64.598 120.575 68.504 115.367 68.504ZM113.687 63.758C116.753 63.758 118.853 61.364 118.853 57.836C118.853 54.35 116.753 51.956 113.687 51.956C111.965 51.956 110.033 52.922 109.109 54.266V61.406C109.991 62.708 111.965 63.758 113.687 63.758ZM137.295 68.504C131.121 68.504 126.459 64.346 126.459 57.836C126.459 51.956 130.827 47.21 136.959 47.21C143.049 47.21 147.123 51.746 147.123 58.34V59.6H132.045C132.423 62.078 134.439 64.136 137.883 64.136C139.605 64.136 141.957 63.422 143.259 62.162L145.653 65.69C143.637 67.538 140.445 68.504 137.295 68.504ZM141.999 55.904C141.831 53.972 140.487 51.578 136.959 51.578C133.641 51.578 132.213 53.888 132.003 55.904H141.999ZM155.81 68H150.476V47.714H155.81V50.444C157.28 48.68 159.758 47.21 162.278 47.21V52.418C161.9 52.334 161.438 52.292 160.808 52.292C159.044 52.292 156.692 53.3 155.81 54.602V68ZM171.663 68H166.329V52.376H162.969V47.714H166.329V46.874C166.329 42.296 169.059 39.566 173.133 39.566C175.107 39.566 177.207 40.112 178.425 41.498L176.409 44.732C175.863 44.228 175.149 43.934 174.183 43.934C172.671 43.934 171.663 44.9 171.663 46.874V47.714H175.779V52.376H171.663V68ZM187.759 68.504C181.081 68.504 177.049 63.59 177.049 57.836C177.049 52.082 181.081 47.21 187.759 47.21C194.479 47.21 198.511 52.082 198.511 57.836C198.511 63.59 194.479 68.504 187.759 68.504ZM187.759 63.758C191.119 63.758 192.967 61.028 192.967 57.836C192.967 54.686 191.119 51.956 187.759 51.956C184.441 51.956 182.593 54.686 182.593 57.836C182.593 61.028 184.441 63.758 187.759 63.758ZM207.343 68H202.009V47.714H207.343V50.444C208.813 48.68 211.291 47.21 213.811 47.21V52.418C213.433 52.334 212.971 52.292 212.341 52.292C210.577 52.292 208.225 53.3 207.343 54.602V68ZM247.178 68H241.802V55.19C241.802 53.3 240.962 51.956 238.778 51.956C236.888 51.956 235.334 53.216 234.578 54.308V68H229.202V55.19C229.202 53.3 228.362 51.956 226.178 51.956C224.33 51.956 222.776 53.216 221.978 54.308V68H216.644V47.714H221.978V50.318C222.86 49.142 225.506 47.21 228.614 47.21C231.596 47.21 233.528 48.596 234.242 50.864C235.418 49.058 238.106 47.21 241.214 47.21C244.952 47.21 247.178 49.184 247.178 53.342V68ZM254.597 45.53C252.875 45.53 251.447 44.102 251.447 42.338C251.447 40.574 252.875 39.188 254.597 39.188C256.361 39.188 257.789 40.574 257.789 42.338C257.789 44.102 256.361 45.53 254.597 45.53ZM257.285 68H251.951V47.714H257.285V68ZM281.142 68H275.766V55.736C275.766 52.922 274.296 51.956 272.028 51.956C269.928 51.956 268.332 53.132 267.408 54.308V68H262.074V47.714H267.408V50.318C268.71 48.806 271.23 47.21 274.506 47.21C279 47.21 281.142 49.73 281.142 53.678V68ZM294.212 76.232C290.768 76.232 288.038 75.434 285.476 73.208L287.87 69.386C289.508 71.15 291.692 71.864 294.212 71.864C296.774 71.864 299.84 70.772 299.84 66.656V64.682C298.244 66.698 296.06 67.832 293.54 67.832C288.5 67.832 284.594 64.304 284.594 57.542C284.594 50.906 288.416 47.21 293.54 47.21C295.976 47.21 298.202 48.218 299.84 50.318V47.714H305.174V66.656C305.174 74.342 299.21 76.232 294.212 76.232ZM295.262 63.128C296.984 63.128 298.916 62.12 299.84 60.818V54.224C298.916 52.922 296.984 51.956 295.262 51.956C292.196 51.956 290.096 54.056 290.096 57.542C290.096 61.028 292.196 63.128 295.262 63.128ZM333.985 68.504C325.543 68.504 319.033 62.624 319.033 54.014C319.033 45.362 325.543 39.524 333.985 39.524C340.117 39.524 343.687 42.842 345.661 46.37L340.537 48.89C339.361 46.622 336.841 44.816 333.985 44.816C328.861 44.816 325.165 48.722 325.165 54.014C325.165 59.306 328.861 63.212 333.985 63.212C336.841 63.212 339.361 61.406 340.537 59.138L345.661 61.616C343.687 65.102 340.117 68.504 333.985 68.504ZM367.653 68H362.319V55.652C362.319 52.838 360.849 51.956 358.581 51.956C356.481 51.956 354.843 53.132 353.961 54.308V68H348.585V39.986H353.961V50.318C355.263 48.806 357.741 47.21 361.059 47.21C365.511 47.21 367.653 49.646 367.653 53.594V68ZM390.005 68H384.629V65.858C383.243 67.538 380.849 68.504 378.203 68.504C374.969 68.504 371.189 66.32 371.189 61.784C371.189 56.996 374.969 55.232 378.203 55.232C380.933 55.232 383.285 56.114 384.629 57.71V55.148C384.629 53.09 382.865 51.746 380.177 51.746C378.035 51.746 376.019 52.586 374.339 54.14L372.239 50.402C374.717 48.176 377.909 47.21 381.101 47.21C385.763 47.21 390.005 49.058 390.005 54.896V68ZM380.345 64.892C382.067 64.892 383.747 64.304 384.629 63.128V60.608C383.747 59.432 382.067 58.802 380.345 58.802C378.245 58.802 376.523 59.936 376.523 61.868C376.523 63.8 378.245 64.892 380.345 64.892ZM401.557 68.504C397.819 68.504 395.845 66.572 395.845 62.918V52.376H392.485V47.714H395.845V42.17H401.179V47.714H405.295V52.376H401.179V61.49C401.179 62.792 401.851 63.758 403.027 63.758C403.825 63.758 404.581 63.464 404.875 63.128L406.009 67.202C405.211 67.916 403.783 68.504 401.557 68.504ZM422.179 68.504C413.947 68.504 407.227 62.834 407.227 54.014C407.227 45.152 413.947 39.524 422.179 39.524C427.975 39.524 431.629 42.464 433.729 45.782L428.815 48.47C427.513 46.496 425.119 44.816 422.179 44.816C417.055 44.816 413.359 48.722 413.359 54.014C413.359 59.306 417.055 63.212 422.179 63.212C424.657 63.212 426.967 62.12 428.101 61.07V57.71H420.709V52.502H434.065V63.254C431.209 66.446 427.219 68.504 422.179 68.504ZM444.263 68H438.299V39.986H451.403C457.493 39.986 460.811 44.102 460.811 49.016C460.811 53.888 457.451 58.004 451.403 58.004H444.263V68ZM450.563 52.754C452.915 52.754 454.721 51.326 454.721 49.016C454.721 46.664 452.915 45.236 450.563 45.236H444.263V52.754H450.563ZM476.523 68H470.517V45.236H462.327V39.986H484.671V45.236H476.523V68ZM44.054 116.504C37.376 116.504 33.344 111.59 33.344 105.836C33.344 100.082 37.376 95.21 44.054 95.21C50.774 95.21 54.806 100.082 54.806 105.836C54.806 111.59 50.774 116.504 44.054 116.504ZM44.054 111.758C47.414 111.758 49.262 109.028 49.262 105.836C49.262 102.686 47.414 99.956 44.054 99.956C40.736 99.956 38.888 102.686 38.888 105.836C38.888 109.028 40.736 111.758 44.054 111.758ZM77.3722 116H71.9962V103.736C71.9962 100.922 70.5262 99.956 68.2582 99.956C66.1582 99.956 64.5622 101.132 63.6382 102.308V116H58.3042V95.714H63.6382V98.318C64.9402 96.806 67.4602 95.21 70.7362 95.21C75.2302 95.21 77.3722 97.73 77.3722 101.678V116ZM117.74 116H111.734V104.198H98.5036V116H92.5396V87.986H98.5036V98.99H111.734V87.986H117.74V116ZM125.28 93.53C123.558 93.53 122.13 92.102 122.13 90.338C122.13 88.574 123.558 87.188 125.28 87.188C127.044 87.188 128.472 88.574 128.472 90.338C128.472 92.102 127.044 93.53 125.28 93.53ZM127.968 116H122.634V95.714H127.968V116ZM141.073 124.232C137.629 124.232 134.899 123.434 132.337 121.208L134.731 117.386C136.369 119.15 138.553 119.864 141.073 119.864C143.635 119.864 146.701 118.772 146.701 114.656V112.682C145.105 114.698 142.921 115.832 140.401 115.832C135.361 115.832 131.455 112.304 131.455 105.542C131.455 98.906 135.277 95.21 140.401 95.21C142.837 95.21 145.063 96.218 146.701 98.318V95.714H152.035V114.656C152.035 122.342 146.071 124.232 141.073 124.232ZM142.123 111.128C143.845 111.128 145.777 110.12 146.701 108.818V102.224C145.777 100.922 143.845 99.956 142.123 99.956C139.057 99.956 136.957 102.056 136.957 105.542C136.957 109.028 139.057 111.128 142.123 111.128ZM175.894 116H170.56V103.652C170.56 100.838 169.09 99.956 166.822 99.956C164.722 99.956 163.084 101.132 162.202 102.308V116H156.826V87.986H162.202V98.318C163.504 96.806 165.982 95.21 169.3 95.21C173.752 95.21 175.894 97.646 175.894 101.594V116ZM201.098 116.504C195.68 116.504 191.816 114.698 189.17 112.052L192.446 107.39C194.42 109.448 197.486 111.212 201.35 111.212C204.668 111.212 206.222 109.742 206.222 108.104C206.222 103.232 190.094 106.634 190.094 96.092C190.094 91.43 194.126 87.566 200.72 87.566C205.172 87.566 208.868 88.91 211.64 91.472L208.322 95.924C206.054 93.824 203.03 92.858 200.174 92.858C197.654 92.858 196.226 93.95 196.226 95.63C196.226 100.04 212.312 97.058 212.312 107.516C212.312 112.64 208.616 116.504 201.098 116.504ZM225.11 116.504C218.894 116.504 214.358 112.094 214.358 105.836C214.358 99.62 218.894 95.21 225.11 95.21C229.268 95.21 231.788 97.016 233.132 98.864L229.646 102.14C228.68 100.712 227.21 99.956 225.362 99.956C222.128 99.956 219.86 102.308 219.86 105.836C219.86 109.364 222.128 111.758 225.362 111.758C227.21 111.758 228.68 110.918 229.646 109.532L233.132 112.808C231.788 114.656 229.268 116.504 225.11 116.504ZM255.187 116H249.853V103.652C249.853 100.838 248.383 99.956 246.115 99.956C244.015 99.956 242.377 101.132 241.495 102.308V116H236.119V87.986H241.495V98.318C242.797 96.806 245.275 95.21 248.593 95.21C253.045 95.21 255.187 97.646 255.187 101.594V116ZM269.39 116.504C262.712 116.504 258.68 111.59 258.68 105.836C258.68 100.082 262.712 95.21 269.39 95.21C276.11 95.21 280.142 100.082 280.142 105.836C280.142 111.59 276.11 116.504 269.39 116.504ZM269.39 111.758C272.75 111.758 274.598 109.028 274.598 105.836C274.598 102.686 272.75 99.956 269.39 99.956C266.072 99.956 264.224 102.686 264.224 105.836C264.224 109.028 266.072 111.758 269.39 111.758ZM293.048 116.504C286.37 116.504 282.338 111.59 282.338 105.836C282.338 100.082 286.37 95.21 293.048 95.21C299.768 95.21 303.8 100.082 303.8 105.836C303.8 111.59 299.768 116.504 293.048 116.504ZM293.048 111.758C296.408 111.758 298.256 109.028 298.256 105.836C298.256 102.686 296.408 99.956 293.048 99.956C289.73 99.956 287.882 102.686 287.882 105.836C287.882 109.028 289.73 111.758 293.048 111.758ZM312.632 116H307.298V87.986H312.632V116ZM358.201 116H352.195V95.798L344.299 116H341.695L333.799 95.798V116H327.834V87.986H336.193L342.997 105.5L349.801 87.986H358.201V116ZM380.694 116H375.318V113.858C373.932 115.538 371.538 116.504 368.892 116.504C365.658 116.504 361.878 114.32 361.878 109.784C361.878 104.996 365.658 103.232 368.892 103.232C371.622 103.232 373.974 104.114 375.318 105.71V103.148C375.318 101.09 373.554 99.746 370.866 99.746C368.724 99.746 366.708 100.586 365.028 102.14L362.928 98.402C365.406 96.176 368.598 95.21 371.79 95.21C376.452 95.21 380.694 97.058 380.694 102.896V116ZM371.034 112.892C372.756 112.892 374.436 112.304 375.318 111.128V108.608C374.436 107.432 372.756 106.802 371.034 106.802C368.934 106.802 367.212 107.936 367.212 109.868C367.212 111.8 368.934 112.892 371.034 112.892ZM392.247 116.504C388.509 116.504 386.535 114.572 386.535 110.918V100.376H383.175V95.714H386.535V90.17H391.869V95.714H395.985V100.376H391.869V109.49C391.869 110.792 392.541 111.758 393.717 111.758C394.515 111.758 395.271 111.464 395.565 111.128L396.699 115.202C395.901 115.916 394.473 116.504 392.247 116.504ZM418.202 116H412.868V103.652C412.868 100.838 411.398 99.956 409.13 99.956C407.03 99.956 405.392 101.132 404.51 102.308V116H399.134V87.986H404.51V98.318C405.812 96.806 408.29 95.21 411.608 95.21C416.06 95.21 418.202 97.646 418.202 101.594V116ZM439.375 116H433.411V87.986H446.515C452.605 87.986 455.923 92.102 455.923 97.016C455.923 101.888 452.563 106.004 446.515 106.004H439.375V116ZM445.675 100.754C448.027 100.754 449.833 99.326 449.833 97.016C449.833 94.664 448.027 93.236 445.675 93.236H439.375V100.754H445.675ZM464.369 116H459.035V95.714H464.369V98.444C465.839 96.68 468.317 95.21 470.837 95.21V100.418C470.459 100.334 469.997 100.292 469.367 100.292C467.603 100.292 465.251 101.3 464.369 102.602V116ZM483.077 116.504C476.399 116.504 472.367 111.59 472.367 105.836C472.367 100.082 476.399 95.21 483.077 95.21C489.797 95.21 493.829 100.082 493.829 105.836C493.829 111.59 489.797 116.504 483.077 116.504ZM483.077 111.758C486.437 111.758 488.285 109.028 488.285 105.836C488.285 102.686 486.437 99.956 483.077 99.956C479.759 99.956 477.911 102.686 477.911 105.836C477.911 109.028 479.759 111.758 483.077 111.758ZM502.662 109.49C503.586 110.792 505.518 111.758 507.282 111.758C510.348 111.758 512.406 109.364 512.406 105.836C512.406 102.35 510.348 99.956 507.282 99.956C505.518 99.956 503.586 100.964 502.662 102.308V109.49ZM502.662 116H497.328V87.986H502.662V98.318C504.258 96.218 506.526 95.21 508.92 95.21C514.086 95.21 517.908 99.242 517.908 105.836C517.908 112.64 514.044 116.504 508.92 116.504C506.484 116.504 504.258 115.412 502.662 113.396V116ZM526.771 116H521.437V87.986H526.771V116ZM541.094 116.504C534.92 116.504 530.258 112.346 530.258 105.836C530.258 99.956 534.626 95.21 540.758 95.21C546.848 95.21 550.922 99.746 550.922 106.34V107.6H535.844C536.222 110.078 538.238 112.136 541.682 112.136C543.404 112.136 545.756 111.422 547.058 110.162L549.452 113.69C547.436 115.538 544.244 116.504 541.094 116.504ZM545.798 103.904C545.63 101.972 544.286 99.578 540.758 99.578C537.44 99.578 536.012 101.888 535.802 103.904H545.798ZM584.809 116H579.433V103.19C579.433 101.3 578.593 99.956 576.409 99.956C574.519 99.956 572.965 101.216 572.209 102.308V116H566.833V103.19C566.833 101.3 565.993 99.956 563.809 99.956C561.961 99.956 560.407 101.216 559.609 102.308V116H554.275V95.714H559.609V98.318C560.491 97.142 563.137 95.21 566.245 95.21C569.227 95.21 571.159 96.596 571.873 98.864C573.049 97.058 575.737 95.21 578.845 95.21C582.583 95.21 584.809 97.184 584.809 101.342V116ZM596.89 116.504C593.362 116.504 589.96 115.328 587.818 113.354L590.128 109.49C591.64 110.918 594.622 112.304 597.142 112.304C599.452 112.304 600.544 111.422 600.544 110.162C600.544 106.844 588.532 109.574 588.532 101.594C588.532 98.192 591.472 95.21 596.848 95.21C600.25 95.21 602.98 96.386 604.996 97.982L602.854 101.762C601.636 100.502 599.326 99.41 596.848 99.41C594.916 99.41 593.656 100.25 593.656 101.384C593.656 104.366 605.71 101.846 605.71 110.036C605.71 113.774 602.518 116.504 596.89 116.504ZM615.145 100.628H612.499L612.709 96.008L608.845 98.486L607.501 96.218L611.575 94.076L607.501 91.976L608.845 89.708L612.709 92.186L612.499 87.566H615.145L614.935 92.186L618.799 89.708L620.143 91.976L616.069 94.076L620.143 96.218L618.799 98.486L614.935 96.008L615.145 100.628Z" fill="white"/>
<path d="M503.49 61.49C504.414 62.792 506.346 63.758 508.11 63.758C511.176 63.758 513.234 61.364 513.234 57.836C513.234 54.35 511.176 51.956 508.11 51.956C506.346 51.956 504.414 52.964 503.49 54.308V61.49ZM503.49 68H498.156V39.986H503.49V50.318C505.086 48.218 507.354 47.21 509.748 47.21C514.914 47.21 518.736 51.242 518.736 57.836C518.736 64.64 514.872 68.504 509.748 68.504C507.312 68.504 505.086 67.412 503.49 65.396V68ZM521.593 75.896L522.349 71.15C522.811 71.36 523.525 71.486 524.029 71.486C525.415 71.486 526.339 71.108 526.843 70.016L527.599 68.252L519.367 47.714H525.079L530.371 61.826L535.705 47.714H541.417L531.883 71.318C530.371 75.14 527.683 76.148 524.197 76.232C523.609 76.232 522.223 76.106 521.593 75.896ZM573.997 68H552.913V63.296C564.379 54.812 567.739 51.956 567.739 48.512C567.739 46.034 565.513 44.858 563.203 44.858C560.011 44.858 557.575 46.118 555.685 48.092L552.283 44.144C555.013 40.994 559.171 39.566 563.077 39.566C569.083 39.566 573.787 42.926 573.787 48.512C573.787 53.3 569.839 57.458 562.573 62.75H573.997V68ZM580.999 68.462C579.151 68.462 577.597 66.908 577.597 65.06C577.597 63.212 579.151 61.658 580.999 61.658C582.847 61.658 584.401 63.212 584.401 65.06C584.401 66.908 582.847 68.462 580.999 68.462ZM598.028 68.504C590.006 68.504 586.436 61.238 586.436 54.014C586.436 46.79 590.006 39.566 598.028 39.566C606.05 39.566 609.62 46.79 609.62 54.014C609.62 61.238 606.05 68.504 598.028 68.504ZM598.028 63.212C602.018 63.212 603.53 59.18 603.53 54.014C603.53 48.848 602.06 44.858 598.028 44.858C594.038 44.858 592.526 48.848 592.526 54.014C592.526 59.18 594.038 63.212 598.028 63.212ZM622.187 68H615.635L625.673 45.236H611.561V39.986H632.603V44.144L622.187 68ZM654.107 68H648.143L643.523 61.154L638.861 68H632.939L640.163 57.584L633.359 47.714H639.323L643.523 53.93L647.681 47.714H653.645L646.883 57.584L654.107 68Z" fill="#FDB300"/>
<path d="M1117.1 40.9048C1116.57 40.2193 1115.87 39.6416 1114.99 39.1813C1114.11 38.7211 1113.08 38.4861 1111.91 38.4861C1110.61 38.4861 1109.41 38.8092 1108.33 39.4555C1107.26 40.1018 1106.4 41.0027 1105.78 42.1582C1105.15 43.3138 1104.84 44.6553 1104.84 46.1536C1104.84 47.6616 1105.15 49.0032 1105.78 50.188C1106.4 51.3729 1107.25 52.3032 1108.32 52.9593C1109.39 53.6252 1110.58 53.9483 1111.86 53.9483C1113.01 53.9483 1114.05 53.7133 1114.96 53.2433C1115.87 52.7732 1116.59 52.1857 1117.11 51.4708V53.7035H1120.23V38.7211H1117.11L1117.1 40.9048ZM1116.46 48.915C1116.03 49.6886 1115.48 50.2664 1114.79 50.6679C1114.1 51.0694 1113.36 51.2652 1112.55 51.2652C1111.77 51.2652 1111.04 51.0596 1110.34 50.6581C1109.65 50.2468 1109.08 49.6592 1108.66 48.8759C1108.23 48.0925 1108.02 47.1916 1108.02 46.1536C1108.02 45.1156 1108.24 44.2244 1108.66 43.4704C1109.08 42.7164 1109.64 42.1485 1110.33 41.7568C1111.02 41.3651 1111.76 41.1692 1112.56 41.1692C1113.36 41.1692 1114.1 41.3651 1114.8 41.7665C1115.48 42.168 1116.04 42.7458 1116.47 43.5096C1116.89 44.2734 1117.11 45.1645 1117.11 46.2025C1117.1 47.2405 1116.88 48.1414 1116.46 48.915Z" fill="#F0F5FC"/>
<path d="M1131.41 45.8892C1130.72 45.5856 1129.83 45.2918 1128.73 45.0079C1127.92 44.7728 1127.3 44.577 1126.88 44.4203C1126.46 44.2636 1126.11 44.058 1125.82 43.7838C1125.53 43.5096 1125.39 43.1767 1125.39 42.7752C1125.39 42.266 1125.61 41.8645 1126.05 41.5511C1126.48 41.2476 1127.11 41.0909 1127.93 41.0909C1128.76 41.0909 1129.43 41.2867 1129.92 41.6882C1130.41 42.0897 1130.68 42.6185 1130.73 43.2942H1133.83C1133.76 41.8057 1133.21 40.6307 1132.16 39.7689C1131.12 38.9072 1129.74 38.4763 1128.04 38.4763C1126.89 38.4763 1125.88 38.6624 1125 39.0443C1124.12 39.4262 1123.44 39.9452 1122.97 40.6111C1122.5 41.277 1122.27 42.0016 1122.27 42.8046C1122.27 43.7838 1122.52 44.5672 1123.04 45.1743C1123.56 45.7717 1124.17 46.2123 1124.87 46.5061C1125.58 46.7999 1126.5 47.0937 1127.61 47.407C1128.77 47.7302 1129.62 48.0337 1130.16 48.3079C1130.7 48.5821 1130.96 48.9934 1130.96 49.5613C1130.96 50.0901 1130.72 50.521 1130.24 50.8539C1129.76 51.1869 1129.08 51.3534 1128.21 51.3534C1127.38 51.3534 1126.68 51.1379 1126.14 50.7169C1125.59 50.2958 1125.28 49.7572 1125.23 49.1305H1122.01C1122.05 50.0412 1122.34 50.8539 1122.89 51.5884C1123.43 52.3228 1124.17 52.9006 1125.1 53.3314C1126.03 53.7525 1127.09 53.9679 1128.26 53.9679C1129.42 53.9679 1130.44 53.7819 1131.3 53.4C1132.16 53.0181 1132.82 52.4893 1133.29 51.8234C1133.76 51.1575 1134 50.3937 1134 49.5418C1133.98 48.5821 1133.72 47.8085 1133.21 47.2307C1132.72 46.6334 1132.11 46.1928 1131.41 45.8892Z" fill="#F0F5FC"/>
<path d="M1139.88 35H1136.76V38.7211H1134.99V41.2476H1136.76V49.5418C1136.76 51.0106 1137.13 52.0682 1137.88 52.7243C1138.62 53.3804 1139.69 53.7035 1141.09 53.7035H1143.54V51.1183H1141.64C1141 51.1183 1140.55 51.0008 1140.3 50.756C1140.03 50.5112 1139.9 50.1097 1139.9 49.5418V41.2476H1143.55V38.7211H1139.9V35H1139.88Z" fill="#F0F5FC"/>
<path d="M1148.39 40.9048V38.7309H1145.29V53.7133H1148.39V45.8304C1148.39 44.3028 1148.71 43.2354 1149.33 42.6185C1149.96 42.0016 1150.88 41.698 1152.1 41.698H1152.89V38.4861C1151.85 38.4861 1150.96 38.7015 1150.21 39.1226C1149.45 39.5437 1148.85 40.141 1148.39 40.9048Z" fill="#F0F5FC"/>
<path d="M1165.74 38.7309V40.9048C1165.21 40.2193 1164.51 39.6416 1163.63 39.1813C1162.75 38.7211 1161.72 38.4861 1160.55 38.4861C1159.24 38.4861 1158.05 38.8092 1156.97 39.4555C1155.9 40.1018 1155.04 41.0027 1154.42 42.1582C1153.79 43.3138 1153.48 44.6553 1153.48 46.1536C1153.48 47.6616 1153.79 49.0032 1154.42 50.188C1155.04 51.3729 1155.89 52.3032 1156.96 52.9593C1158.03 53.6252 1159.22 53.9483 1160.5 53.9483C1161.65 53.9483 1162.69 53.7133 1163.6 53.2433C1164.51 52.7732 1165.23 52.1857 1165.75 51.4708V53.7035H1168.87V38.7211L1165.74 38.7309ZM1165.1 48.915C1164.67 49.6886 1164.12 50.2664 1163.43 50.6679C1162.74 51.0694 1162 51.2652 1161.19 51.2652C1160.41 51.2652 1159.68 51.0596 1158.98 50.6581C1158.28 50.2468 1157.72 49.6592 1157.3 48.8759C1156.86 48.0925 1156.66 47.1916 1156.66 46.1536C1156.66 45.1156 1156.87 44.2244 1157.3 43.4704C1157.72 42.7164 1158.28 42.1485 1158.97 41.7568C1159.66 41.3651 1160.4 41.1692 1161.2 41.1692C1162 41.1692 1162.74 41.3651 1163.44 41.7665C1164.12 42.168 1164.68 42.7458 1165.11 43.5096C1165.53 44.2734 1165.75 45.1645 1165.75 46.2025C1165.74 47.2405 1165.53 48.1414 1165.1 48.915Z" fill="#F0F5FC"/>
<path d="M1099.85 48.8562C1099.38 47.9749 1098.75 47.1328 1097.97 46.3592C1097.88 46.2612 1097.77 46.1633 1097.66 46.0654C1097.61 46.7215 1097.51 47.358 1097.39 47.9945C1097.29 48.4743 1097.17 48.9248 1097.02 49.3752C1097.2 49.62 1097.36 49.8649 1097.48 50.1097C1097.83 50.756 1098.32 51.9898 1097.76 52.9593C1097.04 54.2029 1094.58 54.6044 1091.81 53.5076C1091.7 53.4587 1090.75 53.018 1090.37 52.8124C1089.99 52.5969 1089.64 52.3521 1089.3 52.0975C1088.94 51.8331 1088.6 51.5394 1088.3 51.2456C1087.68 50.6483 1087.18 49.9922 1086.83 49.3361C1086.64 49.0031 1086.47 48.6408 1086.32 48.2295C1086.12 48.3274 1085.93 48.4254 1085.74 48.5331C1085.36 48.7485 1085.01 48.9933 1084.69 49.2479C1084.48 49.4242 1084.26 49.6005 1084.07 49.7963L1084.06 49.8061C1084.18 50.0803 1084.31 50.3447 1084.45 50.5895C1085.01 51.6275 1085.8 52.6263 1086.78 53.4978C1084.02 54.5946 1081.55 54.1931 1080.84 52.9495C1080.28 51.98 1080.77 50.7462 1081.11 50.0999C1081.45 49.4536 1081.95 48.8073 1082.56 48.2197C1082.8 47.9847 1083.07 47.7497 1083.34 47.5343C1083.75 47.2111 1084.2 46.9075 1084.67 46.6334C1085.05 46.4179 1085.43 46.2221 1085.82 46.0556C1086.98 45.5562 1088.16 45.2918 1089.22 45.2918H1089.38C1090.09 45.2918 1090.85 45.4093 1091.63 45.6443C1092.01 45.7618 1092.4 45.8989 1092.78 46.0654C1092.74 46.4277 1092.69 46.7704 1092.61 47.1034C1092.43 47.8966 1092.16 48.6114 1091.83 49.199C1091.83 49.2088 1091.82 49.2186 1091.82 49.2186C1091.61 49.6592 1091.3 50.1195 1090.92 50.5699C1091.1 50.6874 1091.28 50.8049 1091.47 50.9126C1091.76 51.0791 1092.64 51.4806 1092.64 51.4806C1092.9 51.5883 1093.41 51.7352 1093.42 51.745C1093.69 51.3729 1093.93 50.991 1094.13 50.6091C1094.63 49.718 1095.02 48.68 1095.26 47.5441C1095.45 46.6725 1095.54 45.7325 1095.54 44.7532V44.4692C1095.45 39.4653 1092.74 35.5973 1089.31 35.5973C1086.51 35.5973 1084.2 38.1727 1083.38 41.8253C1083.97 41.5413 1084.58 41.3063 1085.18 41.1006C1085.64 40.944 1086.1 40.8264 1086.57 40.7187C1087.26 39.1911 1088.32 38.2706 1089.31 38.2706C1090.75 38.2706 1092.32 40.2193 1092.75 43.1668C1091.59 42.7849 1090.41 42.5891 1089.31 42.5989C1088.27 42.6185 1086.95 42.8143 1085.86 43.1668C1085.01 43.4508 1084.15 43.8327 1083.32 44.3028C1083.24 44.3517 1083.15 44.4007 1083.07 44.4594C1081.17 45.6149 1079.63 47.1621 1078.74 48.8464C1077.7 50.8049 1077.62 52.7438 1078.52 54.291C1079.49 55.9655 1081.4 56.8273 1083.68 56.8273C1085.43 56.8273 1087.4 56.3083 1089.31 55.2605C1091.22 56.3083 1093.17 56.8273 1094.94 56.8273C1097.21 56.8273 1099.13 55.9655 1100.1 54.291C1100.98 52.7537 1100.9 50.8147 1099.85 48.8562Z" fill="#FDB300"/>
<path d="M1187.74 36.5472H1177C1174.65 36.5472 1172.74 38.4666 1172.74 40.8265V51.6178C1172.74 53.9778 1174.65 55.8971 1177 55.8971H1187.74C1190.09 55.8971 1192 53.9778 1192 51.6178V40.8265C1192 38.4666 1190.09 36.5472 1187.74 36.5472ZM1190.54 51.6178C1190.54 53.165 1189.29 54.4282 1187.74 54.4282H1177C1175.46 54.4282 1174.2 53.1748 1174.2 51.6178V40.8265C1174.2 39.2793 1175.45 38.0161 1177 38.0161H1187.74C1189.28 38.0161 1190.54 39.2695 1190.54 40.8265V51.6178Z" fill="#FDB300"/>
<path d="M1179.62 41.845L1176.52 50.5406H1178.33L1178.9 48.8857H1182.34L1182.9 50.5406H1184.73L1181.63 41.845H1179.62ZM1179.38 47.4952L1180.62 43.8622L1181.86 47.4952H1179.38Z" fill="#F0F5FC"/>
<path d="M1187.21 41.8547H1185.48V50.5406H1187.21V41.8547Z" fill="#F0F5FC"/>
<path d="M1045.55 142.795C1038.42 142.795 1032.44 140.419 1028.3 136.723L1033.85 127.131C1037.01 130.123 1040.36 131.707 1045.55 131.707C1055.23 131.707 1060.25 123.523 1060.25 115.163C1060.25 114.723 1060.25 114.283 1060.25 113.843C1057.43 117.803 1051.53 121.411 1045.11 121.411C1034.55 121.411 1025.13 114.811 1025.13 102.315C1025.13 90.8754 1034.2 82.1634 1047.57 82.1634C1065.44 82.1634 1072.92 95.8914 1072.92 112.435C1072.92 130.211 1062.89 142.795 1045.55 142.795ZM1048.63 110.675C1053.12 110.675 1057.34 108.651 1060.16 105.131C1059.63 99.4994 1056.46 93.2514 1048.28 93.2514C1041.5 93.2514 1037.81 97.8274 1037.81 101.875C1037.81 108.035 1043.17 110.675 1048.63 110.675ZM1100.61 142.883C1088.29 142.883 1077.03 137.515 1077.03 126.603C1077.03 119.475 1082.57 114.019 1089.61 111.555C1083.1 109.267 1077.99 105.043 1077.99 97.7394C1077.99 86.6514 1089.7 82.2514 1100.61 82.2514C1111.43 82.2514 1123.23 86.6514 1123.23 97.7394C1123.23 105.043 1118.03 109.267 1111.61 111.555C1118.56 114.019 1124.19 119.475 1124.19 126.603C1124.19 137.515 1112.93 142.883 1100.61 142.883ZM1100.61 106.627C1104.22 106.011 1110.47 104.163 1110.47 99.8514C1110.47 95.7154 1106.33 93.3394 1100.61 93.3394C1094.8 93.3394 1090.67 95.7154 1090.67 99.8514C1090.67 104.163 1097 106.011 1100.61 106.627ZM1100.61 131.795C1106.59 131.795 1111.52 129.067 1111.52 124.843C1111.52 120.003 1104.22 117.715 1100.61 117.187C1096.91 117.715 1089.7 120.003 1089.7 124.843C1089.7 129.067 1094.45 131.795 1100.61 131.795ZM1142.47 111.467C1133.5 111.467 1127.6 105.131 1127.6 96.9474C1127.6 88.6754 1133.5 82.2514 1142.47 82.2514C1151.54 82.2514 1157.43 88.6754 1157.43 96.9474C1157.43 105.131 1151.54 111.467 1142.47 111.467ZM1143.35 141.827H1136.75L1174.24 83.1314H1180.93L1143.35 141.827ZM1174.77 142.883C1165.79 142.883 1159.9 136.547 1159.9 128.363C1159.9 120.091 1165.79 113.579 1174.77 113.579C1183.74 113.579 1189.73 120.091 1189.73 128.363C1189.73 136.547 1183.74 142.883 1174.77 142.883ZM1142.47 104.603C1146.52 104.603 1149.51 101.611 1149.51 96.9474C1149.51 92.1074 1146.52 89.1154 1142.47 89.1154C1138.51 89.1154 1135.52 92.1074 1135.52 96.9474C1135.52 101.611 1138.51 104.603 1142.47 104.603ZM1174.77 136.019C1178.82 136.019 1181.81 133.115 1181.81 128.363C1181.81 123.523 1178.82 120.531 1174.77 120.531C1170.72 120.531 1167.82 123.523 1167.82 128.363C1167.82 133.115 1170.72 136.019 1174.77 136.019Z" fill="#F1AC0C"/>
<path d="M1064.68 187.627H1062.25L1061.64 185.932H1057.35L1056.72 187.627H1054.29L1058.16 177.622H1060.83L1064.68 187.627ZM1061.05 184.057L1059.49 179.752L1057.93 184.057H1061.05ZM1069.94 187.807C1066.94 187.807 1064.61 185.707 1064.61 182.632C1064.61 179.557 1066.94 177.457 1069.94 177.457C1072.14 177.457 1073.42 178.657 1074.12 179.902L1072.29 180.802C1071.87 179.992 1070.97 179.347 1069.94 179.347C1068.12 179.347 1066.8 180.742 1066.8 182.632C1066.8 184.522 1068.12 185.917 1069.94 185.917C1070.97 185.917 1071.87 185.287 1072.29 184.462L1074.12 185.347C1073.4 186.592 1072.14 187.807 1069.94 187.807ZM1080.24 187.807C1077.24 187.807 1074.91 185.707 1074.91 182.632C1074.91 179.557 1077.24 177.457 1080.24 177.457C1082.44 177.457 1083.72 178.657 1084.42 179.902L1082.59 180.802C1082.17 179.992 1081.27 179.347 1080.24 179.347C1078.42 179.347 1077.1 180.742 1077.1 182.632C1077.1 184.522 1078.42 185.917 1080.24 185.917C1081.27 185.917 1082.17 185.287 1082.59 184.462L1084.42 185.347C1083.7 186.592 1082.44 187.807 1080.24 187.807ZM1090.21 187.807C1087.16 187.807 1085.69 186.097 1085.69 183.637V177.622H1087.85V183.562C1087.85 184.957 1088.66 185.917 1090.21 185.917C1091.75 185.917 1092.55 184.957 1092.55 183.562V177.622H1094.72V183.622C1094.72 186.112 1093.25 187.807 1090.21 187.807ZM1104.79 187.627H1102.35L1100.38 184.072H1098.82V187.627H1096.69V177.622H1101.37C1103.46 177.622 1104.73 178.987 1104.73 180.847C1104.73 182.617 1103.62 183.562 1102.54 183.817L1104.79 187.627ZM1101.06 182.197C1101.91 182.197 1102.56 181.687 1102.56 180.847C1102.56 180.007 1101.91 179.497 1101.06 179.497H1098.82V182.197H1101.06ZM1115.66 187.627H1113.23L1112.61 185.932H1108.32L1107.69 187.627H1105.26L1109.13 177.622H1111.8L1115.66 187.627ZM1112.03 184.057L1110.47 179.752L1108.91 184.057H1112.03ZM1120.92 187.807C1117.92 187.807 1115.59 185.707 1115.59 182.632C1115.59 179.557 1117.92 177.457 1120.92 177.457C1123.12 177.457 1124.4 178.657 1125.1 179.902L1123.27 180.802C1122.85 179.992 1121.95 179.347 1120.92 179.347C1119.1 179.347 1117.78 180.742 1117.78 182.632C1117.78 184.522 1119.1 185.917 1120.92 185.917C1121.95 185.917 1122.85 185.287 1123.27 184.462L1125.1 185.347C1124.38 186.592 1123.12 187.807 1120.92 187.807ZM1130.94 187.627H1128.81V183.532L1124.95 177.622H1127.38L1129.87 181.642L1132.33 177.622H1134.76L1130.94 183.532V187.627ZM1147.62 187.627H1145.18L1143.21 184.072H1141.65V187.627H1139.52V177.622H1144.2C1146.29 177.622 1147.56 178.987 1147.56 180.847C1147.56 182.617 1146.45 183.562 1145.37 183.817L1147.62 187.627ZM1143.89 182.197C1144.74 182.197 1145.39 181.687 1145.39 180.847C1145.39 180.007 1144.74 179.497 1143.89 179.497H1141.65V182.197H1143.89ZM1156.24 187.627H1149.16V177.622H1156.24V179.497H1151.29V181.612H1156.14V183.487H1151.29V185.752H1156.24V187.627ZM1161.46 187.807C1159.54 187.807 1158.16 187.162 1157.23 186.217L1158.39 184.597C1159.09 185.332 1160.19 185.947 1161.57 185.947C1162.74 185.947 1163.31 185.407 1163.31 184.837C1163.31 183.067 1157.55 184.282 1157.55 180.517C1157.55 178.852 1158.99 177.472 1161.34 177.472C1162.93 177.472 1164.25 177.952 1165.24 178.867L1164.06 180.427C1163.25 179.677 1162.17 179.332 1161.15 179.332C1160.23 179.332 1159.72 179.737 1159.72 180.337C1159.72 181.927 1165.47 180.862 1165.47 184.597C1165.47 186.427 1164.16 187.807 1161.46 187.807ZM1171.42 187.807C1168.37 187.807 1166.9 186.097 1166.9 183.637V177.622H1169.06V183.562C1169.06 184.957 1169.87 185.917 1171.42 185.917C1172.96 185.917 1173.76 184.957 1173.76 183.562V177.622H1175.93V183.622C1175.93 186.112 1174.46 187.807 1171.42 187.807ZM1184.26 187.627H1177.9V177.622H1180.03V185.752H1184.26V187.627ZM1188.71 187.627H1186.57V179.497H1183.64V177.622H1191.62V179.497H1188.71V187.627Z" fill="#F0F5FC"/>
<path d="M38.24 383.792C35.104 383.792 32.544 381.632 32.544 378.272C32.544 374.896 35.104 372.752 38.24 372.752C40.448 372.752 41.84 373.872 42.64 375.136L40.768 376.16C40.272 375.408 39.36 374.768 38.24 374.768C36.288 374.768 34.88 376.256 34.88 378.272C34.88 380.288 36.288 381.776 38.24 381.776C39.184 381.776 40.064 381.36 40.496 380.96V379.68H37.68V377.696H42.768V381.792C41.68 383.008 40.16 383.792 38.24 383.792ZM46.8436 383.6H44.5716V372.928H49.5636C51.8836 372.928 53.1476 374.496 53.1476 376.368C53.1476 378.224 51.8676 379.792 49.5636 379.792H46.8436V383.6ZM49.2436 377.792C50.1396 377.792 50.8276 377.248 50.8276 376.368C50.8276 375.472 50.1396 374.928 49.2436 374.928H46.8436V377.792H49.2436ZM59.3236 383.6H57.0356V374.928H53.9156V372.928H62.4276V374.928H59.3236V383.6ZM66.195 380.592H62.355V378.864H66.195V380.592ZM74.4479 383.6H72.1759V381.392H67.0719V379.6L71.3119 372.928H74.4479V379.392H75.8239V381.392H74.4479V383.6ZM72.1759 379.392V374.944L69.2959 379.392H72.1759ZM80.8108 383.792C78.2668 383.792 76.7308 381.92 76.7308 379.728C76.7308 377.536 78.2668 375.68 80.8108 375.68C83.3708 375.68 84.9068 377.536 84.9068 379.728C84.9068 381.92 83.3708 383.792 80.8108 383.792ZM80.8108 381.984C82.0908 381.984 82.7948 380.944 82.7948 379.728C82.7948 378.528 82.0908 377.488 80.8108 377.488C79.5468 377.488 78.8428 378.528 78.8428 379.728C78.8428 380.944 79.5468 381.984 80.8108 381.984ZM102.171 383.6H100.123V378.72C100.123 378 99.8033 377.488 98.9713 377.488C98.2513 377.488 97.6593 377.968 97.3713 378.384V383.6H95.3233V378.72C95.3233 378 95.0033 377.488 94.1713 377.488C93.4673 377.488 92.8753 377.968 92.5713 378.384V383.6H90.5393V375.872H92.5713V376.864C92.9073 376.416 93.9153 375.68 95.0993 375.68C96.2353 375.68 96.9713 376.208 97.2433 377.072C97.6913 376.384 98.7153 375.68 99.8993 375.68C101.323 375.68 102.171 376.432 102.171 378.016V383.6ZM105.188 375.04C104.532 375.04 103.988 374.496 103.988 373.824C103.988 373.152 104.532 372.624 105.188 372.624C105.86 372.624 106.404 373.152 106.404 373.824C106.404 374.496 105.86 375.04 105.188 375.04ZM106.212 383.6H104.18V375.872H106.212V383.6ZM115.491 383.6H113.443V378.928C113.443 377.856 112.883 377.488 112.019 377.488C111.219 377.488 110.611 377.936 110.259 378.384V383.6H108.227V375.872H110.259V376.864C110.755 376.288 111.715 375.68 112.963 375.68C114.675 375.68 115.491 376.64 115.491 378.144V383.6ZM118.5 375.04C117.844 375.04 117.3 374.496 117.3 373.824C117.3 373.152 117.844 372.624 118.5 372.624C119.172 372.624 119.716 373.152 119.716 373.824C119.716 374.496 119.172 375.04 118.5 375.04ZM119.524 383.6H117.492V375.872H119.524V383.6ZM129.105 385.792L127.841 386.784C126.273 385.04 125.297 382.288 125.297 379.712C125.297 377.136 126.273 374.384 127.841 372.64L129.105 373.6C128.033 375.552 127.489 377.312 127.489 379.712C127.489 382.096 128.033 383.872 129.105 385.792ZM135.631 383.792C132.415 383.792 129.935 381.552 129.935 378.272C129.935 374.976 132.415 372.752 135.631 372.752C137.967 372.752 139.327 374.016 140.079 375.36L138.127 376.32C137.679 375.456 136.719 374.768 135.631 374.768C133.679 374.768 132.271 376.256 132.271 378.272C132.271 380.288 133.679 381.776 135.631 381.776C136.719 381.776 137.679 381.088 138.127 380.224L140.079 381.168C139.327 382.496 137.967 383.792 135.631 383.792ZM148.647 383.6H146.615V378.896C146.615 377.824 146.055 377.488 145.191 377.488C144.391 377.488 143.767 377.936 143.431 378.384V383.6H141.383V372.928H143.431V376.864C143.927 376.288 144.871 375.68 146.135 375.68C147.831 375.68 148.647 376.608 148.647 378.112V383.6ZM157.352 383.6H155.304V382.784C154.776 383.424 153.864 383.792 152.856 383.792C151.624 383.792 150.184 382.96 150.184 381.232C150.184 379.408 151.624 378.736 152.856 378.736C153.896 378.736 154.792 379.072 155.304 379.68V378.704C155.304 377.92 154.632 377.408 153.608 377.408C152.792 377.408 152.024 377.728 151.384 378.32L150.584 376.896C151.528 376.048 152.744 375.68 153.96 375.68C155.736 375.68 157.352 376.384 157.352 378.608V383.6ZM153.672 382.416C154.328 382.416 154.968 382.192 155.304 381.744V380.784C154.968 380.336 154.328 380.096 153.672 380.096C152.872 380.096 152.216 380.528 152.216 381.264C152.216 382 152.872 382.416 153.672 382.416ZM161.944 383.792C160.52 383.792 159.768 383.056 159.768 381.664V377.648H158.488V375.872H159.768V373.76H161.8V375.872H163.368V377.648H161.8V381.12C161.8 381.616 162.056 381.984 162.504 381.984C162.808 381.984 163.096 381.872 163.208 381.744L163.64 383.296C163.336 383.568 162.792 383.792 161.944 383.792ZM169.99 383.792C166.854 383.792 164.294 381.632 164.294 378.272C164.294 374.896 166.854 372.752 169.99 372.752C172.198 372.752 173.59 373.872 174.39 375.136L172.518 376.16C172.022 375.408 171.11 374.768 169.99 374.768C168.038 374.768 166.63 376.256 166.63 378.272C166.63 380.288 168.038 381.776 169.99 381.776C170.934 381.776 171.814 381.36 172.246 380.96V379.68H169.43V377.696H174.518V381.792C173.43 383.008 171.91 383.792 169.99 383.792ZM178.594 383.6H176.322V372.928H181.314C183.634 372.928 184.898 374.496 184.898 376.368C184.898 378.224 183.618 379.792 181.314 379.792H178.594V383.6ZM180.994 377.792C181.89 377.792 182.578 377.248 182.578 376.368C182.578 375.472 181.89 374.928 180.994 374.928H178.594V377.792H180.994ZM191.074 383.6H188.786V374.928H185.666V372.928H194.178V374.928H191.074V383.6ZM202.016 383.6H199.743V372.928H207.296V374.928H202.016V377.168H207.184V379.168H202.016V383.6ZM210.868 383.6H208.836V375.872H210.868V376.912C211.428 376.24 212.372 375.68 213.332 375.68V377.664C213.188 377.632 213.012 377.616 212.772 377.616C212.1 377.616 211.204 378 210.868 378.496V383.6ZM218.234 383.792C215.882 383.792 214.106 382.208 214.106 379.728C214.106 377.488 215.77 375.68 218.106 375.68C220.426 375.68 221.978 377.408 221.978 379.92V380.4H216.234C216.378 381.344 217.146 382.128 218.458 382.128C219.114 382.128 220.01 381.856 220.506 381.376L221.418 382.72C220.65 383.424 219.434 383.792 218.234 383.792ZM220.026 378.992C219.962 378.256 219.45 377.344 218.106 377.344C216.842 377.344 216.298 378.224 216.218 378.992H220.026ZM227.078 383.792C224.726 383.792 222.95 382.208 222.95 379.728C222.95 377.488 224.614 375.68 226.95 375.68C229.27 375.68 230.822 377.408 230.822 379.92V380.4H225.078C225.222 381.344 225.99 382.128 227.302 382.128C227.958 382.128 228.854 381.856 229.35 381.376L230.262 382.72C229.494 383.424 228.278 383.792 227.078 383.792ZM228.87 378.992C228.806 378.256 228.294 377.344 226.95 377.344C225.686 377.344 225.142 378.224 225.062 378.992H228.87ZM231.569 385.792C232.657 383.872 233.185 382.096 233.185 379.712C233.185 377.312 232.657 375.552 231.569 373.6L232.833 372.64C234.401 374.384 235.393 377.136 235.393 379.712C235.393 382.288 234.401 385.04 232.833 386.784L231.569 385.792Z" fill="#D9D9D9"/>
<path d="M74.768 472H62.272V459.856H34.2V450L57.52 413.304H74.768V448.856H82.336V459.856H74.768V472ZM62.272 448.856V424.392L46.432 448.856H62.272ZM106.884 472H93.1558L114.188 424.304H84.6198V413.304H128.708V422.016L106.884 472ZM145.621 441.64C136.645 441.64 130.749 435.304 130.749 427.12C130.749 418.848 136.645 412.424 145.621 412.424C154.685 412.424 160.581 418.848 160.581 427.12C160.581 435.304 154.685 441.64 145.621 441.64ZM146.501 472H139.901L177.389 413.304H184.077L146.501 472ZM177.917 473.056C168.941 473.056 163.045 466.72 163.045 458.536C163.045 450.264 168.941 443.752 177.917 443.752C186.893 443.752 192.877 450.264 192.877 458.536C192.877 466.72 186.893 473.056 177.917 473.056ZM145.621 434.776C149.669 434.776 152.661 431.784 152.661 427.12C152.661 422.28 149.669 419.288 145.621 419.288C141.661 419.288 138.669 422.28 138.669 427.12C138.669 431.784 141.661 434.776 145.621 434.776ZM177.917 466.192C181.965 466.192 184.957 463.288 184.957 458.536C184.957 453.696 181.965 450.704 177.917 450.704C173.869 450.704 170.965 453.696 170.965 458.536C170.965 463.288 173.869 466.192 177.917 466.192Z" fill="white"/>
<path d="M42.32 518H39.89L39.275 516.305H34.985L34.355 518H31.925L35.795 507.995H38.465L42.32 518ZM38.69 514.43L37.13 510.125L35.57 514.43H38.69ZM47.5762 518.18C44.5762 518.18 42.2512 516.08 42.2512 513.005C42.2512 509.93 44.5762 507.83 47.5762 507.83C49.7812 507.83 51.0562 509.03 51.7612 510.275L49.9312 511.175C49.5112 510.365 48.6112 509.72 47.5762 509.72C45.7612 509.72 44.4412 511.115 44.4412 513.005C44.4412 514.895 45.7612 516.29 47.5762 516.29C48.6112 516.29 49.5112 515.66 49.9312 514.835L51.7612 515.72C51.0412 516.965 49.7812 518.18 47.5762 518.18ZM57.8741 518.18C54.8741 518.18 52.5491 516.08 52.5491 513.005C52.5491 509.93 54.8741 507.83 57.8741 507.83C60.0791 507.83 61.3541 509.03 62.0591 510.275L60.2291 511.175C59.8091 510.365 58.9091 509.72 57.8741 509.72C56.0591 509.72 54.7391 511.115 54.7391 513.005C54.7391 514.895 56.0591 516.29 57.8741 516.29C58.9091 516.29 59.8091 515.66 60.2291 514.835L62.0591 515.72C61.3391 516.965 60.0791 518.18 57.8741 518.18ZM67.8419 518.18C64.7969 518.18 63.3269 516.47 63.3269 514.01V507.995H65.4869V513.935C65.4869 515.33 66.2969 516.29 67.8419 516.29C69.3869 516.29 70.1819 515.33 70.1819 513.935V507.995H72.3569V513.995C72.3569 516.485 70.8869 518.18 67.8419 518.18ZM82.4279 518H79.9829L78.0179 514.445H76.4579V518H74.3279V507.995H79.0079C81.0929 507.995 82.3679 509.36 82.3679 511.22C82.3679 512.99 81.2579 513.935 80.1779 514.19L82.4279 518ZM78.6929 512.57C79.5479 512.57 80.1929 512.06 80.1929 511.22C80.1929 510.38 79.5479 509.87 78.6929 509.87H76.4579V512.57H78.6929ZM93.2966 518H90.8666L90.2516 516.305H85.9616L85.3316 518H82.9016L86.7716 507.995H89.4416L93.2966 518ZM89.6666 514.43L88.1066 510.125L86.5466 514.43H89.6666ZM98.5528 518.18C95.5528 518.18 93.2278 516.08 93.2278 513.005C93.2278 509.93 95.5528 507.83 98.5528 507.83C100.758 507.83 102.033 509.03 102.738 510.275L100.908 511.175C100.488 510.365 99.5878 509.72 98.5528 509.72C96.7378 509.72 95.4178 511.115 95.4178 513.005C95.4178 514.895 96.7378 516.29 98.5528 516.29C99.5878 516.29 100.488 515.66 100.908 514.835L102.738 515.72C102.018 516.965 100.758 518.18 98.5528 518.18ZM108.574 518H106.444V513.905L102.589 507.995H105.019L107.509 512.015L109.969 507.995H112.399L108.574 513.905V518ZM125.26 518H122.815L120.85 514.445H119.29V518H117.16V507.995H121.84C123.925 507.995 125.2 509.36 125.2 511.22C125.2 512.99 124.09 513.935 123.01 514.19L125.26 518ZM121.525 512.57C122.38 512.57 123.025 512.06 123.025 511.22C123.025 510.38 122.38 509.87 121.525 509.87H119.29V512.57H121.525ZM133.879 518H126.799V507.995H133.879V509.87H128.929V511.985H133.774V513.86H128.929V516.125H133.879V518ZM139.099 518.18C137.179 518.18 135.799 517.535 134.869 516.59L136.024 514.97C136.729 515.705 137.824 516.32 139.204 516.32C140.374 516.32 140.944 515.78 140.944 515.21C140.944 513.44 135.184 514.655 135.184 510.89C135.184 509.225 136.624 507.845 138.979 507.845C140.569 507.845 141.889 508.325 142.879 509.24L141.694 510.8C140.884 510.05 139.804 509.705 138.784 509.705C137.869 509.705 137.359 510.11 137.359 510.71C137.359 512.3 143.104 511.235 143.104 514.97C143.104 516.8 141.799 518.18 139.099 518.18ZM149.053 518.18C146.008 518.18 144.538 516.47 144.538 514.01V507.995H146.698V513.935C146.698 515.33 147.508 516.29 149.053 516.29C150.598 516.29 151.393 515.33 151.393 513.935V507.995H153.568V513.995C153.568 516.485 152.098 518.18 149.053 518.18ZM161.899 518H155.539V507.995H157.669V516.125H161.899V518ZM166.351 518H164.206V509.87H161.281V507.995H169.261V509.87H166.351V518Z" fill="#F0F5FC"/>
<path d="M35.015 541.36H34.19L34.265 539.68L32.855 540.58L32.435 539.86L33.92 539.095L32.435 538.33L32.855 537.61L34.265 538.525L34.19 536.845H35.015L34.94 538.525L36.35 537.61L36.77 538.33L35.27 539.095L36.77 539.86L36.35 540.58L34.94 539.68L35.015 541.36ZM39.7952 544.825C40.1552 545.365 40.9202 545.785 41.6702 545.785C42.9152 545.785 43.7102 544.78 43.7102 543.37C43.7102 541.975 42.9152 540.97 41.6702 540.97C40.9202 540.97 40.1552 541.405 39.7952 541.945V544.825ZM39.7952 547H38.2202V536.995H39.7952V540.76C40.3802 539.98 41.2202 539.575 42.1202 539.575C43.9952 539.575 45.3452 541.03 45.3452 543.37C45.3452 545.77 43.9802 547.18 42.1202 547.18C41.1902 547.18 40.3502 546.73 39.7952 546.01V547ZM50.221 547.18C47.911 547.18 46.501 545.44 46.501 543.37C46.501 541.285 47.911 539.575 50.221 539.575C52.531 539.575 53.941 541.285 53.941 543.37C53.941 545.44 52.531 547.18 50.221 547.18ZM50.221 545.785C51.571 545.785 52.306 544.66 52.306 543.37C52.306 542.095 51.571 540.97 50.221 540.97C48.886 540.97 48.136 542.095 48.136 543.37C48.136 544.66 48.886 545.785 50.221 545.785ZM57.7393 547.18C56.5093 547.18 55.8793 546.52 55.8793 545.305V541.12H54.6793V539.755H55.8793V537.775H57.4543V539.755H58.9243V541.12H57.4543V544.915C57.4543 545.41 57.6943 545.785 58.1443 545.785C58.4443 545.785 58.7143 545.65 58.8343 545.515L59.2093 546.715C58.9243 546.97 58.4593 547.18 57.7393 547.18ZM66.8193 547H65.2443V542.44C65.2443 541.3 64.6743 540.97 63.7893 540.97C62.9793 540.97 62.2893 541.45 61.9293 541.93V547H60.3543V536.995H61.9293V540.73C62.4093 540.16 63.3393 539.575 64.4793 539.575C66.0393 539.575 66.8193 540.385 66.8193 541.87V547ZM83.2019 547H81.6269V542.275C81.6269 541.495 81.2819 540.97 80.4269 540.97C79.7219 540.97 79.0619 541.45 78.7469 541.93V547H77.1719V542.275C77.1719 541.495 76.8419 540.97 75.9869 540.97C75.2819 540.97 74.6369 541.465 74.3069 541.93V547H72.7319V539.755H74.3069V540.73C74.6219 540.295 75.5669 539.575 76.6769 539.575C77.7569 539.575 78.4169 540.115 78.6569 540.895C79.0619 540.25 80.0219 539.575 81.1169 539.575C82.4369 539.575 83.2019 540.295 83.2019 541.765V547ZM88.5267 547.18C86.2167 547.18 84.8067 545.44 84.8067 543.37C84.8067 541.285 86.2167 539.575 88.5267 539.575C90.8367 539.575 92.2467 541.285 92.2467 543.37C92.2467 545.44 90.8367 547.18 88.5267 547.18ZM88.5267 545.785C89.8767 545.785 90.6117 544.66 90.6117 543.37C90.6117 542.095 89.8767 540.97 88.5267 540.97C87.1917 540.97 86.4417 542.095 86.4417 543.37C86.4417 544.66 87.1917 545.785 88.5267 545.785ZM100.53 547H98.955V546.01C98.4 546.73 97.575 547.18 96.63 547.18C94.785 547.18 93.42 545.77 93.42 543.37C93.42 541.03 94.77 539.575 96.63 539.575C97.545 539.575 98.385 539.98 98.955 540.76V536.995H100.53V547ZM97.095 545.785C97.83 545.785 98.61 545.35 98.955 544.81V541.945C98.61 541.405 97.83 540.97 97.095 540.97C95.835 540.97 95.04 541.975 95.04 543.37C95.04 544.78 95.835 545.785 97.095 545.785ZM105.931 547.18C103.741 547.18 102.136 545.665 102.136 543.37C102.136 541.27 103.666 539.575 105.811 539.575C107.986 539.575 109.366 541.225 109.366 543.505V543.895H103.786C103.906 544.975 104.716 545.89 106.081 545.89C106.801 545.89 107.626 545.605 108.151 545.08L108.871 546.115C108.136 546.805 107.071 547.18 105.931 547.18ZM107.851 542.77C107.806 541.915 107.221 540.865 105.796 540.865C104.461 540.865 103.831 541.9 103.771 542.77H107.851ZM112.495 547H110.92V536.995H112.495V547ZM117.029 547.18C115.784 547.18 114.674 546.775 113.924 546.04L114.644 544.915C115.154 545.44 116.159 545.92 117.089 545.92C118.034 545.92 118.529 545.53 118.529 544.96C118.529 543.535 114.149 544.555 114.149 541.765C114.149 540.58 115.169 539.575 116.999 539.575C118.229 539.575 119.159 540.01 119.804 540.58L119.144 541.69C118.709 541.21 117.914 540.82 116.999 540.82C116.174 540.82 115.664 541.21 115.664 541.72C115.664 542.995 120.044 542.035 120.044 544.915C120.044 546.205 118.979 547.18 117.029 547.18ZM133.461 547H131.811L130.116 541.69L128.436 547H126.786L124.536 539.755H126.171L127.701 545.02L129.426 539.755H130.821L132.531 545.02L134.061 539.755H135.711L133.461 547ZM140.164 547.18C137.974 547.18 136.369 545.665 136.369 543.37C136.369 541.27 137.899 539.575 140.044 539.575C142.219 539.575 143.599 541.225 143.599 543.505V543.895H138.019C138.139 544.975 138.949 545.89 140.314 545.89C141.034 545.89 141.859 545.605 142.384 545.08L143.104 546.115C142.369 546.805 141.304 547.18 140.164 547.18ZM142.084 542.77C142.039 541.915 141.454 540.865 140.029 540.865C138.694 540.865 138.064 541.9 138.004 542.77H142.084ZM146.729 547H145.154V539.755H146.729V540.805C147.284 540.115 148.154 539.575 149.084 539.575V541.135C148.949 541.105 148.799 541.09 148.604 541.09C147.929 541.09 147.044 541.54 146.729 542.065V547ZM153.714 547.18C151.524 547.18 149.919 545.665 149.919 543.37C149.919 541.27 151.449 539.575 153.594 539.575C155.769 539.575 157.149 541.225 157.149 543.505V543.895H151.569C151.689 544.975 152.499 545.89 153.864 545.89C154.584 545.89 155.409 545.605 155.934 545.08L156.654 546.115C155.919 546.805 154.854 547.18 153.714 547.18ZM155.634 542.77C155.589 541.915 155.004 540.865 153.579 540.865C152.244 540.865 151.614 541.9 151.554 542.77H155.634ZM164.761 547.18C163.531 547.18 162.901 546.52 162.901 545.305V541.12H161.701V539.755H162.901V537.775H164.476V539.755H165.946V541.12H164.476V544.915C164.476 545.41 164.716 545.785 165.166 545.785C165.466 545.785 165.736 545.65 165.856 545.515L166.231 546.715C165.946 546.97 165.481 547.18 164.761 547.18ZM170.721 547.18C168.531 547.18 166.926 545.665 166.926 543.37C166.926 541.27 168.456 539.575 170.601 539.575C172.776 539.575 174.156 541.225 174.156 543.505V543.895H168.576C168.696 544.975 169.506 545.89 170.871 545.89C171.591 545.89 172.416 545.605 172.941 545.08L173.661 546.115C172.926 546.805 171.861 547.18 170.721 547.18ZM172.641 542.77C172.596 541.915 172.011 540.865 170.586 540.865C169.251 540.865 168.621 541.9 168.561 542.77H172.641ZM178.2 547.18C176.955 547.18 175.845 546.775 175.095 546.04L175.815 544.915C176.325 545.44 177.33 545.92 178.26 545.92C179.205 545.92 179.7 545.53 179.7 544.96C179.7 543.535 175.32 544.555 175.32 541.765C175.32 540.58 176.34 539.575 178.17 539.575C179.4 539.575 180.33 540.01 180.975 540.58L180.315 541.69C179.88 541.21 179.085 540.82 178.17 540.82C177.345 540.82 176.835 541.21 176.835 541.72C176.835 542.995 181.215 542.035 181.215 544.915C181.215 546.205 180.15 547.18 178.2 547.18ZM184.976 547.18C183.746 547.18 183.116 546.52 183.116 545.305V541.12H181.916V539.755H183.116V537.775H184.691V539.755H186.161V541.12H184.691V544.915C184.691 545.41 184.931 545.785 185.381 545.785C185.681 545.785 185.951 545.65 186.071 545.515L186.446 546.715C186.161 546.97 185.696 547.18 184.976 547.18ZM190.936 547.18C188.746 547.18 187.141 545.665 187.141 543.37C187.141 541.27 188.671 539.575 190.816 539.575C192.991 539.575 194.371 541.225 194.371 543.505V543.895H188.791C188.911 544.975 189.721 545.89 191.086 545.89C191.806 545.89 192.631 545.605 193.156 545.08L193.876 546.115C193.141 546.805 192.076 547.18 190.936 547.18ZM192.856 542.77C192.811 541.915 192.226 540.865 190.801 540.865C189.466 540.865 188.836 541.9 188.776 542.77H192.856ZM202.6 547H201.025V546.01C200.47 546.73 199.645 547.18 198.7 547.18C196.855 547.18 195.49 545.77 195.49 543.37C195.49 541.03 196.84 539.575 198.7 539.575C199.615 539.575 200.455 539.98 201.025 540.76V536.995H202.6V547ZM199.165 545.785C199.9 545.785 200.68 545.35 201.025 544.81V541.945C200.68 541.405 199.9 540.97 199.165 540.97C197.905 540.97 197.11 541.975 197.11 543.37C197.11 544.78 197.905 545.785 199.165 545.785ZM211.793 547.18C209.483 547.18 208.073 545.44 208.073 543.37C208.073 541.285 209.483 539.575 211.793 539.575C214.103 539.575 215.513 541.285 215.513 543.37C215.513 545.44 214.103 547.18 211.793 547.18ZM211.793 545.785C213.143 545.785 213.878 544.66 213.878 543.37C213.878 542.095 213.143 540.97 211.793 540.97C210.458 540.97 209.708 542.095 209.708 543.37C209.708 544.66 210.458 545.785 211.793 545.785ZM223.602 547H222.027V542.47C222.027 541.33 221.442 540.97 220.557 540.97C219.762 540.97 219.072 541.45 218.697 541.93V547H217.122V539.755H218.697V540.73C219.177 540.16 220.122 539.575 221.262 539.575C222.822 539.575 223.602 540.415 223.602 541.9V547ZM233.129 547H231.374V539.26L229.739 540.97L228.719 539.905L231.599 536.995H233.129V547ZM238.752 547.18C237.042 547.18 235.857 546.58 235.047 545.635L236.052 544.42C236.712 545.2 237.627 545.62 238.737 545.62C240.012 545.62 240.792 544.84 240.792 543.85C240.792 542.785 240.012 542.08 238.782 542.08C237.942 542.08 237.237 542.335 236.592 542.935L235.347 542.575V536.995H241.902V538.54H237.102V541.42C237.597 540.955 238.407 540.565 239.367 540.565C241.062 540.565 242.577 541.735 242.577 543.79C242.577 545.86 240.987 547.18 238.752 547.18ZM254.554 547H252.979V542.44C252.979 541.3 252.409 540.97 251.524 540.97C250.714 540.97 250.024 541.45 249.664 541.93V547H248.089V536.995H249.664V540.73C250.144 540.16 251.074 539.575 252.214 539.575C253.774 539.575 254.554 540.385 254.554 541.87V547ZM257.394 538.87C256.854 538.87 256.419 538.435 256.419 537.895C256.419 537.355 256.854 536.92 257.394 536.92C257.934 536.92 258.369 537.355 258.369 537.895C258.369 538.435 257.934 538.87 257.394 538.87ZM258.174 547H256.599V539.755H258.174V547ZM263.172 549.94C261.942 549.94 261.027 549.67 260.127 548.86L260.862 547.72C261.462 548.395 262.212 548.65 263.172 548.65C264.207 548.65 265.317 548.17 265.317 546.625V545.8C264.762 546.535 263.937 547.015 262.992 547.015C261.147 547.015 259.782 545.68 259.782 543.295C259.782 540.94 261.117 539.575 262.992 539.575C263.907 539.575 264.732 539.98 265.317 540.76V539.755H266.892V546.625C266.892 549.235 264.942 549.94 263.172 549.94ZM263.457 545.605C264.192 545.605 264.957 545.17 265.317 544.645V541.93C264.957 541.405 264.192 540.97 263.457 540.97C262.197 540.97 261.402 541.9 261.402 543.295C261.402 544.69 262.197 545.605 263.457 545.605ZM275.413 547H273.838V542.44C273.838 541.3 273.268 540.97 272.383 540.97C271.573 540.97 270.883 541.45 270.523 541.93V547H268.948V536.995H270.523V540.73C271.003 540.16 271.933 539.575 273.073 539.575C274.633 539.575 275.413 540.385 275.413 541.87V547ZM283.816 547.18C282.571 547.18 281.461 546.775 280.711 546.04L281.431 544.915C281.941 545.44 282.946 545.92 283.876 545.92C284.821 545.92 285.316 545.53 285.316 544.96C285.316 543.535 280.936 544.555 280.936 541.765C280.936 540.58 281.956 539.575 283.786 539.575C285.016 539.575 285.946 540.01 286.591 540.58L285.931 541.69C285.496 541.21 284.701 540.82 283.786 540.82C282.961 540.82 282.451 541.21 282.451 541.72C282.451 542.995 286.831 542.035 286.831 544.915C286.831 546.205 285.766 547.18 283.816 547.18ZM291.701 547.18C289.511 547.18 287.966 545.56 287.966 543.37C287.966 541.18 289.511 539.575 291.701 539.575C293.126 539.575 293.966 540.175 294.476 540.865L293.441 541.81C293.036 541.24 292.481 540.97 291.776 540.97C290.471 540.97 289.586 541.96 289.586 543.37C289.586 544.78 290.471 545.785 291.776 545.785C292.481 545.785 293.036 545.485 293.441 544.915L294.476 545.89C293.966 546.565 293.126 547.18 291.701 547.18ZM302.352 547H300.777V542.44C300.777 541.3 300.207 540.97 299.322 540.97C298.512 540.97 297.822 541.45 297.462 541.93V547H295.887V536.995H297.462V540.73C297.942 540.16 298.872 539.575 300.012 539.575C301.572 539.575 302.352 540.385 302.352 541.87V547ZM307.682 547.18C305.372 547.18 303.962 545.44 303.962 543.37C303.962 541.285 305.372 539.575 307.682 539.575C309.992 539.575 311.402 541.285 311.402 543.37C311.402 545.44 309.992 547.18 307.682 547.18ZM307.682 545.785C309.032 545.785 309.767 544.66 309.767 543.37C309.767 542.095 309.032 540.97 307.682 540.97C306.347 540.97 305.597 542.095 305.597 543.37C305.597 544.66 306.347 545.785 307.682 545.785ZM316.295 547.18C313.985 547.18 312.575 545.44 312.575 543.37C312.575 541.285 313.985 539.575 316.295 539.575C318.605 539.575 320.015 541.285 320.015 543.37C320.015 545.44 318.605 547.18 316.295 547.18ZM316.295 545.785C317.645 545.785 318.38 544.66 318.38 543.37C318.38 542.095 317.645 540.97 316.295 540.97C314.96 540.97 314.21 542.095 314.21 543.37C314.21 544.66 314.96 545.785 316.295 545.785ZM323.199 547H321.624V536.995H323.199V547ZM339.579 547H338.004V542.275C338.004 541.495 337.659 540.97 336.804 540.97C336.099 540.97 335.439 541.45 335.124 541.93V547H333.549V542.275C333.549 541.495 333.219 540.97 332.364 540.97C331.659 540.97 331.014 541.465 330.684 541.93V547H329.109V539.755H330.684V540.73C330.999 540.295 331.944 539.575 333.054 539.575C334.134 539.575 334.794 540.115 335.034 540.895C335.439 540.25 336.399 539.575 337.494 539.575C338.814 539.575 339.579 540.295 339.579 541.765V547ZM347.634 547H346.059V546.205C345.519 546.835 344.664 547.18 343.704 547.18C342.534 547.18 341.199 546.37 341.199 544.78C341.199 543.1 342.519 542.41 343.704 542.41C344.694 542.41 345.519 542.725 346.059 543.34V542.26C346.059 541.42 345.354 540.91 344.364 540.91C343.554 540.91 342.834 541.21 342.219 541.84L341.559 540.745C342.399 539.935 343.449 539.575 344.604 539.575C346.224 539.575 347.634 540.25 347.634 542.185V547ZM344.334 546.1C345.009 546.1 345.684 545.845 346.059 545.35V544.24C345.684 543.745 345.009 543.49 344.334 543.49C343.449 543.49 342.774 544.015 342.774 544.795C342.774 545.59 343.449 546.1 344.334 546.1ZM351.865 547.18C350.635 547.18 350.005 546.52 350.005 545.305V541.12H348.805V539.755H350.005V537.775H351.58V539.755H353.05V541.12H351.58V544.915C351.58 545.41 351.82 545.785 352.27 545.785C352.57 545.785 352.84 545.65 352.96 545.515L353.335 546.715C353.05 546.97 352.585 547.18 351.865 547.18ZM360.945 547H359.37V542.44C359.37 541.3 358.8 540.97 357.915 540.97C357.105 540.97 356.415 541.45 356.055 541.93V547H354.48V536.995H356.055V540.73C356.535 540.16 357.465 539.575 358.605 539.575C360.165 539.575 360.945 540.385 360.945 541.87V547ZM370.758 547.18C369.843 547.18 369.033 546.76 368.433 545.995V549.76H366.858V539.755H368.433V540.745C368.973 540.025 369.813 539.575 370.758 539.575C372.633 539.575 373.968 540.985 373.968 543.37C373.968 545.755 372.633 547.18 370.758 547.18ZM370.293 545.785C371.538 545.785 372.348 544.78 372.348 543.37C372.348 541.96 371.538 540.97 370.293 540.97C369.558 540.97 368.793 541.39 368.433 541.93V544.795C368.778 545.335 369.558 545.785 370.293 545.785ZM377.119 547H375.544V539.755H377.119V540.805C377.674 540.115 378.544 539.575 379.474 539.575V541.135C379.339 541.105 379.189 541.09 378.994 541.09C378.319 541.09 377.434 541.54 377.119 542.065V547ZM384.03 547.18C381.72 547.18 380.31 545.44 380.31 543.37C380.31 541.285 381.72 539.575 384.03 539.575C386.34 539.575 387.75 541.285 387.75 543.37C387.75 545.44 386.34 547.18 384.03 547.18ZM384.03 545.785C385.38 545.785 386.115 544.66 386.115 543.37C386.115 542.095 385.38 540.97 384.03 540.97C382.695 540.97 381.945 542.095 381.945 543.37C381.945 544.66 382.695 545.785 384.03 545.785ZM390.933 544.825C391.293 545.365 392.058 545.785 392.808 545.785C394.053 545.785 394.848 544.78 394.848 543.37C394.848 541.975 394.053 540.97 392.808 540.97C392.058 540.97 391.293 541.405 390.933 541.945V544.825ZM390.933 547H389.358V536.995H390.933V540.76C391.518 539.98 392.358 539.575 393.258 539.575C395.133 539.575 396.483 541.03 396.483 543.37C396.483 545.77 395.118 547.18 393.258 547.18C392.328 547.18 391.488 546.73 390.933 546.01V547ZM399.649 547H398.074V536.995H399.649V547ZM405.052 547.18C402.862 547.18 401.257 545.665 401.257 543.37C401.257 541.27 402.787 539.575 404.932 539.575C407.107 539.575 408.487 541.225 408.487 543.505V543.895H402.907C403.027 544.975 403.837 545.89 405.202 545.89C405.922 545.89 406.747 545.605 407.272 545.08L407.992 546.115C407.257 546.805 406.192 547.18 405.052 547.18ZM406.972 542.77C406.927 541.915 406.342 540.865 404.917 540.865C403.582 540.865 402.952 541.9 402.892 542.77H406.972ZM420.511 547H418.936V542.275C418.936 541.495 418.591 540.97 417.736 540.97C417.031 540.97 416.371 541.45 416.056 541.93V547H414.481V542.275C414.481 541.495 414.151 540.97 413.296 540.97C412.591 540.97 411.946 541.465 411.616 541.93V547H410.041V539.755H411.616V540.73C411.931 540.295 412.876 539.575 413.986 539.575C415.066 539.575 415.726 540.115 415.966 540.895C416.371 540.25 417.331 539.575 418.426 539.575C419.746 539.575 420.511 540.295 420.511 541.765V547ZM425.041 547.18C423.796 547.18 422.686 546.775 421.936 546.04L422.656 544.915C423.166 545.44 424.171 545.92 425.101 545.92C426.046 545.92 426.541 545.53 426.541 544.96C426.541 543.535 422.161 544.555 422.161 541.765C422.161 540.58 423.181 539.575 425.011 539.575C426.241 539.575 427.171 540.01 427.816 540.58L427.156 541.69C426.721 541.21 425.926 540.82 425.011 540.82C424.186 540.82 423.676 541.21 423.676 541.72C423.676 542.995 428.056 542.035 428.056 544.915C428.056 546.205 426.991 547.18 425.041 547.18ZM35.21 568.18C33.98 568.18 33.35 567.52 33.35 566.305V562.12H32.15V560.755H33.35V558.775H34.925V560.755H36.395V562.12H34.925V565.915C34.925 566.41 35.165 566.785 35.615 566.785C35.915 566.785 36.185 566.65 36.305 566.515L36.68 567.715C36.395 567.97 35.93 568.18 35.21 568.18ZM44.29 568H42.715V563.44C42.715 562.3 42.145 561.97 41.26 561.97C40.45 561.97 39.76 562.45 39.4 562.93V568H37.825V557.995H39.4V561.73C39.88 561.16 40.81 560.575 41.95 560.575C43.51 560.575 44.29 561.385 44.29 562.87V568ZM52.3504 568H50.7754V567.205C50.2354 567.835 49.3804 568.18 48.4204 568.18C47.2504 568.18 45.9154 567.37 45.9154 565.78C45.9154 564.1 47.2354 563.41 48.4204 563.41C49.4104 563.41 50.2354 563.725 50.7754 564.34V563.26C50.7754 562.42 50.0704 561.91 49.0804 561.91C48.2704 561.91 47.5504 562.21 46.9354 562.84L46.2754 561.745C47.1154 560.935 48.1654 560.575 49.3204 560.575C50.9404 560.575 52.3504 561.25 52.3504 563.185V568ZM49.0504 567.1C49.7254 567.1 50.4004 566.845 50.7754 566.35V565.24C50.4004 564.745 49.7254 564.49 49.0504 564.49C48.1654 564.49 47.4904 565.015 47.4904 565.795C47.4904 566.59 48.1654 567.1 49.0504 567.1ZM56.5821 568.18C55.3521 568.18 54.7221 567.52 54.7221 566.305V562.12H53.5221V560.755H54.7221V558.775H56.2971V560.755H57.7671V562.12H56.2971V565.915C56.2971 566.41 56.5371 566.785 56.9871 566.785C57.2871 566.785 57.5571 566.65 57.6771 566.515L58.0521 567.715C57.7671 567.97 57.3021 568.18 56.5821 568.18ZM64.6243 568H63.0493V557.995H64.6243V568ZM72.6825 568H71.1075V567.205C70.5675 567.835 69.7125 568.18 68.7525 568.18C67.5825 568.18 66.2475 567.37 66.2475 565.78C66.2475 564.1 67.5675 563.41 68.7525 563.41C69.7425 563.41 70.5675 563.725 71.1075 564.34V563.26C71.1075 562.42 70.4025 561.91 69.4125 561.91C68.6025 561.91 67.8825 562.21 67.2675 562.84L66.6075 561.745C67.4475 560.935 68.4975 560.575 69.6525 560.575C71.2725 560.575 72.6825 561.25 72.6825 563.185V568ZM69.3825 567.1C70.0575 567.1 70.7325 566.845 71.1075 566.35V565.24C70.7325 564.745 70.0575 564.49 69.3825 564.49C68.4975 564.49 67.8225 565.015 67.8225 565.795C67.8225 566.59 68.4975 567.1 69.3825 567.1ZM76.2991 568H74.7241V560.755H76.2991V561.805C76.8541 561.115 77.7241 560.575 78.6541 560.575V562.135C78.5191 562.105 78.3691 562.09 78.1741 562.09C77.4991 562.09 76.6141 562.54 76.2991 563.065V568ZM82.8793 570.94C81.6493 570.94 80.7343 570.67 79.8343 569.86L80.5693 568.72C81.1693 569.395 81.9193 569.65 82.8793 569.65C83.9143 569.65 85.0243 569.17 85.0243 567.625V566.8C84.4693 567.535 83.6443 568.015 82.6993 568.015C80.8543 568.015 79.4893 566.68 79.4893 564.295C79.4893 561.94 80.8243 560.575 82.6993 560.575C83.6143 560.575 84.4393 560.98 85.0243 561.76V560.755H86.5993V567.625C86.5993 570.235 84.6493 570.94 82.8793 570.94ZM83.1643 566.605C83.8993 566.605 84.6643 566.17 85.0243 565.645V562.93C84.6643 562.405 83.8993 561.97 83.1643 561.97C81.9043 561.97 81.1093 562.9 81.1093 564.295C81.1093 565.69 81.9043 566.605 83.1643 566.605ZM92.0001 568.18C89.8101 568.18 88.2051 566.665 88.2051 564.37C88.2051 562.27 89.7351 560.575 91.8801 560.575C94.0551 560.575 95.4351 562.225 95.4351 564.505V564.895H89.8551C89.9751 565.975 90.7851 566.89 92.1501 566.89C92.8701 566.89 93.6951 566.605 94.2201 566.08L94.9401 567.115C94.2051 567.805 93.1401 568.18 92.0001 568.18ZM93.9201 563.77C93.8751 562.915 93.2901 561.865 91.8651 561.865C90.5301 561.865 89.9001 562.9 89.8401 563.77H93.9201ZM102.432 568H100.857V557.995H102.432V568ZM110.49 568H108.915V567.205C108.375 567.835 107.52 568.18 106.56 568.18C105.39 568.18 104.055 567.37 104.055 565.78C104.055 564.1 105.375 563.41 106.56 563.41C107.55 563.41 108.375 563.725 108.915 564.34V563.26C108.915 562.42 108.21 561.91 107.22 561.91C106.41 561.91 105.69 562.21 105.075 562.84L104.415 561.745C105.255 560.935 106.305 560.575 107.46 560.575C109.08 560.575 110.49 561.25 110.49 563.185V568ZM107.19 567.1C107.865 567.1 108.54 566.845 108.915 566.35V565.24C108.54 564.745 107.865 564.49 107.19 564.49C106.305 564.49 105.63 565.015 105.63 565.795C105.63 566.59 106.305 567.1 107.19 567.1ZM119.012 568H117.437V563.47C117.437 562.33 116.852 561.97 115.967 561.97C115.172 561.97 114.482 562.45 114.107 562.93V568H112.532V560.755H114.107V561.73C114.587 561.16 115.532 560.575 116.672 560.575C118.232 560.575 119.012 561.415 119.012 562.9V568ZM124.012 570.94C122.782 570.94 121.867 570.67 120.967 569.86L121.702 568.72C122.302 569.395 123.052 569.65 124.012 569.65C125.047 569.65 126.157 569.17 126.157 567.625V566.8C125.602 567.535 124.777 568.015 123.832 568.015C121.987 568.015 120.622 566.68 120.622 564.295C120.622 561.94 121.957 560.575 123.832 560.575C124.747 560.575 125.572 560.98 126.157 561.76V560.755H127.732V567.625C127.732 570.235 125.782 570.94 124.012 570.94ZM124.297 566.605C125.032 566.605 125.797 566.17 126.157 565.645V562.93C125.797 562.405 125.032 561.97 124.297 561.97C123.037 561.97 122.242 562.9 122.242 564.295C122.242 565.69 123.037 566.605 124.297 566.605ZM136.238 568H134.663V567.04C134.153 567.61 133.253 568.18 132.113 568.18C130.553 568.18 129.773 567.355 129.773 565.885V560.755H131.348V565.3C131.348 566.425 131.918 566.785 132.818 566.785C133.613 566.785 134.303 566.32 134.663 565.84V560.755H136.238V568ZM144.299 568H142.724V567.205C142.184 567.835 141.329 568.18 140.369 568.18C139.199 568.18 137.864 567.37 137.864 565.78C137.864 564.1 139.184 563.41 140.369 563.41C141.359 563.41 142.184 563.725 142.724 564.34V563.26C142.724 562.42 142.019 561.91 141.029 561.91C140.219 561.91 139.499 562.21 138.884 562.84L138.224 561.745C139.064 560.935 140.114 560.575 141.269 560.575C142.889 560.575 144.299 561.25 144.299 563.185V568ZM140.999 567.1C141.674 567.1 142.349 566.845 142.724 566.35V565.24C142.349 564.745 141.674 564.49 140.999 564.49C140.114 564.49 139.439 565.015 139.439 565.795C139.439 566.59 140.114 567.1 140.999 567.1ZM149.295 570.94C148.065 570.94 147.15 570.67 146.25 569.86L146.985 568.72C147.585 569.395 148.335 569.65 149.295 569.65C150.33 569.65 151.44 569.17 151.44 567.625V566.8C150.885 567.535 150.06 568.015 149.115 568.015C147.27 568.015 145.905 566.68 145.905 564.295C145.905 561.94 147.24 560.575 149.115 560.575C150.03 560.575 150.855 560.98 151.44 561.76V560.755H153.015V567.625C153.015 570.235 151.065 570.94 149.295 570.94ZM149.58 566.605C150.315 566.605 151.08 566.17 151.44 565.645V562.93C151.08 562.405 150.315 561.97 149.58 561.97C148.32 561.97 147.525 562.9 147.525 564.295C147.525 565.69 148.32 566.605 149.58 566.605ZM158.416 568.18C156.226 568.18 154.621 566.665 154.621 564.37C154.621 562.27 156.151 560.575 158.296 560.575C160.471 560.575 161.851 562.225 161.851 564.505V564.895H156.271C156.391 565.975 157.201 566.89 158.566 566.89C159.286 566.89 160.111 566.605 160.636 566.08L161.356 567.115C160.621 567.805 159.556 568.18 158.416 568.18ZM160.336 563.77C160.291 562.915 159.706 561.865 158.281 561.865C156.946 561.865 156.316 562.9 156.256 563.77H160.336ZM177.743 568H176.168V563.275C176.168 562.495 175.823 561.97 174.968 561.97C174.263 561.97 173.603 562.45 173.288 562.93V568H171.713V563.275C171.713 562.495 171.383 561.97 170.528 561.97C169.823 561.97 169.178 562.465 168.848 562.93V568H167.273V560.755H168.848V561.73C169.163 561.295 170.108 560.575 171.218 560.575C172.298 560.575 172.958 561.115 173.198 561.895C173.603 561.25 174.563 560.575 175.658 560.575C176.978 560.575 177.743 561.295 177.743 562.765V568ZM183.068 568.18C180.758 568.18 179.348 566.44 179.348 564.37C179.348 562.285 180.758 560.575 183.068 560.575C185.378 560.575 186.788 562.285 186.788 564.37C186.788 566.44 185.378 568.18 183.068 568.18ZM183.068 566.785C184.418 566.785 185.153 565.66 185.153 564.37C185.153 563.095 184.418 561.97 183.068 561.97C181.733 561.97 180.983 563.095 180.983 564.37C180.983 565.66 181.733 566.785 183.068 566.785ZM195.071 568H193.496V567.01C192.941 567.73 192.116 568.18 191.171 568.18C189.326 568.18 187.961 566.77 187.961 564.37C187.961 562.03 189.311 560.575 191.171 560.575C192.086 560.575 192.926 560.98 193.496 561.76V557.995H195.071V568ZM191.636 566.785C192.371 566.785 193.151 566.35 193.496 565.81V562.945C193.151 562.405 192.371 561.97 191.636 561.97C190.376 561.97 189.581 562.975 189.581 564.37C189.581 565.78 190.376 566.785 191.636 566.785ZM200.472 568.18C198.282 568.18 196.677 566.665 196.677 564.37C196.677 562.27 198.207 560.575 200.352 560.575C202.527 560.575 203.907 562.225 203.907 564.505V564.895H198.327C198.447 565.975 199.257 566.89 200.622 566.89C201.342 566.89 202.167 566.605 202.692 566.08L203.412 567.115C202.677 567.805 201.612 568.18 200.472 568.18ZM202.392 563.77C202.347 562.915 201.762 561.865 200.337 561.865C199.002 561.865 198.372 562.9 198.312 563.77H202.392ZM207.036 568H205.461V557.995H207.036V568ZM211.57 568.18C210.325 568.18 209.215 567.775 208.465 567.04L209.185 565.915C209.695 566.44 210.7 566.92 211.63 566.92C212.575 566.92 213.07 566.53 213.07 565.96C213.07 564.535 208.69 565.555 208.69 562.765C208.69 561.58 209.71 560.575 211.54 560.575C212.77 560.575 213.7 561.01 214.345 561.58L213.685 562.69C213.25 562.21 212.455 561.82 211.54 561.82C210.715 561.82 210.205 562.21 210.205 562.72C210.205 563.995 214.585 563.035 214.585 565.915C214.585 567.205 213.52 568.18 211.57 568.18ZM226.487 568H224.912V567.04C224.402 567.61 223.502 568.18 222.362 568.18C220.802 568.18 220.022 567.355 220.022 565.885V560.755H221.597V565.3C221.597 566.425 222.167 566.785 223.067 566.785C223.862 566.785 224.552 566.32 224.912 565.84V560.755H226.487V568ZM231.023 568.18C229.778 568.18 228.668 567.775 227.918 567.04L228.638 565.915C229.148 566.44 230.153 566.92 231.083 566.92C232.028 566.92 232.523 566.53 232.523 565.96C232.523 564.535 228.143 565.555 228.143 562.765C228.143 561.58 229.163 560.575 230.993 560.575C232.223 560.575 233.153 561.01 233.798 561.58L233.138 562.69C232.703 562.21 231.908 561.82 230.993 561.82C230.168 561.82 229.658 562.21 229.658 562.72C229.658 563.995 234.038 563.035 234.038 565.915C234.038 567.205 232.973 568.18 231.023 568.18ZM242.073 568H240.498V567.04C239.988 567.61 239.088 568.18 237.948 568.18C236.388 568.18 235.608 567.355 235.608 565.885V560.755H237.183V565.3C237.183 566.425 237.753 566.785 238.653 566.785C239.448 566.785 240.138 566.32 240.498 565.84V560.755H242.073V568ZM250.134 568H248.559V567.205C248.019 567.835 247.164 568.18 246.204 568.18C245.034 568.18 243.699 567.37 243.699 565.78C243.699 564.1 245.019 563.41 246.204 563.41C247.194 563.41 248.019 563.725 248.559 564.34V563.26C248.559 562.42 247.854 561.91 246.864 561.91C246.054 561.91 245.334 562.21 244.719 562.84L244.059 561.745C244.899 560.935 245.949 560.575 247.104 560.575C248.724 560.575 250.134 561.25 250.134 563.185V568ZM246.834 567.1C247.509 567.1 248.184 566.845 248.559 566.35V565.24C248.184 564.745 247.509 564.49 246.834 564.49C245.949 564.49 245.274 565.015 245.274 565.795C245.274 566.59 245.949 567.1 246.834 567.1ZM253.75 568H252.175V557.995H253.75V568ZM257.368 568H255.793V557.995H257.368V568ZM259.112 570.835L259.337 569.425C259.502 569.5 259.757 569.545 259.937 569.545C260.447 569.545 260.777 569.395 260.987 568.915L261.347 568.09L258.362 560.755H260.057L262.172 566.185L264.287 560.755H265.967L262.472 569.305C261.977 570.535 261.122 570.925 259.997 570.94C259.772 570.94 259.322 570.895 259.112 570.835ZM273.313 568.18C272.068 568.18 270.958 567.775 270.208 567.04L270.928 565.915C271.438 566.44 272.443 566.92 273.373 566.92C274.318 566.92 274.813 566.53 274.813 565.96C274.813 564.535 270.433 565.555 270.433 562.765C270.433 561.58 271.453 560.575 273.283 560.575C274.513 560.575 275.443 561.01 276.088 561.58L275.428 562.69C274.993 562.21 274.198 561.82 273.283 561.82C272.458 561.82 271.948 562.21 271.948 562.72C271.948 563.995 276.328 563.035 276.328 565.915C276.328 567.205 275.263 568.18 273.313 568.18ZM280.088 568.18C278.858 568.18 278.228 567.52 278.228 566.305V562.12H277.028V560.755H278.228V558.775H279.803V560.755H281.273V562.12H279.803V565.915C279.803 566.41 280.043 566.785 280.493 566.785C280.793 566.785 281.063 566.65 281.183 566.515L281.558 567.715C281.273 567.97 280.808 568.18 280.088 568.18ZM284.263 568H282.688V560.755H284.263V561.805C284.818 561.115 285.688 560.575 286.618 560.575V562.135C286.483 562.105 286.333 562.09 286.138 562.09C285.463 562.09 284.578 562.54 284.263 563.065V568ZM294.353 568H292.778V567.04C292.268 567.61 291.368 568.18 290.228 568.18C288.668 568.18 287.888 567.355 287.888 565.885V560.755H289.463V565.3C289.463 566.425 290.033 566.785 290.933 566.785C291.728 566.785 292.418 566.32 292.778 565.84V560.755H294.353V568ZM299.354 570.94C298.124 570.94 297.209 570.67 296.309 569.86L297.044 568.72C297.644 569.395 298.394 569.65 299.354 569.65C300.389 569.65 301.499 569.17 301.499 567.625V566.8C300.944 567.535 300.119 568.015 299.174 568.015C297.329 568.015 295.964 566.68 295.964 564.295C295.964 561.94 297.299 560.575 299.174 560.575C300.089 560.575 300.914 560.98 301.499 561.76V560.755H303.074V567.625C303.074 570.235 301.124 570.94 299.354 570.94ZM299.639 566.605C300.374 566.605 301.139 566.17 301.499 565.645V562.93C301.139 562.405 300.374 561.97 299.639 561.97C298.379 561.97 297.584 562.9 297.584 564.295C297.584 565.69 298.379 566.605 299.639 566.605ZM308.07 570.94C306.84 570.94 305.925 570.67 305.025 569.86L305.76 568.72C306.36 569.395 307.11 569.65 308.07 569.65C309.105 569.65 310.215 569.17 310.215 567.625V566.8C309.66 567.535 308.835 568.015 307.89 568.015C306.045 568.015 304.68 566.68 304.68 564.295C304.68 561.94 306.015 560.575 307.89 560.575C308.805 560.575 309.63 560.98 310.215 561.76V560.755H311.79V567.625C311.79 570.235 309.84 570.94 308.07 570.94ZM308.355 566.605C309.09 566.605 309.855 566.17 310.215 565.645V562.93C309.855 562.405 309.09 561.97 308.355 561.97C307.095 561.97 306.3 562.9 306.3 564.295C306.3 565.69 307.095 566.605 308.355 566.605ZM315.406 568H313.831V557.995H315.406V568ZM320.809 568.18C318.619 568.18 317.014 566.665 317.014 564.37C317.014 562.27 318.544 560.575 320.689 560.575C322.864 560.575 324.244 562.225 324.244 564.505V564.895H318.664C318.784 565.975 319.594 566.89 320.959 566.89C321.679 566.89 322.504 566.605 323.029 566.08L323.749 567.115C323.014 567.805 321.949 568.18 320.809 568.18ZM322.729 563.77C322.684 562.915 322.099 561.865 320.674 561.865C319.339 561.865 318.709 562.9 318.649 563.77H322.729ZM337.646 568H335.996L334.301 562.69L332.621 568H330.971L328.721 560.755H330.356L331.886 566.02L333.611 560.755H335.006L336.716 566.02L338.246 560.755H339.896L337.646 568ZM341.784 559.87C341.244 559.87 340.809 559.435 340.809 558.895C340.809 558.355 341.244 557.92 341.784 557.92C342.324 557.92 342.759 558.355 342.759 558.895C342.759 559.435 342.324 559.87 341.784 559.87ZM342.564 568H340.989V560.755H342.564V568ZM346.797 568.18C345.567 568.18 344.937 567.52 344.937 566.305V562.12H343.737V560.755H344.937V558.775H346.512V560.755H347.982V562.12H346.512V565.915C346.512 566.41 346.752 566.785 347.202 566.785C347.502 566.785 347.772 566.65 347.892 566.515L348.267 567.715C347.982 567.97 347.517 568.18 346.797 568.18ZM355.877 568H354.302V563.44C354.302 562.3 353.732 561.97 352.847 561.97C352.037 561.97 351.347 562.45 350.987 562.93V568H349.412V557.995H350.987V561.73C351.467 561.16 352.397 560.575 353.537 560.575C355.097 560.575 355.877 561.385 355.877 562.87V568ZM358.747 568.165C358.177 568.165 357.697 567.67 357.697 567.1C357.697 566.545 358.177 566.065 358.747 566.065C359.317 566.065 359.797 566.545 359.797 567.1C359.797 567.67 359.317 568.165 358.747 568.165Z" fill="#F0F5FC"/>
</svg>
