<svg version="1.2" xmlns="http://www.w3.org/2000/svg" viewBox="0 0 358 607" width="358" height="607">
	<title>Header Content-svg</title>
	<defs>
		<clipPath clipPathUnits="userSpaceOnUse" id="cp1">
			<path d="m0 0.71h358v606h-358z"/>
		</clipPath>
		<linearGradient id="g1" x2="1" gradientUnits="userSpaceOnUse" gradientTransform="matrix(NaN,NaN,NaN,NaN,NaN,NaN)">
			<stop offset=".015" stop-color="#ffffff" stop-opacity="0"/>
			<stop offset=".5" stop-color="#ffffff" stop-opacity="1"/>
			<stop offset="1" stop-color="#ffffff" stop-opacity="0"/>
		</linearGradient>
		<linearGradient id="g2" x2="1" gradientUnits="userSpaceOnUse" gradientTransform="matrix(NaN,NaN,NaN,NaN,NaN,NaN)">
			<stop offset=".015" stop-color="#ffffff" stop-opacity="0"/>
			<stop offset=".5" stop-color="#ffffff" stop-opacity="1"/>
			<stop offset="1" stop-color="#ffffff" stop-opacity="0"/>
		</linearGradient>
		<linearGradient id="g3" x2="1" gradientUnits="userSpaceOnUse" gradientTransform="matrix(NaN,NaN,NaN,NaN,NaN,NaN)">
			<stop offset=".015" stop-color="#ffffff" stop-opacity="0"/>
			<stop offset=".5" stop-color="#ffffff" stop-opacity="1"/>
			<stop offset="1" stop-color="#ffffff" stop-opacity="0"/>
		</linearGradient>
		<linearGradient id="g4" x2="1" gradientUnits="userSpaceOnUse" gradientTransform="matrix(NaN,NaN,NaN,NaN,NaN,NaN)">
			<stop offset=".015" stop-color="#ffffff" stop-opacity="0"/>
			<stop offset=".5" stop-color="#ffffff" stop-opacity="1"/>
			<stop offset="1" stop-color="#ffffff" stop-opacity="0"/>
		</linearGradient>
		<linearGradient id="g5" x2="1" gradientUnits="userSpaceOnUse" gradientTransform="matrix(NaN,NaN,NaN,NaN,NaN,NaN)">
			<stop offset="0" stop-color="#0c0c0c" stop-opacity="0"/>
			<stop offset=".5" stop-color="#0c0c0c" stop-opacity="1"/>
			<stop offset="1" stop-color="#0c0c0c" stop-opacity="0"/>
		</linearGradient>
		<linearGradient id="g6" x2="1" gradientUnits="userSpaceOnUse" gradientTransform="matrix(-176.97,37.828,-28.174,-131.808,186,196.706)">
			<stop offset="0" stop-color="#f1ac0c"/>
			<stop offset="1" stop-color="#ffffff"/>
		</linearGradient>
	</defs>
	<style>
		.s0 { opacity: .1;fill: #ffffff } 
		.s1 { opacity: .1;fill: none;stroke: url(#g1);stroke-dasharray: 2 } 
		.s2 { opacity: .1;fill: none;stroke: url(#g2);stroke-dasharray: 2 } 
		.s3 { opacity: .1;fill: none;stroke: url(#g3);stroke-dasharray: 2 } 
		.s4 { opacity: .1;fill: none;stroke: url(#g4);stroke-dasharray: 2 } 
		.s5 { opacity: .1;fill: none;stroke: url(#g5);stroke-dasharray: 2 } 
		.s6 { fill: #ffffff } 
		.s7 { fill: #fdb300 } 
		.s8 { fill: #f0f5fc } 
		.s9 { fill: #f1ac0c } 
		.s10 { fill: #d9d9d9 } 
		.s11 { fill: url(#g6) } 
		.s12 { opacity: .1;fill: none;stroke: #ffffff } 
	</style>
	<g>
		<g id="Clip-Path" clip-path="url(#cp1)">
			<g>
				<path class="s0" d="m0 0.7h358v606h-358z"/>
				<path class="s1" d="m1 126.2h357"/>
				<path class="s2" d="m1 215h357"/>
				<path class="s3" d="m1 303.7h357"/>
				<path class="s4" d="m1 392.5h357"/>
				<path class="s5" d="m1 481.2h357"/>
				<path fill-rule="evenodd" class="s6" d="m34.7 50c-5.6 0-9.7-4-9.7-9.6 0-5.6 4.1-9.7 9.7-9.7 5.7 0 9.8 4.1 9.8 9.7 0 5.6-4.1 9.6-9.8 9.6zm0-3.5c3.4 0 5.7-2.6 5.7-6.1 0-3.5-2.3-6.2-5.7-6.2-3.4 0-5.7 2.7-5.7 6.2 0 3.5 2.3 6.1 5.7 6.1zm24.7 3.2h-3.6v-1.7c-0.9 1-2.5 2-4.8 2-2.9 0-4.3-1.6-4.3-4.2v-9.6h3.5v8.2c0 1.9 1 2.5 2.5 2.5 1.4 0 2.5-0.8 3.1-1.6v-9.1h3.6zm7.5 0.3c-2.5 0-3.8-1.3-3.8-3.7v-7h-2.3v-3.1h2.3v-3.7h3.6v3.7h2.7v3.1h-2.7v6.1c0 0.8 0.4 1.5 1.2 1.5 0.5 0 1-0.2 1.2-0.4l0.8 2.6c-0.5 0.5-1.5 0.9-3 0.9zm12.2 0c-1.6 0-3.1-0.7-4.2-2.1v6.9h-3.6v-18.6h3.6v1.7c1-1.4 2.5-2.1 4.2-2.1 3.4 0 6 2.6 6 7.1 0 4.5-2.6 7.1-6 7.1zm-1.1-3.1c2 0 3.4-1.6 3.4-4 0-2.3-1.4-3.9-3.4-3.9-1.2 0-2.5 0.7-3.1 1.5v4.8c0.6 0.9 1.9 1.6 3.1 1.6zm15.5 3.1c-4.1 0-7.2-2.8-7.2-7.1 0-3.9 2.9-7.1 7-7.1 4 0 6.8 3 6.8 7.5v0.8h-10.1c0.3 1.7 1.6 3.1 3.9 3.1 1.2 0 2.8-0.5 3.6-1.4l1.6 2.3c-1.3 1.3-3.5 1.9-5.6 1.9zm3.1-8.4c0-1.2-0.9-3-3.3-3-2.2 0-3.2 1.7-3.3 3zm9 8.1h-3.5v-13.5h3.5v1.8c1-1.2 2.7-2.2 4.4-2.2v3.5q-0.4-0.1-1-0.1c-1.2 0-2.8 0.7-3.4 1.5zm10.4 0h-3.5v-10.4h-2.3v-3.1h2.3v-0.7c0-2.9 1.8-4.7 4.5-4.7 1.3 0 2.7 0.3 3.6 1.3l-1.4 2.1q-0.5-0.6-1.5-0.6c-1 0-1.7 0.6-1.7 1.9v0.7h2.8v3.1h-2.8zm10.6 0.4c-4.4 0-7.1-3.3-7.1-7.1 0-3.9 2.7-7.1 7.1-7.1 4.5 0 7.2 3.2 7.2 7.1 0 3.8-2.7 7.1-7.2 7.1zm0-3.2c2.2 0 3.5-1.8 3.5-3.9 0-2.1-1.3-4-3.5-4-2.2 0-3.4 1.9-3.4 4 0 2.1 1.2 3.9 3.4 3.9zm12.9 2.8h-3.6v-13.5h3.6v1.9c0.9-1.2 2.6-2.2 4.3-2.2v3.4q-0.4 0-1 0c-1.2 0-2.7 0.6-3.3 1.5zm26.4 0h-3.6v-8.5c0-1.3-0.6-2.2-2-2.2-1.3 0-2.3 0.8-2.8 1.6v9.1h-3.6v-8.5c0-1.3-0.6-2.2-2-2.2-1.3 0-2.3 0.8-2.8 1.6v9.1h-3.6v-13.5h3.6v1.7c0.5-0.8 2.3-2.1 4.4-2.1 2 0 3.2 1 3.7 2.5 0.8-1.2 2.6-2.5 4.7-2.5 2.5 0 4 1.4 4 4.1zm4.7-15c-1.1 0-2.1-0.9-2.1-2.1 0-1.2 1-2.1 2.1-2.1 1.2 0 2.1 0.9 2.1 2.1 0 1.2-0.9 2.1-2.1 2.1zm1.8 15h-3.6v-13.5h3.6zm15.7 0h-3.5v-8.2c0-1.8-1-2.5-2.5-2.5-1.4 0-2.5 0.8-3.1 1.6v9.1h-3.6v-13.5h3.6v1.7c0.9-1 2.5-2.1 4.7-2.1 3 0 4.4 1.7 4.4 4.4zm8.6 5.4c-2.3 0-4.1-0.5-5.8-2l1.6-2.5c1.1 1.2 2.5 1.6 4.2 1.6 1.7 0 3.7-0.7 3.7-3.4v-1.4c-1.1 1.4-2.5 2.2-4.2 2.2-3.3 0-5.9-2.4-5.9-6.9 0-4.4 2.5-6.9 5.9-6.9 1.7 0 3.1 0.7 4.2 2.1v-1.8h3.6v12.6c0 5.2-4 6.4-7.3 6.4zm0.7-8.7c1.1 0 2.4-0.7 3-1.5v-4.4c-0.6-0.9-1.9-1.5-3-1.5-2.1 0-3.5 1.4-3.5 3.7 0 2.3 1.4 3.7 3.5 3.7zm25.4 3.6c-5.6 0-9.9-3.9-9.9-9.7 0-5.7 4.3-9.6 9.9-9.6 4.1 0 6.5 2.2 7.8 4.5l-3.4 1.7c-0.8-1.5-2.5-2.7-4.4-2.7-3.4 0-5.8 2.6-5.8 6.1 0 3.6 2.4 6.2 5.8 6.2 1.9 0 3.6-1.2 4.4-2.8l3.4 1.7c-1.3 2.3-3.7 4.6-7.8 4.6zm22.3-0.3h-3.5v-8.3c0-1.9-1-2.4-2.6-2.4-1.3 0-2.4 0.7-3 1.6v9.1h-3.6v-18.7h3.6v6.9c0.8-1 2.5-2.1 4.7-2.1 3 0 4.4 1.6 4.4 4.3zm14.7 0h-3.5v-1.4c-1 1-2.5 1.7-4.3 1.7-2.2 0-4.7-1.5-4.7-4.5 0-3.2 2.5-4.4 4.7-4.4 1.8 0 3.4 0.6 4.3 1.7v-1.8c0-1.4-1.2-2.3-3-2.3-1.5 0-2.8 0.5-3.9 1.6l-1.4-2.4c1.7-1.4 3.8-2.1 5.9-2.1 3.1 0 5.9 1.2 5.9 5.1zm-6.4-2.1c1.2 0 2.3-0.3 2.9-1.1v-1.7c-0.6-0.8-1.7-1.2-2.9-1.2-1.4 0-2.5 0.7-2.5 2.1 0 1.2 1.1 1.9 2.5 1.9zm14 2.5c-2.5 0-3.8-1.3-3.8-3.7v-7.1h-2.3v-3.1h2.3v-3.7h3.5v3.7h2.8v3.1h-2.8v6.1c0 0.8 0.5 1.5 1.3 1.5 0.5 0 1-0.2 1.2-0.4l0.8 2.7c-0.6 0.5-1.5 0.9-3 0.9zm13.5 0c-5.4 0-9.9-3.8-9.9-9.7 0-5.9 4.5-9.7 9.9-9.7 3.9 0 6.4 2 7.8 4.2l-3.3 1.8c-0.9-1.3-2.5-2.4-4.5-2.4-3.3 0-5.8 2.6-5.8 6.1 0 3.5 2.5 6.1 5.8 6.1 1.7 0 3.3-0.7 4-1.4v-2.2h-4.9v-3.5h8.9v7.2c-1.9 2.1-4.6 3.5-8 3.5zm14.6-0.4h-3.9v-18.7h8.7c4 0 6.3 2.8 6.3 6.1 0 3.2-2.3 6-6.3 6h-4.8zm4.3-10.2c1.5 0 2.7-0.9 2.7-2.5 0-1.5-1.2-2.5-2.7-2.5h-4.3v5zm17.1 10.2h-4v-15.2h-5.5v-3.5h14.9v3.5h-5.4zm-174.2 32.3c-4.4 0-7.1-3.2-7.1-7.1 0-3.8 2.7-7.1 7.1-7.1 4.5 0 7.2 3.3 7.2 7.1 0 3.9-2.7 7.1-7.2 7.1zm0-3.1c2.2 0 3.5-1.8 3.5-4 0-2.1-1.3-3.9-3.5-3.9-2.2 0-3.4 1.8-3.4 3.9 0 2.2 1.2 4 3.4 4zm22 2.8h-3.6v-8.2c0-1.8-0.9-2.5-2.4-2.5-1.4 0-2.5 0.8-3.1 1.6v9.1h-3.6v-13.5h3.6v1.7c0.8-1 2.5-2.1 4.7-2.1 3 0 4.4 1.7 4.4 4.4zm26.6 0h-4v-7.9h-8.8v7.9h-4v-18.7h4v7.3h8.8v-7.3h4zm4.8-15c-1.1 0-2.1-1-2.1-2.1 0-1.2 1-2.1 2.1-2.1 1.2 0 2.2 0.9 2.2 2.1 0 1.1-1 2.1-2.2 2.1zm1.8 15h-3.5v-13.5h3.5zm8.6 5.4c-2.3 0-4.1-0.5-5.8-2l1.6-2.5c1.1 1.2 2.5 1.6 4.2 1.6 1.7 0 3.7-0.7 3.7-3.4v-1.4c-1 1.4-2.5 2.2-4.1 2.2-3.4 0-6-2.4-6-6.9 0-4.4 2.5-6.9 6-6.9 1.6 0 3 0.7 4.1 2.1v-1.8h3.6v12.6c0 5.2-4 6.4-7.3 6.4zm0.7-8.7c1.2 0 2.4-0.7 3-1.5v-4.4c-0.6-0.9-1.8-1.5-3-1.5-2 0-3.4 1.4-3.4 3.7 0 2.3 1.4 3.7 3.4 3.7zm22.4 3.3h-3.6v-8.3c0-1.9-1-2.4-2.5-2.4-1.4 0-2.5 0.7-3.1 1.6v9.1h-3.6v-18.7h3.6v6.9c0.9-1 2.5-2.1 4.8-2.1 2.9 0 4.4 1.6 4.4 4.3zm16.4 0.3c-3.6 0-6.2-1.2-7.9-3l2.1-3c1.3 1.4 3.4 2.5 6 2.5 2.1 0 3.2-1 3.2-2.1 0-3.3-10.7-1-10.7-8 0-3.1 2.6-5.7 7-5.7 3 0 5.5 0.9 7.3 2.6l-2.2 2.9c-1.5-1.4-3.5-2-5.4-2-1.7 0-2.7 0.7-2.7 1.8 0 3 10.7 1 10.7 8 0 3.4-2.4 6-7.4 6zm15.8 0c-4.1 0-7.1-3-7.1-7.1 0-4.2 3-7.1 7.1-7.1 2.8 0 4.5 1.2 5.4 2.4l-2.3 2.2c-0.7-0.9-1.7-1.4-2.9-1.4-2.2 0-3.7 1.5-3.7 3.9 0 2.3 1.5 3.9 3.7 3.9 1.2 0 2.2-0.5 2.9-1.4l2.3 2.1c-0.9 1.3-2.6 2.5-5.4 2.5zm19.9-0.3h-3.5v-8.3c0-1.9-1-2.4-2.6-2.4-1.3 0-2.4 0.7-3 1.6v9.1h-3.6v-18.7h3.6v6.9c0.8-1 2.5-2.1 4.7-2.1 3 0 4.4 1.6 4.4 4.2zm9.3 0.4c-4.4 0-7.1-3.3-7.1-7.1 0-3.9 2.7-7.1 7.1-7.1 4.5 0 7.2 3.2 7.2 7.1 0 3.8-2.7 7.1-7.2 7.1zm0-3.2c2.2 0 3.5-1.8 3.5-3.9 0-2.1-1.3-3.9-3.5-3.9-2.2 0-3.4 1.8-3.4 3.9 0 2.1 1.2 3.9 3.4 3.9zm15.6 3.2c-4.4 0-7.1-3.3-7.1-7.1 0-3.9 2.7-7.1 7.1-7.1 4.5 0 7.2 3.2 7.2 7.1 0 3.8-2.7 7.1-7.2 7.1zm0-3.2c2.2 0 3.5-1.8 3.5-3.9 0-2.1-1.3-3.9-3.5-3.9-2.2 0-3.4 1.8-3.4 3.9 0 2.1 1.2 3.9 3.4 3.9zm12.9 2.8h-3.6v-18.6h3.6zm-273.4 32h-4v-13.1l-5.3 13.1h-1.7l-5.3-13.1v13.1h-3.9v-18.7h5.5l4.6 11.3 4.5-11.3h5.6zm14.8 0h-3.6v-1.4c-0.9 1.1-2.5 1.7-4.2 1.7-2.2 0-4.7-1.4-4.7-4.4 0-3.2 2.5-4.4 4.7-4.4 1.8 0 3.3 0.6 4.2 1.6v-1.8c0-1.4-1.1-2.3-2.9-2.3-1.5 0-2.8 0.6-4 1.6l-1.3-2.3c1.6-1.5 3.8-2.2 5.9-2.2 3.1 0 5.9 1.3 5.9 5.2zm-6.4-2.1c1.1 0 2.3-0.4 2.8-1.2v-1.7c-0.5-0.8-1.7-1.1-2.8-1.1-1.4 0-2.6 0.7-2.6 2 0 1.3 1.2 2 2.6 2zm14 2.4c-2.5 0-3.9-1.3-3.9-3.7v-7.1h-2.2v-3.1h2.2v-3.7h3.6v3.7h2.8v3.1h-2.8v6.1c0 0.9 0.5 1.5 1.2 1.5 0.6 0 1.1-0.2 1.3-0.4l0.7 2.7c-0.5 0.5-1.5 0.9-2.9 0.9zm17.1-0.3h-3.6v-8.3c0-1.8-0.9-2.4-2.5-2.4-1.3 0-2.4 0.7-3.1 1.6v9.1h-3.5v-18.7h3.5v6.9c0.9-1 2.6-2.1 4.8-2.1 3 0 4.4 1.6 4.4 4.3zm13.8 0h-4v-18.7h8.7c4.1 0 6.3 2.7 6.3 6 0 3.2-2.3 6-6.3 6h-4.7zm4.2-10.1c1.6 0 2.7-1 2.7-2.5 0-1.6-1.1-2.6-2.7-2.6h-4.2v5.1zm12.2 10.1h-3.6v-13.5h3.6v1.8c0.9-1.2 2.6-2.1 4.3-2.1v3.4q-0.4-0.1-1-0.1c-1.1 0-2.7 0.7-3.3 1.6zm12.3 0.3c-4.4 0-7.1-3.2-7.1-7.1 0-3.8 2.7-7.1 7.1-7.1 4.5 0 7.2 3.3 7.2 7.1 0 3.9-2.7 7.1-7.2 7.1zm0-3.1c2.2 0 3.5-1.9 3.5-4 0-2.1-1.3-3.9-3.5-3.9-2.2 0-3.4 1.8-3.4 3.9 0 2.1 1.2 4 3.4 4zm12.9 2.8h-3.6v-18.7h3.6v6.9c1-1.4 2.5-2.1 4.1-2.1 3.5 0 6 2.7 6 7.1 0 4.5-2.5 7.1-6 7.1-1.6 0-3.1-0.7-4.1-2zm0-4.4c0.6 0.9 1.9 1.5 3 1.5 2.1 0 3.5-1.5 3.5-3.9 0-2.3-1.4-3.9-3.5-3.9-1.1 0-2.4 0.6-3 1.5zm15.9 4.4h-3.6v-18.7h3.6zm9.4 0.3c-4.2 0-7.3-2.7-7.3-7.1 0-3.9 2.9-7.1 7-7.1 4.1 0 6.8 3.1 6.8 7.5v0.8h-10c0.2 1.7 1.5 3.1 3.8 3.1 1.2 0 2.8-0.5 3.7-1.3l1.5 2.2c-1.3 1.3-3.4 1.9-5.5 1.9zm3.1-8.3c-0.1-1.3-1-3-3.4-3-2.2 0-3.1 1.6-3.3 3zm25.9 8h-3.6v-8.6c0-1.2-0.6-2.1-2-2.1-1.3 0-2.3 0.8-2.8 1.6v9.1h-3.6v-8.6c0-1.2-0.6-2.1-2-2.1-1.3 0-2.3 0.8-2.8 1.6v9.1h-3.6v-13.5h3.6v1.7c0.5-0.8 2.3-2.1 4.4-2.1 2 0 3.2 1 3.7 2.5 0.8-1.2 2.6-2.5 4.7-2.5 2.5 0 4 1.3 4 4.1zm7.8 0.4c-2.3 0-4.6-0.8-6-2.1l1.5-2.5c1 0.9 3 1.8 4.7 1.8 1.5 0 2.3-0.6 2.3-1.4 0-2.3-8.1-0.5-8.1-5.8 0-2.3 2-4.2 5.6-4.2 2.3 0 4.1 0.7 5.4 1.8l-1.4 2.4c-0.8-0.8-2.4-1.5-4-1.5-1.3 0-2.1 0.6-2.1 1.3 0 2 8 0.4 8 5.8 0 2.5-2.1 4.4-5.9 4.4zm12-10.6h-1.7l0.1-3.1-2.6 1.6-0.9-1.5 2.7-1.4-2.7-1.4 0.9-1.5 2.6 1.6-0.1-3h1.7l-0.1 3 2.6-1.6 0.9 1.5-2.8 1.4 2.8 1.4-0.9 1.5-2.6-1.6z"/>
				<path fill-rule="evenodd" class="s7" d="m29.3 81.7h-3.5v-18.7h3.5v6.9c1.1-1.4 2.6-2.1 4.2-2.1 3.4 0 6 2.7 6 7.2 0 4.5-2.6 7-6 7-1.6 0-3.1-0.7-4.2-2zm0-4.4c0.6 0.9 1.9 1.5 3.1 1.5 2 0 3.4-1.5 3.4-3.9 0-2.3-1.4-3.9-3.4-3.9-1.2 0-2.5 0.6-3.1 1.5zm11.9 9.7l0.5-3.2c0.3 0.1 0.8 0.2 1.1 0.2 1 0 1.6-0.2 1.9-1l0.5-1.1-5.5-13.7h3.8l3.6 9.4 3.5-9.4h3.8l-6.3 15.7c-1 2.5-2.8 3.2-5.1 3.3-0.5 0-1.4-0.1-1.8-0.2zm34.6-5.3h-14.1v-3.1c7.7-5.7 9.9-7.6 9.9-9.9 0-1.6-1.5-2.4-3-2.4-2.1 0-3.8 0.8-5 2.1l-2.3-2.6c1.8-2.1 4.6-3.1 7.2-3.1 4 0 7.2 2.3 7.2 6 0 3.2-2.7 6-7.5 9.5h7.6zm4.5 0.3c-1.2 0-2.3-1-2.3-2.3 0-1.2 1.1-2.2 2.3-2.2 1.2 0 2.3 1 2.3 2.2 0 1.3-1.1 2.3-2.3 2.3zm11.2 0c-5.4 0-7.8-4.8-7.8-9.6 0-4.9 2.4-9.7 7.8-9.7 5.3 0 7.7 4.8 7.7 9.7 0 4.8-2.4 9.6-7.7 9.6zm0-3.5c2.6 0 3.6-2.7 3.6-6.1 0-3.5-1-6.1-3.6-6.1-2.7 0-3.7 2.6-3.7 6.1 0 3.4 1 6.1 3.7 6.1zm15.9 3.2h-4.4l6.7-15.2h-9.4v-3.5h14v2.8zm21.2 0h-4l-3.1-4.6-3.1 4.6h-4l4.8-7-4.5-6.5h4l2.8 4.1 2.8-4.1h3.9l-4.5 6.5z"/>
				<path fill-rule="evenodd" class="s8" d="m259.1 139.4h3.1v15h-3.1v-2.2q-0.8 1-2.1 1.7-1.4 0.8-3.1 0.8-2 0-3.6-1-1.6-1-2.5-2.8-1-1.8-1-4 0-2.3 1-4 0.9-1.8 2.5-2.7 1.7-1 3.6-1 1.8 0 3.1 0.7 1.3 0.7 2.1 1.7zm0 7.5q0-1.6-0.6-2.7-0.7-1.1-1.7-1.7-1.1-0.6-2.2-0.6-1.3 0-2.3 0.5-1 0.6-1.7 1.8-0.6 1.1-0.6 2.6 0 1.6 0.6 2.8 0.7 1.1 1.7 1.7 1.1 0.7 2.2 0.7 1.2 0 2.3-0.6 1-0.6 1.7-1.8 0.6-1.2 0.6-2.7z"/>
				<path class="s8" d="m273.4 146.6q-1-0.5-2.7-0.9-1.2-0.3-1.8-0.6-0.7-0.2-1.1-0.6-0.4-0.4-0.4-1 0-0.8 0.6-1.2 0.7-0.5 1.9-0.5 1.3 0 2 0.6 0.8 0.6 0.8 1.6h3.1q-0.1-2.2-1.6-3.5-1.6-1.3-4.2-1.3-1.7 0-3 0.6-1.3 0.5-2 1.5-0.7 1-0.7 2.2 0 1.5 0.7 2.4 0.8 0.9 1.9 1.3 1 0.4 2.7 0.9 1.7 0.5 2.6 0.9 0.8 0.4 0.8 1.3 0 0.8-0.8 1.3-0.7 0.5-2 0.5-1.2 0-2.1-0.7-0.8-0.6-0.9-1.6h-3.2q0.1 1.4 0.9 2.5 0.8 1.1 2.2 1.7 1.4 0.7 3.2 0.7 1.7 0 3-0.6 1.3-0.6 2-1.6 0.7-1 0.7-2.3 0-1.4-0.8-2.3-0.7-0.9-1.8-1.3z"/>
				<path class="s8" d="m281.9 135.7h-3.1v3.7h-1.8v2.6h1.8v8.2q0 2.2 1.1 3.2 1.1 1 3.2 1h2.4v-2.6h-1.9q-0.9 0-1.3-0.3-0.4-0.4-0.4-1.3v-8.2h3.6v-2.6h-3.6v-3.7z"/>
				<path class="s8" d="m290.4 141.6v-2.2h-3.1v15h3.1v-7.9q0-2.3 0.9-3.2 1-0.9 2.8-0.9h0.8v-3.2q-1.6 0-2.7 0.6-1.1 0.7-1.8 1.8z"/>
				<path fill-rule="evenodd" class="s8" d="m310.9 139.4v15h-3.2v-2.2q-0.7 1-2.1 1.7-1.4 0.8-3.1 0.8-1.9 0-3.5-1-1.6-1-2.6-2.8-0.9-1.8-0.9-4 0-2.3 0.9-4 1-1.8 2.6-2.7 1.6-1 3.5-1 1.8 0 3.1 0.7 1.3 0.7 2.1 1.7v-2.2zm-3.1 7.5q0-1.5-0.6-2.7-0.7-1.1-1.7-1.7-1-0.6-2.2-0.6-1.2 0-2.3 0.6-1 0.6-1.6 1.7-0.7 1.1-0.7 2.7 0 1.5 0.7 2.7 0.6 1.2 1.6 1.8 1.1 0.6 2.3 0.6 1.2 0 2.2-0.6 1-0.6 1.7-1.8 0.6-1.1 0.6-2.7z"/>
				<path class="s7" d="m241.9 149.6q-0.8-1.4-1.9-2.5-0.2-0.2-0.3-0.3-0.1 1-0.3 1.9-0.2 0.7-0.4 1.4 0.3 0.3 0.5 0.7c0.3 0.7 0.8 1.9 0.3 2.9-0.8 1.2-3.2 1.6-6 0.5-0.1 0-1.1-0.5-1.4-0.7q-0.6-0.3-1.1-0.7-0.5-0.4-1-0.8c-0.6-0.6-1.1-1.3-1.5-2q-0.3-0.5-0.5-1.1-0.3 0.2-0.6 0.3-0.5 0.4-1 0.8-0.3 0.2-0.6 0.5 0.1 0.4 0.3 0.8c0.6 1 1.4 2 2.4 2.9-2.8 1.1-5.2 0.7-6-0.5-0.5-1 0-2.2 0.3-2.9 0.4-0.6 0.9-1.3 1.5-1.9q0.3-0.3 0.7-0.7 0.7-0.4 1.4-0.9 0.5-0.3 1.1-0.5c1.2-0.5 2.4-0.8 3.4-0.8h0.2q1.1 0 2.2 0.4 0.6 0.1 1.2 0.4-0.1 0.5-0.2 1c-0.2 0.8-0.4 1.5-0.8 2.1q0 0 0 0-0.3 0.7-0.9 1.4 0.3 0.2 0.6 0.3c0.3 0.2 1.1 0.6 1.1 0.6 0.3 0.1 0.8 0.2 0.8 0.3q0.4-0.6 0.7-1.2 0.8-1.3 1.2-3 0.2-1.4 0.2-2.8v-0.3c-0.1-5-2.8-8.9-6.2-8.9-2.8 0-5.1 2.6-5.9 6.2q0.9-0.4 1.8-0.7 0.7-0.2 1.4-0.4c0.7-1.5 1.7-2.4 2.7-2.4 1.4 0 3 1.9 3.5 4.9-1.2-0.4-2.4-0.6-3.5-0.6-1 0-2.4 0.2-3.4 0.6q-1.3 0.4-2.6 1.1-0.1 0.1-0.2 0.2c-1.9 1.1-3.5 2.7-4.4 4.4-1 1.9-1.1 3.8-0.2 5.4 1 1.7 2.9 2.5 5.2 2.5 1.7 0 3.7-0.5 5.6-1.5 1.9 1 3.9 1.5 5.6 1.5 2.3 0 4.2-0.8 5.2-2.5 0.9-1.5 0.8-3.5-0.2-5.4z"/>
				<path fill-rule="evenodd" class="s7" d="m334 141.5v10.8c0 2.4-1.9 4.3-4.3 4.3h-10.7c-2.4 0-4.3-1.9-4.3-4.3v-10.8c0-2.3 1.9-4.2 4.3-4.2h10.7c2.4 0 4.3 1.9 4.3 4.2zm-1.5 0c0-1.5-1.2-2.8-2.8-2.8h-10.7c-1.5 0-2.8 1.3-2.8 2.8v10.8c0 1.6 1.3 2.8 2.8 2.8h10.7c1.6 0 2.8-1.2 2.8-2.8z"/>
				<path fill-rule="evenodd" class="s8" d="m323.6 142.6l3.1 8.6h-1.8l-0.6-1.6h-3.4l-0.6 1.6h-1.8l3.1-8.6zm0.3 5.6l-1.3-3.6-1.2 3.6z"/>
				<path class="s8" d="m329.2 142.6h-1.7v8.6h1.7z"/>
				<path fill-rule="evenodd" class="s9" d="m228.6 221.2c-5.1 0-9.5-1.7-12.5-4.4l4-7c2.3 2.2 4.8 3.4 8.5 3.4 7.1 0 10.7-5.9 10.7-12.1q0-0.4 0-0.9c-2 2.9-6.3 5.5-11 5.5-7.7 0-14.6-4.8-14.6-13.9 0-8.3 6.7-14.7 16.4-14.7 12.9 0 18.4 10 18.4 22.1 0 12.9-7.2 22-19.9 22zm2.3-23.3c3.2 0 6.3-1.5 8.4-4-0.4-4.1-2.7-8.7-8.7-8.7-4.9 0-7.6 3.3-7.6 6.3 0 4.5 3.9 6.4 7.9 6.4zm37.2 23.4c-8.9 0-17.1-3.8-17.1-11.8 0-5.2 4-9.2 9.1-11-4.7-1.6-8.4-4.7-8.4-10 0-8 8.5-11.3 16.4-11.3 7.9 0 16.5 3.3 16.5 11.3 0 5.3-3.8 8.4-8.5 10 5.1 1.8 9.2 5.8 9.2 11 0 7.9-8.2 11.8-17.2 11.8zm0-26.4c2.7-0.4 7.2-1.8 7.2-5 0-3.1-3-4.9-7.2-4.9-4.2 0-7.2 1.8-7.2 4.9 0 3.2 4.6 4.6 7.2 5zm0 18.6c4.4 0 8-2.1 8-5.2 0-3.6-5.3-5.3-8-5.7-2.6 0.4-7.9 2.1-7.9 5.7 0 3.1 3.5 5.2 7.9 5.2zm29.9-15c-6.5 0-10.8-4.6-10.8-10.5 0-6.1 4.3-10.8 10.8-10.8 6.6 0 10.9 4.7 10.9 10.8 0 5.9-4.3 10.5-10.9 10.5zm0.7 22h-4.8l27.2-42.7h4.9zm22.9 0.8c-6.6 0-10.9-4.6-10.9-10.5 0-6.1 4.3-10.8 10.9-10.8 6.5 0 10.8 4.7 10.8 10.8 0 5.9-4.3 10.5-10.8 10.5zm-23.5-27.8c2.9 0 5-2.2 5-5.5 0-3.6-2.1-5.7-5-5.7-2.9 0-5.1 2.1-5.1 5.7 0 3.3 2.2 5.5 5.1 5.5zm23.5 22.8c2.9 0 5.1-2.1 5.1-5.5 0-3.6-2.2-5.7-5.1-5.7-3 0-5.1 2.1-5.1 5.7 0 3.4 2.1 5.5 5.1 5.5z"/>
				<path fill-rule="evenodd" class="s8" d="m232.1 254.5h-1.9l-0.5-1.3h-3.4l-0.5 1.3h-2l3.1-8h2.2zm-2.9-2.8l-1.3-3.5-1.2 3.5zm7.1 3c-2.4 0-4.3-1.7-4.3-4.2 0-2.4 1.9-4.1 4.3-4.1 1.7 0 2.8 1 3.3 1.9l-1.4 0.8c-0.4-0.7-1.1-1.2-1.9-1.2-1.5 0-2.5 1.1-2.5 2.6 0 1.5 1 2.7 2.5 2.7 0.8 0 1.5-0.5 1.9-1.2l1.4 0.7c-0.6 1-1.6 2-3.3 2zm8.2 0c-2.4 0-4.2-1.7-4.2-4.2 0-2.4 1.8-4.1 4.2-4.1 1.8 0 2.8 1 3.4 1.9l-1.5 0.8c-0.3-0.7-1.1-1.2-1.9-1.2-1.4 0-2.5 1.1-2.5 2.6 0 1.5 1.1 2.7 2.5 2.7 0.8 0 1.6-0.5 1.9-1.2l1.5 0.7c-0.6 1-1.6 2-3.4 2zm8 0c-2.5 0-3.6-1.4-3.6-3.4v-4.8h1.7v4.8c0 1.1 0.6 1.9 1.9 1.9 1.2 0 1.9-0.8 1.9-1.9v-4.8h1.7v4.8c0 2-1.2 3.4-3.6 3.4zm11.7-0.2h-2l-1.6-2.8h-1.2v2.8h-1.7v-8h3.7c1.7 0 2.7 1.1 2.7 2.6 0 1.4-0.9 2.2-1.7 2.4zm-3-4.4c0.6 0 1.2-0.4 1.2-1 0-0.7-0.6-1.1-1.2-1.1h-1.8v2.1zm11.7 4.4h-2l-0.5-1.4h-3.4l-0.5 1.4h-2l3.1-8h2.2zm-2.9-2.9l-1.3-3.4-1.2 3.4zm7.1 3c-2.4 0-4.3-1.7-4.3-4.1 0-2.5 1.9-4.2 4.3-4.2 1.7 0 2.8 1 3.3 2l-1.4 0.7c-0.4-0.6-1.1-1.1-1.9-1.1-1.5 0-2.5 1.1-2.5 2.6 0 1.5 1 2.6 2.5 2.6 0.8 0 1.5-0.5 1.9-1.2l1.4 0.8c-0.5 0.9-1.6 1.9-3.3 1.9zm8-0.1h-1.7v-3.3l-3.1-4.7h2l2 3.2 1.9-3.2h2l-3.1 4.7zm13.4 0h-2l-1.6-2.8h-1.2v2.8h-1.7v-8h3.7c1.7 0 2.7 1.1 2.7 2.6 0 1.4-0.9 2.1-1.7 2.4zm-3-4.4c0.6 0 1.2-0.4 1.2-1.1 0-0.6-0.6-1.1-1.2-1.1h-1.8v2.2zm9.9 4.4h-5.7v-8.1h5.7v1.5h-4v1.7h3.9v1.5h-3.9v1.9h4zm4.1 0.1c-1.5 0-2.6-0.5-3.4-1.3l1-1.3c0.5 0.6 1.4 1.1 2.5 1.1 1 0 1.4-0.4 1.4-0.9 0-1.4-4.6-0.4-4.6-3.4 0-1.4 1.2-2.5 3-2.5q2 0 3.2 1.1l-1 1.3c-0.6-0.6-1.5-0.9-2.3-0.9-0.7 0-1.2 0.3-1.2 0.8 0 1.3 4.6 0.4 4.6 3.4 0 1.5-1 2.6-3.2 2.6zm8 0c-2.4 0-3.6-1.4-3.6-3.3v-4.9h1.7v4.8c0 1.1 0.7 1.9 1.9 1.9 1.2 0 1.9-0.8 1.9-1.9v-4.8h1.7v4.8c0 2-1.2 3.4-3.6 3.4zm10.3-0.1h-5.1v-8.1h1.7v6.6h3.4zm3.5 0h-1.7v-6.6h-2.3v-1.5h6.4v1.5h-2.4z"/>
				<path fill-rule="evenodd" class="s10" d="m30.2 404.5c-3.1 0-5.7-2.2-5.7-5.5 0-3.4 2.6-5.5 5.7-5.5 2.2 0 3.6 1.1 4.4 2.3l-1.8 1.1c-0.5-0.8-1.4-1.4-2.6-1.4-1.9 0-3.3 1.5-3.3 3.5 0 2 1.4 3.5 3.3 3.5 1 0 1.9-0.4 2.3-0.8v-1.3h-2.8v-2h5.1v4.1c-1.1 1.2-2.6 2-4.6 2zm8.6-0.2h-2.2v-10.7h5c2.3 0 3.5 1.6 3.5 3.5 0 1.8-1.2 3.4-3.5 3.4h-2.8zm2.5-5.8c0.9 0 1.5-0.5 1.5-1.4 0-0.9-0.6-1.5-1.5-1.5h-2.5v2.9zm10.1 5.8h-2.3v-8.7h-3.1v-2h8.5v2h-3.1zm6.9-3h-3.9v-1.7h3.9zm8.2 3h-2.3v-2.2h-5.1v-1.8l4.3-6.7h3.1v6.5h1.4v2h-1.4zm-2.3-4.2v-4.4l-2.8 4.4zm8.6 4.4c-2.5 0-4.1-1.9-4.1-4.1 0-2.2 1.6-4 4.1-4 2.6 0 4.1 1.8 4.1 4 0 2.2-1.5 4.1-4.1 4.1zm0-1.8c1.3 0 2-1 2-2.3 0-1.2-0.7-2.2-2-2.2-1.3 0-2 1-2 2.2 0 1.3 0.7 2.3 2 2.3zm21.3 1.6h-2v-4.9c0-0.7-0.3-1.2-1.2-1.2-0.7 0-1.3 0.5-1.6 0.9v5.2h-2v-4.9c0-0.7-0.3-1.2-1.2-1.2-0.7 0-1.3 0.5-1.6 0.9v5.2h-2v-7.7h2v1c0.3-0.5 1.4-1.2 2.6-1.2 1.1 0 1.8 0.5 2.1 1.4 0.4-0.7 1.5-1.4 2.7-1.4 1.4 0 2.2 0.7 2.2 2.3zm3-8.5c-0.6 0-1.2-0.6-1.2-1.3 0-0.6 0.6-1.2 1.2-1.2 0.7 0 1.2 0.6 1.2 1.2 0 0.7-0.5 1.3-1.2 1.3zm1.1 8.5h-2.1v-7.7h2.1zm9.2 0h-2v-4.7c0-1-0.6-1.4-1.4-1.4-0.8 0-1.5 0.4-1.8 0.9v5.2h-2v-7.7h2v1c0.5-0.6 1.4-1.2 2.7-1.2 1.7 0 2.5 0.9 2.5 2.4zm3-8.5c-0.6 0-1.2-0.6-1.2-1.2 0-0.7 0.6-1.2 1.2-1.2 0.7 0 1.3 0.5 1.3 1.2 0 0.6-0.6 1.2-1.3 1.2zm1.1 8.5h-2.1v-7.7h2.1zm9.5 2.2l-1.2 1c-1.6-1.7-2.6-4.5-2.6-7.1 0-2.6 1-5.3 2.6-7l1.2 0.9c-1 2-1.6 3.7-1.6 6.1 0 2.4 0.6 4.2 1.6 6.1zm6.5-2c-3.2 0-5.6-2.2-5.6-5.5 0-3.3 2.4-5.5 5.6-5.5 2.4 0 3.8 1.2 4.5 2.6l-1.9 0.9c-0.5-0.8-1.5-1.5-2.6-1.5-1.9 0-3.3 1.5-3.3 3.5 0 2 1.4 3.5 3.3 3.5 1.1 0 2.1-0.7 2.6-1.6l1.9 1c-0.8 1.3-2.1 2.6-4.5 2.6zm13.1-0.2h-2.1v-4.7c0-1.1-0.5-1.4-1.4-1.4-0.8 0-1.4 0.4-1.8 0.9v5.2h-2v-10.7h2v4c0.5-0.6 1.5-1.2 2.8-1.2 1.7 0 2.5 0.9 2.5 2.4zm8.7 0h-2.1v-0.8c-0.5 0.6-1.4 1-2.4 1-1.3 0-2.7-0.8-2.7-2.5 0-1.9 1.4-2.5 2.7-2.5 1 0 1.9 0.3 2.4 0.9v-1c0-0.8-0.6-1.3-1.7-1.3q-1.2 0-2.2 0.9l-0.8-1.4c1-0.8 2.2-1.2 3.4-1.2 1.7 0 3.4 0.7 3.4 2.9zm-3.7-1.2c0.7 0 1.3-0.2 1.6-0.6v-1c-0.3-0.4-0.9-0.7-1.6-0.7-0.8 0-1.5 0.5-1.5 1.2 0 0.7 0.7 1.1 1.5 1.1zm8.3 1.4c-1.5 0-2.2-0.7-2.2-2.1v-4h-1.3v-1.8h1.3v-2.1h2v2.1h1.6v1.8h-1.6v3.5c0 0.4 0.3 0.8 0.7 0.8 0.3 0 0.6-0.1 0.7-0.2l0.5 1.5c-0.3 0.3-0.9 0.5-1.7 0.5zm8 0c-3.1 0-5.7-2.1-5.7-5.5 0-3.4 2.6-5.5 5.7-5.5 2.2 0 3.6 1.1 4.4 2.4l-1.9 1c-0.5-0.8-1.4-1.4-2.5-1.4-1.9 0-3.3 1.5-3.3 3.5 0 2 1.4 3.5 3.3 3.5 0.9 0 1.8-0.4 2.3-0.8v-1.3h-2.8v-2h5v4.1c-1 1.2-2.6 2-4.5 2zm8.6-0.2h-2.3v-10.6h5c2.4 0 3.6 1.5 3.6 3.4 0 1.9-1.3 3.4-3.6 3.4h-2.7zm2.4-5.8c0.9 0 1.6-0.5 1.6-1.4 0-0.9-0.7-1.4-1.6-1.4h-2.4v2.8zm10.1 5.8h-2.3v-8.6h-3.1v-2h8.5v2h-3.1zm10.9 0h-2.3v-10.7h7.6v2h-5.3v2.3h5.2v2h-5.2zm8.8 0h-2v-7.8h2v1.1c0.6-0.7 1.6-1.3 2.5-1.3v2q-0.2 0-0.5 0c-0.7 0-1.6 0.4-2 0.8zm7.4 0.2c-2.3 0-4.1-1.5-4.1-4 0-2.3 1.6-4.1 4-4.1 2.3 0 3.9 1.8 3.9 4.3v0.4h-5.8c0.1 1 0.9 1.8 2.2 1.8 0.7 0 1.6-0.3 2.1-0.7l0.9 1.3c-0.8 0.7-2 1-3.2 1zm1.8-4.7c-0.1-0.8-0.6-1.8-1.9-1.8-1.3 0-1.8 1-1.9 1.8zm7 4.7c-2.3 0-4.1-1.5-4.1-4 0-2.3 1.7-4.1 4-4.1 2.3 0 3.9 1.8 3.9 4.3v0.4h-5.8c0.2 1 1 1.8 2.3 1.8 0.6 0 1.5-0.3 2-0.7l0.9 1.3c-0.7 0.7-2 1-3.2 1zm1.8-4.7c0-0.8-0.5-1.8-1.9-1.8-1.2 0-1.8 1-1.9 1.8zm4 7.7l-1.3-1c1.1-1.9 1.6-3.6 1.6-6 0-2.4-0.5-4.2-1.6-6.2l1.3-0.9c1.6 1.7 2.6 4.5 2.6 7.1 0 2.5-1 5.3-2.6 7z"/>
				<path fill-rule="evenodd" class="s6" d="m55.1 470.7h-9.1v-8.8h-20.4v-7.2l17-26.7h12.5v25.9h5.5v8h-5.5zm-9.1-16.9v-17.7l-11.5 17.7zm31.9 16.9h-10l15.3-34.7h-21.5v-8h32.1v6.3zm27.6-22.1c-6.5 0-10.8-4.5-10.8-10.5 0-6 4.3-10.7 10.8-10.7 6.6 0 10.9 4.7 10.9 10.7 0 6-4.3 10.5-10.9 10.5zm0.6 22.1h-4.8l27.3-42.7h4.9zm22.8 0.8c-6.5 0-10.8-4.6-10.8-10.6 0-6 4.3-10.7 10.8-10.7 6.5 0 10.9 4.7 10.9 10.7 0 6-4.4 10.6-10.9 10.6zm-23.5-27.8c3 0 5.1-2.2 5.1-5.5 0-3.6-2.1-5.7-5.1-5.7-2.9 0-5 2.1-5 5.7 0 3.3 2.1 5.5 5 5.5zm23.5 22.8c3 0 5.1-2.1 5.1-5.6 0-3.5-2.1-5.7-5.1-5.7-2.9 0-5 2.2-5 5.7 0 3.5 2.1 5.6 5 5.6z"/>
				<path fill-rule="evenodd" class="s8" d="m32.3 504.7h-2l-0.5-1.3h-3.4l-0.5 1.3h-2l3.1-8h2.2zm-2.9-2.9l-1.3-3.4-1.2 3.4zm7.1 3c-2.4 0-4.3-1.6-4.3-4.1 0-2.5 1.9-4.1 4.3-4.1 1.7 0 2.8 0.9 3.3 1.9l-1.4 0.7c-0.4-0.6-1.1-1.1-1.9-1.1-1.5 0-2.5 1.1-2.5 2.6 0 1.5 1 2.6 2.5 2.6 0.8 0 1.5-0.5 1.9-1.1l1.4 0.7c-0.5 1-1.6 1.9-3.3 1.9zm8.2 0c-2.4 0-4.2-1.6-4.2-4.1 0-2.5 1.8-4.1 4.2-4.1 1.8 0 2.8 0.9 3.4 1.9l-1.5 0.7c-0.3-0.6-1.1-1.1-1.9-1.1-1.4 0-2.5 1.1-2.5 2.6 0 1.5 1.1 2.6 2.5 2.6 0.8 0 1.6-0.5 1.9-1.1l1.5 0.7c-0.6 1-1.6 1.9-3.4 1.9zm8 0c-2.4 0-3.6-1.3-3.6-3.3v-4.8h1.7v4.7c0 1.2 0.7 1.9 1.9 1.9 1.2 0 1.9-0.7 1.9-1.9v-4.7h1.7v4.8c0 2-1.2 3.3-3.6 3.3zm11.7-0.1h-2l-1.6-2.8h-1.2v2.8h-1.7v-8h3.7c1.7 0 2.7 1.1 2.7 2.6 0 1.4-0.9 2.1-1.7 2.4zm-3-4.4c0.7 0 1.2-0.4 1.2-1.1 0-0.6-0.5-1.1-1.2-1.1h-1.8v2.2zm11.7 4.4h-2l-0.5-1.4h-3.4l-0.5 1.4h-1.9l3-8.1h2.2zm-2.9-2.8l-1.3-3.5-1.2 3.5zm7.1 3c-2.4 0-4.3-1.7-4.3-4.1 0-2.5 1.9-4.2 4.3-4.2 1.8 0 2.8 1 3.3 2l-1.4 0.7c-0.4-0.7-1.1-1.2-1.9-1.2-1.5 0-2.5 1.1-2.5 2.7 0 1.5 1 2.6 2.5 2.6 0.8 0 1.5-0.5 1.9-1.2l1.4 0.7c-0.5 1-1.5 2-3.3 2zm8-0.2h-1.7v-3.2l-3.1-4.8h2l2 3.3 1.9-3.3h2l-3.1 4.8zm13.4 0h-2l-1.6-2.9h-1.2v2.9h-1.7v-8h3.7c1.7 0 2.7 1.1 2.7 2.5 0 1.5-0.9 2.2-1.7 2.4zm-3-4.3c0.7 0 1.2-0.4 1.2-1.1 0-0.7-0.5-1.1-1.2-1.1h-1.8v2.2zm9.9 4.3h-5.7v-8h5.7v1.5h-4v1.7h3.9v1.5h-3.9v1.8h4zm4.1 0.2c-1.5 0-2.6-0.5-3.3-1.3l0.9-1.3c0.5 0.6 1.4 1.1 2.5 1.1 1 0 1.4-0.5 1.4-0.9 0-1.4-4.6-0.5-4.6-3.5 0-1.3 1.2-2.4 3-2.4q2 0 3.2 1.1l-1 1.3c-0.6-0.6-1.5-0.9-2.3-0.9-0.7 0-1.1 0.3-1.1 0.8 0 1.3 4.5 0.4 4.5 3.4 0 1.5-1 2.6-3.2 2.6zm8 0c-2.4 0-3.6-1.4-3.6-3.4v-4.8h1.7v4.8c0 1.1 0.7 1.9 1.9 1.9 1.2 0 1.9-0.8 1.9-1.9v-4.8h1.7v4.8c0 2-1.2 3.4-3.6 3.4zm10.3-0.2h-5.1v-8h1.7v6.5h3.4zm3.5 0h-1.7v-6.5h-2.3v-1.5h6.4v1.5h-2.4z"/>
				<path fill-rule="evenodd" class="s8" d="m26.9 528.9h-0.7l0.1-1.8-1.5 1-0.3-0.6 1.5-0.8-1.5-0.8 0.3-0.6 1.5 1-0.1-1.7h0.7l-0.1 1.7 1.4-1 0.4 0.6-1.5 0.8 1.5 0.8-0.4 0.6-1.4-1zm4.5 5.9h-1.2v-10h1.2v3.8c0.5-0.8 1.4-1.2 2.4-1.2 1.9 0 3.2 1.5 3.2 3.8 0 2.3-1.3 3.8-3.2 3.8-1 0-1.9-0.6-2.4-1.3zm0-2c0.3 0.7 1.2 1.2 2.1 1.2 1.5 0 2.4-1.2 2.4-2.8 0-1.6-0.9-2.8-2.4-2.8-0.9 0-1.8 0.5-2.1 1.2zm10.6 2.1c-2.2 0-3.6-1.7-3.6-3.8 0-2.1 1.4-3.8 3.6-3.8 2.2 0 3.6 1.7 3.6 3.8 0 2.1-1.4 3.8-3.6 3.8zm0-1c1.6 0 2.4-1.3 2.4-2.8 0-1.5-0.8-2.8-2.4-2.8-1.5 0-2.4 1.3-2.4 2.8 0 1.5 0.9 2.8 2.4 2.8zm7.3 1c-1.1 0-1.6-0.6-1.6-1.7v-4.7h-1.2v-1h1.2v-2h1.1v2h1.5v1h-1.5v4.5c0 0.5 0.2 0.9 0.7 0.9 0.3 0 0.6-0.1 0.8-0.3l0.3 0.8c-0.3 0.3-0.7 0.5-1.3 0.5zm8.6-0.2h-1.1v-4.8c0-1.2-0.7-1.6-1.7-1.6-0.8 0-1.7 0.5-2.1 1.1v5.3h-1.1v-10h1.1v3.8c0.5-0.6 1.5-1.2 2.6-1.2 1.5 0 2.3 0.7 2.3 2.3zm16 0h-1.2v-4.9c0-0.9-0.4-1.5-1.3-1.5-0.7 0-1.5 0.5-1.9 1.1v5.3h-1.1v-4.9c0-0.9-0.4-1.5-1.4-1.5-0.7 0-1.5 0.5-1.9 1.1v5.3h-1.1v-7.2h1.1v1c0.3-0.5 1.3-1.2 2.4-1.2 1.1 0 1.7 0.6 1.9 1.3 0.4-0.6 1.4-1.3 2.4-1.3 1.4 0 2.1 0.7 2.1 2.2zm5.4 0.1c-2.2 0-3.6-1.7-3.6-3.8 0-2.1 1.4-3.8 3.6-3.8 2.2 0 3.6 1.7 3.6 3.8 0 2.1-1.4 3.8-3.6 3.8zm0-1c1.5 0 2.4-1.3 2.4-2.8 0-1.4-0.9-2.8-2.4-2.8-1.6 0-2.4 1.4-2.4 2.8 0 1.5 0.8 2.8 2.4 2.8zm11.8 0.9h-1.2v-1.1c-0.5 0.7-1.4 1.2-2.4 1.2-1.9 0-3.2-1.4-3.2-3.7 0-2.4 1.3-3.9 3.2-3.9 1 0 1.9 0.5 2.4 1.3v-3.8h1.2zm-3.3-0.9c0.9 0 1.7-0.5 2.1-1.1v-3.3c-0.4-0.6-1.2-1.2-2.1-1.2-1.5 0-2.4 1.2-2.4 2.8 0 1.7 0.9 2.8 2.4 2.8zm8.8 1c-2.2 0-3.7-1.5-3.7-3.8 0-2.1 1.5-3.8 3.6-3.8 2.2 0 3.5 1.7 3.5 3.9v0.3h-5.9c0.1 1.4 1 2.5 2.6 2.5 0.8 0 1.7-0.3 2.2-0.9l0.6 0.7c-0.7 0.8-1.7 1.1-2.9 1.1zm2.2-4.2c0-1.1-0.7-2.4-2.3-2.4-1.6 0-2.4 1.3-2.4 2.4zm4 4.1h-1.1v-10h1.1zm4.6 0.1c-1.2 0-2.2-0.3-2.9-1.1l0.5-0.8c0.5 0.5 1.4 1 2.4 1 1.1 0 1.7-0.5 1.7-1.2 0-1.8-4.4-0.7-4.4-3.4 0-1.1 0.9-2.1 2.7-2.1 1.2 0 2.1 0.5 2.6 1.1l-0.5 0.8c-0.4-0.6-1.2-1-2.1-1-1 0-1.6 0.5-1.6 1.2 0 1.6 4.4 0.5 4.4 3.3 0 1.3-0.9 2.2-2.8 2.2zm15.9-0.1h-1.1l-1.9-5.9-1.9 5.9h-1.1l-2.3-7.3h1.2l1.7 5.8 1.9-5.8h1l1.9 5.8 1.8-5.8h1.1zm6.9 0.2c-2.1 0-3.7-1.6-3.7-3.8 0-2.1 1.5-3.8 3.6-3.8 2.2 0 3.5 1.7 3.5 3.9v0.3h-5.9c0.1 1.3 1.1 2.5 2.6 2.5 0.9 0 1.7-0.4 2.3-1l0.5 0.8c-0.7 0.7-1.7 1.1-2.9 1.1zm2.3-4.3c0-1-0.8-2.4-2.4-2.4-1.6 0-2.3 1.3-2.4 2.4zm4.1 4.1h-1.1v-7.2h1.1v1.1c0.6-0.7 1.4-1.3 2.4-1.3v1.2q-0.2-0.1-0.5-0.1c-0.6 0-1.6 0.6-1.9 1.2zm7.1 0.2c-2.2 0-3.7-1.6-3.7-3.8 0-2.1 1.5-3.8 3.6-3.8 2.1 0 3.4 1.7 3.4 3.8v0.3h-5.8c0.1 1.4 1 2.5 2.6 2.5 0.8 0 1.6-0.3 2.2-0.9l0.6 0.8c-0.8 0.7-1.7 1.1-2.9 1.1zm2.2-4.3c0-1.1-0.7-2.4-2.4-2.4-1.5 0-2.3 1.3-2.3 2.4zm8.6 4.3c-1.1 0-1.6-0.7-1.6-1.7v-4.8h-1.2v-1h1.2v-1.9h1.1v1.9h1.5v1h-1.5v4.5c0 0.6 0.3 1 0.8 1 0.3 0 0.6-0.2 0.7-0.3l0.3 0.8c-0.2 0.3-0.6 0.5-1.3 0.5zm5.8 0c-2.1 0-3.6-1.6-3.6-3.8 0-2.1 1.5-3.8 3.5-3.8 2.2 0 3.5 1.7 3.5 3.8v0.3h-5.9c0.1 1.4 1.1 2.5 2.7 2.5 0.8 0 1.6-0.3 2.2-0.9l0.5 0.8c-0.7 0.7-1.7 1.1-2.9 1.1zm2.3-4.3c0-1.1-0.7-2.4-2.4-2.4-1.5 0-2.3 1.3-2.4 2.4zm5.3 4.3c-1.2 0-2.2-0.4-3-1.2l0.6-0.8c0.5 0.6 1.4 1 2.4 1 1.1 0 1.7-0.5 1.7-1.2 0-1.8-4.5-0.7-4.5-3.4 0-1.1 1-2 2.7-2 1.3 0 2.1 0.4 2.7 1l-0.5 0.8c-0.4-0.5-1.2-0.9-2.2-0.9-1 0-1.6 0.5-1.6 1.1 0 1.6 4.5 0.6 4.5 3.4 0 1.2-1 2.2-2.8 2.2zm6.5 0c-1.1 0-1.6-0.7-1.6-1.7v-4.8h-1.2v-1h1.2v-1.9h1.1v1.9h1.5v1h-1.5v4.5c0 0.6 0.2 1 0.7 1 0.3 0 0.6-0.2 0.8-0.3l0.3 0.8c-0.3 0.3-0.7 0.5-1.3 0.5zm5.8 0c-2.1 0-3.7-1.6-3.7-3.8 0-2.1 1.5-3.8 3.6-3.8 2.2 0 3.5 1.7 3.5 3.8v0.3h-5.9c0.1 1.4 1.1 2.5 2.6 2.5 0.9 0 1.7-0.3 2.3-0.9l0.5 0.8c-0.7 0.7-1.7 1.1-2.9 1.1zm2.3-4.3c0-1.1-0.8-2.4-2.4-2.4-1.6 0-2.3 1.3-2.4 2.4zm9.3 4.1h-1.1v-1.1c-0.5 0.7-1.4 1.3-2.4 1.3-1.9 0-3.3-1.5-3.3-3.8 0-2.3 1.4-3.8 3.3-3.8 0.9 0 1.8 0.4 2.4 1.2v-3.8h1.1zm-3.3-0.8c0.9 0 1.8-0.6 2.2-1.2v-3.3c-0.4-0.6-1.3-1.1-2.2-1.1-1.4 0-2.3 1.2-2.3 2.8 0 1.6 0.9 2.8 2.3 2.8zm12.6 1c-2.2 0-3.6-1.8-3.6-3.9 0-2.1 1.4-3.7 3.6-3.7 2.2 0 3.6 1.6 3.6 3.7 0 2.1-1.4 3.9-3.6 3.9zm0-1c1.6 0 2.4-1.4 2.4-2.9 0-1.4-0.8-2.7-2.4-2.7-1.5 0-2.4 1.3-2.4 2.7 0 1.5 0.9 2.9 2.4 2.9zm11.4 0.8h-1.1v-4.8c0-1.2-0.6-1.6-1.6-1.6-0.9 0-1.7 0.5-2.1 1.1v5.3h-1.2v-7.3h1.2v1.1c0.5-0.6 1.5-1.2 2.5-1.2 1.6 0 2.3 0.7 2.3 2.3zm9 0h-1.3v-8.4l-1.6 1.7-0.7-0.7 2.5-2.6h1.1zm5.6 0.2c-1.7 0-2.7-0.6-3.5-1.6l0.8-0.9c0.6 0.9 1.5 1.4 2.7 1.4 1.4 0 2.3-1 2.3-2.2 0-1.3-0.9-2.1-2.3-2.1-0.8 0-1.6 0.2-2.3 0.9l-0.9-0.3v-5.4h6.1v1.1h-4.8v3.5c0.4-0.5 1.3-0.9 2.3-0.9 1.7 0 3.2 1.1 3.2 3.2 0 2-1.6 3.3-3.6 3.3zm15.4-0.2h-1.1v-4.8c0-1.3-0.7-1.6-1.7-1.6-0.8 0-1.7 0.5-2.1 1.1v5.3h-1.1v-10h1.1v3.8c0.5-0.6 1.5-1.2 2.6-1.2 1.5 0 2.3 0.7 2.3 2.3zm2.8-8.3c-0.4 0-0.8-0.3-0.8-0.8 0-0.4 0.4-0.7 0.8-0.7 0.4 0 0.8 0.3 0.8 0.7 0 0.5-0.4 0.8-0.8 0.8zm0.6 8.3h-1.2v-7.3h1.2zm5.1 3c-1.2 0-2.1-0.3-2.9-1.1l0.6-0.9c0.6 0.8 1.3 1 2.3 1 1.2 0 2.3-0.5 2.3-2.1v-1.1c-0.5 0.8-1.4 1.3-2.4 1.3-1.9 0-3.2-1.4-3.2-3.7 0-2.4 1.3-3.8 3.2-3.8 1 0 1.9 0.5 2.4 1.3v-1.1h1.2v7c0 2.4-1.7 3.2-3.5 3.2zm0.2-3.9c0.9 0 1.8-0.5 2.1-1.2v-3.1c-0.3-0.7-1.2-1.2-2.1-1.2-1.5 0-2.3 1.2-2.3 2.8 0 1.6 0.8 2.7 2.3 2.7zm11.5 0.9h-1.1v-4.7c0-1.3-0.6-1.7-1.6-1.7-0.9 0-1.7 0.5-2.2 1.1v5.3h-1.1v-10h1.1v3.8c0.6-0.6 1.5-1.2 2.6-1.2 1.6 0 2.3 0.7 2.3 2.3zm8.5 0.2c-1.2 0-2.2-0.4-3-1.1l0.6-0.9c0.5 0.6 1.4 1.1 2.4 1.1 1.1 0 1.7-0.5 1.7-1.3 0-1.7-4.5-0.6-4.5-3.3 0-1.2 1-2.1 2.7-2.1 1.3 0 2.1 0.5 2.7 1l-0.5 0.8c-0.4-0.5-1.2-0.9-2.2-0.9-1 0-1.6 0.5-1.6 1.1 0 1.6 4.5 0.6 4.5 3.4 0 1.2-1 2.2-2.8 2.2zm7.8 0c-2.1 0-3.6-1.7-3.6-3.8 0-2.2 1.5-3.8 3.6-3.8 1.3 0 2.1 0.5 2.7 1.2l-0.8 0.7c-0.4-0.6-1.1-0.9-1.8-0.9-1.6 0-2.5 1.2-2.5 2.8 0 1.6 0.9 2.8 2.5 2.8q1.1 0 1.8-1l0.8 0.7c-0.6 0.8-1.4 1.3-2.7 1.3zm10.3-0.2h-1.1v-4.8c0-1.2-0.7-1.6-1.7-1.6-0.8 0-1.7 0.5-2.1 1.1v5.3h-1.1v-10h1.1v3.8c0.5-0.6 1.5-1.2 2.6-1.2 1.5 0 2.3 0.7 2.3 2.3zm5.4 0.2c-2.2 0-3.6-1.7-3.6-3.8 0-2.1 1.4-3.8 3.6-3.8 2.2 0 3.6 1.7 3.6 3.8 0 2.1-1.4 3.8-3.6 3.8zm0-1c1.5 0 2.4-1.3 2.4-2.8 0-1.5-0.9-2.8-2.4-2.8-1.5 0-2.4 1.3-2.4 2.8 0 1.5 0.9 2.8 2.4 2.8zm8.6 1c-2.2 0-3.6-1.7-3.6-3.8 0-2.1 1.4-3.8 3.6-3.8 2.2 0 3.6 1.7 3.6 3.8 0 2.1-1.4 3.8-3.6 3.8zm0-1c1.5 0 2.4-1.3 2.4-2.8 0-1.5-0.9-2.8-2.4-2.8-1.6 0-2.4 1.3-2.4 2.8 0 1.5 0.8 2.8 2.4 2.8zm6.5 0.8h-1.1v-10h1.1zm-274.8 21h-1.1v-4.9c0-0.9-0.4-1.5-1.3-1.5-0.8 0-1.6 0.5-1.9 1.1v5.3h-1.2v-4.9c0-0.9-0.4-1.5-1.3-1.5-0.7 0-1.5 0.5-1.9 1.1v5.3h-1.1v-7.3h1.1v1.1c0.3-0.5 1.3-1.2 2.3-1.2 1.1 0 1.8 0.6 2 1.3 0.4-0.6 1.4-1.3 2.4-1.3 1.3 0 2 0.7 2 2.2zm7.9 0h-1.1v-0.9c-0.6 0.7-1.4 1-2.4 1-1.2 0-2.5-0.8-2.5-2.4 0-1.6 1.3-2.3 2.5-2.3 1 0 1.8 0.3 2.4 0.9v-1.3c0-0.9-0.8-1.5-1.8-1.5-0.9 0-1.6 0.3-2.2 1l-0.6-0.8c0.8-0.8 1.7-1.2 2.9-1.2 1.6 0 2.8 0.7 2.8 2.5zm-3.1-0.7c0.8 0 1.6-0.3 2-0.9v-1.3c-0.4-0.6-1.2-0.9-2-0.9-1 0-1.8 0.6-1.8 1.6 0 0.9 0.8 1.5 1.8 1.5zm7.2 0.9c-1 0-1.6-0.7-1.6-1.7v-4.8h-1.2v-1h1.2v-1.9h1.1v1.9h1.5v1h-1.5v4.5c0 0.6 0.3 1 0.8 1 0.3 0 0.6-0.2 0.7-0.3l0.4 0.8c-0.3 0.3-0.7 0.5-1.4 0.5zm8.6-0.2h-1.1v-4.8c0-1.3-0.7-1.6-1.6-1.6-0.9 0-1.7 0.5-2.2 1.1v5.3h-1.1v-10h1.1v3.8c0.5-0.6 1.5-1.2 2.6-1.2 1.5 0 2.3 0.7 2.3 2.3zm9.7 0.1c-1 0-1.8-0.4-2.4-1.2v3.8h-1.2v-10h1.2v1.1c0.5-0.7 1.4-1.3 2.4-1.3 1.9 0 3.2 1.5 3.2 3.8 0 2.4-1.3 3.8-3.2 3.8zm-0.3-1c1.5 0 2.4-1.2 2.4-2.8 0-1.6-0.9-2.8-2.4-2.8-0.9 0-1.7 0.6-2.1 1.2v3.3c0.4 0.6 1.2 1.1 2.1 1.1zm6.5 0.9h-1.2v-7.3h1.2v1.2c0.5-0.8 1.4-1.3 2.4-1.3v1.1q-0.2 0-0.5 0c-0.7 0-1.6 0.5-1.9 1.1zm6.9 0.2c-2.2 0-3.5-1.7-3.5-3.8 0-2.1 1.3-3.8 3.5-3.8 2.3 0 3.6 1.7 3.6 3.8 0 2.1-1.3 3.8-3.6 3.8zm0-1c1.6 0 2.4-1.3 2.4-2.8 0-1.5-0.8-2.8-2.4-2.8-1.5 0-2.4 1.3-2.4 2.8 0 1.5 0.9 2.8 2.4 2.8zm6.6 0.8h-1.1v-10h1.1v3.9c0.6-0.8 1.4-1.3 2.4-1.3 1.9 0 3.3 1.5 3.3 3.8 0 2.4-1.4 3.8-3.3 3.8-1 0-1.9-0.5-2.4-1.2zm0-2c0.4 0.6 1.3 1.1 2.2 1.1 1.4 0 2.3-1.2 2.3-2.8 0-1.6-0.9-2.8-2.3-2.8-0.9 0-1.8 0.6-2.2 1.2zm8.6 2h-1.1v-10h1.1zm5.5 0.1c-2.1 0-3.7-1.5-3.7-3.8 0-2.1 1.5-3.8 3.6-3.8 2.2 0 3.5 1.7 3.5 3.9v0.3h-5.9c0.1 1.4 1.1 2.5 2.6 2.5 0.9 0 1.7-0.3 2.3-0.9l0.5 0.7c-0.7 0.8-1.7 1.1-2.9 1.1zm2.3-4.2c0-1.1-0.8-2.4-2.4-2.4-1.5 0-2.3 1.3-2.4 2.4zm12.8 4.1h-1.1v-5c0-0.9-0.4-1.5-1.3-1.5-0.8 0-1.6 0.6-1.9 1.2v5.3h-1.2v-5c0-0.9-0.4-1.5-1.3-1.5-0.7 0-1.5 0.6-1.9 1.2v5.3h-1.1v-7.3h1.1v1.1c0.3-0.5 1.3-1.3 2.3-1.3 1.1 0 1.8 0.6 2 1.4 0.4-0.7 1.4-1.4 2.4-1.4 1.3 0 2 0.8 2 2.2zm4.6 0.2c-1.2 0-2.2-0.4-3-1.1l0.6-0.8c0.5 0.5 1.4 1 2.4 1 1.1 0 1.7-0.5 1.7-1.3 0-1.7-4.5-0.6-4.5-3.3 0-1.1 1-2.1 2.7-2.1 1.3 0 2.1 0.5 2.7 1.1l-0.5 0.7c-0.4-0.5-1.2-0.9-2.2-0.9-0.9 0-1.6 0.5-1.6 1.2 0 1.5 4.5 0.5 4.5 3.3 0 1.2-1 2.2-2.8 2.2zm10.3 0c-1 0-1.6-0.6-1.6-1.7v-4.7h-1.2v-1h1.2v-2h1.2v2h1.4v1h-1.4v4.5c0 0.5 0.2 0.9 0.7 0.9 0.3 0 0.6-0.1 0.8-0.3l0.3 0.8c-0.3 0.3-0.7 0.5-1.4 0.5zm8.7-0.2h-1.2v-4.7c0-1.3-0.6-1.7-1.6-1.7-0.9 0-1.7 0.5-2.2 1.1v5.3h-1.1v-10h1.1v3.8c0.6-0.6 1.5-1.2 2.6-1.2 1.6 0 2.4 0.7 2.4 2.3zm7.9 0h-1.2v-0.8c-0.6 0.6-1.4 1-2.4 1-1.2 0-2.5-0.8-2.5-2.4 0-1.6 1.3-2.4 2.5-2.4 1 0 1.8 0.3 2.4 1v-1.3c0-1-0.7-1.5-1.8-1.5-0.9 0-1.6 0.3-2.2 1l-0.5-0.8c0.7-0.8 1.7-1.2 2.9-1.2 1.5 0 2.8 0.7 2.8 2.4zm-3.2-0.6c0.8 0 1.6-0.3 2-0.9v-1.4c-0.4-0.6-1.2-0.9-2-0.9-1 0-1.7 0.7-1.7 1.6 0 0.9 0.7 1.6 1.7 1.6zm7.2 0.8c-1 0-1.6-0.6-1.6-1.7v-4.7h-1.2v-1h1.2v-2h1.2v2h1.4v1h-1.4v4.5c0 0.5 0.2 0.9 0.7 0.9 0.3 0 0.6-0.1 0.8-0.3l0.3 0.8c-0.3 0.3-0.7 0.5-1.4 0.5zm7.6-0.2h-1.1v-10h1.1zm7.9 0h-1.1v-0.8c-0.6 0.7-1.4 1-2.4 1-1.2 0-2.5-0.8-2.5-2.4 0-1.6 1.3-2.4 2.5-2.4 1 0 1.8 0.3 2.4 1v-1.3c0-1-0.8-1.5-1.8-1.5-0.9 0-1.6 0.3-2.3 1l-0.5-0.8c0.8-0.8 1.7-1.2 2.9-1.2 1.5 0 2.8 0.7 2.8 2.4zm-3.1-0.6c0.8 0 1.6-0.3 2-0.9v-1.3c-0.4-0.6-1.2-0.9-2-0.9-1.1 0-1.8 0.6-1.8 1.5 0 1 0.7 1.6 1.8 1.6zm6.5 0.6h-1.1v-7.2h1.1v1.2c0.6-0.8 1.4-1.3 2.4-1.3v1.1q-0.2 0-0.4 0c-0.7 0-1.7 0.5-2 1.1zm6.7 3c-1.2 0-2-0.3-2.9-1.1l0.6-0.9c0.6 0.8 1.3 1 2.3 1 1.2 0 2.4-0.6 2.4-2.1v-1.1c-0.6 0.8-1.5 1.3-2.5 1.3-1.9 0-3.2-1.4-3.2-3.7 0-2.4 1.3-3.8 3.2-3.8 1 0 1.9 0.5 2.5 1.3v-1.1h1.1v7c0 2.4-1.7 3.2-3.5 3.2zm0.2-3.9c0.9 0 1.8-0.5 2.2-1.2v-3.1c-0.4-0.7-1.3-1.2-2.2-1.2-1.5 0-2.3 1.2-2.3 2.8 0 1.5 0.8 2.7 2.3 2.7zm8.8 1.1c-2.1 0-3.7-1.5-3.7-3.8 0-2.1 1.5-3.8 3.6-3.8 2.2 0 3.5 1.7 3.5 3.9v0.3h-5.9c0.1 1.3 1 2.5 2.6 2.5 0.8 0 1.7-0.4 2.2-0.9l0.6 0.7c-0.7 0.7-1.7 1.1-2.9 1.1zm2.3-4.3c-0.1-1-0.8-2.4-2.4-2.4-1.6 0-2.3 1.3-2.4 2.4zm7.9 4.1h-1.1v-10h1.1zm7.9 0h-1.1v-0.8c-0.6 0.6-1.4 1-2.4 1-1.2 0-2.5-0.8-2.5-2.4 0-1.6 1.3-2.4 2.5-2.4 1 0 1.8 0.3 2.4 1v-1.3c0-1-0.8-1.5-1.8-1.5-0.9 0-1.6 0.3-2.3 1l-0.5-0.8c0.8-0.8 1.7-1.2 2.9-1.2 1.5 0 2.8 0.7 2.8 2.4zm-3.1-0.6c0.8 0 1.6-0.3 2-0.9v-1.4c-0.4-0.6-1.2-0.9-2-0.9-1.1 0-1.8 0.7-1.8 1.6 0 0.9 0.7 1.6 1.8 1.6zm11.4 0.6h-1.1v-4.7c0-1.3-0.7-1.7-1.7-1.7-0.8 0-1.7 0.6-2.1 1.1v5.3h-1.1v-7.2h1.1v1c0.5-0.6 1.5-1.2 2.6-1.2 1.5 0 2.3 0.8 2.3 2.3zm5.1 3c-1.2 0-2-0.3-2.9-1.1l0.6-0.8c0.6 0.7 1.3 1 2.3 1 1.2 0 2.4-0.6 2.4-2.2v-1.1c-0.6 0.8-1.4 1.3-2.5 1.3-1.8 0-3.2-1.4-3.2-3.7 0-2.3 1.3-3.8 3.2-3.8 1 0 1.9 0.5 2.5 1.3v-1.1h1.1v7c0 2.4-1.7 3.2-3.5 3.2zm0.2-3.9c0.9 0 1.8-0.5 2.2-1.1v-3.2c-0.4-0.6-1.3-1.2-2.2-1.2-1.4 0-2.3 1.2-2.3 2.8 0 1.6 0.9 2.7 2.3 2.7zm11.6 0.9h-1.2v-1c-0.5 0.7-1.5 1.2-2.5 1.2-1.6 0-2.4-0.7-2.4-2.3v-5.1h1.2v4.8c0 1.2 0.6 1.6 1.6 1.6 0.9 0 1.7-0.5 2.1-1.1v-5.3h1.2zm7.9 0h-1.2v-0.8c-0.6 0.6-1.4 1-2.4 1-1.2 0-2.5-0.8-2.5-2.4 0-1.6 1.3-2.4 2.5-2.4 1 0 1.9 0.3 2.4 1v-1.3c0-1-0.7-1.5-1.8-1.5-0.9 0-1.6 0.3-2.2 1l-0.5-0.8c0.7-0.8 1.7-1.2 2.9-1.2 1.5 0 2.8 0.7 2.8 2.4zm-3.2-0.6c0.8 0 1.6-0.3 2-0.9v-1.4c-0.4-0.6-1.2-0.9-2-0.9-1 0-1.7 0.7-1.7 1.6 0 0.9 0.7 1.6 1.7 1.6zm8.3 3.6c-1.2 0-2-0.3-2.9-1.1l0.6-0.9c0.6 0.8 1.3 1 2.3 1 1.2 0 2.4-0.6 2.4-2.1v-1.1c-0.6 0.8-1.5 1.3-2.5 1.3-1.9 0-3.2-1.4-3.2-3.7 0-2.4 1.3-3.8 3.2-3.8 1 0 1.9 0.5 2.5 1.3v-1.1h1.1v7c0 2.4-1.7 3.2-3.5 3.2zm0.2-3.9c0.9 0 1.8-0.5 2.2-1.2v-3.1c-0.4-0.7-1.3-1.2-2.2-1.2-1.5 0-2.3 1.2-2.3 2.8 0 1.6 0.8 2.7 2.3 2.7zm8.8 1.1c-2.1 0-3.7-1.5-3.7-3.8 0-2.1 1.5-3.8 3.6-3.8 2.2 0 3.5 1.7 3.5 3.9v0.3h-5.9c0.1 1.3 1 2.5 2.6 2.5 0.8 0 1.7-0.4 2.2-0.9l0.6 0.7c-0.7 0.7-1.7 1.1-2.9 1.1zm2.3-4.3c-0.1-1-0.8-2.4-2.4-2.4-1.6 0-2.3 1.3-2.4 2.4zm16.7 4.1h-1.2v-4.9c0-0.9-0.4-1.5-1.3-1.5-0.7 0-1.5 0.5-1.9 1.1v5.3h-1.1v-4.9c0-0.9-0.4-1.5-1.4-1.5-0.7 0-1.5 0.5-1.9 1.1v5.3h-1.1v-7.2h1.1v1c0.3-0.4 1.3-1.2 2.4-1.2 1.1 0 1.7 0.6 1.9 1.3 0.4-0.6 1.4-1.3 2.4-1.3 1.4 0 2.1 0.7 2.1 2.2zm5.4 0.2c-2.2 0-3.6-1.7-3.6-3.8 0-2.1 1.4-3.8 3.6-3.8 2.2 0 3.6 1.7 3.6 3.8 0 2.1-1.4 3.8-3.6 3.8zm0-1c1.5 0 2.4-1.4 2.4-2.8 0-1.5-0.9-2.8-2.4-2.8-1.6 0-2.4 1.3-2.4 2.8 0 1.4 0.8 2.8 2.4 2.8zm11.8 0.8h-1.2v-1.1c-0.5 0.7-1.4 1.3-2.4 1.3-1.9 0-3.2-1.5-3.2-3.8 0-2.3 1.3-3.8 3.2-3.8 1 0 1.9 0.4 2.4 1.2v-3.8h1.2zm-3.3-0.8c0.9 0 1.7-0.6 2.1-1.2v-3.3c-0.4-0.6-1.2-1.1-2.1-1.1-1.5 0-2.4 1.2-2.4 2.8 0 1.6 0.9 2.8 2.4 2.8zm8.8 1c-2.1 0-3.7-1.6-3.7-3.8 0-2.1 1.5-3.8 3.6-3.8 2.2 0 3.5 1.7 3.5 3.8v0.3h-5.9c0.1 1.4 1 2.5 2.6 2.5 0.8 0 1.7-0.3 2.2-0.9l0.6 0.8c-0.7 0.7-1.7 1.1-2.9 1.1zm2.2-4.3c0-1.1-0.7-2.4-2.3-2.4-1.6 0-2.3 1.3-2.4 2.4zm4 4.1h-1.1v-10h1.1zm4.6 0.2c-1.2 0-2.2-0.4-2.9-1.2l0.5-0.8c0.5 0.6 1.4 1 2.4 1 1.1 0 1.7-0.5 1.7-1.2 0-1.8-4.4-0.7-4.4-3.4 0-1.1 0.9-2 2.7-2 1.2 0 2.1 0.4 2.6 1l-0.5 0.8c-0.4-0.5-1.2-0.9-2.1-0.9-1 0-1.6 0.5-1.6 1.1 0 1.6 4.4 0.5 4.4 3.4 0 1.2-0.9 2.2-2.8 2.2zm-270.8 20.8h-1.2v-1c-0.5 0.6-1.5 1.2-2.5 1.2-1.6 0-2.3-0.8-2.3-2.4v-5.1h1.1v4.8c0 1.3 0.6 1.7 1.6 1.7 0.9 0 1.7-0.6 2.1-1.1v-5.4h1.2zm4.5 0.2c-1.2 0-2.2-0.3-2.9-1.1l0.6-0.8c0.4 0.5 1.4 1 2.4 1 1.1 0 1.7-0.5 1.7-1.2 0-1.8-4.5-0.7-4.5-3.4 0-1.1 1-2.1 2.7-2.1 1.2 0 2.1 0.5 2.7 1.1l-0.6 0.7c-0.4-0.5-1.2-0.9-2.1-0.9-1 0-1.6 0.5-1.6 1.2 0 1.6 4.5 0.5 4.5 3.3 0 1.2-1 2.2-2.9 2.2zm10.7-0.2h-1.1v-1c-0.6 0.6-1.5 1.2-2.6 1.2-1.5 0-2.3-0.7-2.3-2.3v-5.1h1.1v4.8c0 1.2 0.7 1.6 1.6 1.6 0.9 0 1.8-0.5 2.2-1.1v-5.3h1.1zm7.9 0h-1.1v-0.8c-0.6 0.6-1.4 1-2.4 1-1.3 0-2.6-0.9-2.6-2.4 0-1.7 1.3-2.4 2.6-2.4 1 0 1.8 0.3 2.4 1v-1.3c0-1-0.8-1.6-1.9-1.6-0.8 0-1.5 0.4-2.2 1l-0.5-0.7c0.8-0.8 1.7-1.2 2.9-1.2 1.5 0 2.8 0.7 2.8 2.4zm-3.1-0.6c0.8 0 1.5-0.3 2-0.9v-1.4c-0.5-0.6-1.2-0.9-2-0.9-1.1 0-1.8 0.7-1.8 1.6 0 0.9 0.7 1.6 1.8 1.6zm6.5 0.6h-1.1v-10h1.1zm3.4 0h-1.2v-10h1.2zm1.8 2.8l0.2-1c0.1 0.1 0.4 0.1 0.6 0.1 0.5 0 0.8-0.1 1.1-0.7l0.4-1.1-3-7.3h1.2l2.4 5.9 2.4-5.9h1.3l-3.7 8.7c-0.4 1-1.1 1.4-2.1 1.4-0.2 0-0.6 0-0.8-0.1zm13.9-2.6c-1.2 0-2.2-0.4-2.9-1.2l0.6-0.8c0.5 0.6 1.4 1.1 2.4 1.1 1.1 0 1.7-0.6 1.7-1.3 0-1.7-4.5-0.7-4.5-3.3 0-1.2 1-2.1 2.7-2.1 1.2 0 2.1 0.4 2.7 1l-0.6 0.8c-0.4-0.5-1.2-0.9-2.1-0.9-1 0-1.6 0.5-1.6 1.1 0 1.6 4.5 0.6 4.5 3.4 0 1.2-1 2.2-2.9 2.2zm6.5 0c-1 0-1.6-0.6-1.6-1.7v-4.8h-1.2v-0.9h1.2v-2h1.1v2h1.5v0.9h-1.5v4.5c0 0.6 0.3 1 0.8 1 0.3 0 0.6-0.2 0.7-0.3l0.4 0.8c-0.3 0.3-0.7 0.5-1.4 0.5zm3.7-0.2h-1.1v-7.2h1.1v1.1c0.6-0.7 1.4-1.3 2.4-1.3v1.2q-0.2-0.1-0.4-0.1c-0.7 0-1.6 0.6-2 1.2zm9.9 0h-1.2v-1.1c-0.5 0.7-1.5 1.2-2.5 1.2-1.6 0-2.4-0.7-2.4-2.3v-5.1h1.2v4.8c0 1.3 0.6 1.6 1.6 1.6 0.9 0 1.7-0.5 2.1-1.1v-5.3h1.2zm5.1 3c-1.2 0-2-0.3-2.9-1.1l0.6-0.9c0.6 0.8 1.3 1 2.3 1 1.2 0 2.3-0.6 2.3-2.1v-1.1c-0.5 0.8-1.4 1.3-2.4 1.3-1.9 0-3.2-1.4-3.2-3.7 0-2.4 1.3-3.8 3.2-3.8 1 0 1.9 0.5 2.4 1.3v-1.1h1.2v7c0 2.4-1.7 3.2-3.5 3.2zm0.2-3.9c0.9 0 1.8-0.5 2.1-1.2v-3.1c-0.3-0.7-1.2-1.2-2.1-1.2-1.5 0-2.3 1.2-2.3 2.8 0 1.6 0.8 2.7 2.3 2.7zm8.4 3.9c-1.2 0-2-0.3-2.9-1.1l0.6-0.9c0.6 0.8 1.3 1 2.3 1 1.2 0 2.4-0.6 2.4-2.1v-1.1c-0.6 0.8-1.5 1.3-2.5 1.3-1.9 0-3.2-1.4-3.2-3.7 0-2.4 1.3-3.8 3.2-3.8 1 0 1.9 0.5 2.5 1.3v-1.1h1.1v7c0 2.4-1.7 3.2-3.5 3.2zm0.2-3.9c0.9 0 1.8-0.5 2.2-1.2v-3.1c-0.4-0.7-1.3-1.2-2.2-1.2-1.5 0-2.3 1.2-2.3 2.8 0 1.6 0.8 2.7 2.3 2.7zm6.7 0.9h-1.2v-10h1.2zm5.5 0.2c-2.2 0-3.7-1.5-3.7-3.8 0-2.1 1.5-3.8 3.6-3.8 2.1 0 3.4 1.7 3.4 3.9v0.3h-5.8c0.1 1.3 1 2.5 2.6 2.5 0.8 0 1.6-0.4 2.2-0.9l0.6 0.7c-0.8 0.7-1.7 1.1-2.9 1.1zm2.2-4.3c0-1-0.7-2.4-2.4-2.4-1.5 0-2.3 1.3-2.3 2.4zm14.2 4.1h-1.2l-1.8-5.8-1.9 5.8h-1.2l-2.3-7.2h1.2l1.8 5.7 1.9-5.7h0.9l1.9 5.7 1.8-5.7h1.2zm4.2-8.3c-0.5 0-0.8-0.3-0.8-0.8 0-0.4 0.3-0.7 0.8-0.7 0.4 0 0.7 0.3 0.7 0.7 0 0.5-0.3 0.8-0.7 0.8zm0.5 8.3h-1.1v-7.3h1.1zm4.1 0.2c-1.1 0-1.6-0.6-1.6-1.7v-4.7h-1.2v-1h1.2v-2h1.1v2h1.5v1h-1.5v4.5c0 0.5 0.3 0.9 0.8 0.9 0.3 0 0.6-0.1 0.7-0.3l0.3 0.8c-0.2 0.3-0.6 0.5-1.3 0.5zm8.6-0.2h-1.1v-4.7c0-1.3-0.7-1.7-1.7-1.7-0.8 0-1.7 0.5-2.1 1.1v5.3h-1.1v-10h1.1v3.8c0.5-0.6 1.5-1.2 2.6-1.2 1.5 0 2.3 0.7 2.3 2.3zm2.9 0.2c-0.5 0-0.9-0.4-0.9-0.9 0-0.4 0.4-0.8 0.9-0.8 0.4 0 0.8 0.4 0.8 0.8 0 0.5-0.4 0.9-0.8 0.9z"/>
				<path id="ultra-line" class="s11" d="m24.5 360.7l11.5 11.6 11.5-11.6-11.5-11.5zm161.5-175.6l-11.5 11.6 11.5 11.5 11.6-11.5zm-150 177.5c82.2 0 152-65 152-166h-4c0 99-68.2 162-148 162z"/>
			</g>
		</g>
		<path class="s12" d="m0.5 1.2h357v605h-357z"/>
	</g>
</svg>