<svg version="1.2" xmlns="http://www.w3.org/2000/svg" viewBox="0 0 1224 606" width="1224" height="606">
	<title>Header Content-svg</title>
	<defs>
		<clipPath clipPathUnits="userSpaceOnUse" id="cp1">
			<path d="m0 0h1224v606h-1224z"/>
		</clipPath>
		<linearGradient id="g1" x2="1" gradientUnits="userSpaceOnUse" gradientTransform="matrix(-650.673,304.609,-55.186,-117.883,992,125)">
			<stop offset="0" stop-color="#f1ac0c"/>
			<stop offset="1" stop-color="#ffffff"/>
		</linearGradient>
		<linearGradient id="g2" x2="1" gradientUnits="userSpaceOnUse" gradientTransform="matrix(NaN,NaN,NaN,NaN,NaN,NaN)">
			<stop offset=".015" stop-color="#ffffff" stop-opacity="0"/>
			<stop offset=".5" stop-color="#ffffff" stop-opacity="1"/>
			<stop offset="1" stop-color="#ffffff" stop-opacity="0"/>
		</linearGradient>
		<linearGradient id="g3" x2="1" gradientUnits="userSpaceOnUse" gradientTransform="matrix(NaN,NaN,NaN,NaN,NaN,NaN)">
			<stop offset=".015" stop-color="#ffffff" stop-opacity="0"/>
			<stop offset=".5" stop-color="#ffffff" stop-opacity="1"/>
			<stop offset="1" stop-color="#ffffff" stop-opacity="0"/>
		</linearGradient>
		<linearGradient id="g4" x2="1" gradientUnits="userSpaceOnUse" gradientTransform="matrix(NaN,NaN,NaN,NaN,NaN,NaN)">
			<stop offset=".015" stop-color="#ffffff" stop-opacity="0"/>
			<stop offset=".5" stop-color="#ffffff" stop-opacity="1"/>
			<stop offset="1" stop-color="#ffffff" stop-opacity="0"/>
		</linearGradient>
		<linearGradient id="g5" x2="1" gradientUnits="userSpaceOnUse" gradientTransform="matrix(NaN,NaN,NaN,NaN,NaN,NaN)">
			<stop offset=".015" stop-color="#ffffff" stop-opacity="0"/>
			<stop offset=".5" stop-color="#ffffff" stop-opacity="1"/>
			<stop offset="1" stop-color="#ffffff" stop-opacity="0"/>
		</linearGradient>
		<linearGradient id="g6" x2="1" gradientUnits="userSpaceOnUse" gradientTransform="matrix(NaN,NaN,NaN,NaN,NaN,NaN)">
			<stop offset="0" stop-color="#0c0c0c" stop-opacity="0"/>
			<stop offset=".5" stop-color="#0c0c0c" stop-opacity="1"/>
			<stop offset="1" stop-color="#0c0c0c" stop-opacity="0"/>
		</linearGradient>
	</defs>
	<style>
		.s0 { opacity: .1;fill: #ffffff } 
		.s1 { fill: #ffffff } 
		.s2 { fill: #fdb300 } 
		.s3 { fill: #f0f5fc } 
		.s4 { fill: #f1ac0c } 
		.s5 { fill: #d9d9d9 } 
		.s6 { fill: url(#g1) } 
		.s7 { opacity: .1;fill: none;stroke: url(#g2);stroke-dasharray: 2 } 
		.s8 { opacity: .1;fill: none;stroke: url(#g3);stroke-dasharray: 2 } 
		.s9 { opacity: .1;fill: none;stroke: url(#g4);stroke-dasharray: 2 } 
		.s10 { opacity: .1;fill: none;stroke: url(#g5);stroke-dasharray: 2 } 
		.s11 { opacity: .1;fill: none;stroke: url(#g6);stroke-dasharray: 2 } 
		.s12 { opacity: .1;fill: none;stroke: #ffffff } 
	</style>
	<g id="Header Content">
		<g id="Clip-Path" clip-path="url(#cp1)">
			<g>
				<path class="s0" d="m0 0h1224v606h-1224z"/>
				<g id="Header Text Container">
					<g id="Frame 5831">
						<g id="Že donacija v višini">
							<path fill-rule="evenodd" class="s1" d="m48.1 68.5c-8.5 0-14.7-6-14.7-14.5 0-8.4 6.2-14.5 14.7-14.5 8.4 0 14.6 6.1 14.6 14.5 0 8.5-6.2 14.5-14.6 14.5zm0-5.3c5.2 0 8.5-4 8.5-9.2 0-5.2-3.3-9.2-8.5-9.2-5.2 0-8.5 4-8.5 9.2 0 5.2 3.3 9.2 8.5 9.2zm37.2 4.8h-5.3v-2.6c-1.4 1.6-3.9 3.1-7.2 3.1-4.4 0-6.5-2.4-6.5-6.4v-14.4h5.3v12.3c0 2.8 1.5 3.8 3.7 3.8 2.1 0 3.7-1.2 4.7-2.4v-13.7h5.3zm11.6 0.5c-3.8 0-5.7-1.9-5.7-5.6v-10.5h-3.4v-4.7h3.4v-5.5h5.3v5.5h4.1v4.7h-4.1v9.1c0 1.3 0.7 2.3 1.9 2.3 0.8 0 1.5-0.3 1.8-0.7l1.1 4.1c-0.8 0.7-2.2 1.3-4.4 1.3zm18.5 0c-2.4 0-4.6-1-6.3-3.1v10.3h-5.3v-28h5.3v2.6c1.6-2 3.8-3.1 6.3-3.1 5.2 0 9 3.9 9 10.6 0 6.8-3.8 10.7-9 10.7zm-1.7-4.7c3.1 0 5.2-2.4 5.2-6 0-3.4-2.1-5.8-5.2-5.8-1.7 0-3.7 0.9-4.6 2.3v7.1c0.9 1.3 2.9 2.4 4.6 2.4zm23.6 4.7c-6.2 0-10.8-4.1-10.8-10.7 0-5.8 4.3-10.6 10.5-10.6 6 0 10.1 4.6 10.1 11.2v1.2h-15.1c0.4 2.5 2.4 4.5 5.9 4.5 1.7 0 4.1-0.7 5.4-1.9l2.4 3.5c-2.1 1.9-5.3 2.8-8.4 2.8zm4.7-12.6c-0.2-1.9-1.5-4.3-5-4.3-3.4 0-4.8 2.3-5 4.3zm13.8 12.1h-5.3v-20.3h5.3v2.8c1.5-1.8 4-3.3 6.5-3.3v5.2c-0.4-0.1-0.9-0.1-1.5-0.1-1.8 0-4.1 1-5 2.3zm15.9 0h-5.4v-15.6h-3.3v-4.7h3.3v-0.8c0-4.6 2.8-7.3 6.8-7.3 2 0 4.1 0.5 5.3 1.9l-2 3.2c-0.5-0.5-1.2-0.8-2.2-0.8-1.5 0-2.5 1-2.5 3v0.8h4.1v4.7h-4.1zm16.1 0.5c-6.7 0-10.7-4.9-10.7-10.7 0-5.7 4-10.6 10.7-10.6 6.7 0 10.7 4.9 10.7 10.6 0 5.8-4 10.7-10.7 10.7zm0-4.8c3.3 0 5.2-2.7 5.2-5.9 0-3.1-1.9-5.9-5.2-5.9-3.4 0-5.2 2.8-5.2 5.9 0 3.2 1.8 5.9 5.2 5.9zm19.5 4.3h-5.3v-20.3h5.3v2.7c1.5-1.7 4-3.2 6.5-3.2v5.2c-0.4-0.1-0.8-0.1-1.5-0.1-1.7 0-4.1 1-5 2.3zm39.9 0h-5.4v-12.8c0-1.9-0.8-3.3-3-3.3-1.9 0-3.5 1.3-4.2 2.4v13.7h-5.4v-12.8c0-1.9-0.8-3.3-3-3.3-1.9 0-3.4 1.3-4.2 2.4v13.7h-5.4v-20.3h5.4v2.6c0.9-1.2 3.5-3.1 6.6-3.1 3 0 4.9 1.4 5.6 3.7 1.2-1.8 3.9-3.7 7-3.7 3.8 0 6 2 6 6.1zm7.4-22.4c-1.7 0-3.1-1.5-3.1-3.2 0-1.8 1.4-3.2 3.1-3.2 1.8 0 3.2 1.4 3.2 3.2 0 1.7-1.4 3.2-3.2 3.2zm2.7 22.4h-5.3v-20.3h5.3zm23.8 0h-5.3v-12.2c0-2.8-1.5-3.8-3.8-3.8-2.1 0-3.7 1.2-4.6 2.4v13.6h-5.3v-20.2h5.3v2.6c1.3-1.5 3.8-3.1 7.1-3.1 4.5 0 6.6 2.5 6.6 6.4zm13.1 8.3c-3.4 0-6.2-0.8-8.7-3.1l2.4-3.8c1.6 1.8 3.8 2.5 6.3 2.5 2.6 0 5.6-1.1 5.6-5.2v-2c-1.6 2-3.7 3.2-6.3 3.2-5 0-8.9-3.6-8.9-10.3 0-6.7 3.8-10.4 8.9-10.4 2.5 0 4.7 1 6.3 3.1v-2.6h5.4v19c0 7.7-6 9.6-11 9.6zm1.1-13.1c1.7 0 3.6-1.1 4.5-2.4v-6.5c-0.9-1.4-2.8-2.3-4.5-2.3-3.1 0-5.2 2.1-5.2 5.6 0 3.5 2.1 5.6 5.2 5.6zm38.7 5.3c-8.5 0-15-5.8-15-14.5 0-8.6 6.5-14.4 15-14.4 6.1 0 9.7 3.3 11.7 6.8l-5.2 2.5c-1.1-2.3-3.7-4.1-6.5-4.1-5.1 0-8.8 3.9-8.8 9.2 0 5.3 3.7 9.2 8.8 9.2 2.8 0 5.4-1.8 6.5-4l5.2 2.4c-2 3.5-5.6 6.9-11.7 6.9zm33.7-0.5h-5.4v-12.3c0-2.8-1.4-3.7-3.7-3.7-2.1 0-3.8 1.2-4.6 2.3v13.7h-5.4v-28h5.4v10.3c1.3-1.5 3.7-3.1 7.1-3.1 4.4 0 6.6 2.5 6.6 6.4zm22.3 0h-5.4v-2.1c-1.4 1.7-3.7 2.6-6.4 2.6-3.2 0-7-2.2-7-6.7 0-4.8 3.8-6.5 7-6.5 2.7 0 5.1 0.8 6.4 2.4v-2.5c0-2.1-1.7-3.4-4.4-3.4-2.2 0-4.2 0.8-5.9 2.4l-2.1-3.8c2.5-2.2 5.7-3.2 8.9-3.2 4.7 0 8.9 1.9 8.9 7.7zm-9.7-3.1c1.8 0 3.5-0.6 4.3-1.8v-2.5c-0.8-1.2-2.5-1.8-4.3-1.8-2.1 0-3.8 1.2-3.8 3.1 0 1.9 1.7 3 3.8 3zm21.3 3.6c-3.8 0-5.8-1.9-5.8-5.6v-10.5h-3.3v-4.7h3.3v-5.5h5.4v5.5h4.1v4.7h-4.1v9.1c0 1.3 0.7 2.3 1.8 2.3 0.8 0 1.6-0.3 1.9-0.7l1.1 4.1c-0.8 0.7-2.2 1.3-4.4 1.3zm20.6 0c-8.2 0-15-5.6-15-14.5 0-8.8 6.8-14.5 15-14.5 5.8 0 9.4 3 11.5 6.3l-4.9 2.7c-1.3-2-3.7-3.7-6.6-3.7-5.1 0-8.8 3.9-8.8 9.2 0 5.3 3.7 9.2 8.8 9.2 2.5 0 4.8-1.1 5.9-2.1v-3.4h-7.4v-5.2h13.4v10.8c-2.9 3.2-6.9 5.2-11.9 5.2zm22.1-0.5h-6v-28h13.1c6.1 0 9.4 4.1 9.4 9 0 4.9-3.3 9-9.4 9h-7.1zm6.3-15.2c2.3 0 4.1-1.5 4.1-3.8 0-2.3-1.8-3.7-4.1-3.7h-6.3v7.5zm25.9 15.2h-6v-22.7h-8.2v-5.3h22.4v5.3h-8.2zm-432.4 48.5c-6.7 0-10.8-5-10.8-10.7 0-5.8 4.1-10.6 10.8-10.6 6.7 0 10.7 4.8 10.7 10.6 0 5.7-4 10.7-10.7 10.7zm0-4.8c3.3 0 5.2-2.7 5.2-5.9 0-3.2-1.9-5.9-5.2-5.9-3.4 0-5.2 2.7-5.2 5.9 0 3.2 1.8 5.9 5.2 5.9zm33.3 4.3h-5.4v-12.3c0-2.8-1.5-3.8-3.7-3.8-2.1 0-3.7 1.2-4.7 2.4v13.7h-5.3v-20.3h5.3v2.6c1.3-1.5 3.9-3.1 7.1-3.1 4.5 0 6.7 2.5 6.7 6.4zm40.3 0h-6v-11.8h-13.2v11.8h-6v-28h6v11h13.2v-11h6zm7.6-22.4c-1.7 0-3.2-1.5-3.2-3.2 0-1.8 1.5-3.2 3.2-3.2 1.7 0 3.2 1.4 3.2 3.2 0 1.7-1.5 3.2-3.2 3.2zm2.7 22.4h-5.4v-20.3h5.4zm13.1 8.3c-3.5 0-6.2-0.8-8.8-3.1l2.4-3.8c1.7 1.8 3.9 2.5 6.4 2.5 2.5 0 5.6-1.1 5.6-5.2v-2c-1.6 2-3.8 3.2-6.3 3.2-5 0-8.9-3.6-8.9-10.3 0-6.7 3.8-10.4 8.9-10.4 2.4 0 4.7 1.1 6.3 3.2v-2.7h5.3v19c0 7.7-5.9 9.6-10.9 9.6zm1-13.1c1.7 0 3.7-1 4.6-2.3v-6.6c-0.9-1.3-2.9-2.3-4.6-2.3-3 0-5.1 2.1-5.1 5.6 0 3.5 2.1 5.6 5.1 5.6zm33.8 4.8h-5.3v-12.3c0-2.8-1.5-3.7-3.8-3.7-2.1 0-3.7 1.2-4.6 2.3v13.7h-5.4v-28h5.4v10.4c1.3-1.6 3.8-3.2 7.1-3.2 4.5 0 6.6 2.5 6.6 6.4zm25.2 0.5c-5.4 0-9.3-1.8-11.9-4.4l3.2-4.7c2 2.1 5.1 3.8 9 3.8 3.3 0 4.8-1.4 4.8-3.1 0-4.8-16.1-1.4-16.1-12 0-4.6 4-8.5 10.6-8.5 4.5 0 8.2 1.3 10.9 3.9l-3.3 4.5c-2.2-2.1-5.3-3.1-8.1-3.1-2.5 0-4 1.1-4 2.8 0 4.4 16.1 1.4 16.1 11.8 0 5.2-3.7 9-11.2 9zm24 0c-6.2 0-10.7-4.4-10.7-10.6 0-6.3 4.5-10.7 10.7-10.7 4.2 0 6.7 1.8 8 3.7l-3.5 3.3c-0.9-1.5-2.4-2.2-4.2-2.2-3.3 0-5.5 2.3-5.5 5.9 0 3.5 2.2 5.9 5.5 5.9 1.8 0 3.3-0.9 4.2-2.2l3.5 3.2c-1.3 1.9-3.8 3.7-8 3.7zm30.1-0.5h-5.3v-12.3c0-2.8-1.5-3.7-3.8-3.7-2.1 0-3.7 1.2-4.6 2.3v13.7h-5.4v-28h5.4v10.3c1.3-1.5 3.8-3.1 7.1-3.1 4.4 0 6.6 2.5 6.6 6.4zm14.2 0.5c-6.7 0-10.7-4.9-10.7-10.6 0-5.8 4-10.7 10.7-10.7 6.7 0 10.7 4.9 10.7 10.7 0 5.7-4 10.6-10.7 10.6zm0-4.7c3.4 0 5.2-2.7 5.2-5.9 0-3.2-1.8-5.9-5.2-5.9-3.3 0-5.2 2.7-5.2 5.9 0 3.2 1.9 5.9 5.2 5.9zm23.7 4.7c-6.7 0-10.8-4.9-10.8-10.6 0-5.8 4.1-10.7 10.8-10.7 6.7 0 10.7 4.9 10.7 10.7 0 5.7-4 10.6-10.7 10.6zm0-4.7c3.3 0 5.2-2.7 5.2-5.9 0-3.2-1.9-5.9-5.2-5.9-3.4 0-5.2 2.7-5.2 5.9 0 3.2 1.8 5.9 5.2 5.9zm19.5 4.2h-5.3v-28h5.3zm45.6 0h-6v-20.2l-7.9 20.2h-2.6l-7.9-20.2v20.2h-6v-28h8.4l6.8 17.5 6.8-17.5h8.4zm22.5 0h-5.4v-2.1c-1.4 1.6-3.8 2.6-6.4 2.6-3.2 0-7-2.2-7-6.7 0-4.8 3.8-6.6 7-6.6 2.7 0 5.1 0.9 6.4 2.5v-2.6c0-2-1.7-3.4-4.4-3.4-2.2 0-4.2 0.9-5.9 2.4l-2.1-3.7c2.5-2.2 5.7-3.2 8.9-3.2 4.7 0 8.9 1.9 8.9 7.7zm-9.7-3.1c1.8 0 3.4-0.6 4.3-1.8v-2.5c-0.9-1.2-2.5-1.8-4.3-1.8-2.1 0-3.8 1.1-3.8 3.1 0 1.9 1.7 3 3.8 3zm21.3 3.6c-3.8 0-5.8-1.9-5.8-5.6v-10.5h-3.3v-4.7h3.3v-5.5h5.4v5.5h4.1v4.7h-4.1v9.1c0 1.3 0.6 2.2 1.8 2.2 0.8 0 1.6-0.2 1.9-0.6l1.1 4.1c-0.8 0.7-2.2 1.3-4.4 1.3zm25.9-0.5h-5.3v-12.4c0-2.8-1.5-3.7-3.8-3.7-2.1 0-3.7 1.2-4.6 2.4v13.7h-5.4v-28h5.4v10.3c1.3-1.5 3.8-3.1 7.1-3.1 4.5 0 6.6 2.4 6.6 6.4zm21.2 0h-6v-28h13.1c6.1 0 9.4 4.1 9.4 9 0 4.9-3.3 9-9.4 9h-7.1zm6.3-15.3c2.3 0 4.1-1.4 4.1-3.7 0-2.3-1.8-3.8-4.1-3.8h-6.3v7.5zm18.7 15.3h-5.4v-20.3h5.4v2.7c1.4-1.7 3.9-3.2 6.4-3.2v5.2c-0.3-0.1-0.8-0.1-1.4-0.1-1.8 0-4.1 1-5 2.3zm18.7 0.5c-6.7 0-10.7-4.9-10.7-10.7 0-5.7 4-10.6 10.7-10.6 6.7 0 10.7 4.9 10.7 10.6 0 5.8-4 10.7-10.7 10.7zm0-4.8c3.3 0 5.2-2.7 5.2-5.9 0-3.1-1.9-5.9-5.2-5.9-3.3 0-5.2 2.8-5.2 5.9 0 3.2 1.9 5.9 5.2 5.9zm19.6 4.3h-5.4v-28h5.4v10.3c1.6-2.1 3.8-3.1 6.2-3.1 5.2 0 9 4 9 10.6 0 6.8-3.9 10.7-9 10.7-2.4 0-4.6-1.1-6.2-3.1zm0-6.5c0.9 1.3 2.8 2.2 4.6 2.2 3.1 0 5.1-2.3 5.1-5.9 0-3.5-2-5.9-5.1-5.9-1.8 0-3.7 1.1-4.6 2.4zm24.1 6.5h-5.4v-28h5.4zm14.3 0.5c-6.2 0-10.8-4.2-10.8-10.7 0-5.9 4.3-10.6 10.5-10.6 6.1 0 10.1 4.5 10.1 11.1v1.3h-15.1c0.4 2.5 2.4 4.5 5.9 4.5 1.7 0 4.1-0.7 5.4-1.9l2.4 3.5c-2.1 1.8-5.3 2.8-8.4 2.8zm4.7-12.6c-0.2-1.9-1.5-4.3-5-4.3-3.4 0-4.8 2.3-5 4.3zm39 12.1h-5.4v-12.8c0-1.9-0.8-3.3-3-3.3-1.9 0-3.4 1.3-4.2 2.4v13.7h-5.4v-12.8c0-1.9-0.8-3.3-3-3.3-1.8 0-3.4 1.3-4.2 2.4v13.7h-5.3v-20.3h5.3v2.6c0.9-1.2 3.5-3.1 6.7-3.1 2.9 0 4.9 1.4 5.6 3.7 1.2-1.8 3.8-3.7 7-3.7 3.7 0 5.9 2 5.9 6.1zm12.1 0.5c-3.5 0-6.9-1.1-9.1-3.1l2.3-3.9c1.5 1.5 4.5 2.8 7 2.8 2.4 0 3.5-0.8 3.5-2.1 0-3.3-12.1-0.6-12.1-8.6 0-3.4 3-6.4 8.4-6.4 3.4 0 6.1 1.2 8.1 2.8l-2.1 3.8c-1.3-1.3-3.6-2.4-6-2.4-2 0-3.2 0.9-3.2 2 0 3 12 0.5 12 8.7 0 3.7-3.2 6.4-8.8 6.4zm18.3-15.8h-2.7l0.2-4.7-3.8 2.5-1.4-2.2 4.1-2.2-4.1-2.1 1.4-2.3 3.8 2.5-0.2-4.6h2.7l-0.3 4.6 3.9-2.5 1.4 2.3-4.1 2.1 4.1 2.2-1.4 2.2-3.9-2.5z"/>
							<path fill-rule="evenodd" class="s2" d="m503.5 68h-5.3v-28h5.3v10.3c1.6-2.1 3.9-3.1 6.2-3.1 5.2 0 9 4 9 10.6 0 6.8-3.8 10.7-9 10.7-2.4 0-4.6-1.1-6.2-3.1zm0-6.5c0.9 1.3 2.8 2.3 4.6 2.3 3.1 0 5.1-2.4 5.1-6 0-3.5-2-5.8-5.1-5.8-1.8 0-3.7 1-4.6 2.3zm18.1 14.4l0.7-4.7c0.5 0.2 1.2 0.3 1.7 0.3 1.4 0 2.3-0.4 2.8-1.5l0.8-1.7-8.2-20.6h5.7l5.3 14.1 5.3-14.1h5.7l-9.5 23.6c-1.5 3.9-4.2 4.9-7.7 4.9-0.6 0-2-0.1-2.6-0.3zm52.4-7.9h-21.1v-4.7c11.5-8.5 14.8-11.3 14.8-14.8 0-2.5-2.2-3.6-4.5-3.6-3.2 0-5.6 1.2-7.5 3.2l-3.4-3.9c2.7-3.2 6.9-4.6 10.8-4.6 6 0 10.7 3.3 10.7 8.9 0 4.8-4 9-11.2 14.3h11.4zm7 0.4c-1.8 0-3.4-1.5-3.4-3.4 0-1.8 1.6-3.4 3.4-3.4 1.8 0 3.4 1.6 3.4 3.4 0 1.9-1.6 3.4-3.4 3.4zm17 0.1c-8 0-11.6-7.3-11.6-14.5 0-7.2 3.6-14.5 11.6-14.5 8 0 11.6 7.3 11.6 14.5 0 7.2-3.6 14.5-11.6 14.5zm0-5.3c4 0 5.5-4.1 5.5-9.2 0-5.2-1.4-9.2-5.5-9.2-4 0-5.5 4-5.5 9.2 0 5.1 1.5 9.2 5.5 9.2zm24.2 4.8h-6.6l10.1-22.8h-14.1v-5.3h21v4.2zm31.9 0h-5.9l-4.7-6.8-4.6 6.8h-5.9l7.2-10.4-6.8-9.9h5.9l4.2 6.2 4.2-6.2h6l-6.8 9.9z"/>
						</g>
						<g id="Frame 5829">
							<g id="Logo">
								<g id="Components">
									<g id="b7b5bb2d-c6f5-4e44-a757-79aa302f303c_1">
										<path id="Vector" fill-rule="evenodd" class="s3" d="m1117.1 38.7h3.1v15h-3.1v-2.2q-0.8 1-2.1 1.7-1.4 0.7-3.1 0.7-2 0.1-3.6-0.9-1.6-1-2.5-2.8-1-1.8-1-4 0-2.3 1-4 0.9-1.8 2.5-2.7 1.7-1 3.6-1 1.8 0 3.1 0.7 1.3 0.7 2.1 1.7zm0 7.5q0-1.6-0.6-2.7-0.7-1.1-1.7-1.7-1.1-0.6-2.2-0.6-1.2 0-2.3 0.5-1 0.6-1.6 1.8-0.7 1.1-0.7 2.6 0 1.6 0.7 2.8 0.6 1.1 1.6 1.7 1.1 0.6 2.2 0.6 1.2 0.1 2.3-0.5 1-0.6 1.7-1.8 0.6-1.2 0.6-2.7z"/>
										<path id="Vector_2" class="s3" d="m1131.4 45.9q-1-0.5-2.7-0.9-1.2-0.3-1.8-0.6-0.6-0.2-1.1-0.6-0.4-0.4-0.4-1 0-0.8 0.6-1.2 0.7-0.5 1.9-0.5 1.3 0 2 0.6 0.8 0.6 0.8 1.6h3.1q-0.1-2.2-1.6-3.5-1.6-1.3-4.2-1.3-1.7 0-3 0.5-1.3 0.6-2 1.6-0.7 1-0.7 2.2 0 1.5 0.7 2.4 0.8 0.9 1.9 1.3 1 0.4 2.7 0.9 1.7 0.5 2.6 0.9 0.8 0.4 0.8 1.3 0 0.8-0.8 1.3-0.7 0.5-2 0.5-1.2 0-2.1-0.7-0.8-0.6-0.9-1.6h-3.2q0.1 1.4 0.9 2.5 0.8 1.1 2.2 1.7 1.4 0.7 3.2 0.7 1.7 0 3-0.6 1.3-0.6 2-1.6 0.7-1 0.7-2.3 0-1.4-0.8-2.3-0.7-0.9-1.8-1.3z"/>
										<path id="Vector_3" class="s3" d="m1139.9 35h-3.1v3.7h-1.8v2.5h1.8v8.3q0 2.2 1.1 3.2 1.1 1 3.2 1h2.4v-2.6h-1.9q-0.9 0-1.3-0.3-0.4-0.4-0.4-1.3v-8.3h3.6v-2.5h-3.6v-3.7z"/>
										<path id="Vector_4" class="s3" d="m1148.4 40.9v-2.2h-3.1v15h3.1v-7.9q0-2.3 0.9-3.2 1-0.9 2.8-0.9h0.8v-3.2q-1.6 0-2.7 0.6-1.1 0.7-1.8 1.8z"/>
										<path id="Vector_5" fill-rule="evenodd" class="s3" d="m1168.9 38.7v15h-3.2v-2.2q-0.7 1-2.1 1.7-1.4 0.7-3.1 0.7-1.9 0.1-3.5-0.9-1.6-1-2.6-2.8-0.9-1.8-0.9-4 0-2.3 0.9-4 1-1.8 2.6-2.7 1.6-1 3.5-1 1.8 0 3.1 0.7 1.3 0.7 2.1 1.7v-2.2zm-3.1 7.5q0-1.5-0.6-2.7-0.7-1.1-1.7-1.7-1-0.6-2.2-0.6-1.2 0-2.3 0.6-1 0.6-1.6 1.7-0.7 1.1-0.7 2.7 0 1.5 0.7 2.7 0.6 1.2 1.7 1.8 1 0.6 2.2 0.6 1.2 0 2.2-0.6 1-0.6 1.7-1.8 0.6-1.1 0.6-2.7z"/>
										<path id="Vector_6" class="s2" d="m1099.8 48.9q-0.7-1.4-1.8-2.5-0.2-0.2-0.3-0.3-0.1 0.9-0.3 1.9-0.2 0.7-0.4 1.4 0.3 0.3 0.5 0.7c0.3 0.7 0.8 1.9 0.3 2.9-0.8 1.2-3.2 1.6-6 0.5-0.1 0-1-0.5-1.4-0.7q-0.6-0.3-1.1-0.7-0.5-0.4-1-0.9c-0.6-0.6-1.1-1.2-1.5-1.9q-0.3-0.5-0.5-1.1-0.3 0.2-0.6 0.3-0.5 0.4-1 0.7-0.3 0.3-0.6 0.6 0.1 0.4 0.4 0.8c0.5 1 1.3 2 2.3 2.9-2.8 1.1-5.3 0.7-6-0.6-0.5-0.9 0-2.2 0.3-2.8 0.4-0.6 0.9-1.3 1.5-1.9q0.3-0.3 0.7-0.7 0.7-0.5 1.4-0.9 0.5-0.3 1.1-0.5c1.2-0.5 2.4-0.8 3.4-0.8h0.2q1.1 0 2.2 0.3 0.6 0.2 1.2 0.5-0.1 0.5-0.2 1-0.3 1.2-0.8 2.1 0 0 0 0-0.3 0.7-0.9 1.4 0.3 0.1 0.6 0.3c0.3 0.2 1.1 0.6 1.1 0.6 0.3 0.1 0.8 0.2 0.8 0.2q0.4-0.5 0.7-1.1c0.5-0.9 0.9-1.9 1.2-3.1q0.2-1.3 0.2-2.7v-0.3c0-5-2.8-8.9-6.2-8.9-2.8 0-5.1 2.6-5.9 6.2q0.9-0.4 1.8-0.7 0.7-0.2 1.4-0.4c0.7-1.5 1.7-2.4 2.7-2.4 1.5 0 3 1.9 3.5 4.9-1.2-0.4-2.4-0.6-3.5-0.6-1 0-2.3 0.2-3.4 0.6q-1.3 0.4-2.6 1.1-0.1 0.1-0.2 0.2c-1.9 1.1-3.5 2.7-4.4 4.3-1 2-1.1 3.9-0.2 5.5 1 1.7 2.9 2.5 5.2 2.5 1.7 0 3.7-0.5 5.6-1.5 1.9 1 3.9 1.5 5.6 1.5 2.3 0 4.2-0.8 5.2-2.5 0.9-1.5 0.8-3.5-0.3-5.4z"/>
										<path id="Vector_7" fill-rule="evenodd" class="s2" d="m1192 40.8v10.8c0 2.4-1.9 4.3-4.3 4.3h-10.7c-2.3 0-4.3-1.9-4.3-4.3v-10.8c0-2.3 2-4.3 4.3-4.3h10.7c2.4 0 4.3 2 4.3 4.3zm-1.5 0c0-1.5-1.2-2.8-2.8-2.8h-10.7c-1.5 0-2.8 1.3-2.8 2.8v10.8c0 1.6 1.3 2.8 2.8 2.8h10.7c1.6 0 2.8-1.2 2.8-2.8z"/>
										<path id="Vector_8" fill-rule="evenodd" class="s3" d="m1181.6 41.8l3.1 8.7h-1.8l-0.6-1.6h-3.4l-0.6 1.6h-1.8l3.1-8.7zm0.2 5.7l-1.2-3.6-1.2 3.6z"/>
										<path id="Vector_9" class="s3" d="m1187.2 41.9h-1.7v8.6h1.7z"/>
									</g>
								</g>
							</g>
							<path id="98%" fill-rule="evenodd" class="s4" d="m1045.5 142.8c-7.1 0-13.1-2.4-17.2-6.1l5.5-9.6c3.2 3 6.6 4.6 11.7 4.6 9.7 0 14.8-8.2 14.8-16.5q-0.1-0.7-0.1-1.4c-2.8 4-8.7 7.6-15.1 7.6-10.6 0-20-6.6-20-19.1 0-11.4 9.1-20.1 22.5-20.1 17.8 0 25.3 13.7 25.3 30.2 0 17.8-10 30.4-27.4 30.4zm3.1-32.1c4.5 0 8.7-2 11.6-5.6-0.6-5.6-3.7-11.8-11.9-11.8-6.8 0-10.5 4.5-10.5 8.6 0 6.1 5.4 8.8 10.8 8.8zm52 32.2c-12.3 0-23.6-5.4-23.6-16.3 0-7.1 5.6-12.6 12.6-15-6.5-2.3-11.6-6.6-11.6-13.9 0-11 11.7-15.4 22.6-15.4 10.8 0 22.6 4.4 22.6 15.4 0 7.3-5.2 11.6-11.6 13.9 7 2.4 12.6 7.9 12.6 15 0 10.9-11.3 16.3-23.6 16.3zm0-36.3c3.6-0.6 9.9-2.4 9.9-6.7 0-4.2-4.2-6.6-9.9-6.6-5.8 0-9.9 2.4-9.9 6.6 0 4.3 6.3 6.1 9.9 6.7zm0 25.2c6 0 10.9-2.7 10.9-7 0-4.8-7.3-7.1-10.9-7.6-3.7 0.5-10.9 2.8-10.9 7.6 0 4.3 4.8 7 10.9 7zm41.9-20.3c-9 0-14.9-6.4-14.9-14.6 0-8.2 5.9-14.6 14.9-14.6 9 0 14.9 6.4 14.9 14.6 0 8.2-5.9 14.6-14.9 14.6zm0.8 30.3h-6.6l37.5-58.7h6.7zm31.5 1.1c-9 0-14.9-6.3-14.9-14.5 0-8.3 5.9-14.8 14.9-14.8 8.9 0 14.9 6.5 14.9 14.8 0 8.2-6 14.5-14.9 14.5zm-32.3-38.3c4 0 7-3 7-7.6 0-4.9-3-7.9-7-7.9-4 0-7 3-7 7.9 0 4.6 3 7.6 7 7.6zm32.3 31.4c4 0 7-2.9 7-7.6 0-4.9-3-7.9-7-7.9-4.1 0-7 3-7 7.9 0 4.7 2.9 7.6 7 7.6z"/>
							<path id="Accuracy Result" fill-rule="evenodd" class="s3" d="m1064.7 187.6h-2.5l-0.6-1.7h-4.3l-0.6 1.7h-2.4l3.9-10h2.6zm-3.6-3.5l-1.6-4.4-1.5 4.4zm8.9 3.7c-3 0-5.4-2.1-5.4-5.2 0-3 2.4-5.1 5.4-5.1 2.2 0 3.4 1.2 4.1 2.4l-1.8 0.9c-0.4-0.8-1.3-1.5-2.3-1.5-1.9 0-3.2 1.4-3.2 3.3 0 1.9 1.3 3.3 3.2 3.3 1 0 1.9-0.6 2.3-1.4l1.8 0.8c-0.7 1.3-1.9 2.5-4.1 2.5zm10.3 0c-3 0-5.4-2.1-5.4-5.2 0-3 2.4-5.1 5.4-5.1 2.2 0 3.4 1.2 4.1 2.4l-1.8 0.9c-0.4-0.8-1.3-1.5-2.3-1.5-1.9 0-3.2 1.4-3.2 3.3 0 1.9 1.3 3.3 3.2 3.3 1 0 1.9-0.6 2.3-1.4l1.8 0.8c-0.7 1.3-1.9 2.5-4.1 2.5zm9.9 0c-3 0-4.5-1.7-4.5-4.2v-6h2.2v6c0 1.4 0.8 2.3 2.3 2.3 1.6 0 2.4-0.9 2.4-2.3v-6h2.1v6c0 2.5-1.4 4.2-4.5 4.2zm14.6-0.2h-2.4l-2-3.5h-1.6v3.5h-2.1v-10h4.7c2.1 0 3.4 1.4 3.4 3.2 0 1.8-1.2 2.8-2.2 3zm-3.8-5.4c0.9 0 1.5-0.5 1.5-1.4 0-0.8-0.6-1.3-1.5-1.3h-2.2v2.7zm14.6 5.4h-2.4l-0.7-1.7h-4.2l-0.7 1.7h-2.4l3.9-10h2.6zm-3.6-3.6l-1.6-4.3-1.5 4.3zm8.9 3.8c-3 0-5.4-2.1-5.4-5.2 0-3.1 2.4-5.2 5.4-5.2 2.2 0 3.5 1.2 4.2 2.5l-1.9 0.9c-0.4-0.8-1.3-1.5-2.3-1.5-1.8 0-3.2 1.4-3.2 3.3 0 1.9 1.4 3.3 3.2 3.3 1 0 1.9-0.6 2.3-1.5l1.9 0.9c-0.8 1.3-2 2.5-4.2 2.5zm10-0.2h-2.1v-4.1l-3.9-5.9h2.4l2.5 4 2.5-4h2.4l-3.8 5.9zm16.7 0h-2.5l-1.9-3.5h-1.6v3.5h-2.1v-10h4.7c2 0 3.3 1.4 3.3 3.2 0 1.8-1.1 2.7-2.2 3zm-3.7-5.4c0.8 0 1.5-0.5 1.5-1.4 0-0.8-0.7-1.3-1.5-1.3h-2.2v2.7zm12.3 5.4h-7.1v-10h7.1v1.9h-4.9v2.1h4.8v1.9h-4.8v2.2h4.9zm5.2 0.2c-1.9 0-3.3-0.6-4.2-1.6l1.2-1.6c0.7 0.7 1.8 1.3 3.1 1.3 1.2 0 1.8-0.5 1.8-1.1 0-1.7-5.8-0.5-5.8-4.3 0-1.6 1.5-3 3.8-3 1.6 0 2.9 0.5 3.9 1.4l-1.2 1.5c-0.8-0.7-1.9-1.1-2.9-1.1-0.9 0-1.4 0.4-1.4 1 0 1.6 5.7 0.6 5.7 4.3 0 1.8-1.3 3.2-4 3.2zm10 0c-3.1 0-4.5-1.7-4.5-4.2v-6h2.1v6c0 1.4 0.8 2.3 2.4 2.3 1.5 0 2.3-0.9 2.3-2.3v-6h2.2v6c0 2.5-1.5 4.2-4.5 4.2zm12.8-0.2h-6.3v-10h2.1v8.2h4.2zm4.5 0h-2.2v-8.2h-2.9v-1.9h8v1.9h-2.9z"/>
						</g>
					</g>
					<g id="Frame 5830">
						<path id="GPT-4o mini (ChatGPT Free)" fill-rule="evenodd" class="s5" d="m38.2 383.8c-3.1 0-5.7-2.2-5.7-5.5 0-3.4 2.6-5.5 5.7-5.5 2.2 0 3.6 1.1 4.4 2.3l-1.8 1.1c-0.5-0.8-1.4-1.4-2.6-1.4-1.9 0-3.3 1.5-3.3 3.5 0 2 1.4 3.5 3.3 3.5 1 0 1.9-0.4 2.3-0.8v-1.3h-2.8v-2h5.1v4.1c-1.1 1.2-2.6 2-4.6 2zm8.6-0.2h-2.2v-10.7h5c2.3 0 3.5 1.6 3.5 3.5 0 1.8-1.2 3.4-3.5 3.4h-2.8zm2.4-5.8c0.9 0 1.6-0.6 1.6-1.4 0-0.9-0.7-1.5-1.6-1.5h-2.4v2.9zm10.1 5.8h-2.3v-8.7h-3.1v-2h8.5v2h-3.1zm6.9-3h-3.8v-1.7h3.8zm8.2 3h-2.2v-2.2h-5.1v-1.8l4.2-6.7h3.1v6.5h1.4v2h-1.4zm-2.2-4.2v-4.5l-2.9 4.5zm8.6 4.4c-2.5 0-4-1.9-4-4.1 0-2.2 1.5-4 4-4 2.6 0 4.1 1.8 4.1 4 0 2.2-1.5 4.1-4.1 4.1zm0-1.8c1.3 0 2-1.1 2-2.3 0-1.2-0.7-2.2-2-2.2-1.2 0-1.9 1-1.9 2.2 0 1.2 0.7 2.3 1.9 2.3zm21.4 1.6h-2.1v-4.9c0-0.7-0.3-1.2-1.1-1.2-0.7 0-1.3 0.5-1.6 0.9v5.2h-2.1v-4.9c0-0.7-0.3-1.2-1.1-1.2-0.7 0-1.3 0.5-1.6 0.9v5.2h-2v-7.7h2v0.9c0.3-0.4 1.3-1.1 2.5-1.1 1.2 0 1.9 0.5 2.2 1.4 0.4-0.7 1.4-1.4 2.6-1.4 1.4 0 2.3 0.7 2.3 2.3zm3-8.6c-0.6 0-1.2-0.5-1.2-1.2 0-0.6 0.6-1.2 1.2-1.2 0.7 0 1.2 0.6 1.2 1.2 0 0.7-0.5 1.2-1.2 1.2zm1 8.6h-2v-7.7h2zm9.3 0h-2v-4.7c0-1.1-0.6-1.4-1.5-1.4-0.8 0-1.4 0.4-1.7 0.9v5.2h-2.1v-7.8h2.1v1c0.5-0.5 1.4-1.1 2.7-1.1 1.7 0 2.5 0.9 2.5 2.4zm3-8.5c-0.6 0-1.2-0.6-1.2-1.3 0-0.6 0.6-1.2 1.2-1.2 0.7 0 1.2 0.6 1.2 1.2 0 0.7-0.5 1.3-1.2 1.3zm1 8.5h-2v-7.7h2zm9.6 2.2l-1.2 1c-1.6-1.8-2.6-4.5-2.6-7.1 0-2.6 1-5.3 2.6-7.1l1.2 1c-1 1.9-1.6 3.7-1.6 6.1 0 2.4 0.6 4.2 1.6 6.1zm6.6-2c-3.3 0-5.7-2.3-5.7-5.5 0-3.3 2.4-5.6 5.7-5.6 2.3 0 3.6 1.3 4.4 2.6l-2 1c-0.4-0.9-1.4-1.5-2.4-1.5-2 0-3.4 1.4-3.4 3.5 0 2 1.4 3.5 3.4 3.5 1 0 2-0.7 2.4-1.6l2 1c-0.8 1.3-2.1 2.6-4.4 2.6zm13-0.2h-2.1v-4.7c0-1.1-0.5-1.4-1.4-1.4-0.8 0-1.4 0.4-1.7 0.9v5.2h-2.1v-10.7h2.1v4c0.4-0.6 1.4-1.2 2.7-1.2 1.7 0 2.5 0.9 2.5 2.4zm8.7 0h-2.1v-0.8c-0.5 0.6-1.4 1-2.4 1-1.3 0-2.7-0.8-2.7-2.6 0-1.8 1.4-2.5 2.7-2.5 1 0 1.9 0.4 2.4 1v-1c0-0.8-0.6-1.3-1.7-1.3-0.8 0-1.6 0.3-2.2 0.9l-0.8-1.4c0.9-0.9 2.2-1.2 3.4-1.2 1.8 0 3.4 0.7 3.4 2.9zm-3.7-1.2c0.6 0 1.3-0.2 1.6-0.6v-1c-0.3-0.5-1-0.7-1.6-0.7-0.8 0-1.5 0.4-1.5 1.2 0 0.7 0.7 1.1 1.5 1.1zm8.3 1.4c-1.5 0-2.2-0.7-2.2-2.1v-4h-1.3v-1.8h1.3v-2.1h2v2.1h1.6v1.8h-1.6v3.4c0 0.5 0.3 0.9 0.7 0.9 0.3 0 0.6-0.1 0.7-0.2l0.5 1.5c-0.3 0.3-0.9 0.5-1.7 0.5zm8 0c-3.1 0-5.7-2.2-5.7-5.5 0-3.4 2.6-5.5 5.7-5.5 2.2 0 3.6 1.1 4.4 2.3l-1.9 1.1c-0.5-0.8-1.4-1.4-2.5-1.4-1.9 0-3.3 1.5-3.3 3.5 0 2 1.4 3.5 3.3 3.5 1 0 1.8-0.4 2.3-0.8v-1.3h-2.8v-2h5v4.1c-1 1.2-2.6 2-4.5 2zm8.6-0.2h-2.3v-10.7h5c2.4 0 3.6 1.6 3.6 3.5 0 1.8-1.3 3.4-3.6 3.4h-2.7zm2.4-5.8c0.9 0 1.6-0.6 1.6-1.4 0-0.9-0.7-1.5-1.6-1.5h-2.4v2.9zm10.1 5.8h-2.3v-8.7h-3.1v-2h8.5v2h-3.1zm10.9 0h-2.2v-10.6h7.5v2h-5.3v2.2h5.2v2h-5.2zm8.9 0h-2v-7.7h2v1c0.5-0.7 1.5-1.2 2.5-1.2v2q-0.3-0.1-0.6-0.1c-0.7 0-1.6 0.4-1.9 0.9zm7.4 0.2c-2.4 0-4.2-1.6-4.2-4.1 0-2.2 1.7-4 4-4 2.3 0 3.9 1.7 3.9 4.2v0.5h-5.7c0.1 0.9 0.9 1.7 2.2 1.7 0.6 0 1.5-0.3 2-0.7l0.9 1.3c-0.7 0.7-1.9 1.1-3.1 1.1zm1.7-4.8c0-0.8-0.5-1.7-1.9-1.7-1.2 0-1.8 0.9-1.9 1.7zm7.1 4.8c-2.4 0-4.1-1.6-4.1-4.1 0-2.2 1.6-4 4-4 2.3 0 3.8 1.7 3.8 4.2v0.5h-5.7c0.1 0.9 0.9 1.7 2.2 1.7 0.7 0 1.6-0.3 2.1-0.7l0.9 1.3c-0.8 0.7-2 1.1-3.2 1.1zm1.8-4.8c-0.1-0.8-0.6-1.7-1.9-1.7-1.3 0-1.8 0.9-1.9 1.7zm2.7 6.8c1.1-1.9 1.6-3.7 1.6-6.1 0-2.4-0.5-4.2-1.6-6.1l1.2-1c1.6 1.8 2.6 4.5 2.6 7.1 0 2.6-1 5.3-2.6 7.1z"/>
						<path id="Heading 3 → 41%" fill-rule="evenodd" class="s1" d="m74.8 472h-12.5v-12.1h-28.1v-9.9l23.3-36.7h17.3v35.6h7.5v11h-7.5zm-12.5-23.2v-24.5l-15.9 24.5zm44.6 23.2h-13.7l21-47.7h-29.5v-11h44.1v8.7zm38.7-30.4c-9 0-14.9-6.3-14.9-14.5 0-8.3 5.9-14.7 14.9-14.7 9.1 0 15 6.4 15 14.7 0 8.2-5.9 14.5-15 14.5zm0.9 30.4h-6.6l37.5-58.7h6.7zm31.4 1c-9 0-14.9-6.3-14.9-14.5 0-8.3 5.9-14.8 14.9-14.8 9 0 14.9 6.5 14.9 14.8 0 8.2-5.9 14.5-14.9 14.5zm-32.3-38.2c4 0 7-3 7-7.7 0-4.8-3-7.8-7-7.8-4 0-7 3-7 7.8 0 4.7 3 7.7 7 7.7zm32.3 31.4c4 0 7-2.9 7-7.7 0-4.8-3-7.8-7-7.8-4.1 0-7 3-7 7.8 0 4.8 2.9 7.7 7 7.7z"/>
						<path id="Accuracy Result_2" fill-rule="evenodd" class="s3" d="m42.3 518h-2.4l-0.6-1.7h-4.3l-0.6 1.7h-2.5l3.9-10h2.7zm-3.7-3.6l-1.5-4.3-1.6 4.3zm8.9 3.8c-3 0-5.3-2.1-5.3-5.2 0-3.1 2.3-5.2 5.3-5.2 2.2 0 3.5 1.2 4.2 2.5l-1.8 0.9c-0.5-0.8-1.4-1.5-2.4-1.5-1.8 0-3.1 1.4-3.1 3.3 0 1.9 1.3 3.3 3.1 3.3 1 0 1.9-0.6 2.4-1.5l1.8 0.9c-0.7 1.3-2 2.5-4.2 2.5zm10.3 0c-3 0-5.3-2.1-5.3-5.2 0-3.1 2.3-5.2 5.3-5.2 2.2 0 3.5 1.2 4.2 2.5l-1.8 0.9c-0.5-0.8-1.4-1.5-2.4-1.5-1.8 0-3.1 1.4-3.1 3.3 0 1.9 1.3 3.3 3.1 3.3 1 0 1.9-0.6 2.4-1.5l1.8 0.9c-0.7 1.3-2 2.5-4.2 2.5zm10 0c-3.1 0-4.5-1.7-4.5-4.2v-6h2.1v5.9c0 1.4 0.8 2.4 2.4 2.4 1.5 0 2.3-1 2.3-2.4v-5.9h2.2v6c0 2.5-1.5 4.2-4.5 4.2zm14.6-0.2h-2.5l-2-3.6h-1.5v3.6h-2.1v-10h4.6c2.1 0 3.4 1.4 3.4 3.2 0 1.8-1.1 2.7-2.2 3zm-3.7-5.4c0.8 0 1.5-0.6 1.5-1.4 0-0.8-0.7-1.3-1.5-1.3h-2.3v2.7zm14.6 5.4h-2.4l-0.6-1.7h-4.3l-0.6 1.7h-2.5l3.9-10h2.7zm-3.6-3.6l-1.6-4.3-1.6 4.3zm8.9 3.8c-3 0-5.3-2.1-5.3-5.2 0-3.1 2.3-5.2 5.3-5.2 2.2 0 3.5 1.2 4.2 2.5l-1.8 0.9c-0.4-0.9-1.3-1.5-2.4-1.5-1.8 0-3.1 1.4-3.1 3.3 0 1.9 1.3 3.3 3.1 3.3 1.1 0 2-0.7 2.4-1.5l1.8 0.9c-0.7 1.2-2 2.5-4.2 2.5zm10-0.2h-2.1v-4.1l-3.8-5.9h2.4l2.5 4 2.4-4h2.5l-3.9 5.9zm16.7 0h-2.4l-2-3.6h-1.5v3.6h-2.2v-10h4.7c2.1 0 3.4 1.3 3.4 3.2 0 1.8-1.1 2.7-2.2 3zm-3.8-5.5c0.9 0 1.5-0.5 1.5-1.3 0-0.8-0.6-1.4-1.5-1.4h-2.2v2.7zm12.4 5.5h-7.1v-10h7.1v1.8h-5v2.2h4.9v1.8h-4.9v2.3h5zm5.2 0.2c-1.9 0-3.3-0.7-4.3-1.6l1.2-1.6c0.7 0.7 1.8 1.3 3.2 1.3 1.2 0 1.7-0.5 1.7-1.1 0-1.8-5.7-0.5-5.7-4.3 0-1.7 1.4-3.1 3.8-3.1 1.5 0 2.9 0.5 3.9 1.4l-1.2 1.6c-0.8-0.7-1.9-1.1-2.9-1.1-1 0-1.5 0.4-1.5 1 0 1.6 5.8 0.5 5.8 4.3 0 1.8-1.3 3.2-4 3.2zm9.9 0c-3 0-4.5-1.7-4.5-4.2v-6h2.2v5.9c0 1.4 0.8 2.4 2.3 2.4 1.6 0 2.4-1 2.4-2.4v-5.9h2.1v6c0 2.5-1.4 4.2-4.5 4.2zm12.9-0.2h-6.4v-10h2.1v8.1h4.3zm4.4 0h-2.1v-8.1h-2.9v-1.9h7.9v1.9h-2.9z"/>
						<path id="*both models were tested on 15 high school math problems that large language models usually struggle with." fill-rule="evenodd" class="s3" d="m35 541.4h-0.8l0.1-1.7-1.4 0.9-0.5-0.7 1.5-0.8-1.5-0.8 0.5-0.7 1.4 0.9-0.1-1.7h0.8l-0.1 1.7 1.5-0.9 0.4 0.7-1.5 0.8 1.5 0.8-0.4 0.7-1.5-0.9zm4.8 5.6h-1.6v-10h1.6v3.8c0.6-0.8 1.4-1.2 2.3-1.2 1.9 0 3.3 1.4 3.3 3.8 0 2.4-1.4 3.8-3.3 3.8-0.9 0-1.7-0.5-2.3-1.2zm0-2.1c0.4 0.5 1.1 0.9 1.9 0.9 1.2 0 2-1 2-2.4 0-1.4-0.8-2.4-2-2.4-0.8 0-1.5 0.4-1.9 1zm10.4 2.3c-2.3 0-3.7-1.7-3.7-3.8 0-2.1 1.4-3.8 3.7-3.8 2.4 0 3.8 1.7 3.8 3.8 0 2.1-1.4 3.8-3.8 3.8zm0-1.4c1.4 0 2.1-1.1 2.1-2.4 0-1.3-0.7-2.4-2.1-2.4-1.3 0-2 1.1-2 2.4 0 1.3 0.7 2.4 2 2.4zm7.6 1.4c-1.3 0-1.9-0.6-1.9-1.8v-4.2h-1.2v-1.4h1.2v-2h1.6v2h1.4v1.4h-1.4v3.8c0 0.5 0.2 0.8 0.7 0.8 0.3 0 0.5-0.1 0.7-0.2l0.3 1.2c-0.3 0.2-0.7 0.4-1.4 0.4zm9-0.2h-1.5v-4.5c0-1.2-0.6-1.5-1.5-1.5-0.8 0-1.5 0.5-1.8 1v5h-1.6v-10h1.6v3.8c0.4-0.6 1.4-1.2 2.5-1.2 1.6 0 2.3 0.8 2.3 2.3zm16.4 0h-1.5v-4.7c0-0.8-0.4-1.3-1.2-1.3-0.8 0-1.4 0.5-1.7 0.9v5.1h-1.6v-4.7c0-0.8-0.3-1.3-1.2-1.3-0.7 0-1.3 0.5-1.7 0.9v5.1h-1.5v-7.2h1.5v0.9c0.3-0.4 1.3-1.1 2.4-1.1 1.1 0 1.7 0.5 2 1.3 0.4-0.6 1.3-1.3 2.4-1.3 1.4 0 2.1 0.7 2.1 2.2zm5.4 0.2c-2.4 0-3.8-1.8-3.8-3.8 0-2.1 1.4-3.8 3.8-3.8 2.3 0 3.7 1.7 3.7 3.8 0 2-1.4 3.8-3.7 3.8zm0-1.4c1.3 0 2-1.2 2-2.4 0-1.3-0.7-2.4-2-2.4-1.4 0-2.1 1.1-2.1 2.4 0 1.2 0.7 2.4 2.1 2.4zm12 1.2h-1.6v-1c-0.6 0.7-1.4 1.2-2.3 1.2-1.9 0-3.3-1.4-3.3-3.8 0-2.4 1.4-3.8 3.3-3.8 0.9 0 1.7 0.4 2.3 1.1v-3.7h1.6zm-3.5-1.2c0.8 0 1.5-0.5 1.9-1v-2.9c-0.4-0.5-1.1-1-1.9-1-1.2 0-2 1.1-2 2.4 0 1.5 0.8 2.5 2 2.5zm8.9 1.4c-2.2 0-3.8-1.6-3.8-3.9 0-2.1 1.5-3.7 3.6-3.7 2.2 0 3.6 1.6 3.6 3.9v0.4h-5.6c0.1 1.1 0.9 2 2.3 2 0.7 0 1.6-0.3 2.1-0.8l0.7 1c-0.7 0.7-1.8 1.1-2.9 1.1zm1.9-4.5c-0.1-0.8-0.7-1.9-2.1-1.9-1.3 0-1.9 1.1-2 1.9zm4.6 4.3h-1.5v-10h1.5zm4.6 0.2c-1.3 0-2.4-0.5-3.1-1.2l0.7-1.1c0.5 0.5 1.5 1 2.4 1 1 0 1.5-0.4 1.5-1 0-1.4-4.4-0.4-4.4-3.2 0-1.1 1-2.1 2.8-2.1 1.3 0 2.2 0.4 2.8 1l-0.6 1.1c-0.4-0.5-1.2-0.9-2.2-0.9-0.8 0-1.3 0.4-1.3 0.9 0 1.3 4.4 0.3 4.4 3.2 0 1.3-1.1 2.3-3 2.3zm16.4-0.2h-1.6l-1.7-5.3-1.7 5.3h-1.7l-2.2-7.3h1.6l1.5 5.3 1.8-5.3h1.4l1.7 5.3 1.5-5.3h1.7zm6.7 0.2c-2.2 0-3.8-1.5-3.8-3.8 0-2.1 1.5-3.8 3.6-3.8 2.2 0 3.6 1.7 3.6 3.9v0.4h-5.6c0.1 1.1 0.9 2 2.3 2 0.7 0 1.6-0.3 2.1-0.8l0.7 1c-0.7 0.7-1.8 1.1-2.9 1.1zm1.9-4.4c-0.1-0.9-0.7-1.9-2.1-1.9-1.3 0-1.9 1-2 1.9zm4.6 4.2h-1.5v-7.2h1.5v1c0.6-0.7 1.5-1.2 2.4-1.2v1.6q-0.2-0.1-0.5-0.1c-0.7 0-1.5 0.5-1.9 1zm7 0.2c-2.2 0-3.8-1.5-3.8-3.8 0-2.1 1.6-3.8 3.7-3.8 2.2 0 3.6 1.6 3.6 3.9v0.4h-5.6c0.1 1.1 0.9 2 2.3 2 0.7 0 1.5-0.3 2-0.8l0.8 1c-0.8 0.7-1.8 1.1-3 1.1zm1.9-4.4c0-0.9-0.6-1.9-2-1.9-1.3 0-2 1-2 1.9zm9.1 4.4c-1.2 0-1.9-0.7-1.9-1.9v-4.2h-1.2v-1.3h1.2v-2h1.6v2h1.5v1.3h-1.5v3.8c0 0.5 0.3 0.9 0.7 0.9 0.3 0 0.6-0.2 0.7-0.3l0.4 1.2c-0.3 0.3-0.8 0.5-1.5 0.5zm6 0c-2.2 0-3.8-1.5-3.8-3.8 0-2.1 1.5-3.8 3.6-3.8 2.2 0 3.6 1.6 3.6 3.9v0.4h-5.6c0.1 1.1 0.9 2 2.3 2 0.7 0 1.6-0.3 2.1-0.8l0.7 1c-0.7 0.7-1.8 1.1-2.9 1.1zm1.9-4.4c-0.1-0.9-0.7-1.9-2.1-1.9-1.3 0-1.9 1-2 1.9zm5.6 4.4c-1.3 0-2.4-0.4-3.1-1.2l0.7-1.1c0.5 0.5 1.5 1 2.4 1 1 0 1.5-0.4 1.5-0.9 0-1.5-4.4-0.5-4.4-3.2 0-1.2 1-2.2 2.8-2.2 1.3 0 2.2 0.4 2.8 1l-0.6 1.1c-0.5-0.5-1.3-0.9-2.2-0.9-0.8 0-1.3 0.4-1.3 0.9 0 1.3 4.4 0.3 4.4 3.2 0 1.3-1.1 2.3-3 2.3zm6.7 0c-1.2 0-1.8-0.7-1.8-1.9v-4.2h-1.2v-1.3h1.2v-2h1.5v2h1.5v1.3h-1.5v3.8c0 0.5 0.3 0.9 0.7 0.9 0.3 0 0.6-0.2 0.7-0.3l0.4 1.2c-0.3 0.3-0.7 0.5-1.5 0.5zm6 0c-2.2 0-3.8-1.5-3.8-3.8 0-2.1 1.5-3.8 3.7-3.8 2.1 0 3.5 1.6 3.5 3.9v0.4h-5.6c0.2 1.1 1 2 2.3 2 0.8 0 1.6-0.3 2.1-0.8l0.7 1c-0.7 0.7-1.8 1.1-2.9 1.1zm1.9-4.4c0-0.9-0.6-1.9-2-1.9-1.4 0-2 1-2.1 1.9zm9.8 4.2h-1.6v-1c-0.6 0.7-1.4 1.2-2.3 1.2-1.9 0-3.2-1.4-3.2-3.8 0-2.4 1.3-3.8 3.2-3.8 0.9 0 1.7 0.4 2.3 1.2v-3.8h1.6zm-3.5-1.2c0.8 0 1.6-0.5 1.9-1v-2.9c-0.3-0.5-1.1-0.9-1.9-0.9-1.2 0-2 1-2 2.4 0 1.4 0.8 2.4 2 2.4zm12.7 1.4c-2.3 0-3.8-1.8-3.8-3.8 0-2.1 1.5-3.8 3.8-3.8 2.3 0 3.7 1.7 3.7 3.8 0 2-1.4 3.8-3.7 3.8zm0-1.4c1.3 0 2.1-1.2 2.1-2.4 0-1.3-0.8-2.4-2.1-2.4-1.4 0-2.1 1.1-2.1 2.4 0 1.2 0.7 2.4 2.1 2.4zm11.8 1.2h-1.6v-4.5c0-1.2-0.6-1.5-1.5-1.5-0.8 0-1.5 0.4-1.8 0.9v5.1h-1.6v-7.3h1.6v1c0.5-0.6 1.4-1.1 2.5-1.1 1.6 0 2.4 0.8 2.4 2.3zm9.5 0h-1.8v-7.8l-1.6 1.8-1-1.1 2.9-2.9h1.5zm5.6 0.2c-1.7 0-2.9-0.6-3.7-1.6l1-1.2c0.7 0.8 1.6 1.2 2.7 1.2 1.3 0 2.1-0.8 2.1-1.8 0-1-0.8-1.7-2-1.7-0.9 0-1.6 0.2-2.2 0.8l-1.3-0.3v-5.6h6.6v1.5h-4.8v2.9c0.5-0.5 1.3-0.8 2.2-0.8 1.7 0 3.3 1.1 3.3 3.2 0 2-1.6 3.4-3.9 3.4zm15.8-0.2h-1.5v-4.6c0-1.1-0.6-1.4-1.5-1.4-0.8 0-1.5 0.4-1.9 0.9v5.1h-1.5v-10h1.5v3.7c0.5-0.6 1.4-1.1 2.6-1.1 1.5 0 2.3 0.8 2.3 2.3zm2.9-8.2c-0.6 0-1-0.4-1-1 0-0.5 0.4-0.9 1-0.9 0.5 0 0.9 0.4 0.9 0.9 0 0.6-0.4 1-0.9 1zm0.7 8.2h-1.5v-7.3h1.5zm5 3c-1.2 0-2.1-0.3-3-1.1l0.7-1.2c0.6 0.7 1.4 1 2.3 1 1.1 0 2.2-0.5 2.2-2.1v-0.8c-0.6 0.7-1.4 1.2-2.3 1.2-1.9 0-3.2-1.3-3.2-3.7 0-2.3 1.3-3.7 3.2-3.7 0.9 0 1.7 0.4 2.3 1.2v-1h1.6v6.8c0 2.6-2 3.4-3.8 3.4zm0.3-4.4c0.8 0 1.5-0.4 1.9-0.9v-2.8c-0.4-0.5-1.1-0.9-1.9-0.9-1.2 0-2 0.9-2 2.3 0 1.4 0.8 2.3 2 2.3zm12 1.4h-1.6v-4.5c0-1.2-0.6-1.5-1.4-1.5-0.9 0-1.5 0.5-1.9 0.9v5.1h-1.6v-10h1.6v3.7c0.5-0.5 1.4-1.1 2.5-1.1 1.6 0 2.4 0.8 2.4 2.3zm8.4 0.2c-1.3 0-2.4-0.4-3.1-1.2l0.7-1.1c0.5 0.5 1.5 1 2.5 1 0.9 0 1.4-0.4 1.4-1 0-1.4-4.4-0.4-4.4-3.2 0-1.1 1-2.1 2.9-2.1 1.2 0 2.1 0.4 2.8 1l-0.7 1.1c-0.4-0.5-1.2-0.9-2.1-0.9-0.9 0-1.4 0.4-1.4 0.9 0 1.3 4.4 0.3 4.4 3.2 0 1.3-1.1 2.3-3 2.3zm7.9 0c-2.2 0-3.8-1.7-3.8-3.8 0-2.2 1.6-3.8 3.8-3.8 1.4 0 2.2 0.6 2.8 1.2l-1.1 1q-0.6-0.9-1.6-0.8c-1.4 0-2.2 0.9-2.2 2.4 0 1.4 0.8 2.4 2.2 2.4q1 0 1.6-0.9l1.1 1c-0.6 0.6-1.4 1.3-2.8 1.3zm10.6-0.2h-1.5v-4.6c0-1.1-0.6-1.4-1.5-1.4-0.8 0-1.5 0.4-1.9 0.9v5.1h-1.5v-10h1.5v3.7c0.5-0.6 1.4-1.1 2.6-1.1 1.5 0 2.3 0.8 2.3 2.3zm5.4 0.1c-2.4 0-3.8-1.7-3.8-3.8 0-2.1 1.4-3.8 3.8-3.8 2.3 0 3.7 1.7 3.7 3.8 0 2.1-1.4 3.8-3.7 3.8zm0-1.4c1.3 0 2-1.1 2-2.4 0-1.3-0.7-2.4-2-2.4-1.4 0-2.1 1.1-2.1 2.4 0 1.3 0.7 2.4 2.1 2.4zm8.6 1.4c-2.3 0-3.7-1.7-3.7-3.8 0-2.1 1.4-3.8 3.7-3.8 2.3 0 3.7 1.7 3.7 3.8 0 2.1-1.4 3.8-3.7 3.8zm0-1.4c1.3 0 2.1-1.1 2.1-2.4 0-1.3-0.8-2.4-2.1-2.4-1.4 0-2.1 1.1-2.1 2.4 0 1.3 0.7 2.4 2.1 2.4zm6.9 1.3h-1.6v-10.1h1.6zm16.4 0h-1.6v-4.7c0-0.8-0.4-1.3-1.2-1.3-0.7 0-1.4 0.5-1.7 1v5h-1.6v-4.7c0-0.8-0.3-1.3-1.2-1.3-0.7 0-1.3 0.5-1.6 1v5h-1.6v-7.2h1.6v1c0.3-0.5 1.2-1.2 2.3-1.2 1.1 0 1.8 0.6 2 1.3 0.4-0.6 1.4-1.3 2.5-1.3 1.3 0 2.1 0.7 2.1 2.2zm8 0h-1.6v-0.8c-0.5 0.6-1.4 1-2.3 1-1.2 0-2.5-0.8-2.5-2.4 0-1.7 1.3-2.4 2.5-2.4 1 0 1.8 0.3 2.3 1v-1.1c0-0.9-0.7-1.4-1.7-1.4q-1.2 0-2.1 1l-0.7-1.1c0.9-0.9 1.9-1.2 3.1-1.2 1.6 0 3 0.7 3 2.6zm-3.3-0.9c0.7 0 1.4-0.3 1.7-0.8v-1.1c-0.3-0.5-1-0.7-1.7-0.7-0.9 0-1.6 0.5-1.6 1.3 0 0.8 0.7 1.3 1.6 1.3zm7.5 1.1c-1.2 0-1.8-0.7-1.8-1.9v-4.2h-1.2v-1.4h1.2v-1.9h1.6v1.9h1.4v1.4h-1.4v3.8c0 0.5 0.2 0.9 0.6 0.9 0.3 0 0.6-0.2 0.7-0.3l0.4 1.2c-0.3 0.3-0.7 0.5-1.5 0.5zm9.1-0.2h-1.6v-4.6c0-1.1-0.5-1.4-1.4-1.4-0.8 0-1.5 0.4-1.9 0.9v5.1h-1.5v-10h1.5v3.7c0.5-0.5 1.4-1.1 2.6-1.1 1.5 0 2.3 0.8 2.3 2.3zm9.8 0.1c-0.9 0-1.7-0.4-2.3-1.1v3.7h-1.6v-10h1.6v1c0.5-0.7 1.4-1.2 2.3-1.2 1.9 0 3.2 1.4 3.2 3.8 0 2.4-1.3 3.8-3.2 3.8zm-0.4-1.4c1.2 0 2-1 2-2.4 0-1.4-0.8-2.4-2-2.4-0.8 0-1.5 0.5-1.9 1v2.9c0.4 0.5 1.1 0.9 1.9 0.9zm6.8 1.3h-1.6v-7.3h1.6v1.1c0.5-0.7 1.4-1.3 2.3-1.3v1.6q-0.1 0-0.4 0c-0.7 0-1.6 0.4-1.9 0.9zm6.9 0.2c-2.3 0-3.7-1.7-3.7-3.8 0-2.1 1.4-3.8 3.7-3.8 2.3 0 3.7 1.7 3.7 3.8 0 2.1-1.4 3.8-3.7 3.8zm0-1.4c1.4 0 2.1-1.1 2.1-2.4 0-1.3-0.7-2.4-2.1-2.4-1.3 0-2.1 1.1-2.1 2.4 0 1.3 0.8 2.4 2.1 2.4zm6.9 1.2h-1.6v-10h1.6v3.8c0.6-0.8 1.4-1.2 2.3-1.2 1.9 0 3.3 1.5 3.3 3.8 0 2.4-1.4 3.8-3.3 3.8-0.9 0-1.7-0.4-2.3-1.2zm0-2.1c0.4 0.5 1.1 0.9 1.9 0.9 1.2 0 2-1 2-2.4 0-1.4-0.8-2.4-2-2.4-0.8 0-1.5 0.4-1.9 1zm8.7 2.2h-1.6v-10h1.6zm5.4 0.1c-2.2 0-3.8-1.5-3.8-3.8 0-2.1 1.6-3.8 3.7-3.8 2.2 0 3.6 1.7 3.6 4v0.3h-5.6c0.1 1.1 0.9 2 2.3 2 0.7 0 1.5-0.2 2-0.8l0.8 1.1c-0.8 0.7-1.8 1-3 1zm1.9-4.4c0-0.8-0.6-1.9-2-1.9-1.3 0-2 1.1-2 1.9zm13.5 4.3h-1.6v-4.8c0-0.7-0.3-1.3-1.2-1.3-0.7 0-1.3 0.5-1.6 1v5.1h-1.6v-4.8c0-0.7-0.4-1.3-1.2-1.3-0.7 0-1.4 0.5-1.7 1v5.1h-1.6v-7.3h1.6v1c0.3-0.5 1.3-1.2 2.4-1.2 1.1 0 1.7 0.6 2 1.3 0.4-0.6 1.3-1.3 2.4-1.3 1.3 0 2.1 0.7 2.1 2.2zm4.5 0.2c-1.2 0-2.3-0.4-3.1-1.1l0.8-1.2c0.5 0.6 1.5 1 2.4 1 0.9 0 1.4-0.4 1.4-0.9 0-1.4-4.3-0.4-4.3-3.2 0-1.2 1-2.2 2.8-2.2 1.2 0 2.2 0.4 2.8 1l-0.6 1.1c-0.5-0.5-1.3-0.9-2.2-0.9-0.8 0-1.3 0.4-1.3 0.9 0 1.3 4.4 0.4 4.4 3.2 0 1.3-1.1 2.3-3.1 2.3zm-389.8 21c-1.2 0-1.9-0.7-1.9-1.9v-4.2h-1.2v-1.3h1.2v-2h1.6v2h1.5v1.3h-1.5v3.8c0 0.5 0.3 0.9 0.7 0.9 0.3 0 0.6-0.1 0.7-0.3l0.4 1.2c-0.3 0.3-0.8 0.5-1.5 0.5zm9.1-0.2h-1.6v-4.5c0-1.2-0.6-1.5-1.4-1.5-0.9 0-1.5 0.5-1.9 0.9v5.1h-1.6v-10h1.6v3.8c0.5-0.6 1.4-1.2 2.5-1.2 1.6 0 2.4 0.8 2.4 2.3zm8 0h-1.5v-0.8c-0.6 0.6-1.4 1-2.4 1-1.2 0-2.5-0.8-2.5-2.4 0-1.7 1.3-2.4 2.5-2.4 1 0 1.8 0.3 2.4 0.9v-1.1c0-0.8-0.7-1.3-1.7-1.3q-1.2 0-2.2 0.9l-0.6-1.1c0.8-0.8 1.9-1.1 3-1.1 1.6 0 3 0.6 3 2.6zm-3.3-0.9c0.7 0 1.4-0.3 1.8-0.8v-1.1c-0.4-0.5-1.1-0.7-1.8-0.7-0.8 0-1.5 0.5-1.5 1.3 0 0.8 0.7 1.3 1.5 1.3zm7.6 1.1c-1.3 0-1.9-0.7-1.9-1.9v-4.2h-1.2v-1.4h1.2v-2h1.6v2h1.5v1.4h-1.5v3.8c0 0.5 0.2 0.9 0.7 0.9 0.3 0 0.6-0.2 0.7-0.3l0.3 1.2c-0.2 0.2-0.7 0.5-1.4 0.5zm8-0.2h-1.6v-10h1.6zm8.1 0h-1.6v-0.8c-0.5 0.6-1.4 0.9-2.4 0.9-1.1 0-2.5-0.8-2.5-2.4 0-1.6 1.4-2.3 2.5-2.3 1 0 1.9 0.3 2.4 0.9v-1.1c0-0.8-0.7-1.3-1.7-1.3q-1.2 0-2.1 0.9l-0.7-1.1c0.8-0.8 1.9-1.2 3-1.2 1.7 0 3.1 0.7 3.1 2.7zm-3.3-0.9c0.7 0 1.3-0.3 1.7-0.8v-1.1c-0.4-0.5-1-0.8-1.7-0.8-0.9 0-1.6 0.6-1.6 1.3 0 0.8 0.7 1.4 1.6 1.4zm6.9 0.9h-1.6v-7.3h1.6v1.1c0.5-0.7 1.4-1.3 2.3-1.3v1.6q-0.1-0.1-0.4-0.1c-0.7 0-1.6 0.5-1.9 1zm6.6 3c-1.3 0-2.2-0.3-3.1-1.1l0.8-1.2c0.6 0.7 1.3 1 2.3 1 1 0 2.1-0.5 2.1-2.1v-0.8c-0.5 0.8-1.4 1.2-2.3 1.2-1.9 0-3.2-1.3-3.2-3.7 0-2.3 1.3-3.7 3.2-3.7 0.9 0 1.7 0.4 2.3 1.2v-1h1.6v6.8c0 2.7-2 3.4-3.7 3.4zm0.3-4.4c0.7 0 1.5-0.4 1.8-0.9v-2.8c-0.3-0.5-1.1-0.9-1.8-0.9-1.3 0-2.1 0.9-2.1 2.3 0 1.4 0.8 2.3 2.1 2.3zm8.8 1.6c-2.2 0-3.8-1.5-3.8-3.8 0-2.1 1.5-3.8 3.7-3.8 2.2 0 3.5 1.6 3.5 3.9v0.4h-5.5c0.1 1.1 0.9 2 2.2 2 0.8 0 1.6-0.3 2.1-0.8l0.7 1c-0.7 0.7-1.8 1.1-2.9 1.1zm1.9-4.4c0-0.9-0.6-1.9-2-1.9-1.4 0-2 1-2.1 1.9zm8.5 4.2h-1.5v-10h1.5zm8.1 0h-1.6v-0.8c-0.5 0.6-1.4 1-2.3 1-1.2 0-2.5-0.8-2.5-2.4 0-1.7 1.3-2.4 2.5-2.4 1 0 1.8 0.3 2.3 1v-1.1c0-0.9-0.7-1.4-1.7-1.4q-1.2 0-2.1 1l-0.7-1.1c0.9-0.9 1.9-1.2 3.1-1.2 1.6 0 3 0.7 3 2.6zm-3.3-0.9c0.7 0 1.4-0.3 1.7-0.8v-1.1c-0.3-0.5-1-0.7-1.7-0.7-0.9 0-1.6 0.5-1.6 1.3 0 0.8 0.7 1.3 1.6 1.3zm11.8 0.9h-1.5v-4.5c0-1.2-0.6-1.5-1.5-1.5-0.8 0-1.5 0.4-1.9 0.9v5.1h-1.6v-7.2h1.6v0.9c0.5-0.5 1.4-1.1 2.6-1.1 1.5 0 2.3 0.8 2.3 2.3zm5 2.9c-1.2 0-2.1-0.2-3-1l0.7-1.2c0.6 0.7 1.4 0.9 2.3 0.9 1.1 0 2.2-0.4 2.2-2v-0.8c-0.6 0.7-1.4 1.2-2.4 1.2-1.8 0-3.2-1.3-3.2-3.7 0-2.4 1.4-3.7 3.2-3.7 1 0 1.8 0.4 2.4 1.2v-1h1.5v6.8c0 2.6-1.9 3.3-3.7 3.3zm0.3-4.3c0.7 0 1.5-0.4 1.9-1v-2.7c-0.4-0.5-1.2-0.9-1.9-0.9-1.2 0-2 0.9-2 2.3 0 1.4 0.8 2.3 2 2.3zm12 1.4h-1.6v-1c-0.5 0.6-1.4 1.2-2.6 1.2-1.5 0-2.3-0.8-2.3-2.3v-5.1h1.6v4.5c0 1.1 0.5 1.5 1.4 1.5 0.8 0 1.5-0.5 1.9-1v-5h1.6zm8 0h-1.6v-0.8c-0.5 0.6-1.4 0.9-2.3 0.9-1.2 0-2.5-0.8-2.5-2.4 0-1.6 1.3-2.3 2.5-2.3 1 0 1.8 0.3 2.3 0.9v-1.1c0-0.8-0.7-1.3-1.7-1.3q-1.2 0-2.1 0.9l-0.7-1.1c0.9-0.8 1.9-1.2 3.1-1.2 1.6 0 3 0.7 3 2.6zm-3.3-0.9c0.7 0 1.4-0.2 1.7-0.7v-1.1c-0.3-0.5-1-0.8-1.7-0.8-0.9 0-1.5 0.6-1.5 1.3 0 0.8 0.6 1.3 1.5 1.3zm8.3 3.9c-1.2 0-2.1-0.3-3-1.1l0.7-1.1c0.6 0.6 1.4 0.9 2.3 0.9 1 0 2.2-0.5 2.2-2v-0.9c-0.6 0.8-1.4 1.3-2.4 1.3-1.8 0-3.2-1.4-3.2-3.8 0-2.3 1.4-3.7 3.2-3.7 0.9 0 1.8 0.4 2.4 1.2v-1h1.5v6.9c0 2.6-1.9 3.3-3.7 3.3zm0.3-4.4c0.7 0 1.5-0.4 1.9-0.9v-2.7c-0.4-0.6-1.2-1-1.9-1-1.3 0-2.1 0.9-2.1 2.3 0 1.4 0.8 2.3 2.1 2.3zm8.8 1.6c-2.2 0-3.8-1.5-3.8-3.8 0-2.1 1.6-3.8 3.7-3.8 2.2 0 3.6 1.7 3.6 3.9v0.4h-5.6c0.1 1.1 0.9 2 2.3 2 0.7 0 1.5-0.3 2.1-0.8l0.7 1.1c-0.8 0.6-1.8 1-3 1zm2-4.4c-0.1-0.8-0.7-1.9-2.1-1.9-1.3 0-2 1-2 1.9zm17.4 4.2h-1.6v-4.7c0-0.8-0.3-1.3-1.2-1.3-0.7 0-1.4 0.5-1.7 1v5h-1.6v-4.7c0-0.8-0.3-1.3-1.1-1.3-0.7 0-1.4 0.5-1.7 1v5h-1.6v-7.2h1.6v1c0.3-0.5 1.2-1.2 2.4-1.2 1 0 1.7 0.6 1.9 1.3 0.4-0.6 1.4-1.3 2.5-1.3 1.3 0 2.1 0.7 2.1 2.2zm5.3 0.2c-2.3 0-3.7-1.8-3.7-3.8 0-2.1 1.4-3.8 3.7-3.8 2.3 0 3.7 1.7 3.7 3.8 0 2-1.4 3.8-3.7 3.8zm0-1.4c1.4 0 2.1-1.1 2.1-2.4 0-1.3-0.7-2.4-2.1-2.4-1.3 0-2.1 1.1-2.1 2.4 0 1.3 0.8 2.4 2.1 2.4zm12 1.2h-1.6v-1c-0.5 0.7-1.3 1.2-2.3 1.2-1.8 0-3.2-1.4-3.2-3.8 0-2.4 1.3-3.8 3.2-3.8 0.9 0 1.8 0.4 2.3 1.2v-3.8h1.6zm-3.4-1.2c0.7 0 1.5-0.5 1.8-1v-2.9c-0.3-0.5-1.1-0.9-1.8-0.9-1.3 0-2.1 1-2.1 2.4 0 1.4 0.8 2.4 2.1 2.4zm8.8 1.4c-2.2 0-3.8-1.5-3.8-3.8 0-2.1 1.5-3.8 3.7-3.8 2.2 0 3.5 1.6 3.5 3.9v0.4h-5.5c0.1 1.1 0.9 2 2.3 2 0.7 0 1.5-0.3 2-0.8l0.7 1c-0.7 0.7-1.8 1.1-2.9 1.1zm1.9-4.4c0-0.9-0.6-1.9-2-1.9-1.4 0-2 1-2.1 1.9zm4.7 4.2h-1.6v-10h1.6zm4.5 0.2c-1.2 0-2.3-0.4-3.1-1.2l0.7-1.1c0.6 0.5 1.6 1 2.5 1 0.9 0 1.4-0.4 1.4-0.9 0-1.5-4.4-0.5-4.4-3.2 0-1.2 1.1-2.2 2.9-2.2 1.2 0 2.2 0.4 2.8 1l-0.7 1.1c-0.4-0.5-1.2-0.9-2.1-0.9-0.8 0-1.3 0.4-1.3 0.9 0 1.3 4.3 0.3 4.3 3.2 0 1.3-1 2.3-3 2.3zm14.9-0.2h-1.5v-1c-0.5 0.6-1.4 1.2-2.6 1.2-1.5 0-2.3-0.9-2.3-2.3v-5.2h1.6v4.6c0 1.1 0.5 1.5 1.4 1.5 0.8 0 1.5-0.5 1.9-1v-5.1h1.5zm4.6 0.2c-1.3 0-2.4-0.4-3.1-1.1l0.7-1.1c0.5 0.5 1.5 1 2.4 1 1 0 1.5-0.4 1.5-1 0-1.4-4.4-0.4-4.4-3.2 0-1.2 1-2.2 2.8-2.2 1.3 0 2.2 0.5 2.9 1l-0.7 1.1c-0.4-0.4-1.2-0.8-2.2-0.8-0.8 0-1.3 0.4-1.3 0.9 0 1.2 4.4 0.3 4.4 3.2 0 1.3-1.1 2.2-3 2.2zm11-0.2h-1.5v-0.9c-0.6 0.6-1.5 1.1-2.6 1.1-1.6 0-2.3-0.8-2.3-2.3v-5.1h1.5v4.5c0 1.2 0.6 1.5 1.5 1.5 0.8 0 1.5-0.4 1.9-0.9v-5.1h1.5zm8.1 0h-1.6v-0.8c-0.5 0.6-1.4 1-2.3 1-1.2 0-2.5-0.8-2.5-2.4 0-1.7 1.3-2.4 2.5-2.4 0.9 0 1.8 0.3 2.3 0.9v-1c0-0.9-0.7-1.4-1.7-1.4q-1.2 0-2.1 0.9l-0.7-1.1c0.9-0.8 1.9-1.1 3.1-1.1 1.6 0 3 0.7 3 2.6zm-3.3-0.9c0.7 0 1.3-0.3 1.7-0.8v-1.1c-0.4-0.5-1-0.7-1.7-0.7-0.9 0-1.6 0.5-1.6 1.3 0 0.8 0.7 1.3 1.6 1.3zm6.9 0.9h-1.6v-10h1.6zm3.6 0h-1.6v-10h1.6zm1.8 2.8l0.2-1.4c0.2 0.1 0.4 0.1 0.6 0.1 0.5 0 0.8-0.1 1-0.6l0.4-0.8-3-7.4h1.7l2.1 5.5 2.1-5.5h1.7l-3.5 8.6c-0.5 1.2-1.3 1.6-2.4 1.6-0.3 0-0.7 0-0.9-0.1zm14.2-2.6c-1.3 0-2.4-0.4-3.1-1.2l0.7-1.1c0.5 0.5 1.5 1 2.4 1 1 0 1.5-0.4 1.5-1 0-1.4-4.4-0.4-4.4-3.2 0-1.1 1-2.1 2.8-2.1 1.3 0 2.2 0.4 2.8 1l-0.6 1.1c-0.5-0.5-1.2-0.9-2.2-0.9-0.8 0-1.3 0.4-1.3 0.9 0 1.3 4.4 0.3 4.4 3.2 0 1.3-1.1 2.3-3 2.3zm6.7 0c-1.2 0-1.8-0.7-1.8-1.9v-4.2h-1.2v-1.4h1.2v-1.9h1.6v1.9h1.4v1.4h-1.4v3.8c0 0.5 0.2 0.9 0.6 0.9 0.3 0 0.6-0.2 0.7-0.3l0.4 1.2c-0.3 0.2-0.7 0.5-1.5 0.5zm4.2-0.2h-1.6v-7.3h1.6v1.1c0.6-0.7 1.4-1.2 2.4-1.2v1.5q-0.2 0-0.5 0c-0.7 0-1.6 0.4-1.9 0.9zm10.1 0h-1.6v-0.9c-0.5 0.6-1.4 1.1-2.5 1.1-1.6 0-2.4-0.8-2.4-2.3v-5.1h1.6v4.5c0 1.2 0.6 1.5 1.5 1.5 0.8 0 1.5-0.4 1.8-0.9v-5.1h1.6zm5 2.9c-1.2 0-2.1-0.2-3-1l0.7-1.2c0.6 0.7 1.3 0.9 2.3 0.9 1 0 2.2-0.4 2.2-2v-0.8c-0.6 0.7-1.4 1.2-2.4 1.2-1.8 0-3.2-1.3-3.2-3.7 0-2.4 1.4-3.7 3.2-3.7 0.9 0 1.8 0.4 2.4 1.2v-1h1.5v6.8c0 2.6-1.9 3.3-3.7 3.3zm0.3-4.3c0.7 0 1.5-0.4 1.9-1v-2.7c-0.4-0.5-1.2-0.9-1.9-0.9-1.3 0-2.1 0.9-2.1 2.3 0 1.4 0.8 2.3 2.1 2.3zm8.4 4.3c-1.2 0-2.1-0.2-3-1l0.7-1.2c0.6 0.7 1.4 0.9 2.3 0.9 1.1 0 2.2-0.4 2.2-2v-0.8c-0.6 0.7-1.4 1.2-2.4 1.2-1.8 0-3.2-1.3-3.2-3.7 0-2.4 1.4-3.7 3.2-3.7 1 0 1.8 0.4 2.4 1.2v-1h1.5v6.8c0 2.6-1.9 3.3-3.7 3.3zm0.3-4.3c0.7 0 1.5-0.4 1.9-1v-2.7c-0.4-0.5-1.2-0.9-1.9-0.9-1.2 0-2 0.9-2 2.3 0 1.4 0.8 2.3 2 2.3zm7.1 1.4h-1.6v-10h1.6zm5.4 0.2c-2.2 0-3.8-1.5-3.8-3.8 0-2.1 1.5-3.8 3.6-3.8 2.2 0 3.6 1.6 3.6 3.9v0.4h-5.6c0.1 1.1 0.9 2 2.3 2 0.7 0 1.6-0.3 2.1-0.8l0.7 1c-0.7 0.7-1.8 1.1-2.9 1.1zm1.9-4.4c-0.1-0.9-0.6-1.9-2.1-1.9-1.3 0-1.9 1-2 1.9zm14.9 4.2h-1.6l-1.7-5.3-1.7 5.3h-1.7l-2.2-7.3h1.6l1.6 5.3 1.7-5.3h1.4l1.7 5.3 1.5-5.3h1.7zm4.1-8.1c-0.5 0-1-0.4-1-1 0-0.5 0.5-0.9 1-0.9 0.5 0 1 0.4 1 0.9 0 0.6-0.5 1-1 1zm0.8 8.1h-1.6v-7.2h1.6zm4.2 0.2c-1.2 0-1.8-0.7-1.8-1.9v-4.2h-1.2v-1.3h1.2v-2h1.5v2h1.5v1.3h-1.5v3.8c0 0.5 0.3 0.9 0.7 0.9 0.3 0 0.6-0.1 0.7-0.3l0.4 1.2c-0.3 0.3-0.8 0.5-1.5 0.5zm9.1-0.2h-1.6v-4.6c0-1.1-0.5-1.4-1.4-1.4-0.8 0-1.5 0.5-1.9 0.9v5.1h-1.6v-10h1.6v3.7c0.5-0.5 1.4-1.1 2.6-1.1 1.5 0 2.3 0.8 2.3 2.3zm2.9 0.1c-0.6 0-1.1-0.5-1.1-1 0-0.6 0.5-1.1 1.1-1.1 0.5 0 1 0.5 1 1.1 0 0.5-0.5 1-1 1z"/>
					</g>
				</g>
				<path id="ultra-line" class="s6" d="m225.5 446l11.5 11.5 11.5-11.5-11.5-11.5zm771.5-331.5l-15.4 5.5 5.5 15.4 15.4-5.5zm-760 333.4c232.9 0 399-32 518.5-88.3 119.5-56.4 192.2-137 238.3-233.8l-3.6-1.7c-45.7 96-117.8 175.9-236.4 231.8-118.7 56-284.2 88-516.8 88z"/>
				<g id="Footer Left Graph Lines">
					<path id="Line 2" class="s7" d="m0 124.5h1224"/>
					<path id="Line 3" class="s8" d="m0 213.3l1224-0.1"/>
					<path id="Line 4" class="s9" d="m0 302h1224"/>
					<path id="Line 5" class="s10" d="m0 390.8l1224-0.1"/>
					<path id="Line 6" class="s11" d="m0 479.5h1224"/>
				</g>
			</g>
		</g>
		<path class="s12" d="m0.5 0.5h1223v605h-1223z"/>
	</g>
</svg>