<svg width="115" height="22" viewBox="0 0 115 22" fill="none" xmlns="http://www.w3.org/2000/svg">
<path d="M40.0978 5.90481C39.569 5.21934 38.8737 4.64159 37.9924 4.18135C37.1111 3.7211 36.0829 3.48608 34.9078 3.48608C33.6054 3.48608 32.4107 3.80923 31.3335 4.45553C30.2564 5.10183 29.4044 6.00274 28.7777 7.15824C28.151 8.31375 27.8376 9.65531 27.8376 11.1536C27.8376 12.6616 28.151 14.0032 28.7777 15.188C29.4044 16.3729 30.2466 17.3032 31.3238 17.9593C32.3911 18.6252 33.576 18.9483 34.8588 18.9483C36.0143 18.9483 37.0523 18.7133 37.963 18.2433C38.8737 17.7732 39.5886 17.1857 40.1076 16.4708V18.7035H43.2313V3.7211H40.1076L40.0978 5.90481ZM39.4613 13.915C39.0304 14.6886 38.482 15.2664 37.7868 15.6679C37.1013 16.0694 36.3571 16.2652 35.5541 16.2652C34.7707 16.2652 34.0363 16.0596 33.341 15.6581C32.6457 15.2468 32.0778 14.6592 31.6567 13.8759C31.2258 13.0925 31.0202 12.1916 31.0202 11.1536C31.0202 10.1156 31.2356 9.22445 31.6567 8.47043C32.0778 7.71641 32.6359 7.14845 33.3312 6.75675C34.0167 6.36506 34.7609 6.16921 35.5639 6.16921C36.3571 6.16921 37.1013 6.36506 37.7965 6.76655C38.482 7.16804 39.0402 7.74579 39.4711 8.5096C39.8921 9.27341 40.1076 10.1645 40.1076 11.2025C40.0978 12.2405 39.8823 13.1414 39.4613 13.915Z" fill="#F0F5FC"/>
<path d="M54.4144 10.8892C53.7191 10.5856 52.828 10.2918 51.7313 10.0079C50.9185 9.77285 50.3016 9.577 49.8805 9.42032C49.4594 9.26364 49.1069 9.058 48.8229 8.78381C48.5292 8.50963 48.3921 8.17668 48.3921 7.77519C48.3921 7.26599 48.6075 6.8645 49.0482 6.55114C49.479 6.24758 50.1057 6.0909 50.9283 6.0909C51.7607 6.0909 52.4265 6.28675 52.9162 6.68823C53.4058 7.08972 53.68 7.61852 53.7289 8.29419H56.8331C56.7646 6.80574 56.2064 5.63065 55.1586 4.76892C54.1206 3.90719 52.7399 3.47632 51.036 3.47632C49.8903 3.47632 48.8817 3.66237 48.0004 4.04428C47.119 4.42618 46.4434 4.94518 45.9733 5.61107C45.5033 6.27695 45.2683 7.00159 45.2683 7.80457C45.2683 8.78381 45.5229 9.56721 46.0419 10.1743C46.5609 10.7717 47.168 11.2123 47.8731 11.5061C48.5781 11.7999 49.4986 12.0937 50.6149 12.407C51.7704 12.7302 52.6224 13.0337 53.161 13.3079C53.6996 13.5821 53.9639 13.9934 53.9639 14.5613C53.9639 15.0901 53.7191 15.521 53.2393 15.8539C52.7595 16.1869 52.0838 16.3534 51.2123 16.3534C50.3799 16.3534 49.6847 16.1379 49.1363 15.7169C48.5879 15.2958 48.2843 14.7572 48.2256 14.1305H45.0137C45.0528 15.0412 45.3368 15.8539 45.8852 16.5884C46.4336 17.3228 47.168 17.9006 48.0983 18.3314C49.0286 18.7525 50.0861 18.9679 51.2612 18.9679C52.4167 18.9679 53.4352 18.7819 54.2969 18.4C55.1586 18.0181 55.8245 17.4893 56.2945 16.8234C56.7646 16.1575 56.9996 15.3937 56.9996 14.5418C56.98 13.5821 56.7156 12.8085 56.2064 12.2307C55.7168 11.6334 55.1097 11.1928 54.4144 10.8892Z" fill="#F0F5FC"/>
<path d="M62.8847 0H59.761V3.72112H57.9885V6.24757H59.761V14.5418C59.761 16.0106 60.1331 17.0682 60.8773 17.7243C61.6215 18.3804 62.6889 18.7035 64.0892 18.7035H66.5373V16.1183H64.6376C64.0011 16.1183 63.5506 16.0008 63.296 15.756C63.0316 15.5112 62.9043 15.1097 62.9043 14.5418V6.24757H66.5471V3.72112H62.9043V0H62.8847Z" fill="#F0F5FC"/>
<path d="M71.3945 5.90481V3.73089H68.2903V18.7133H71.3945V10.8304C71.3945 9.30279 71.7078 8.23541 72.3346 7.61849C72.9613 7.00157 73.8818 6.698 75.096 6.698H75.8892V3.48608C74.8512 3.48608 73.9601 3.70152 73.2061 4.12259C72.4521 4.54367 71.8547 5.141 71.3945 5.90481Z" fill="#F0F5FC"/>
<path d="M88.7369 3.73089V5.90481C88.2081 5.21934 87.5129 4.64159 86.6316 4.18135C85.7502 3.7211 84.722 3.48608 83.5469 3.48608C82.2445 3.48608 81.0499 3.80923 79.9727 4.45553C78.8955 5.10183 78.0436 6.00274 77.4169 7.15824C76.7902 8.31375 76.4768 9.65531 76.4768 11.1536C76.4768 12.6616 76.7902 14.0032 77.4169 15.188C78.0436 16.3729 78.8857 17.3032 79.9629 17.9593C81.0303 18.6252 82.2152 18.9483 83.498 18.9483C84.6535 18.9483 85.6915 18.7133 86.6022 18.2433C87.5129 17.7732 88.2277 17.1857 88.7467 16.4708V18.7035H91.8705V3.7211L88.7369 3.73089ZM88.1004 13.915C87.6696 14.6886 87.1212 15.2664 86.4259 15.6679C85.7404 16.0694 84.9962 16.2652 84.1932 16.2652C83.4098 16.2652 82.6754 16.0596 81.9802 15.6581C81.2849 15.2468 80.7169 14.6592 80.2959 13.8759C79.865 13.0925 79.6593 12.1916 79.6593 11.1536C79.6593 10.1156 79.8748 9.22445 80.2959 8.47043C80.7169 7.71641 81.2751 7.14845 81.9704 6.75675C82.6558 6.36506 83.4001 6.16921 84.203 6.16921C84.9962 6.16921 85.7404 6.36506 86.4357 6.76655C87.1212 7.16804 87.6793 7.74579 88.1102 8.5096C88.5313 9.27341 88.7467 10.1645 88.7467 11.2025C88.7369 12.2405 88.5313 13.1414 88.1004 13.915Z" fill="#F0F5FC"/>
<path d="M22.8534 13.8562C22.3833 12.9749 21.7468 12.1328 20.9732 11.3592C20.8753 11.2612 20.7676 11.1633 20.6599 11.0654C20.6109 11.7215 20.513 12.358 20.3857 12.9945C20.2878 13.4743 20.1702 13.9248 20.0234 14.3752C20.1996 14.62 20.3563 14.8649 20.4836 15.1097C20.8263 15.756 21.316 16.9898 20.7578 17.9593C20.0429 19.2029 17.5753 19.6044 14.8138 18.5076C14.6963 18.4587 13.7464 18.018 13.3743 17.8124C12.9924 17.5969 12.6399 17.3521 12.2971 17.0975C11.9446 16.8331 11.6019 16.5394 11.2983 16.2456C10.6814 15.6483 10.182 14.9922 9.82944 14.3361C9.64339 14.0031 9.46712 13.6408 9.32024 13.2295C9.12439 13.3274 8.92854 13.4254 8.74248 13.5331C8.36058 13.7485 8.00805 13.9933 7.69469 14.2479C7.47926 14.4242 7.26383 14.6005 7.06798 14.7963L7.05819 14.8061C7.17569 15.0803 7.31279 15.3447 7.44988 15.5895C8.00805 16.6275 8.80124 17.6263 9.78048 18.4978C7.01902 19.5946 4.55132 19.1931 3.83648 17.9495C3.27831 16.98 3.76793 15.7462 4.11066 15.0999C4.4534 14.4536 4.95281 13.8073 5.55994 13.2197C5.80475 12.9847 6.06915 12.7497 6.34334 12.5343C6.75462 12.2111 7.19528 11.9075 7.66532 11.6334C8.04722 11.4179 8.42912 11.2221 8.82082 11.0556C9.97633 10.5562 11.1612 10.2918 12.2188 10.2918H12.3755C13.0903 10.2918 13.8541 10.4093 14.6277 10.6443C15.0096 10.7618 15.4013 10.8989 15.7832 11.0654C15.7441 11.4277 15.6853 11.7704 15.607 12.1034C15.4307 12.8966 15.1565 13.6114 14.8334 14.199C14.8334 14.2088 14.8236 14.2186 14.8236 14.2186C14.6081 14.6592 14.3046 15.1195 13.9227 15.5699C14.0989 15.6874 14.285 15.8049 14.4711 15.9126C14.7648 16.0791 15.6364 16.4806 15.6364 16.4806C15.9007 16.5883 16.41 16.7352 16.4197 16.745C16.6939 16.3729 16.929 15.991 17.1346 15.6091C17.634 14.718 18.0159 13.68 18.2607 12.5441C18.4468 11.6725 18.5447 10.7325 18.5447 9.75321V9.46923C18.4468 4.4653 15.7441 0.59729 12.3069 0.59729C9.50629 0.59729 7.19528 3.1727 6.38251 6.82527C6.97005 6.54129 7.57718 6.30627 8.18431 6.10063C8.64456 5.94396 9.1048 5.82645 9.56505 5.71873C10.2603 4.19111 11.3179 3.27062 12.3069 3.27062C13.7464 3.27062 15.323 5.21932 15.7539 8.16684C14.5886 7.78493 13.4135 7.58908 12.3069 7.59888C11.2689 7.61846 9.94695 7.81431 8.85999 8.16684C8.00805 8.45082 7.14632 8.83272 6.32375 9.30276C6.23562 9.35172 6.14749 9.40068 6.06915 9.45944C4.16942 10.6149 2.63201 12.1621 1.7409 13.8464C0.7029 15.8049 0.62456 17.7438 1.51567 19.291C2.48512 20.9655 4.40444 21.8273 6.67628 21.8273C8.42912 21.8273 10.3974 21.3083 12.3069 20.2605C14.2164 21.3083 16.1749 21.8273 17.9376 21.8273C20.2094 21.8273 22.1287 20.9655 23.0982 19.291C23.9794 17.7537 23.9012 15.8147 22.8534 13.8562Z" fill="#FDB300"/>
<path d="M110.74 1.54724H99.998C97.6478 1.54724 95.7383 3.46656 95.7383 5.82653V16.6178C95.7383 18.9778 97.6478 20.8971 99.998 20.8971H110.74C113.09 20.8971 115 18.9778 115 16.6178V5.82653C115 3.46656 113.09 1.54724 110.74 1.54724ZM113.541 16.6178C113.541 18.165 112.287 19.4282 110.74 19.4282H99.998C98.4606 19.4282 97.1974 18.1748 97.1974 16.6178V5.82653C97.1974 4.27933 98.4508 3.01611 99.998 3.01611H110.74C112.278 3.01611 113.541 4.26954 113.541 5.82653V16.6178Z" fill="#FDB300"/>
<path d="M102.623 6.84497L99.5183 15.5406H101.33L101.898 13.8857H105.335L105.903 15.5406H107.734L104.63 6.84497H102.623ZM102.378 12.4952L103.621 8.86221L104.865 12.4952H102.378Z" fill="#F0F5FC"/>
<path d="M110.212 6.85474H108.478V15.5406H110.212V6.85474Z" fill="#F0F5FC"/>
</svg>
