<svg width="1224" height="1746" viewBox="0 0 1224 1746" fill="none" xmlns="http://www.w3.org/2000/svg">
<g clip-path="url(#clip0_13273_101404)">
<mask id="path-1-inside-1_13273_101404" fill="white">
<path d="M0 0H172V1796H0V0Z"/>
</mask>
<path d="M-0.5 0V4.98889H0.5V0H-0.5ZM-0.5 9.97778V19.9556H0.5V9.97778H-0.5ZM-0.5 24.9444V34.9222H0.5V24.9444H-0.5ZM-0.5 39.9111V49.8889H0.5V39.9111H-0.5ZM-0.5 54.8778V64.8556H0.5V54.8778H-0.5ZM-0.5 69.8444V79.8222H0.5V69.8444H-0.5ZM-0.5 84.8111V94.7889H0.5V84.8111H-0.5ZM-0.5 99.7778V109.756H0.5V99.7778H-0.5ZM-0.5 114.744V124.722H0.5V114.744H-0.5ZM-0.5 129.711V139.689H0.5V129.711H-0.5ZM-0.5 144.678V154.656H0.5V144.678H-0.5ZM-0.5 159.644V169.622H0.5V159.644H-0.5ZM-0.5 174.611V184.589H0.5V174.611H-0.5ZM-0.5 189.578V199.556H0.5V189.578H-0.5ZM-0.5 204.544V214.522H0.5V204.544H-0.5ZM-0.5 219.511V229.489H0.5V219.511H-0.5ZM-0.5 234.478V244.456H0.5V234.478H-0.5ZM-0.5 249.445V259.422H0.5V249.445H-0.5ZM-0.5 264.411V274.389H0.5V264.411H-0.5ZM-0.5 279.378V289.356H0.5V279.378H-0.5ZM-0.5 294.345V304.322H0.5V294.345H-0.5ZM-0.5 309.311V319.289H0.5V309.311H-0.5ZM-0.5 324.278V334.256H0.5V324.278H-0.5ZM-0.5 339.245V349.222H0.5V339.245H-0.5ZM-0.5 354.211V364.189H0.5V354.211H-0.5ZM-0.5 369.178V379.156H0.5V369.178H-0.5ZM-0.5 384.145V394.122H0.5V384.145H-0.5ZM-0.5 399.111V409.089H0.5V399.111H-0.5ZM-0.5 414.078V424.056H0.5V414.078H-0.5ZM-0.5 429.045V439.022H0.5V429.045H-0.5ZM-0.5 444.011V453.989H0.5V444.011H-0.5ZM-0.5 458.978V468.956H0.5V458.978H-0.5ZM-0.5 473.945V483.922H0.5V473.945H-0.5ZM-0.5 488.911V498.889H0.5V488.911H-0.5ZM-0.5 503.878V513.856H0.5V503.878H-0.5ZM-0.5 518.845V528.822H0.5V518.845H-0.5ZM-0.5 533.811V543.789H0.5V533.811H-0.5ZM-0.5 548.778V558.756H0.5V548.778H-0.5ZM-0.5 563.745V573.722H0.5V563.745H-0.5ZM-0.5 578.711V588.689H0.5V578.711H-0.5ZM-0.5 593.678V603.656H0.5V593.678H-0.5ZM-0.5 608.645V618.622H0.5V608.645H-0.5ZM-0.5 623.611V633.589H0.5V623.611H-0.5ZM-0.5 638.578V648.556H0.5V638.578H-0.5ZM-0.5 653.545V663.522H0.5V653.545H-0.5ZM-0.5 668.511V678.489H0.5V668.511H-0.5ZM-0.5 683.478V693.456H0.5V683.478H-0.5ZM-0.5 698.445V708.422H0.5V698.445H-0.5ZM-0.5 713.411V723.389H0.5V713.411H-0.5ZM-0.5 728.378V738.356H0.5V728.378H-0.5ZM-0.5 743.345V753.323H0.5V743.345H-0.5ZM-0.5 758.311V768.289H0.5V758.311H-0.5ZM-0.5 773.278V783.256H0.5V773.278H-0.5ZM-0.5 788.245V798.223H0.5V788.245H-0.5ZM-0.5 803.211V813.189H0.5V803.211H-0.5ZM-0.5 818.178V828.156H0.5V818.178H-0.5ZM-0.5 833.145V843.123H0.5V833.145H-0.5ZM-0.5 848.111V858.089H0.5V848.111H-0.5ZM-0.5 863.078V873.056H0.5V863.078H-0.5ZM-0.5 878.045V888.023H0.5V878.045H-0.5ZM-0.5 893.011V902.989H0.5V893.011H-0.5ZM-0.5 907.978V917.956H0.5V907.978H-0.5ZM-0.5 922.945V932.923H0.5V922.945H-0.5ZM-0.5 937.912V947.889H0.5V937.912H-0.5ZM-0.5 952.878V962.856H0.5V952.878H-0.5ZM-0.5 967.845V977.823H0.5V967.845H-0.5ZM-0.5 982.812V992.789H0.5V982.812H-0.5ZM-0.5 997.778V1007.76H0.5V997.778H-0.5ZM-0.5 1012.74V1022.72H0.5V1012.74H-0.5ZM-0.5 1027.71V1037.69H0.5V1027.71H-0.5ZM-0.5 1042.68V1052.66H0.5V1042.68H-0.5ZM-0.5 1057.64V1067.62H0.5V1057.64H-0.5ZM-0.5 1072.61V1082.59H0.5V1072.61H-0.5ZM-0.5 1087.58V1097.56H0.5V1087.58H-0.5ZM-0.5 1102.54V1112.52H0.5V1102.54H-0.5ZM-0.5 1117.51V1127.49H0.5V1117.51H-0.5ZM-0.5 1132.48V1142.46H0.5V1132.48H-0.5ZM-0.5 1147.44V1157.42H0.5V1147.44H-0.5ZM-0.5 1162.41V1172.39H0.5V1162.41H-0.5ZM-0.5 1177.38V1187.36H0.5V1177.38H-0.5ZM-0.5 1192.34V1202.32H0.5V1192.34H-0.5ZM-0.5 1207.31V1217.29H0.5V1207.31H-0.5ZM-0.5 1222.28V1232.26H0.5V1222.28H-0.5ZM-0.5 1237.24V1247.22H0.5V1237.24H-0.5ZM-0.5 1252.21V1262.19H0.5V1252.21H-0.5ZM-0.5 1267.18V1277.16H0.5V1267.18H-0.5ZM-0.5 1282.15V1292.12H0.5V1282.15H-0.5ZM-0.5 1297.11V1307.09H0.5V1297.11H-0.5ZM-0.5 1312.08V1322.06H0.5V1312.08H-0.5ZM-0.5 1327.05V1337.02H0.5V1327.05H-0.5ZM-0.5 1342.01V1351.99H0.5V1342.01H-0.5ZM-0.5 1356.98V1366.96H0.5V1356.98H-0.5ZM-0.5 1371.95V1381.92H0.5V1371.95H-0.5ZM-0.5 1386.91V1396.89H0.5V1386.91H-0.5ZM-0.5 1401.88V1411.86H0.5V1401.88H-0.5ZM-0.5 1416.85V1426.82H0.5V1416.85H-0.5ZM-0.5 1431.81V1441.79H0.5V1431.81H-0.5ZM-0.5 1446.78V1456.76H0.5V1446.78H-0.5ZM-0.5 1461.75V1471.72H0.5V1461.75H-0.5ZM-0.5 1476.71V1486.69H0.5V1476.71H-0.5ZM-0.5 1491.68V1501.66H0.5V1491.68H-0.5ZM-0.5 1506.65V1516.62H0.5V1506.65H-0.5ZM-0.5 1521.61V1531.59H0.5V1521.61H-0.5ZM-0.5 1536.58V1546.56H0.5V1536.58H-0.5ZM-0.5 1551.55V1561.52H0.5V1551.55H-0.5ZM-0.5 1566.51V1576.49H0.5V1566.51H-0.5ZM-0.5 1581.48V1591.46H0.5V1581.48H-0.5ZM-0.5 1596.45V1606.42H0.5V1596.45H-0.5ZM-0.5 1611.41V1621.39H0.5V1611.41H-0.5ZM-0.5 1626.38V1636.36H0.5V1626.38H-0.5ZM-0.5 1641.35V1651.32H0.5V1641.35H-0.5ZM-0.5 1656.31V1666.29H0.5V1656.31H-0.5ZM-0.5 1671.28V1681.26H0.5V1671.28H-0.5ZM-0.5 1686.25V1696.22H0.5V1686.25H-0.5ZM-0.5 1701.21V1711.19H0.5V1701.21H-0.5ZM-0.5 1716.18V1726.16H0.5V1716.18H-0.5ZM-0.5 1731.15V1741.12H0.5V1731.15H-0.5ZM-0.5 1746.11V1756.09H0.5V1746.11H-0.5ZM-0.5 1761.08V1771.06H0.5V1761.08H-0.5ZM-0.5 1776.05V1786.02H0.5V1776.05H-0.5ZM-0.5 1791.01V1796H0.5V1791.01H-0.5ZM172.5 1796V1791.01H171.5V1796H172.5ZM172.5 1786.02V1776.04H171.5V1786.02H172.5ZM172.5 1771.06V1761.08H171.5V1771.06H172.5ZM172.5 1756.09V1746.11H171.5V1756.09H172.5ZM172.5 1741.12V1731.14H171.5V1741.12H172.5ZM172.5 1726.16V1716.18H171.5V1726.16H172.5ZM172.5 1711.19V1701.21H171.5V1711.19H172.5ZM172.5 1696.22V1686.24H171.5V1696.22H172.5ZM172.5 1681.26V1671.28H171.5V1681.26H172.5ZM172.5 1666.29V1656.31H171.5V1666.29H172.5ZM172.5 1651.32V1641.34H171.5V1651.32H172.5ZM172.5 1636.36V1626.38H171.5V1636.36H172.5ZM172.5 1621.39V1611.41H171.5V1621.39H172.5ZM172.5 1606.42V1596.44H171.5V1606.42H172.5ZM172.5 1591.46V1581.48H171.5V1591.46H172.5ZM172.5 1576.49V1566.51H171.5V1576.49H172.5ZM172.5 1561.52V1551.54H171.5V1561.52H172.5ZM172.5 1546.56V1536.58H171.5V1546.56H172.5ZM172.5 1531.59V1521.61H171.5V1531.59H172.5ZM172.5 1516.62V1506.64H171.5V1516.62H172.5ZM172.5 1501.66V1491.68H171.5V1501.66H172.5ZM172.5 1486.69V1476.71H171.5V1486.69H172.5ZM172.5 1471.72V1461.74H171.5V1471.72H172.5ZM172.5 1456.76V1446.78H171.5V1456.76H172.5ZM172.5 1441.79V1431.81H171.5V1441.79H172.5ZM172.5 1426.82V1416.84H171.5V1426.82H172.5ZM172.5 1411.86V1401.88H171.5V1411.86H172.5ZM172.5 1396.89V1386.91H171.5V1396.89H172.5ZM172.5 1381.92V1371.94H171.5V1381.92H172.5ZM172.5 1366.96V1356.98H171.5V1366.96H172.5ZM172.5 1351.99V1342.01H171.5V1351.99H172.5ZM172.5 1337.02V1327.04H171.5V1337.02H172.5ZM172.5 1322.06V1312.08H171.5V1322.06H172.5ZM172.5 1307.09V1297.11H171.5V1307.09H172.5ZM172.5 1292.12V1282.14H171.5V1292.12H172.5ZM172.5 1277.16V1267.18H171.5V1277.16H172.5ZM172.5 1262.19V1252.21H171.5V1262.19H172.5ZM172.5 1247.22V1237.24H171.5V1247.22H172.5ZM172.5 1232.26V1222.28H171.5V1232.26H172.5ZM172.5 1217.29V1207.31H171.5V1217.29H172.5ZM172.5 1202.32V1192.34H171.5V1202.32H172.5ZM172.5 1187.36V1177.38H171.5V1187.36H172.5ZM172.5 1172.39V1162.41H171.5V1172.39H172.5ZM172.5 1157.42V1147.44H171.5V1157.42H172.5ZM172.5 1142.46V1132.48H171.5V1142.46H172.5ZM172.5 1127.49V1117.51H171.5V1127.49H172.5ZM172.5 1112.52V1102.54H171.5V1112.52H172.5ZM172.5 1097.56V1087.58H171.5V1097.56H172.5ZM172.5 1082.59V1072.61H171.5V1082.59H172.5ZM172.5 1067.62V1057.64H171.5V1067.62H172.5ZM172.5 1052.66V1042.68H171.5V1052.66H172.5ZM172.5 1037.69V1027.71H171.5V1037.69H172.5ZM172.5 1022.72V1012.74H171.5V1022.72H172.5ZM172.5 1007.76V997.777H171.5V1007.76H172.5ZM172.5 992.789V982.811H171.5V992.789H172.5ZM172.5 977.822V967.844H171.5V977.822H172.5ZM172.5 962.855V952.877H171.5V962.855H172.5ZM172.5 947.889V937.911H171.5V947.889H172.5ZM172.5 932.922V922.944H171.5V932.922H172.5ZM172.5 917.955V907.977H171.5V917.955H172.5ZM172.5 902.989V893.011H171.5V902.989H172.5ZM172.5 888.022V878.044H171.5V888.022H172.5ZM172.5 873.055V863.077H171.5V873.055H172.5ZM172.5 858.088V848.111H171.5V858.088H172.5ZM172.5 843.122V833.144H171.5V843.122H172.5ZM172.5 828.155V818.177H171.5V828.155H172.5ZM172.5 813.188V803.211H171.5V813.188H172.5ZM172.5 798.222V788.244H171.5V798.222H172.5ZM172.5 783.255V773.277H171.5V783.255H172.5ZM172.5 768.288V758.311H171.5V768.288H172.5ZM172.5 753.322V743.344H171.5V753.322H172.5ZM172.5 738.355V728.377H171.5V738.355H172.5ZM172.5 723.388V713.411H171.5V723.388H172.5ZM172.5 708.422V698.444H171.5V708.422H172.5ZM172.5 693.455V683.477H171.5V693.455H172.5ZM172.5 678.488V668.511H171.5V678.488H172.5ZM172.5 663.522V653.544H171.5V663.522H172.5ZM172.5 648.555V638.577H171.5V648.555H172.5ZM172.5 633.588V623.611H171.5V633.588H172.5ZM172.5 618.622V608.644H171.5V618.622H172.5ZM172.5 603.655V593.677H171.5V603.655H172.5ZM172.5 588.688V578.711H171.5V588.688H172.5ZM172.5 573.722V563.744H171.5V573.722H172.5ZM172.5 558.755V548.777H171.5V558.755H172.5ZM172.5 543.788V533.811H171.5V543.788H172.5ZM172.5 528.822V518.844H171.5V528.822H172.5ZM172.5 513.855V503.877H171.5V513.855H172.5ZM172.5 498.888V488.911H171.5V498.888H172.5ZM172.5 483.922V473.944H171.5V483.922H172.5ZM172.5 468.955V458.977H171.5V468.955H172.5ZM172.5 453.988V444.01H171.5V453.988H172.5ZM172.5 439.022V429.044H171.5V439.022H172.5ZM172.5 424.055V414.077H171.5V424.055H172.5ZM172.5 409.088V399.11H171.5V409.088H172.5ZM172.5 394.122V384.144H171.5V394.122H172.5ZM172.5 379.155V369.177H171.5V379.155H172.5ZM172.5 364.188V354.21H171.5V364.188H172.5ZM172.5 349.222V339.244H171.5V349.222H172.5ZM172.5 334.255V324.277H171.5V334.255H172.5ZM172.5 319.288V309.31H171.5V319.288H172.5ZM172.5 304.322V294.344H171.5V304.322H172.5ZM172.5 289.355V279.377H171.5V289.355H172.5ZM172.5 274.388V264.41H171.5V274.388H172.5ZM172.5 259.422V249.444H171.5V259.422H172.5ZM172.5 244.455V234.477H171.5V244.455H172.5ZM172.5 229.488V219.51H171.5V229.488H172.5ZM172.5 214.521V204.544H171.5V214.521H172.5ZM172.5 199.555V189.577H171.5V199.555H172.5ZM172.5 184.588V174.61H171.5V184.588H172.5ZM172.5 169.621V159.644H171.5V169.621H172.5ZM172.5 154.655V144.677H171.5V154.655H172.5ZM172.5 139.688V129.71H171.5V139.688H172.5ZM172.5 124.721V114.744H171.5V124.721H172.5ZM172.5 109.755V99.777H171.5V109.755H172.5ZM172.5 94.7881V84.8103H171.5V94.7881H172.5ZM172.5 79.8214V69.8437H171.5V79.8214H172.5ZM172.5 64.8547V54.8769H171.5V64.8547H172.5ZM172.5 49.8881V39.9103H171.5V49.8881H172.5ZM172.5 34.9214V24.9436H171.5V34.9214H172.5ZM172.5 19.9548V9.97695H171.5V19.9548H172.5ZM172.5 4.98799V0H171.5V4.98799H172.5ZM-1 0V4.98889H1V0H-1ZM-1 9.97778V19.9556H1V9.97778H-1ZM-1 24.9444V34.9222H1V24.9444H-1ZM-1 39.9111V49.8889H1V39.9111H-1ZM-1 54.8778V64.8556H1V54.8778H-1ZM-1 69.8444V79.8222H1V69.8444H-1ZM-1 84.8111V94.7889H1V84.8111H-1ZM-1 99.7778V109.756H1V99.7778H-1ZM-1 114.744V124.722H1V114.744H-1ZM-1 129.711V139.689H1V129.711H-1ZM-1 144.678V154.656H1V144.678H-1ZM-1 159.644V169.622H1V159.644H-1ZM-1 174.611V184.589H1V174.611H-1ZM-1 189.578V199.556H1V189.578H-1ZM-1 204.544V214.522H1V204.544H-1ZM-1 219.511V229.489H1V219.511H-1ZM-1 234.478V244.456H1V234.478H-1ZM-1 249.445V259.422H1V249.445H-1ZM-1 264.411V274.389H1V264.411H-1ZM-1 279.378V289.356H1V279.378H-1ZM-1 294.345V304.322H1V294.345H-1ZM-1 309.311V319.289H1V309.311H-1ZM-1 324.278V334.256H1V324.278H-1ZM-1 339.245V349.222H1V339.245H-1ZM-1 354.211V364.189H1V354.211H-1ZM-1 369.178V379.156H1V369.178H-1ZM-1 384.145V394.122H1V384.145H-1ZM-1 399.111V409.089H1V399.111H-1ZM-1 414.078V424.056H1V414.078H-1ZM-1 429.045V439.022H1V429.045H-1ZM-1 444.011V453.989H1V444.011H-1ZM-1 458.978V468.956H1V458.978H-1ZM-1 473.945V483.922H1V473.945H-1ZM-1 488.911V498.889H1V488.911H-1ZM-1 503.878V513.856H1V503.878H-1ZM-1 518.845V528.822H1V518.845H-1ZM-1 533.811V543.789H1V533.811H-1ZM-1 548.778V558.756H1V548.778H-1ZM-1 563.745V573.722H1V563.745H-1ZM-1 578.711V588.689H1V578.711H-1ZM-1 593.678V603.656H1V593.678H-1ZM-1 608.645V618.622H1V608.645H-1ZM-1 623.611V633.589H1V623.611H-1ZM-1 638.578V648.556H1V638.578H-1ZM-1 653.545V663.522H1V653.545H-1ZM-1 668.511V678.489H1V668.511H-1ZM-1 683.478V693.456H1V683.478H-1ZM-1 698.445V708.422H1V698.445H-1ZM-1 713.411V723.389H1V713.411H-1ZM-1 728.378V738.356H1V728.378H-1ZM-1 743.345V753.323H1V743.345H-1ZM-1 758.311V768.289H1V758.311H-1ZM-1 773.278V783.256H1V773.278H-1ZM-1 788.245V798.223H1V788.245H-1ZM-1 803.211V813.189H1V803.211H-1ZM-1 818.178V828.156H1V818.178H-1ZM-1 833.145V843.123H1V833.145H-1ZM-1 848.111V858.089H1V848.111H-1ZM-1 863.078V873.056H1V863.078H-1ZM-1 878.045V888.023H1V878.045H-1ZM-1 893.011V902.989H1V893.011H-1ZM-1 907.978V917.956H1V907.978H-1ZM-1 922.945V932.923H1V922.945H-1ZM-1 937.912V947.889H1V937.912H-1ZM-1 952.878V962.856H1V952.878H-1ZM-1 967.845V977.823H1V967.845H-1ZM-1 982.812V992.789H1V982.812H-1ZM-1 997.778V1007.76H1V997.778H-1ZM-1 1012.74V1022.72H1V1012.74H-1ZM-1 1027.71V1037.69H1V1027.71H-1ZM-1 1042.68V1052.66H1V1042.68H-1ZM-1 1057.64V1067.62H1V1057.64H-1ZM-1 1072.61V1082.59H1V1072.61H-1ZM-1 1087.58V1097.56H1V1087.58H-1ZM-1 1102.54V1112.52H1V1102.54H-1ZM-1 1117.51V1127.49H1V1117.51H-1ZM-1 1132.48V1142.46H1V1132.48H-1ZM-1 1147.44V1157.42H1V1147.44H-1ZM-1 1162.41V1172.39H1V1162.41H-1ZM-1 1177.38V1187.36H1V1177.38H-1ZM-1 1192.34V1202.32H1V1192.34H-1ZM-1 1207.31V1217.29H1V1207.31H-1ZM-1 1222.28V1232.26H1V1222.28H-1ZM-1 1237.24V1247.22H1V1237.24H-1ZM-1 1252.21V1262.19H1V1252.21H-1ZM-1 1267.18V1277.16H1V1267.18H-1ZM-1 1282.15V1292.12H1V1282.15H-1ZM-1 1297.11V1307.09H1V1297.11H-1ZM-1 1312.08V1322.06H1V1312.08H-1ZM-1 1327.05V1337.02H1V1327.05H-1ZM-1 1342.01V1351.99H1V1342.01H-1ZM-1 1356.98V1366.96H1V1356.98H-1ZM-1 1371.95V1381.92H1V1371.95H-1ZM-1 1386.91V1396.89H1V1386.91H-1ZM-1 1401.88V1411.86H1V1401.88H-1ZM-1 1416.85V1426.82H1V1416.85H-1ZM-1 1431.81V1441.79H1V1431.81H-1ZM-1 1446.78V1456.76H1V1446.78H-1ZM-1 1461.75V1471.72H1V1461.75H-1ZM-1 1476.71V1486.69H1V1476.71H-1ZM-1 1491.68V1501.66H1V1491.68H-1ZM-1 1506.65V1516.62H1V1506.65H-1ZM-1 1521.61V1531.59H1V1521.61H-1ZM-1 1536.58V1546.56H1V1536.58H-1ZM-1 1551.55V1561.52H1V1551.55H-1ZM-1 1566.51V1576.49H1V1566.51H-1ZM-1 1581.48V1591.46H1V1581.48H-1ZM-1 1596.45V1606.42H1V1596.45H-1ZM-1 1611.41V1621.39H1V1611.41H-1ZM-1 1626.38V1636.36H1V1626.38H-1ZM-1 1641.35V1651.32H1V1641.35H-1ZM-1 1656.31V1666.29H1V1656.31H-1ZM-1 1671.28V1681.26H1V1671.28H-1ZM-1 1686.25V1696.22H1V1686.25H-1ZM-1 1701.21V1711.19H1V1701.21H-1ZM-1 1716.18V1726.16H1V1716.18H-1ZM-1 1731.15V1741.12H1V1731.15H-1ZM-1 1746.11V1756.09H1V1746.11H-1ZM-1 1761.08V1771.06H1V1761.08H-1ZM-1 1776.05V1786.02H1V1776.05H-1ZM-1 1791.01V1796H1V1791.01H-1ZM173 1796V1791.01H171V1796H173ZM173 1786.02V1776.04H171V1786.02H173ZM173 1771.06V1761.08H171V1771.06H173ZM173 1756.09V1746.11H171V1756.09H173ZM173 1741.12V1731.14H171V1741.12H173ZM173 1726.16V1716.18H171V1726.16H173ZM173 1711.19V1701.21H171V1711.19H173ZM173 1696.22V1686.24H171V1696.22H173ZM173 1681.26V1671.28H171V1681.26H173ZM173 1666.29V1656.31H171V1666.29H173ZM173 1651.32V1641.34H171V1651.32H173ZM173 1636.36V1626.38H171V1636.36H173ZM173 1621.39V1611.41H171V1621.39H173ZM173 1606.42V1596.44H171V1606.42H173ZM173 1591.46V1581.48H171V1591.46H173ZM173 1576.49V1566.51H171V1576.49H173ZM173 1561.52V1551.54H171V1561.52H173ZM173 1546.56V1536.58H171V1546.56H173ZM173 1531.59V1521.61H171V1531.59H173ZM173 1516.62V1506.64H171V1516.62H173ZM173 1501.66V1491.68H171V1501.66H173ZM173 1486.69V1476.71H171V1486.69H173ZM173 1471.72V1461.74H171V1471.72H173ZM173 1456.76V1446.78H171V1456.76H173ZM173 1441.79V1431.81H171V1441.79H173ZM173 1426.82V1416.84H171V1426.82H173ZM173 1411.86V1401.88H171V1411.86H173ZM173 1396.89V1386.91H171V1396.89H173ZM173 1381.92V1371.94H171V1381.92H173ZM173 1366.96V1356.98H171V1366.96H173ZM173 1351.99V1342.01H171V1351.99H173ZM173 1337.02V1327.04H171V1337.02H173ZM173 1322.06V1312.08H171V1322.06H173ZM173 1307.09V1297.11H171V1307.09H173ZM173 1292.12V1282.14H171V1292.12H173ZM173 1277.16V1267.18H171V1277.16H173ZM173 1262.19V1252.21H171V1262.19H173ZM173 1247.22V1237.24H171V1247.22H173ZM173 1232.26V1222.28H171V1232.26H173ZM173 1217.29V1207.31H171V1217.29H173ZM173 1202.32V1192.34H171V1202.32H173ZM173 1187.36V1177.38H171V1187.36H173ZM173 1172.39V1162.41H171V1172.39H173ZM173 1157.42V1147.44H171V1157.42H173ZM173 1142.46V1132.48H171V1142.46H173ZM173 1127.49V1117.51H171V1127.49H173ZM173 1112.52V1102.54H171V1112.52H173ZM173 1097.56V1087.58H171V1097.56H173ZM173 1082.59V1072.61H171V1082.59H173ZM173 1067.62V1057.64H171V1067.62H173ZM173 1052.66V1042.68H171V1052.66H173ZM173 1037.69V1027.71H171V1037.69H173ZM173 1022.72V1012.74H171V1022.72H173ZM173 1007.76V997.777H171V1007.76H173ZM173 992.789V982.811H171V992.789H173ZM173 977.822V967.844H171V977.822H173ZM173 962.855V952.877H171V962.855H173ZM173 947.889V937.911H171V947.889H173ZM173 932.922V922.944H171V932.922H173ZM173 917.955V907.977H171V917.955H173ZM173 902.989V893.011H171V902.989H173ZM173 888.022V878.044H171V888.022H173ZM173 873.055V863.077H171V873.055H173ZM173 858.088V848.111H171V858.088H173ZM173 843.122V833.144H171V843.122H173ZM173 828.155V818.177H171V828.155H173ZM173 813.188V803.211H171V813.188H173ZM173 798.222V788.244H171V798.222H173ZM173 783.255V773.277H171V783.255H173ZM173 768.288V758.311H171V768.288H173ZM173 753.322V743.344H171V753.322H173ZM173 738.355V728.377H171V738.355H173ZM173 723.388V713.411H171V723.388H173ZM173 708.422V698.444H171V708.422H173ZM173 693.455V683.477H171V693.455H173ZM173 678.488V668.511H171V678.488H173ZM173 663.522V653.544H171V663.522H173ZM173 648.555V638.577H171V648.555H173ZM173 633.588V623.611H171V633.588H173ZM173 618.622V608.644H171V618.622H173ZM173 603.655V593.677H171V603.655H173ZM173 588.688V578.711H171V588.688H173ZM173 573.722V563.744H171V573.722H173ZM173 558.755V548.777H171V558.755H173ZM173 543.788V533.811H171V543.788H173ZM173 528.822V518.844H171V528.822H173ZM173 513.855V503.877H171V513.855H173ZM173 498.888V488.911H171V498.888H173ZM173 483.922V473.944H171V483.922H173ZM173 468.955V458.977H171V468.955H173ZM173 453.988V444.01H171V453.988H173ZM173 439.022V429.044H171V439.022H173ZM173 424.055V414.077H171V424.055H173ZM173 409.088V399.11H171V409.088H173ZM173 394.122V384.144H171V394.122H173ZM173 379.155V369.177H171V379.155H173ZM173 364.188V354.21H171V364.188H173ZM173 349.222V339.244H171V349.222H173ZM173 334.255V324.277H171V334.255H173ZM173 319.288V309.31H171V319.288H173ZM173 304.322V294.344H171V304.322H173ZM173 289.355V279.377H171V289.355H173ZM173 274.388V264.41H171V274.388H173ZM173 259.422V249.444H171V259.422H173ZM173 244.455V234.477H171V244.455H173ZM173 229.488V219.51H171V229.488H173ZM173 214.521V204.544H171V214.521H173ZM173 199.555V189.577H171V199.555H173ZM173 184.588V174.61H171V184.588H173ZM173 169.621V159.644H171V169.621H173ZM173 154.655V144.677H171V154.655H173ZM173 139.688V129.71H171V139.688H173ZM173 124.721V114.744H171V124.721H173ZM173 109.755V99.777H171V109.755H173ZM173 94.7881V84.8103H171V94.7881H173ZM173 79.8214V69.8437H171V79.8214H173ZM173 64.8547V54.8769H171V64.8547H173ZM173 49.8881V39.9103H171V49.8881H173ZM173 34.9214V24.9436H171V34.9214H173ZM173 19.9548V9.97695H171V19.9548H173ZM173 4.98799V0H171V4.98799H173Z" fill="black" fill-opacity="0.1" mask="url(#path-1-inside-1_13273_101404)"/>
<mask id="path-3-inside-2_13273_101404" fill="white">
<path d="M1052 0H1224V1796H1052V0Z"/>
</mask>
<path d="M1051.5 0V4.98889H1052.5V0H1051.5ZM1051.5 9.97778V19.9556H1052.5V9.97778H1051.5ZM1051.5 24.9444V34.9222H1052.5V24.9444H1051.5ZM1051.5 39.9111V49.8889H1052.5V39.9111H1051.5ZM1051.5 54.8778V64.8556H1052.5V54.8778H1051.5ZM1051.5 69.8444V79.8222H1052.5V69.8444H1051.5ZM1051.5 84.8111V94.7889H1052.5V84.8111H1051.5ZM1051.5 99.7778V109.756H1052.5V99.7778H1051.5ZM1051.5 114.744V124.722H1052.5V114.744H1051.5ZM1051.5 129.711V139.689H1052.5V129.711H1051.5ZM1051.5 144.678V154.656H1052.5V144.678H1051.5ZM1051.5 159.644V169.622H1052.5V159.644H1051.5ZM1051.5 174.611V184.589H1052.5V174.611H1051.5ZM1051.5 189.578V199.556H1052.5V189.578H1051.5ZM1051.5 204.544V214.522H1052.5V204.544H1051.5ZM1051.5 219.511V229.489H1052.5V219.511H1051.5ZM1051.5 234.478V244.456H1052.5V234.478H1051.5ZM1051.5 249.445V259.422H1052.5V249.445H1051.5ZM1051.5 264.411V274.389H1052.5V264.411H1051.5ZM1051.5 279.378V289.356H1052.5V279.378H1051.5ZM1051.5 294.345V304.322H1052.5V294.345H1051.5ZM1051.5 309.311V319.289H1052.5V309.311H1051.5ZM1051.5 324.278V334.256H1052.5V324.278H1051.5ZM1051.5 339.245V349.222H1052.5V339.245H1051.5ZM1051.5 354.211V364.189H1052.5V354.211H1051.5ZM1051.5 369.178V379.156H1052.5V369.178H1051.5ZM1051.5 384.145V394.122H1052.5V384.145H1051.5ZM1051.5 399.111V409.089H1052.5V399.111H1051.5ZM1051.5 414.078V424.056H1052.5V414.078H1051.5ZM1051.5 429.045V439.022H1052.5V429.045H1051.5ZM1051.5 444.011V453.989H1052.5V444.011H1051.5ZM1051.5 458.978V468.956H1052.5V458.978H1051.5ZM1051.5 473.945V483.922H1052.5V473.945H1051.5ZM1051.5 488.911V498.889H1052.5V488.911H1051.5ZM1051.5 503.878V513.856H1052.5V503.878H1051.5ZM1051.5 518.845V528.822H1052.5V518.845H1051.5ZM1051.5 533.811V543.789H1052.5V533.811H1051.5ZM1051.5 548.778V558.756H1052.5V548.778H1051.5ZM1051.5 563.745V573.722H1052.5V563.745H1051.5ZM1051.5 578.711V588.689H1052.5V578.711H1051.5ZM1051.5 593.678V603.656H1052.5V593.678H1051.5ZM1051.5 608.645V618.622H1052.5V608.645H1051.5ZM1051.5 623.611V633.589H1052.5V623.611H1051.5ZM1051.5 638.578V648.556H1052.5V638.578H1051.5ZM1051.5 653.545V663.522H1052.5V653.545H1051.5ZM1051.5 668.511V678.489H1052.5V668.511H1051.5ZM1051.5 683.478V693.456H1052.5V683.478H1051.5ZM1051.5 698.445V708.422H1052.5V698.445H1051.5ZM1051.5 713.411V723.389H1052.5V713.411H1051.5ZM1051.5 728.378V738.356H1052.5V728.378H1051.5ZM1051.5 743.345V753.323H1052.5V743.345H1051.5ZM1051.5 758.311V768.289H1052.5V758.311H1051.5ZM1051.5 773.278V783.256H1052.5V773.278H1051.5ZM1051.5 788.245V798.223H1052.5V788.245H1051.5ZM1051.5 803.211V813.189H1052.5V803.211H1051.5ZM1051.5 818.178V828.156H1052.5V818.178H1051.5ZM1051.5 833.145V843.123H1052.5V833.145H1051.5ZM1051.5 848.111V858.089H1052.5V848.111H1051.5ZM1051.5 863.078V873.056H1052.5V863.078H1051.5ZM1051.5 878.045V888.023H1052.5V878.045H1051.5ZM1051.5 893.011V902.989H1052.5V893.011H1051.5ZM1051.5 907.978V917.956H1052.5V907.978H1051.5ZM1051.5 922.945V932.923H1052.5V922.945H1051.5ZM1051.5 937.912V947.889H1052.5V937.912H1051.5ZM1051.5 952.878V962.856H1052.5V952.878H1051.5ZM1051.5 967.845V977.823H1052.5V967.845H1051.5ZM1051.5 982.812V992.789H1052.5V982.812H1051.5ZM1051.5 997.778V1007.76H1052.5V997.778H1051.5ZM1051.5 1012.74V1022.72H1052.5V1012.74H1051.5ZM1051.5 1027.71V1037.69H1052.5V1027.71H1051.5ZM1051.5 1042.68V1052.66H1052.5V1042.68H1051.5ZM1051.5 1057.64V1067.62H1052.5V1057.64H1051.5ZM1051.5 1072.61V1082.59H1052.5V1072.61H1051.5ZM1051.5 1087.58V1097.56H1052.5V1087.58H1051.5ZM1051.5 1102.54V1112.52H1052.5V1102.54H1051.5ZM1051.5 1117.51V1127.49H1052.5V1117.51H1051.5ZM1051.5 1132.48V1142.46H1052.5V1132.48H1051.5ZM1051.5 1147.44V1157.42H1052.5V1147.44H1051.5ZM1051.5 1162.41V1172.39H1052.5V1162.41H1051.5ZM1051.5 1177.38V1187.36H1052.5V1177.38H1051.5ZM1051.5 1192.34V1202.32H1052.5V1192.34H1051.5ZM1051.5 1207.31V1217.29H1052.5V1207.31H1051.5ZM1051.5 1222.28V1232.26H1052.5V1222.28H1051.5ZM1051.5 1237.24V1247.22H1052.5V1237.24H1051.5ZM1051.5 1252.21V1262.19H1052.5V1252.21H1051.5ZM1051.5 1267.18V1277.16H1052.5V1267.18H1051.5ZM1051.5 1282.15V1292.12H1052.5V1282.15H1051.5ZM1051.5 1297.11V1307.09H1052.5V1297.11H1051.5ZM1051.5 1312.08V1322.06H1052.5V1312.08H1051.5ZM1051.5 1327.05V1337.02H1052.5V1327.05H1051.5ZM1051.5 1342.01V1351.99H1052.5V1342.01H1051.5ZM1051.5 1356.98V1366.96H1052.5V1356.98H1051.5ZM1051.5 1371.95V1381.92H1052.5V1371.95H1051.5ZM1051.5 1386.91V1396.89H1052.5V1386.91H1051.5ZM1051.5 1401.88V1411.86H1052.5V1401.88H1051.5ZM1051.5 1416.85V1426.82H1052.5V1416.85H1051.5ZM1051.5 1431.81V1441.79H1052.5V1431.81H1051.5ZM1051.5 1446.78V1456.76H1052.5V1446.78H1051.5ZM1051.5 1461.75V1471.72H1052.5V1461.75H1051.5ZM1051.5 1476.71V1486.69H1052.5V1476.71H1051.5ZM1051.5 1491.68V1501.66H1052.5V1491.68H1051.5ZM1051.5 1506.65V1516.62H1052.5V1506.65H1051.5ZM1051.5 1521.61V1531.59H1052.5V1521.61H1051.5ZM1051.5 1536.58V1546.56H1052.5V1536.58H1051.5ZM1051.5 1551.55V1561.52H1052.5V1551.55H1051.5ZM1051.5 1566.51V1576.49H1052.5V1566.51H1051.5ZM1051.5 1581.48V1591.46H1052.5V1581.48H1051.5ZM1051.5 1596.45V1606.42H1052.5V1596.45H1051.5ZM1051.5 1611.41V1621.39H1052.5V1611.41H1051.5ZM1051.5 1626.38V1636.36H1052.5V1626.38H1051.5ZM1051.5 1641.35V1651.32H1052.5V1641.35H1051.5ZM1051.5 1656.31V1666.29H1052.5V1656.31H1051.5ZM1051.5 1671.28V1681.26H1052.5V1671.28H1051.5ZM1051.5 1686.25V1696.22H1052.5V1686.25H1051.5ZM1051.5 1701.21V1711.19H1052.5V1701.21H1051.5ZM1051.5 1716.18V1726.16H1052.5V1716.18H1051.5ZM1051.5 1731.15V1741.12H1052.5V1731.15H1051.5ZM1051.5 1746.11V1756.09H1052.5V1746.11H1051.5ZM1051.5 1761.08V1771.06H1052.5V1761.08H1051.5ZM1051.5 1776.05V1786.02H1052.5V1776.05H1051.5ZM1051.5 1791.01V1796H1052.5V1791.01H1051.5ZM1224.5 1796V1791.01H1223.5V1796H1224.5ZM1224.5 1786.02V1776.04H1223.5V1786.02H1224.5ZM1224.5 1771.06V1761.08H1223.5V1771.06H1224.5ZM1224.5 1756.09V1746.11H1223.5V1756.09H1224.5ZM1224.5 1741.12V1731.14H1223.5V1741.12H1224.5ZM1224.5 1726.16V1716.18H1223.5V1726.16H1224.5ZM1224.5 1711.19V1701.21H1223.5V1711.19H1224.5ZM1224.5 1696.22V1686.24H1223.5V1696.22H1224.5ZM1224.5 1681.26V1671.28H1223.5V1681.26H1224.5ZM1224.5 1666.29V1656.31H1223.5V1666.29H1224.5ZM1224.5 1651.32V1641.34H1223.5V1651.32H1224.5ZM1224.5 1636.36V1626.38H1223.5V1636.36H1224.5ZM1224.5 1621.39V1611.41H1223.5V1621.39H1224.5ZM1224.5 1606.42V1596.44H1223.5V1606.42H1224.5ZM1224.5 1591.46V1581.48H1223.5V1591.46H1224.5ZM1224.5 1576.49V1566.51H1223.5V1576.49H1224.5ZM1224.5 1561.52V1551.54H1223.5V1561.52H1224.5ZM1224.5 1546.56V1536.58H1223.5V1546.56H1224.5ZM1224.5 1531.59V1521.61H1223.5V1531.59H1224.5ZM1224.5 1516.62V1506.64H1223.5V1516.62H1224.5ZM1224.5 1501.66V1491.68H1223.5V1501.66H1224.5ZM1224.5 1486.69V1476.71H1223.5V1486.69H1224.5ZM1224.5 1471.72V1461.74H1223.5V1471.72H1224.5ZM1224.5 1456.76V1446.78H1223.5V1456.76H1224.5ZM1224.5 1441.79V1431.81H1223.5V1441.79H1224.5ZM1224.5 1426.82V1416.84H1223.5V1426.82H1224.5ZM1224.5 1411.86V1401.88H1223.5V1411.86H1224.5ZM1224.5 1396.89V1386.91H1223.5V1396.89H1224.5ZM1224.5 1381.92V1371.94H1223.5V1381.92H1224.5ZM1224.5 1366.96V1356.98H1223.5V1366.96H1224.5ZM1224.5 1351.99V1342.01H1223.5V1351.99H1224.5ZM1224.5 1337.02V1327.04H1223.5V1337.02H1224.5ZM1224.5 1322.06V1312.08H1223.5V1322.06H1224.5ZM1224.5 1307.09V1297.11H1223.5V1307.09H1224.5ZM1224.5 1292.12V1282.14H1223.5V1292.12H1224.5ZM1224.5 1277.16V1267.18H1223.5V1277.16H1224.5ZM1224.5 1262.19V1252.21H1223.5V1262.19H1224.5ZM1224.5 1247.22V1237.24H1223.5V1247.22H1224.5ZM1224.5 1232.26V1222.28H1223.5V1232.26H1224.5ZM1224.5 1217.29V1207.31H1223.5V1217.29H1224.5ZM1224.5 1202.32V1192.34H1223.5V1202.32H1224.5ZM1224.5 1187.36V1177.38H1223.5V1187.36H1224.5ZM1224.5 1172.39V1162.41H1223.5V1172.39H1224.5ZM1224.5 1157.42V1147.44H1223.5V1157.42H1224.5ZM1224.5 1142.46V1132.48H1223.5V1142.46H1224.5ZM1224.5 1127.49V1117.51H1223.5V1127.49H1224.5ZM1224.5 1112.52V1102.54H1223.5V1112.52H1224.5ZM1224.5 1097.56V1087.58H1223.5V1097.56H1224.5ZM1224.5 1082.59V1072.61H1223.5V1082.59H1224.5ZM1224.5 1067.62V1057.64H1223.5V1067.62H1224.5ZM1224.5 1052.66V1042.68H1223.5V1052.66H1224.5ZM1224.5 1037.69V1027.71H1223.5V1037.69H1224.5ZM1224.5 1022.72V1012.74H1223.5V1022.72H1224.5ZM1224.5 1007.76V997.777H1223.5V1007.76H1224.5ZM1224.5 992.789V982.811H1223.5V992.789H1224.5ZM1224.5 977.822V967.844H1223.5V977.822H1224.5ZM1224.5 962.855V952.877H1223.5V962.855H1224.5ZM1224.5 947.889V937.911H1223.5V947.889H1224.5ZM1224.5 932.922V922.944H1223.5V932.922H1224.5ZM1224.5 917.955V907.977H1223.5V917.955H1224.5ZM1224.5 902.989V893.011H1223.5V902.989H1224.5ZM1224.5 888.022V878.044H1223.5V888.022H1224.5ZM1224.5 873.055V863.077H1223.5V873.055H1224.5ZM1224.5 858.088V848.111H1223.5V858.088H1224.5ZM1224.5 843.122V833.144H1223.5V843.122H1224.5ZM1224.5 828.155V818.177H1223.5V828.155H1224.5ZM1224.5 813.188V803.211H1223.5V813.188H1224.5ZM1224.5 798.222V788.244H1223.5V798.222H1224.5ZM1224.5 783.255V773.277H1223.5V783.255H1224.5ZM1224.5 768.288V758.311H1223.5V768.288H1224.5ZM1224.5 753.322V743.344H1223.5V753.322H1224.5ZM1224.5 738.355V728.377H1223.5V738.355H1224.5ZM1224.5 723.388V713.411H1223.5V723.388H1224.5ZM1224.5 708.422V698.444H1223.5V708.422H1224.5ZM1224.5 693.455V683.477H1223.5V693.455H1224.5ZM1224.5 678.488V668.511H1223.5V678.488H1224.5ZM1224.5 663.522V653.544H1223.5V663.522H1224.5ZM1224.5 648.555V638.577H1223.5V648.555H1224.5ZM1224.5 633.588V623.611H1223.5V633.588H1224.5ZM1224.5 618.622V608.644H1223.5V618.622H1224.5ZM1224.5 603.655V593.677H1223.5V603.655H1224.5ZM1224.5 588.688V578.711H1223.5V588.688H1224.5ZM1224.5 573.722V563.744H1223.5V573.722H1224.5ZM1224.5 558.755V548.777H1223.5V558.755H1224.5ZM1224.5 543.788V533.811H1223.5V543.788H1224.5ZM1224.5 528.822V518.844H1223.5V528.822H1224.5ZM1224.5 513.855V503.877H1223.5V513.855H1224.5ZM1224.5 498.888V488.911H1223.5V498.888H1224.5ZM1224.5 483.922V473.944H1223.5V483.922H1224.5ZM1224.5 468.955V458.977H1223.5V468.955H1224.5ZM1224.5 453.988V444.01H1223.5V453.988H1224.5ZM1224.5 439.022V429.044H1223.5V439.022H1224.5ZM1224.5 424.055V414.077H1223.5V424.055H1224.5ZM1224.5 409.088V399.11H1223.5V409.088H1224.5ZM1224.5 394.122V384.144H1223.5V394.122H1224.5ZM1224.5 379.155V369.177H1223.5V379.155H1224.5ZM1224.5 364.188V354.21H1223.5V364.188H1224.5ZM1224.5 349.222V339.244H1223.5V349.222H1224.5ZM1224.5 334.255V324.277H1223.5V334.255H1224.5ZM1224.5 319.288V309.31H1223.5V319.288H1224.5ZM1224.5 304.322V294.344H1223.5V304.322H1224.5ZM1224.5 289.355V279.377H1223.5V289.355H1224.5ZM1224.5 274.388V264.41H1223.5V274.388H1224.5ZM1224.5 259.422V249.444H1223.5V259.422H1224.5ZM1224.5 244.455V234.477H1223.5V244.455H1224.5ZM1224.5 229.488V219.51H1223.5V229.488H1224.5ZM1224.5 214.521V204.544H1223.5V214.521H1224.5ZM1224.5 199.555V189.577H1223.5V199.555H1224.5ZM1224.5 184.588V174.61H1223.5V184.588H1224.5ZM1224.5 169.621V159.644H1223.5V169.621H1224.5ZM1224.5 154.655V144.677H1223.5V154.655H1224.5ZM1224.5 139.688V129.71H1223.5V139.688H1224.5ZM1224.5 124.721V114.744H1223.5V124.721H1224.5ZM1224.5 109.755V99.777H1223.5V109.755H1224.5ZM1224.5 94.7881V84.8103H1223.5V94.7881H1224.5ZM1224.5 79.8214V69.8437H1223.5V79.8214H1224.5ZM1224.5 64.8547V54.8769H1223.5V64.8547H1224.5ZM1224.5 49.8881V39.9103H1223.5V49.8881H1224.5ZM1224.5 34.9214V24.9436H1223.5V34.9214H1224.5ZM1224.5 19.9548V9.97695H1223.5V19.9548H1224.5ZM1224.5 4.98799V0H1223.5V4.98799H1224.5ZM1051 0V4.98889H1053V0H1051ZM1051 9.97778V19.9556H1053V9.97778H1051ZM1051 24.9444V34.9222H1053V24.9444H1051ZM1051 39.9111V49.8889H1053V39.9111H1051ZM1051 54.8778V64.8556H1053V54.8778H1051ZM1051 69.8444V79.8222H1053V69.8444H1051ZM1051 84.8111V94.7889H1053V84.8111H1051ZM1051 99.7778V109.756H1053V99.7778H1051ZM1051 114.744V124.722H1053V114.744H1051ZM1051 129.711V139.689H1053V129.711H1051ZM1051 144.678V154.656H1053V144.678H1051ZM1051 159.644V169.622H1053V159.644H1051ZM1051 174.611V184.589H1053V174.611H1051ZM1051 189.578V199.556H1053V189.578H1051ZM1051 204.544V214.522H1053V204.544H1051ZM1051 219.511V229.489H1053V219.511H1051ZM1051 234.478V244.456H1053V234.478H1051ZM1051 249.445V259.422H1053V249.445H1051ZM1051 264.411V274.389H1053V264.411H1051ZM1051 279.378V289.356H1053V279.378H1051ZM1051 294.345V304.322H1053V294.345H1051ZM1051 309.311V319.289H1053V309.311H1051ZM1051 324.278V334.256H1053V324.278H1051ZM1051 339.245V349.222H1053V339.245H1051ZM1051 354.211V364.189H1053V354.211H1051ZM1051 369.178V379.156H1053V369.178H1051ZM1051 384.145V394.122H1053V384.145H1051ZM1051 399.111V409.089H1053V399.111H1051ZM1051 414.078V424.056H1053V414.078H1051ZM1051 429.045V439.022H1053V429.045H1051ZM1051 444.011V453.989H1053V444.011H1051ZM1051 458.978V468.956H1053V458.978H1051ZM1051 473.945V483.922H1053V473.945H1051ZM1051 488.911V498.889H1053V488.911H1051ZM1051 503.878V513.856H1053V503.878H1051ZM1051 518.845V528.822H1053V518.845H1051ZM1051 533.811V543.789H1053V533.811H1051ZM1051 548.778V558.756H1053V548.778H1051ZM1051 563.745V573.722H1053V563.745H1051ZM1051 578.711V588.689H1053V578.711H1051ZM1051 593.678V603.656H1053V593.678H1051ZM1051 608.645V618.622H1053V608.645H1051ZM1051 623.611V633.589H1053V623.611H1051ZM1051 638.578V648.556H1053V638.578H1051ZM1051 653.545V663.522H1053V653.545H1051ZM1051 668.511V678.489H1053V668.511H1051ZM1051 683.478V693.456H1053V683.478H1051ZM1051 698.445V708.422H1053V698.445H1051ZM1051 713.411V723.389H1053V713.411H1051ZM1051 728.378V738.356H1053V728.378H1051ZM1051 743.345V753.323H1053V743.345H1051ZM1051 758.311V768.289H1053V758.311H1051ZM1051 773.278V783.256H1053V773.278H1051ZM1051 788.245V798.223H1053V788.245H1051ZM1051 803.211V813.189H1053V803.211H1051ZM1051 818.178V828.156H1053V818.178H1051ZM1051 833.145V843.123H1053V833.145H1051ZM1051 848.111V858.089H1053V848.111H1051ZM1051 863.078V873.056H1053V863.078H1051ZM1051 878.045V888.023H1053V878.045H1051ZM1051 893.011V902.989H1053V893.011H1051ZM1051 907.978V917.956H1053V907.978H1051ZM1051 922.945V932.923H1053V922.945H1051ZM1051 937.912V947.889H1053V937.912H1051ZM1051 952.878V962.856H1053V952.878H1051ZM1051 967.845V977.823H1053V967.845H1051ZM1051 982.812V992.789H1053V982.812H1051ZM1051 997.778V1007.76H1053V997.778H1051ZM1051 1012.74V1022.72H1053V1012.74H1051ZM1051 1027.71V1037.69H1053V1027.71H1051ZM1051 1042.68V1052.66H1053V1042.68H1051ZM1051 1057.64V1067.62H1053V1057.64H1051ZM1051 1072.61V1082.59H1053V1072.61H1051ZM1051 1087.58V1097.56H1053V1087.58H1051ZM1051 1102.54V1112.52H1053V1102.54H1051ZM1051 1117.51V1127.49H1053V1117.51H1051ZM1051 1132.48V1142.46H1053V1132.48H1051ZM1051 1147.44V1157.42H1053V1147.44H1051ZM1051 1162.41V1172.39H1053V1162.41H1051ZM1051 1177.38V1187.36H1053V1177.38H1051ZM1051 1192.34V1202.32H1053V1192.34H1051ZM1051 1207.31V1217.29H1053V1207.31H1051ZM1051 1222.28V1232.26H1053V1222.28H1051ZM1051 1237.24V1247.22H1053V1237.24H1051ZM1051 1252.21V1262.19H1053V1252.21H1051ZM1051 1267.18V1277.16H1053V1267.18H1051ZM1051 1282.15V1292.12H1053V1282.15H1051ZM1051 1297.11V1307.09H1053V1297.11H1051ZM1051 1312.08V1322.06H1053V1312.08H1051ZM1051 1327.05V1337.02H1053V1327.05H1051ZM1051 1342.01V1351.99H1053V1342.01H1051ZM1051 1356.98V1366.96H1053V1356.98H1051ZM1051 1371.95V1381.92H1053V1371.95H1051ZM1051 1386.91V1396.89H1053V1386.91H1051ZM1051 1401.88V1411.86H1053V1401.88H1051ZM1051 1416.85V1426.82H1053V1416.85H1051ZM1051 1431.81V1441.79H1053V1431.81H1051ZM1051 1446.78V1456.76H1053V1446.78H1051ZM1051 1461.75V1471.72H1053V1461.75H1051ZM1051 1476.71V1486.69H1053V1476.71H1051ZM1051 1491.68V1501.66H1053V1491.68H1051ZM1051 1506.65V1516.62H1053V1506.65H1051ZM1051 1521.61V1531.59H1053V1521.61H1051ZM1051 1536.58V1546.56H1053V1536.58H1051ZM1051 1551.55V1561.52H1053V1551.55H1051ZM1051 1566.51V1576.49H1053V1566.51H1051ZM1051 1581.48V1591.46H1053V1581.48H1051ZM1051 1596.45V1606.42H1053V1596.45H1051ZM1051 1611.41V1621.39H1053V1611.41H1051ZM1051 1626.38V1636.36H1053V1626.38H1051ZM1051 1641.35V1651.32H1053V1641.35H1051ZM1051 1656.31V1666.29H1053V1656.31H1051ZM1051 1671.28V1681.26H1053V1671.28H1051ZM1051 1686.25V1696.22H1053V1686.25H1051ZM1051 1701.21V1711.19H1053V1701.21H1051ZM1051 1716.18V1726.16H1053V1716.18H1051ZM1051 1731.15V1741.12H1053V1731.15H1051ZM1051 1746.11V1756.09H1053V1746.11H1051ZM1051 1761.08V1771.06H1053V1761.08H1051ZM1051 1776.05V1786.02H1053V1776.05H1051ZM1051 1791.01V1796H1053V1791.01H1051ZM1225 1796V1791.01H1223V1796H1225ZM1225 1786.02V1776.04H1223V1786.02H1225ZM1225 1771.06V1761.08H1223V1771.06H1225ZM1225 1756.09V1746.11H1223V1756.09H1225ZM1225 1741.12V1731.14H1223V1741.12H1225ZM1225 1726.16V1716.18H1223V1726.16H1225ZM1225 1711.19V1701.21H1223V1711.19H1225ZM1225 1696.22V1686.24H1223V1696.22H1225ZM1225 1681.26V1671.28H1223V1681.26H1225ZM1225 1666.29V1656.31H1223V1666.29H1225ZM1225 1651.32V1641.34H1223V1651.32H1225ZM1225 1636.36V1626.38H1223V1636.36H1225ZM1225 1621.39V1611.41H1223V1621.39H1225ZM1225 1606.42V1596.44H1223V1606.42H1225ZM1225 1591.46V1581.48H1223V1591.46H1225ZM1225 1576.49V1566.51H1223V1576.49H1225ZM1225 1561.52V1551.54H1223V1561.52H1225ZM1225 1546.56V1536.58H1223V1546.56H1225ZM1225 1531.59V1521.61H1223V1531.59H1225ZM1225 1516.62V1506.64H1223V1516.62H1225ZM1225 1501.66V1491.68H1223V1501.66H1225ZM1225 1486.69V1476.71H1223V1486.69H1225ZM1225 1471.72V1461.74H1223V1471.72H1225ZM1225 1456.76V1446.78H1223V1456.76H1225ZM1225 1441.79V1431.81H1223V1441.79H1225ZM1225 1426.82V1416.84H1223V1426.82H1225ZM1225 1411.86V1401.88H1223V1411.86H1225ZM1225 1396.89V1386.91H1223V1396.89H1225ZM1225 1381.92V1371.94H1223V1381.92H1225ZM1225 1366.96V1356.98H1223V1366.96H1225ZM1225 1351.99V1342.01H1223V1351.99H1225ZM1225 1337.02V1327.04H1223V1337.02H1225ZM1225 1322.06V1312.08H1223V1322.06H1225ZM1225 1307.09V1297.11H1223V1307.09H1225ZM1225 1292.12V1282.14H1223V1292.12H1225ZM1225 1277.16V1267.18H1223V1277.16H1225ZM1225 1262.19V1252.21H1223V1262.19H1225ZM1225 1247.22V1237.24H1223V1247.22H1225ZM1225 1232.26V1222.28H1223V1232.26H1225ZM1225 1217.29V1207.31H1223V1217.29H1225ZM1225 1202.32V1192.34H1223V1202.32H1225ZM1225 1187.36V1177.38H1223V1187.36H1225ZM1225 1172.39V1162.41H1223V1172.39H1225ZM1225 1157.42V1147.44H1223V1157.42H1225ZM1225 1142.46V1132.48H1223V1142.46H1225ZM1225 1127.49V1117.51H1223V1127.49H1225ZM1225 1112.52V1102.54H1223V1112.52H1225ZM1225 1097.56V1087.58H1223V1097.56H1225ZM1225 1082.59V1072.61H1223V1082.59H1225ZM1225 1067.62V1057.64H1223V1067.62H1225ZM1225 1052.66V1042.68H1223V1052.66H1225ZM1225 1037.69V1027.71H1223V1037.69H1225ZM1225 1022.72V1012.74H1223V1022.72H1225ZM1225 1007.76V997.777H1223V1007.76H1225ZM1225 992.789V982.811H1223V992.789H1225ZM1225 977.822V967.844H1223V977.822H1225ZM1225 962.855V952.877H1223V962.855H1225ZM1225 947.889V937.911H1223V947.889H1225ZM1225 932.922V922.944H1223V932.922H1225ZM1225 917.955V907.977H1223V917.955H1225ZM1225 902.989V893.011H1223V902.989H1225ZM1225 888.022V878.044H1223V888.022H1225ZM1225 873.055V863.077H1223V873.055H1225ZM1225 858.088V848.111H1223V858.088H1225ZM1225 843.122V833.144H1223V843.122H1225ZM1225 828.155V818.177H1223V828.155H1225ZM1225 813.188V803.211H1223V813.188H1225ZM1225 798.222V788.244H1223V798.222H1225ZM1225 783.255V773.277H1223V783.255H1225ZM1225 768.288V758.311H1223V768.288H1225ZM1225 753.322V743.344H1223V753.322H1225ZM1225 738.355V728.377H1223V738.355H1225ZM1225 723.388V713.411H1223V723.388H1225ZM1225 708.422V698.444H1223V708.422H1225ZM1225 693.455V683.477H1223V693.455H1225ZM1225 678.488V668.511H1223V678.488H1225ZM1225 663.522V653.544H1223V663.522H1225ZM1225 648.555V638.577H1223V648.555H1225ZM1225 633.588V623.611H1223V633.588H1225ZM1225 618.622V608.644H1223V618.622H1225ZM1225 603.655V593.677H1223V603.655H1225ZM1225 588.688V578.711H1223V588.688H1225ZM1225 573.722V563.744H1223V573.722H1225ZM1225 558.755V548.777H1223V558.755H1225ZM1225 543.788V533.811H1223V543.788H1225ZM1225 528.822V518.844H1223V528.822H1225ZM1225 513.855V503.877H1223V513.855H1225ZM1225 498.888V488.911H1223V498.888H1225ZM1225 483.922V473.944H1223V483.922H1225ZM1225 468.955V458.977H1223V468.955H1225ZM1225 453.988V444.01H1223V453.988H1225ZM1225 439.022V429.044H1223V439.022H1225ZM1225 424.055V414.077H1223V424.055H1225ZM1225 409.088V399.11H1223V409.088H1225ZM1225 394.122V384.144H1223V394.122H1225ZM1225 379.155V369.177H1223V379.155H1225ZM1225 364.188V354.21H1223V364.188H1225ZM1225 349.222V339.244H1223V349.222H1225ZM1225 334.255V324.277H1223V334.255H1225ZM1225 319.288V309.31H1223V319.288H1225ZM1225 304.322V294.344H1223V304.322H1225ZM1225 289.355V279.377H1223V289.355H1225ZM1225 274.388V264.41H1223V274.388H1225ZM1225 259.422V249.444H1223V259.422H1225ZM1225 244.455V234.477H1223V244.455H1225ZM1225 229.488V219.51H1223V229.488H1225ZM1225 214.521V204.544H1223V214.521H1225ZM1225 199.555V189.577H1223V199.555H1225ZM1225 184.588V174.61H1223V184.588H1225ZM1225 169.621V159.644H1223V169.621H1225ZM1225 154.655V144.677H1223V154.655H1225ZM1225 139.688V129.71H1223V139.688H1225ZM1225 124.721V114.744H1223V124.721H1225ZM1225 109.755V99.777H1223V109.755H1225ZM1225 94.7881V84.8103H1223V94.7881H1225ZM1225 79.8214V69.8437H1223V79.8214H1225ZM1225 64.8547V54.8769H1223V64.8547H1225ZM1225 49.8881V39.9103H1223V49.8881H1225ZM1225 34.9214V24.9436H1223V34.9214H1225ZM1225 19.9548V9.97695H1223V19.9548H1225ZM1225 4.98799V0H1223V4.98799H1225Z" fill="black" fill-opacity="0.1" mask="url(#path-3-inside-2_13273_101404)"/>
</g>
<defs>
<clipPath id="clip0_13273_101404">
<rect width="1224" height="1796" fill="white"/>
</clipPath>
</defs>
</svg>
