<svg width="115" height="23" viewBox="0 0 115 23" fill="none" xmlns="http://www.w3.org/2000/svg">
<g id="Components">
<g id="b7b5bb2d-c6f5-4e44-a757-79aa302f303c_1">
<path id="Vector" d="M39.1974 6.49148C38.6686 5.80601 37.9733 5.22826 37.092 4.76802C36.2107 4.30777 35.1825 4.07275 34.0074 4.07275C32.705 4.07275 31.5103 4.3959 30.4332 5.0422C29.356 5.6885 28.504 6.58941 27.8773 7.74491C27.2506 8.90042 26.9373 10.242 26.9373 11.7402C26.9373 13.2483 27.2506 14.5898 27.8773 15.7747C28.504 16.9596 29.3462 17.8899 30.4234 18.546C31.4907 19.2118 32.6756 19.535 33.9584 19.535C35.1139 19.535 36.1519 19.3 37.0626 18.8299C37.9733 18.3599 38.6882 17.7724 39.2072 17.0575V19.2902H42.331V4.30777H39.2072L39.1974 6.49148ZM38.5609 14.5017C38.13 15.2753 37.5816 15.853 36.8864 16.2545C36.2009 16.656 35.4567 16.8519 34.6537 16.8519C33.8703 16.8519 33.1359 16.6462 32.4406 16.2447C31.7453 15.8335 31.1774 15.2459 30.7563 14.4625C30.3254 13.6791 30.1198 12.7782 30.1198 11.7402C30.1198 10.7022 30.3352 9.81112 30.7563 9.0571C31.1774 8.30308 31.7355 7.73512 32.4308 7.34342C33.1163 6.95173 33.8605 6.75588 34.6635 6.75588C35.4567 6.75588 36.2009 6.95173 36.8962 7.35322C37.5816 7.75471 38.1398 8.33246 38.5707 9.09627C38.9917 9.86008 39.2072 10.7512 39.2072 11.7892C39.1974 12.8272 38.982 13.7281 38.5609 14.5017Z" fill="#F0F5FC"/>
<path id="Vector_2" d="M53.514 11.4759C52.8187 11.1723 51.9276 10.8785 50.8309 10.5945C50.0181 10.3595 49.4012 10.1637 48.9801 10.007C48.559 9.85031 48.2065 9.64467 47.9225 9.37048C47.6288 9.0963 47.4917 8.76335 47.4917 8.36186C47.4917 7.85266 47.7071 7.45117 48.1478 7.13781C48.5786 6.83425 49.2053 6.67757 50.0279 6.67757C50.8603 6.67757 51.5261 6.87342 52.0158 7.2749C52.5054 7.67639 52.7796 8.20519 52.8285 8.88086H55.9327C55.8642 7.39241 55.306 6.21732 54.2582 5.35559C53.2202 4.49386 51.8395 4.06299 50.1356 4.06299C48.9899 4.06299 47.9813 4.24904 47.1 4.63095C46.2187 5.01285 45.543 5.53185 45.0729 6.19774C44.6029 6.86362 44.3679 7.58826 44.3679 8.39124C44.3679 9.37048 44.6225 10.1539 45.1415 10.761C45.6605 11.3583 46.2676 11.799 46.9727 12.0928C47.6777 12.3866 48.5982 12.6803 49.7145 12.9937C50.8701 13.3168 51.722 13.6204 52.2606 13.8946C52.7992 14.1688 53.0636 14.5801 53.0636 15.148C53.0636 15.6768 52.8187 16.1077 52.3389 16.4406C51.8591 16.7736 51.1834 16.94 50.3119 16.94C49.4795 16.94 48.7843 16.7246 48.2359 16.3035C47.6875 15.8824 47.384 15.3439 47.3252 14.7171H44.1133C44.1525 15.6278 44.4364 16.4406 44.9848 17.175C45.5332 17.9095 46.2676 18.4872 47.1979 18.9181C48.1282 19.3392 49.1858 19.5546 50.3608 19.5546C51.5164 19.5546 52.5348 19.3686 53.3965 18.9866C54.2582 18.6047 54.9241 18.0759 55.3942 17.4101C55.8642 16.7442 56.0992 15.9804 56.0992 15.1284C56.0796 14.1688 55.8152 13.3952 55.306 12.8174C54.8164 12.2201 54.2093 11.7794 53.514 11.4759Z" fill="#F0F5FC"/>
<path id="Vector_3" d="M61.9843 0.586426H58.8606V4.30755H57.0881V6.83399H58.8606V15.1282C58.8606 16.597 59.2327 17.6546 59.9769 18.3107C60.7211 18.9668 61.7885 19.29 63.1888 19.29H65.6369V16.7048H63.7372C63.1007 16.7048 62.6502 16.5873 62.3956 16.3424C62.1312 16.0976 62.0039 15.6961 62.0039 15.1282V6.83399H65.6467V4.30755H62.0039V0.586426H61.9843Z" fill="#F0F5FC"/>
<path id="Vector_4" d="M70.4941 6.49148V4.31756H67.3899V19.3H70.4941V11.4171C70.4941 9.88946 70.8074 8.82208 71.4342 8.20516C72.0609 7.58824 72.9814 7.28467 74.1956 7.28467H74.9888V4.07275C73.9508 4.07275 73.0597 4.28819 72.3057 4.70926C71.5517 5.13034 70.9543 5.72767 70.4941 6.49148Z" fill="#F0F5FC"/>
<path id="Vector_5" d="M87.8365 4.31756V6.49148C87.3077 5.80601 86.6125 5.22826 85.7312 4.76802C84.8498 4.30777 83.8216 4.07275 82.6465 4.07275C81.3442 4.07275 80.1495 4.3959 79.0723 5.0422C77.9951 5.6885 77.1432 6.58941 76.5165 7.74491C75.8898 8.90042 75.5764 10.242 75.5764 11.7402C75.5764 13.2483 75.8898 14.5898 76.5165 15.7747C77.1432 16.9596 77.9854 17.8899 79.0625 18.546C80.1299 19.2118 81.3148 19.535 82.5976 19.535C83.7531 19.535 84.7911 19.3 85.7018 18.8299C86.6125 18.3599 87.3273 17.7724 87.8463 17.0575V19.2902H90.9701V4.30777L87.8365 4.31756ZM87.2 14.5017C86.7692 15.2753 86.2208 15.853 85.5255 16.2545C84.8401 16.656 84.0958 16.8519 83.2929 16.8519C82.5095 16.8519 81.775 16.6462 81.0798 16.2447C80.3845 15.8335 79.8165 15.2459 79.3955 14.4625C78.9646 13.6791 78.759 12.7782 78.759 11.7402C78.759 10.7022 78.9744 9.81112 79.3955 9.0571C79.8165 8.30308 80.3747 7.73512 81.07 7.34342C81.7554 6.95173 82.4997 6.75588 83.3026 6.75588C84.0958 6.75588 84.8401 6.95173 85.5353 7.35322C86.2208 7.75471 86.779 8.33246 87.2098 9.09627C87.6309 9.86008 87.8463 10.7512 87.8463 11.7892C87.8365 12.8272 87.6309 13.7281 87.2 14.5017Z" fill="#F0F5FC"/>
<path id="Vector_6" d="M21.953 14.4425C21.4829 13.5612 20.8464 12.7191 20.0728 11.9455C19.9749 11.8475 19.8672 11.7496 19.7595 11.6517C19.7105 12.3078 19.6126 12.9443 19.4853 13.5808C19.3874 14.0606 19.2699 14.5111 19.123 14.9615C19.2992 15.2064 19.4559 15.4512 19.5832 15.696C19.9259 16.3423 20.4156 17.5761 19.8574 18.5456C19.1426 19.7892 16.6749 20.1907 13.9134 19.0939C13.7959 19.045 12.846 18.6043 12.4739 18.3987C12.092 18.1832 11.7395 17.9384 11.3967 17.6838C11.0442 17.4194 10.7015 17.1257 10.3979 16.8319C9.78099 16.2346 9.28158 15.5785 8.92905 14.9224C8.743 14.5894 8.56673 14.2271 8.41984 13.8158C8.224 13.9137 8.02815 14.0117 7.84209 14.1194C7.46019 14.3348 7.10766 14.5796 6.7943 14.8342C6.57887 15.0105 6.36344 15.1868 6.16759 15.3826L6.15779 15.3924C6.2753 15.6666 6.4124 15.931 6.54949 16.1758C7.10766 17.2138 7.90085 18.2126 8.88009 19.0842C6.11862 20.1809 3.65093 19.7794 2.93609 18.5358C2.37792 17.5663 2.86754 16.3325 3.21027 15.6862C3.55301 15.0399 4.05242 14.3936 4.65955 13.806C4.90436 13.571 5.16876 13.336 5.44295 13.1206C5.85423 12.7974 6.29489 12.4938 6.76492 12.2197C7.14683 12.0042 7.52873 11.8084 7.92043 11.6419C9.07594 11.1425 10.2608 10.8781 11.3184 10.8781H11.4751C12.1899 10.8781 12.9537 10.9956 13.7273 11.2306C14.1092 11.3481 14.5009 11.4852 14.8828 11.6517C14.8437 12.014 14.7849 12.3568 14.7066 12.6897C14.5303 13.4829 14.2561 14.1977 13.933 14.7853C13.933 14.7951 13.9232 14.8049 13.9232 14.8049C13.7078 15.2455 13.4042 15.7058 13.0223 16.1562C13.1986 16.2737 13.3846 16.3912 13.5707 16.499C13.8644 16.6654 14.736 17.0669 14.736 17.0669C15.0004 17.1746 15.5096 17.3215 15.5194 17.3313C15.7935 16.9592 16.0286 16.5773 16.2342 16.1954C16.7336 15.3043 17.1155 14.2663 17.3603 13.1304C17.5464 12.2588 17.6443 11.3188 17.6443 10.3395V10.0555C17.5464 5.0516 14.8437 1.18359 11.4065 1.18359C8.6059 1.18359 6.29489 3.759 5.48212 7.41158C6.06966 7.1276 6.67679 6.89258 7.28392 6.68694C7.74417 6.53026 8.20441 6.41275 8.66466 6.30503C9.35992 4.77741 10.4175 3.85693 11.4065 3.85693C12.846 3.85693 14.4226 5.80562 14.8535 8.75314C13.6882 8.37124 12.5131 8.17539 11.4065 8.18518C10.3685 8.20476 9.04656 8.40061 7.9596 8.75314C7.10766 9.03712 6.24593 9.41903 5.42336 9.88906C5.33523 9.93802 5.2471 9.98699 5.16876 10.0457C3.26903 11.2012 1.73162 12.7485 0.840506 14.4327C-0.197491 16.3912 -0.275831 18.3301 0.61528 19.8773C1.58473 21.5518 3.50405 22.4136 5.77589 22.4136C7.52873 22.4136 9.49701 21.8946 11.4065 20.8468C13.3161 21.8946 15.2745 22.4136 17.0372 22.4136C19.309 22.4136 21.2283 21.5518 22.1978 19.8773C23.0791 18.34 23.0008 16.401 21.953 14.4425Z" fill="#FDB300"/>
<path id="Vector_7" d="M109.84 2.13379H99.0976C96.7474 2.13379 94.8379 4.0531 94.8379 6.41308V17.2043C94.8379 19.5643 96.7474 21.4836 99.0976 21.4836H109.84C112.19 21.4836 114.1 19.5643 114.1 17.2043V6.41308C114.1 4.0531 112.19 2.13379 109.84 2.13379ZM112.641 17.2043C112.641 18.7515 111.387 20.0148 109.84 20.0148H99.0976C97.5602 20.0148 96.297 18.7613 96.297 17.2043V6.41308C96.297 4.86588 97.5504 3.60265 99.0976 3.60265H109.84C111.377 3.60265 112.641 4.85608 112.641 6.41308V17.2043Z" fill="#FDB300"/>
<path id="Vector_8" d="M101.722 7.43115L98.6179 16.1268H100.43L100.997 14.4719H104.435L105.003 16.1268H106.834L103.73 7.43115H101.722ZM101.477 13.0814L102.721 9.44839L103.965 13.0814H101.477Z" fill="#F0F5FC"/>
<path id="Vector_9" d="M109.311 7.44092H107.578V16.1268H109.311V7.44092Z" fill="#F0F5FC"/>
</g>
</g>
</svg>
