<svg width="376" height="283" viewBox="0 0 376 283" fill="none" xmlns="http://www.w3.org/2000/svg">
<rect width="376" height="283" fill="#F3F3F3"/>
<rect x="0.5" y="0.5" width="375" height="282" stroke="#DDDDDD" stroke-opacity="0.25"/>
<g clip-path="url(#clip0_13589_70684)">
<g filter="url(#filter0_d_13589_70684)">
<path d="M346.293 69.5588H29.7065V212.597H346.293V69.5588Z" fill="#3C3F53"/>
<path d="M345.869 69.9854H30.1309V212.171H345.869V69.9854Z" stroke="white" stroke-opacity="0.05"/>
<path d="M54.8513 79.6663H44.7934C42.0159 79.6663 39.7644 81.9289 39.7644 84.72V94.8275C39.7644 97.6186 42.0159 99.8812 44.7934 99.8812H54.8513C57.6287 99.8812 59.8802 97.6186 59.8802 94.8275V84.72C59.8802 81.9289 57.6287 79.6663 54.8513 79.6663Z" fill="#3C50E0"/>
<path d="M55.574 90.6636C55.3108 90.168 54.9545 89.6943 54.5216 89.2592C54.4668 89.2041 54.4065 89.149 54.3462 89.0939C54.3188 89.4629 54.264 89.8209 54.1927 90.179C54.1379 90.4489 54.0722 90.7022 53.9899 90.9556C54.0886 91.0933 54.1763 91.231 54.2475 91.3687C54.4393 91.7322 54.7134 92.4262 54.401 92.9715C54.0009 93.671 52.6197 93.8968 51.0741 93.2799C51.0083 93.2524 50.4767 93.0045 50.2684 92.8889C50.0547 92.7677 49.8573 92.63 49.6655 92.4868C49.4682 92.338 49.2763 92.1728 49.1064 92.0076C48.7611 91.6716 48.4816 91.3026 48.2843 90.9336C48.1802 90.7463 48.0815 90.5425 47.9993 90.3112C47.8896 90.3662 47.7801 90.4213 47.6759 90.4819C47.4622 90.6031 47.2649 90.7407 47.0894 90.8839C46.9689 90.9831 46.8483 91.0822 46.7387 91.1924L46.7332 91.1979C46.799 91.3521 46.8757 91.5009 46.9524 91.6385C47.2649 92.2224 47.7088 92.7842 48.2569 93.2744C46.7113 93.8913 45.3301 93.6655 44.93 92.966C44.6176 92.4207 44.8917 91.7267 45.0835 91.3632C45.2753 90.9997 45.5548 90.6362 45.8946 90.3056C46.0316 90.1734 46.1796 90.0412 46.3331 89.9201C46.5633 89.7384 46.8099 89.5676 47.073 89.4134C47.2868 89.2922 47.5006 89.1821 47.7198 89.0884C48.3666 88.8075 49.0297 88.6588 49.6216 88.6588H49.7094C50.1095 88.6588 50.537 88.7249 50.97 88.8571C51.1837 88.9232 51.4029 89.0003 51.6167 89.0939C51.5948 89.2977 51.5619 89.4905 51.5181 89.6777C51.4194 90.1239 51.2659 90.526 51.085 90.8565C51.085 90.8619 51.0796 90.8675 51.0796 90.8675C50.959 91.1153 50.7891 91.3742 50.5754 91.6275C50.674 91.6936 50.7781 91.7597 50.8823 91.8203C51.0467 91.914 51.5345 92.1398 51.5345 92.1398C51.6825 92.2004 51.9675 92.283 51.9729 92.2885C52.1264 92.0792 52.2579 91.8644 52.373 91.6495C52.6526 91.1483 52.8663 90.5645 53.0034 89.9256C53.1076 89.4354 53.1623 88.9067 53.1623 88.3558V88.1962C53.1076 85.3815 51.5948 83.2059 49.671 83.2059C48.1034 83.2059 46.8099 84.6545 46.355 86.709C46.6839 86.5492 47.0237 86.4171 47.3635 86.3014C47.6211 86.2132 47.8787 86.1471 48.1363 86.0866C48.5254 85.2273 49.1174 84.7096 49.671 84.7096C50.4767 84.7096 51.3591 85.8057 51.6002 87.4636C50.9481 87.2488 50.2904 87.1386 49.671 87.1441C49.09 87.1551 48.3501 87.2652 47.7417 87.4636C47.2649 87.6233 46.7825 87.8381 46.3222 88.1025C46.2728 88.13 46.2234 88.1576 46.1796 88.1906C45.1163 88.8405 44.2558 89.7108 43.757 90.6582C43.1761 91.7597 43.1323 92.8503 43.631 93.7206C44.1736 94.6624 45.2479 95.1471 46.5195 95.1471C47.5006 95.1471 48.6022 94.8551 49.671 94.2659C50.7398 94.8551 51.8359 95.1471 52.8225 95.1471C54.0941 95.1471 55.1683 94.6624 55.7109 93.7206C56.2042 92.8559 56.1604 91.7653 55.574 90.6636Z" fill="white"/>
<path d="M71.2317 90.9098C68.9384 90.9098 67.0728 89.2739 67.0728 86.7782C67.0728 84.2824 68.9384 82.6584 71.2317 82.6584C72.7765 82.6584 73.7865 83.3988 74.4281 84.3183L73.2874 84.9631C72.8715 84.366 72.1229 83.9003 71.2317 83.9003C69.6632 83.9003 68.4987 85.1064 68.4987 86.7782C68.4987 88.4499 69.6632 89.6679 71.2317 89.6679C72.0397 89.6679 72.7527 89.2858 73.1092 88.9514V87.7096H70.7445V86.4796H74.4994V89.4649C73.7152 90.3366 72.6101 90.9098 71.2317 90.9098ZM77.1588 90.7546H75.9111V84.987H77.1588V85.8348C77.5865 85.2855 78.2757 84.8556 79.0243 84.8556V86.0975C78.9174 86.0736 78.7867 86.0617 78.6322 86.0617C78.1094 86.0617 77.4083 86.4199 77.1588 86.8259V90.7546ZM82.6804 90.8979C80.9574 90.8979 79.6741 89.6918 79.6741 87.8648C79.6741 86.193 80.8861 84.8437 82.5853 84.8437C84.3083 84.8437 85.4133 86.1692 85.4133 87.9842V88.2827H80.9811C81.0762 89.1544 81.7297 89.8709 82.8111 89.8709C83.3696 89.8709 84.035 89.644 84.439 89.238L85.0093 90.062C84.439 90.6113 83.5953 90.8979 82.6804 90.8979ZM84.2013 87.3991C84.1776 86.7184 83.7141 85.8706 82.5853 85.8706C81.5159 85.8706 81.0287 86.6946 80.9693 87.3991H84.2013ZM91.3979 90.7546H90.1502V90.1336C89.7224 90.6232 89.057 90.8979 88.2965 90.8979C87.3578 90.8979 86.3002 90.265 86.3002 88.9873C86.3002 87.6618 87.3578 87.1125 88.2965 87.1125C89.0689 87.1125 89.7343 87.3633 90.1502 87.8529V86.9931C90.1502 86.3244 89.6036 85.9184 88.8075 85.9184C88.1658 85.9184 87.6073 86.1572 87.1082 86.6468L86.5973 85.7751C87.2627 85.1422 88.0945 84.8437 89.0095 84.8437C90.2809 84.8437 91.3979 85.381 91.3979 86.9334V90.7546ZM88.7837 90.0381C89.3303 90.0381 89.865 89.8351 90.1502 89.441V88.5693C89.865 88.1753 89.3303 87.9723 88.7837 87.9723C88.0826 87.9723 87.5598 88.3783 87.5598 89.0112C87.5598 89.6321 88.0826 90.0381 88.7837 90.0381ZM94.7386 90.8979C93.7761 90.8979 93.2651 90.3724 93.2651 89.4172V86.0856H92.3145V84.987H93.2651V83.4107H94.5128V84.987H95.6773V86.0856H94.5128V89.1067C94.5128 89.5007 94.7029 89.7873 95.0594 89.7873C95.2971 89.7873 95.5228 89.6918 95.6179 89.5843L95.915 90.5277C95.6892 90.7426 95.3208 90.8979 94.7386 90.8979ZM101.585 90.8979C100.622 90.8979 100.111 90.3724 100.111 89.4172V86.0856H99.1606V84.987H100.111V83.4107H101.359V84.987H102.523V86.0856H101.359V89.1067C101.359 89.5007 101.549 89.7873 101.906 89.7873C102.143 89.7873 102.369 89.6918 102.464 89.5843L102.761 90.5277C102.535 90.7426 102.167 90.8979 101.585 90.8979ZM108.79 90.7546H107.542V87.1244C107.542 86.2289 107.079 85.9542 106.378 85.9542C105.748 85.9542 105.201 86.3363 104.904 86.7304V90.7546H103.656V82.7898H104.904V85.7751C105.284 85.3213 106.033 84.8437 106.936 84.8437C108.172 84.8437 108.79 85.4885 108.79 86.6707V90.7546ZM111.028 84.2824C110.612 84.2824 110.256 83.9362 110.256 83.5063C110.256 83.0764 110.612 82.7301 111.028 82.7301C111.456 82.7301 111.8 83.0764 111.8 83.5063C111.8 83.9362 111.456 84.2824 111.028 84.2824ZM111.658 90.7546H110.41V84.987H111.658V90.7546ZM118.398 90.7546H117.15V87.1483C117.15 86.2527 116.699 85.9542 115.997 85.9542C115.356 85.9542 114.809 86.3363 114.524 86.7304V90.7546H113.276V84.987H114.524V85.7751C114.904 85.3213 115.641 84.8437 116.544 84.8437C117.78 84.8437 118.398 85.5124 118.398 86.6946V90.7546ZM125.389 90.7546H123.82L122.062 88.3783L121.266 89.2022V90.7546H120.018V82.7898H121.266V87.7693L123.797 84.987H125.341L122.953 87.6021L125.389 90.7546ZM126.891 84.2824C126.475 84.2824 126.119 83.9362 126.119 83.5063C126.119 83.0764 126.475 82.7301 126.891 82.7301C127.319 82.7301 127.664 83.0764 127.664 83.5063C127.664 83.9362 127.319 84.2824 126.891 84.2824ZM127.521 90.7546H126.273V84.987H127.521V90.7546ZM134.26 90.7546H133.013V87.1483C133.013 86.2527 132.561 85.9542 131.86 85.9542C131.218 85.9542 130.672 86.3363 130.386 86.7304V90.7546H129.139V84.987H130.386V85.7751C130.767 85.3213 131.503 84.8437 132.406 84.8437C133.642 84.8437 134.26 85.5124 134.26 86.6946V90.7546ZM138.21 93.095C137.236 93.095 136.511 92.8801 135.81 92.2353L136.392 91.3277C136.856 91.8651 137.45 92.0681 138.21 92.0681C139.03 92.0681 139.91 91.686 139.91 90.5038V89.8112C139.47 90.3844 138.816 90.7665 138.068 90.7665C136.606 90.7665 135.525 89.7037 135.525 87.8051C135.525 85.9423 136.594 84.8437 138.068 84.8437C138.793 84.8437 139.446 85.178 139.91 85.787V84.987H141.157V90.456C141.157 92.5338 139.624 93.095 138.21 93.095ZM138.436 89.656C139.018 89.656 139.636 89.3097 139.91 88.8798V86.7304C139.636 86.3005 139.018 85.9542 138.436 85.9542C137.45 85.9542 136.82 86.6946 136.82 87.8051C136.82 88.9156 137.45 89.656 138.436 89.656ZM143.962 88.3186H142.881L142.655 82.7898H144.176L143.962 88.3186ZM143.416 90.874C142.964 90.874 142.596 90.4919 142.596 90.05C142.596 89.5963 142.964 89.2142 143.416 89.2142C143.867 89.2142 144.248 89.5963 144.248 90.05C144.248 90.4919 143.867 90.874 143.416 90.874ZM152.054 90.7546H150.663V84.0197H148.263V82.7898H154.454V84.0197H152.054V90.7546ZM160.73 90.7546H159.482V87.1244C159.482 86.2289 159.018 85.9542 158.317 85.9542C157.688 85.9542 157.141 86.3363 156.844 86.7304V90.7546H155.596V82.7898H156.844V85.7751C157.224 85.3213 157.973 84.8437 158.876 84.8437C160.112 84.8437 160.73 85.4885 160.73 86.6707V90.7546ZM167.103 90.7546H165.855V90.1336C165.427 90.6232 164.762 90.8979 164.002 90.8979C163.063 90.8979 162.005 90.265 162.005 88.9873C162.005 87.6618 163.063 87.1125 164.002 87.1125C164.774 87.1125 165.439 87.3633 165.855 87.8529V86.9931C165.855 86.3244 165.309 85.9184 164.512 85.9184C163.871 85.9184 163.312 86.1572 162.813 86.6468L162.302 85.7751C162.968 85.1422 163.8 84.8437 164.714 84.8437C165.986 84.8437 167.103 85.381 167.103 86.9334V90.7546ZM164.489 90.0381C165.035 90.0381 165.57 89.8351 165.855 89.441V88.5693C165.57 88.1753 165.035 87.9723 164.489 87.9723C163.788 87.9723 163.265 88.3783 163.265 89.0112C163.265 89.6321 163.788 90.0381 164.489 90.0381ZM170.444 90.8979C169.481 90.8979 168.97 90.3724 168.97 89.4172V86.0856H168.02V84.987H168.97V83.4107H170.218V84.987H171.382V86.0856H170.218V89.1067C170.218 89.5007 170.408 89.7873 170.764 89.7873C171.002 89.7873 171.228 89.6918 171.323 89.5843L171.62 90.5277C171.394 90.7426 171.026 90.8979 170.444 90.8979ZM174.06 83.757C174.06 84.581 173.597 85.3333 172.943 85.799L172.385 85.3333C172.765 85.1064 173.157 84.6168 173.24 84.2108C173.205 84.2227 173.11 84.2466 173.038 84.2466C172.634 84.2466 172.325 83.9362 172.325 83.4943C172.325 83.0406 172.694 82.6704 173.133 82.6704C173.62 82.6704 174.06 83.0644 174.06 83.757ZM177.017 90.8979C176.043 90.8979 175.152 90.5874 174.558 90.0023L175.128 89.0947C175.532 89.5127 176.328 89.9067 177.077 89.9067C177.825 89.9067 178.205 89.5843 178.205 89.1306C178.205 87.9962 174.736 88.8082 174.736 86.599C174.736 85.6557 175.544 84.8437 176.993 84.8437C177.968 84.8437 178.705 85.19 179.227 85.6557L178.705 86.5393C178.36 86.1453 177.718 85.8467 177.005 85.8467C176.352 85.8467 175.936 86.1453 175.936 86.5513C175.936 87.5782 179.406 86.814 179.406 89.1067C179.406 90.1217 178.562 90.8979 177.017 90.8979ZM184.961 90.7546H183.713V84.987H184.961V85.8348C185.389 85.2855 186.078 84.8556 186.826 84.8556V86.0975C186.719 86.0736 186.589 86.0617 186.434 86.0617C185.911 86.0617 185.21 86.4199 184.961 86.8259V90.7546ZM188.451 84.2824C188.035 84.2824 187.678 83.9362 187.678 83.5063C187.678 83.0764 188.035 82.7301 188.451 82.7301C188.879 82.7301 189.223 83.0764 189.223 83.5063C189.223 83.9362 188.879 84.2824 188.451 84.2824ZM189.081 90.7546H187.833V84.987H189.081V90.7546ZM193.028 93.095C192.054 93.095 191.329 92.8801 190.628 92.2353L191.21 91.3277C191.674 91.8651 192.268 92.0681 193.028 92.0681C193.848 92.0681 194.727 91.686 194.727 90.5038V89.8112C194.288 90.3844 193.634 90.7665 192.886 90.7665C191.424 90.7665 190.343 89.7037 190.343 87.8051C190.343 85.9423 191.412 84.8437 192.886 84.8437C193.61 84.8437 194.264 85.178 194.727 85.787V84.987H195.975V90.456C195.975 92.5338 194.442 93.095 193.028 93.095ZM193.254 89.656C193.836 89.656 194.454 89.3097 194.727 88.8798V86.7304C194.454 86.3005 193.836 85.9542 193.254 85.9542C192.268 85.9542 191.638 86.6946 191.638 87.8051C191.638 88.9156 192.268 89.656 193.254 89.656ZM202.725 90.7546H201.478V87.1244C201.478 86.2289 201.014 85.9542 200.313 85.9542C199.683 85.9542 199.137 86.3363 198.84 86.7304V90.7546H197.592V82.7898H198.84V85.7751C199.22 85.3213 199.969 84.8437 200.872 84.8437C202.107 84.8437 202.725 85.4885 202.725 86.6707V90.7546ZM206.069 90.8979C205.106 90.8979 204.595 90.3724 204.595 89.4172V86.0856H203.644V84.987H204.595V83.4107H205.843V84.987H207.007V86.0856H205.843V89.1067C205.843 89.5007 206.033 89.7873 206.389 89.7873C206.627 89.7873 206.853 89.6918 206.948 89.5843L207.245 90.5277C207.019 90.7426 206.651 90.8979 206.069 90.8979ZM208.782 90.8859C208.33 90.8859 207.95 90.5038 207.95 90.05C207.95 89.5963 208.33 89.2142 208.782 89.2142C209.234 89.2142 209.614 89.5963 209.614 90.05C209.614 90.5038 209.234 90.8859 208.782 90.8859ZM215.531 90.7546H214.14V82.7898H215.531V90.7546ZM218.724 90.7546H217.477V86.0856H216.526V84.987H217.477V84.6646C217.477 83.4107 218.202 82.6704 219.295 82.6704C219.806 82.6704 220.317 82.8017 220.673 83.1719L220.186 83.9481C220.02 83.7929 219.806 83.6973 219.521 83.6973C219.033 83.6973 218.724 84.0197 218.724 84.6646V84.987H219.889V86.0856H218.724V90.7546ZM230.196 90.7546H228.889L227.558 86.5274L226.227 90.7546H224.92L223.138 84.987H224.433L225.645 89.1783L227.012 84.987H228.105L229.471 89.1783L230.683 84.987H231.979L230.196 90.7546ZM235.495 90.8979C233.772 90.8979 232.489 89.6918 232.489 87.8648C232.489 86.193 233.701 84.8437 235.4 84.8437C237.123 84.8437 238.228 86.1692 238.228 87.9842V88.2827H233.796C233.891 89.1544 234.544 89.8709 235.626 89.8709C236.184 89.8709 236.85 89.644 237.254 89.238L237.824 90.062C237.254 90.6113 236.41 90.8979 235.495 90.8979ZM237.016 87.3991C236.992 86.7184 236.529 85.8706 235.4 85.8706C234.331 85.8706 233.843 86.6946 233.784 87.3991H237.016ZM247.799 90.7546H246.552V89.9664C246.112 90.5396 245.447 90.8979 244.71 90.8979C243.237 90.8979 242.155 89.7754 242.155 87.8767C242.155 86.0139 243.225 84.8437 244.71 84.8437C245.423 84.8437 246.088 85.178 246.552 85.787V82.7898H247.799V90.7546ZM245.066 89.7873C245.661 89.7873 246.267 89.453 246.552 89.0231V86.7304C246.267 86.3005 245.661 85.9542 245.066 85.9542C244.08 85.9542 243.45 86.7543 243.45 87.8767C243.45 88.9873 244.08 89.7873 245.066 89.7873ZM250.033 84.2824C249.617 84.2824 249.261 83.9362 249.261 83.5063C249.261 83.0764 249.617 82.7301 250.033 82.7301C250.461 82.7301 250.806 83.0764 250.806 83.5063C250.806 83.9362 250.461 84.2824 250.033 84.2824ZM250.663 90.7546H249.415V84.987H250.663V90.7546ZM255.134 90.7546H253.791L251.45 84.987H252.781L254.456 89.3097L256.132 84.987H257.474L255.134 90.7546ZM258.876 84.2824C258.46 84.2824 258.103 83.9362 258.103 83.5063C258.103 83.0764 258.46 82.7301 258.876 82.7301C259.304 82.7301 259.648 83.0764 259.648 83.5063C259.648 83.9362 259.304 84.2824 258.876 84.2824ZM259.506 90.7546H258.258V84.987H259.506V90.7546ZM266.412 90.7546H265.164V89.9664C264.725 90.5396 264.059 90.8979 263.322 90.8979C261.849 90.8979 260.768 89.7754 260.768 87.8767C260.768 86.0139 261.837 84.8437 263.322 84.8437C264.035 84.8437 264.701 85.178 265.164 85.787V82.7898H266.412V90.7546ZM263.679 89.7873C264.273 89.7873 264.879 89.453 265.164 89.0231V86.7304C264.879 86.3005 264.273 85.9542 263.679 85.9542C262.693 85.9542 262.063 86.7543 262.063 87.8767C262.063 88.9873 262.693 89.7873 263.679 89.7873ZM270.679 90.8979C268.956 90.8979 267.672 89.6918 267.672 87.8648C267.672 86.193 268.884 84.8437 270.584 84.8437C272.307 84.8437 273.412 86.1692 273.412 87.9842V88.2827H268.979C269.074 89.1544 269.728 89.8709 270.809 89.8709C271.368 89.8709 272.033 89.644 272.437 89.238L273.008 90.062C272.437 90.6113 271.594 90.8979 270.679 90.8979ZM272.2 87.3991C272.176 86.7184 271.712 85.8706 270.584 85.8706C269.514 85.8706 269.027 86.6946 268.967 87.3991H272.2ZM278.943 89.0231C279.216 89.453 279.834 89.7873 280.416 89.7873C281.415 89.7873 282.044 88.9992 282.044 87.8767C282.044 86.7543 281.415 85.9542 280.416 85.9542C279.834 85.9542 279.216 86.3124 278.943 86.7423V89.0231ZM278.943 90.7546H277.695V82.7898H278.943V85.787C279.394 85.178 280.06 84.8437 280.785 84.8437C282.258 84.8437 283.328 86.0139 283.328 87.8767C283.328 89.7754 282.246 90.8979 280.785 90.8979C280.036 90.8979 279.383 90.5396 278.943 89.9664V90.7546ZM287.19 90.8979C285.372 90.8979 284.243 89.5246 284.243 87.8648C284.243 86.2169 285.372 84.8437 287.19 84.8437C289.032 84.8437 290.149 86.2169 290.149 87.8648C290.149 89.5246 289.032 90.8979 287.19 90.8979ZM287.19 89.7873C288.26 89.7873 288.854 88.8917 288.854 87.8648C288.854 86.8498 288.26 85.9542 287.19 85.9542C286.133 85.9542 285.539 86.8498 285.539 87.8648C285.539 88.8917 286.133 89.7873 287.19 89.7873ZM293.134 90.8979C292.172 90.8979 291.661 90.3724 291.661 89.4172V86.0856H290.71V84.987H291.661V83.4107H292.908V84.987H294.073V86.0856H292.908V89.1067C292.908 89.5007 293.099 89.7873 293.455 89.7873C293.693 89.7873 293.918 89.6918 294.013 89.5843L294.311 90.5277C294.085 90.7426 293.716 90.8979 293.134 90.8979ZM300.339 90.7546H299.092V87.1244C299.092 86.2289 298.628 85.9542 297.927 85.9542C297.297 85.9542 296.751 86.3363 296.454 86.7304V90.7546H295.206V82.7898H296.454V85.7751C296.834 85.3213 297.583 84.8437 298.486 84.8437C299.721 84.8437 300.339 85.4885 300.339 86.6707V90.7546ZM306.971 90.8979C305.997 90.8979 305.106 90.5874 304.512 90.0023L305.082 89.0947C305.486 89.5127 306.282 89.9067 307.031 89.9067C307.779 89.9067 308.16 89.5843 308.16 89.1306C308.16 87.9962 304.69 88.8082 304.69 86.599C304.69 85.6557 305.498 84.8437 306.948 84.8437C307.922 84.8437 308.659 85.19 309.182 85.6557L308.659 86.5393C308.314 86.1453 307.673 85.8467 306.96 85.8467C306.306 85.8467 305.89 86.1453 305.89 86.5513C305.89 87.5782 309.36 86.814 309.36 89.1067C309.36 90.1217 308.516 90.8979 306.971 90.8979ZM311.234 84.2824C310.818 84.2824 310.462 83.9362 310.462 83.5063C310.462 83.0764 310.818 82.7301 311.234 82.7301C311.662 82.7301 312.006 83.0764 312.006 83.5063C312.006 83.9362 311.662 84.2824 311.234 84.2824ZM311.864 90.7546H310.616V84.987H311.864V90.7546ZM318.77 90.7546H317.522V89.9664C317.083 90.5396 316.417 90.8979 315.681 90.8979C314.207 90.8979 313.126 89.7754 313.126 87.8767C313.126 86.0139 314.195 84.8437 315.681 84.8437C316.394 84.8437 317.059 85.178 317.522 85.787V82.7898H318.77V90.7546ZM316.037 89.7873C316.631 89.7873 317.237 89.453 317.522 89.0231V86.7304C317.237 86.3005 316.631 85.9542 316.037 85.9542C315.051 85.9542 314.421 86.7543 314.421 87.8767C314.421 88.9873 315.051 89.7873 316.037 89.7873ZM323.037 90.8979C321.314 90.8979 320.031 89.6918 320.031 87.8648C320.031 86.193 321.243 84.8437 322.942 84.8437C324.665 84.8437 325.77 86.1692 325.77 87.9842V88.2827H321.338C321.433 89.1544 322.086 89.8709 323.168 89.8709C323.726 89.8709 324.391 89.644 324.795 89.238L325.366 90.062C324.795 90.6113 323.952 90.8979 323.037 90.8979ZM324.558 87.3991C324.534 86.7184 324.071 85.8706 322.942 85.8706C321.872 85.8706 321.385 86.6946 321.326 87.3991H324.558ZM328.962 90.8979C327.988 90.8979 327.096 90.5874 326.502 90.0023L327.073 89.0947C327.477 89.5127 328.273 89.9067 329.021 89.9067C329.77 89.9067 330.15 89.5843 330.15 89.1306C330.15 87.9962 326.68 88.8082 326.68 86.599C326.68 85.6557 327.489 84.8437 328.938 84.8437C329.913 84.8437 330.649 85.19 331.172 85.6557L330.649 86.5393C330.305 86.1453 329.663 85.8467 328.95 85.8467C328.297 85.8467 327.881 86.1453 327.881 86.5513C327.881 87.5782 331.35 86.814 331.35 89.1067C331.35 90.1217 330.507 90.8979 328.962 90.8979ZM69.984 106.251C68.166 106.251 67.0371 104.878 67.0371 103.218C67.0371 101.57 68.166 100.197 69.984 100.197C71.8258 100.197 72.9428 101.57 72.9428 103.218C72.9428 104.878 71.8258 106.251 69.984 106.251ZM69.984 105.14C71.0535 105.14 71.6476 104.245 71.6476 103.218C71.6476 102.203 71.0535 101.307 69.984 101.307C68.9265 101.307 68.3324 102.203 68.3324 103.218C68.3324 104.245 68.9265 105.14 69.984 105.14ZM75.75 106.108H74.5023V101.439H73.5517V100.34H74.5023V100.018C74.5023 98.7637 75.2272 98.0233 76.3204 98.0233C76.8313 98.0233 77.3423 98.1547 77.6987 98.5249L77.2116 99.301C77.0452 99.1458 76.8313 99.0503 76.5461 99.0503C76.0589 99.0503 75.75 99.3727 75.75 100.018V100.34H76.9145V101.439H75.75V106.108ZM82.6355 106.251C81.673 106.251 81.162 105.725 81.162 104.77V101.439H80.2114V100.34H81.162V98.7637H82.4097V100.34H83.5742V101.439H82.4097V104.46C82.4097 104.854 82.5998 105.14 82.9563 105.14C83.1939 105.14 83.4197 105.045 83.5148 104.937L83.8118 105.881C83.5861 106.096 83.2177 106.251 82.6355 106.251ZM89.8404 106.108H88.5927V102.477C88.5927 101.582 88.1293 101.307 87.4282 101.307C86.7985 101.307 86.2519 101.689 85.9548 102.083V106.108H84.707V98.1427H85.9548V101.128C86.335 100.674 87.0836 100.197 87.9867 100.197C89.2225 100.197 89.8404 100.841 89.8404 102.024V106.108ZM94.1105 106.251C92.3875 106.251 91.1042 105.045 91.1042 103.218C91.1042 101.546 92.3162 100.197 94.0154 100.197C95.7384 100.197 96.8435 101.522 96.8435 103.337V103.636H92.4113C92.5063 104.507 93.1599 105.224 94.2412 105.224C94.7997 105.224 95.4651 104.997 95.8691 104.591L96.4395 105.415C95.8691 105.964 95.0255 106.251 94.1105 106.251ZM95.6315 102.752C95.6077 102.071 95.1443 101.224 94.0154 101.224C92.946 101.224 92.4588 102.048 92.3994 102.752H95.6315ZM103.777 106.251C102.054 106.251 100.771 105.045 100.771 103.218C100.771 101.546 101.983 100.197 103.682 100.197C105.405 100.197 106.51 101.522 106.51 103.337V103.636H102.078C102.173 104.507 102.826 105.224 103.908 105.224C104.466 105.224 105.132 104.997 105.536 104.591L106.106 105.415C105.536 105.964 104.692 106.251 103.777 106.251ZM105.298 102.752C105.274 102.071 104.811 101.224 103.682 101.224C102.613 101.224 102.125 102.048 102.066 102.752H105.298ZM110.273 105.14C110.855 105.14 111.473 104.782 111.746 104.364V102.083C111.473 101.653 110.855 101.307 110.273 101.307C109.286 101.307 108.657 102.107 108.657 103.218C108.657 104.34 109.286 105.14 110.273 105.14ZM109.904 106.251C108.419 106.251 107.361 105.116 107.361 103.218C107.361 101.319 108.419 100.197 109.904 100.197C110.653 100.197 111.318 100.555 111.746 101.128V100.34H112.994V108.305H111.746V105.307C111.283 105.928 110.629 106.251 109.904 106.251ZM119.732 106.108H118.484V105.343C118.068 105.809 117.355 106.251 116.452 106.251C115.217 106.251 114.611 105.606 114.611 104.424V100.34H115.858V103.97C115.858 104.866 116.31 105.14 117.011 105.14C117.641 105.14 118.187 104.782 118.484 104.388V100.34H119.732V106.108ZM126.106 106.108H124.858V105.487C124.431 105.976 123.765 106.251 123.005 106.251C122.066 106.251 121.009 105.618 121.009 104.34C121.009 103.015 122.066 102.465 123.005 102.465C123.777 102.465 124.443 102.716 124.858 103.206V102.346C124.858 101.677 124.312 101.271 123.516 101.271C122.874 101.271 122.316 101.51 121.817 102L121.306 101.128C121.971 100.495 122.803 100.197 123.718 100.197C124.989 100.197 126.106 100.734 126.106 102.286V106.108ZM123.492 105.391C124.039 105.391 124.573 105.188 124.858 104.794V103.922C124.573 103.528 124.039 103.325 123.492 103.325C122.791 103.325 122.268 103.731 122.268 104.364C122.268 104.985 122.791 105.391 123.492 105.391ZM129.447 106.251C128.484 106.251 127.973 105.725 127.973 104.77V101.439H127.023V100.34H127.973V98.7637H129.221V100.34H130.386V101.439H129.221V104.46C129.221 104.854 129.411 105.14 129.768 105.14C130.005 105.14 130.231 105.045 130.326 104.937L130.623 105.881C130.397 106.096 130.029 106.251 129.447 106.251ZM132.136 99.6354C131.72 99.6354 131.363 99.2891 131.363 98.8592C131.363 98.4293 131.72 98.083 132.136 98.083C132.564 98.083 132.908 98.4293 132.908 98.8592C132.908 99.2891 132.564 99.6354 132.136 99.6354ZM132.766 106.108H131.518V100.34H132.766V106.108ZM136.975 106.251C135.156 106.251 134.028 104.878 134.028 103.218C134.028 101.57 135.156 100.197 136.975 100.197C138.816 100.197 139.933 101.57 139.933 103.218C139.933 104.878 138.816 106.251 136.975 106.251ZM136.975 105.14C138.044 105.14 138.638 104.245 138.638 103.218C138.638 102.203 138.044 101.307 136.975 101.307C135.917 101.307 135.323 102.203 135.323 103.218C135.323 104.245 135.917 105.14 136.975 105.14ZM146.318 106.108H145.07V102.501C145.07 101.606 144.618 101.307 143.917 101.307C143.276 101.307 142.729 101.689 142.444 102.083V106.108H141.196V100.34H142.444V101.128C142.824 100.674 143.561 100.197 144.464 100.197C145.7 100.197 146.318 100.865 146.318 102.048V106.108ZM152.238 104.376C152.511 104.806 153.129 105.14 153.711 105.14C154.709 105.14 155.339 104.352 155.339 103.23C155.339 102.107 154.709 101.307 153.711 101.307C153.129 101.307 152.511 101.665 152.238 102.095V104.376ZM152.238 106.108H150.99V98.1427H152.238V101.14C152.689 100.531 153.355 100.197 154.08 100.197C155.553 100.197 156.622 101.367 156.622 103.23C156.622 105.128 155.541 106.251 154.08 106.251C153.331 106.251 152.677 105.893 152.238 105.319V106.108ZM157.644 108.364L157.834 107.242C157.965 107.302 158.167 107.337 158.31 107.337C158.702 107.337 158.963 107.218 159.13 106.836L159.415 106.179L157.062 100.34H158.393L160.068 104.663L161.744 100.34H163.087L160.318 107.146C159.926 108.126 159.237 108.436 158.345 108.448C158.167 108.448 157.823 108.412 157.644 108.364ZM170.297 106.108H166.684V105.403C168.633 104.018 169.311 103.421 169.311 102.788C169.311 102.274 168.895 102.036 168.419 102.036C167.849 102.036 167.35 102.334 167.112 102.645L166.601 102.036C167.053 101.498 167.778 101.259 168.443 101.259C169.441 101.259 170.261 101.749 170.261 102.716C170.261 103.576 169.465 104.34 168.075 105.331H170.297V106.108ZM173.132 105.654C173.132 106.478 172.668 107.23 172.015 107.696L171.456 107.23C171.836 107.003 172.229 106.514 172.312 106.108C172.276 106.119 172.181 106.143 172.11 106.143C171.706 106.143 171.397 105.833 171.397 105.391C171.397 104.937 171.765 104.567 172.205 104.567C172.692 104.567 173.132 104.961 173.132 105.654ZM183.862 106.108H182.555L181.224 101.88L179.893 106.108H178.586L176.803 100.34H178.099L179.311 104.531L180.677 100.34H181.77L183.137 104.531L184.349 100.34H185.644L183.862 106.108ZM189.16 106.251C187.437 106.251 186.153 105.045 186.153 103.218C186.153 101.546 187.365 100.197 189.065 100.197C190.787 100.197 191.893 101.522 191.893 103.337V103.636H187.46C187.555 104.507 188.209 105.224 189.29 105.224C189.849 105.224 190.514 104.997 190.918 104.591L191.489 105.415C190.918 105.964 190.075 106.251 189.16 106.251ZM190.681 102.752C190.657 102.071 190.193 101.224 189.065 101.224C187.995 101.224 187.508 102.048 187.448 102.752H190.681ZM198.505 108.448C197.531 108.448 196.806 108.233 196.105 107.588L196.687 106.681C197.151 107.218 197.745 107.421 198.505 107.421C199.325 107.421 200.204 107.039 200.204 105.857V105.164C199.765 105.737 199.111 106.119 198.363 106.119C196.901 106.119 195.82 105.057 195.82 103.158C195.82 101.295 196.889 100.197 198.363 100.197C199.087 100.197 199.741 100.531 200.204 101.14V100.34H201.452V105.809C201.452 107.887 199.919 108.448 198.505 108.448ZM198.731 105.009C199.313 105.009 199.931 104.663 200.204 104.233V102.083C199.931 101.653 199.313 101.307 198.731 101.307C197.745 101.307 197.115 102.048 197.115 103.158C197.115 104.269 197.745 105.009 198.731 105.009ZM205.719 106.251C203.996 106.251 202.713 105.045 202.713 103.218C202.713 101.546 203.925 100.197 205.624 100.197C207.347 100.197 208.452 101.522 208.452 103.337V103.636H204.02C204.115 104.507 204.768 105.224 205.85 105.224C206.408 105.224 207.073 104.997 207.477 104.591L208.048 105.415C207.477 105.964 206.634 106.251 205.719 106.251ZM207.24 102.752C207.216 102.071 206.753 101.224 205.624 101.224C204.554 101.224 204.067 102.048 204.008 102.752H207.24ZM211.406 106.251C210.444 106.251 209.933 105.725 209.933 104.77V101.439H208.982V100.34H209.933V98.7637H211.181V100.34H212.345V101.439H211.181V104.46C211.181 104.854 211.371 105.14 211.727 105.14C211.965 105.14 212.191 105.045 212.286 104.937L212.583 105.881C212.357 106.096 211.989 106.251 211.406 106.251ZM218.252 106.251C217.29 106.251 216.779 105.725 216.779 104.77V101.439H215.828V100.34H216.779V98.7637H218.027V100.34H219.191V101.439H218.027V104.46C218.027 104.854 218.217 105.14 218.573 105.14C218.811 105.14 219.037 105.045 219.132 104.937L219.429 105.881C219.203 106.096 218.835 106.251 218.252 106.251ZM225.458 106.108H224.21V102.477C224.21 101.582 223.746 101.307 223.045 101.307C222.416 101.307 221.869 101.689 221.572 102.083V106.108H220.324V98.1427H221.572V101.128C221.952 100.674 222.701 100.197 223.604 100.197C224.84 100.197 225.458 100.841 225.458 102.024V106.108ZM229.728 106.251C228.005 106.251 226.721 105.045 226.721 103.218C226.721 101.546 227.933 100.197 229.633 100.197C231.356 100.197 232.461 101.522 232.461 103.337V103.636H228.028C228.124 104.507 228.777 105.224 229.858 105.224C230.417 105.224 231.082 104.997 231.486 104.591L232.057 105.415C231.486 105.964 230.643 106.251 229.728 106.251ZM231.249 102.752C231.225 102.071 230.761 101.224 229.633 101.224C228.563 101.224 228.076 102.048 228.017 102.752H231.249ZM238.705 106.251C237.731 106.251 236.839 105.94 236.245 105.355L236.816 104.448C237.22 104.866 238.016 105.26 238.764 105.26C239.513 105.26 239.893 104.937 239.893 104.484C239.893 103.349 236.424 104.161 236.424 101.952C236.424 101.009 237.232 100.197 238.681 100.197C239.656 100.197 240.392 100.543 240.915 101.009L240.392 101.892C240.048 101.498 239.406 101.2 238.693 101.2C238.04 101.2 237.624 101.498 237.624 101.904C237.624 102.931 241.093 102.167 241.093 104.46C241.093 105.475 240.25 106.251 238.705 106.251ZM244.939 106.251C243.121 106.251 241.992 104.878 241.992 103.218C241.992 101.57 243.121 100.197 244.939 100.197C246.781 100.197 247.898 101.57 247.898 103.218C247.898 104.878 246.781 106.251 244.939 106.251ZM244.939 105.14C246.009 105.14 246.603 104.245 246.603 103.218C246.603 102.203 246.009 101.307 244.939 101.307C243.882 101.307 243.287 102.203 243.287 103.218C243.287 104.245 243.882 105.14 244.939 105.14ZM250.409 106.108H249.161V98.1427H250.409V106.108ZM257.149 106.108H255.901V105.343C255.485 105.809 254.772 106.251 253.869 106.251C252.633 106.251 252.027 105.606 252.027 104.424V100.34H253.275V103.97C253.275 104.866 253.726 105.14 254.427 105.14C255.057 105.14 255.604 104.782 255.901 104.388V100.34H257.149V106.108ZM260.492 106.251C259.529 106.251 259.018 105.725 259.018 104.77V101.439H258.068V100.34H259.018V98.7637H260.266V100.34H261.431V101.439H260.266V104.46C260.266 104.854 260.456 105.14 260.813 105.14C261.05 105.14 261.276 105.045 261.371 104.937L261.668 105.881C261.442 106.096 261.074 106.251 260.492 106.251ZM263.181 99.6354C262.766 99.6354 262.409 99.2891 262.409 98.8592C262.409 98.4293 262.766 98.083 263.181 98.083C263.609 98.083 263.954 98.4293 263.954 98.8592C263.954 99.2891 263.609 99.6354 263.181 99.6354ZM263.811 106.108H262.564V100.34H263.811V106.108ZM268.02 106.251C266.202 106.251 265.073 104.878 265.073 103.218C265.073 101.57 266.202 100.197 268.02 100.197C269.862 100.197 270.979 101.57 270.979 103.218C270.979 104.878 269.862 106.251 268.02 106.251ZM268.02 105.14C269.09 105.14 269.684 104.245 269.684 103.218C269.684 102.203 269.09 101.307 268.02 101.307C266.963 101.307 266.369 102.203 266.369 103.218C266.369 104.245 266.963 105.14 268.02 105.14ZM277.363 106.108H276.115V102.501C276.115 101.606 275.663 101.307 274.962 101.307C274.321 101.307 273.774 101.689 273.489 102.083V106.108H272.241V100.34H273.489V101.128C273.869 100.674 274.606 100.197 275.509 100.197C276.745 100.197 277.363 100.865 277.363 102.048V106.108ZM283.758 106.251C282.795 106.251 282.284 105.725 282.284 104.77V101.439H281.334V100.34H282.284V98.7637H283.532V100.34H284.697V101.439H283.532V104.46C283.532 104.854 283.722 105.14 284.079 105.14C284.316 105.14 284.542 105.045 284.637 104.937L284.934 105.881C284.709 106.096 284.34 106.251 283.758 106.251ZM288.42 106.251C286.602 106.251 285.473 104.878 285.473 103.218C285.473 101.57 286.602 100.197 288.42 100.197C290.262 100.197 291.379 101.57 291.379 103.218C291.379 104.878 290.262 106.251 288.42 106.251ZM288.42 105.14C289.49 105.14 290.084 104.245 290.084 103.218C290.084 102.203 289.49 101.307 288.42 101.307C287.363 101.307 286.768 102.203 286.768 103.218C286.768 104.245 287.363 105.14 288.42 105.14ZM297.416 106.251C296.454 106.251 295.943 105.725 295.943 104.77V101.439H294.992V100.34H295.943V98.7637H297.19V100.34H298.355V101.439H297.19V104.46C297.19 104.854 297.38 105.14 297.737 105.14C297.975 105.14 298.2 105.045 298.295 104.937L298.593 105.881C298.367 106.096 297.998 106.251 297.416 106.251ZM304.621 106.108H303.374V102.477C303.374 101.582 302.91 101.307 302.209 101.307C301.579 101.307 301.033 101.689 300.736 102.083V106.108H299.488V98.1427H300.736V101.128C301.116 100.674 301.864 100.197 302.768 100.197C304.003 100.197 304.621 100.841 304.621 102.024V106.108ZM308.891 106.251C307.168 106.251 305.885 105.045 305.885 103.218C305.885 101.546 307.097 100.197 308.796 100.197C310.519 100.197 311.624 101.522 311.624 103.337V103.636H307.192C307.287 104.507 307.941 105.224 309.022 105.224C309.581 105.224 310.246 104.997 310.65 104.591L311.22 105.415C310.65 105.964 309.806 106.251 308.891 106.251ZM310.412 102.752C310.389 102.071 309.925 101.224 308.796 101.224C307.727 101.224 307.24 102.048 307.18 102.752H310.412ZM70.0434 121.604C68.3205 121.604 67.0371 120.398 67.0371 118.571C67.0371 116.899 68.2492 115.55 69.9484 115.55C71.6714 115.55 72.7764 116.875 72.7764 118.69V118.989H68.3442C68.4393 119.86 69.0928 120.577 70.1742 120.577C70.7326 120.577 71.3981 120.35 71.8021 119.944L72.3724 120.768C71.8021 121.317 70.9584 121.604 70.0434 121.604ZM71.5644 118.105C71.5407 117.424 71.0772 116.577 69.9484 116.577C68.879 116.577 68.3918 117.4 68.3324 118.105H71.5644ZM76.539 120.493C77.1212 120.493 77.7391 120.135 78.0124 119.717V117.436C77.7391 117.006 77.1212 116.66 76.539 116.66C75.5527 116.66 74.923 117.46 74.923 118.571C74.923 119.693 75.5527 120.493 76.539 120.493ZM76.1706 121.604C74.6853 121.604 73.6278 120.469 73.6278 118.571C73.6278 116.672 74.6853 115.55 76.1706 115.55C76.9192 115.55 77.5847 115.908 78.0124 116.481V115.693H79.2601V123.658H78.0124V120.66C77.549 121.281 76.8955 121.604 76.1706 121.604ZM85.9989 121.46H84.7514V120.696C84.3355 121.162 83.6226 121.604 82.7195 121.604C81.4837 121.604 80.8777 120.959 80.8777 119.777V115.693H82.1254V119.323C82.1254 120.219 82.5769 120.493 83.278 120.493C83.9077 120.493 84.4543 120.135 84.7514 119.741V115.693H85.9989V121.46ZM92.3731 121.46H91.1254V120.84C90.6976 121.329 90.0322 121.604 89.2717 121.604C88.333 121.604 87.2755 120.971 87.2755 119.693C87.2755 118.368 88.333 117.818 89.2717 117.818C90.0441 117.818 90.7095 118.069 91.1254 118.559V117.699C91.1254 117.03 90.5788 116.624 89.7827 116.624C89.141 116.624 88.5825 116.863 88.0835 117.353L87.5725 116.481C88.2379 115.848 89.0697 115.55 89.9847 115.55C91.2561 115.55 92.3731 116.087 92.3731 117.639V121.46ZM89.7589 120.744C90.3055 120.744 90.8402 120.541 91.1254 120.147V119.275C90.8402 118.881 90.3055 118.678 89.7589 118.678C89.0578 118.678 88.535 119.084 88.535 119.717C88.535 120.338 89.0578 120.744 89.7589 120.744ZM95.713 121.604C94.7505 121.604 94.2395 121.078 94.2395 120.123V116.791H93.2889V115.693H94.2395V114.117H95.4872V115.693H96.6517V116.791H95.4872V119.813C95.4872 120.207 95.6773 120.493 96.0338 120.493C96.2714 120.493 96.4972 120.398 96.5923 120.29L96.8893 121.234C96.6636 121.449 96.2952 121.604 95.713 121.604ZM98.4027 114.988C97.9868 114.988 97.6303 114.642 97.6303 114.212C97.6303 113.782 97.9868 113.436 98.4027 113.436C98.8304 113.436 99.175 113.782 99.175 114.212C99.175 114.642 98.8304 114.988 98.4027 114.988ZM99.0325 121.46H97.7848V115.693H99.0325V121.46ZM103.241 121.604C101.423 121.604 100.295 120.231 100.295 118.571C100.295 116.923 101.423 115.55 103.241 115.55C105.083 115.55 106.2 116.923 106.2 118.571C106.2 120.231 105.083 121.604 103.241 121.604ZM103.241 120.493C104.311 120.493 104.905 119.598 104.905 118.571C104.905 117.556 104.311 116.66 103.241 116.66C102.184 116.66 101.59 117.556 101.59 118.571C101.59 119.598 102.184 120.493 103.241 120.493ZM112.584 121.46H111.336V117.854C111.336 116.959 110.885 116.66 110.183 116.66C109.542 116.66 108.995 117.042 108.71 117.436V121.46H107.462V115.693H108.71V116.481C109.09 116.027 109.827 115.55 110.73 115.55C111.966 115.55 112.584 116.218 112.584 117.4V121.46ZM118.801 121.46H117.553V116.791H116.603V115.693H117.553V115.37C117.553 114.117 118.278 113.376 119.371 113.376C119.882 113.376 120.393 113.508 120.75 113.878L120.262 114.654C120.096 114.499 119.882 114.403 119.597 114.403C119.11 114.403 118.801 114.726 118.801 115.37V115.693H119.965V116.791H118.801V121.46ZM123.169 123.24L122.397 123.837C121.28 122.464 120.603 120.481 120.603 118.559C120.603 116.636 121.28 114.666 122.397 113.281L123.169 113.866C122.385 115.347 121.957 116.684 121.957 118.559C121.957 120.434 122.385 121.771 123.169 123.24ZM129.222 121.46H127.82L126.334 119.335L124.837 121.46H123.447L125.55 118.499L123.566 115.693H124.968L126.334 117.651L127.689 115.693H129.091L127.107 118.499L129.222 121.46ZM130.257 123.837L129.485 123.24C130.281 121.771 130.709 120.434 130.709 118.559C130.709 116.684 130.281 115.347 129.485 113.866L130.257 113.281C131.386 114.666 132.064 116.636 132.064 118.559C132.064 120.481 131.386 122.464 130.257 123.837ZM141.239 116.744H135.963V115.932H141.239V116.744ZM141.239 119.013H135.963V118.212H141.239V119.013ZM150.968 121.46H145.229V120.362C148.306 118.021 149.506 116.983 149.506 115.836C149.506 115 148.793 114.618 148.069 114.618C147.142 114.618 146.429 115 145.93 115.573L145.122 114.654C145.823 113.806 146.94 113.376 148.045 113.376C149.578 113.376 150.92 114.248 150.92 115.836C150.92 117.305 149.578 118.618 147.451 120.231H150.968V121.46ZM157.537 121.46H156.134L154.649 119.335L153.152 121.46H151.762L153.865 118.499L151.88 115.693H153.283L154.649 117.651L156.004 115.693H157.406L155.421 118.499L157.537 121.46ZM166.269 117.842H164.071V120.314H163.192V117.842H160.994V117.03H163.192V114.642H164.071V117.03H166.269V117.842ZM172.945 121.604C171.531 121.604 170.485 121.031 169.95 120.314L170.699 119.395C171.21 119.992 172.054 120.362 172.897 120.362C173.943 120.362 174.549 119.884 174.549 119.144C174.549 118.356 173.919 118.021 172.79 118.021C172.458 118.021 171.994 118.021 171.875 118.033V116.78C172.018 116.791 172.481 116.791 172.79 116.791C173.717 116.791 174.418 116.469 174.418 115.741C174.418 115 173.705 114.618 172.814 114.618C172.006 114.618 171.341 114.929 170.77 115.502L170.057 114.63C170.663 113.914 171.626 113.376 172.945 113.376C174.656 113.376 175.809 114.188 175.809 115.526C175.809 116.588 174.906 117.209 174.086 117.353C174.858 117.424 175.927 118.057 175.927 119.287C175.927 120.637 174.775 121.604 172.945 121.604ZM177.938 117.281C177.487 117.281 177.106 116.899 177.106 116.445C177.106 115.991 177.487 115.609 177.938 115.609C178.39 115.609 178.77 115.991 178.77 116.445C178.77 116.899 178.39 117.281 177.938 117.281ZM177.938 121.592C177.487 121.592 177.106 121.21 177.106 120.756C177.106 120.302 177.487 119.92 177.938 119.92C178.39 119.92 178.77 120.302 178.77 120.756C178.77 121.21 178.39 121.592 177.938 121.592ZM72.42 152.166H71.0178L69.5325 150.041L68.0353 152.166H66.645L68.7482 149.205L66.7638 146.399H68.166L69.5325 148.357L70.8871 146.399H72.2893L70.3049 149.205L72.42 152.166ZM81.1529 147.449H75.877V146.637H81.1529V147.449ZM81.1529 149.718H75.877V148.918H81.1529V149.718ZM87.7575 149.814H84.9057V148.739H87.7575V149.814ZM95.3692 147.664C95.3692 148.488 94.6325 149.062 93.4799 149.062C92.5887 149.062 91.9351 148.727 91.5905 148.297L92.0777 147.676C92.4223 148.07 92.957 148.285 93.4442 148.285C94.0621 148.285 94.4186 148.023 94.4186 147.605C94.4186 147.079 93.9314 146.924 93.2898 146.924C93.0759 146.924 92.8501 146.924 92.7788 146.936V146.16C92.8739 146.172 93.0878 146.172 93.2779 146.172C93.9195 146.172 94.3354 146.005 94.3354 145.539C94.3354 145.121 93.9195 144.906 93.3848 144.906C92.8976 144.906 92.4699 145.085 92.1134 145.455L91.65 144.882C92.0421 144.452 92.6362 144.13 93.4799 144.13C94.5968 144.13 95.286 144.643 95.286 145.419C95.286 146.052 94.7513 146.434 94.2285 146.518C94.7038 146.554 95.3692 146.924 95.3692 147.664ZM96.7552 152.405H95.8284L98.6446 143.963H99.5714L96.7552 152.405ZM103.759 152.166H100.147V151.462C102.096 150.077 102.773 149.479 102.773 148.847C102.773 148.333 102.357 148.094 101.882 148.094C101.311 148.094 100.812 148.393 100.575 148.703L100.064 148.094C100.515 147.557 101.24 147.318 101.906 147.318C102.904 147.318 103.724 147.808 103.724 148.775C103.724 149.635 102.927 150.399 101.537 151.39H103.759V152.166ZM71.2317 183.015C68.8908 183.015 67.0728 181.344 67.0728 178.896C67.0728 176.448 68.8908 174.776 71.2317 174.776C72.8359 174.776 73.8221 175.612 74.4163 176.567L73.228 177.176C72.8477 176.519 72.0873 176.018 71.2317 176.018C69.6632 176.018 68.4987 177.224 68.4987 178.896C68.4987 180.567 69.6632 181.774 71.2317 181.774C72.0873 181.774 72.8477 181.284 73.228 180.615L74.4163 181.224C73.8102 182.18 72.8359 183.015 71.2317 183.015ZM78.0837 183.015C76.2657 183.015 75.1368 181.642 75.1368 179.982C75.1368 178.334 76.2657 176.961 78.0837 176.961C79.9255 176.961 81.0425 178.334 81.0425 179.982C81.0425 181.642 79.9255 183.015 78.0837 183.015ZM78.0837 181.905C79.1532 181.905 79.7473 181.009 79.7473 179.982C79.7473 178.967 79.1532 178.072 78.0837 178.072C77.0262 178.072 76.4321 178.967 76.4321 179.982C76.4321 181.009 77.0262 181.905 78.0837 181.905ZM87.4265 182.872H86.1789V179.266C86.1789 178.37 85.7273 178.072 85.0262 178.072C84.3844 178.072 83.8378 178.454 83.5526 178.848V182.872H82.305V177.105H83.5526V177.893C83.9329 177.439 84.6696 176.961 85.5728 176.961C86.8086 176.961 87.4265 177.63 87.4265 178.812V182.872ZM91.3758 185.213C90.4014 185.213 89.6766 184.998 88.9755 184.353L89.5578 183.445C90.0212 183.983 90.6153 184.186 91.3758 184.186C92.1957 184.186 93.075 183.804 93.075 182.621V181.929C92.6354 182.502 91.9818 182.884 91.2332 182.884C89.7716 182.884 88.6903 181.821 88.6903 179.923C88.6903 178.06 89.7598 176.961 91.2332 176.961C91.958 176.961 92.6116 177.296 93.075 177.905V177.105H94.3227V182.574C94.3227 184.651 92.7898 185.213 91.3758 185.213ZM91.6016 181.774C92.1838 181.774 92.8017 181.427 93.075 180.997V178.848C92.8017 178.418 92.1838 178.072 91.6016 178.072C90.6153 178.072 89.9855 178.812 89.9855 179.923C89.9855 181.033 90.6153 181.774 91.6016 181.774ZM97.1873 182.872H95.9396V177.105H97.1873V177.952C97.615 177.403 98.3042 176.973 99.0528 176.973V178.215C98.9459 178.191 98.8152 178.179 98.6607 178.179C98.1379 178.179 97.4368 178.537 97.1873 178.943V182.872ZM104.812 182.872H103.565V182.251C103.137 182.741 102.472 183.015 101.711 183.015C100.772 183.015 99.7149 182.383 99.7149 181.105C99.7149 179.779 100.772 179.23 101.711 179.23C102.484 179.23 103.149 179.481 103.565 179.97V179.111C103.565 178.442 103.018 178.036 102.222 178.036C101.58 178.036 101.022 178.275 100.523 178.764L100.012 177.893C100.677 177.26 101.509 176.961 102.424 176.961C103.696 176.961 104.812 177.499 104.812 179.051V182.872ZM102.198 182.156C102.745 182.156 103.28 181.953 103.565 181.559V180.687C103.28 180.293 102.745 180.09 102.198 180.09C101.497 180.09 100.974 180.496 100.974 181.129C100.974 181.75 101.497 182.156 102.198 182.156ZM108.153 183.015C107.191 183.015 106.68 182.49 106.68 181.535V178.203H105.729V177.105H106.68V175.528H107.927V177.105H109.092V178.203H107.927V181.224C107.927 181.618 108.118 181.905 108.474 181.905C108.712 181.905 108.937 181.809 109.033 181.702L109.33 182.645C109.104 182.86 108.735 183.015 108.153 183.015ZM115.346 182.872H114.098V182.108C113.682 182.574 112.969 183.015 112.066 183.015C110.83 183.015 110.224 182.371 110.224 181.188V177.105H111.472V180.735C111.472 181.63 111.923 181.905 112.624 181.905C113.254 181.905 113.801 181.547 114.098 181.153V177.105H115.346V182.872ZM118.214 182.872H116.967V174.907H118.214V182.872ZM124.586 182.872H123.338V182.251C122.911 182.741 122.245 183.015 121.485 183.015C120.546 183.015 119.488 182.383 119.488 181.105C119.488 179.779 120.546 179.23 121.485 179.23C122.257 179.23 122.922 179.481 123.338 179.97V179.111C123.338 178.442 122.792 178.036 121.996 178.036C121.354 178.036 120.795 178.275 120.296 178.764L119.785 177.893C120.451 177.26 121.283 176.961 122.198 176.961C123.469 176.961 124.586 177.499 124.586 179.051V182.872ZM121.972 182.156C122.518 182.156 123.053 181.953 123.338 181.559V180.687C123.053 180.293 122.518 180.09 121.972 180.09C121.271 180.09 120.748 180.496 120.748 181.129C120.748 181.75 121.271 182.156 121.972 182.156ZM127.927 183.015C126.964 183.015 126.453 182.49 126.453 181.535V178.203H125.503V177.105H126.453V175.528H127.701V177.105H128.865V178.203H127.701V181.224C127.701 181.618 127.891 181.905 128.248 181.905C128.485 181.905 128.711 181.809 128.806 181.702L129.103 182.645C128.877 182.86 128.509 183.015 127.927 183.015ZM130.616 176.4C130.2 176.4 129.843 176.054 129.843 175.624C129.843 175.194 130.2 174.848 130.616 174.848C131.043 174.848 131.388 175.194 131.388 175.624C131.388 176.054 131.043 176.4 130.616 176.4ZM131.245 182.872H129.998V177.105H131.245V182.872ZM135.454 183.015C133.636 183.015 132.507 181.642 132.507 179.982C132.507 178.334 133.636 176.961 135.454 176.961C137.296 176.961 138.413 178.334 138.413 179.982C138.413 181.642 137.296 183.015 135.454 183.015ZM135.454 181.905C136.524 181.905 137.118 181.009 137.118 179.982C137.118 178.967 136.524 178.072 135.454 178.072C134.397 178.072 133.803 178.967 133.803 179.982C133.803 181.009 134.397 181.905 135.454 181.905ZM144.798 182.872H143.55V179.266C143.55 178.37 143.098 178.072 142.397 178.072C141.756 178.072 141.209 178.454 140.924 178.848V182.872H139.676V177.105H140.924V177.893C141.304 177.439 142.041 176.961 142.944 176.961C144.18 176.961 144.798 177.63 144.798 178.812V182.872ZM148.378 183.015C147.404 183.015 146.513 182.705 145.919 182.12L146.489 181.212C146.893 181.63 147.689 182.024 148.438 182.024C149.186 182.024 149.567 181.702 149.567 181.248C149.567 180.114 146.097 180.926 146.097 178.717C146.097 177.773 146.905 176.961 148.355 176.961C149.329 176.961 150.066 177.308 150.589 177.773L150.066 178.657C149.721 178.263 149.079 177.964 148.367 177.964C147.713 177.964 147.297 178.263 147.297 178.669C147.297 179.696 150.767 178.932 150.767 181.224C150.767 182.239 149.923 183.015 148.378 183.015ZM153.21 180.436H152.129L151.903 174.907H153.424L153.21 180.436ZM152.664 182.992C152.212 182.992 151.844 182.609 151.844 182.168C151.844 181.714 152.212 181.332 152.664 181.332C153.115 181.332 153.496 181.714 153.496 182.168C153.496 182.609 153.115 182.992 152.664 182.992ZM160.97 182.872H158.023V174.907H160.97C163.441 174.907 165.117 176.555 165.117 178.896C165.117 181.236 163.441 182.872 160.97 182.872ZM160.97 181.642C162.693 181.642 163.691 180.4 163.691 178.896C163.691 177.355 162.74 176.137 160.97 176.137H159.413V181.642H160.97ZM169.013 183.015C167.195 183.015 166.067 181.642 166.067 179.982C166.067 178.334 167.195 176.961 169.013 176.961C170.855 176.961 171.972 178.334 171.972 179.982C171.972 181.642 170.855 183.015 169.013 183.015ZM169.013 181.905C170.083 181.905 170.677 181.009 170.677 179.982C170.677 178.967 170.083 178.072 169.013 178.072C167.956 178.072 167.362 178.967 167.362 179.982C167.362 181.009 167.956 181.905 169.013 181.905ZM176.037 185.129L176.227 184.007C176.358 184.066 176.56 184.102 176.702 184.102C177.094 184.102 177.356 183.983 177.522 183.601L177.807 182.944L175.455 177.105H176.786L178.461 181.427L180.136 177.105H181.479L178.71 183.911C178.318 184.89 177.629 185.201 176.738 185.213C176.56 185.213 176.215 185.177 176.037 185.129ZM184.853 183.015C183.035 183.015 181.906 181.642 181.906 179.982C181.906 178.334 183.035 176.961 184.853 176.961C186.695 176.961 187.812 178.334 187.812 179.982C187.812 181.642 186.695 183.015 184.853 183.015ZM184.853 181.905C185.922 181.905 186.517 181.009 186.517 179.982C186.517 178.967 185.922 178.072 184.853 178.072C183.795 178.072 183.201 178.967 183.201 179.982C183.201 181.009 183.795 181.905 184.853 181.905ZM194.196 182.872H192.948V182.108C192.533 182.574 191.82 183.015 190.917 183.015C189.681 183.015 189.075 182.371 189.075 181.188V177.105H190.322V180.735C190.322 181.63 190.774 181.905 191.475 181.905C192.105 181.905 192.651 181.547 192.948 181.153V177.105H194.196V182.872ZM204.002 182.872H202.754V179.242C202.754 178.346 202.291 178.072 201.59 178.072C200.96 178.072 200.413 178.454 200.116 178.848V182.872H198.869V174.907H200.116V177.893C200.496 177.439 201.245 176.961 202.148 176.961C203.384 176.961 204.002 177.606 204.002 178.788V182.872ZM210.375 182.872H209.127V182.251C208.7 182.741 208.034 183.015 207.274 183.015C206.335 183.015 205.277 182.383 205.277 181.105C205.277 179.779 206.335 179.23 207.274 179.23C208.046 179.23 208.712 179.481 209.127 179.97V179.111C209.127 178.442 208.581 178.036 207.785 178.036C207.143 178.036 206.585 178.275 206.086 178.764L205.575 177.893C206.24 177.26 207.072 176.961 207.987 176.961C209.258 176.961 210.375 177.499 210.375 179.051V182.872ZM207.761 182.156C208.308 182.156 208.842 181.953 209.127 181.559V180.687C208.842 180.293 208.308 180.09 207.761 180.09C207.06 180.09 206.537 180.496 206.537 181.129C206.537 181.75 207.06 182.156 207.761 182.156ZM214.845 182.872H213.502L211.161 177.105H212.492L214.167 181.427L215.843 177.105H217.186L214.845 182.872ZM220.619 183.015C218.896 183.015 217.613 181.809 217.613 179.982C217.613 178.311 218.825 176.961 220.524 176.961C222.247 176.961 223.352 178.287 223.352 180.102V180.4H218.92C219.015 181.272 219.668 181.988 220.749 181.988C221.308 181.988 221.973 181.762 222.377 181.356L222.948 182.18C222.377 182.729 221.534 183.015 220.619 183.015ZM222.14 179.517C222.116 178.836 221.653 177.988 220.524 177.988C219.454 177.988 218.967 178.812 218.908 179.517H222.14ZM232.388 182.872H231.14V182.251C230.712 182.741 230.047 183.015 229.286 183.015C228.348 183.015 227.29 182.383 227.29 181.105C227.29 179.779 228.348 179.23 229.286 179.23C230.059 179.23 230.724 179.481 231.14 179.97V179.111C231.14 178.442 230.593 178.036 229.797 178.036C229.156 178.036 228.597 178.275 228.098 178.764L227.587 177.893C228.253 177.26 229.084 176.961 229.999 176.961C231.271 176.961 232.388 177.499 232.388 179.051V182.872ZM229.774 182.156C230.32 182.156 230.855 181.953 231.14 181.559V180.687C230.855 180.293 230.32 180.09 229.774 180.09C229.072 180.09 228.55 180.496 228.55 181.129C228.55 181.75 229.072 182.156 229.774 182.156ZM239.127 182.872H237.879V179.266C237.879 178.37 237.428 178.072 236.727 178.072C236.085 178.072 235.538 178.454 235.253 178.848V182.872H234.005V177.105H235.253V177.893C235.633 177.439 236.37 176.961 237.273 176.961C238.509 176.961 239.127 177.63 239.127 178.812V182.872ZM240.498 185.129L240.689 184.007C240.819 184.066 241.021 184.102 241.164 184.102C241.556 184.102 241.817 183.983 241.984 183.601L242.269 182.944L239.916 177.105H241.247L242.922 181.427L244.598 177.105H245.941L243.172 183.911C242.78 184.89 242.091 185.201 241.199 185.213C241.021 185.213 240.677 185.177 240.498 185.129ZM252.366 183.015C250.548 183.015 249.419 181.642 249.419 179.982C249.419 178.334 250.548 176.961 252.366 176.961C254.208 176.961 255.325 178.334 255.325 179.982C255.325 181.642 254.208 183.015 252.366 183.015ZM252.366 181.905C253.435 181.905 254.029 181.009 254.029 179.982C254.029 178.967 253.435 178.072 252.366 178.072C251.308 178.072 250.714 178.967 250.714 179.982C250.714 181.009 251.308 181.905 252.366 181.905ZM258.31 183.015C257.348 183.015 256.837 182.49 256.837 181.535V178.203H255.886V177.105H256.837V175.528H258.085V177.105H259.249V178.203H258.085V181.224C258.085 181.618 258.275 181.905 258.631 181.905C258.869 181.905 259.095 181.809 259.19 181.702L259.487 182.645C259.261 182.86 258.893 183.015 258.31 183.015ZM265.515 182.872H264.267V179.242C264.267 178.346 263.804 178.072 263.103 178.072C262.473 178.072 261.926 178.454 261.629 178.848V182.872H260.381V174.907H261.629V177.893C262.009 177.439 262.758 176.961 263.661 176.961C264.897 176.961 265.515 177.606 265.515 178.788V182.872ZM269.785 183.015C268.062 183.015 266.779 181.809 266.779 179.982C266.779 178.311 267.991 176.961 269.69 176.961C271.413 176.961 272.518 178.287 272.518 180.102V180.4H268.086C268.181 181.272 268.834 181.988 269.916 181.988C270.474 181.988 271.139 181.762 271.543 181.356L272.114 182.18C271.543 182.729 270.7 183.015 269.785 183.015ZM271.306 179.517C271.282 178.836 270.819 177.988 269.69 177.988C268.62 177.988 268.133 178.812 268.074 179.517H271.306ZM274.997 182.872H273.749V177.105H274.997V177.952C275.425 177.403 276.114 176.973 276.863 176.973V178.215C276.756 178.191 276.625 178.179 276.47 178.179C275.948 178.179 275.247 178.537 274.997 178.943V182.872ZM283.452 181.905C284.035 181.905 284.653 181.547 284.926 181.129V178.848C284.653 178.418 284.035 178.072 283.452 178.072C282.466 178.072 281.836 178.872 281.836 179.982C281.836 181.105 282.466 181.905 283.452 181.905ZM283.084 183.015C281.599 183.015 280.541 181.881 280.541 179.982C280.541 178.084 281.599 176.961 283.084 176.961C283.833 176.961 284.498 177.319 284.926 177.893V177.105H286.174V185.069H284.926V182.072C284.462 182.693 283.809 183.015 283.084 183.015ZM292.912 182.872H291.664V182.108C291.248 182.574 290.535 183.015 289.632 183.015C288.396 183.015 287.79 182.371 287.79 181.188V177.105H289.038V180.735C289.038 181.63 289.49 181.905 290.191 181.905C290.82 181.905 291.367 181.547 291.664 181.153V177.105H292.912V182.872ZM297.183 183.015C295.46 183.015 294.176 181.809 294.176 179.982C294.176 178.311 295.388 176.961 297.088 176.961C298.811 176.961 299.916 178.287 299.916 180.102V180.4H295.484C295.579 181.272 296.232 181.988 297.313 181.988C297.872 181.988 298.537 181.762 298.941 181.356L299.512 182.18C298.941 182.729 298.098 183.015 297.183 183.015ZM298.704 179.517C298.68 178.836 298.217 177.988 297.088 177.988C296.018 177.988 295.531 178.812 295.472 179.517H298.704ZM303.108 183.015C302.134 183.015 301.242 182.705 300.648 182.12L301.219 181.212C301.623 181.63 302.419 182.024 303.167 182.024C303.916 182.024 304.296 181.702 304.296 181.248C304.296 180.114 300.826 180.926 300.826 178.717C300.826 177.773 301.635 176.961 303.084 176.961C304.059 176.961 304.795 177.308 305.318 177.773L304.795 178.657C304.451 178.263 303.809 177.964 303.096 177.964C302.443 177.964 302.027 178.263 302.027 178.669C302.027 179.696 305.496 178.932 305.496 181.224C305.496 182.239 304.653 183.015 303.108 183.015ZM308.475 183.015C307.512 183.015 307.001 182.49 307.001 181.535V178.203H306.051V177.105H307.001V175.528H308.249V177.105H309.413V178.203H308.249V181.224C308.249 181.618 308.439 181.905 308.795 181.905C309.033 181.905 309.259 181.809 309.354 181.702L309.651 182.645C309.425 182.86 309.057 183.015 308.475 183.015ZM311.164 176.4C310.748 176.4 310.392 176.054 310.392 175.624C310.392 175.194 310.748 174.848 311.164 174.848C311.592 174.848 311.937 175.194 311.937 175.624C311.937 176.054 311.592 176.4 311.164 176.4ZM311.794 182.872H310.546V177.105H311.794V182.872ZM316.003 183.015C314.185 183.015 313.056 181.642 313.056 179.982C313.056 178.334 314.185 176.961 316.003 176.961C317.845 176.961 318.962 178.334 318.962 179.982C318.962 181.642 317.845 183.015 316.003 183.015ZM316.003 181.905C317.073 181.905 317.667 181.009 317.667 179.982C317.667 178.967 317.073 178.072 316.003 178.072C314.946 178.072 314.351 178.967 314.351 179.982C314.351 181.009 314.946 181.905 316.003 181.905ZM325.345 182.872H324.098V179.266C324.098 178.37 323.646 178.072 322.945 178.072C322.303 178.072 321.757 178.454 321.472 178.848V182.872H320.224V177.105H321.472V177.893C321.852 177.439 322.589 176.961 323.492 176.961C324.728 176.961 325.345 177.63 325.345 178.812V182.872ZM328.927 183.015C327.953 183.015 327.062 182.705 326.467 182.12L327.038 181.212C327.442 181.63 328.238 182.024 328.987 182.024C329.735 182.024 330.115 181.702 330.115 181.248C330.115 180.114 326.646 180.926 326.646 178.717C326.646 177.773 327.454 176.961 328.903 176.961C329.878 176.961 330.615 177.308 331.137 177.773L330.615 178.657C330.27 178.263 329.628 177.964 328.915 177.964C328.262 177.964 327.846 178.263 327.846 178.669C327.846 179.696 331.316 178.932 331.316 181.224C331.316 182.239 330.472 183.015 328.927 183.015ZM69.984 198.368C68.166 198.368 67.0371 196.995 67.0371 195.335C67.0371 193.687 68.166 192.314 69.984 192.314C71.8258 192.314 72.9428 193.687 72.9428 195.335C72.9428 196.995 71.8258 198.368 69.984 198.368ZM69.984 197.258C71.0535 197.258 71.6476 196.362 71.6476 195.335C71.6476 194.32 71.0535 193.425 69.984 193.425C68.9265 193.425 68.3324 194.32 68.3324 195.335C68.3324 196.362 68.9265 197.258 69.984 197.258ZM75.4529 198.225H74.2053V192.457H75.4529V193.305C75.8807 192.756 76.5699 192.326 77.3185 192.326V193.568C77.2116 193.544 77.0808 193.532 76.9264 193.532C76.4035 193.532 75.7025 193.89 75.4529 194.296V198.225ZM87.6862 198.225H86.3792L85.0483 193.998L83.7175 198.225H82.4105L80.6281 192.457H81.9233L83.1353 196.649L84.5018 192.457H85.5949L86.9614 196.649L88.1734 192.457H89.4686L87.6862 198.225ZM92.9256 198.368C91.1076 198.368 89.9787 196.995 89.9787 195.335C89.9787 193.687 91.1076 192.314 92.9256 192.314C94.7674 192.314 95.8844 193.687 95.8844 195.335C95.8844 196.995 94.7674 198.368 92.9256 198.368ZM92.9256 197.258C93.9951 197.258 94.5892 196.362 94.5892 195.335C94.5892 194.32 93.9951 193.425 92.9256 193.425C91.8681 193.425 91.274 194.32 91.274 195.335C91.274 196.362 91.8681 197.258 92.9256 197.258ZM102.268 198.225H101.02V197.461C100.604 197.927 99.8914 198.368 98.9883 198.368C97.7525 198.368 97.1465 197.724 97.1465 196.541V192.457H98.3942V196.088C98.3942 196.983 98.8457 197.258 99.5468 197.258C100.177 197.258 100.723 196.9 101.02 196.506V192.457H102.268V198.225ZM105.136 198.225H103.888V190.26H105.136V198.225ZM112.042 198.225H110.795V197.437C110.355 198.01 109.689 198.368 108.953 198.368C107.479 198.368 106.398 197.246 106.398 195.347C106.398 193.484 107.467 192.314 108.953 192.314C109.666 192.314 110.331 192.649 110.795 193.258V190.26H112.042V198.225ZM109.309 197.258C109.903 197.258 110.509 196.923 110.795 196.494V194.201C110.509 193.771 109.903 193.425 109.309 193.425C108.323 193.425 107.693 194.225 107.693 195.347C107.693 196.458 108.323 197.258 109.309 197.258ZM116.462 200.482L116.652 199.359C116.783 199.419 116.985 199.455 117.127 199.455C117.519 199.455 117.781 199.336 117.947 198.953L118.232 198.297L115.879 192.457H117.21L118.886 196.78L120.561 192.457H121.904L119.135 199.264C118.743 200.243 118.054 200.554 117.163 200.566C116.985 200.566 116.64 200.53 116.462 200.482ZM125.278 198.368C123.46 198.368 122.331 196.995 122.331 195.335C122.331 193.687 123.46 192.314 125.278 192.314C127.12 192.314 128.237 193.687 128.237 195.335C128.237 196.995 127.12 198.368 125.278 198.368ZM125.278 197.258C126.347 197.258 126.941 196.362 126.941 195.335C126.941 194.32 126.347 193.425 125.278 193.425C124.22 193.425 123.626 194.32 123.626 195.335C123.626 196.362 124.22 197.258 125.278 197.258ZM134.62 198.225H133.372V197.461C132.956 197.927 132.244 198.368 131.34 198.368C130.105 198.368 129.499 197.724 129.499 196.541V192.457H130.746V196.088C130.746 196.983 131.198 197.258 131.899 197.258C132.529 197.258 133.075 196.9 133.372 196.506V192.457H134.62V198.225ZM140.54 198.225H139.292V190.26H140.54V198.225ZM142.777 191.753C142.361 191.753 142.004 191.407 142.004 190.977C142.004 190.547 142.361 190.201 142.777 190.201C143.204 190.201 143.549 190.547 143.549 190.977C143.549 191.407 143.204 191.753 142.777 191.753ZM143.406 198.225H142.159V192.457H143.406V198.225ZM150.396 198.225H148.827L147.069 195.849L146.273 196.673V198.225H145.025V190.26H146.273V195.24L148.804 192.457H150.348L147.96 195.073L150.396 198.225ZM153.872 198.368C152.149 198.368 150.865 197.162 150.865 195.335C150.865 193.664 152.077 192.314 153.777 192.314C155.499 192.314 156.605 193.64 156.605 195.455V195.753H152.172C152.267 196.625 152.921 197.341 154.002 197.341C154.561 197.341 155.226 197.115 155.63 196.709L156.201 197.532C155.63 198.082 154.787 198.368 153.872 198.368ZM155.393 194.87C155.369 194.189 154.905 193.341 153.777 193.341C152.707 193.341 152.22 194.165 152.16 194.87H155.393ZM162.611 198.368C161.649 198.368 161.138 197.843 161.138 196.888V193.556H160.187V192.457H161.138V190.881H162.385V192.457H163.55V193.556H162.385V196.577C162.385 196.971 162.576 197.258 162.932 197.258C163.17 197.258 163.396 197.162 163.491 197.055L163.788 197.998C163.562 198.213 163.194 198.368 162.611 198.368ZM167.273 198.368C165.455 198.368 164.326 196.995 164.326 195.335C164.326 193.687 165.455 192.314 167.273 192.314C169.114 192.314 170.231 193.687 170.231 195.335C170.231 196.995 169.114 198.368 167.273 198.368ZM167.273 197.258C168.342 197.258 168.936 196.362 168.936 195.335C168.936 194.32 168.342 193.425 167.273 193.425C166.215 193.425 165.621 194.32 165.621 195.335C165.621 196.362 166.215 197.258 167.273 197.258ZM182.829 198.225H181.581V194.464C181.581 193.843 181.308 193.425 180.642 193.425C180.084 193.425 179.561 193.819 179.311 194.189V198.225H178.064V194.464C178.064 193.843 177.79 193.425 177.113 193.425C176.567 193.425 176.056 193.819 175.794 194.201V198.225H174.546V192.457H175.794V193.246C176.032 192.887 176.792 192.314 177.66 192.314C178.515 192.314 179.038 192.744 179.228 193.377C179.561 192.852 180.321 192.314 181.177 192.314C182.235 192.314 182.829 192.887 182.829 194.058V198.225ZM187.035 198.368C185.217 198.368 184.088 196.995 184.088 195.335C184.088 193.687 185.217 192.314 187.035 192.314C188.877 192.314 189.994 193.687 189.994 195.335C189.994 196.995 188.877 198.368 187.035 198.368ZM187.035 197.258C188.105 197.258 188.699 196.362 188.699 195.335C188.699 194.32 188.105 193.425 187.035 193.425C185.978 193.425 185.383 194.32 185.383 195.335C185.383 196.362 185.978 197.258 187.035 197.258ZM194.108 198.225H192.765L190.424 192.457H191.755L193.431 196.78L195.106 192.457H196.449L194.108 198.225ZM199.882 198.368C198.159 198.368 196.876 197.162 196.876 195.335C196.876 193.664 198.088 192.314 199.787 192.314C201.51 192.314 202.615 193.64 202.615 195.455V195.753H198.183C198.278 196.625 198.931 197.341 200.013 197.341C200.571 197.341 201.237 197.115 201.641 196.709L202.211 197.532C201.641 198.082 200.797 198.368 199.882 198.368ZM201.403 194.87C201.379 194.189 200.916 193.341 199.787 193.341C198.717 193.341 198.23 194.165 198.171 194.87H201.403ZM209.489 198.368C207.671 198.368 206.542 196.995 206.542 195.335C206.542 193.687 207.671 192.314 209.489 192.314C211.331 192.314 212.448 193.687 212.448 195.335C212.448 196.995 211.331 198.368 209.489 198.368ZM209.489 197.258C210.558 197.258 211.153 196.362 211.153 195.335C211.153 194.32 210.558 193.425 209.489 193.425C208.431 193.425 207.837 194.32 207.837 195.335C207.837 196.362 208.431 197.258 209.489 197.258ZM218.831 198.225H217.584V194.619C217.584 193.723 217.132 193.425 216.431 193.425C215.789 193.425 215.243 193.807 214.958 194.201V198.225H213.71V192.457H214.958V193.246C215.338 192.792 216.075 192.314 216.978 192.314C218.213 192.314 218.831 192.983 218.831 194.165V198.225ZM225.227 198.368C224.264 198.368 223.753 197.843 223.753 196.888V193.556H222.803V192.457H223.753V190.881H225.001V192.457H226.165V193.556H225.001V196.577C225.001 196.971 225.191 197.258 225.548 197.258C225.785 197.258 226.011 197.162 226.106 197.055L226.403 197.998C226.177 198.213 225.809 198.368 225.227 198.368ZM229.889 198.368C228.071 198.368 226.942 196.995 226.942 195.335C226.942 193.687 228.071 192.314 229.889 192.314C231.731 192.314 232.848 193.687 232.848 195.335C232.848 196.995 231.731 198.368 229.889 198.368ZM229.889 197.258C230.958 197.258 231.552 196.362 231.552 195.335C231.552 194.32 230.958 193.425 229.889 193.425C228.831 193.425 228.237 194.32 228.237 195.335C228.237 196.362 228.831 197.258 229.889 197.258ZM241.915 198.225H240.667V197.604C240.24 198.094 239.574 198.368 238.814 198.368C237.875 198.368 236.817 197.735 236.817 196.458C236.817 195.132 237.875 194.583 238.814 194.583C239.586 194.583 240.251 194.834 240.667 195.323V194.464C240.667 193.795 240.121 193.389 239.325 193.389C238.683 193.389 238.124 193.628 237.625 194.117L237.114 193.246C237.78 192.613 238.612 192.314 239.527 192.314C240.798 192.314 241.915 192.852 241.915 194.404V198.225ZM239.301 197.509C239.847 197.509 240.382 197.306 240.667 196.912V196.04C240.382 195.646 239.847 195.443 239.301 195.443C238.6 195.443 238.077 195.849 238.077 196.482C238.077 197.103 238.6 197.509 239.301 197.509ZM248.654 198.225H247.406V194.619C247.406 193.723 246.955 193.425 246.254 193.425C245.612 193.425 245.066 193.807 244.78 194.201V198.225H243.533V192.457H244.78V193.246C245.161 192.792 245.897 192.314 246.8 192.314C248.036 192.314 248.654 192.983 248.654 194.165V198.225ZM252.865 198.368C251.047 198.368 249.918 196.995 249.918 195.335C249.918 193.687 251.047 192.314 252.865 192.314C254.707 192.314 255.824 193.687 255.824 195.335C255.824 196.995 254.707 198.368 252.865 198.368ZM252.865 197.258C253.934 197.258 254.528 196.362 254.528 195.335C254.528 194.32 253.934 193.425 252.865 193.425C251.807 193.425 251.213 194.32 251.213 195.335C251.213 196.362 251.807 197.258 252.865 197.258ZM258.81 198.368C257.847 198.368 257.336 197.843 257.336 196.888V193.556H256.385V192.457H257.336V190.881H258.584V192.457H259.748V193.556H258.584V196.577C258.584 196.971 258.774 197.258 259.13 197.258C259.368 197.258 259.594 197.162 259.689 197.055L259.986 197.998C259.76 198.213 259.392 198.368 258.81 198.368ZM266.014 198.225H264.766V194.595C264.766 193.699 264.303 193.425 263.602 193.425C262.972 193.425 262.425 193.807 262.128 194.201V198.225H260.881V190.26H262.128V193.246C262.508 192.792 263.257 192.314 264.16 192.314C265.396 192.314 266.014 192.959 266.014 194.141V198.225ZM270.284 198.368C268.561 198.368 267.278 197.162 267.278 195.335C267.278 193.664 268.49 192.314 270.189 192.314C271.912 192.314 273.017 193.64 273.017 195.455V195.753H268.585C268.68 196.625 269.333 197.341 270.415 197.341C270.973 197.341 271.639 197.115 272.043 196.709L272.613 197.532C272.043 198.082 271.199 198.368 270.284 198.368ZM271.805 194.87C271.781 194.189 271.318 193.341 270.189 193.341C269.119 193.341 268.632 194.165 268.573 194.87H271.805ZM275.496 198.225H274.248V192.457H275.496V193.305C275.924 192.756 276.613 192.326 277.362 192.326V193.568C277.255 193.544 277.124 193.532 276.97 193.532C276.447 193.532 275.746 193.89 275.496 194.296V198.225ZM283.143 198.368C282.181 198.368 281.67 197.843 281.67 196.888V193.556H280.719V192.457H281.67V190.881H282.918V192.457H284.082V193.556H282.918V196.577C282.918 196.971 283.108 197.258 283.464 197.258C283.702 197.258 283.928 197.162 284.023 197.055L284.32 197.998C284.094 198.213 283.726 198.368 283.143 198.368ZM287.805 198.368C285.987 198.368 284.858 196.995 284.858 195.335C284.858 193.687 285.987 192.314 287.805 192.314C289.647 192.314 290.764 193.687 290.764 195.335C290.764 196.995 289.647 198.368 287.805 198.368ZM287.805 197.258C288.874 197.258 289.468 196.362 289.468 195.335C289.468 194.32 288.874 193.425 287.805 193.425C286.747 193.425 286.153 194.32 286.153 195.335C286.153 196.362 286.747 197.258 287.805 197.258ZM295.116 198.368C294.391 198.368 293.738 198.046 293.274 197.425V200.422H292.027V192.457H293.274V193.246C293.702 192.672 294.367 192.314 295.116 192.314C296.601 192.314 297.659 193.437 297.659 195.335C297.659 197.234 296.601 198.368 295.116 198.368ZM294.748 197.258C295.734 197.258 296.364 196.458 296.364 195.335C296.364 194.225 295.734 193.425 294.748 193.425C294.165 193.425 293.548 193.771 293.274 194.201V196.482C293.548 196.9 294.165 197.258 294.748 197.258ZM299.513 191.753C299.098 191.753 298.741 191.407 298.741 190.977C298.741 190.547 299.098 190.201 299.513 190.201C299.941 190.201 300.286 190.547 300.286 190.977C300.286 191.407 299.941 191.753 299.513 191.753ZM300.143 198.225H298.896V192.457H300.143V198.225ZM304.376 198.368C302.629 198.368 301.405 197.091 301.405 195.335C301.405 193.592 302.629 192.314 304.376 192.314C305.493 192.314 306.17 192.792 306.574 193.341L305.754 194.105C305.434 193.652 304.994 193.425 304.435 193.425C303.39 193.425 302.701 194.213 302.701 195.335C302.701 196.458 303.39 197.258 304.435 197.258C304.994 197.258 305.434 197.019 305.754 196.577L306.574 197.341C306.17 197.891 305.493 198.368 304.376 198.368ZM308.805 195.885C308.52 195.61 308.377 195.264 308.377 194.87C308.377 193.413 310.29 193.258 310.29 192.243C310.29 191.777 309.934 191.383 309.161 191.383C308.436 191.383 307.914 191.717 307.51 192.219L306.713 191.323C307.319 190.583 308.234 190.141 309.304 190.141C310.801 190.141 311.716 190.941 311.716 192.016C311.716 193.783 309.589 193.926 309.589 195.001C309.589 195.192 309.696 195.407 309.85 195.538L308.805 195.885ZM309.233 198.356C308.781 198.356 308.401 197.974 308.401 197.521C308.401 197.067 308.781 196.685 309.233 196.685C309.684 196.685 310.064 197.067 310.064 197.521C310.064 197.974 309.684 198.356 309.233 198.356Z" fill="white"/>
</g>
</g>
<defs>
<filter id="filter0_d_13589_70684" x="-5.36914" y="49.4854" width="386.738" height="213.185" filterUnits="userSpaceOnUse" color-interpolation-filters="sRGB">
<feFlood flood-opacity="0" result="BackgroundImageFix"/>
<feColorMatrix in="SourceAlpha" type="matrix" values="0 0 0 0 0 0 0 0 0 0 0 0 0 0 0 0 0 0 127 0" result="hardAlpha"/>
<feOffset dy="15"/>
<feGaussianBlur stdDeviation="17.5"/>
<feComposite in2="hardAlpha" operator="out"/>
<feColorMatrix type="matrix" values="0 0 0 0 0 0 0 0 0 0 0 0 0 0 0 0 0 0 0.1 0"/>
<feBlend mode="normal" in2="BackgroundImageFix" result="effect1_dropShadow_13589_70684"/>
<feBlend mode="normal" in="SourceGraphic" in2="effect1_dropShadow_13589_70684" result="shape"/>
</filter>
<clipPath id="clip0_13589_70684">
<rect width="376" height="203" fill="white" transform="translate(0 52.5)"/>
</clipPath>
</defs>
</svg>
