<svg width="376" height="283" viewBox="0 0 376 283" fill="none" xmlns="http://www.w3.org/2000/svg">
<rect width="376" height="283" fill="#F3F3F3"/>
<rect x="0.5" y="0.5" width="375" height="282" stroke="#DDDDDD" stroke-opacity="0.25"/>
<g clip-path="url(#clip0_13589_70660)">
<g filter="url(#filter0_d_13589_70660)">
<path d="M346.293 55.548H29.7065V106.436H346.293V55.548Z" fill="#1A1A1A"/>
<path d="M345.869 55.9741H30.1309V106.01H345.869V55.9741Z" stroke="white" stroke-opacity="0.05"/>
<path d="M54.8513 65.6489H44.7934C42.0159 65.6489 39.7644 67.9101 39.7644 70.6995V80.8005C39.7644 83.5898 42.0159 85.851 44.7934 85.851H54.8513C57.6287 85.851 59.8802 83.5898 59.8802 80.8005V70.6995C59.8802 67.9101 57.6287 65.6489 54.8513 65.6489Z" fill="#F0F5FC"/>
<path d="M49.5716 75.7176C48.6808 75.7176 47.952 75.433 47.3851 74.8637C46.8182 74.2943 46.5347 73.5624 46.5347 72.6678C46.5347 71.7732 46.8182 71.0413 47.3851 70.4719C47.952 69.9026 48.6808 69.6179 49.5716 69.6179C50.4624 69.6179 51.1912 69.9026 51.7581 70.4719C52.325 71.0413 52.6084 71.7732 52.6084 72.6678C52.6084 73.5624 52.325 74.2943 51.7581 74.8637C51.1912 75.433 50.4624 75.7176 49.5716 75.7176ZM43.093 82.2443V80.3331C43.093 79.818 43.2213 79.3775 43.4777 79.0114C43.7342 78.6455 44.0648 78.3676 44.4697 78.1779C45.3741 77.7712 46.2412 77.4662 47.0712 77.2629C47.9013 77.0595 48.7348 76.9579 49.5716 76.9579C50.4084 76.9579 51.2385 77.0629 52.0618 77.2731C52.8851 77.4832 53.7483 77.786 54.6516 78.1818C55.0741 78.3732 55.4127 78.6509 55.6677 79.0147C55.9227 79.3786 56.0501 79.818 56.0501 80.3331V82.2443H43.093ZM44.3078 81.0244H54.8354V80.3331C54.8354 80.1161 54.7713 79.9094 54.6431 79.713C54.5148 79.5164 54.3562 79.3706 54.1673 79.2758C53.3035 78.8556 52.5139 78.5675 51.7986 78.4117C51.0832 78.2558 50.3409 78.1779 49.5716 78.1779C48.8023 78.1779 48.0532 78.2558 47.3243 78.4117C46.5955 78.5675 45.8059 78.8556 44.9556 79.2758C44.7667 79.3706 44.6114 79.5164 44.49 79.713C44.3685 79.9094 44.3078 80.1161 44.3078 80.3331V81.0244ZM49.5716 74.4977C50.098 74.4977 50.5332 74.3249 50.8774 73.9792C51.2216 73.6336 51.3937 73.1965 51.3937 72.6678C51.3937 72.1391 51.2216 71.702 50.8774 71.3564C50.5332 71.0107 50.098 70.8379 49.5716 70.8379C49.0452 70.8379 48.6099 71.0107 48.2658 71.3564C47.9216 71.702 47.7495 72.1391 47.7495 72.6678C47.7495 73.1965 47.9216 73.6336 48.2658 73.9792C48.6099 74.3249 49.0452 74.4977 49.5716 74.4977Z" fill="#3C50E0"/>
<path d="M68.8195 76.7302H67.4292V68.7705H72.8596V69.9996H68.8195V72.0641H72.7764V73.2933H68.8195V76.7302ZM74.6838 70.2622C74.2679 70.2622 73.9115 69.9161 73.9115 69.4865C73.9115 69.0569 74.2679 68.7108 74.6838 68.7108C75.1116 68.7108 75.4562 69.0569 75.4562 69.4865C75.4562 69.9161 75.1116 70.2622 74.6838 70.2622ZM75.3136 76.7302H74.0659V70.9662H75.3136V76.7302ZM78.1798 76.7302H76.9321V70.9662H78.1798V71.8135C78.6076 71.2646 79.2967 70.835 80.0454 70.835V72.0761C79.9384 72.0522 79.8077 72.0403 79.6532 72.0403C79.1304 72.0403 78.4293 72.3983 78.1798 72.804V76.7302ZM83.0123 76.8734C82.0379 76.8734 81.1467 76.5631 80.5526 75.9783L81.1229 75.0714C81.5269 75.4891 82.3231 75.8829 83.0717 75.8829C83.8203 75.8829 84.2005 75.5607 84.2005 75.1072C84.2005 73.9735 80.7308 74.785 80.7308 72.5773C80.7308 71.6345 81.5388 70.823 82.9885 70.823C83.9629 70.823 84.6996 71.1691 85.2221 71.6345L84.6996 72.5176C84.355 72.1238 83.7133 71.8255 83.0004 71.8255C82.3468 71.8255 81.931 72.1238 81.931 72.5295C81.931 73.5558 85.4003 72.7921 85.4003 75.0833C85.4003 76.0977 84.557 76.8734 83.0123 76.8734ZM88.3795 76.8734C87.417 76.8734 86.906 76.3483 86.906 75.3936V72.0641H85.9554V70.9662H86.906V69.391H88.1537V70.9662H89.3182V72.0641H88.1537V75.0833C88.1537 75.4771 88.3438 75.7635 88.7003 75.7635C88.938 75.7635 89.1637 75.6681 89.2588 75.5607L89.5559 76.5034C89.3301 76.7182 88.9617 76.8734 88.3795 76.8734ZM91.996 76.2767C91.996 77.1001 91.5326 77.8519 90.8791 78.3173L90.3206 77.8519C90.7008 77.6252 91.093 77.1359 91.1761 76.7302C91.1405 76.7421 91.0454 76.766 90.9741 76.766C90.5701 76.766 90.2612 76.4557 90.2612 76.0141C90.2612 75.5607 90.6295 75.1907 91.0692 75.1907C91.5564 75.1907 91.996 75.5845 91.996 76.2767ZM97.8414 76.7302H96.4512V68.7705H97.8414V76.7302ZM108.852 76.7302H107.545L106.214 72.5057L104.884 76.7302H103.576L101.794 70.9662H103.089L104.301 75.1549L105.668 70.9662H106.761L108.128 75.1549L109.34 70.9662H110.635L108.852 76.7302ZM114.091 76.8734C112.273 76.8734 111.144 75.501 111.144 73.8422C111.144 72.1954 112.273 70.823 114.091 70.823C115.933 70.823 117.05 72.1954 117.05 73.8422C117.05 75.501 115.933 76.8734 114.091 76.8734ZM114.091 75.7635C115.16 75.7635 115.754 74.8685 115.754 73.8422C115.754 72.8279 115.16 71.9329 114.091 71.9329C113.033 71.9329 112.439 72.8279 112.439 73.8422C112.439 74.8685 113.033 75.7635 114.091 75.7635ZM123.434 76.7302H122.186V75.9664C121.77 76.4318 121.058 76.8734 120.154 76.8734C118.919 76.8734 118.313 76.2289 118.313 75.0475V70.9662H119.56V74.594C119.56 75.4891 120.012 75.7635 120.713 75.7635C121.343 75.7635 121.889 75.4055 122.186 75.0117V70.9662H123.434V76.7302ZM126.302 76.7302H125.054V68.7705H126.302V76.7302ZM133.208 76.7302H131.961V75.9425C131.521 76.5154 130.856 76.8734 130.119 76.8734C128.645 76.8734 127.564 75.7516 127.564 73.8542C127.564 71.9925 128.634 70.823 130.119 70.823C130.832 70.823 131.497 71.1572 131.961 71.7658V68.7705H133.208V76.7302ZM130.475 75.7635C131.069 75.7635 131.676 75.4294 131.961 74.9998V72.7085C131.676 72.2789 131.069 71.9329 130.475 71.9329C129.489 71.9329 128.859 72.7324 128.859 73.8542C128.859 74.964 129.489 75.7635 130.475 75.7635ZM139.838 76.8734C138.864 76.8734 137.972 76.5631 137.378 75.9783L137.949 75.0714C138.353 75.4891 139.149 75.8829 139.897 75.8829C140.646 75.8829 141.026 75.5607 141.026 75.1072C141.026 73.9735 137.557 74.785 137.557 72.5773C137.557 71.6345 138.365 70.823 139.814 70.823C140.789 70.823 141.525 71.1691 142.048 71.6345L141.525 72.5176C141.181 72.1238 140.539 71.8255 139.826 71.8255C139.173 71.8255 138.757 72.1238 138.757 72.5295C138.757 73.5558 142.226 72.7921 142.226 75.0833C142.226 76.0977 141.383 76.8734 139.838 76.8734ZM148.603 76.7302H147.355V75.9664C146.94 76.4318 146.227 76.8734 145.324 76.8734C144.088 76.8734 143.482 76.2289 143.482 75.0475V70.9662H144.729V74.594C144.729 75.4891 145.181 75.7635 145.882 75.7635C146.512 75.7635 147.058 75.4055 147.355 75.0117V70.9662H148.603V76.7302ZM151.471 74.9998C151.744 75.4294 152.362 75.7635 152.945 75.7635C153.943 75.7635 154.572 74.9759 154.572 73.8542C154.572 72.7324 153.943 71.9329 152.945 71.9329C152.362 71.9329 151.744 72.2909 151.471 72.7205V74.9998ZM151.471 76.7302H150.223V68.7705H151.471V71.7658C151.923 71.1572 152.588 70.823 153.313 70.823C154.786 70.823 155.856 71.9925 155.856 73.8542C155.856 75.7516 154.774 76.8734 153.313 76.8734C152.564 76.8734 151.911 76.5154 151.471 75.9425V76.7302ZM158.851 76.8734C157.889 76.8734 157.378 76.3483 157.378 75.3936V72.0641H156.427V70.9662H157.378V69.391H158.625V70.9662H159.79V72.0641H158.625V75.0833C158.625 75.4771 158.815 75.7635 159.172 75.7635C159.41 75.7635 159.635 75.6681 159.73 75.5607L160.027 76.5034C159.802 76.7182 159.433 76.8734 158.851 76.8734ZM162.171 76.7302H160.923V70.9662H162.171V71.8135C162.598 71.2646 163.288 70.835 164.036 70.835V72.0761C163.929 72.0522 163.798 72.0403 163.644 72.0403C163.121 72.0403 162.42 72.3983 162.171 72.804V76.7302ZM169.795 76.7302H168.547V76.1096C168.119 76.5989 167.454 76.8734 166.694 76.8734C165.755 76.8734 164.697 76.2409 164.697 74.964C164.697 73.6394 165.755 73.0904 166.694 73.0904C167.466 73.0904 168.131 73.341 168.547 73.8303V72.9711C168.547 72.3028 168.001 71.8971 167.205 71.8971C166.563 71.8971 166.004 72.1357 165.505 72.625L164.994 71.7539C165.66 71.1214 166.492 70.823 167.407 70.823C168.678 70.823 169.795 71.36 169.795 72.9114V76.7302ZM167.181 76.0141C167.727 76.0141 168.262 75.8113 168.547 75.4175V74.5463C168.262 74.1525 167.727 73.9496 167.181 73.9496C166.48 73.9496 165.957 74.3554 165.957 74.9879C165.957 75.6084 166.48 76.0141 167.181 76.0141ZM174.027 76.8734C172.28 76.8734 171.056 75.5965 171.056 73.8422C171.056 72.0999 172.28 70.823 174.027 70.823C175.144 70.823 175.821 71.3004 176.225 71.8493L175.405 72.6131C175.084 72.1596 174.645 71.9329 174.086 71.9329C173.041 71.9329 172.351 72.7205 172.351 73.8422C172.351 74.964 173.041 75.7635 174.086 75.7635C174.645 75.7635 175.084 75.5249 175.405 75.0833L176.225 75.8471C175.821 76.396 175.144 76.8734 174.027 76.8734ZM179.042 76.8734C178.08 76.8734 177.569 76.3483 177.569 75.3936V72.0641H176.618V70.9662H177.569V69.391H178.816V70.9662H179.981V72.0641H178.816V75.0833C178.816 75.4771 179.007 75.7635 179.363 75.7635C179.601 75.7635 179.826 75.6681 179.921 75.5607L180.219 76.5034C179.993 76.7182 179.624 76.8734 179.042 76.8734ZM186.638 76.8734C185.224 76.8734 184.178 76.3005 183.643 75.5845L184.392 74.6656C184.903 75.2623 185.747 75.6323 186.59 75.6323C187.636 75.6323 188.242 75.1549 188.242 74.415C188.242 73.6274 187.612 73.2933 186.483 73.2933C186.151 73.2933 185.687 73.2933 185.568 73.3052V72.0522C185.711 72.0641 186.174 72.0641 186.483 72.0641C187.41 72.0641 188.111 71.7419 188.111 71.014C188.111 70.2741 187.398 69.8922 186.507 69.8922C185.699 69.8922 185.034 70.2025 184.463 70.7753L183.75 69.9041C184.356 69.1881 185.319 68.6511 186.638 68.6511C188.349 68.6511 189.501 69.4626 189.501 70.7992C189.501 71.8613 188.598 72.4818 187.778 72.625C188.551 72.6966 189.62 73.3291 189.62 74.5582C189.62 75.9067 188.468 76.8734 186.638 76.8734ZM195.585 76.7302H194.338V72.0641H193.387V70.9662H194.338V70.644C194.338 69.391 195.062 68.6511 196.156 68.6511C196.667 68.6511 197.178 68.7824 197.534 69.1523L197.047 69.928C196.881 69.7729 196.667 69.6774 196.381 69.6774C195.894 69.6774 195.585 69.9996 195.585 70.644V70.9662H196.75V72.0641H195.585V76.7302ZM198.944 76.7302H197.696V70.9662H198.944V71.8135C199.372 71.2646 200.061 70.835 200.809 70.835V72.0761C200.702 72.0522 200.572 72.0403 200.417 72.0403C199.894 72.0403 199.193 72.3983 198.944 72.804V76.7302ZM204.406 76.8734C202.588 76.8734 201.46 75.501 201.46 73.8422C201.46 72.1954 202.588 70.823 204.406 70.823C206.248 70.823 207.365 72.1954 207.365 73.8422C207.365 75.501 206.248 76.8734 204.406 76.8734ZM204.406 75.7635C205.476 75.7635 206.07 74.8685 206.07 73.8422C206.07 72.8279 205.476 71.9329 204.406 71.9329C203.349 71.9329 202.755 72.8279 202.755 73.8422C202.755 74.8685 203.349 75.7635 204.406 75.7635ZM216.91 76.7302H215.662V72.9711C215.662 72.3505 215.389 71.9329 214.723 71.9329C214.165 71.9329 213.642 72.3267 213.392 72.6966V76.7302H212.145V72.9711C212.145 72.3505 211.871 71.9329 211.194 71.9329C210.647 71.9329 210.136 72.3267 209.875 72.7085V76.7302H208.627V70.9662H209.875V71.7539C210.113 71.3958 210.873 70.823 211.741 70.823C212.596 70.823 213.119 71.2526 213.309 71.8851C213.642 71.36 214.402 70.823 215.258 70.823C216.315 70.823 216.91 71.3958 216.91 72.5653V76.7302ZM222.825 74.9998C223.099 75.4294 223.717 75.7635 224.299 75.7635C225.297 75.7635 225.927 74.9759 225.927 73.8542C225.927 72.7324 225.297 71.9329 224.299 71.9329C223.717 71.9329 223.099 72.2909 222.825 72.7205V74.9998ZM222.825 76.7302H221.578V68.7705H222.825V71.7658C223.277 71.1572 223.942 70.823 224.667 70.823C226.141 70.823 227.21 71.9925 227.21 73.8542C227.21 75.7516 226.129 76.8734 224.667 76.8734C223.919 76.8734 223.265 76.5154 222.825 75.9425V76.7302ZM231.073 76.8734C229.255 76.8734 228.126 75.501 228.126 73.8422C228.126 72.1954 229.255 70.823 231.073 70.823C232.915 70.823 234.032 72.1954 234.032 73.8422C234.032 75.501 232.915 76.8734 231.073 76.8734ZM231.073 75.7635C232.142 75.7635 232.736 74.8685 232.736 73.8422C232.736 72.8279 232.142 71.9329 231.073 71.9329C230.015 71.9329 229.421 72.8279 229.421 73.8422C229.421 74.8685 230.015 75.7635 231.073 75.7635ZM237.017 76.8734C236.054 76.8734 235.543 76.3483 235.543 75.3936V72.0641H234.593V70.9662H235.543V69.391H236.791V70.9662H237.955V72.0641H236.791V75.0833C236.791 75.4771 236.981 75.7635 237.337 75.7635C237.575 75.7635 237.801 75.6681 237.896 75.5607L238.193 76.5034C237.967 76.7182 237.599 76.8734 237.017 76.8734ZM244.222 76.7302H242.974V73.1023C242.974 72.2073 242.511 71.9329 241.81 71.9329C241.18 71.9329 240.633 72.3147 240.336 72.7085V76.7302H239.088V68.7705H240.336V71.7539C240.716 71.3004 241.465 70.823 242.368 70.823C243.604 70.823 244.222 71.4674 244.222 72.6489V76.7302ZM250.854 76.8734C249.88 76.8734 248.988 76.5631 248.394 75.9783L248.965 75.0714C249.369 75.4891 250.165 75.8829 250.913 75.8829C251.662 75.8829 252.042 75.5607 252.042 75.1072C252.042 73.9735 248.572 74.785 248.572 72.5773C248.572 71.6345 249.38 70.823 250.83 70.823C251.805 70.823 252.541 71.1691 253.064 71.6345L252.541 72.5176C252.197 72.1238 251.555 71.8255 250.842 71.8255C250.188 71.8255 249.773 72.1238 249.773 72.5295C249.773 73.5558 253.242 72.7921 253.242 75.0833C253.242 76.0977 252.399 76.8734 250.854 76.8734ZM255.116 70.2622C254.7 70.2622 254.344 69.9161 254.344 69.4865C254.344 69.0569 254.7 68.7108 255.116 68.7108C255.544 68.7108 255.889 69.0569 255.889 69.4865C255.889 69.9161 255.544 70.2622 255.116 70.2622ZM255.746 76.7302H254.498V70.9662H255.746V76.7302ZM262.652 76.7302H261.405V75.9425C260.965 76.5154 260.3 76.8734 259.563 76.8734C258.09 76.8734 257.008 75.7516 257.008 73.8542C257.008 71.9925 258.078 70.823 259.563 70.823C260.276 70.823 260.941 71.1572 261.405 71.7658V68.7705H262.652V76.7302ZM259.919 75.7635C260.514 75.7635 261.12 75.4294 261.405 74.9998V72.7085C261.12 72.2789 260.514 71.9329 259.919 71.9329C258.933 71.9329 258.303 72.7324 258.303 73.8542C258.303 74.964 258.933 75.7635 259.919 75.7635ZM266.919 76.8734C265.196 76.8734 263.913 75.6681 263.913 73.8422C263.913 72.1715 265.125 70.823 266.824 70.823C268.547 70.823 269.652 72.1477 269.652 73.9616V74.2599H265.22C265.315 75.1311 265.969 75.8471 267.05 75.8471C267.608 75.8471 268.274 75.6203 268.678 75.2146L269.248 76.038C268.678 76.587 267.834 76.8734 266.919 76.8734ZM268.44 73.3768C268.416 72.6966 267.953 71.8493 266.824 71.8493C265.755 71.8493 265.268 72.6727 265.208 73.3768H268.44ZM272.844 76.8734C271.87 76.8734 270.979 76.5631 270.385 75.9783L270.955 75.0714C271.359 75.4891 272.155 75.8829 272.904 75.8829C273.652 75.8829 274.033 75.5607 274.033 75.1072C274.033 73.9735 270.563 74.785 270.563 72.5773C270.563 71.6345 271.371 70.823 272.821 70.823C273.795 70.823 274.532 71.1691 275.055 71.6345L274.532 72.5176C274.187 72.1238 273.545 71.8255 272.833 71.8255C272.179 71.8255 271.763 72.1238 271.763 72.5295C271.763 73.5558 275.233 72.7921 275.233 75.0833C275.233 76.0977 274.389 76.8734 272.844 76.8734ZM282.131 76.8734C280.313 76.8734 279.184 75.501 279.184 73.8422C279.184 72.1954 280.313 70.823 282.131 70.823C283.972 70.823 285.089 72.1954 285.089 73.8422C285.089 75.501 283.972 76.8734 282.131 76.8734ZM282.131 75.7635C283.2 75.7635 283.794 74.8685 283.794 73.8422C283.794 72.8279 283.2 71.9329 282.131 71.9329C281.073 71.9329 280.479 72.8279 280.479 73.8422C280.479 74.8685 281.073 75.7635 282.131 75.7635ZM287.896 76.7302H286.649V72.0641H285.698V70.9662H286.649V70.644C286.649 69.391 287.373 68.6511 288.467 68.6511C288.978 68.6511 289.489 68.7824 289.845 69.1523L289.358 69.928C289.191 69.7729 288.978 69.6774 288.692 69.6774C288.205 69.6774 287.896 69.9996 287.896 70.644V70.9662H289.061V72.0641H287.896V76.7302ZM294.782 76.8734C293.82 76.8734 293.309 76.3483 293.309 75.3936V72.0641H292.358V70.9662H293.309V69.391H294.556V70.9662H295.721V72.0641H294.556V75.0833C294.556 75.4771 294.747 75.7635 295.103 75.7635C295.341 75.7635 295.567 75.6681 295.662 75.5607L295.959 76.5034C295.733 76.7182 295.365 76.8734 294.782 76.8734ZM301.987 76.7302H300.739V73.1023C300.739 72.2073 300.275 71.9329 299.574 71.9329C298.945 71.9329 298.398 72.3147 298.101 72.7085V76.7302H296.853V68.7705H298.101V71.7539C298.481 71.3004 299.23 70.823 300.133 70.823C301.369 70.823 301.987 71.4674 301.987 72.6489V76.7302ZM306.257 76.8734C304.534 76.8734 303.25 75.6681 303.25 73.8422C303.25 72.1715 304.462 70.823 306.162 70.823C307.885 70.823 308.99 72.1477 308.99 73.9616V74.2599H304.557C304.652 75.1311 305.306 75.8471 306.387 75.8471C306.946 75.8471 307.611 75.6203 308.015 75.2146L308.586 76.038C308.015 76.587 307.172 76.8734 306.257 76.8734ZM307.778 73.3768C307.754 72.6966 307.29 71.8493 306.162 71.8493C305.092 71.8493 304.605 72.6727 304.546 73.3768H307.778ZM70.0434 92.2165C68.3204 92.2165 67.0371 91.0112 67.0371 89.1854C67.0371 87.5147 68.2491 86.1662 69.9484 86.1662C71.6713 86.1662 72.7764 87.4908 72.7764 89.3047V89.6031H68.3442C68.4393 90.4742 69.0928 91.1902 70.1741 91.1902C70.7326 91.1902 71.398 90.9635 71.802 90.5578L72.3724 91.3812C71.802 91.9301 70.9584 92.2165 70.0434 92.2165ZM71.5644 88.72C71.5406 88.0398 71.0772 87.1925 69.9484 87.1925C68.8789 87.1925 68.3917 88.0159 68.3323 88.72H71.5644ZM76.5389 91.1067C77.1211 91.1067 77.739 90.7487 78.0123 90.331V88.0517C77.739 87.6221 77.1211 87.276 76.5389 87.276C75.5526 87.276 74.9228 88.0756 74.9228 89.1854C74.9228 90.3072 75.5526 91.1067 76.5389 91.1067ZM76.1705 92.2165C74.6852 92.2165 73.6276 91.0828 73.6276 89.1854C73.6276 87.288 74.6852 86.1662 76.1705 86.1662C76.9191 86.1662 77.5845 86.5242 78.0123 87.097V86.3094H79.26V94.2691H78.0123V91.2738C77.5489 91.8943 76.8954 92.2165 76.1705 92.2165ZM85.9987 92.0733H84.7513V91.3096C84.3354 91.775 83.6224 92.2165 82.7194 92.2165C81.4836 92.2165 80.8776 91.5721 80.8776 90.3907V86.3094H82.1252V89.9372C82.1252 90.8322 82.5768 91.1067 83.2779 91.1067C83.9076 91.1067 84.4542 90.7487 84.7513 90.3549V86.3094H85.9987V92.0733ZM92.3729 92.0733H91.1252V91.4528C90.6974 91.9421 90.032 92.2165 89.2715 92.2165C88.3328 92.2165 87.2753 91.5841 87.2753 90.3072C87.2753 88.9825 88.3328 88.4336 89.2715 88.4336C90.0439 88.4336 90.7093 88.6842 91.1252 89.1735V88.3143C91.1252 87.646 90.5786 87.2402 89.7825 87.2402C89.1408 87.2402 88.5823 87.4789 88.0833 87.9682L87.5723 87.097C88.2377 86.4645 89.0695 86.1662 89.9845 86.1662C91.2559 86.1662 92.3729 86.7032 92.3729 88.2546V92.0733ZM89.7587 91.3573C90.3053 91.3573 90.84 91.1544 91.1252 90.7606V89.8895C90.84 89.4957 90.3053 89.2928 89.7587 89.2928C89.0576 89.2928 88.5348 89.6985 88.5348 90.331C88.5348 90.9516 89.0576 91.3573 89.7587 91.3573ZM95.7136 92.2165C94.7511 92.2165 94.2402 91.6915 94.2402 90.7368V87.4073H93.2896V86.3094H94.2402V84.7342H95.4878V86.3094H96.6523V87.4073H95.4878V90.4265C95.4878 90.8203 95.678 91.1067 96.0344 91.1067C96.2721 91.1067 96.4979 91.0112 96.5929 90.9038L96.89 91.8466C96.6642 92.0614 96.2959 92.2165 95.7136 92.2165ZM98.4025 85.6053C97.9866 85.6053 97.6301 85.2593 97.6301 84.8296C97.6301 84.4 97.9866 84.054 98.4025 84.054C98.8302 84.054 99.1748 84.4 99.1748 84.8296C99.1748 85.2593 98.8302 85.6053 98.4025 85.6053ZM99.0323 92.0733H97.7846V86.3094H99.0323V92.0733ZM103.241 92.2165C101.423 92.2165 100.294 90.8442 100.294 89.1854C100.294 87.5386 101.423 86.1662 103.241 86.1662C105.083 86.1662 106.2 87.5386 106.2 89.1854C106.2 90.8442 105.083 92.2165 103.241 92.2165ZM103.241 91.1067C104.311 91.1067 104.905 90.2117 104.905 89.1854C104.905 88.1711 104.311 87.276 103.241 87.276C102.184 87.276 101.59 88.1711 101.59 89.1854C101.59 90.2117 102.184 91.1067 103.241 91.1067ZM112.584 92.0733H111.337V88.4694C111.337 87.5744 110.885 87.276 110.184 87.276C109.542 87.276 108.996 87.6579 108.711 88.0517V92.0733H107.463V86.3094H108.711V87.097C109.091 86.6436 109.828 86.1662 110.731 86.1662C111.966 86.1662 112.584 86.8345 112.584 88.0159V92.0733ZM114.846 92.2046C114.395 92.2046 114.015 91.8227 114.015 91.3692C114.015 90.9158 114.395 90.5339 114.846 90.5339C115.298 90.5339 115.678 90.9158 115.678 91.3692C115.678 91.8227 115.298 92.2046 114.846 92.2046Z" fill="white"/>
</g>
<g filter="url(#filter1_d_13589_70660)">
<path d="M346.293 113.255H29.7065V179.487H346.293V113.255Z" fill="#3C3F53"/>
<path d="M345.869 113.682H30.1309V179.061H345.869V113.682Z" stroke="white" stroke-opacity="0.05"/>
<path d="M54.8513 123.356H44.7934C42.0159 123.356 39.7644 125.618 39.7644 128.407V138.508C39.7644 141.297 42.0159 143.559 44.7934 143.559H54.8513C57.6287 143.559 59.8802 141.297 59.8802 138.508V128.407C59.8802 125.618 57.6287 123.356 54.8513 123.356Z" fill="#3C50E0"/>
<path d="M55.5739 134.347C55.3108 133.852 54.9546 133.378 54.5215 132.943C54.4667 132.888 54.4065 132.833 54.3462 132.778C54.3188 133.147 54.2639 133.505 54.1927 133.862C54.1379 134.132 54.0721 134.385 53.9899 134.639C54.0886 134.776 54.1763 134.914 54.2475 135.051C54.4394 135.415 54.7134 136.108 54.401 136.653C54.0009 137.353 52.6196 137.578 51.0741 136.961C51.0083 136.934 50.4766 136.686 50.2684 136.571C50.0546 136.45 49.8573 136.312 49.6655 136.169C49.4681 136.02 49.2763 135.855 49.1065 135.69C48.7611 135.354 48.4816 134.986 48.2843 134.616C48.1801 134.43 48.0815 134.226 47.9993 133.994C47.8897 134.05 47.78 134.105 47.6759 134.165C47.4622 134.287 47.2648 134.424 47.0895 134.567C46.9689 134.666 46.8483 134.766 46.7387 134.876L46.7332 134.881C46.7989 135.035 46.8757 135.183 46.9524 135.321C47.2648 135.904 47.7088 136.466 48.2569 136.956C46.7113 137.573 45.3301 137.347 44.93 136.648C44.6176 136.103 44.8916 135.409 45.0834 135.046C45.2753 134.683 45.5548 134.319 45.8946 133.989C46.0317 133.857 46.1796 133.725 46.3331 133.604C46.5632 133.422 46.8099 133.252 47.073 133.097C47.2867 132.976 47.5005 132.866 47.7198 132.773C48.3665 132.492 49.0297 132.343 49.6217 132.343H49.7093C50.1094 132.343 50.537 132.41 50.9699 132.542C51.1837 132.607 51.403 132.685 51.6167 132.778C51.5948 132.982 51.5618 133.174 51.518 133.362C51.4193 133.807 51.2659 134.209 51.085 134.54C51.085 134.545 51.0796 134.551 51.0796 134.551C50.959 134.798 50.789 135.057 50.5753 135.31C50.674 135.376 50.7781 135.442 50.8822 135.503C51.0466 135.597 51.5345 135.822 51.5345 135.822C51.6825 135.882 51.9675 135.965 51.973 135.971C52.1264 135.761 52.258 135.546 52.3731 135.332C52.6526 134.831 52.8663 134.248 53.0034 133.609C53.1075 133.12 53.1623 132.591 53.1623 132.04V131.881C53.1075 129.068 51.5948 126.894 49.671 126.894C48.1034 126.894 46.8099 128.342 46.355 130.394C46.6839 130.235 47.0237 130.103 47.3635 129.987C47.6211 129.899 47.8787 129.834 48.1363 129.773C48.5254 128.914 49.1174 128.396 49.671 128.396C50.4766 128.396 51.3591 129.492 51.6002 131.149C50.948 130.934 50.2903 130.824 49.671 130.829C49.09 130.84 48.3501 130.95 47.7417 131.149C47.2648 131.308 46.7825 131.523 46.3221 131.787C46.2728 131.815 46.2235 131.843 46.1796 131.875C45.1163 132.525 44.2558 133.395 43.7571 134.341C43.1761 135.442 43.1322 136.532 43.631 137.402C44.1736 138.343 45.2478 138.827 46.5195 138.827C47.5005 138.827 48.6022 138.536 49.671 137.947C50.7397 138.536 51.8359 138.827 52.8225 138.827C54.094 138.827 55.1683 138.343 55.7109 137.402C56.2042 136.538 56.1603 135.447 55.5739 134.347Z" fill="white"/>
<path d="M72.8596 134.437H67.4292V126.478H72.8596V127.707H68.8195V129.771H72.7764V131.001H68.8195V133.208H72.8596V134.437ZM79.2779 134.437H77.8758L76.3904 132.313L74.8932 134.437H73.503L75.6062 131.478L73.6218 128.674H75.0239L76.3904 130.631L77.7451 128.674H79.1472L77.1628 131.478L79.2779 134.437ZM82.3429 134.581C80.5962 134.581 79.3723 133.304 79.3723 131.55C79.3723 129.807 80.5962 128.53 82.3429 128.53C83.4599 128.53 84.1372 129.008 84.5412 129.557L83.7213 130.32C83.4005 129.867 82.9608 129.64 82.4024 129.64C81.3567 129.64 80.6675 130.428 80.6675 131.55C80.6675 132.671 81.3567 133.471 82.4024 133.471C82.9608 133.471 83.4005 133.232 83.7213 132.791L84.5412 133.554C84.1372 134.103 83.4599 134.581 82.3429 134.581ZM88.2853 134.581C86.5623 134.581 85.279 133.375 85.279 131.55C85.279 129.879 86.491 128.53 88.1902 128.53C89.9132 128.53 91.0183 129.855 91.0183 131.669V131.967H86.5861C86.6811 132.838 87.3347 133.554 88.416 133.554C88.9745 133.554 89.6399 133.328 90.0439 132.922L90.6143 133.745C90.0439 134.294 89.2002 134.581 88.2853 134.581ZM89.8062 131.084C89.7825 130.404 89.3191 129.557 88.1902 129.557C87.1208 129.557 86.6336 130.38 86.5742 131.084H89.8062ZM93.4975 134.437H92.2498V126.478H93.4975V134.437ZM96.3638 134.437H95.1161V126.478H96.3638V134.437ZM100.632 134.581C98.9092 134.581 97.6259 133.375 97.6259 131.55C97.6259 129.879 98.8379 128.53 100.537 128.53C102.26 128.53 103.365 129.855 103.365 131.669V131.967H98.9329C99.028 132.838 99.6816 133.554 100.763 133.554C101.321 133.554 101.987 133.328 102.391 132.922L102.961 133.745C102.391 134.294 101.547 134.581 100.632 134.581ZM102.153 131.084C102.129 130.404 101.666 129.557 100.537 129.557C99.4677 129.557 98.9805 130.38 98.9211 131.084H102.153ZM109.718 134.437H108.47V130.833C108.47 129.938 108.019 129.64 107.318 129.64C106.676 129.64 106.13 130.022 105.844 130.416V134.437H104.597V128.674H105.844V129.461C106.225 129.008 106.961 128.53 107.864 128.53C109.1 128.53 109.718 129.199 109.718 130.38V134.437ZM113.061 134.581C112.099 134.581 111.588 134.056 111.588 133.101V129.771H110.637V128.674H111.588V127.098H112.836V128.674H114V129.771H112.836V132.791C112.836 133.184 113.026 133.471 113.382 133.471C113.62 133.471 113.846 133.375 113.941 133.268L114.238 134.211C114.012 134.425 113.644 134.581 113.061 134.581ZM116.321 132.003H115.24L115.014 126.478H116.535L116.321 132.003ZM115.775 134.557C115.323 134.557 114.955 134.175 114.955 133.733C114.955 133.28 115.323 132.898 115.775 132.898C116.226 132.898 116.607 133.28 116.607 133.733C116.607 134.175 116.226 134.557 115.775 134.557ZM124.413 134.437H123.022V127.707H120.622V126.478H126.813V127.707H124.413V134.437ZM133.089 134.437H131.841V130.81C131.841 129.915 131.378 129.64 130.677 129.64C130.047 129.64 129.5 130.022 129.203 130.416V134.437H127.955V126.478H129.203V129.461C129.583 129.008 130.332 128.53 131.235 128.53C132.471 128.53 133.089 129.175 133.089 130.356V134.437ZM139.462 134.437H138.214V133.817C137.787 134.306 137.121 134.581 136.361 134.581C135.422 134.581 134.364 133.948 134.364 132.671C134.364 131.347 135.422 130.798 136.361 130.798C137.133 130.798 137.798 131.048 138.214 131.538V130.678C138.214 130.01 137.668 129.604 136.872 129.604C136.23 129.604 135.671 129.843 135.172 130.332L134.661 129.461C135.327 128.829 136.159 128.53 137.074 128.53C138.345 128.53 139.462 129.067 139.462 130.619V134.437ZM136.848 133.721C137.394 133.721 137.929 133.519 138.214 133.125V132.254C137.929 131.86 137.394 131.657 136.848 131.657C136.147 131.657 135.624 132.063 135.624 132.695C135.624 133.316 136.147 133.721 136.848 133.721ZM142.803 134.581C141.84 134.581 141.329 134.056 141.329 133.101V129.771H140.379V128.674H141.329V127.098H142.577V128.674H143.741V129.771H142.577V132.791C142.577 133.184 142.767 133.471 143.124 133.471C143.361 133.471 143.587 133.375 143.682 133.268L143.979 134.211C143.753 134.425 143.385 134.581 142.803 134.581ZM146.419 127.444C146.419 128.268 145.956 129.02 145.302 129.485L144.744 129.02C145.124 128.793 145.516 128.304 145.599 127.898C145.564 127.91 145.469 127.934 145.397 127.934C144.993 127.934 144.684 127.623 144.684 127.182C144.684 126.728 145.053 126.358 145.492 126.358C145.98 126.358 146.419 126.752 146.419 127.444ZM149.376 134.581C148.402 134.581 147.511 134.27 146.917 133.686L147.487 132.779C147.891 133.196 148.687 133.59 149.436 133.59C150.184 133.59 150.565 133.268 150.565 132.814C150.565 131.681 147.095 132.492 147.095 130.285C147.095 129.342 147.903 128.53 149.353 128.53C150.327 128.53 151.064 128.876 151.587 129.342L151.064 130.225C150.719 129.831 150.077 129.533 149.364 129.533C148.711 129.533 148.295 129.831 148.295 130.237C148.295 131.263 151.765 130.499 151.765 132.791C151.765 133.805 150.921 134.581 149.376 134.581ZM157.32 134.437H156.072V128.674H157.32V129.521C157.748 128.972 158.437 128.542 159.185 128.542V129.783C159.079 129.759 158.948 129.748 158.793 129.748C158.271 129.748 157.569 130.106 157.32 130.511V134.437ZM160.81 127.969C160.394 127.969 160.038 127.623 160.038 127.194C160.038 126.764 160.394 126.418 160.81 126.418C161.238 126.418 161.582 126.764 161.582 127.194C161.582 127.623 161.238 127.969 160.81 127.969ZM161.44 134.437H160.192V128.674H161.44V134.437ZM165.386 136.776C164.413 136.776 163.688 136.562 162.986 135.917L163.568 135.01C164.032 135.547 164.626 135.75 165.386 135.75C166.206 135.75 167.086 135.368 167.086 134.187V133.495C166.646 134.067 165.993 134.449 165.244 134.449C163.782 134.449 162.701 133.387 162.701 131.49C162.701 129.628 163.77 128.53 165.244 128.53C165.969 128.53 166.622 128.864 167.086 129.473V128.674H168.333L168.334 134.139C168.334 136.216 166.801 136.776 165.386 136.776ZM165.613 133.34C166.195 133.34 166.812 132.993 167.086 132.564V130.416C166.812 129.986 166.195 129.64 165.612 129.64C164.626 129.64 163.996 130.38 163.996 131.49C163.996 132.6 164.626 133.34 165.613 133.34ZM175.084 134.437H173.837V130.81C173.837 129.915 173.373 129.64 172.672 129.64C172.042 129.64 171.496 130.022 171.199 130.416V134.437H169.951V126.478H171.199V129.461C171.579 129.008 172.328 128.53 173.231 128.53C174.467 128.53 175.084 129.175 175.084 130.356V134.437ZM178.428 134.581C177.465 134.581 176.954 134.056 176.954 133.101V129.771H176.004V128.674H176.954V127.098H178.202V128.674H179.366V129.771H178.202V132.791C178.202 133.184 178.392 133.471 178.748 133.471C178.986 133.471 179.212 133.375 179.307 133.268L179.604 134.211C179.378 134.425 179.01 134.581 178.428 134.581ZM182.043 133.984C182.043 134.807 181.58 135.559 180.926 136.025L180.368 135.559C180.748 135.332 181.14 134.843 181.223 134.437C181.188 134.449 181.093 134.473 181.021 134.473C180.617 134.473 180.309 134.163 180.309 133.721C180.309 133.268 180.677 132.898 181.117 132.898C181.604 132.898 182.043 133.292 182.043 133.984ZM187.082 127.969C186.666 127.969 186.309 127.623 186.309 127.194C186.309 126.764 186.666 126.418 187.082 126.418C187.509 126.418 187.854 126.764 187.854 127.194C187.854 127.623 187.509 127.969 187.082 127.969ZM187.711 134.437H186.464V128.674H187.711V134.437ZM191.053 134.581C190.09 134.581 189.579 134.056 189.579 133.101V129.771H188.629V128.674H189.579V127.098H190.827V128.674H191.992V129.771H190.827V132.791C190.827 133.184 191.017 133.471 191.374 133.471C191.611 133.471 191.837 133.375 191.932 133.268L192.229 134.211C192.004 134.425 191.635 134.581 191.053 134.581ZM194.669 127.444C194.669 128.268 194.205 129.02 193.552 129.485L192.993 129.02C193.373 128.793 193.766 128.304 193.849 127.898C193.813 127.91 193.718 127.934 193.647 127.934C193.243 127.934 192.934 127.623 192.934 127.182C192.934 126.728 193.302 126.358 193.742 126.358C194.229 126.358 194.669 126.752 194.669 127.444ZM197.626 134.581C196.651 134.581 195.76 134.27 195.166 133.686L195.736 132.779C196.14 133.196 196.937 133.59 197.685 133.59C198.434 133.59 198.814 133.268 198.814 132.814C198.814 131.681 195.344 132.492 195.344 130.285C195.344 129.342 196.152 128.53 197.602 128.53C198.576 128.53 199.313 128.876 199.836 129.342L199.313 130.225C198.968 129.831 198.327 129.533 197.614 129.533C196.96 129.533 196.544 129.831 196.544 130.237C196.544 131.263 200.014 130.499 200.014 132.791C200.014 133.805 199.17 134.581 197.626 134.581ZM206.045 134.581C205.083 134.581 204.572 134.056 204.572 133.101V129.771H203.621V128.674H204.572V127.098H205.82V128.674H206.984V129.771H205.82V132.791C205.82 133.184 206.01 133.471 206.366 133.471C206.604 133.471 206.83 133.375 206.925 133.268L207.222 134.211C206.996 134.425 206.628 134.581 206.045 134.581ZM213.25 134.437H212.002V130.81C212.002 129.915 211.539 129.64 210.838 129.64C210.208 129.64 209.661 130.022 209.364 130.416V134.437H208.116V126.478H209.364V129.461C209.744 129.008 210.493 128.53 211.396 128.53C212.632 128.53 213.25 129.175 213.25 130.356V134.437ZM217.52 134.581C215.797 134.581 214.513 133.375 214.513 131.55C214.513 129.879 215.725 128.53 217.425 128.53C219.148 128.53 220.253 129.855 220.253 131.669V131.967H215.821C215.916 132.838 216.569 133.554 217.65 133.554C218.209 133.554 218.874 133.328 219.278 132.922L219.849 133.745C219.278 134.294 218.435 134.581 217.52 134.581ZM219.041 131.084C219.017 130.404 218.554 129.557 217.425 129.557C216.355 129.557 215.868 130.38 215.809 131.084H219.041ZM226.081 134.437H224.834V129.771H223.883V128.674H224.834V128.351C224.834 127.062 225.594 126.358 226.652 126.358C227.044 126.358 227.4 126.442 227.65 126.585L227.376 127.516C227.258 127.432 227.091 127.385 226.877 127.385C226.39 127.385 226.081 127.707 226.081 128.351V128.674H227.246V129.771H226.081V134.437ZM228.814 127.969C228.398 127.969 228.042 127.623 228.042 127.194C228.042 126.764 228.398 126.418 228.814 126.418C229.242 126.418 229.587 126.764 229.587 127.194C229.587 127.623 229.242 127.969 228.814 127.969ZM229.444 134.437H228.196V128.674H229.444V134.437ZM232.306 134.437H231.058V128.674H232.306V129.521C232.734 128.972 233.423 128.542 234.172 128.542V129.783C234.065 129.759 233.934 129.748 233.779 129.748C233.257 129.748 232.556 130.106 232.306 130.511V134.437ZM237.138 134.581C236.164 134.581 235.272 134.27 234.678 133.686L235.249 132.779C235.653 133.196 236.449 133.59 237.197 133.59C237.946 133.59 238.326 133.268 238.326 132.814C238.326 131.681 234.857 132.492 234.857 130.285C234.857 129.342 235.665 128.53 237.114 128.53C238.089 128.53 238.825 128.876 239.348 129.342L238.825 130.225C238.481 129.831 237.839 129.533 237.126 129.533C236.473 129.533 236.057 129.831 236.057 130.237C236.057 131.263 239.526 130.499 239.526 132.791C239.526 133.805 238.683 134.581 237.138 134.581ZM242.506 134.581C241.543 134.581 241.032 134.056 241.032 133.101V129.771H240.081V128.674H241.032V127.098H242.28V128.674H243.444V129.771H242.28V132.791C242.28 133.184 242.47 133.471 242.826 133.471C243.064 133.471 243.29 133.375 243.385 133.268L243.682 134.211C243.456 134.425 243.088 134.581 242.506 134.581ZM249.589 134.581C248.615 134.581 247.724 134.27 247.13 133.686L247.7 132.779C248.104 133.196 248.9 133.59 249.649 133.59C250.397 133.59 250.778 133.268 250.778 132.814C250.778 131.681 247.308 132.492 247.308 130.285C247.308 129.342 248.116 128.53 249.566 128.53C250.54 128.53 251.277 128.876 251.799 129.342L251.277 130.225C250.932 129.831 250.29 129.533 249.577 129.533C248.924 129.533 248.508 129.831 248.508 130.237C248.508 131.263 251.978 130.499 251.978 132.791C251.978 133.805 251.134 134.581 249.589 134.581ZM254.957 134.581C253.994 134.581 253.483 134.056 253.483 133.101V129.771H252.533V128.674H253.483V127.098H254.731V128.674H255.896V129.771H254.731V132.791C254.731 133.184 254.921 133.471 255.278 133.471C255.515 133.471 255.741 133.375 255.836 133.268L256.133 134.211C255.907 134.425 255.539 134.581 254.957 134.581ZM259.678 134.581C257.955 134.581 256.671 133.375 256.671 131.55C256.671 129.879 257.883 128.53 259.583 128.53C261.306 128.53 262.411 129.855 262.411 131.669V131.967H257.978C258.073 132.838 258.727 133.554 259.808 133.554C260.367 133.554 261.032 133.328 261.436 132.922L262.007 133.745C261.436 134.294 260.593 134.581 259.678 134.581ZM261.199 131.084C261.175 130.404 260.711 129.557 259.583 129.557C258.513 129.557 258.026 130.38 257.967 131.084H261.199ZM266.732 134.581C266.007 134.581 265.353 134.258 264.89 133.638V136.633H263.642V128.674H264.89V129.461C265.318 128.888 265.983 128.53 266.732 128.53C268.217 128.53 269.275 129.652 269.275 131.55C269.275 133.447 268.217 134.581 266.732 134.581ZM266.363 133.471C267.35 133.471 267.979 132.671 267.979 131.55C267.979 130.44 267.35 129.64 266.363 129.64C265.781 129.64 265.163 129.986 264.89 130.416V132.695C265.163 133.113 265.781 133.471 266.363 133.471ZM271.096 134.569C270.644 134.569 270.264 134.187 270.264 133.733C270.264 133.28 270.644 132.898 271.096 132.898C271.548 132.898 271.928 133.28 271.928 133.733C271.928 134.187 271.548 134.569 271.096 134.569ZM283.322 134.437H281.98L277.844 128.757V134.437H276.454V126.478H277.88L281.932 132.003V126.478H283.322V134.437ZM287.561 134.581C285.743 134.581 284.614 133.208 284.614 131.55C284.614 129.903 285.743 128.53 287.561 128.53C289.403 128.53 290.52 129.903 290.52 131.55C290.52 133.208 289.403 134.581 287.561 134.581ZM287.561 133.471C288.63 133.471 289.225 132.576 289.225 131.55C289.225 130.535 288.63 129.64 287.561 129.64C286.503 129.64 285.909 130.535 285.909 131.55C285.909 132.576 286.503 133.471 287.561 133.471ZM298.092 134.437H296.785L295.454 130.213L294.124 134.437H292.817L291.034 128.674H292.329L293.541 132.862L294.908 128.674H296.001L297.368 132.862L298.58 128.674H299.875L298.092 134.437ZM305.516 134.581C304.553 134.581 304.042 134.056 304.042 133.101V129.771H303.092V128.674H304.042V127.098H305.29V128.674H306.454V129.771H305.29V132.791C305.29 133.184 305.48 133.471 305.837 133.471C306.074 133.471 306.3 133.375 306.395 133.268L306.692 134.211C306.466 134.425 306.098 134.581 305.516 134.581ZM312.721 134.437H311.473V130.81C311.473 129.915 311.01 129.64 310.309 129.64C309.679 129.64 309.132 130.022 308.835 130.416V134.437H307.587V126.478H308.835V129.461C309.215 129.008 309.964 128.53 310.867 128.53C312.103 128.53 312.721 129.175 312.721 130.356V134.437ZM316.991 134.581C315.268 134.581 313.985 133.375 313.985 131.55C313.985 129.879 315.197 128.53 316.896 128.53C318.619 128.53 319.724 129.855 319.724 131.669V131.967H315.292C315.387 132.838 316.04 133.554 317.122 133.554C317.68 133.554 318.345 133.328 318.749 132.922L319.32 133.745C318.749 134.294 317.906 134.581 316.991 134.581ZM318.512 131.084C318.488 130.404 318.025 129.557 316.896 129.557C315.826 129.557 315.339 130.38 315.28 131.084H318.512ZM70.0434 149.924C68.3204 149.924 67.0371 148.719 67.0371 146.893C67.0371 145.222 68.2491 143.873 69.9484 143.873C71.6713 143.873 72.7764 145.198 72.7764 147.012V147.31H68.3442C68.4393 148.182 69.0928 148.898 70.1741 148.898C70.7326 148.898 71.398 148.671 71.802 148.265L72.3724 149.088C71.802 149.637 70.9584 149.924 70.0434 149.924ZM71.5644 146.427C71.5406 145.747 71.0772 144.9 69.9484 144.9C68.8789 144.9 68.3917 145.723 68.3323 146.427H71.5644ZM76.5389 148.814C77.1211 148.814 77.739 148.456 78.0123 148.038V145.759C77.739 145.329 77.1211 144.983 76.5389 144.983C75.5526 144.983 74.9228 145.783 74.9228 146.893C74.9228 148.014 75.5526 148.814 76.5389 148.814ZM76.1705 149.924C74.6852 149.924 73.6276 148.79 73.6276 146.893C73.6276 144.995 74.6852 143.873 76.1705 143.873C76.9191 143.873 77.5845 144.231 78.0123 144.804V144.017H79.26V151.976H78.0123V148.981C77.5489 149.602 76.8954 149.924 76.1705 149.924ZM85.9987 149.781H84.7513V149.017C84.3354 149.482 83.6224 149.924 82.7194 149.924C81.4836 149.924 80.8776 149.279 80.8776 148.098V144.017H82.1252V147.645C82.1252 148.54 82.5768 148.814 83.2779 148.814C83.9076 148.814 84.4542 148.456 84.7513 148.062V144.017H85.9987V149.781ZM92.3729 149.781H91.1252V149.16C90.6974 149.649 90.032 149.924 89.2715 149.924C88.3328 149.924 87.2753 149.291 87.2753 148.014C87.2753 146.69 88.3328 146.141 89.2715 146.141C90.0439 146.141 90.7093 146.391 91.1252 146.881V146.022C91.1252 145.353 90.5786 144.948 89.7825 144.948C89.1408 144.948 88.5823 145.186 88.0833 145.675L87.5723 144.804C88.2377 144.172 89.0695 143.873 89.9845 143.873C91.2559 143.873 92.3729 144.41 92.3729 145.962V149.781ZM89.7587 149.065C90.3053 149.065 90.84 148.862 91.1252 148.468V147.597C90.84 147.203 90.3053 147 89.7587 147C89.0576 147 88.5348 147.406 88.5348 148.038C88.5348 148.659 89.0576 149.065 89.7587 149.065ZM95.7136 149.924C94.7511 149.924 94.2402 149.399 94.2402 148.444V145.115H93.2896V144.017H94.2402V142.441H95.4878V144.017H96.6523V145.115H95.4878V148.134C95.4878 148.528 95.678 148.814 96.0344 148.814C96.2721 148.814 96.4979 148.719 96.5929 148.611L96.89 149.554C96.6642 149.769 96.2959 149.924 95.7136 149.924ZM98.4025 143.313C97.9866 143.313 97.6301 142.967 97.6301 142.537C97.6301 142.107 97.9866 141.761 98.4025 141.761C98.8302 141.761 99.1748 142.107 99.1748 142.537C99.1748 142.967 98.8302 143.313 98.4025 143.313ZM99.0323 149.781H97.7846V144.017H99.0323V149.781ZM103.241 149.924C101.423 149.924 100.294 148.551 100.294 146.893C100.294 145.246 101.423 143.873 103.241 143.873C105.083 143.873 106.2 145.246 106.2 146.893C106.2 148.551 105.083 149.924 103.241 149.924ZM103.241 148.814C104.311 148.814 104.905 147.919 104.905 146.893C104.905 145.878 104.311 144.983 103.241 144.983C102.184 144.983 101.59 145.878 101.59 146.893C101.59 147.919 102.184 148.814 103.241 148.814ZM112.584 149.781H111.337V146.177C111.337 145.282 110.885 144.983 110.184 144.983C109.542 144.983 108.996 145.365 108.711 145.759V149.781H107.463V144.017H108.711V144.804C109.091 144.351 109.828 143.873 110.731 143.873C111.966 143.873 112.584 144.542 112.584 145.723V149.781ZM118.504 149.781H117.257V141.821H118.504V149.781ZM122.713 149.924C120.895 149.924 119.767 148.551 119.767 146.893C119.767 145.246 120.895 143.873 122.713 143.873C124.555 143.873 125.672 145.246 125.672 146.893C125.672 148.551 124.555 149.924 122.713 149.924ZM122.713 148.814C123.783 148.814 124.377 147.919 124.377 146.893C124.377 145.878 123.783 144.983 122.713 144.983C121.656 144.983 121.062 145.878 121.062 146.893C121.062 147.919 121.656 148.814 122.713 148.814ZM129.525 149.924C127.707 149.924 126.578 148.551 126.578 146.893C126.578 145.246 127.707 143.873 129.525 143.873C131.367 143.873 132.484 145.246 132.484 146.893C132.484 148.551 131.367 149.924 129.525 149.924ZM129.525 148.814C130.594 148.814 131.188 147.919 131.188 146.893C131.188 145.878 130.594 144.983 129.525 144.983C128.467 144.983 127.873 145.878 127.873 146.893C127.873 147.919 128.467 148.814 129.525 148.814ZM139.117 149.781H137.548L135.789 147.406L134.993 148.229V149.781H133.746V141.821H134.993V146.797L137.524 144.017H139.069L136.681 146.63L139.117 149.781ZM141.961 149.924C140.986 149.924 140.095 149.614 139.501 149.029L140.071 148.122C140.475 148.54 141.272 148.933 142.02 148.933C142.769 148.933 143.149 148.611 143.149 148.158C143.149 147.024 139.679 147.835 139.679 145.628C139.679 144.685 140.487 143.873 141.937 143.873C142.911 143.873 143.648 144.22 144.171 144.685L143.648 145.568C143.303 145.174 142.662 144.876 141.949 144.876C141.295 144.876 140.879 145.174 140.879 145.58C140.879 146.606 144.349 145.843 144.349 148.134C144.349 149.148 143.506 149.924 141.961 149.924ZM149.905 149.781H148.657V141.821H149.905V149.781ZM152.142 143.313C151.726 143.313 151.369 142.967 151.369 142.537C151.369 142.107 151.726 141.761 152.142 141.761C152.569 141.761 152.914 142.107 152.914 142.537C152.914 142.967 152.569 143.313 152.142 143.313ZM152.771 149.781H151.524V144.017H152.771V149.781ZM159.761 149.781H158.192L156.434 147.406L155.638 148.229V149.781H154.39V141.821H155.638V146.797L158.169 144.017H159.713L157.325 146.63L159.761 149.781ZM163.236 149.924C161.513 149.924 160.229 148.719 160.229 146.893C160.229 145.222 161.441 143.873 163.141 143.873C164.864 143.873 165.969 145.198 165.969 147.012V147.31H161.537C161.632 148.182 162.285 148.898 163.366 148.898C163.925 148.898 164.59 148.671 164.994 148.265L165.565 149.088C164.994 149.637 164.151 149.924 163.236 149.924ZM164.757 146.427C164.733 145.747 164.27 144.9 163.141 144.9C162.071 144.9 161.584 145.723 161.525 146.427H164.757ZM171.975 149.924C171.013 149.924 170.502 149.399 170.502 148.444V145.115H169.551V144.017H170.502V142.441H171.75V144.017H172.914V145.115H171.75V148.134C171.75 148.528 171.94 148.814 172.296 148.814C172.534 148.814 172.76 148.719 172.855 148.611L173.152 149.554C172.926 149.769 172.558 149.924 171.975 149.924ZM179.181 149.781H177.933V146.153C177.933 145.258 177.469 144.983 176.768 144.983C176.139 144.983 175.592 145.365 175.295 145.759V149.781H174.047V141.821H175.295V144.804C175.675 144.351 176.424 143.873 177.327 143.873C178.563 143.873 179.181 144.518 179.181 145.699V149.781ZM181.419 143.313C181.003 143.313 180.646 142.967 180.646 142.537C180.646 142.107 181.003 141.761 181.419 141.761C181.846 141.761 182.191 142.107 182.191 142.537C182.191 142.967 181.846 143.313 181.419 143.313ZM182.048 149.781H180.801V144.017H182.048V149.781ZM185.628 149.924C184.653 149.924 183.762 149.614 183.168 149.029L183.738 148.122C184.142 148.54 184.938 148.933 185.687 148.933C186.436 148.933 186.816 148.611 186.816 148.158C186.816 147.024 183.346 147.835 183.346 145.628C183.346 144.685 184.154 143.873 185.604 143.873C186.578 143.873 187.315 144.22 187.838 144.685L187.315 145.568C186.97 145.174 186.329 144.876 185.616 144.876C184.962 144.876 184.546 145.174 184.546 145.58C184.546 146.606 188.016 145.843 188.016 148.134C188.016 149.148 187.172 149.924 185.628 149.924ZM189.913 145.604C189.462 145.604 189.081 145.222 189.081 144.769C189.081 144.315 189.462 143.933 189.913 143.933C190.365 143.933 190.745 144.315 190.745 144.769C190.745 145.222 190.365 145.604 189.913 145.604ZM189.913 149.912C189.462 149.912 189.081 149.53 189.081 149.077C189.081 148.623 189.462 148.241 189.913 148.241C190.365 148.241 190.745 148.623 190.745 149.077C190.745 149.53 190.365 149.912 189.913 149.912ZM200.762 149.781H195.023V148.683C198.1 146.344 199.3 145.306 199.3 144.16C199.3 143.325 198.587 142.943 197.863 142.943C196.936 142.943 196.223 143.325 195.724 143.897L194.916 142.978C195.617 142.131 196.734 141.702 197.839 141.702C199.372 141.702 200.714 142.573 200.714 144.16C200.714 145.628 199.372 146.94 197.245 148.551H200.762V149.781ZM207.33 149.781H205.927L204.442 147.656L202.945 149.781H201.555L203.658 146.821L201.673 144.017H203.076L204.442 145.974L205.797 144.017H207.199L205.214 146.821L207.33 149.781ZM216.062 145.067H210.787V144.255H216.062V145.067ZM216.062 147.334H210.787V146.535H216.062V147.334ZM222.667 147.43H219.815V146.356H222.667V147.43ZM226.3 149.924C224.886 149.924 223.84 149.351 223.306 148.635L224.054 147.716C224.565 148.313 225.409 148.683 226.253 148.683C227.298 148.683 227.904 148.205 227.904 147.465C227.904 146.678 227.275 146.344 226.146 146.344C225.813 146.344 225.35 146.344 225.231 146.356V145.103C225.373 145.115 225.837 145.115 226.146 145.115C227.073 145.115 227.774 144.792 227.774 144.064C227.774 143.325 227.061 142.943 226.169 142.943C225.361 142.943 224.696 143.253 224.126 143.826L223.413 142.955C224.019 142.239 224.981 141.702 226.3 141.702C228.011 141.702 229.164 142.513 229.164 143.85C229.164 144.912 228.261 145.532 227.441 145.675C228.213 145.747 229.283 146.38 229.283 147.609C229.283 148.957 228.13 149.924 226.3 149.924ZM231.293 149.912C230.842 149.912 230.462 149.53 230.462 149.077C230.462 148.623 230.842 148.241 231.293 148.241C231.745 148.241 232.125 148.623 232.125 149.077C232.125 149.53 231.745 149.912 231.293 149.912ZM243.556 149.781H242.166V146.308H238.043V149.781H236.652V141.821H238.043V145.079H242.166V141.821H243.556V149.781ZM247.794 149.924C245.976 149.924 244.847 148.551 244.847 146.893C244.847 145.246 245.976 143.873 247.794 143.873C249.636 143.873 250.753 145.246 250.753 146.893C250.753 148.551 249.636 149.924 247.794 149.924ZM247.794 148.814C248.864 148.814 249.458 147.919 249.458 146.893C249.458 145.878 248.864 144.983 247.794 144.983C246.737 144.983 246.142 145.878 246.142 146.893C246.142 147.919 246.737 148.814 247.794 148.814ZM258.325 149.781H257.018L255.687 145.556L254.356 149.781H253.049L251.266 144.017H252.562L253.774 148.205L255.14 144.017H256.233L257.6 148.205L258.812 144.017H260.107L258.325 149.781ZM270.335 149.781H269.028L267.697 145.556L266.366 149.781H265.059L263.276 144.017H264.572L265.784 148.205L267.15 144.017H268.243L269.61 148.205L270.822 144.017H272.117L270.335 149.781ZM275.574 149.924C273.756 149.924 272.627 148.551 272.627 146.893C272.627 145.246 273.756 143.873 275.574 143.873C277.416 143.873 278.533 145.246 278.533 146.893C278.533 148.551 277.416 149.924 275.574 149.924ZM275.574 148.814C276.643 148.814 277.238 147.919 277.238 146.893C277.238 145.878 276.643 144.983 275.574 144.983C274.516 144.983 273.922 145.878 273.922 146.893C273.922 147.919 274.516 148.814 275.574 148.814ZM284.917 149.781H283.669V149.017C283.254 149.482 282.541 149.924 281.638 149.924C280.402 149.924 279.796 149.279 279.796 148.098V144.017H281.043V147.645C281.043 148.54 281.495 148.814 282.196 148.814C282.826 148.814 283.372 148.456 283.669 148.062V144.017H284.917V149.781ZM287.785 149.781H286.537V141.821H287.785V149.781ZM294.691 149.781H293.444V148.993C293.004 149.566 292.339 149.924 291.602 149.924C290.129 149.924 289.047 148.802 289.047 146.905C289.047 145.043 290.117 143.873 291.602 143.873C292.315 143.873 292.98 144.208 293.444 144.816V141.821H294.691V149.781ZM291.958 148.814C292.553 148.814 293.159 148.48 293.444 148.05V145.759C293.159 145.329 292.553 144.983 291.958 144.983C290.972 144.983 290.342 145.783 290.342 146.905C290.342 148.014 290.972 148.814 291.958 148.814ZM299.11 152.036L299.3 150.914C299.431 150.974 299.633 151.01 299.775 151.01C300.168 151.01 300.429 150.89 300.595 150.509L300.881 149.852L298.528 144.017H299.859L301.534 148.337L303.21 144.017H304.552L301.784 150.819C301.392 151.797 300.702 152.108 299.811 152.12C299.633 152.12 299.288 152.084 299.11 152.036ZM307.926 149.924C306.108 149.924 304.979 148.551 304.979 146.893C304.979 145.246 306.108 143.873 307.926 143.873C309.768 143.873 310.885 145.246 310.885 146.893C310.885 148.551 309.768 149.924 307.926 149.924ZM307.926 148.814C308.996 148.814 309.59 147.919 309.59 146.893C309.59 145.878 308.996 144.983 307.926 144.983C306.869 144.983 306.274 145.878 306.274 146.893C306.274 147.919 306.869 148.814 307.926 148.814ZM317.269 149.781H316.022V149.017C315.606 149.482 314.893 149.924 313.99 149.924C312.754 149.924 312.148 149.279 312.148 148.098V144.017H313.396V147.645C313.396 148.54 313.847 148.814 314.548 148.814C315.178 148.814 315.725 148.456 316.022 148.062V144.017H317.269V149.781ZM70.0078 165.267C68.261 165.267 67.0371 163.99 67.0371 162.236C67.0371 160.494 68.261 159.217 70.0078 159.217C71.1247 159.217 71.802 159.694 72.2061 160.243L71.3861 161.007C71.0653 160.553 70.6257 160.326 70.0672 160.326C69.0215 160.326 68.3323 161.114 68.3323 162.236C68.3323 163.358 69.0215 164.157 70.0672 164.157C70.6257 164.157 71.0653 163.918 71.3861 163.477L72.2061 164.241C71.802 164.79 71.1247 165.267 70.0078 165.267ZM75.8904 165.267C74.0724 165.267 72.9435 163.895 72.9435 162.236C72.9435 160.589 74.0724 159.217 75.8904 159.217C77.7322 159.217 78.8492 160.589 78.8492 162.236C78.8492 163.895 77.7322 165.267 75.8904 165.267ZM75.8904 164.157C76.9599 164.157 77.554 163.262 77.554 162.236C77.554 161.222 76.9599 160.326 75.8904 160.326C74.8329 160.326 74.2387 161.222 74.2387 162.236C74.2387 163.262 74.8329 164.157 75.8904 164.157ZM85.2331 165.124H83.9854V161.52C83.9854 160.625 83.5338 160.326 82.8328 160.326C82.1911 160.326 81.6445 160.708 81.3593 161.102V165.124H80.1116V159.36H81.3593V160.147C81.7396 159.694 82.4763 159.217 83.3794 159.217C84.6152 159.217 85.2331 159.885 85.2331 161.066V165.124ZM88.5764 165.267C87.6139 165.267 87.103 164.742 87.103 163.787V160.458H86.1523V159.36H87.103V157.785H88.3506V159.36H89.5151V160.458H88.3506V163.477C88.3506 163.871 88.5407 164.157 88.8972 164.157C89.1349 164.157 89.3607 164.062 89.4557 163.954L89.7528 164.897C89.527 165.112 89.1586 165.267 88.5764 165.267ZM91.2661 158.656C90.8502 158.656 90.4937 158.31 90.4937 157.88C90.4937 157.45 90.8502 157.104 91.2661 157.104C91.6939 157.104 92.0385 157.45 92.0385 157.88C92.0385 158.31 91.6939 158.656 91.2661 158.656ZM91.8959 165.124H90.6482V159.36H91.8959V165.124ZM98.6359 165.124H97.3882V161.52C97.3882 160.625 96.9367 160.326 96.2356 160.326C95.5939 160.326 95.0473 160.708 94.7621 161.102V165.124H93.5145V159.36H94.7621V160.147C95.1424 159.694 95.8791 159.217 96.7822 159.217C98.018 159.217 98.6359 159.885 98.6359 161.066V165.124ZM105.378 165.124H104.13V164.36C103.714 164.825 103.001 165.267 102.098 165.267C100.862 165.267 100.256 164.623 100.256 163.441V159.36H101.504V162.988C101.504 163.883 101.955 164.157 102.656 164.157C103.286 164.157 103.833 163.799 104.13 163.405V159.36H105.378V165.124ZM109.649 165.267C107.926 165.267 106.642 164.062 106.642 162.236C106.642 160.565 107.854 159.217 109.553 159.217C111.276 159.217 112.382 160.541 112.382 162.355V162.654H107.949C108.044 163.525 108.698 164.241 109.779 164.241C110.338 164.241 111.003 164.014 111.407 163.608L111.978 164.432C111.407 164.981 110.563 165.267 109.649 165.267ZM111.169 161.77C111.146 161.09 110.682 160.243 109.553 160.243C108.484 160.243 107.997 161.066 107.937 161.77H111.169ZM114.575 162.785C114.29 162.51 114.147 162.164 114.147 161.77C114.147 160.315 116.06 160.159 116.06 159.145C116.06 158.68 115.704 158.286 114.931 158.286C114.206 158.286 113.684 158.62 113.28 159.121L112.483 158.226C113.089 157.486 114.004 157.045 115.074 157.045C116.571 157.045 117.486 157.844 117.486 158.918C117.486 160.684 115.359 160.828 115.359 161.902C115.359 162.093 115.466 162.307 115.62 162.439L114.575 162.785ZM115.002 165.255C114.551 165.255 114.171 164.873 114.171 164.42C114.171 163.966 114.551 163.584 115.002 163.584C115.454 163.584 115.834 163.966 115.834 164.42C115.834 164.873 115.454 165.255 115.002 165.255Z" fill="white"/>
</g>
<g filter="url(#filter2_d_13589_70660)">
<path d="M346.293 186.306H29.7065V226.71H346.293V186.306Z" fill="#1A1A1A"/>
<path d="M345.869 186.732H30.1309V226.284H345.869V186.732Z" stroke="white" stroke-opacity="0.05"/>
<path d="M54.8513 196.407H44.7934C42.0159 196.407 39.7644 198.668 39.7644 201.457V211.558C39.7644 214.348 42.0159 216.609 44.7934 216.609H54.8513C57.6287 216.609 59.8802 214.348 59.8802 211.558V201.457C59.8802 198.668 57.6287 196.407 54.8513 196.407Z" fill="#F0F5FC"/>
<path d="M49.5718 206.476C48.681 206.476 47.9521 206.192 47.3853 205.622C46.8184 205.053 46.535 204.321 46.535 203.426C46.535 202.531 46.8184 201.799 47.3853 201.231C47.9521 200.661 48.681 200.376 49.5718 200.376C50.4626 200.376 51.1914 200.661 51.7583 201.231C52.3251 201.799 52.6086 202.531 52.6086 203.426C52.6086 204.321 52.3251 205.053 51.7583 205.622C51.1914 206.192 50.4626 206.476 49.5718 206.476ZM43.0933 213.002V211.091C43.0933 210.576 43.2214 210.136 43.4779 209.77C43.7343 209.403 44.065 209.125 44.4699 208.936C45.3742 208.53 46.2414 208.224 47.0715 208.021C47.9016 207.818 48.735 207.716 49.5718 207.716C50.4086 207.716 51.2386 207.821 52.0619 208.031C52.8853 208.242 53.7486 208.544 54.6517 208.94C55.0743 209.131 55.413 209.409 55.6679 209.773C55.9228 210.136 56.0503 210.576 56.0503 211.091V213.002H43.0933ZM44.308 211.782H54.8356V211.091C54.8356 210.875 54.7715 210.667 54.6432 210.471C54.515 210.275 54.3565 210.129 54.1675 210.034C53.3037 209.614 52.5141 209.326 51.7988 209.17C51.0835 209.014 50.3411 208.936 49.5718 208.936C48.8024 208.936 48.0534 209.014 47.3245 209.17C46.5957 209.326 45.8061 209.614 44.9558 210.034C44.7668 210.129 44.6116 210.275 44.4901 210.471C44.3687 210.667 44.308 210.875 44.308 211.091V211.782ZM49.5718 205.256C50.0982 205.256 50.5334 205.083 50.8776 204.737C51.2217 204.392 51.3939 203.955 51.3939 203.426C51.3939 202.898 51.2217 202.461 50.8776 202.115C50.5334 201.769 50.0982 201.596 49.5718 201.596C49.0454 201.596 48.6101 201.769 48.2659 202.115C47.9218 202.461 47.7497 202.898 47.7497 203.426C47.7497 203.955 47.9218 204.392 48.2659 204.737C48.6101 205.083 49.0454 205.256 49.5718 205.256Z" fill="#3C50E0"/>
<path d="M68.8195 209.918H67.4292V201.959H68.8195V209.918ZM79.8301 209.918H78.5231L77.1922 205.694L75.8614 209.918H74.5543L72.7719 204.154H74.0671L75.2791 208.343L76.6456 204.154H77.7388L79.1053 208.343L80.3173 204.154H81.6125L79.8301 209.918ZM85.0693 210.061C83.2512 210.061 82.1224 208.689 82.1224 207.03C82.1224 205.384 83.2512 204.011 85.0693 204.011C86.9111 204.011 88.0281 205.384 88.0281 207.03C88.0281 208.689 86.9111 210.061 85.0693 210.061ZM85.0693 208.952C86.1387 208.952 86.7329 208.057 86.7329 207.03C86.7329 206.016 86.1387 205.121 85.0693 205.121C84.0117 205.121 83.4176 206.016 83.4176 207.03C83.4176 208.057 84.0117 208.952 85.0693 208.952ZM94.4116 209.918H93.1639V209.155C92.748 209.62 92.035 210.061 91.132 210.061C89.8962 210.061 89.2902 209.417 89.2902 208.236V204.154H90.5378V207.782C90.5378 208.677 90.9894 208.952 91.6904 208.952C92.3202 208.952 92.8668 208.594 93.1639 208.2V204.154H94.4116V209.918ZM97.2804 209.918H96.0327V201.959H97.2804V209.918ZM104.187 209.918H102.939V209.131C102.499 209.703 101.834 210.061 101.097 210.061C99.6238 210.061 98.5425 208.94 98.5425 207.042C98.5425 205.181 99.6119 204.011 101.097 204.011C101.81 204.011 102.476 204.345 102.939 204.954V201.959H104.187V209.918ZM101.454 208.952C102.048 208.952 102.654 208.618 102.939 208.188V205.897C102.654 205.467 102.048 205.121 101.454 205.121C100.467 205.121 99.8377 205.921 99.8377 207.042C99.8377 208.152 100.467 208.952 101.454 208.952ZM114.143 209.918H112.895V209.131C112.455 209.703 111.79 210.061 111.053 210.061C109.58 210.061 108.498 208.94 108.498 207.042C108.498 205.181 109.568 204.011 111.053 204.011C111.766 204.011 112.432 204.345 112.895 204.954V201.959H114.143V209.918ZM111.41 208.952C112.004 208.952 112.61 208.618 112.895 208.188V205.897C112.61 205.467 112.004 205.121 111.41 205.121C110.423 205.121 109.794 205.921 109.794 207.042C109.794 208.152 110.423 208.952 111.41 208.952ZM116.377 203.45C115.962 203.45 115.605 203.104 115.605 202.675C115.605 202.245 115.962 201.899 116.377 201.899C116.805 201.899 117.15 202.245 117.15 202.675C117.15 203.104 116.805 203.45 116.377 203.45ZM117.007 209.918H115.76V204.154H117.007V209.918ZM121.478 209.918H120.135L117.794 204.154H119.125L120.8 208.474L122.476 204.154H123.819L121.478 209.918ZM125.22 203.45C124.804 203.45 124.447 203.104 124.447 202.675C124.447 202.245 124.804 201.899 125.22 201.899C125.648 201.899 125.992 202.245 125.992 202.675C125.992 203.104 125.648 203.45 125.22 203.45ZM125.85 209.918H124.602V204.154H125.85V209.918ZM132.756 209.918H131.508V209.131C131.069 209.703 130.403 210.061 129.666 210.061C128.193 210.061 127.112 208.94 127.112 207.042C127.112 205.181 128.181 204.011 129.666 204.011C130.379 204.011 131.045 204.345 131.508 204.954V201.959H132.756V209.918ZM130.023 208.952C130.617 208.952 131.223 208.618 131.508 208.188V205.897C131.223 205.467 130.617 205.121 130.023 205.121C129.037 205.121 128.407 205.921 128.407 207.042C128.407 208.152 129.037 208.952 130.023 208.952ZM137.023 210.061C135.3 210.061 134.016 208.856 134.016 207.03C134.016 205.36 135.228 204.011 136.928 204.011C138.651 204.011 139.756 205.336 139.756 207.15V207.448H135.323C135.418 208.319 136.072 209.035 137.153 209.035C137.712 209.035 138.377 208.808 138.781 208.403L139.352 209.226C138.781 209.775 137.938 210.061 137.023 210.061ZM138.544 206.565C138.52 205.885 138.056 205.037 136.928 205.037C135.858 205.037 135.371 205.861 135.312 206.565H138.544ZM145.286 208.188C145.559 208.618 146.177 208.952 146.76 208.952C147.758 208.952 148.388 208.164 148.388 207.042C148.388 205.921 147.758 205.121 146.76 205.121C146.177 205.121 145.559 205.479 145.286 205.909V208.188ZM145.286 209.918H144.038V201.959H145.286V204.954C145.738 204.345 146.403 204.011 147.128 204.011C148.601 204.011 149.671 205.181 149.671 207.042C149.671 208.94 148.59 210.061 147.128 210.061C146.379 210.061 145.726 209.703 145.286 209.131V209.918ZM153.534 210.061C151.715 210.061 150.587 208.689 150.587 207.03C150.587 205.384 151.715 204.011 153.534 204.011C155.375 204.011 156.492 205.384 156.492 207.03C156.492 208.689 155.375 210.061 153.534 210.061ZM153.534 208.952C154.603 208.952 155.197 208.057 155.197 207.03C155.197 206.016 154.603 205.121 153.534 205.121C152.476 205.121 151.882 206.016 151.882 207.03C151.882 208.057 152.476 208.952 153.534 208.952ZM159.477 210.061C158.515 210.061 158.004 209.536 158.004 208.582V205.252H157.053V204.154H158.004V202.579H159.252V204.154H160.416V205.252H159.252V208.271C159.252 208.665 159.442 208.952 159.798 208.952C160.036 208.952 160.262 208.856 160.357 208.749L160.654 209.692C160.428 209.906 160.06 210.061 159.477 210.061ZM166.683 209.918H165.435V206.29C165.435 205.395 164.971 205.121 164.27 205.121C163.641 205.121 163.094 205.503 162.797 205.897V209.918H161.549V201.959H162.797V204.942C163.177 204.488 163.926 204.011 164.829 204.011C166.065 204.011 166.683 204.656 166.683 205.837V209.918ZM173.316 210.061C172.341 210.061 171.45 209.751 170.856 209.166L171.426 208.259C171.83 208.677 172.626 209.071 173.375 209.071C174.124 209.071 174.504 208.749 174.504 208.295C174.504 207.162 171.034 207.973 171.034 205.765C171.034 204.823 171.842 204.011 173.292 204.011C174.266 204.011 175.003 204.357 175.526 204.823L175.003 205.706C174.658 205.312 174.017 205.014 173.304 205.014C172.65 205.014 172.234 205.312 172.234 205.718C172.234 206.744 175.704 205.98 175.704 208.271C175.704 209.286 174.86 210.061 173.316 210.061ZM177.577 203.45C177.161 203.45 176.805 203.104 176.805 202.675C176.805 202.245 177.161 201.899 177.577 201.899C178.005 201.899 178.35 202.245 178.35 202.675C178.35 203.104 178.005 203.45 177.577 203.45ZM178.207 209.918H176.959V204.154H178.207V209.918ZM185.113 209.918H183.866V209.131C183.426 209.703 182.761 210.061 182.024 210.061C180.55 210.061 179.469 208.94 179.469 207.042C179.469 205.181 180.538 204.011 182.024 204.011C182.737 204.011 183.402 204.345 183.866 204.954V201.959H185.113V209.918ZM182.38 208.952C182.974 208.952 183.58 208.618 183.866 208.188V205.897C183.58 205.467 182.974 205.121 182.38 205.121C181.394 205.121 180.764 205.921 180.764 207.042C180.764 208.152 181.394 208.952 182.38 208.952ZM189.38 210.061C187.657 210.061 186.374 208.856 186.374 207.03C186.374 205.36 187.586 204.011 189.285 204.011C191.008 204.011 192.113 205.336 192.113 207.15V207.448H187.681C187.776 208.319 188.429 209.035 189.511 209.035C190.069 209.035 190.735 208.808 191.139 208.403L191.709 209.226C191.139 209.775 190.295 210.061 189.38 210.061ZM190.901 206.565C190.877 205.885 190.414 205.037 189.285 205.037C188.216 205.037 187.728 205.861 187.669 206.565H190.901ZM195.305 210.061C194.331 210.061 193.44 209.751 192.845 209.166L193.416 208.259C193.82 208.677 194.616 209.071 195.365 209.071C196.113 209.071 196.493 208.749 196.493 208.295C196.493 207.162 193.024 207.973 193.024 205.765C193.024 204.823 193.832 204.011 195.281 204.011C196.256 204.011 196.993 204.357 197.515 204.823L196.993 205.706C196.648 205.312 196.006 205.014 195.293 205.014C194.64 205.014 194.224 205.312 194.224 205.718C194.224 206.744 197.694 205.98 197.694 208.271C197.694 209.286 196.85 210.061 195.305 210.061ZM204.591 210.061C202.773 210.061 201.645 208.689 201.645 207.03C201.645 205.384 202.773 204.011 204.591 204.011C206.433 204.011 207.55 205.384 207.55 207.03C207.55 208.689 206.433 210.061 204.591 210.061ZM204.591 208.952C205.661 208.952 206.255 208.057 206.255 207.03C206.255 206.016 205.661 205.121 204.591 205.121C203.534 205.121 202.94 206.016 202.94 207.03C202.94 208.057 203.534 208.952 204.591 208.952ZM210.358 209.918H209.11V205.252H208.16V204.154H209.11V203.832C209.11 202.579 209.835 201.839 210.928 201.839C211.439 201.839 211.95 201.971 212.307 202.34L211.819 203.116C211.653 202.961 211.439 202.866 211.154 202.866C210.667 202.866 210.358 203.188 210.358 203.832V204.154H211.522V205.252H210.358V209.918ZM217.243 210.061C216.281 210.061 215.77 209.536 215.77 208.582V205.252H214.819V204.154H215.77V202.579H217.017V204.154H218.182V205.252H217.017V208.271C217.017 208.665 217.207 208.952 217.564 208.952C217.802 208.952 218.027 208.856 218.122 208.749L218.419 209.692C218.194 209.906 217.825 210.061 217.243 210.061ZM224.448 209.918H223.2V206.29C223.2 205.395 222.737 205.121 222.036 205.121C221.406 205.121 220.86 205.503 220.563 205.897V209.918H219.315V201.959H220.563V204.942C220.943 204.488 221.691 204.011 222.594 204.011C223.83 204.011 224.448 204.656 224.448 205.837V209.918ZM228.718 210.061C226.995 210.061 225.712 208.856 225.712 207.03C225.712 205.36 226.924 204.011 228.623 204.011C230.346 204.011 231.451 205.336 231.451 207.15V207.448H227.019C227.114 208.319 227.768 209.035 228.849 209.035C229.407 209.035 230.073 208.808 230.477 208.403L231.047 209.226C230.477 209.775 229.633 210.061 228.718 210.061ZM230.239 206.565C230.215 205.885 229.752 205.037 228.623 205.037C227.554 205.037 227.067 205.861 227.007 206.565H230.239ZM238.384 210.061C236.661 210.061 235.378 208.856 235.378 207.03C235.378 205.36 236.59 204.011 238.289 204.011C240.012 204.011 241.117 205.336 241.117 207.15V207.448H236.685C236.78 208.319 237.433 209.035 238.515 209.035C239.073 209.035 239.739 208.808 240.143 208.403L240.713 209.226C240.143 209.775 239.299 210.061 238.384 210.061ZM239.905 206.565C239.881 205.885 239.418 205.037 238.289 205.037C237.219 205.037 236.732 205.861 236.673 206.565H239.905ZM244.879 208.952C245.462 208.952 246.08 208.594 246.353 208.176V205.897C246.08 205.467 245.462 205.121 244.879 205.121C243.893 205.121 243.263 205.921 243.263 207.03C243.263 208.152 243.893 208.952 244.879 208.952ZM244.511 210.061C243.026 210.061 241.968 208.928 241.968 207.03C241.968 205.133 243.026 204.011 244.511 204.011C245.26 204.011 245.925 204.369 246.353 204.942V204.154H247.601V212.114H246.353V209.119C245.889 209.739 245.236 210.061 244.511 210.061ZM254.34 209.918H253.092V209.155C252.676 209.62 251.963 210.061 251.06 210.061C249.824 210.061 249.218 209.417 249.218 208.236V204.154H250.466V207.782C250.466 208.677 250.918 208.952 251.619 208.952C252.248 208.952 252.795 208.594 253.092 208.2V204.154H254.34V209.918ZM260.714 209.918H259.466V209.298C259.038 209.787 258.373 210.061 257.613 210.061C256.674 210.061 255.616 209.429 255.616 208.152C255.616 206.827 256.674 206.279 257.613 206.279C258.385 206.279 259.05 206.529 259.466 207.018V206.159C259.466 205.491 258.92 205.085 258.123 205.085C257.482 205.085 256.923 205.324 256.424 205.813L255.913 204.942C256.579 204.309 257.411 204.011 258.325 204.011C259.597 204.011 260.714 204.548 260.714 206.1V209.918ZM258.1 209.202C258.646 209.202 259.181 208.999 259.466 208.606V207.734C259.181 207.341 258.646 207.138 258.1 207.138C257.399 207.138 256.876 207.543 256.876 208.176C256.876 208.797 257.399 209.202 258.1 209.202ZM264.054 210.061C263.091 210.061 262.58 209.536 262.58 208.582V205.252H261.63V204.154H262.58V202.579H263.828V204.154H264.992V205.252H263.828V208.271C263.828 208.665 264.018 208.952 264.375 208.952C264.612 208.952 264.838 208.856 264.933 208.749L265.23 209.692C265.004 209.906 264.636 210.061 264.054 210.061ZM266.743 203.45C266.328 203.45 265.971 203.104 265.971 202.675C265.971 202.245 266.328 201.899 266.743 201.899C267.171 201.899 267.516 202.245 267.516 202.675C267.516 203.104 267.171 203.45 266.743 203.45ZM267.373 209.918H266.126V204.154H267.373V209.918ZM271.582 210.061C269.764 210.061 268.635 208.689 268.635 207.03C268.635 205.384 269.764 204.011 271.582 204.011C273.424 204.011 274.541 205.384 274.541 207.03C274.541 208.689 273.424 210.061 271.582 210.061ZM271.582 208.952C272.652 208.952 273.246 208.057 273.246 207.03C273.246 206.016 272.652 205.121 271.582 205.121C270.525 205.121 269.931 206.016 269.931 207.03C269.931 208.057 270.525 208.952 271.582 208.952ZM280.925 209.918H279.677V206.314C279.677 205.419 279.225 205.121 278.524 205.121C277.883 205.121 277.336 205.503 277.051 205.897V209.918H275.803V204.154H277.051V204.942C277.431 204.488 278.168 204.011 279.071 204.011C280.307 204.011 280.925 204.679 280.925 205.861V209.918ZM286.845 208.188C287.118 208.618 287.736 208.952 288.318 208.952C289.316 208.952 289.946 208.164 289.946 207.042C289.946 205.921 289.316 205.121 288.318 205.121C287.736 205.121 287.118 205.479 286.845 205.909V208.188ZM286.845 209.918H285.597V201.959H286.845V204.954C287.296 204.345 287.962 204.011 288.686 204.011C290.16 204.011 291.23 205.181 291.23 207.042C291.23 208.94 290.149 210.061 288.686 210.061C287.938 210.061 287.284 209.703 286.845 209.131V209.918ZM292.252 212.174L292.442 211.052C292.573 211.112 292.775 211.147 292.917 211.147C293.31 211.147 293.571 211.028 293.737 210.646L294.023 209.99L291.67 204.154H293.001L294.676 208.474L296.352 204.154H297.694L294.926 210.956C294.534 211.935 293.844 212.245 292.953 212.257C292.775 212.257 292.43 212.221 292.252 212.174ZM307.055 209.918H301.316V208.82C304.394 206.481 305.594 205.443 305.594 204.298C305.594 203.462 304.881 203.08 304.156 203.08C303.229 203.08 302.516 203.462 302.017 204.035L301.209 203.116C301.91 202.269 303.027 201.839 304.132 201.839C305.665 201.839 307.008 202.71 307.008 204.298C307.008 205.765 305.665 207.078 303.538 208.689H307.055V209.918Z" fill="white"/>
</g>
</g>
<defs>
<filter id="filter0_d_13589_70660" x="-5.36914" y="35.4741" width="386.738" height="121.036" filterUnits="userSpaceOnUse" color-interpolation-filters="sRGB">
<feFlood flood-opacity="0" result="BackgroundImageFix"/>
<feColorMatrix in="SourceAlpha" type="matrix" values="0 0 0 0 0 0 0 0 0 0 0 0 0 0 0 0 0 0 127 0" result="hardAlpha"/>
<feOffset dy="15"/>
<feGaussianBlur stdDeviation="17.5"/>
<feComposite in2="hardAlpha" operator="out"/>
<feColorMatrix type="matrix" values="0 0 0 0 0 0 0 0 0 0 0 0 0 0 0 0 0 0 0.1 0"/>
<feBlend mode="normal" in2="BackgroundImageFix" result="effect1_dropShadow_13589_70660"/>
<feBlend mode="normal" in="SourceGraphic" in2="effect1_dropShadow_13589_70660" result="shape"/>
</filter>
<filter id="filter1_d_13589_70660" x="-5.36914" y="93.1816" width="386.738" height="136.379" filterUnits="userSpaceOnUse" color-interpolation-filters="sRGB">
<feFlood flood-opacity="0" result="BackgroundImageFix"/>
<feColorMatrix in="SourceAlpha" type="matrix" values="0 0 0 0 0 0 0 0 0 0 0 0 0 0 0 0 0 0 127 0" result="hardAlpha"/>
<feOffset dy="15"/>
<feGaussianBlur stdDeviation="17.5"/>
<feComposite in2="hardAlpha" operator="out"/>
<feColorMatrix type="matrix" values="0 0 0 0 0 0 0 0 0 0 0 0 0 0 0 0 0 0 0.1 0"/>
<feBlend mode="normal" in2="BackgroundImageFix" result="effect1_dropShadow_13589_70660"/>
<feBlend mode="normal" in="SourceGraphic" in2="effect1_dropShadow_13589_70660" result="shape"/>
</filter>
<filter id="filter2_d_13589_70660" x="-5.36914" y="166.232" width="386.738" height="110.552" filterUnits="userSpaceOnUse" color-interpolation-filters="sRGB">
<feFlood flood-opacity="0" result="BackgroundImageFix"/>
<feColorMatrix in="SourceAlpha" type="matrix" values="0 0 0 0 0 0 0 0 0 0 0 0 0 0 0 0 0 0 127 0" result="hardAlpha"/>
<feOffset dy="15"/>
<feGaussianBlur stdDeviation="17.5"/>
<feComposite in2="hardAlpha" operator="out"/>
<feColorMatrix type="matrix" values="0 0 0 0 0 0 0 0 0 0 0 0 0 0 0 0 0 0 0.1 0"/>
<feBlend mode="normal" in2="BackgroundImageFix" result="effect1_dropShadow_13589_70660"/>
<feBlend mode="normal" in="SourceGraphic" in2="effect1_dropShadow_13589_70660" result="shape"/>
</filter>
<clipPath id="clip0_13589_70660">
<rect width="376" height="231" fill="white" transform="translate(0 38.5)"/>
</clipPath>
</defs>
</svg>
