<svg width="394" height="11" viewBox="0 0 394 11" fill="none" xmlns="http://www.w3.org/2000/svg">
<path d="M152.121 0.273103C172.196 0.470345 192.27 0.667586 212.345 0.788965C219.672 0.788965 226.949 0.637241 234.276 0.713103L311.713 1.45655C323.156 1.60828 334.699 1.63862 346.091 1.66897C361.013 1.4539 375.966 1.80046 390.606 2.70069C391.71 2.78331 392.718 2.95658 393.517 3.20138C394.022 3.34689 394.146 3.5764 393.818 3.76276C392.594 4.2148 391.136 4.60417 389.502 4.91586C383.906 6.15165 377.359 6.93501 370.481 7.19172C355.927 7.58621 341.173 8.07172 326.368 8.39035L315.176 8.61793H304.035C296.557 8.61793 288.979 8.46621 281.602 8.31448C263.685 7.96552 245.116 8.57241 226.798 8.70897C206.724 8.84552 186.649 8.90621 166.274 8.98207L129.036 9.11862C110.216 9.20966 91.2956 9.11862 72.6766 9.42207C65.3996 9.54345 58.2229 9.80138 51.0965 10.0745L40.3566 10.5145C36.7432 10.6359 33.18 10.7117 29.5666 10.7876C25.9532 10.8634 23.3435 10.9848 20.1316 11C8.23748 11 4.42333 10.3779 1.86383 8.22345C1.18512 7.72962 0.615106 7.22277 0.157503 6.70621C-0.946593 5.06759 3.8211 3.67172 12.3527 3.00414C25.0904 1.91999 38.1241 1.1837 51.2972 0.804138C64.5464 0.455172 78.0465 0.288276 91.4462 0.151724C101.483 0.0606897 111.521 0.0303448 121.558 0H151.67L152.121 0.273103Z" fill="#FDB300"/>
</svg>
