<svg width="115" height="12" viewBox="0 0 115 12" fill="none" xmlns="http://www.w3.org/2000/svg">
<path d="M10.632 10H8.364L7.79 8.418H3.786L3.198 10H0.93L4.542 0.661999H7.034L10.632 10ZM7.244 6.668L5.788 2.65L4.332 6.668H7.244ZM14.4666 10.168C12.8053 10.168 11.4893 9.67333 10.5186 8.684L11.5966 7.172C12.3993 8.012 13.3886 8.432 14.5646 8.432C15.0779 8.432 15.4746 8.334 15.7546 8.138C16.0439 7.93267 16.1886 7.68533 16.1886 7.396C16.1886 7.144 16.0533 6.934 15.7826 6.766C15.5213 6.598 15.1899 6.47667 14.7886 6.402C14.3966 6.32733 13.9673 6.22 13.5006 6.08C13.0339 5.94 12.5999 5.78133 12.1986 5.604C11.8066 5.42667 11.4753 5.14667 11.2046 4.764C10.9433 4.38133 10.8126 3.91467 10.8126 3.364C10.8126 2.56133 11.1346 1.88933 11.7786 1.348C12.4226 0.797333 13.2813 0.521999 14.3546 0.521999C15.8386 0.521999 17.0519 0.955999 17.9946 1.824L16.8886 3.28C16.1513 2.59867 15.2459 2.258 14.1726 2.258C13.7526 2.258 13.4259 2.342 13.1926 2.51C12.9593 2.678 12.8426 2.90667 12.8426 3.196C12.8426 3.42 12.9733 3.61133 13.2346 3.77C13.5053 3.91933 13.8366 4.03133 14.2286 4.106C14.6299 4.18067 15.0593 4.29267 15.5166 4.442C15.9833 4.582 16.4126 4.74533 16.8046 4.932C17.2059 5.10933 17.5373 5.394 17.7986 5.786C18.0693 6.16867 18.2046 6.63067 18.2046 7.172C18.2046 8.068 17.8826 8.79133 17.2386 9.342C16.6039 9.89267 15.6799 10.168 14.4666 10.168ZM23.2734 10H21.2714V2.412H18.5414V0.661999H25.9894V2.412H23.2734V10ZM34.5738 10H32.2918L30.4578 6.682H29.0018V10H27.0138V0.661999H31.3818C32.3432 0.661999 33.1038 0.941999 33.6638 1.502C34.2332 2.062 34.5178 2.78533 34.5178 3.672C34.5178 4.43733 34.3172 5.058 33.9158 5.534C33.5238 6.01 33.0432 6.31333 32.4738 6.444L34.5738 10ZM31.0878 4.932C31.4985 4.932 31.8345 4.82 32.0958 4.596C32.3572 4.36267 32.4878 4.05467 32.4878 3.672C32.4878 3.28933 32.3572 2.986 32.0958 2.762C31.8345 2.52867 31.4985 2.412 31.0878 2.412H29.0018V4.932H31.0878ZM44.4679 10H42.1999L41.6259 8.418H37.6219L37.0339 10H34.7659L38.3779 0.661999H40.8699L44.4679 10ZM41.0799 6.668L39.6239 2.65L38.1679 6.668H41.0799ZM57.1203 10H54.8523L54.2783 8.418H50.2743L49.6863 10H47.4183L51.0303 0.661999H53.5223L57.1203 10ZM53.7323 6.668L52.2763 2.65L50.8203 6.668H53.7323ZM59.7206 10H57.7326V0.661999H59.7206V10ZM66.6444 10H64.6564V0.661999H69.0244C70.0044 0.661999 70.7698 0.951333 71.3204 1.53C71.8804 2.09933 72.1604 2.81333 72.1604 3.672C72.1604 4.52133 71.8804 5.23533 71.3204 5.814C70.7604 6.39267 69.9951 6.682 69.0244 6.682H66.6444V10ZM68.7584 4.932C69.1598 4.932 69.4864 4.82 69.7384 4.596C69.9998 4.36267 70.1304 4.05467 70.1304 3.672C70.1304 3.28933 69.9998 2.986 69.7384 2.762C69.4864 2.52867 69.1598 2.412 68.7584 2.412H66.6444V4.932H68.7584ZM79.0788 10H73.1427V0.661999H75.1308V8.25H79.0788V10ZM87.2291 9.118C86.5197 9.818 85.4744 10.168 84.0931 10.168C82.7117 10.168 81.6617 9.818 80.9431 9.118C80.2337 8.40867 79.8791 7.46133 79.8791 6.276V0.661999H81.8951V6.206C81.8951 6.878 82.0864 7.41467 82.4691 7.816C82.8517 8.208 83.3931 8.404 84.0931 8.404C84.7931 8.404 85.3297 8.208 85.7031 7.816C86.0857 7.41467 86.2771 6.878 86.2771 6.206V0.661999H88.3071V6.262C88.3071 7.466 87.9477 8.418 87.2291 9.118ZM93.2147 10.168C91.5533 10.168 90.2373 9.67333 89.2667 8.684L90.3447 7.172C91.1473 8.012 92.1367 8.432 93.3127 8.432C93.826 8.432 94.2227 8.334 94.5027 8.138C94.792 7.93267 94.9367 7.68533 94.9367 7.396C94.9367 7.144 94.8013 6.934 94.5307 6.766C94.2693 6.598 93.938 6.47667 93.5367 6.402C93.1447 6.32733 92.7153 6.22 92.2487 6.08C91.782 5.94 91.348 5.78133 90.9467 5.604C90.5547 5.42667 90.2233 5.14667 89.9527 4.764C89.6913 4.38133 89.5607 3.91467 89.5607 3.364C89.5607 2.56133 89.8827 1.88933 90.5267 1.348C91.1707 0.797333 92.0293 0.521999 93.1027 0.521999C94.5867 0.521999 95.8 0.955999 96.7427 1.824L95.6367 3.28C94.8993 2.59867 93.994 2.258 92.9207 2.258C92.5007 2.258 92.174 2.342 91.9407 2.51C91.7073 2.678 91.5907 2.90667 91.5907 3.196C91.5907 3.42 91.7213 3.61133 91.9827 3.77C92.2533 3.91933 92.5847 4.03133 92.9767 4.106C93.378 4.18067 93.8073 4.29267 94.2647 4.442C94.7313 4.582 95.1607 4.74533 95.5527 4.932C95.954 5.10933 96.2853 5.394 96.5467 5.786C96.8173 6.16867 96.9527 6.63067 96.9527 7.172C96.9527 8.068 96.6307 8.79133 95.9867 9.342C95.352 9.89267 94.428 10.168 93.2147 10.168Z" fill="url(#paint0_linear_14780_41015)"/>
<path d="M114.833 6.55727L111.877 5.31542L110.646 2.334C110.562 2.13021 110.23 2.13021 110.146 2.334L108.914 5.31542L105.958 6.55727C105.857 6.59989 105.792 6.69933 105.792 6.80969C105.792 6.92005 105.857 7.01949 105.958 7.0621L108.914 8.30395L110.146 11.2854C110.188 11.3875 110.286 11.4537 110.396 11.4537C110.505 11.4537 110.604 11.3875 110.646 11.2854L111.877 8.30395L114.833 7.0621C114.934 7.01949 115 6.92005 115 6.80969C115 6.69933 114.934 6.59989 114.833 6.55727ZM107.773 2.72573L105.871 2.08596L105.236 0.167183C105.162 -0.0557276 104.796 -0.0557276 104.722 0.167183L104.088 2.08596L102.185 2.72573C102.075 2.76343 102 2.86778 102 2.98525C102 3.10271 102.075 3.20707 102.185 3.24476L104.088 3.88454L104.722 5.80386C104.759 5.91477 104.863 5.99017 104.979 5.99017C105.096 5.99017 105.199 5.91477 105.236 5.80331L105.871 3.88399L107.774 3.24422C107.884 3.20707 107.958 3.10271 107.958 2.98525C107.958 2.86778 107.884 2.76343 107.773 2.72573ZM106.69 9.82826L105.599 9.46166L105.236 8.36186C105.162 8.13895 104.796 8.13895 104.722 8.36186L104.358 9.46166L103.268 9.82826C103.158 9.86596 103.083 9.97032 103.083 10.0878C103.083 10.2052 103.158 10.3096 103.269 10.3473L104.359 10.7139L104.722 11.8137C104.759 11.9246 104.863 12 104.979 12C105.096 12 105.199 11.9246 105.236 11.8132L105.6 10.7134L106.69 10.3468C106.8 10.3096 106.875 10.2052 106.875 10.0878C106.875 9.97032 106.8 9.86596 106.69 9.82826Z" fill="#FDB300"/>
<defs>
<linearGradient id="paint0_linear_14780_41015" x1="1" y1="6.00014" x2="98" y2="6.00014" gradientUnits="userSpaceOnUse">
<stop stop-color="#364EFC"/>
<stop offset="0.505" stop-color="#B478FF"/>
<stop offset="1" stop-color="#F1AC0C"/>
</linearGradient>
</defs>
</svg>
