<svg width="11" height="9" viewBox="0 0 11 9" fill="none" xmlns="http://www.w3.org/2000/svg">
<path d="M10.729 4.502C10.7265 4.71692 10.6417 4.92271 10.492 5.07699L6.99 8.568C6.92012 8.64214 6.83625 8.70171 6.74322 8.74324C6.65019 8.78478 6.54985 8.80747 6.448 8.81C5.991 8.81 5.68 8.493 5.68 8.074C5.68 7.844 5.782 7.655 5.927 7.516L7.13 6.312L8.322 5.217L7.146 5.281H1.076C0.593996 5.281 0.270996 4.964 0.270996 4.502C0.270996 4.035 0.593996 3.724 1.077 3.724H7.147L8.317 3.788L7.13 2.692L5.927 1.484C5.84914 1.41318 5.78694 1.32687 5.74441 1.2306C5.70187 1.13434 5.67993 1.03024 5.68 0.924996C5.68 0.505996 5.991 0.188995 6.448 0.188995C6.636 0.188995 6.829 0.269996 6.996 0.436996L10.492 3.927C10.6417 4.08128 10.7265 4.28707 10.729 4.502Z" fill="#EBEBEB"/>
</svg>
