<svg width="11" height="10" viewBox="0 0 11 10" fill="none" xmlns="http://www.w3.org/2000/svg">
<path d="M10.729 5.002C10.7265 5.21693 10.6417 5.42271 10.492 5.57699L6.99 9.068C6.92012 9.14214 6.83625 9.20171 6.74322 9.24324C6.65019 9.28478 6.54985 9.30747 6.448 9.31C5.991 9.31 5.68 8.993 5.68 8.574C5.68 8.344 5.782 8.15499 5.927 8.016L7.13 6.812L8.322 5.717L7.146 5.781H1.076C0.593996 5.781 0.270996 5.46399 0.270996 5.002C0.270996 4.535 0.593996 4.224 1.077 4.224H7.147L8.317 4.288L7.13 3.192L5.927 1.984C5.84914 1.91318 5.78694 1.82687 5.74441 1.7306C5.70187 1.63434 5.67993 1.53024 5.68 1.425C5.68 1.006 5.991 0.688995 6.448 0.688995C6.636 0.688995 6.829 0.769996 6.996 0.936996L10.492 4.427C10.6417 4.58128 10.7265 4.78707 10.729 5.002Z" fill="#EBEBEB"/>
</svg>
