<svg width="16" height="17" viewBox="0 0 16 17" fill="none" xmlns="http://www.w3.org/2000/svg">
<g id="CTAVector">
<path id="Vector" d="M13.229 8.50196C13.2265 8.71689 13.1417 8.92268 12.992 9.07696L9.49 12.568C9.42012 12.6421 9.33625 12.7017 9.24322 12.7432C9.15019 12.7848 9.04985 12.8074 8.948 12.81C8.491 12.81 8.18 12.493 8.18 12.074C8.18 11.844 8.282 11.655 8.427 11.516L9.63 10.312L10.822 9.21696L9.646 9.28096H3.576C3.094 9.28096 2.771 8.96396 2.771 8.50196C2.771 8.03496 3.094 7.72396 3.577 7.72396H9.647L10.817 7.78797L9.63 6.69196L8.427 5.48397C8.34914 5.41315 8.28694 5.32684 8.24441 5.23057C8.20187 5.13431 8.17993 5.03021 8.18 4.92497C8.18 4.50597 8.491 4.18896 8.948 4.18896C9.136 4.18896 9.329 4.26996 9.496 4.43696L12.992 7.92696C13.1417 8.08125 13.2265 8.28703 13.229 8.50196Z" fill="black"/>
</g>
</svg>
