<svg width="94" height="24" viewBox="0 0 94 24" fill="none" xmlns="http://www.w3.org/2000/svg">
<g id="ai-logo-only-new-whte.svg" clip-path="url(#clip0_15854_22844)">
<path id="Vector" d="M13.2357 6.36546C12.6656 5.62652 11.9161 5.0037 10.9661 4.50755C10.016 4.01141 8.90757 3.75806 7.64082 3.75806C6.23683 3.75806 4.94896 4.10641 3.78777 4.80313C2.62657 5.49985 1.70817 6.47103 1.03257 7.71667C0.356967 8.96231 0.019165 10.4085 0.019165 12.0236C0.019165 13.6493 0.356967 15.0955 1.03257 16.3728C1.70817 17.6502 2.61602 18.653 3.77721 19.3603C4.92785 20.0781 6.20516 20.4265 7.58803 20.4265C8.83368 20.4265 9.95265 20.1731 10.9344 19.6664C11.9161 19.1597 12.6867 18.5263 13.2462 17.7557V20.1626H16.6137V4.01141H13.2462L13.2357 6.36546ZM12.5495 15.0005C12.085 15.8345 11.4939 16.4573 10.7444 16.8901C10.0054 17.3229 9.20315 17.534 8.33753 17.534C7.49303 17.534 6.70131 17.3124 5.95181 16.8795C5.20231 16.4362 4.59004 15.8028 4.13612 14.9583C3.67165 14.1138 3.44996 13.1426 3.44996 12.0236C3.44996 10.9047 3.6822 9.94405 4.13612 9.13122C4.59004 8.31838 5.19175 7.70611 5.94125 7.28386C6.68019 6.86161 7.48247 6.65048 8.34809 6.65048C9.20315 6.65048 10.0054 6.86161 10.7549 7.29442C11.4939 7.72723 12.0956 8.35005 12.5601 9.17344C13.014 9.99683 13.2462 10.9575 13.2462 12.0764C13.2357 13.1954 13.0034 14.1666 12.5495 15.0005Z" fill="#F0F5FC"/>
<path id="Vector_2" d="M28.669 11.7387C27.9195 11.4114 26.9588 11.0947 25.7765 10.7886C24.9004 10.5353 24.2353 10.3241 23.7814 10.1552C23.3275 9.98633 22.9474 9.76465 22.6413 9.46907C22.3246 9.1735 22.1768 8.81458 22.1768 8.38178C22.1768 7.83285 22.4091 7.40004 22.8841 7.06224C23.3486 6.73499 24.0242 6.56609 24.9109 6.56609C25.8082 6.56609 26.526 6.77722 27.0539 7.21003C27.5817 7.64283 27.8772 8.21287 27.93 8.94126H31.2764C31.2025 7.3367 30.6008 6.06995 29.4712 5.14099C28.3523 4.21204 26.8638 3.74756 25.027 3.74756C23.792 3.74756 22.7047 3.94813 21.7546 4.35982C20.8045 4.77152 20.0761 5.331 19.5694 6.04883C19.0627 6.76666 18.8094 7.54783 18.8094 8.41344C18.8094 9.46907 19.0838 10.3136 19.6433 10.9681C20.2028 11.612 20.8573 12.087 21.6174 12.4037C22.3774 12.7204 23.3697 13.0371 24.5731 13.3749C25.8188 13.7233 26.7372 14.0505 27.3178 14.3461C27.8984 14.6417 28.1834 15.085 28.1834 15.6973C28.1834 16.2673 27.9195 16.7318 27.4022 17.0907C26.8849 17.4496 26.1566 17.6291 25.2171 17.6291C24.3198 17.6291 23.5703 17.3969 22.9791 16.9429C22.388 16.489 22.0607 15.9084 21.9974 15.2328H18.5349C18.5771 16.2146 18.8833 17.0907 19.4744 17.8824C20.0656 18.6742 20.8573 19.297 21.8601 19.7615C22.863 20.2154 24.0031 20.4476 25.2698 20.4476C26.5155 20.4476 27.6133 20.2471 28.5423 19.8354C29.4712 19.4237 30.1891 18.8536 30.6958 18.1358C31.2025 17.418 31.4558 16.5946 31.4558 15.6762C31.4347 14.6417 31.1497 13.8077 30.6008 13.1849C30.073 12.541 29.4185 12.0659 28.669 11.7387Z" fill="#F0F5FC"/>
<path id="Vector_3" d="M37.8001 0H34.4327V4.0114H32.522V6.73492H34.4327V15.6761C34.4327 17.2596 34.8338 18.3996 35.6361 19.1069C36.4384 19.8142 37.589 20.1625 39.0986 20.1625H41.7376V17.3757H39.6897C39.0035 17.3757 38.518 17.249 38.2435 16.9851C37.9585 16.7212 37.8212 16.2884 37.8212 15.6761V6.73492H41.7482V4.0114H37.8212V0H37.8001Z" fill="#F0F5FC"/>
<path id="Vector_4" d="M46.9735 6.36546V4.02196H43.6272V20.1731H46.9735V11.6753C46.9735 10.0285 47.3113 8.87786 47.9869 8.21282C48.6626 7.54777 49.6548 7.22052 50.9638 7.22052H51.8189V3.75806C50.6999 3.75806 49.7393 3.9903 48.9265 4.44422C48.1136 4.89814 47.4697 5.54207 46.9735 6.36546Z" fill="#F0F5FC"/>
<path id="Vector_5" d="M65.6688 4.02196V6.36546C65.0987 5.62652 64.3492 5.0037 63.3992 4.50755C62.4491 4.01141 61.3407 3.75806 60.0739 3.75806C58.6699 3.75806 57.3821 4.10641 56.2209 4.80313C55.0597 5.49985 54.1413 6.47103 53.4657 7.71667C52.7901 8.96231 52.4523 10.4085 52.4523 12.0236C52.4523 13.6493 52.7901 15.0955 53.4657 16.3728C54.1413 17.6502 55.0491 18.653 56.2103 19.3603C57.3609 20.0781 58.6383 20.4265 60.0211 20.4265C61.2668 20.4265 62.3857 20.1731 63.3675 19.6664C64.3492 19.1597 65.1198 18.5263 65.6793 17.7557V20.1626H69.0468V4.01141L65.6688 4.02196ZM64.9826 15.0005C64.5181 15.8345 63.927 16.4573 63.1775 16.8901C62.4385 17.3229 61.6363 17.534 60.7706 17.534C59.9261 17.534 59.1344 17.3124 58.3849 16.8795C57.6354 16.4362 57.0231 15.8028 56.5692 14.9583C56.1048 14.1138 55.8831 13.1426 55.8831 12.0236C55.8831 10.9047 56.1153 9.94405 56.5692 9.13122C57.0231 8.31838 57.6249 7.70611 58.3744 7.28386C59.1133 6.86161 59.9156 6.65048 60.7812 6.65048C61.6363 6.65048 62.4385 6.86161 63.188 7.29442C63.927 7.72723 64.5287 8.35005 64.9932 9.17344C65.4471 9.99683 65.6793 10.9575 65.6793 12.0764C65.6688 13.1954 65.4471 14.1666 64.9826 15.0005Z" fill="#F0F5FC"/>
<path id="Vector_6" d="M89.3888 1.66797H77.8085C75.275 1.66797 73.2166 3.737 73.2166 6.28107V17.9141C73.2166 20.4582 75.275 22.5272 77.8085 22.5272H89.3888C91.9223 22.5272 93.9808 20.4582 93.9808 17.9141V6.28107C93.9808 3.737 91.9223 1.66797 89.3888 1.66797ZM92.4079 17.9141C92.4079 19.582 91.0567 20.9438 89.3888 20.9438H77.8085C76.1512 20.9438 74.7894 19.5926 74.7894 17.9141V6.28107C74.7894 4.61318 76.1406 3.25141 77.8085 3.25141H89.3888C91.0461 3.25141 92.4079 4.60262 92.4079 6.28107V17.9141Z" fill="#FDB300"/>
<path id="Vector_7" d="M80.6376 7.37891L77.2913 16.7529H79.2442L79.8564 14.9689H83.5617L84.174 16.7529H86.148L82.8017 7.37891H80.6376ZM80.3737 13.4699L81.7144 9.5535L83.055 13.4699H80.3737Z" fill="#F0F5FC"/>
<path id="Vector_8" d="M88.8188 7.3894H86.9503V16.7528H88.8188V7.3894Z" fill="#F0F5FC"/>
</g>
<defs>
<clipPath id="clip0_15854_22844">
<rect width="93.9617" height="23.53" fill="white" transform="translate(0.019165)"/>
</clipPath>
</defs>
</svg>
