<svg width="40" height="40" viewBox="0 0 40 40" fill="none" xmlns="http://www.w3.org/2000/svg">
<g id="Atom Editor">
<path id="Vector" d="M13.2781 3.20947C12.6625 3.20947 12.3968 3.35947 11.9906 3.60635C11.5843 3.8501 11.1687 4.22197 10.8062 4.73447C10.0843 5.7626 9.59997 7.30635 9.59997 9.6001C9.59997 10.6313 9.68122 11.7188 9.83122 12.8407C8.76872 13.0907 7.77184 13.3845 6.87497 13.7345C5.46559 14.2813 4.26872 14.9407 3.33434 15.7876C2.39997 16.6345 1.70309 17.7501 1.63434 19.0376C1.57809 20.1001 1.94372 21.1595 2.54997 21.9157C3.15309 22.672 3.89059 23.1845 4.71247 23.7345C5.44997 24.222 6.44372 24.022 6.93434 23.2876C7.42184 22.5501 7.22184 21.5563 6.48747 21.0657C5.74059 20.572 5.25622 20.1782 5.04997 19.9157C4.84059 19.6563 4.80934 19.6001 4.83122 19.2063V19.2032C4.84372 18.9626 4.97184 18.6251 5.48747 18.1563C6.00309 17.6876 6.87809 17.1626 8.03122 16.7157C8.73122 16.4438 9.54372 16.2032 10.4281 15.9907C10.6968 17.0938 11.0281 18.2063 11.4156 19.322C9.08747 23.6251 7.94684 27.3876 7.99997 30.4251C8.03122 32.2345 8.25309 34.247 10.0093 35.3876C11.0531 36.0657 12.2906 36.1532 13.2656 35.9626C14.2406 35.772 15.0562 35.3907 15.8125 35.0782C16.3562 34.872 16.7468 34.3845 16.8281 33.8063C16.9125 33.2313 16.675 32.6532 16.2062 32.3032C15.7406 31.9532 15.1218 31.8813 14.5875 32.122C13.7843 32.4532 13.1093 32.7313 12.6531 32.822C12.1968 32.9126 12.05 32.897 11.75 32.7032C11.6312 32.6251 11.225 31.7938 11.2 30.3751C11.1718 28.672 11.7437 26.2126 13.0468 23.2657C15.1031 27.5282 17.6812 31.1188 20.2593 33.547C21.5625 34.7751 22.8625 35.7188 24.1875 36.2782C25.5156 36.8376 27 37.0313 28.3093 36.3657L28.3968 36.322L28.4781 36.2657C29.7187 35.4282 30.1406 34.0563 30.3093 32.7001C30.475 31.347 30.3843 29.8501 30.1656 28.2907C29.7312 25.1688 28.7687 21.8157 27.9 19.4501C27.7187 18.8938 27.25 18.4813 26.675 18.372C26.0968 18.2657 25.5093 18.4813 25.1406 18.9345C24.7687 19.3876 24.6781 20.0095 24.9 20.5501C25.6875 22.7063 26.6093 25.9501 26.9968 28.7345C27.1906 30.1251 27.2437 31.4063 27.1343 32.3095C27.0312 33.1313 26.8093 33.4095 26.725 33.497C26.5093 33.5782 26.1687 33.6407 25.4375 33.3282C24.6312 32.9907 23.5687 32.2657 22.4531 31.2157C20.2218 29.1126 17.7593 25.7282 15.8437 21.7126C15.5093 21.0126 15.2125 20.3001 14.9312 19.5845C15.3156 18.9157 15.7312 18.2345 16.1843 17.5376C16.7125 16.7251 17.2593 15.9438 17.8125 15.2032C18.5468 15.2063 19.3 15.2251 20.0718 15.2626C24.525 15.497 28.5812 16.4376 31.3718 17.6532C32.7656 18.2626 33.8375 18.947 34.4656 19.5501C35.0937 20.1501 35.2125 20.5595 35.2 20.7938C35.1718 21.347 34.5812 22.0438 33.15 22.4626C32.3031 22.7126 31.8156 23.6032 32.0625 24.4501C32.3125 25.297 33.2031 25.7845 34.05 25.5376C36.2562 24.8907 38.275 23.3251 38.4 20.9626C38.475 19.5063 37.7125 18.2313 36.6812 17.2376C35.65 16.247 34.2812 15.4313 32.65 14.722C29.425 13.3157 25.1406 12.347 20.4187 12.0813C21.1718 11.272 21.9218 10.5407 22.65 9.91572C24.7593 8.09697 26.7406 7.19385 27.6593 7.15947C27.9968 7.14697 28.1656 7.20947 28.3 7.29385C28.5812 7.47822 28.6562 7.60947 28.6906 7.95635C28.725 8.3001 28.6218 8.8876 28.2125 9.60635C27.9125 10.1032 27.9093 10.722 28.1968 11.2251C28.4843 11.7251 29.0218 12.0345 29.6031 12.0282C30.1812 12.022 30.7125 11.7032 30.9875 11.1938C31.6437 10.047 31.9937 8.84072 31.875 7.64385C31.7593 6.4501 31.0875 5.29072 30.0406 4.6126C29.2875 4.12197 28.3968 3.93135 27.5375 3.9626C25.225 4.0501 22.9562 5.4251 20.5625 7.49072C19.1156 8.73447 17.65 10.2688 16.2281 12.0282C15.1093 12.0688 14.025 12.1532 12.9906 12.2813C12.8656 11.3345 12.8 10.4313 12.8 9.6001C12.8 7.75947 13.1906 6.90635 13.425 6.5751C13.4843 6.49072 13.4937 6.49697 13.5312 6.4626C14.475 6.51885 14.825 6.81885 15.7625 7.61885C16.4343 8.19072 17.4437 8.1126 18.0187 7.44072C18.5906 6.76572 18.5125 5.75635 17.8375 5.18135C16.8156 4.30947 15.4062 3.20947 13.2781 3.20947ZM13.75 15.4251C13.7156 15.4782 13.6781 15.5345 13.6406 15.5876C13.6281 15.5407 13.6093 15.4876 13.6 15.4376C13.65 15.4345 13.7 15.4282 13.75 15.4251ZM20 17.6001C18.675 17.6001 17.6 18.6751 17.6 20.0001C17.6 21.3251 18.675 22.4001 20 22.4001C21.325 22.4001 22.4 21.3251 22.4 20.0001C22.4 18.6751 21.325 17.6001 20 17.6001Z" fill="#1A1A1A"/>
</g>
</svg>
