<svg width="26" height="24" viewBox="0 0 26 24" fill="none" xmlns="http://www.w3.org/2000/svg">
<path id="Vector" d="M24.9276 14.9811C24.3963 13.9848 23.6767 13.0328 22.8022 12.1582C22.6915 12.0475 22.5697 11.9368 22.4479 11.8261C22.3926 12.5678 22.2819 13.2874 22.1379 14.0069C22.0272 14.5494 21.8944 15.0586 21.7284 15.5678C21.9276 15.8446 22.1047 16.1213 22.2486 16.3981C22.6361 17.1287 23.1896 18.5235 22.5586 19.6195C21.7505 21.0254 18.9608 21.4793 15.8391 20.2394C15.7062 20.1841 14.6324 19.6859 14.2118 19.4534C13.78 19.2099 13.3815 18.9331 12.994 18.6453C12.5955 18.3464 12.2081 18.0143 11.8649 17.6822C11.1675 17.0069 10.6029 16.2652 10.2044 15.5235C9.99404 15.1472 9.79478 14.7376 9.62872 14.2726C9.40732 14.3833 9.18592 14.494 8.97559 14.6158C8.54385 14.8593 8.14533 15.1361 7.79109 15.4239C7.54754 15.6232 7.304 15.8224 7.0826 16.0438L7.07153 16.0549C7.20437 16.3649 7.35935 16.6638 7.51433 16.9405C8.14533 18.1139 9.04201 19.2431 10.149 20.2283C7.02725 21.4682 4.23758 21.0143 3.42946 19.6084C2.79847 18.5125 3.35197 17.1176 3.73942 16.387C4.12688 15.6564 4.69145 14.9258 5.3778 14.2615C5.65455 13.9959 5.95345 13.7302 6.26341 13.4866C6.72835 13.1213 7.22651 12.7782 7.75788 12.4682C8.18961 12.2246 8.62134 12.0032 9.06415 11.8151C10.3704 11.2505 11.7099 10.9516 12.9055 10.9516H13.0826C13.8907 10.9516 14.7542 11.0844 15.6287 11.3501C16.0605 11.483 16.5033 11.6379 16.935 11.8261C16.8907 12.2357 16.8243 12.6232 16.7357 12.9996C16.5365 13.8962 16.2265 14.7044 15.8612 15.3686C15.8612 15.3796 15.8501 15.3907 15.8501 15.3907C15.6066 15.8889 15.2634 16.4092 14.8317 16.9184C15.0309 17.0512 15.2413 17.1841 15.4516 17.3058C15.7837 17.494 16.7689 17.9479 16.7689 17.9479C17.0678 18.0697 17.6435 18.2357 17.6546 18.2468C17.9645 17.8261 18.2302 17.3944 18.4627 16.9627C19.0272 15.9553 19.459 14.7818 19.7357 13.4977C19.9461 12.5125 20.0568 11.4497 20.0568 10.3427V10.0217C19.9461 4.36488 16.8908 -0.0078125 13.0052 -0.0078125C9.83912 -0.0078125 7.22658 2.90363 6.30776 7.03278C6.97196 6.71174 7.65831 6.44606 8.34466 6.21359C8.86495 6.03647 9.38525 5.90363 9.90554 5.78186C10.6915 4.05492 11.8871 3.01433 13.0052 3.01433C14.6325 3.01433 16.4148 5.21728 16.9019 8.54938C15.5845 8.11765 14.2561 7.89625 13.0052 7.90732C11.8317 7.92946 10.3373 8.15086 9.10849 8.54938C8.1454 8.87042 7.17123 9.30215 6.24134 9.83352C6.14171 9.88887 6.04207 9.94422 5.95351 10.0106C3.80591 11.3169 2.0679 13.066 1.06052 14.97C-0.112907 17.1841 -0.201468 19.3759 0.805912 21.125C1.90185 23.018 4.07159 23.9922 6.63986 23.9922C8.62141 23.9922 10.8465 23.4055 13.0052 22.221C15.1638 23.4055 17.3779 23.9922 19.3705 23.9922C21.9388 23.9922 24.1085 23.018 25.2044 21.125C26.2007 19.387 26.1121 17.1951 24.9276 14.9811Z" fill="white"/>
</svg>
