<svg width="40" height="41" viewBox="0 0 40 41" fill="none" xmlns="http://www.w3.org/2000/svg">
<g id="Get Quote">
<path id="Vector" d="M25 8.95435C23.1583 8.95435 21.6667 10.446 21.6667 12.2877V18.9543C21.6667 20.796 23.1583 22.2877 25 22.2877H30.0163L24.5182 29.6737C23.7016 30.7721 24.4845 32.3333 25.8561 32.3333C26.3828 32.3333 26.8758 32.086 27.1908 31.6627L34.3424 22.0566C34.7691 21.4816 35 20.7843 35 20.0676V12.2877C35 10.446 33.5083 8.95435 31.6667 8.95435H25ZM8.33333 8.99992C6.49167 8.99992 5 10.4916 5 12.3333V18.9999C5 20.8416 6.49167 22.3333 8.33333 22.3333H13.3496L7.88411 29.6705C7.06745 30.7705 7.85034 32.3333 9.222 32.3333C9.74867 32.3333 10.2449 32.086 10.5599 31.6627L17.6758 22.1021C18.1024 21.5271 18.3333 20.8315 18.3333 20.1132V12.3333C18.3333 10.4916 16.8417 8.99992 15 8.99992H8.33333Z" fill="#3C50E0"/>
</g>
</svg>
