<svg width="20" height="19" viewBox="0 0 20 19" fill="none" xmlns="http://www.w3.org/2000/svg">
<path id="Vector" d="M19.4161 10.5024L14.944 8.63964L13.0812 4.16751C12.9534 3.86182 12.4518 3.86182 12.324 4.16751L10.4612 8.63964L5.98907 10.5024C5.83582 10.5663 5.73666 10.7155 5.73666 10.881C5.73666 11.0466 5.83582 11.1957 5.98907 11.2597L10.4612 13.1224L12.324 17.5946C12.3879 17.7478 12.5371 17.847 12.7026 17.847C12.8682 17.847 13.0173 17.7478 13.0812 17.5946L14.944 13.1224L19.4161 11.2597C19.5694 11.1957 19.6686 11.0466 19.6686 10.881C19.6686 10.7155 19.5694 10.5663 19.4161 10.5024ZM8.73448 4.7551L5.85631 3.79544L4.89665 0.917278C4.78438 0.582913 4.23038 0.582913 4.11892 0.917278L3.15844 3.79544L0.280277 4.7551C0.113094 4.81165 0 4.96818 0 5.14438C0 5.32057 0.113094 5.4771 0.280277 5.53365L3.15926 6.49331L4.11892 9.3723C4.17465 9.53866 4.33118 9.65175 4.50738 9.65175C4.68357 9.65175 4.8401 9.53866 4.89665 9.37148L5.85631 6.49249L8.7353 5.53283C8.90166 5.4771 9.01475 5.32057 9.01475 5.14438C9.01475 4.96818 8.90166 4.81165 8.73448 4.7551ZM7.09543 15.4089L5.44573 14.859L4.89583 13.2093C4.78356 12.8749 4.22956 12.8749 4.1181 13.2093L3.5682 14.859L1.9185 15.4089C1.75214 15.4654 1.63905 15.622 1.63905 15.7982C1.63905 15.9744 1.75214 16.1309 1.91932 16.1874L3.56902 16.7373L4.11892 18.387C4.17465 18.5534 4.33118 18.6665 4.50738 18.6665C4.68357 18.6665 4.8401 18.5534 4.89665 18.3862L5.44655 16.7365L7.09625 16.1866C7.26261 16.1309 7.37571 15.9744 7.37571 15.7982C7.37571 15.622 7.26261 15.4654 7.09543 15.4089Z" fill="#15385B"/>
</svg>
