<svg width="24" height="25" viewBox="0 0 24 25" fill="none" xmlns="http://www.w3.org/2000/svg">
<path d="M9.49992 2.828C7.47242 3.351 5.69392 4.486 4.37842 6.0345L9.49992 9.1655V2.828Z" fill="#3F51B5"/>
<path d="M4.30249 18.882C5.62449 20.4745 7.43499 21.6395 9.49999 22.1725V15.705L4.30249 18.882Z" fill="#3F51B5"/>
<path d="M2.32788 15C2.33438 15.026 2.34088 15.0515 2.34788 15.0775L2.47388 15H2.32788Z" fill="white"/>
<path d="M19.788 6.2345C18.458 4.584 16.614 3.373 14.5 2.828V9.4665L19.788 6.2345Z" fill="#3F51B5"/>
<path d="M14.5 22.172C16.6515 21.617 18.5205 20.3705 19.8555 18.675L14.5 15.402V22.172Z" fill="#3F51B5"/>
<path d="M2.37638 9.8105C2.35888 9.873 2.34388 9.937 2.32788 10H2.68638L2.37638 9.8105Z" fill="white"/>
<path d="M21.8754 11C21.8279 10.685 21.7664 10.3755 21.6904 10.071L20.1709 11H21.8754Z" fill="white"/>
<path d="M2.68651 10H2.32801C2.24351 10.3275 2.17601 10.6605 2.12451 11H4.32251L2.68651 10Z" fill="white"/>
<path d="M21.72 14.8145C21.7835 14.547 21.834 14.275 21.8755 14H20.387L21.72 14.8145Z" fill="white"/>
<path d="M4.11001 14H2.12451C2.17551 14.3395 2.24351 14.6725 2.32801 15H2.47451L4.11001 14Z" fill="white"/>
<path d="M10.5 9.7765V2.6245C10.1605 2.6755 9.8275 2.7435 9.5 2.828V9.1655L10.5 9.7765Z" fill="white"/>
<path d="M13.5 14.791V22.3755C13.8395 22.3245 14.1725 22.2565 14.5 22.172V15.402L13.5 14.791Z" fill="white"/>
<path d="M9.5 15.705V22.172C9.8275 22.2565 10.1605 22.324 10.5 22.3755V15.094L9.5 15.705Z" fill="white"/>
<path d="M13.5925 9.847L13.7345 9.934L14.5 9.466V2.828C14.1725 2.7435 13.8395 2.676 13.5 2.6245V9.9985L13.5925 9.847Z" fill="white"/>
<path d="M4.32248 11H9.01748L10.5 10.094V9.777L9.49998 9.1655L4.37848 6.0345C3.95148 6.5375 3.57198 7.0815 3.24948 7.663L7.02498 10H4.29698L2.65048 8.9765C2.54748 9.2495 2.45548 9.527 2.37598 9.8105L2.68648 10L4.32248 11Z" fill="white"/>
<path d="M13.7346 9.934L15.4786 11H20.1711L21.6906 10.071C21.5281 9.421 21.3031 8.7975 21.0201 8.205L18.1391 10H15.4111L20.3171 6.95C20.1516 6.703 19.9736 6.4655 19.7876 6.2345L14.5001 9.466L13.7346 9.934Z" fill="white"/>
<path d="M7.02488 9.99999L3.24988 7.66299C3.01738 8.08249 2.82188 8.52299 2.65088 8.97649L4.29688 9.99999H7.02488Z" fill="#E53935"/>
<path d="M18.1389 10L21.0204 8.205C20.8129 7.77 20.5834 7.348 20.3174 6.9505L15.4109 10H18.1389Z" fill="#E53935"/>
<path d="M13.5 14V14.791L14.5 15.402L19.8555 18.6755C20.2415 18.185 20.5835 17.659 20.8735 17.1005L17.4855 15H20.2135L21.443 15.767C21.5505 15.456 21.643 15.139 21.7195 14.815L20.387 14H13.5Z" fill="white"/>
<path d="M15.4785 11L13.7345 9.934L13.5925 9.847L13.5 9.9985V11H15.4785Z" fill="white"/>
<path d="M10.4999 15.094V14H4.10991L2.47391 15L2.34741 15.0775C2.52341 15.738 2.76341 16.371 3.06391 16.9705L6.16441 15H8.89241L3.80141 18.2165C3.96041 18.4445 4.12541 18.6685 4.30241 18.882L9.49991 15.705L10.4999 15.094Z" fill="white"/>
<path d="M9.01758 11H10.5001V10.094L9.01758 11Z" fill="white"/>
<path d="M17.4856 15L20.8731 17.1C21.0951 16.673 21.2836 16.227 21.4431 15.7665L20.2136 15H17.4856Z" fill="#E53935"/>
<path d="M6.16447 15L3.06396 16.9705C3.28146 17.4045 3.52547 17.8215 3.80147 18.2165L8.89246 15H6.16447Z" fill="#E53935"/>
<path d="M15.4785 11H13.5V14H20.387H21.8755C21.9495 13.5095 22 13.011 22 12.5C22 11.989 21.9495 11.4905 21.8755 11H20.171H15.4785Z" fill="#E53935"/>
<path d="M10.5 14V11H9.0175H4.3225H2.1245C2.0505 11.4905 2 11.989 2 12.5C2 13.011 2.0505 13.5095 2.1245 14H4.11H10.5Z" fill="#E53935"/>
<path d="M13.5 22.3755V14.791V14V11V9.9985V2.6245C13.0095 2.5505 12.511 2.5 12 2.5C11.489 2.5 10.9905 2.5505 10.5 2.6245V9.7765V10.0935V11V14V15.094V22.3755C10.9905 22.4495 11.489 22.5 12 22.5C12.511 22.5 13.0095 22.4495 13.5 22.3755Z" fill="#E53935"/>
</svg>
