<svg width="40" height="40" viewBox="0 0 40 40" fill="none" xmlns="http://www.w3.org/2000/svg">
<g id="Chemistry Icon">
<path id="Vector" d="M12.8889 4V7.55556H14.6667V16.4444L4.76736 30.2639C4.29447 30.8666 4 31.6178 4 32.4444C4 34.4089 5.59111 36 7.55556 36H32.4444C34.4089 36 36 34.4089 36 32.4444C36 31.6178 35.7055 30.8666 35.2326 30.2639L25.3333 16.4444V7.55556H27.1111V4H12.8889ZM18.2222 7.55556H21.7778V14.6667H18.2222V7.55556ZM17.7674 18.2222H22.2326L32.3438 32.3333L32.3958 32.3854L32.4444 32.4444L7.56597 32.4583L7.61111 32.3958L7.65625 32.3333L17.7674 18.2222ZM21.7778 21.7778C21.3063 21.7778 20.8541 21.9651 20.5207 22.2985C20.1873 22.6319 20 23.0841 20 23.5556C20 24.0271 20.1873 24.4792 20.5207 24.8126C20.8541 25.146 21.3063 25.3333 21.7778 25.3333C22.2493 25.3333 22.7015 25.146 23.0349 24.8126C23.3683 24.4792 23.5556 24.0271 23.5556 23.5556C23.5556 23.0841 23.3683 22.6319 23.0349 22.2985C22.7015 21.9651 22.2493 21.7778 21.7778 21.7778ZM17.3333 25.3333C16.6261 25.3333 15.9478 25.6143 15.4477 26.1144C14.9476 26.6145 14.6667 27.2928 14.6667 28C14.6667 28.7072 14.9476 29.3855 15.4477 29.8856C15.9478 30.3857 16.6261 30.6667 17.3333 30.6667C18.0406 30.6667 18.7189 30.3857 19.219 29.8856C19.719 29.3855 20 28.7072 20 28C20 27.2928 19.719 26.6145 19.219 26.1144C18.7189 25.6143 18.0406 25.3333 17.3333 25.3333Z" fill="#1A1A1A"/>
</g>
</svg>
