<svg width="34" height="42" viewBox="0 0 34 42" fill="none" xmlns="http://www.w3.org/2000/svg">
<g id="Group">
<path id="Vector" d="M22.2808 0.00698473C21.4954 0.00698473 14.9986 0.00698473 13.8797 0.00698473C11.3241 0.00698473 8.46912 -0.22727 5.14665 2.01746C1.28041 4.62951 -0.574117 9.36665 0.390405 13.9509C0.425564 14.1178 0.0474619 13.1752 5.22915 25.7211C5.22915 34.8338 5.22759 34.1343 5.23228 34.2655C5.54747 38.6931 9.56382 42.0001 13.6903 42.0001H20.317C24.3874 42.0001 28.4532 38.7629 28.7782 34.2217V25.7212L33.5934 14.0625C35.1607 6.60787 29.647 0.00698473 22.2808 0.00698473ZM26.3081 14.0154L18.7921 15.1717L19.1678 17.6132L26.3082 16.5147V24.6202L23.1741 25.7955C22.1317 23.2948 19.1021 22.0447 16.2628 22.2983V15.3329L7.69949 14.0154V11.2739C9.40383 12.0102 11.3848 11.7817 12.8798 10.6548C15.1621 12.9259 18.8481 12.9231 21.1279 10.6548C22.6283 11.7861 24.6105 12.0074 26.3082 11.274L26.3081 14.0154ZM13.7925 22.932C12.4236 23.5461 11.353 24.5492 10.8335 25.7955L7.69941 24.6202V16.5146L13.7925 17.452V22.932ZM23.5085 38.5645V34.1778H21.0384V39.4788C20.5465 39.5463 20.4637 39.5298 18.2388 39.5298V34.1778H15.7687V39.5298C13.5298 39.5298 13.4552 39.5455 12.9691 39.4788V34.1778H10.4989V38.5645C9.01256 37.6306 7.85248 36.0738 7.69941 34.1316V27.2584L10.0434 28.1374C11.2479 28.5891 12.6214 27.9838 13.1005 26.7778C13.5708 25.5942 15.2123 24.7351 17.0037 24.7351C18.7952 24.7351 20.4366 25.5942 20.9069 26.7779C21.3848 27.9805 22.7565 28.5904 23.964 28.1374L26.3081 27.2584V34.1316C26.155 36.0738 24.9948 37.6306 23.5085 38.5645ZM31.2219 13.3338L28.7782 19.2504V10.6534C28.7782 9.05722 27.0352 8.01851 25.6352 8.84972C24.6384 9.44174 23.3502 9.33824 22.458 8.55487C21.6028 7.80311 20.2911 7.88915 19.5339 8.74622C18.1942 10.2623 15.8224 10.2728 14.4735 8.74639C13.7162 7.88915 12.4045 7.80327 11.5497 8.55445C10.6624 9.33355 9.3751 9.44561 8.37171 8.84947C6.96618 8.0153 5.22907 9.06446 5.22907 10.6534V19.2504L2.78541 13.3338C1.64567 7.58606 5.98437 2.47716 11.7266 2.47716H20.1277C22.6854 2.47716 24.8461 2.2863 27.4779 4.06425C30.477 6.09045 31.9388 9.71898 31.2219 13.3338Z" fill="#3C50E0"/>
</g>
</svg>
