<svg width="39" height="39" viewBox="0 0 39 39" fill="none" xmlns="http://www.w3.org/2000/svg">
<path id="Vector" d="M5.25 0C1.6695 0 0 3.1325 0 5.25H3.5C3.5 4.96125 3.8045 3.5 5.25 3.5C6.98075 3.5 7 5.2325 7 5.25C7 7.0945 3.5 10.5437 3.5 12.25H7C7 10.5245 10.5 7.7385 10.5 5.25C10.5 2.66875 8.5365 0 5.25 0ZM21 3.5C18.5098 3.5 16.1455 4.02831 14 4.96631V8.88672C16.0615 7.69322 18.4468 7 21 7C28.7315 7 35 13.2685 35 21C35 28.7315 28.7315 35 21 35C13.8617 35 7.98238 29.6537 7.11963 22.75H3.58887C4.46737 31.5928 11.9245 38.5 21 38.5C30.6652 38.5 38.5 30.6652 38.5 21C38.5 11.3348 30.6652 3.5 21 3.5ZM18.375 12.25C17.6788 12.25 17.0111 12.6187 16.5188 13.2751C16.0266 13.9315 15.75 14.8217 15.75 15.75C15.75 16.6783 16.0266 17.5685 16.5188 18.2249C17.0111 18.8813 17.6788 19.25 18.375 19.25C19.0712 19.25 19.7389 18.8813 20.2312 18.2249C20.7234 17.5685 21 16.6783 21 15.75C21 14.8217 20.7234 13.9315 20.2312 13.2751C19.7389 12.6187 19.0712 12.25 18.375 12.25ZM3.5 15.75V19.25H7V15.75H3.5ZM26.25 15.75V16.625C26.25 18.0775 27.4225 19.25 28.875 19.25C30.3275 19.25 31.5 18.0775 31.5 16.625V15.75H26.25ZM27.2036 24.5C21.2606 24.5 19.4534 26.9671 19.3799 27.0703C19.1979 27.3293 19.2061 27.6625 19.4004 27.9146C20.2316 28.9908 21.8252 29.7158 23.3687 29.7158C25.9219 29.7158 28 27.7091 28 25.2451C28 24.8321 27.6446 24.5 27.2036 24.5Z" fill="#3C50E0"/>
</svg>
