<svg width="20" height="20" viewBox="0 0 20 20" fill="none" xmlns="http://www.w3.org/2000/svg">
<g id="icon-left">
<path id="Vector" d="M9.9995 1.66675C6.42492 1.66675 3.38492 3.92175 2.20117 7.08341H17.7974C16.6141 3.92175 13.5741 1.66675 9.9995 1.66675Z" fill="#F44336"/>
<path id="Vector_2" d="M18.3327 9.99992C18.3327 8.972 18.1377 7.99242 17.7977 7.08325H2.20102C1.86102 7.99242 1.66602 8.972 1.66602 9.99992C1.66602 11.0278 1.86102 12.0074 2.20102 12.9166H17.7973C18.1377 12.0074 18.3327 11.0278 18.3327 9.99992Z" fill="#ECEFF1"/>
<path id="Vector_3" d="M17.7978 12.9167H2.20117C3.38492 16.0784 6.42492 18.3334 9.9995 18.3334C13.5741 18.3334 16.6141 16.0784 17.7978 12.9167Z" fill="#0D47A1"/>
<path id="Vector_4" d="M10.0009 13.6866C8.70049 13.6866 7.64258 12.6287 7.64258 11.3283V8.47827H12.3592V11.3283C12.3592 12.6287 11.3013 13.6866 10.0009 13.6866Z" fill="white"/>
<path id="Vector_5" d="M12.2538 8.5826V11.3284C12.2538 12.5718 11.2429 13.5826 9.99961 13.5826C8.75628 13.5826 7.74544 12.5718 7.74544 11.3284V8.5826H12.2538ZM12.4621 8.37427H7.53711V11.3284C7.53711 12.6893 8.63919 13.7909 9.99961 13.7909C11.36 13.7909 12.4621 12.6889 12.4621 11.3284V8.37427Z" fill="#F44336"/>
<path id="Vector_6" d="M11.4043 8.51416H12.3368V9.53624H11.4043V8.51416Z" fill="#F44336"/>
<path id="Vector_7" d="M9.53711 8.51416H10.4679V9.53624H9.53711V8.51416Z" fill="#F44336"/>
<path id="Vector_8" d="M7.66992 8.51416H8.60242V9.53624H7.66992V8.51416Z" fill="#F44336"/>
<path id="Vector_9" d="M11.4043 10.5662H12.3368V11.5899H11.4043V10.5662Z" fill="#F44336"/>
<path id="Vector_10" d="M9.53711 10.5662H10.4679V11.5899H9.53711V10.5662Z" fill="#F44336"/>
<path id="Vector_11" d="M7.66992 10.5662H8.60242V11.5899H7.66992V10.5662Z" fill="#F44336"/>
<path id="Vector_12" d="M11.4043 13.177C11.7101 12.9457 11.8714 12.7082 11.9335 12.6187H11.4043V13.177Z" fill="#F44336"/>
<path id="Vector_13" d="M8.59977 13.177C8.29393 12.9457 8.13435 12.7082 8.07227 12.6187H8.59977V13.177Z" fill="#F44336"/>
<path id="Vector_14" d="M9.53711 13.602C9.53711 13.602 9.70294 13.6474 10.0042 13.6474C10.3054 13.6474 10.4679 13.6474 10.4679 13.6474V12.6187H9.53711V13.602Z" fill="#F44336"/>
<path id="Vector_15" d="M10.4707 11.5901H11.4032V12.6138H10.4707V11.5901Z" fill="#F44336"/>
<path id="Vector_16" d="M8.60156 11.5901H9.53406V12.6138H8.60156V11.5901Z" fill="#F44336"/>
<path id="Vector_17" d="M10.4707 9.53613H11.4032V10.5599H10.4707V9.53613Z" fill="#F44336"/>
<path id="Vector_18" d="M8.60156 9.53613H9.53406V10.5599H8.60156V9.53613Z" fill="#F44336"/>
<path id="Vector_19" d="M7.80227 8.36925L7.29102 7.21383L7.66852 6.59717L8.3456 6.84925L8.65643 8.07175C8.65643 8.07175 8.17477 8.19675 7.80227 8.36925Z" fill="#4FC3F7"/>
<path id="Vector_20" d="M9.545 7.92625L9.44417 6.66667L8.8175 6.30542L8.34375 6.84917L8.65625 8.07C8.65792 8.06959 9.15125 7.94917 9.545 7.92625Z" fill="#3F51B5"/>
<path id="Vector_21" d="M10.4551 7.92625L10.5559 6.66667L11.1826 6.30542L11.6547 6.84917L11.3422 8.07C11.3422 8.07 10.8488 7.94917 10.4551 7.92625Z" fill="#3F51B5"/>
<path id="Vector_22" d="M10.4561 7.92631L10.557 6.66673L10.002 6.20923L9.44531 6.66673L9.54615 7.92631C9.54615 7.92631 10.1011 7.88256 10.4561 7.92631Z" fill="#4FC3F7"/>
<path id="Vector_23" d="M12.1979 8.36925L12.7092 7.21383L12.3317 6.59717L11.6546 6.84925L11.3438 8.07175C11.3438 8.07175 11.8254 8.19675 12.1979 8.36925Z" fill="#4FC3F7"/>
<path id="Vector_24" d="M12.1979 8.36925L12.7092 7.21383L12.3317 6.59717L11.6546 6.84925L11.3438 8.07175C11.3438 8.07175 11.8254 8.19675 12.1979 8.36925Z" fill="#4FC3F7"/>
<path id="Vector_25" d="M8.42404 7.15671C9.08154 7.01004 9.28654 6.99087 9.46904 6.97754L9.44445 6.66671L9.44279 6.66504C9.32404 6.67171 8.91695 6.70421 8.3457 6.84879L8.42404 7.15671Z" fill="#F44336"/>
<path id="Vector_26" d="M9.52112 7.61242L9.49487 7.29492C9.11404 7.31451 8.61779 7.42992 8.50195 7.45951L8.58154 7.77367C8.9757 7.65951 9.3582 7.62367 9.52112 7.61242Z" fill="#F44336"/>
<path id="Vector_27" d="M11.4199 7.7687C11.8366 7.8762 12.1637 8.0112 12.3233 8.08287L12.5203 7.6387C12.0678 7.42703 11.6366 7.31662 11.5403 7.2937L11.4199 7.7687Z" fill="white"/>
<path id="Vector_28" d="M11.4414 7.68243C11.5652 7.70993 11.9018 7.79785 12.3577 8.00451L12.4881 7.71159C12.3772 7.66284 11.9118 7.46576 11.5197 7.37451L11.4414 7.68243Z" fill="#F44336"/>
</g>
</svg>
