<svg width="40" height="40" viewBox="0 0 40 40" fill="none" xmlns="http://www.w3.org/2000/svg">
<g id="English Icon">
<g id="Vector">
<path d="M5.59684 3C3.61664 3 2.01406 4.62 2.01406 6.6L2 28.1965C2 30.1855 3.61116 31.8 5.60035 31.8H9.19719V39L16.3979 31.8H34.3996C36.3798 31.8 38 30.18 38 28.2V6.6C38 4.62 36.3798 3 34.3996 3H5.59684ZM5.59684 6.6H34.3996V28.2H5.60035L5.59684 6.6Z" fill="white"/>
<path d="M17.9152 11.6471C17.9152 11.7281 17.8828 11.801 17.8181 11.8657C17.7695 11.9143 17.7047 11.9386 17.6237 11.9386H12.5467C12.4657 11.9386 12.4252 11.979 12.4252 12.06V15.8971C12.4252 15.9781 12.4657 16.0186 12.5467 16.0186H15.4617C15.5427 16.0186 15.6075 16.051 15.6561 16.1157C15.7208 16.1643 15.7532 16.229 15.7532 16.31V18.6657C15.7532 18.7467 15.7208 18.8195 15.6561 18.8843C15.6075 18.9329 15.5427 18.9571 15.4617 18.9571H12.5467C12.4657 18.9571 12.4252 18.9976 12.4252 19.0786V22.94C12.4252 23.021 12.4657 23.0614 12.5467 23.0614H17.6237C17.7047 23.0614 17.7695 23.0938 17.8181 23.1586C17.8828 23.2071 17.9152 23.2719 17.9152 23.3529V25.7086C17.9152 25.7895 17.8828 25.8624 17.8181 25.9271C17.7695 25.9757 17.7047 26 17.6237 26H9.29151C9.21053 26 9.13766 25.9757 9.07288 25.9271C9.02429 25.8624 9 25.7895 9 25.7086V9.29143C9 9.21048 9.02429 9.14571 9.07288 9.09714C9.13766 9.03238 9.21053 9 9.29151 9H17.6237C17.7047 9 17.7695 9.03238 17.8181 9.09714C17.8828 9.14571 17.9152 9.21048 17.9152 9.29143V11.6471Z" fill="white"/>
<path d="M26.5991 9.29143C26.5991 9.21048 26.6234 9.14571 26.672 9.09714C26.7368 9.03238 26.8096 9 26.8906 9H29.7085C29.7895 9 29.8542 9.03238 29.9028 9.09714C29.9676 9.14571 30 9.21048 30 9.29143V25.7086C30 25.7895 29.9676 25.8624 29.9028 25.9271C29.8542 25.9757 29.7895 26 29.7085 26H26.5019C26.34 26 26.2347 25.919 26.1861 25.7571L23.1739 16.3586C23.1577 16.31 23.1253 16.2938 23.0767 16.31C23.0443 16.31 23.0282 16.3343 23.0282 16.3829L23.0524 25.7086C23.0524 25.7895 23.0201 25.8624 22.9553 25.9271C22.9067 25.9757 22.8419 26 22.7609 26H19.943C19.8621 26 19.7892 25.9757 19.7244 25.9271C19.6758 25.8624 19.6515 25.7895 19.6515 25.7086V9.29143C19.6515 9.21048 19.6758 9.14571 19.7244 9.09714C19.7892 9.03238 19.8621 9 19.943 9H23.1253C23.2873 9 23.3925 9.08095 23.4411 9.24286L26.4776 18.6414C26.4938 18.69 26.5181 18.7143 26.5505 18.7143C26.5991 18.6981 26.6234 18.6657 26.6234 18.6171L26.5991 9.29143Z" fill="white"/>
</g>
</g>
</svg>
