<svg width="40" height="40" viewBox="0 0 40 40" fill="none" xmlns="http://www.w3.org/2000/svg">
<g id="Math Icon">
<path id="Vector" d="M10.541 3.00023C10.0415 3.00802 9.56546 3.21335 9.21741 3.57114C8.86936 3.92893 8.67773 4.40995 8.68457 4.90864V8.67398H4.91276C4.66286 8.67046 4.41474 8.71655 4.18284 8.80958C3.95093 8.90261 3.73986 9.04072 3.56189 9.21589C3.38391 9.39106 3.24259 9.5998 3.14613 9.82997C3.04967 10.0601 3 10.3072 3 10.5567C3 10.8062 3.04967 11.0532 3.14613 11.2833C3.24259 11.5135 3.38391 11.7222 3.56189 11.8974C3.73986 12.0726 3.95093 12.2107 4.18284 12.3037C4.41474 12.3968 4.66286 12.4429 4.91276 12.4393H8.68457V16.2047C8.68104 16.4541 8.72721 16.7018 8.8204 16.9333C8.91359 17.1649 9.05194 17.3756 9.22741 17.5532C9.40288 17.7309 9.61198 17.872 9.84255 17.9683C10.0731 18.0646 10.3205 18.1142 10.5705 18.1142C10.8204 18.1142 11.0678 18.0646 11.2984 17.9683C11.529 17.872 11.7381 17.7309 11.9135 17.5532C12.089 17.3756 12.2274 17.1649 12.3206 16.9333C12.4137 16.7018 12.4599 16.4541 12.4564 16.2047V12.4393H16.2282C16.4781 12.4429 16.7262 12.3968 16.9581 12.3037C17.19 12.2107 17.4011 12.0726 17.5791 11.8974C17.757 11.7222 17.8984 11.5135 17.9948 11.2833C18.0913 11.0532 18.141 10.8062 18.141 10.5567C18.141 10.3072 18.0913 10.0601 17.9948 9.82997C17.8984 9.5998 17.757 9.39106 17.5791 9.21589C17.4011 9.04072 17.19 8.90261 16.9581 8.80958C16.7262 8.71655 16.4781 8.67046 16.2282 8.67398H12.4564V4.90864C12.4598 4.65676 12.4126 4.40675 12.3175 4.17341C12.2225 3.94007 12.0815 3.72815 11.9029 3.5502C11.7242 3.37224 11.5117 3.23188 11.2778 3.13741C11.0439 3.04294 10.7933 2.9963 10.541 3.00023ZM23.7718 8.67398C23.5219 8.67046 23.2738 8.71655 23.0419 8.80958C22.81 8.90261 22.5989 9.04072 22.4209 9.21589C22.243 9.39106 22.1016 9.5998 22.0052 9.82997C21.9087 10.0601 21.859 10.3072 21.859 10.5567C21.859 10.8062 21.9087 11.0532 22.0052 11.2833C22.1016 11.5135 22.243 11.7222 22.4209 11.8974C22.5989 12.0726 22.81 12.2107 23.0419 12.3037C23.2738 12.3968 23.5219 12.4429 23.7718 12.4393H35.0872C35.3371 12.4429 35.5853 12.3968 35.8172 12.3037C36.0491 12.2107 36.2601 12.0726 36.4381 11.8974C36.6161 11.7222 36.7574 11.5135 36.8539 11.2833C36.9503 11.0532 37 10.8062 37 10.5567C37 10.3072 36.9503 10.0601 36.8539 9.82997C36.7574 9.5998 36.6161 9.39106 36.4381 9.21589C36.2601 9.04072 36.0491 8.90261 35.8172 8.80958C35.5853 8.71655 35.3371 8.67046 35.0872 8.67398H23.7718ZM5.8373 22.7756C5.46213 22.7757 5.09551 22.8875 4.78432 23.0967C4.47313 23.3059 4.2315 23.603 4.09033 23.95C3.94915 24.297 3.91485 24.6781 3.9918 25.0447C4.06876 25.4113 4.25347 25.7466 4.52232 26.0078L7.90369 29.3834L4.52232 32.7589C4.34133 32.9324 4.19682 33.1402 4.09728 33.3701C3.99773 33.6001 3.94514 33.8475 3.94259 34.098C3.94003 34.3485 3.98757 34.5969 4.08241 34.8288C4.17725 35.0607 4.31749 35.2714 4.49491 35.4485C4.67234 35.6256 4.88338 35.7656 5.11568 35.8603C5.34798 35.955 5.59687 36.0024 5.84777 35.9999C6.09867 35.9974 6.34654 35.9449 6.57686 35.8455C6.80719 35.7461 7.01533 35.6018 7.18911 35.4212L10.5705 32.0456L13.9518 35.4212C14.1256 35.6018 14.3338 35.7461 14.5641 35.8455C14.7944 35.9449 15.0423 35.9974 15.2932 35.9999C15.5441 36.0025 15.793 35.955 16.0253 35.8603C16.2576 35.7656 16.4686 35.6256 16.646 35.4485C16.8235 35.2714 16.9637 35.0607 17.0586 34.8288C17.1534 34.5969 17.2009 34.3485 17.1984 34.098C17.1958 33.8475 17.1432 33.6001 17.0437 33.3701C16.9441 33.1402 16.7996 32.9324 16.6186 32.7589L13.2373 29.3834L16.6186 26.0078C16.8912 25.7434 17.0773 25.4029 17.1526 25.031C17.228 24.6592 17.1891 24.2732 17.041 23.9238C16.8928 23.5744 16.6424 23.2779 16.3226 23.073C16.0027 22.8681 15.6283 22.7645 15.2484 22.7756C14.7584 22.7902 14.2934 22.9946 13.9518 23.3456L10.5705 26.7212L7.18911 23.3456C7.01336 23.1652 6.80319 23.0219 6.57101 22.924C6.33882 22.8261 6.08934 22.7757 5.8373 22.7756ZM23.7718 23.7354C23.5219 23.7318 23.2738 23.7779 23.0419 23.8709C22.81 23.964 22.5989 24.1021 22.4209 24.2773C22.243 24.4524 22.1016 24.6612 22.0052 24.8913C21.9087 25.1215 21.859 25.3685 21.859 25.618C21.859 25.8675 21.9087 26.1145 22.0052 26.3447C22.1016 26.5749 22.243 26.7836 22.4209 26.9588C22.5989 27.134 22.81 27.2721 23.0419 27.3651C23.2738 27.4581 23.5219 27.5042 23.7718 27.5007H35.0872C35.3371 27.5042 35.5853 27.4581 35.8172 27.3651C36.0491 27.2721 36.2601 27.134 36.4381 26.9588C36.6161 26.7836 36.7574 26.5749 36.8539 26.3447C36.9503 26.1145 37 25.8675 37 25.618C37 25.3685 36.9503 25.1215 36.8539 24.8913C36.7574 24.6612 36.6161 24.4524 36.4381 24.2773C36.2601 24.1021 36.0491 23.964 35.8172 23.8709C35.5853 23.7779 35.3371 23.7318 35.0872 23.7354H23.7718ZM23.7718 31.266C23.5219 31.2625 23.2738 31.3086 23.0419 31.4016C22.81 31.4947 22.5989 31.6328 22.4209 31.8079C22.243 31.9831 22.1016 32.1919 22.0052 32.422C21.9087 32.6522 21.859 32.8992 21.859 33.1487C21.859 33.3982 21.9087 33.6452 22.0052 33.8754C22.1016 34.1056 22.243 34.3143 22.4209 34.4895C22.5989 34.6646 22.81 34.8028 23.0419 34.8958C23.2738 34.9888 23.5219 35.0349 23.7718 35.0314H35.0872C35.3371 35.0349 35.5853 34.9888 35.8172 34.8958C36.0491 34.8028 36.2601 34.6646 36.4381 34.4895C36.6161 34.3143 36.7574 34.1056 36.8539 33.8754C36.9503 33.6452 37 33.3982 37 33.1487C37 32.8992 36.9503 32.6522 36.8539 32.422C36.7574 32.1919 36.6161 31.9831 36.4381 31.8079C36.2601 31.6328 36.0491 31.4947 35.8172 31.4016C35.5853 31.3086 35.3371 31.2625 35.0872 31.266H23.7718Z" fill="white"/>
</g>
</svg>
