<svg width="102" height="106" viewBox="0 0 102 106" fill="none" xmlns="http://www.w3.org/2000/svg">
<path d="M91.3755 2.13948H10.625C5.98997 2.13948 2.23169 5.89946 2.23169 10.5366V81.1168C2.23169 85.3493 4.91719 89.1164 8.91783 90.4927L44.5654 102.767C48.7353 104.203 53.2652 104.203 57.4351 102.767L93.0826 90.4927C97.0833 89.1146 99.7688 85.3493 99.7688 81.1168V10.5348C99.7688 5.89767 96.0105 2.1377 91.3755 2.1377V2.13948Z" fill="black"/>
<path d="M51 105.978C48.5836 105.978 46.1689 105.582 43.8683 104.791L8.22081 92.5161C3.35946 90.842 0.0930176 86.2602 0.0930176 81.1167V10.5347C0.0930176 4.72627 4.81715 0 10.6248 0H91.3752C97.1828 0 101.907 4.72627 101.907 10.5365V81.1167C101.907 86.2602 98.6405 90.842 93.7792 92.5161L58.1316 104.791C55.8328 105.582 53.4164 105.978 51 105.978ZM10.6248 4.27878C7.17655 4.27878 4.36987 7.08495 4.36987 10.5365V81.1167C4.36987 84.4346 6.47621 87.3905 9.61257 88.4709L45.2601 100.746C48.9614 102.02 53.0368 102.02 56.7381 100.746L92.3856 88.4709C95.522 87.3905 97.6283 84.4364 97.6283 81.1167V10.5347C97.6283 7.08495 94.8234 4.277 91.3734 4.277H10.6248V4.27878Z" fill="url(#paint0_linear_14764_22690)"/>
<path d="M47.3379 17.9898C47.066 17.6414 46.7102 17.3502 46.2589 17.1161C45.8076 16.882 45.2812 16.7649 44.6766 16.7649C44.0084 16.7649 43.3951 16.9276 42.8426 17.256C42.2901 17.5843 41.8533 18.0383 41.5322 18.6236C41.2111 19.2089 41.0491 19.8885 41.0491 20.6451C41.0491 21.4017 41.2111 22.087 41.5322 22.6866C41.8533 23.2862 42.2843 23.7573 42.8368 24.0885C43.3835 24.4254 43.991 24.5881 44.6505 24.5881C45.2436 24.5881 45.7758 24.4682 46.2416 24.2312C46.7073 23.9943 47.0747 23.6945 47.3408 23.3347V24.4654H48.9434V16.8791H47.3408L47.335 17.9841L47.3379 17.9898ZM47.011 22.0442C46.7912 22.4353 46.5077 22.7294 46.1519 22.9321C45.799 23.1348 45.42 23.2348 45.0064 23.2348C44.5927 23.2348 44.2282 23.132 43.8724 22.9264C43.5166 22.718 43.2244 22.421 43.0075 22.0242C42.7876 21.6273 42.6806 21.1705 42.6806 20.6451C42.6806 20.1198 42.7905 19.6686 43.0075 19.286C43.2244 18.9034 43.5108 18.6179 43.8666 18.4181C44.2195 18.221 44.5985 18.1211 45.0121 18.1211C45.4258 18.1211 45.8019 18.221 46.1577 18.4238C46.5106 18.6265 46.7941 18.9206 47.0168 19.306C47.2338 19.6915 47.3437 20.1426 47.3437 20.6708C47.3379 21.1962 47.228 21.653 47.011 22.0442Z" fill="white"/>
<path d="M54.6794 20.5132C54.3236 20.359 53.8666 20.2106 53.3025 20.0678C52.8859 19.9479 52.5706 19.8508 52.3537 19.7709C52.1367 19.6909 51.9573 19.5881 51.8127 19.4482C51.6623 19.3083 51.5929 19.1399 51.5929 18.9371C51.5929 18.6802 51.7028 18.4774 51.9284 18.3176C52.1483 18.1634 52.4694 18.0834 52.8917 18.0834C53.314 18.0834 53.6612 18.1834 53.91 18.3861C54.1616 18.5888 54.3005 18.8572 54.3265 19.1998H55.9175C55.8828 18.446 55.5964 17.8522 55.0584 17.4153C54.5261 16.9785 53.8174 16.7615 52.9438 16.7615C52.3565 16.7615 51.8387 16.8557 51.3875 17.0499C50.9362 17.244 50.5891 17.5067 50.349 17.8436C50.1089 18.1805 49.9874 18.5488 49.9874 18.9543C49.9874 19.4511 50.1176 19.8479 50.3837 20.1535C50.6498 20.4561 50.9622 20.6788 51.3238 20.8273C51.6854 20.9758 52.1569 21.1242 52.7297 21.2841C53.3227 21.4469 53.7595 21.601 54.0343 21.7409C54.3092 21.8809 54.4451 22.0893 54.4451 22.3748C54.4451 22.6432 54.3207 22.8602 54.0748 23.0286C53.829 23.1971 53.4818 23.2828 53.0363 23.2828C52.5909 23.2828 52.2524 23.1743 51.9718 22.9601C51.6912 22.746 51.535 22.4747 51.5061 22.1578H49.8601C49.8804 22.6175 50.025 23.0315 50.3085 23.4027C50.5891 23.7738 50.9651 24.0679 51.4424 24.2849C51.9197 24.4991 52.4607 24.6076 53.0653 24.6076C53.6699 24.6076 54.179 24.5133 54.6216 24.3192C55.0642 24.125 55.4055 23.8566 55.6456 23.5197C55.8857 23.1828 56.0072 22.7945 56.0072 22.3634C55.9985 21.878 55.8626 21.4868 55.5993 21.1927C55.3476 20.8901 55.0381 20.6674 54.6794 20.5132Z" fill="white"/>
<path d="M59.0214 15H57.4188V16.8844H56.5105V18.1636H57.4188V22.3636C57.4188 23.1059 57.6097 23.6427 57.9916 23.9739C58.3734 24.3051 58.9202 24.4707 59.6376 24.4707H60.893V23.163H59.9182C59.5913 23.163 59.3599 23.1031 59.2297 22.9803C59.0937 22.8575 59.0301 22.6519 59.0301 22.3664V18.1664H60.8988V16.8873H59.0301V15.0029H59.0214V15Z" fill="white"/>
<path d="M63.3869 17.9898V16.8905H61.7959V24.4768H63.3869V20.4852C63.3869 19.7115 63.5489 19.1718 63.87 18.8578C64.1911 18.5465 64.6626 18.3924 65.2874 18.3924H65.6953V16.7649C65.1631 16.7649 64.706 16.8734 64.3184 17.0875C63.9307 17.3017 63.6241 17.6043 63.3898 17.9898H63.3869Z" fill="white"/>
<path d="M72.2786 16.8871V17.9864C72.0067 17.638 71.6508 17.3468 71.1996 17.1127C70.7483 16.8785 70.2218 16.7615 69.6172 16.7615C68.949 16.7615 68.3358 16.9242 67.7832 17.2526C67.2307 17.5809 66.7939 18.0349 66.4728 18.6202C66.1517 19.2055 65.9897 19.8851 65.9897 20.6417C65.9897 21.3983 66.1517 22.0836 66.4728 22.6832C66.7939 23.2828 67.2249 23.7539 67.7775 24.0851C68.3242 24.422 68.9317 24.5847 69.5912 24.5847C70.1842 24.5847 70.7165 24.4648 71.1822 24.2278C71.648 23.9908 72.0153 23.691 72.2815 23.3313V24.462H73.884V16.8757L72.2786 16.8814V16.8871ZM71.9517 22.0436C71.7318 22.4348 71.4484 22.7288 71.0925 22.9316C70.7425 23.1343 70.3607 23.2342 69.947 23.2342C69.5334 23.2342 69.1689 23.1314 68.8131 22.9259C68.4573 22.7174 68.1651 22.4205 67.9481 22.0236C67.7283 21.6267 67.6213 21.1699 67.6213 20.6445C67.6213 20.1192 67.7312 19.6681 67.9481 19.2855C68.1651 18.9029 68.4515 18.6174 68.8073 18.4175C69.1573 18.2205 69.5391 18.1206 69.9528 18.1206C70.3665 18.1206 70.7425 18.2205 71.0983 18.4232C71.4484 18.6259 71.7347 18.92 71.9575 19.3055C72.1744 19.6909 72.2844 20.142 72.2844 20.6702C72.2786 21.1956 72.1744 21.6524 71.9517 22.0436Z" fill="white"/>
<path d="M38.4948 22.0153C38.2547 21.5699 37.9279 21.1416 37.5316 20.7504C37.4824 20.7019 37.4274 20.6505 37.3696 20.602C37.3435 20.9332 37.2943 21.2558 37.2278 21.5784C37.1786 21.8211 37.1179 22.0496 37.0427 22.278C37.1324 22.4007 37.2133 22.5264 37.2799 22.6491C37.4563 22.9775 37.708 23.5999 37.4216 24.091C37.0542 24.722 35.7901 24.9247 34.3727 24.368C34.3119 24.3423 33.8259 24.1196 33.635 24.0168C33.4383 23.9083 33.259 23.7827 33.0825 23.6542C32.9032 23.52 32.7267 23.3715 32.5705 23.223C32.2552 22.9204 31.9977 22.5892 31.8184 22.2551C31.7229 22.0867 31.6332 21.9039 31.558 21.6955C31.4568 21.744 31.3584 21.7954 31.263 21.8497C31.0663 21.9582 30.8869 22.0838 30.7249 22.2123C30.615 22.3008 30.5051 22.3893 30.4038 22.4893L30.398 22.495C30.4588 22.6349 30.5282 22.7662 30.5976 22.8918C30.884 23.4172 31.2919 23.9226 31.7923 24.3651C30.3749 24.919 29.1108 24.7163 28.7434 24.0882C28.457 23.5971 28.7087 22.9718 28.8851 22.6463C29.0616 22.3179 29.3161 21.9924 29.6286 21.6955C29.753 21.5756 29.8889 21.4585 30.0307 21.3472C30.2418 21.1844 30.4675 21.0302 30.7076 20.8903C30.9043 20.7818 31.0981 20.6819 31.3006 20.5991C31.8936 20.345 32.5011 20.2137 33.042 20.2137H33.123C33.4904 20.2137 33.8809 20.2736 34.2772 20.3935C34.4739 20.4535 34.6735 20.522 34.8702 20.6077C34.85 20.7904 34.821 20.9646 34.7805 21.133C34.6909 21.5356 34.5491 21.8954 34.3842 22.1952C34.3842 22.2009 34.3785 22.2037 34.3785 22.2037C34.2685 22.4264 34.1123 22.6606 33.9156 22.889C34.0053 22.9489 34.1007 23.0089 34.1962 23.0632C34.3466 23.1488 34.795 23.3515 34.795 23.3515C34.931 23.4058 35.1913 23.48 35.1971 23.4857C35.3388 23.2973 35.4575 23.1031 35.5645 22.9118C35.8219 22.4607 36.0158 21.9353 36.143 21.3586C36.2385 20.916 36.2877 20.4421 36.2877 19.9453V19.8025C36.2385 17.2699 34.8529 15.3113 33.0883 15.3113C31.6535 15.3113 30.4675 16.6161 30.0509 18.4634C30.3518 18.3207 30.6642 18.2007 30.9737 18.098C31.2109 18.018 31.4452 17.9581 31.6824 17.9038C32.0382 17.13 32.5821 16.6646 33.0883 16.6646C33.8259 16.6646 34.6359 17.6525 34.8558 19.143C34.257 18.9488 33.6553 18.8517 33.0883 18.8546C32.556 18.8632 31.8791 18.9631 31.3208 19.143C30.884 19.2857 30.4414 19.4799 30.0191 19.7169C29.9728 19.7426 29.9294 19.7654 29.8889 19.7968C28.9141 20.3821 28.1272 21.1644 27.6702 22.0181C27.1379 23.0089 27.0974 23.9911 27.5545 24.7734C28.052 25.6214 29.0355 26.0583 30.2013 26.0583C31.101 26.0583 32.1105 25.7956 33.0883 25.2645C34.066 25.7956 35.0727 26.0583 35.9753 26.0583C37.141 26.0583 38.1246 25.6214 38.6221 24.7734C39.0734 23.9939 39.0329 23.0146 38.4977 22.021L38.4948 22.0153Z" fill="#FCB201"/>
<path d="M78.5112 38.0583H82.7708L86.0298 58.0697H82.8851L82.3134 54.0961V54.1532H78.7399L78.1681 58.0697H75.2522L78.5112 38.0583ZM81.9417 51.4374L80.5409 41.5461H80.4838L79.1115 51.4374H81.9417Z" fill="white"/>
<path d="M64.553 38.0583H69.2128C70.8327 38.0583 72.0144 38.4395 72.7577 39.2019C73.5009 39.9451 73.8726 41.0982 73.8726 42.661V43.8902C73.8726 45.9676 73.1865 47.2827 71.8143 47.8353V47.8925C72.5766 48.1212 73.1102 48.5882 73.4152 49.2933C73.7392 49.9985 73.9012 50.9419 73.9012 52.1235V55.6398C73.9012 56.2115 73.9202 56.6785 73.9583 57.0406C73.9965 57.3836 74.0917 57.7267 74.2442 58.0697H71.0424C70.928 57.7458 70.8518 57.4408 70.8137 57.1549C70.7756 56.8691 70.7565 56.3545 70.7565 55.6112V51.952C70.7565 51.0372 70.604 50.3987 70.2991 50.0366C70.0132 49.6745 69.5082 49.4934 68.784 49.4934H67.6976V58.0697H64.553V38.0583ZM68.8411 46.6347C69.4701 46.6347 69.937 46.4727 70.2419 46.1487C70.5659 45.8247 70.7279 45.2815 70.7279 44.5192V42.9754C70.7279 42.2512 70.5945 41.7271 70.3277 41.4031C70.0799 41.0791 69.6797 40.9171 69.127 40.9171H67.6976V46.6347H68.8411Z" fill="white"/>
<path d="M57.6261 58.3556C56.1015 58.3556 54.9389 57.9268 54.1384 57.0692C53.338 56.1925 52.9377 54.9442 52.9377 53.3242V38.0583H56.0824V53.5529C56.0824 54.239 56.2158 54.7345 56.4826 55.0394C56.7685 55.3444 57.1687 55.4969 57.6833 55.4969C58.1979 55.4969 58.5886 55.3444 58.8554 55.0394C59.1413 54.7345 59.2842 54.239 59.2842 53.5529V38.0583H62.3145V53.3242C62.3145 54.9442 61.9143 56.1925 61.1138 57.0692C60.3134 57.9268 59.1508 58.3556 57.6261 58.3556Z" fill="white"/>
<path d="M45.0954 40.9171H41.8079V38.0583H51.5277V40.9171H48.2401V58.0697H45.0954V40.9171Z" fill="white"/>
<path d="M34.9038 38.0583H39.1633L42.4223 58.0697H39.2777L38.7059 54.0961V54.1532H35.1325L34.5607 58.0697H31.6448L34.9038 38.0583ZM38.3343 51.4374L36.9335 41.5461H36.8763L35.5041 51.4374H38.3343Z" fill="white"/>
<path d="M17.093 38.0583H21.5813L23.5824 52.3808H23.6396L25.6407 38.0583H30.129V58.0697H27.1559V42.9183H27.0987L24.8117 58.0697H22.1816L19.8946 42.9183H19.8374V58.0697H17.093V38.0583Z" fill="white"/>
<path d="M56.5802 70.3555H44.5426C41.9095 70.3555 39.7688 72.4791 39.7688 75.0909V87.03C39.7688 89.6418 41.9095 91.7654 44.5426 91.7654H56.5802C59.2133 91.7654 61.354 89.6418 61.354 87.03V75.0909C61.354 72.4791 59.2154 70.3555 56.5802 70.3555ZM59.7186 87.03C59.7186 88.7426 58.3131 90.1384 56.5802 90.1384H44.5426C42.8205 90.1384 41.4042 88.7512 41.4042 87.03V75.0909C41.4042 73.3782 42.8096 71.9825 44.5426 71.9825H56.5802C58.3023 71.9825 59.7186 73.3697 59.7186 75.0909V87.03Z" fill="#FCB201"/>
<path d="M47.4836 76.217L44.0046 85.8377H46.0348L46.6703 84.0073H50.5223L51.1578 85.8377H53.2096L49.7306 76.217H47.4814H47.4836ZM47.2103 82.4681L48.6049 78.4477L49.9974 82.4681H47.2103Z" fill="#EFF4FB"/>
<path d="M55.9881 76.2275H54.0469V85.8375H55.9881V76.2275Z" fill="#EFF4FB"/>
<defs>
<linearGradient id="paint0_linear_14764_22690" x1="51" y1="105.978" x2="51" y2="0" gradientUnits="userSpaceOnUse">
<stop stop-color="#3C50DF"/>
<stop offset="0.5" stop-color="#B478FF"/>
<stop offset="1" stop-color="#F1AC0C"/>
</linearGradient>
</defs>
</svg>
