<svg width="18" height="19" viewBox="0 0 18 19" fill="none" xmlns="http://www.w3.org/2000/svg">
<path d="M9 2.75C7.34325 2.75 6 4.09325 6 5.75C6 7.40675 7.34325 8.75 9 8.75C10.6567 8.75 12 7.40675 12 5.75C12 4.09325 10.6567 2.75 9 2.75ZM9 4.25C9.82725 4.25 10.5 4.92275 10.5 5.75C10.5 6.57725 9.82725 7.25 9 7.25C8.17275 7.25 7.5 6.57725 7.5 5.75C7.5 4.92275 8.17275 4.25 9 4.25ZM6.60791 11.2944C4.49516 11.7624 2.25 12.7887 2.25 14.375L2.25 16.25H15.75V14.375C15.75 12.7887 13.5048 11.7624 11.3921 11.2944C10.8446 12.0227 9.981 12.5 9 12.5C8.019 12.5 7.15541 12.0227 6.60791 11.2944ZM6.1377 12.9629C6.9357 13.6304 7.9365 14 9 14C10.0635 14 11.0643 13.6304 11.8623 12.9629C13.5506 13.4646 14.25 14.1403 14.25 14.375V14.75L3.75 14.75V14.375C3.75 14.1403 4.44945 13.4646 6.1377 12.9629Z" fill="white"/>
</svg>
