<svg width="227" height="24" viewBox="0 0 227 24" fill="none" xmlns="http://www.w3.org/2000/svg">
<path d="M19.4161 12.8359L14.944 10.9731L13.0812 6.501C12.9534 6.19532 12.4518 6.19532 12.324 6.501L10.4612 10.9731L5.98907 12.8359C5.83582 12.8998 5.73666 13.049 5.73666 13.2145C5.73666 13.3801 5.83582 13.5292 5.98907 13.5932L10.4612 15.4559L12.324 19.9281C12.3879 20.0813 12.5371 20.1805 12.7026 20.1805C12.8682 20.1805 13.0173 20.0813 13.0812 19.9281L14.944 15.4559L19.4161 13.5932C19.5694 13.5292 19.6686 13.3801 19.6686 13.2145C19.6686 13.049 19.5694 12.8998 19.4161 12.8359ZM8.73448 7.0886L5.85631 6.12894L4.89665 3.25077C4.78438 2.91641 4.23038 2.91641 4.11892 3.25077L3.15844 6.12894L0.280277 7.0886C0.113094 7.14515 0 7.30168 0 7.47787C0 7.65407 0.113094 7.8106 0.280277 7.86715L3.15926 8.82681L4.11892 11.7058C4.17465 11.8722 4.33118 11.9852 4.50738 11.9852C4.68357 11.9852 4.8401 11.8722 4.89665 11.705L5.85631 8.82599L8.7353 7.86633C8.90166 7.8106 9.01475 7.65407 9.01475 7.47787C9.01475 7.30168 8.90166 7.14515 8.73448 7.0886ZM7.09543 17.7424L5.44573 17.1925L4.89583 15.5428C4.78356 15.2084 4.22956 15.2084 4.1181 15.5428L3.5682 17.1925L1.9185 17.7424C1.75214 17.7989 1.63905 17.9555 1.63905 18.1317C1.63905 18.3079 1.75214 18.4644 1.91932 18.5209L3.56902 19.0708L4.11892 20.7205C4.17465 20.8869 4.33118 21 4.50738 21C4.68357 21 4.8401 20.8869 4.89665 20.7197L5.44655 19.07L7.09625 18.5201C7.26261 18.4644 7.37571 18.3079 7.37571 18.1317C7.37571 17.9555 7.26261 17.7989 7.09543 17.7424Z" fill="url(#paint0_linear_13273_101689)"/>
<path d="M36.6765 17H34.0845L33.4285 15.192H28.8525L28.1805 17H25.5885L29.7165 6.328H32.5645L36.6765 17ZM32.8045 13.192L31.1405 8.6L29.4765 13.192H32.8045ZM41.3446 17.192C39.2966 17.192 37.8246 16.504 36.8326 15.496L38.0646 13.768C38.8166 14.552 39.9846 15.208 41.4566 15.208C42.7046 15.208 43.3126 14.632 43.3126 14.024C43.3126 12.136 37.1686 13.432 37.1686 9.416C37.1686 7.64 38.7046 6.168 41.2166 6.168C42.9126 6.168 44.3206 6.68 45.3766 7.656L44.1126 9.32C43.2486 8.52 42.0966 8.152 41.0086 8.152C40.0326 8.152 39.4886 8.584 39.4886 9.224C39.4886 10.92 45.6166 9.784 45.6166 13.768C45.6166 15.72 44.2246 17.192 41.3446 17.192ZM51.6952 17H49.4072V8.328H46.2872V6.328H54.7992V8.328H51.6952V17ZM64.8957 17H62.2877L60.1917 13.208H58.5277V17H56.2557V6.328H61.2477C63.4717 6.328 64.8317 7.784 64.8317 9.768C64.8317 11.656 63.6477 12.664 62.4957 12.936L64.8957 17ZM60.9117 11.208C61.8237 11.208 62.5117 10.664 62.5117 9.768C62.5117 8.872 61.8237 8.328 60.9117 8.328H58.5277V11.208H60.9117ZM76.489 17H73.897L73.241 15.192H68.665L67.993 17H65.401L69.529 6.328H72.377L76.489 17ZM72.617 13.192L70.953 8.6L69.289 13.192H72.617ZM91.5202 17H88.9282L88.2722 15.192H83.6962L83.0242 17H80.4322L84.5602 6.328H87.4082L91.5202 17ZM87.6482 13.192L85.9842 8.6L84.3202 13.192H87.6482ZM94.7777 17H92.5057V6.328H94.7777V17ZM103.262 17H100.99V6.328H105.982C108.302 6.328 109.566 7.896 109.566 9.768C109.566 11.624 108.286 13.208 105.982 13.208H103.262V17ZM105.678 11.208C106.574 11.208 107.246 10.648 107.246 9.768C107.246 8.872 106.574 8.328 105.678 8.328H103.262V11.208H105.678ZM117.758 17H110.974V6.328H113.246V15H117.758V17ZM123.775 17.192C120.527 17.192 118.959 15.368 118.959 12.744V6.328H121.263V12.664C121.263 14.152 122.127 15.176 123.775 15.176C125.423 15.176 126.271 14.152 126.271 12.664V6.328H128.591V12.728C128.591 15.384 127.023 17.192 123.775 17.192ZM134.485 17.192C132.437 17.192 130.965 16.504 129.973 15.496L131.205 13.768C131.957 14.552 133.125 15.208 134.597 15.208C135.845 15.208 136.453 14.632 136.453 14.024C136.453 12.136 130.309 13.432 130.309 9.416C130.309 7.64 131.845 6.168 134.357 6.168C136.053 6.168 137.461 6.68 138.517 7.656L137.253 9.32C136.389 8.52 135.237 8.152 134.149 8.152C133.173 8.152 132.629 8.584 132.629 9.224C132.629 10.92 138.757 9.784 138.757 13.768C138.757 15.72 137.365 17.192 134.485 17.192Z" fill="white"/>
<defs>
<linearGradient id="paint0_linear_13273_101689" x1="0" y1="12.0002" x2="19.6686" y2="12.0002" gradientUnits="userSpaceOnUse">
<stop stop-color="#3C50E0"/>
<stop offset="0.505" stop-color="#B478FF"/>
<stop offset="1" stop-color="#F1AC0C"/>
</linearGradient>
</defs>
</svg>
