<svg width="14" height="14" viewBox="0 0 14 14" fill="none" xmlns="http://www.w3.org/2000/svg">
<path id="Vector" d="M3.88566 0.585105C3.70473 0.766036 3.5939 1.01747 3.59425 1.29359L3.59425 1.41513C3.59425 1.96808 4.04189 2.41573 4.59414 2.41502L10.0576 2.41502L0.815544 11.6571C0.425221 12.0475 0.425221 12.681 0.815544 13.0713C1.20587 13.4617 1.83943 13.4617 2.22976 13.0713L11.4719 3.82923L11.4719 9.29274C11.4719 9.84569 11.9195 10.2933 12.4718 10.2926L12.5933 10.2926C13.1462 10.2926 13.5939 9.84499 13.5932 9.29274L13.5932 1.29359C13.5932 0.740633 13.1455 0.292991 12.5933 0.293698L4.59414 0.2937C4.31766 0.2937 4.06659 0.404175 3.88566 0.585105Z" fill="white"/>
</svg>
