<svg width="40" height="40" viewBox="0 0 40 40" fill="none" xmlns="http://www.w3.org/2000/svg">
<g id="Get Quote">
<path id="Vector" d="M25 8.28784C23.1583 8.28784 21.6667 9.77951 21.6667 11.6212V18.2878C21.6667 20.1295 23.1583 21.6212 25 21.6212H30.0163L24.5182 29.0072C23.7016 30.1056 24.4845 31.6667 25.8561 31.6667C26.3828 31.6667 26.8758 31.4195 27.1908 30.9962L34.3424 21.3901C34.7691 20.8151 35 20.1178 35 19.4011V11.6212C35 9.77951 33.5083 8.28784 31.6667 8.28784H25ZM8.33333 8.33341C6.49167 8.33341 5 9.82508 5 11.6667V18.3334C5 20.1751 6.49167 21.6667 8.33333 21.6667H13.3496L7.88411 29.004C7.06745 30.104 7.85034 31.6667 9.222 31.6667C9.74867 31.6667 10.2449 31.4195 10.5599 30.9962L17.6758 21.4356C18.1024 20.8606 18.3333 20.165 18.3333 19.4467V11.6667C18.3333 9.82508 16.8417 8.33341 15 8.33341H8.33333Z" fill="#FDB300"/>
</g>
</svg>
