<svg width="16" height="15" viewBox="0 0 16 15" fill="none" xmlns="http://www.w3.org/2000/svg">
<path d="M15.201 8.15015L11.7227 6.70133L10.2739 3.223C10.1745 2.98525 9.78437 2.98525 9.68493 3.223L8.23611 6.70133L4.75778 8.15015C4.63858 8.19987 4.56146 8.31588 4.56146 8.44464C4.56146 8.57339 4.63858 8.6894 4.75778 8.73912L8.23611 10.1879L9.68493 13.6663C9.73465 13.7855 9.85066 13.8626 9.97941 13.8626C10.1082 13.8626 10.2242 13.7855 10.2739 13.6663L11.7227 10.1879L15.201 8.73912C15.3202 8.6894 15.3974 8.57339 15.3974 8.44464C15.3974 8.31588 15.3202 8.19987 15.201 8.15015ZM6.89309 3.68002L4.65452 2.93362L3.90811 0.695046C3.82079 0.434985 3.3899 0.434985 3.30322 0.695046L2.55617 2.93362L0.317602 3.68002C0.187572 3.724 0.0996094 3.84575 0.0996094 3.98279C0.0996094 4.11983 0.187572 4.24158 0.317602 4.28556L2.55681 5.03196L3.30322 7.27117C3.34656 7.40056 3.4683 7.48853 3.60535 7.48853C3.74239 7.48853 3.86413 7.40056 3.90811 7.27053L4.65452 5.03132L6.89373 4.28492C7.02312 4.24158 7.11108 4.11983 7.11108 3.98279C7.11108 3.84575 7.02312 3.724 6.89309 3.68002ZM5.61828 11.9663L4.33518 11.5386L3.90748 10.2555C3.82015 9.99545 3.38927 9.99545 3.30258 10.2555L2.87488 11.5386L1.59178 11.9663C1.46239 12.0103 1.37442 12.132 1.37442 12.2691C1.37442 12.4061 1.46238 12.5279 1.59242 12.5718L2.87552 12.9995L3.30322 14.2826C3.34656 14.412 3.4683 14.5 3.60535 14.5C3.74239 14.5 3.86413 14.412 3.90811 14.282L4.33581 12.9989L5.61891 12.5712C5.74831 12.5279 5.83627 12.4061 5.83627 12.2691C5.83627 12.132 5.74831 12.0103 5.61828 11.9663Z" fill="#FDB300"/>
</svg>
